<?xml version="1.0" encoding="utf-8" standalone="no"?>
<!DOCTYPE svg PUBLIC "-//W3C//DTD SVG 1.1//EN"
  "http://www.w3.org/Graphics/SVG/1.1/DTD/svg11.dtd">
<svg xmlns:xlink="http://www.w3.org/1999/xlink" width="216pt" height="216pt" viewBox="0 0 216 216" xmlns="http://www.w3.org/2000/svg" version="1.1">
 <metadata>
  <rdf:RDF xmlns:dc="http://purl.org/dc/elements/1.1/" xmlns:cc="http://creativecommons.org/ns#" xmlns:rdf="http://www.w3.org/1999/02/22-rdf-syntax-ns#">
   <cc:Work>
    <dc:type rdf:resource="http://purl.org/dc/dcmitype/StillImage"/>
    <dc:date>2024-08-16T12:44:32.693574</dc:date>
    <dc:format>image/svg+xml</dc:format>
    <dc:creator>
     <cc:Agent>
      <dc:title>Matplotlib v3.6.2, https://matplotlib.org/</dc:title>
     </cc:Agent>
    </dc:creator>
   </cc:Work>
  </rdf:RDF>
 </metadata>
 <defs>
  <style type="text/css">*{stroke-linejoin: round; stroke-linecap: butt}</style>
 </defs>
 <g id="figure_1">
  <g id="patch_1">
   <path d="M 0 216 
L 216 216 
L 216 0 
L 0 0 
z
" style="fill: #ffffff"/>
  </g>
  <g id="axes_1">
   <g id="LineCollection_1">
    <path d="M 23.468 94.9255 
L 22.891585 94.9255 
L 22.891585 123.4285 
L 23.468 123.4285 
" clip-path="url(#pb8fbc0cd1d)" style="fill: none; stroke: #333333; stroke-width: 0.5"/>
    <path d="M 23.468 66.4225 
L 21.081165 66.4225 
L 21.081165 109.177 
L 22.891585 109.177 
" clip-path="url(#pb8fbc0cd1d)" style="fill: none; stroke: #333333; stroke-width: 0.5"/>
    <path d="M 23.468 37.9195 
L 11.403238 37.9195 
L 11.403238 87.79975 
L 21.081165 87.79975 
" clip-path="url(#pb8fbc0cd1d)" style="fill: none; stroke: #333333; stroke-width: 0.5"/>
   </g>
  </g>
  <g id="axes_2">
   <g id="LineCollection_2">
    <path d="M 94.9255 23.468 
L 94.9255 22.891585 
L 123.4285 22.891585 
L 123.4285 23.468 
" clip-path="url(#p6b294688ab)" style="fill: none; stroke: #333333; stroke-width: 0.5"/>
    <path d="M 66.4225 23.468 
L 66.4225 21.081165 
L 109.177 21.081165 
L 109.177 22.891585 
" clip-path="url(#p6b294688ab)" style="fill: none; stroke: #333333; stroke-width: 0.5"/>
    <path d="M 37.9195 23.468 
L 37.9195 11.403238 
L 87.79975 11.403238 
L 87.79975 21.081165 
" clip-path="url(#p6b294688ab)" style="fill: none; stroke: #333333; stroke-width: 0.5"/>
   </g>
  </g>
  <g id="axes_3">
   <g id="patch_2">
    <path d="M 23.668 137.68 
L 137.68 137.68 
L 137.68 23.668 
L 23.668 23.668 
z
" style="fill: #ffffff"/>
   </g>
   <g id="QuadMesh_1">
    <path d="M 23.668 23.668 
L 52.171 23.668 
L 52.171 52.171 
L 23.668 52.171 
L 23.668 23.668 
" clip-path="url(#p6a979f4382)" style="fill: #053061"/>
    <path d="M 52.171 23.668 
L 80.674 23.668 
L 80.674 52.171 
L 52.171 52.171 
L 52.171 23.668 
" clip-path="url(#p6a979f4382)" style="fill: #f9eee7"/>
    <path d="M 80.674 23.668 
L 109.177 23.668 
L 109.177 52.171 
L 80.674 52.171 
L 80.674 23.668 
" clip-path="url(#p6a979f4382)" style="fill: #c84440"/>
    <path d="M 109.177 23.668 
L 137.68 23.668 
L 137.68 52.171 
L 109.177 52.171 
L 109.177 23.668 
" clip-path="url(#p6a979f4382)" style="fill: #d86551"/>
    <path d="M 23.668 52.171 
L 52.171 52.171 
L 52.171 80.674 
L 23.668 80.674 
L 23.668 52.171 
" clip-path="url(#p6a979f4382)" style="fill: #f9eee7"/>
    <path d="M 52.171 52.171 
L 80.674 52.171 
L 80.674 80.674 
L 52.171 80.674 
L 52.171 52.171 
" clip-path="url(#p6a979f4382)" style="fill: #053061"/>
    <path d="M 80.674 52.171 
L 109.177 52.171 
L 109.177 80.674 
L 80.674 80.674 
L 80.674 52.171 
" clip-path="url(#p6a979f4382)" style="fill: #0a3b70"/>
    <path d="M 109.177 52.171 
L 137.68 52.171 
L 137.68 80.674 
L 109.177 80.674 
L 109.177 52.171 
" clip-path="url(#p6a979f4382)" style="fill: #0a3b70"/>
    <path d="M 23.668 80.674 
L 52.171 80.674 
L 52.171 109.177 
L 23.668 109.177 
L 23.668 80.674 
" clip-path="url(#p6a979f4382)" style="fill: #c84440"/>
    <path d="M 52.171 80.674 
L 80.674 80.674 
L 80.674 109.177 
L 52.171 109.177 
L 52.171 80.674 
" clip-path="url(#p6a979f4382)" style="fill: #0a3b70"/>
    <path d="M 80.674 80.674 
L 109.177 80.674 
L 109.177 109.177 
L 80.674 109.177 
L 80.674 80.674 
" clip-path="url(#p6a979f4382)" style="fill: #053061"/>
    <path d="M 109.177 80.674 
L 137.68 80.674 
L 137.68 109.177 
L 109.177 109.177 
L 109.177 80.674 
" clip-path="url(#p6a979f4382)" style="fill: #0f437b"/>
    <path d="M 23.668 109.177 
L 52.171 109.177 
L 52.171 137.68 
L 23.668 137.68 
L 23.668 109.177 
" clip-path="url(#p6a979f4382)" style="fill: #d86551"/>
    <path d="M 52.171 109.177 
L 80.674 109.177 
L 80.674 137.68 
L 52.171 137.68 
L 52.171 109.177 
" clip-path="url(#p6a979f4382)" style="fill: #0a3b70"/>
    <path d="M 80.674 109.177 
L 109.177 109.177 
L 109.177 137.68 
L 80.674 137.68 
L 80.674 109.177 
" clip-path="url(#p6a979f4382)" style="fill: #0f437b"/>
    <path d="M 109.177 109.177 
L 137.68 109.177 
L 137.68 137.68 
L 109.177 137.68 
L 109.177 109.177 
" clip-path="url(#p6a979f4382)" style="fill: #053061"/>
   </g>
   <g id="matplotlib.axis_1">
    <g id="xtick_1">
     <g id="line2d_1">
      <defs>
       <path id="m4bd5eaffaf" d="M 0 0 
L 0 3.5 
" style="stroke: #000000; stroke-width: 0.8"/>
      </defs>
      <g>
       <use xlink:href="#m4bd5eaffaf" x="37.9195" y="137.68" style="stroke: #000000; stroke-width: 0.8"/>
      </g>
     </g>
     <g id="text_1">
      <!-- MYT1 -->
      <g transform="translate(40.678875 171.88625) rotate(-90) scale(0.1 -0.1)">
       <defs>
        <path id="DejaVuSans-4d" d="M 628 4666 
L 1569 4666 
L 2759 1491 
L 3956 4666 
L 4897 4666 
L 4897 0 
L 4281 0 
L 4281 4097 
L 3078 897 
L 2444 897 
L 1241 4097 
L 1241 0 
L 628 0 
L 628 4666 
z
" transform="scale(0.015625)"/>
        <path id="DejaVuSans-59" d="M -13 4666 
L 666 4666 
L 1959 2747 
L 3244 4666 
L 3922 4666 
L 2272 2222 
L 2272 0 
L 1638 0 
L 1638 2222 
L -13 4666 
z
" transform="scale(0.015625)"/>
        <path id="DejaVuSans-54" d="M -19 4666 
L 3928 4666 
L 3928 4134 
L 2272 4134 
L 2272 0 
L 1638 0 
L 1638 4134 
L -19 4134 
L -19 4666 
z
" transform="scale(0.015625)"/>
        <path id="DejaVuSans-31" d="M 794 531 
L 1825 531 
L 1825 4091 
L 703 3866 
L 703 4441 
L 1819 4666 
L 2450 4666 
L 2450 531 
L 3481 531 
L 3481 0 
L 794 0 
L 794 531 
z
" transform="scale(0.015625)"/>
       </defs>
       <use xlink:href="#DejaVuSans-4d"/>
       <use xlink:href="#DejaVuSans-59" x="86.279297"/>
       <use xlink:href="#DejaVuSans-54" x="147.363281"/>
       <use xlink:href="#DejaVuSans-31" x="208.447266"/>
      </g>
     </g>
    </g>
    <g id="xtick_2">
     <g id="line2d_2">
      <g>
       <use xlink:href="#m4bd5eaffaf" x="66.4225" y="137.68" style="stroke: #000000; stroke-width: 0.8"/>
      </g>
     </g>
     <g id="text_2">
      <!-- CHRM4 -->
      <g transform="translate(69.181875 181.122188) rotate(-90) scale(0.1 -0.1)">
       <defs>
        <path id="DejaVuSans-43" d="M 4122 4306 
L 4122 3641 
Q 3803 3938 3442 4084 
Q 3081 4231 2675 4231 
Q 1875 4231 1450 3742 
Q 1025 3253 1025 2328 
Q 1025 1406 1450 917 
Q 1875 428 2675 428 
Q 3081 428 3442 575 
Q 3803 722 4122 1019 
L 4122 359 
Q 3791 134 3420 21 
Q 3050 -91 2638 -91 
Q 1578 -91 968 557 
Q 359 1206 359 2328 
Q 359 3453 968 4101 
Q 1578 4750 2638 4750 
Q 3056 4750 3426 4639 
Q 3797 4528 4122 4306 
z
" transform="scale(0.015625)"/>
        <path id="DejaVuSans-48" d="M 628 4666 
L 1259 4666 
L 1259 2753 
L 3553 2753 
L 3553 4666 
L 4184 4666 
L 4184 0 
L 3553 0 
L 3553 2222 
L 1259 2222 
L 1259 0 
L 628 0 
L 628 4666 
z
" transform="scale(0.015625)"/>
        <path id="DejaVuSans-52" d="M 2841 2188 
Q 3044 2119 3236 1894 
Q 3428 1669 3622 1275 
L 4263 0 
L 3584 0 
L 2988 1197 
Q 2756 1666 2539 1819 
Q 2322 1972 1947 1972 
L 1259 1972 
L 1259 0 
L 628 0 
L 628 4666 
L 2053 4666 
Q 2853 4666 3247 4331 
Q 3641 3997 3641 3322 
Q 3641 2881 3436 2590 
Q 3231 2300 2841 2188 
z
M 1259 4147 
L 1259 2491 
L 2053 2491 
Q 2509 2491 2742 2702 
Q 2975 2913 2975 3322 
Q 2975 3731 2742 3939 
Q 2509 4147 2053 4147 
L 1259 4147 
z
" transform="scale(0.015625)"/>
        <path id="DejaVuSans-34" d="M 2419 4116 
L 825 1625 
L 2419 1625 
L 2419 4116 
z
M 2253 4666 
L 3047 4666 
L 3047 1625 
L 3713 1625 
L 3713 1100 
L 3047 1100 
L 3047 0 
L 2419 0 
L 2419 1100 
L 313 1100 
L 313 1709 
L 2253 4666 
z
" transform="scale(0.015625)"/>
       </defs>
       <use xlink:href="#DejaVuSans-43"/>
       <use xlink:href="#DejaVuSans-48" x="69.824219"/>
       <use xlink:href="#DejaVuSans-52" x="145.019531"/>
       <use xlink:href="#DejaVuSans-4d" x="214.501953"/>
       <use xlink:href="#DejaVuSans-34" x="300.78125"/>
      </g>
     </g>
    </g>
    <g id="xtick_3">
     <g id="line2d_3">
      <g>
       <use xlink:href="#m4bd5eaffaf" x="94.9255" y="137.68" style="stroke: #000000; stroke-width: 0.8"/>
      </g>
     </g>
     <g id="text_3">
      <!-- GPR176 -->
      <g transform="translate(97.684875 184.494063) rotate(-90) scale(0.1 -0.1)">
       <defs>
        <path id="DejaVuSans-47" d="M 3809 666 
L 3809 1919 
L 2778 1919 
L 2778 2438 
L 4434 2438 
L 4434 434 
Q 4069 175 3628 42 
Q 3188 -91 2688 -91 
Q 1594 -91 976 548 
Q 359 1188 359 2328 
Q 359 3472 976 4111 
Q 1594 4750 2688 4750 
Q 3144 4750 3555 4637 
Q 3966 4525 4313 4306 
L 4313 3634 
Q 3963 3931 3569 4081 
Q 3175 4231 2741 4231 
Q 1884 4231 1454 3753 
Q 1025 3275 1025 2328 
Q 1025 1384 1454 906 
Q 1884 428 2741 428 
Q 3075 428 3337 486 
Q 3600 544 3809 666 
z
" transform="scale(0.015625)"/>
        <path id="DejaVuSans-50" d="M 1259 4147 
L 1259 2394 
L 2053 2394 
Q 2494 2394 2734 2622 
Q 2975 2850 2975 3272 
Q 2975 3691 2734 3919 
Q 2494 4147 2053 4147 
L 1259 4147 
z
M 628 4666 
L 2053 4666 
Q 2838 4666 3239 4311 
Q 3641 3956 3641 3272 
Q 3641 2581 3239 2228 
Q 2838 1875 2053 1875 
L 1259 1875 
L 1259 0 
L 628 0 
L 628 4666 
z
" transform="scale(0.015625)"/>
        <path id="DejaVuSans-37" d="M 525 4666 
L 3525 4666 
L 3525 4397 
L 1831 0 
L 1172 0 
L 2766 4134 
L 525 4134 
L 525 4666 
z
" transform="scale(0.015625)"/>
        <path id="DejaVuSans-36" d="M 2113 2584 
Q 1688 2584 1439 2293 
Q 1191 2003 1191 1497 
Q 1191 994 1439 701 
Q 1688 409 2113 409 
Q 2538 409 2786 701 
Q 3034 994 3034 1497 
Q 3034 2003 2786 2293 
Q 2538 2584 2113 2584 
z
M 3366 4563 
L 3366 3988 
Q 3128 4100 2886 4159 
Q 2644 4219 2406 4219 
Q 1781 4219 1451 3797 
Q 1122 3375 1075 2522 
Q 1259 2794 1537 2939 
Q 1816 3084 2150 3084 
Q 2853 3084 3261 2657 
Q 3669 2231 3669 1497 
Q 3669 778 3244 343 
Q 2819 -91 2113 -91 
Q 1303 -91 875 529 
Q 447 1150 447 2328 
Q 447 3434 972 4092 
Q 1497 4750 2381 4750 
Q 2619 4750 2861 4703 
Q 3103 4656 3366 4563 
z
" transform="scale(0.015625)"/>
       </defs>
       <use xlink:href="#DejaVuSans-47"/>
       <use xlink:href="#DejaVuSans-50" x="77.490234"/>
       <use xlink:href="#DejaVuSans-52" x="137.792969"/>
       <use xlink:href="#DejaVuSans-31" x="207.275391"/>
       <use xlink:href="#DejaVuSans-37" x="270.898438"/>
       <use xlink:href="#DejaVuSans-36" x="334.521484"/>
      </g>
     </g>
    </g>
    <g id="xtick_4">
     <g id="line2d_4">
      <g>
       <use xlink:href="#m4bd5eaffaf" x="123.4285" y="137.68" style="stroke: #000000; stroke-width: 0.8"/>
      </g>
     </g>
     <g id="text_4">
      <!-- TSC22D1 -->
      <g transform="translate(126.187875 190.906563) rotate(-90) scale(0.1 -0.1)">
       <defs>
        <path id="DejaVuSans-53" d="M 3425 4513 
L 3425 3897 
Q 3066 4069 2747 4153 
Q 2428 4238 2131 4238 
Q 1616 4238 1336 4038 
Q 1056 3838 1056 3469 
Q 1056 3159 1242 3001 
Q 1428 2844 1947 2747 
L 2328 2669 
Q 3034 2534 3370 2195 
Q 3706 1856 3706 1288 
Q 3706 609 3251 259 
Q 2797 -91 1919 -91 
Q 1588 -91 1214 -16 
Q 841 59 441 206 
L 441 856 
Q 825 641 1194 531 
Q 1563 422 1919 422 
Q 2459 422 2753 634 
Q 3047 847 3047 1241 
Q 3047 1584 2836 1778 
Q 2625 1972 2144 2069 
L 1759 2144 
Q 1053 2284 737 2584 
Q 422 2884 422 3419 
Q 422 4038 858 4394 
Q 1294 4750 2059 4750 
Q 2388 4750 2728 4690 
Q 3069 4631 3425 4513 
z
" transform="scale(0.015625)"/>
        <path id="DejaVuSans-32" d="M 1228 531 
L 3431 531 
L 3431 0 
L 469 0 
L 469 531 
Q 828 903 1448 1529 
Q 2069 2156 2228 2338 
Q 2531 2678 2651 2914 
Q 2772 3150 2772 3378 
Q 2772 3750 2511 3984 
Q 2250 4219 1831 4219 
Q 1534 4219 1204 4116 
Q 875 4013 500 3803 
L 500 4441 
Q 881 4594 1212 4672 
Q 1544 4750 1819 4750 
Q 2544 4750 2975 4387 
Q 3406 4025 3406 3419 
Q 3406 3131 3298 2873 
Q 3191 2616 2906 2266 
Q 2828 2175 2409 1742 
Q 1991 1309 1228 531 
z
" transform="scale(0.015625)"/>
        <path id="DejaVuSans-44" d="M 1259 4147 
L 1259 519 
L 2022 519 
Q 2988 519 3436 956 
Q 3884 1394 3884 2338 
Q 3884 3275 3436 3711 
Q 2988 4147 2022 4147 
L 1259 4147 
z
M 628 4666 
L 1925 4666 
Q 3281 4666 3915 4102 
Q 4550 3538 4550 2338 
Q 4550 1131 3912 565 
Q 3275 0 1925 0 
L 628 0 
L 628 4666 
z
" transform="scale(0.015625)"/>
       </defs>
       <use xlink:href="#DejaVuSans-54"/>
       <use xlink:href="#DejaVuSans-53" x="61.083984"/>
       <use xlink:href="#DejaVuSans-43" x="124.560547"/>
       <use xlink:href="#DejaVuSans-32" x="194.384766"/>
       <use xlink:href="#DejaVuSans-32" x="258.007812"/>
       <use xlink:href="#DejaVuSans-44" x="321.630859"/>
       <use xlink:href="#DejaVuSans-31" x="398.632812"/>
      </g>
     </g>
    </g>
   </g>
   <g id="matplotlib.axis_2">
    <g id="ytick_1">
     <g id="line2d_5">
      <defs>
       <path id="mcda0b094a0" d="M 0 0 
L 3.5 0 
" style="stroke: #000000; stroke-width: 0.8"/>
      </defs>
      <g>
       <use xlink:href="#mcda0b094a0" x="137.68" y="37.9195" style="stroke: #000000; stroke-width: 0.8"/>
      </g>
     </g>
     <g id="text_5">
      <!-- MYT1 -->
      <g transform="translate(144.68 41.718719) scale(0.1 -0.1)">
       <use xlink:href="#DejaVuSans-4d"/>
       <use xlink:href="#DejaVuSans-59" x="86.279297"/>
       <use xlink:href="#DejaVuSans-54" x="147.363281"/>
       <use xlink:href="#DejaVuSans-31" x="208.447266"/>
      </g>
     </g>
    </g>
    <g id="ytick_2">
     <g id="line2d_6">
      <g>
       <use xlink:href="#mcda0b094a0" x="137.68" y="66.4225" style="stroke: #000000; stroke-width: 0.8"/>
      </g>
     </g>
     <g id="text_6">
      <!-- CHRM4 -->
      <g transform="translate(144.68 70.221719) scale(0.1 -0.1)">
       <use xlink:href="#DejaVuSans-43"/>
       <use xlink:href="#DejaVuSans-48" x="69.824219"/>
       <use xlink:href="#DejaVuSans-52" x="145.019531"/>
       <use xlink:href="#DejaVuSans-4d" x="214.501953"/>
       <use xlink:href="#DejaVuSans-34" x="300.78125"/>
      </g>
     </g>
    </g>
    <g id="ytick_3">
     <g id="line2d_7">
      <g>
       <use xlink:href="#mcda0b094a0" x="137.68" y="94.9255" style="stroke: #000000; stroke-width: 0.8"/>
      </g>
     </g>
     <g id="text_7">
      <!-- GPR176 -->
      <g transform="translate(144.68 98.724719) scale(0.1 -0.1)">
       <use xlink:href="#DejaVuSans-47"/>
       <use xlink:href="#DejaVuSans-50" x="77.490234"/>
       <use xlink:href="#DejaVuSans-52" x="137.792969"/>
       <use xlink:href="#DejaVuSans-31" x="207.275391"/>
       <use xlink:href="#DejaVuSans-37" x="270.898438"/>
       <use xlink:href="#DejaVuSans-36" x="334.521484"/>
      </g>
     </g>
    </g>
    <g id="ytick_4">
     <g id="line2d_8">
      <g>
       <use xlink:href="#mcda0b094a0" x="137.68" y="123.4285" style="stroke: #000000; stroke-width: 0.8"/>
      </g>
     </g>
     <g id="text_8">
      <!-- TSC22D1 -->
      <g transform="translate(144.68 127.227719) scale(0.1 -0.1)">
       <use xlink:href="#DejaVuSans-54"/>
       <use xlink:href="#DejaVuSans-53" x="61.083984"/>
       <use xlink:href="#DejaVuSans-43" x="124.560547"/>
       <use xlink:href="#DejaVuSans-32" x="194.384766"/>
       <use xlink:href="#DejaVuSans-32" x="258.007812"/>
       <use xlink:href="#DejaVuSans-44" x="321.630859"/>
       <use xlink:href="#DejaVuSans-31" x="398.632812"/>
      </g>
     </g>
    </g>
   </g>
   <g id="text_9">
    <!-- 1.0 -->
    <g style="fill: #ffffff" transform="translate(31.55825 40.127) scale(0.08 -0.08)">
     <defs>
      <path id="DejaVuSans-2e" d="M 684 794 
L 1344 794 
L 1344 0 
L 684 0 
L 684 794 
z
" transform="scale(0.015625)"/>
      <path id="DejaVuSans-30" d="M 2034 4250 
Q 1547 4250 1301 3770 
Q 1056 3291 1056 2328 
Q 1056 1369 1301 889 
Q 1547 409 2034 409 
Q 2525 409 2770 889 
Q 3016 1369 3016 2328 
Q 3016 3291 2770 3770 
Q 2525 4250 2034 4250 
z
M 2034 4750 
Q 2819 4750 3233 4129 
Q 3647 3509 3647 2328 
Q 3647 1150 3233 529 
Q 2819 -91 2034 -91 
Q 1250 -91 836 529 
Q 422 1150 422 2328 
Q 422 3509 836 4129 
Q 1250 4750 2034 4750 
z
" transform="scale(0.015625)"/>
     </defs>
     <use xlink:href="#DejaVuSans-31"/>
     <use xlink:href="#DejaVuSans-2e" x="63.623047"/>
     <use xlink:href="#DejaVuSans-30" x="95.410156"/>
    </g>
   </g>
   <g id="text_10">
    <!-- 0.594 -->
    <g transform="translate(54.97125 40.127) scale(0.08 -0.08)">
     <defs>
      <path id="DejaVuSans-35" d="M 691 4666 
L 3169 4666 
L 3169 4134 
L 1269 4134 
L 1269 2991 
Q 1406 3038 1543 3061 
Q 1681 3084 1819 3084 
Q 2600 3084 3056 2656 
Q 3513 2228 3513 1497 
Q 3513 744 3044 326 
Q 2575 -91 1722 -91 
Q 1428 -91 1123 -41 
Q 819 9 494 109 
L 494 744 
Q 775 591 1075 516 
Q 1375 441 1709 441 
Q 2250 441 2565 725 
Q 2881 1009 2881 1497 
Q 2881 1984 2565 2268 
Q 2250 2553 1709 2553 
Q 1456 2553 1204 2497 
Q 953 2441 691 2322 
L 691 4666 
z
" transform="scale(0.015625)"/>
      <path id="DejaVuSans-39" d="M 703 97 
L 703 672 
Q 941 559 1184 500 
Q 1428 441 1663 441 
Q 2288 441 2617 861 
Q 2947 1281 2994 2138 
Q 2813 1869 2534 1725 
Q 2256 1581 1919 1581 
Q 1219 1581 811 2004 
Q 403 2428 403 3163 
Q 403 3881 828 4315 
Q 1253 4750 1959 4750 
Q 2769 4750 3195 4129 
Q 3622 3509 3622 2328 
Q 3622 1225 3098 567 
Q 2575 -91 1691 -91 
Q 1453 -91 1209 -44 
Q 966 3 703 97 
z
M 1959 2075 
Q 2384 2075 2632 2365 
Q 2881 2656 2881 3163 
Q 2881 3666 2632 3958 
Q 2384 4250 1959 4250 
Q 1534 4250 1286 3958 
Q 1038 3666 1038 3163 
Q 1038 2656 1286 2365 
Q 1534 2075 1959 2075 
z
" transform="scale(0.015625)"/>
     </defs>
     <use xlink:href="#DejaVuSans-30"/>
     <use xlink:href="#DejaVuSans-2e" x="63.623047"/>
     <use xlink:href="#DejaVuSans-35" x="95.410156"/>
     <use xlink:href="#DejaVuSans-39" x="159.033203"/>
     <use xlink:href="#DejaVuSans-34" x="222.65625"/>
    </g>
   </g>
   <g id="text_11">
    <!-- 0.295 -->
    <g style="fill: #ffffff" transform="translate(83.47425 40.127) scale(0.08 -0.08)">
     <use xlink:href="#DejaVuSans-30"/>
     <use xlink:href="#DejaVuSans-2e" x="63.623047"/>
     <use xlink:href="#DejaVuSans-32" x="95.410156"/>
     <use xlink:href="#DejaVuSans-39" x="159.033203"/>
     <use xlink:href="#DejaVuSans-35" x="222.65625"/>
    </g>
   </g>
   <g id="text_12">
    <!-- 0.279 -->
    <g style="fill: #ffffff" transform="translate(111.97725 40.127) scale(0.08 -0.08)">
     <use xlink:href="#DejaVuSans-30"/>
     <use xlink:href="#DejaVuSans-2e" x="63.623047"/>
     <use xlink:href="#DejaVuSans-32" x="95.410156"/>
     <use xlink:href="#DejaVuSans-37" x="159.033203"/>
     <use xlink:href="#DejaVuSans-39" x="222.65625"/>
    </g>
   </g>
   <g id="text_13">
    <!-- 0.594 -->
    <g transform="translate(26.46825 68.63) scale(0.08 -0.08)">
     <use xlink:href="#DejaVuSans-30"/>
     <use xlink:href="#DejaVuSans-2e" x="63.623047"/>
     <use xlink:href="#DejaVuSans-35" x="95.410156"/>
     <use xlink:href="#DejaVuSans-39" x="159.033203"/>
     <use xlink:href="#DejaVuSans-34" x="222.65625"/>
    </g>
   </g>
   <g id="text_14">
    <!-- 1.0 -->
    <g style="fill: #ffffff" transform="translate(60.06125 68.63) scale(0.08 -0.08)">
     <use xlink:href="#DejaVuSans-31"/>
     <use xlink:href="#DejaVuSans-2e" x="63.623047"/>
     <use xlink:href="#DejaVuSans-30" x="95.410156"/>
    </g>
   </g>
   <g id="text_15">
    <!-- 0.738 -->
    <g style="fill: #ffffff" transform="translate(83.47425 68.63) scale(0.08 -0.08)">
     <defs>
      <path id="DejaVuSans-33" d="M 2597 2516 
Q 3050 2419 3304 2112 
Q 3559 1806 3559 1356 
Q 3559 666 3084 287 
Q 2609 -91 1734 -91 
Q 1441 -91 1130 -33 
Q 819 25 488 141 
L 488 750 
Q 750 597 1062 519 
Q 1375 441 1716 441 
Q 2309 441 2620 675 
Q 2931 909 2931 1356 
Q 2931 1769 2642 2001 
Q 2353 2234 1838 2234 
L 1294 2234 
L 1294 2753 
L 1863 2753 
Q 2328 2753 2575 2939 
Q 2822 3125 2822 3475 
Q 2822 3834 2567 4026 
Q 2313 4219 1838 4219 
Q 1578 4219 1281 4162 
Q 984 4106 628 3988 
L 628 4550 
Q 988 4650 1302 4700 
Q 1616 4750 1894 4750 
Q 2613 4750 3031 4423 
Q 3450 4097 3450 3541 
Q 3450 3153 3228 2886 
Q 3006 2619 2597 2516 
z
" transform="scale(0.015625)"/>
      <path id="DejaVuSans-38" d="M 2034 2216 
Q 1584 2216 1326 1975 
Q 1069 1734 1069 1313 
Q 1069 891 1326 650 
Q 1584 409 2034 409 
Q 2484 409 2743 651 
Q 3003 894 3003 1313 
Q 3003 1734 2745 1975 
Q 2488 2216 2034 2216 
z
M 1403 2484 
Q 997 2584 770 2862 
Q 544 3141 544 3541 
Q 544 4100 942 4425 
Q 1341 4750 2034 4750 
Q 2731 4750 3128 4425 
Q 3525 4100 3525 3541 
Q 3525 3141 3298 2862 
Q 3072 2584 2669 2484 
Q 3125 2378 3379 2068 
Q 3634 1759 3634 1313 
Q 3634 634 3220 271 
Q 2806 -91 2034 -91 
Q 1263 -91 848 271 
Q 434 634 434 1313 
Q 434 1759 690 2068 
Q 947 2378 1403 2484 
z
M 1172 3481 
Q 1172 3119 1398 2916 
Q 1625 2713 2034 2713 
Q 2441 2713 2670 2916 
Q 2900 3119 2900 3481 
Q 2900 3844 2670 4047 
Q 2441 4250 2034 4250 
Q 1625 4250 1398 4047 
Q 1172 3844 1172 3481 
z
" transform="scale(0.015625)"/>
     </defs>
     <use xlink:href="#DejaVuSans-30"/>
     <use xlink:href="#DejaVuSans-2e" x="63.623047"/>
     <use xlink:href="#DejaVuSans-37" x="95.410156"/>
     <use xlink:href="#DejaVuSans-33" x="159.033203"/>
     <use xlink:href="#DejaVuSans-38" x="222.65625"/>
    </g>
   </g>
   <g id="text_16">
    <!-- 0.442 -->
    <g style="fill: #ffffff" transform="translate(111.97725 68.63) scale(0.08 -0.08)">
     <use xlink:href="#DejaVuSans-30"/>
     <use xlink:href="#DejaVuSans-2e" x="63.623047"/>
     <use xlink:href="#DejaVuSans-34" x="95.410156"/>
     <use xlink:href="#DejaVuSans-34" x="159.033203"/>
     <use xlink:href="#DejaVuSans-32" x="222.65625"/>
    </g>
   </g>
   <g id="text_17">
    <!-- 0.295 -->
    <g style="fill: #ffffff" transform="translate(26.46825 97.133) scale(0.08 -0.08)">
     <use xlink:href="#DejaVuSans-30"/>
     <use xlink:href="#DejaVuSans-2e" x="63.623047"/>
     <use xlink:href="#DejaVuSans-32" x="95.410156"/>
     <use xlink:href="#DejaVuSans-39" x="159.033203"/>
     <use xlink:href="#DejaVuSans-35" x="222.65625"/>
    </g>
   </g>
   <g id="text_18">
    <!-- 0.738 -->
    <g style="fill: #ffffff" transform="translate(54.97125 97.133) scale(0.08 -0.08)">
     <use xlink:href="#DejaVuSans-30"/>
     <use xlink:href="#DejaVuSans-2e" x="63.623047"/>
     <use xlink:href="#DejaVuSans-37" x="95.410156"/>
     <use xlink:href="#DejaVuSans-33" x="159.033203"/>
     <use xlink:href="#DejaVuSans-38" x="222.65625"/>
    </g>
   </g>
   <g id="text_19">
    <!-- 1.0 -->
    <g style="fill: #ffffff" transform="translate(88.56425 97.133) scale(0.08 -0.08)">
     <use xlink:href="#DejaVuSans-31"/>
     <use xlink:href="#DejaVuSans-2e" x="63.623047"/>
     <use xlink:href="#DejaVuSans-30" x="95.410156"/>
    </g>
   </g>
   <g id="text_20">
    <!-- 0.195 -->
    <g style="fill: #ffffff" transform="translate(111.97725 97.133) scale(0.08 -0.08)">
     <use xlink:href="#DejaVuSans-30"/>
     <use xlink:href="#DejaVuSans-2e" x="63.623047"/>
     <use xlink:href="#DejaVuSans-31" x="95.410156"/>
     <use xlink:href="#DejaVuSans-39" x="159.033203"/>
     <use xlink:href="#DejaVuSans-35" x="222.65625"/>
    </g>
   </g>
   <g id="text_21">
    <!-- 0.279 -->
    <g style="fill: #ffffff" transform="translate(26.46825 125.636) scale(0.08 -0.08)">
     <use xlink:href="#DejaVuSans-30"/>
     <use xlink:href="#DejaVuSans-2e" x="63.623047"/>
     <use xlink:href="#DejaVuSans-32" x="95.410156"/>
     <use xlink:href="#DejaVuSans-37" x="159.033203"/>
     <use xlink:href="#DejaVuSans-39" x="222.65625"/>
    </g>
   </g>
   <g id="text_22">
    <!-- 0.442 -->
    <g style="fill: #ffffff" transform="translate(54.97125 125.636) scale(0.08 -0.08)">
     <use xlink:href="#DejaVuSans-30"/>
     <use xlink:href="#DejaVuSans-2e" x="63.623047"/>
     <use xlink:href="#DejaVuSans-34" x="95.410156"/>
     <use xlink:href="#DejaVuSans-34" x="159.033203"/>
     <use xlink:href="#DejaVuSans-32" x="222.65625"/>
    </g>
   </g>
   <g id="text_23">
    <!-- 0.195 -->
    <g style="fill: #ffffff" transform="translate(83.47425 125.636) scale(0.08 -0.08)">
     <use xlink:href="#DejaVuSans-30"/>
     <use xlink:href="#DejaVuSans-2e" x="63.623047"/>
     <use xlink:href="#DejaVuSans-31" x="95.410156"/>
     <use xlink:href="#DejaVuSans-39" x="159.033203"/>
     <use xlink:href="#DejaVuSans-35" x="222.65625"/>
    </g>
   </g>
   <g id="text_24">
    <!-- 1.0 -->
    <g style="fill: #ffffff" transform="translate(117.06725 125.636) scale(0.08 -0.08)">
     <use xlink:href="#DejaVuSans-31"/>
     <use xlink:href="#DejaVuSans-2e" x="63.623047"/>
     <use xlink:href="#DejaVuSans-30" x="95.410156"/>
    </g>
   </g>
  </g>
 </g>
 <defs>
  <clipPath id="pb8fbc0cd1d">
   <rect x="10.8" y="23.668" width="12.668" height="114.012"/>
  </clipPath>
  <clipPath id="p6b294688ab">
   <rect x="23.668" y="10.8" width="114.012" height="12.668"/>
  </clipPath>
  <clipPath id="p6a979f4382">
   <rect x="23.668" y="23.668" width="114.012" height="114.012"/>
  </clipPath>
 </defs>
</svg>
