<?xml version="1.0" encoding="utf-8" standalone="no"?>
<!DOCTYPE svg PUBLIC "-//W3C//DTD SVG 1.1//EN"
  "http://www.w3.org/Graphics/SVG/1.1/DTD/svg11.dtd">
<svg xmlns:xlink="http://www.w3.org/1999/xlink" width="288pt" height="288pt" viewBox="0 0 288 288" xmlns="http://www.w3.org/2000/svg" version="1.1">
 <metadata>
  <rdf:RDF xmlns:dc="http://purl.org/dc/elements/1.1/" xmlns:cc="http://creativecommons.org/ns#" xmlns:rdf="http://www.w3.org/1999/02/22-rdf-syntax-ns#">
   <cc:Work>
    <dc:type rdf:resource="http://purl.org/dc/dcmitype/StillImage"/>
    <dc:date>2024-07-09T15:17:26.434705</dc:date>
    <dc:format>image/svg+xml</dc:format>
    <dc:creator>
     <cc:Agent>
      <dc:title>Matplotlib v3.6.2, https://matplotlib.org/</dc:title>
     </cc:Agent>
    </dc:creator>
   </cc:Work>
  </rdf:RDF>
 </metadata>
 <defs>
  <style type="text/css">*{stroke-linejoin: round; stroke-linecap: butt}</style>
 </defs>
 <g id="figure_1">
  <g id="patch_1">
   <path d="M 0 288 
L 288 288 
L 288 0 
L 0 0 
z
" style="fill: #ffffff"/>
  </g>
  <g id="axes_1">
   <g id="LineCollection_1">
    <path d="M 28.269 146.38475 
L 28.269 146.38475 
L 28.269 172.58825 
L 28.269 172.58825 
" clip-path="url(#pb362986f0d)" style="fill: none; stroke: #333333; stroke-width: 0.5"/>
    <path d="M 28.269 120.18125 
L 28.269 120.18125 
L 28.269 159.4865 
L 28.269 159.4865 
" clip-path="url(#pb362986f0d)" style="fill: none; stroke: #333333; stroke-width: 0.5"/>
    <path d="M 28.269 93.97775 
L 28.269 93.97775 
L 28.269 139.833875 
L 28.269 139.833875 
" clip-path="url(#pb362986f0d)" style="fill: none; stroke: #333333; stroke-width: 0.5"/>
    <path d="M 28.269 67.77425 
L 12.904679 67.77425 
L 12.904679 116.905812 
L 28.269 116.905812 
" clip-path="url(#pb362986f0d)" style="fill: none; stroke: #333333; stroke-width: 0.5"/>
    <path d="M 28.269 41.57075 
L 11.631857 41.57075 
L 11.631857 92.340031 
L 12.904679 92.340031 
" clip-path="url(#pb362986f0d)" style="fill: none; stroke: #333333; stroke-width: 0.5"/>
   </g>
  </g>
  <g id="axes_2">
   <g id="LineCollection_2">
    <path d="M 146.38475 28.269 
L 146.38475 28.269 
L 172.58825 28.269 
L 172.58825 28.269 
" clip-path="url(#pcbd7a1fb85)" style="fill: none; stroke: #333333; stroke-width: 0.5"/>
    <path d="M 120.18125 28.269 
L 120.18125 28.269 
L 159.4865 28.269 
L 159.4865 28.269 
" clip-path="url(#pcbd7a1fb85)" style="fill: none; stroke: #333333; stroke-width: 0.5"/>
    <path d="M 93.97775 28.269 
L 93.97775 28.269 
L 139.833875 28.269 
L 139.833875 28.269 
" clip-path="url(#pcbd7a1fb85)" style="fill: none; stroke: #333333; stroke-width: 0.5"/>
    <path d="M 67.77425 28.269 
L 67.77425 12.904679 
L 116.905812 12.904679 
L 116.905812 28.269 
" clip-path="url(#pcbd7a1fb85)" style="fill: none; stroke: #333333; stroke-width: 0.5"/>
    <path d="M 41.57075 28.269 
L 41.57075 11.631857 
L 92.340031 11.631857 
L 92.340031 12.904679 
" clip-path="url(#pcbd7a1fb85)" style="fill: none; stroke: #333333; stroke-width: 0.5"/>
   </g>
  </g>
  <g id="axes_3">
   <g id="patch_2">
    <path d="M 28.469 185.69 
L 185.69 185.69 
L 185.69 28.469 
L 28.469 28.469 
z
" style="fill: #ffffff"/>
   </g>
   <g id="QuadMesh_1">
    <path d="M 28.469 28.469 
L 54.6725 28.469 
L 54.6725 54.6725 
L 28.469 54.6725 
L 28.469 28.469 
" clip-path="url(#pe1cfdb1897)" style="fill: #f6f7f7"/>
    <path d="M 54.6725 28.469 
L 80.876 28.469 
L 80.876 54.6725 
L 54.6725 54.6725 
L 54.6725 28.469 
" clip-path="url(#pe1cfdb1897)" style="fill: #d55d4c"/>
    <path d="M 80.876 28.469 
L 107.0795 28.469 
L 107.0795 54.6725 
L 80.876 54.6725 
L 80.876 28.469 
" clip-path="url(#pe1cfdb1897)" style="fill: #f6f7f7"/>
    <path d="M 107.0795 28.469 
L 133.283 28.469 
L 133.283 54.6725 
L 107.0795 54.6725 
L 107.0795 28.469 
" clip-path="url(#pe1cfdb1897)" style="fill: #f6f7f7"/>
    <path d="M 133.283 28.469 
L 159.4865 28.469 
L 159.4865 54.6725 
L 133.283 54.6725 
L 133.283 28.469 
" clip-path="url(#pe1cfdb1897)" style="fill: #f6f7f7"/>
    <path d="M 159.4865 28.469 
L 185.69 28.469 
L 185.69 54.6725 
L 159.4865 54.6725 
L 159.4865 28.469 
" clip-path="url(#pe1cfdb1897)" style="fill: #f6f7f7"/>
    <path d="M 28.469 54.6725 
L 54.6725 54.6725 
L 54.6725 80.876 
L 28.469 80.876 
L 28.469 54.6725 
" clip-path="url(#pe1cfdb1897)" style="fill: #d55d4c"/>
    <path d="M 54.6725 54.6725 
L 80.876 54.6725 
L 80.876 80.876 
L 54.6725 80.876 
L 54.6725 54.6725 
" clip-path="url(#pe1cfdb1897)" style="fill: #f6f7f7"/>
    <path d="M 80.876 54.6725 
L 107.0795 54.6725 
L 107.0795 80.876 
L 80.876 80.876 
L 80.876 54.6725 
" clip-path="url(#pe1cfdb1897)" style="fill: #f6f7f7"/>
    <path d="M 107.0795 54.6725 
L 133.283 54.6725 
L 133.283 80.876 
L 107.0795 80.876 
L 107.0795 54.6725 
" clip-path="url(#pe1cfdb1897)" style="fill: #f6f7f7"/>
    <path d="M 133.283 54.6725 
L 159.4865 54.6725 
L 159.4865 80.876 
L 133.283 80.876 
L 133.283 54.6725 
" clip-path="url(#pe1cfdb1897)" style="fill: #f6f7f7"/>
    <path d="M 159.4865 54.6725 
L 185.69 54.6725 
L 185.69 80.876 
L 159.4865 80.876 
L 159.4865 54.6725 
" clip-path="url(#pe1cfdb1897)" style="fill: #f6f7f7"/>
    <path d="M 28.469 80.876 
L 54.6725 80.876 
L 54.6725 107.0795 
L 28.469 107.0795 
L 28.469 80.876 
" clip-path="url(#pe1cfdb1897)" style="fill: #f6f7f7"/>
    <path d="M 54.6725 80.876 
L 80.876 80.876 
L 80.876 107.0795 
L 54.6725 107.0795 
L 54.6725 80.876 
" clip-path="url(#pe1cfdb1897)" style="fill: #f6f7f7"/>
    <path d="M 80.876 80.876 
L 107.0795 80.876 
L 107.0795 107.0795 
L 80.876 107.0795 
L 80.876 80.876 
" clip-path="url(#pe1cfdb1897)" style="fill: #f6f7f7"/>
    <path d="M 107.0795 80.876 
L 133.283 80.876 
L 133.283 107.0795 
L 107.0795 107.0795 
L 107.0795 80.876 
" clip-path="url(#pe1cfdb1897)" style="fill: #f6f7f7"/>
    <path d="M 133.283 80.876 
L 159.4865 80.876 
L 159.4865 107.0795 
L 133.283 107.0795 
L 133.283 80.876 
" clip-path="url(#pe1cfdb1897)" style="fill: #f6f7f7"/>
    <path d="M 159.4865 80.876 
L 185.69 80.876 
L 185.69 107.0795 
L 159.4865 107.0795 
L 159.4865 80.876 
" clip-path="url(#pe1cfdb1897)" style="fill: #f6f7f7"/>
    <path d="M 28.469 107.0795 
L 54.6725 107.0795 
L 54.6725 133.283 
L 28.469 133.283 
L 28.469 107.0795 
" clip-path="url(#pe1cfdb1897)" style="fill: #f6f7f7"/>
    <path d="M 54.6725 107.0795 
L 80.876 107.0795 
L 80.876 133.283 
L 54.6725 133.283 
L 54.6725 107.0795 
" clip-path="url(#pe1cfdb1897)" style="fill: #f6f7f7"/>
    <path d="M 80.876 107.0795 
L 107.0795 107.0795 
L 107.0795 133.283 
L 80.876 133.283 
L 80.876 107.0795 
" clip-path="url(#pe1cfdb1897)" style="fill: #f6f7f7"/>
    <path d="M 107.0795 107.0795 
L 133.283 107.0795 
L 133.283 133.283 
L 107.0795 133.283 
L 107.0795 107.0795 
" clip-path="url(#pe1cfdb1897)" style="fill: #f6f7f7"/>
    <path d="M 133.283 107.0795 
L 159.4865 107.0795 
L 159.4865 133.283 
L 133.283 133.283 
L 133.283 107.0795 
" clip-path="url(#pe1cfdb1897)" style="fill: #f6f7f7"/>
    <path d="M 159.4865 107.0795 
L 185.69 107.0795 
L 185.69 133.283 
L 159.4865 133.283 
L 159.4865 107.0795 
" clip-path="url(#pe1cfdb1897)" style="fill: #f6f7f7"/>
    <path d="M 28.469 133.283 
L 54.6725 133.283 
L 54.6725 159.4865 
L 28.469 159.4865 
L 28.469 133.283 
" clip-path="url(#pe1cfdb1897)" style="fill: #f6f7f7"/>
    <path d="M 54.6725 133.283 
L 80.876 133.283 
L 80.876 159.4865 
L 54.6725 159.4865 
L 54.6725 133.283 
" clip-path="url(#pe1cfdb1897)" style="fill: #f6f7f7"/>
    <path d="M 80.876 133.283 
L 107.0795 133.283 
L 107.0795 159.4865 
L 80.876 159.4865 
L 80.876 133.283 
" clip-path="url(#pe1cfdb1897)" style="fill: #f6f7f7"/>
    <path d="M 107.0795 133.283 
L 133.283 133.283 
L 133.283 159.4865 
L 107.0795 159.4865 
L 107.0795 133.283 
" clip-path="url(#pe1cfdb1897)" style="fill: #f6f7f7"/>
    <path d="M 133.283 133.283 
L 159.4865 133.283 
L 159.4865 159.4865 
L 133.283 159.4865 
L 133.283 133.283 
" clip-path="url(#pe1cfdb1897)" style="fill: #f6f7f7"/>
    <path d="M 159.4865 133.283 
L 185.69 133.283 
L 185.69 159.4865 
L 159.4865 159.4865 
L 159.4865 133.283 
" clip-path="url(#pe1cfdb1897)" style="fill: #f6f7f7"/>
    <path d="M 28.469 159.4865 
L 54.6725 159.4865 
L 54.6725 185.69 
L 28.469 185.69 
L 28.469 159.4865 
" clip-path="url(#pe1cfdb1897)" style="fill: #f6f7f7"/>
    <path d="M 54.6725 159.4865 
L 80.876 159.4865 
L 80.876 185.69 
L 54.6725 185.69 
L 54.6725 159.4865 
" clip-path="url(#pe1cfdb1897)" style="fill: #f6f7f7"/>
    <path d="M 80.876 159.4865 
L 107.0795 159.4865 
L 107.0795 185.69 
L 80.876 185.69 
L 80.876 159.4865 
" clip-path="url(#pe1cfdb1897)" style="fill: #f6f7f7"/>
    <path d="M 107.0795 159.4865 
L 133.283 159.4865 
L 133.283 185.69 
L 107.0795 185.69 
L 107.0795 159.4865 
" clip-path="url(#pe1cfdb1897)" style="fill: #f6f7f7"/>
    <path d="M 133.283 159.4865 
L 159.4865 159.4865 
L 159.4865 185.69 
L 133.283 185.69 
L 133.283 159.4865 
" clip-path="url(#pe1cfdb1897)" style="fill: #f6f7f7"/>
    <path d="M 159.4865 159.4865 
L 185.69 159.4865 
L 185.69 185.69 
L 159.4865 185.69 
L 159.4865 159.4865 
" clip-path="url(#pe1cfdb1897)" style="fill: #f6f7f7"/>
   </g>
   <g id="matplotlib.axis_1">
    <g id="xtick_1">
     <g id="line2d_1">
      <defs>
       <path id="md23e69dfc1" d="M 0 0 
L 0 3.5 
" style="stroke: #000000; stroke-width: 0.8"/>
      </defs>
      <g>
       <use xlink:href="#md23e69dfc1" x="41.57075" y="185.69" style="stroke: #000000; stroke-width: 0.8"/>
      </g>
     </g>
     <g id="text_1">
      <!-- RAB40B -->
      <g transform="translate(44.330125 232.525937) rotate(-90) scale(0.1 -0.1)">
       <defs>
        <path id="DejaVuSans-52" d="M 2841 2188 
Q 3044 2119 3236 1894 
Q 3428 1669 3622 1275 
L 4263 0 
L 3584 0 
L 2988 1197 
Q 2756 1666 2539 1819 
Q 2322 1972 1947 1972 
L 1259 1972 
L 1259 0 
L 628 0 
L 628 4666 
L 2053 4666 
Q 2853 4666 3247 4331 
Q 3641 3997 3641 3322 
Q 3641 2881 3436 2590 
Q 3231 2300 2841 2188 
z
M 1259 4147 
L 1259 2491 
L 2053 2491 
Q 2509 2491 2742 2702 
Q 2975 2913 2975 3322 
Q 2975 3731 2742 3939 
Q 2509 4147 2053 4147 
L 1259 4147 
z
" transform="scale(0.015625)"/>
        <path id="DejaVuSans-41" d="M 2188 4044 
L 1331 1722 
L 3047 1722 
L 2188 4044 
z
M 1831 4666 
L 2547 4666 
L 4325 0 
L 3669 0 
L 3244 1197 
L 1141 1197 
L 716 0 
L 50 0 
L 1831 4666 
z
" transform="scale(0.015625)"/>
        <path id="DejaVuSans-42" d="M 1259 2228 
L 1259 519 
L 2272 519 
Q 2781 519 3026 730 
Q 3272 941 3272 1375 
Q 3272 1813 3026 2020 
Q 2781 2228 2272 2228 
L 1259 2228 
z
M 1259 4147 
L 1259 2741 
L 2194 2741 
Q 2656 2741 2882 2914 
Q 3109 3088 3109 3444 
Q 3109 3797 2882 3972 
Q 2656 4147 2194 4147 
L 1259 4147 
z
M 628 4666 
L 2241 4666 
Q 2963 4666 3353 4366 
Q 3744 4066 3744 3513 
Q 3744 3084 3544 2831 
Q 3344 2578 2956 2516 
Q 3422 2416 3680 2098 
Q 3938 1781 3938 1306 
Q 3938 681 3513 340 
Q 3088 0 2303 0 
L 628 0 
L 628 4666 
z
" transform="scale(0.015625)"/>
        <path id="DejaVuSans-34" d="M 2419 4116 
L 825 1625 
L 2419 1625 
L 2419 4116 
z
M 2253 4666 
L 3047 4666 
L 3047 1625 
L 3713 1625 
L 3713 1100 
L 3047 1100 
L 3047 0 
L 2419 0 
L 2419 1100 
L 313 1100 
L 313 1709 
L 2253 4666 
z
" transform="scale(0.015625)"/>
        <path id="DejaVuSans-30" d="M 2034 4250 
Q 1547 4250 1301 3770 
Q 1056 3291 1056 2328 
Q 1056 1369 1301 889 
Q 1547 409 2034 409 
Q 2525 409 2770 889 
Q 3016 1369 3016 2328 
Q 3016 3291 2770 3770 
Q 2525 4250 2034 4250 
z
M 2034 4750 
Q 2819 4750 3233 4129 
Q 3647 3509 3647 2328 
Q 3647 1150 3233 529 
Q 2819 -91 2034 -91 
Q 1250 -91 836 529 
Q 422 1150 422 2328 
Q 422 3509 836 4129 
Q 1250 4750 2034 4750 
z
" transform="scale(0.015625)"/>
       </defs>
       <use xlink:href="#DejaVuSans-52"/>
       <use xlink:href="#DejaVuSans-41" x="65.482422"/>
       <use xlink:href="#DejaVuSans-42" x="133.890625"/>
       <use xlink:href="#DejaVuSans-34" x="202.494141"/>
       <use xlink:href="#DejaVuSans-30" x="266.117188"/>
       <use xlink:href="#DejaVuSans-42" x="329.740234"/>
      </g>
     </g>
    </g>
    <g id="xtick_2">
     <g id="line2d_2">
      <g>
       <use xlink:href="#md23e69dfc1" x="67.77425" y="185.69" style="stroke: #000000; stroke-width: 0.8"/>
      </g>
     </g>
     <g id="text_2">
      <!-- PIK3R3 -->
      <g transform="translate(70.533625 227.900937) rotate(-90) scale(0.1 -0.1)">
       <defs>
        <path id="DejaVuSans-50" d="M 1259 4147 
L 1259 2394 
L 2053 2394 
Q 2494 2394 2734 2622 
Q 2975 2850 2975 3272 
Q 2975 3691 2734 3919 
Q 2494 4147 2053 4147 
L 1259 4147 
z
M 628 4666 
L 2053 4666 
Q 2838 4666 3239 4311 
Q 3641 3956 3641 3272 
Q 3641 2581 3239 2228 
Q 2838 1875 2053 1875 
L 1259 1875 
L 1259 0 
L 628 0 
L 628 4666 
z
" transform="scale(0.015625)"/>
        <path id="DejaVuSans-49" d="M 628 4666 
L 1259 4666 
L 1259 0 
L 628 0 
L 628 4666 
z
" transform="scale(0.015625)"/>
        <path id="DejaVuSans-4b" d="M 628 4666 
L 1259 4666 
L 1259 2694 
L 3353 4666 
L 4166 4666 
L 1850 2491 
L 4331 0 
L 3500 0 
L 1259 2247 
L 1259 0 
L 628 0 
L 628 4666 
z
" transform="scale(0.015625)"/>
        <path id="DejaVuSans-33" d="M 2597 2516 
Q 3050 2419 3304 2112 
Q 3559 1806 3559 1356 
Q 3559 666 3084 287 
Q 2609 -91 1734 -91 
Q 1441 -91 1130 -33 
Q 819 25 488 141 
L 488 750 
Q 750 597 1062 519 
Q 1375 441 1716 441 
Q 2309 441 2620 675 
Q 2931 909 2931 1356 
Q 2931 1769 2642 2001 
Q 2353 2234 1838 2234 
L 1294 2234 
L 1294 2753 
L 1863 2753 
Q 2328 2753 2575 2939 
Q 2822 3125 2822 3475 
Q 2822 3834 2567 4026 
Q 2313 4219 1838 4219 
Q 1578 4219 1281 4162 
Q 984 4106 628 3988 
L 628 4550 
Q 988 4650 1302 4700 
Q 1616 4750 1894 4750 
Q 2613 4750 3031 4423 
Q 3450 4097 3450 3541 
Q 3450 3153 3228 2886 
Q 3006 2619 2597 2516 
z
" transform="scale(0.015625)"/>
       </defs>
       <use xlink:href="#DejaVuSans-50"/>
       <use xlink:href="#DejaVuSans-49" x="60.302734"/>
       <use xlink:href="#DejaVuSans-4b" x="89.794922"/>
       <use xlink:href="#DejaVuSans-33" x="155.371094"/>
       <use xlink:href="#DejaVuSans-52" x="218.994141"/>
       <use xlink:href="#DejaVuSans-33" x="288.476562"/>
      </g>
     </g>
    </g>
    <g id="xtick_3">
     <g id="line2d_3">
      <g>
       <use xlink:href="#md23e69dfc1" x="93.97775" y="185.69" style="stroke: #000000; stroke-width: 0.8"/>
      </g>
     </g>
     <g id="text_3">
      <!-- XLOC_l2_008134 -->
      <g transform="translate(96.598062 276.919688) rotate(-90) scale(0.1 -0.1)">
       <defs>
        <path id="DejaVuSans-58" d="M 403 4666 
L 1081 4666 
L 2241 2931 
L 3406 4666 
L 4084 4666 
L 2584 2425 
L 4184 0 
L 3506 0 
L 2194 1984 
L 872 0 
L 191 0 
L 1856 2491 
L 403 4666 
z
" transform="scale(0.015625)"/>
        <path id="DejaVuSans-4c" d="M 628 4666 
L 1259 4666 
L 1259 531 
L 3531 531 
L 3531 0 
L 628 0 
L 628 4666 
z
" transform="scale(0.015625)"/>
        <path id="DejaVuSans-4f" d="M 2522 4238 
Q 1834 4238 1429 3725 
Q 1025 3213 1025 2328 
Q 1025 1447 1429 934 
Q 1834 422 2522 422 
Q 3209 422 3611 934 
Q 4013 1447 4013 2328 
Q 4013 3213 3611 3725 
Q 3209 4238 2522 4238 
z
M 2522 4750 
Q 3503 4750 4090 4092 
Q 4678 3434 4678 2328 
Q 4678 1225 4090 567 
Q 3503 -91 2522 -91 
Q 1538 -91 948 565 
Q 359 1222 359 2328 
Q 359 3434 948 4092 
Q 1538 4750 2522 4750 
z
" transform="scale(0.015625)"/>
        <path id="DejaVuSans-43" d="M 4122 4306 
L 4122 3641 
Q 3803 3938 3442 4084 
Q 3081 4231 2675 4231 
Q 1875 4231 1450 3742 
Q 1025 3253 1025 2328 
Q 1025 1406 1450 917 
Q 1875 428 2675 428 
Q 3081 428 3442 575 
Q 3803 722 4122 1019 
L 4122 359 
Q 3791 134 3420 21 
Q 3050 -91 2638 -91 
Q 1578 -91 968 557 
Q 359 1206 359 2328 
Q 359 3453 968 4101 
Q 1578 4750 2638 4750 
Q 3056 4750 3426 4639 
Q 3797 4528 4122 4306 
z
" transform="scale(0.015625)"/>
        <path id="DejaVuSans-5f" d="M 3263 -1063 
L 3263 -1509 
L -63 -1509 
L -63 -1063 
L 3263 -1063 
z
" transform="scale(0.015625)"/>
        <path id="DejaVuSans-6c" d="M 603 4863 
L 1178 4863 
L 1178 0 
L 603 0 
L 603 4863 
z
" transform="scale(0.015625)"/>
        <path id="DejaVuSans-32" d="M 1228 531 
L 3431 531 
L 3431 0 
L 469 0 
L 469 531 
Q 828 903 1448 1529 
Q 2069 2156 2228 2338 
Q 2531 2678 2651 2914 
Q 2772 3150 2772 3378 
Q 2772 3750 2511 3984 
Q 2250 4219 1831 4219 
Q 1534 4219 1204 4116 
Q 875 4013 500 3803 
L 500 4441 
Q 881 4594 1212 4672 
Q 1544 4750 1819 4750 
Q 2544 4750 2975 4387 
Q 3406 4025 3406 3419 
Q 3406 3131 3298 2873 
Q 3191 2616 2906 2266 
Q 2828 2175 2409 1742 
Q 1991 1309 1228 531 
z
" transform="scale(0.015625)"/>
        <path id="DejaVuSans-38" d="M 2034 2216 
Q 1584 2216 1326 1975 
Q 1069 1734 1069 1313 
Q 1069 891 1326 650 
Q 1584 409 2034 409 
Q 2484 409 2743 651 
Q 3003 894 3003 1313 
Q 3003 1734 2745 1975 
Q 2488 2216 2034 2216 
z
M 1403 2484 
Q 997 2584 770 2862 
Q 544 3141 544 3541 
Q 544 4100 942 4425 
Q 1341 4750 2034 4750 
Q 2731 4750 3128 4425 
Q 3525 4100 3525 3541 
Q 3525 3141 3298 2862 
Q 3072 2584 2669 2484 
Q 3125 2378 3379 2068 
Q 3634 1759 3634 1313 
Q 3634 634 3220 271 
Q 2806 -91 2034 -91 
Q 1263 -91 848 271 
Q 434 634 434 1313 
Q 434 1759 690 2068 
Q 947 2378 1403 2484 
z
M 1172 3481 
Q 1172 3119 1398 2916 
Q 1625 2713 2034 2713 
Q 2441 2713 2670 2916 
Q 2900 3119 2900 3481 
Q 2900 3844 2670 4047 
Q 2441 4250 2034 4250 
Q 1625 4250 1398 4047 
Q 1172 3844 1172 3481 
z
" transform="scale(0.015625)"/>
        <path id="DejaVuSans-31" d="M 794 531 
L 1825 531 
L 1825 4091 
L 703 3866 
L 703 4441 
L 1819 4666 
L 2450 4666 
L 2450 531 
L 3481 531 
L 3481 0 
L 794 0 
L 794 531 
z
" transform="scale(0.015625)"/>
       </defs>
       <use xlink:href="#DejaVuSans-58"/>
       <use xlink:href="#DejaVuSans-4c" x="68.505859"/>
       <use xlink:href="#DejaVuSans-4f" x="120.59375"/>
       <use xlink:href="#DejaVuSans-43" x="199.304688"/>
       <use xlink:href="#DejaVuSans-5f" x="269.128906"/>
       <use xlink:href="#DejaVuSans-6c" x="319.128906"/>
       <use xlink:href="#DejaVuSans-32" x="346.912109"/>
       <use xlink:href="#DejaVuSans-5f" x="410.535156"/>
       <use xlink:href="#DejaVuSans-30" x="460.535156"/>
       <use xlink:href="#DejaVuSans-30" x="524.158203"/>
       <use xlink:href="#DejaVuSans-38" x="587.78125"/>
       <use xlink:href="#DejaVuSans-31" x="651.404297"/>
       <use xlink:href="#DejaVuSans-33" x="715.027344"/>
       <use xlink:href="#DejaVuSans-34" x="778.650391"/>
      </g>
     </g>
    </g>
    <g id="xtick_4">
     <g id="line2d_4">
      <g>
       <use xlink:href="#md23e69dfc1" x="120.18125" y="185.69" style="stroke: #000000; stroke-width: 0.8"/>
      </g>
     </g>
     <g id="text_4">
      <!-- RAB40C -->
      <g transform="translate(122.940625 232.647812) rotate(-90) scale(0.1 -0.1)">
       <use xlink:href="#DejaVuSans-52"/>
       <use xlink:href="#DejaVuSans-41" x="65.482422"/>
       <use xlink:href="#DejaVuSans-42" x="133.890625"/>
       <use xlink:href="#DejaVuSans-34" x="202.494141"/>
       <use xlink:href="#DejaVuSans-30" x="266.117188"/>
       <use xlink:href="#DejaVuSans-43" x="329.740234"/>
      </g>
     </g>
    </g>
    <g id="xtick_5">
     <g id="line2d_5">
      <g>
       <use xlink:href="#md23e69dfc1" x="146.38475" y="185.69" style="stroke: #000000; stroke-width: 0.8"/>
      </g>
     </g>
     <g id="text_5">
      <!-- INSYN1 -->
      <g transform="translate(149.144125 229.42125) rotate(-90) scale(0.1 -0.1)">
       <defs>
        <path id="DejaVuSans-4e" d="M 628 4666 
L 1478 4666 
L 3547 763 
L 3547 4666 
L 4159 4666 
L 4159 0 
L 3309 0 
L 1241 3903 
L 1241 0 
L 628 0 
L 628 4666 
z
" transform="scale(0.015625)"/>
        <path id="DejaVuSans-53" d="M 3425 4513 
L 3425 3897 
Q 3066 4069 2747 4153 
Q 2428 4238 2131 4238 
Q 1616 4238 1336 4038 
Q 1056 3838 1056 3469 
Q 1056 3159 1242 3001 
Q 1428 2844 1947 2747 
L 2328 2669 
Q 3034 2534 3370 2195 
Q 3706 1856 3706 1288 
Q 3706 609 3251 259 
Q 2797 -91 1919 -91 
Q 1588 -91 1214 -16 
Q 841 59 441 206 
L 441 856 
Q 825 641 1194 531 
Q 1563 422 1919 422 
Q 2459 422 2753 634 
Q 3047 847 3047 1241 
Q 3047 1584 2836 1778 
Q 2625 1972 2144 2069 
L 1759 2144 
Q 1053 2284 737 2584 
Q 422 2884 422 3419 
Q 422 4038 858 4394 
Q 1294 4750 2059 4750 
Q 2388 4750 2728 4690 
Q 3069 4631 3425 4513 
z
" transform="scale(0.015625)"/>
        <path id="DejaVuSans-59" d="M -13 4666 
L 666 4666 
L 1959 2747 
L 3244 4666 
L 3922 4666 
L 2272 2222 
L 2272 0 
L 1638 0 
L 1638 2222 
L -13 4666 
z
" transform="scale(0.015625)"/>
       </defs>
       <use xlink:href="#DejaVuSans-49"/>
       <use xlink:href="#DejaVuSans-4e" x="29.492188"/>
       <use xlink:href="#DejaVuSans-53" x="104.296875"/>
       <use xlink:href="#DejaVuSans-59" x="167.773438"/>
       <use xlink:href="#DejaVuSans-4e" x="228.857422"/>
       <use xlink:href="#DejaVuSans-31" x="303.662109"/>
      </g>
     </g>
    </g>
    <g id="xtick_6">
     <g id="line2d_6">
      <g>
       <use xlink:href="#md23e69dfc1" x="172.58825" y="185.69" style="stroke: #000000; stroke-width: 0.8"/>
      </g>
     </g>
     <g id="text_6">
      <!-- RAB40A -->
      <g transform="translate(175.347625 232.505625) rotate(-90) scale(0.1 -0.1)">
       <use xlink:href="#DejaVuSans-52"/>
       <use xlink:href="#DejaVuSans-41" x="65.482422"/>
       <use xlink:href="#DejaVuSans-42" x="133.890625"/>
       <use xlink:href="#DejaVuSans-34" x="202.494141"/>
       <use xlink:href="#DejaVuSans-30" x="266.117188"/>
       <use xlink:href="#DejaVuSans-41" x="329.740234"/>
      </g>
     </g>
    </g>
   </g>
   <g id="matplotlib.axis_2">
    <g id="ytick_1">
     <g id="line2d_7">
      <defs>
       <path id="me5767ed72b" d="M 0 0 
L 3.5 0 
" style="stroke: #000000; stroke-width: 0.8"/>
      </defs>
      <g>
       <use xlink:href="#me5767ed72b" x="185.69" y="41.57075" style="stroke: #000000; stroke-width: 0.8"/>
      </g>
     </g>
     <g id="text_7">
      <!-- RAB40B -->
      <g transform="translate(192.69 45.369969) scale(0.1 -0.1)">
       <use xlink:href="#DejaVuSans-52"/>
       <use xlink:href="#DejaVuSans-41" x="65.482422"/>
       <use xlink:href="#DejaVuSans-42" x="133.890625"/>
       <use xlink:href="#DejaVuSans-34" x="202.494141"/>
       <use xlink:href="#DejaVuSans-30" x="266.117188"/>
       <use xlink:href="#DejaVuSans-42" x="329.740234"/>
      </g>
     </g>
    </g>
    <g id="ytick_2">
     <g id="line2d_8">
      <g>
       <use xlink:href="#me5767ed72b" x="185.69" y="67.77425" style="stroke: #000000; stroke-width: 0.8"/>
      </g>
     </g>
     <g id="text_8">
      <!-- PIK3R3 -->
      <g transform="translate(192.69 71.573469) scale(0.1 -0.1)">
       <use xlink:href="#DejaVuSans-50"/>
       <use xlink:href="#DejaVuSans-49" x="60.302734"/>
       <use xlink:href="#DejaVuSans-4b" x="89.794922"/>
       <use xlink:href="#DejaVuSans-33" x="155.371094"/>
       <use xlink:href="#DejaVuSans-52" x="218.994141"/>
       <use xlink:href="#DejaVuSans-33" x="288.476562"/>
      </g>
     </g>
    </g>
    <g id="ytick_3">
     <g id="line2d_9">
      <g>
       <use xlink:href="#me5767ed72b" x="185.69" y="93.97775" style="stroke: #000000; stroke-width: 0.8"/>
      </g>
     </g>
     <g id="text_9">
      <!-- XLOC_l2_008134 -->
      <g transform="translate(192.69 97.776969) scale(0.1 -0.1)">
       <use xlink:href="#DejaVuSans-58"/>
       <use xlink:href="#DejaVuSans-4c" x="68.505859"/>
       <use xlink:href="#DejaVuSans-4f" x="120.59375"/>
       <use xlink:href="#DejaVuSans-43" x="199.304688"/>
       <use xlink:href="#DejaVuSans-5f" x="269.128906"/>
       <use xlink:href="#DejaVuSans-6c" x="319.128906"/>
       <use xlink:href="#DejaVuSans-32" x="346.912109"/>
       <use xlink:href="#DejaVuSans-5f" x="410.535156"/>
       <use xlink:href="#DejaVuSans-30" x="460.535156"/>
       <use xlink:href="#DejaVuSans-30" x="524.158203"/>
       <use xlink:href="#DejaVuSans-38" x="587.78125"/>
       <use xlink:href="#DejaVuSans-31" x="651.404297"/>
       <use xlink:href="#DejaVuSans-33" x="715.027344"/>
       <use xlink:href="#DejaVuSans-34" x="778.650391"/>
      </g>
     </g>
    </g>
    <g id="ytick_4">
     <g id="line2d_10">
      <g>
       <use xlink:href="#me5767ed72b" x="185.69" y="120.18125" style="stroke: #000000; stroke-width: 0.8"/>
      </g>
     </g>
     <g id="text_10">
      <!-- RAB40C -->
      <g transform="translate(192.69 123.980469) scale(0.1 -0.1)">
       <use xlink:href="#DejaVuSans-52"/>
       <use xlink:href="#DejaVuSans-41" x="65.482422"/>
       <use xlink:href="#DejaVuSans-42" x="133.890625"/>
       <use xlink:href="#DejaVuSans-34" x="202.494141"/>
       <use xlink:href="#DejaVuSans-30" x="266.117188"/>
       <use xlink:href="#DejaVuSans-43" x="329.740234"/>
      </g>
     </g>
    </g>
    <g id="ytick_5">
     <g id="line2d_11">
      <g>
       <use xlink:href="#me5767ed72b" x="185.69" y="146.38475" style="stroke: #000000; stroke-width: 0.8"/>
      </g>
     </g>
     <g id="text_11">
      <!-- INSYN1 -->
      <g transform="translate(192.69 150.183969) scale(0.1 -0.1)">
       <use xlink:href="#DejaVuSans-49"/>
       <use xlink:href="#DejaVuSans-4e" x="29.492188"/>
       <use xlink:href="#DejaVuSans-53" x="104.296875"/>
       <use xlink:href="#DejaVuSans-59" x="167.773438"/>
       <use xlink:href="#DejaVuSans-4e" x="228.857422"/>
       <use xlink:href="#DejaVuSans-31" x="303.662109"/>
      </g>
     </g>
    </g>
    <g id="ytick_6">
     <g id="line2d_12">
      <g>
       <use xlink:href="#me5767ed72b" x="185.69" y="172.58825" style="stroke: #000000; stroke-width: 0.8"/>
      </g>
     </g>
     <g id="text_12">
      <!-- RAB40A -->
      <g transform="translate(192.69 176.387469) scale(0.1 -0.1)">
       <use xlink:href="#DejaVuSans-52"/>
       <use xlink:href="#DejaVuSans-41" x="65.482422"/>
       <use xlink:href="#DejaVuSans-42" x="133.890625"/>
       <use xlink:href="#DejaVuSans-34" x="202.494141"/>
       <use xlink:href="#DejaVuSans-30" x="266.117188"/>
       <use xlink:href="#DejaVuSans-41" x="329.740234"/>
      </g>
     </g>
    </g>
   </g>
   <g id="text_13">
    <!-- True -->
    <g transform="translate(33.077 43.77825) scale(0.08 -0.08)">
     <defs>
      <path id="DejaVuSans-54" d="M -19 4666 
L 3928 4666 
L 3928 4134 
L 2272 4134 
L 2272 0 
L 1638 0 
L 1638 4134 
L -19 4134 
L -19 4666 
z
" transform="scale(0.015625)"/>
      <path id="DejaVuSans-72" d="M 2631 2963 
Q 2534 3019 2420 3045 
Q 2306 3072 2169 3072 
Q 1681 3072 1420 2755 
Q 1159 2438 1159 1844 
L 1159 0 
L 581 0 
L 581 3500 
L 1159 3500 
L 1159 2956 
Q 1341 3275 1631 3429 
Q 1922 3584 2338 3584 
Q 2397 3584 2469 3576 
Q 2541 3569 2628 3553 
L 2631 2963 
z
" transform="scale(0.015625)"/>
      <path id="DejaVuSans-75" d="M 544 1381 
L 544 3500 
L 1119 3500 
L 1119 1403 
Q 1119 906 1312 657 
Q 1506 409 1894 409 
Q 2359 409 2629 706 
Q 2900 1003 2900 1516 
L 2900 3500 
L 3475 3500 
L 3475 0 
L 2900 0 
L 2900 538 
Q 2691 219 2414 64 
Q 2138 -91 1772 -91 
Q 1169 -91 856 284 
Q 544 659 544 1381 
z
M 1991 3584 
L 1991 3584 
z
" transform="scale(0.015625)"/>
      <path id="DejaVuSans-65" d="M 3597 1894 
L 3597 1613 
L 953 1613 
Q 991 1019 1311 708 
Q 1631 397 2203 397 
Q 2534 397 2845 478 
Q 3156 559 3463 722 
L 3463 178 
Q 3153 47 2828 -22 
Q 2503 -91 2169 -91 
Q 1331 -91 842 396 
Q 353 884 353 1716 
Q 353 2575 817 3079 
Q 1281 3584 2069 3584 
Q 2775 3584 3186 3129 
Q 3597 2675 3597 1894 
z
M 3022 2063 
Q 3016 2534 2758 2815 
Q 2500 3097 2075 3097 
Q 1594 3097 1305 2825 
Q 1016 2553 972 2059 
L 3022 2063 
z
" transform="scale(0.015625)"/>
     </defs>
     <use xlink:href="#DejaVuSans-54"/>
     <use xlink:href="#DejaVuSans-72" x="46.333984"/>
     <use xlink:href="#DejaVuSans-75" x="87.447266"/>
     <use xlink:href="#DejaVuSans-65" x="150.826172"/>
    </g>
   </g>
   <g id="text_14">
    <!-- 0.295 -->
    <g style="fill: #ffffff" transform="translate(56.323 43.77825) scale(0.08 -0.08)">
     <defs>
      <path id="DejaVuSans-2e" d="M 684 794 
L 1344 794 
L 1344 0 
L 684 0 
L 684 794 
z
" transform="scale(0.015625)"/>
      <path id="DejaVuSans-39" d="M 703 97 
L 703 672 
Q 941 559 1184 500 
Q 1428 441 1663 441 
Q 2288 441 2617 861 
Q 2947 1281 2994 2138 
Q 2813 1869 2534 1725 
Q 2256 1581 1919 1581 
Q 1219 1581 811 2004 
Q 403 2428 403 3163 
Q 403 3881 828 4315 
Q 1253 4750 1959 4750 
Q 2769 4750 3195 4129 
Q 3622 3509 3622 2328 
Q 3622 1225 3098 567 
Q 2575 -91 1691 -91 
Q 1453 -91 1209 -44 
Q 966 3 703 97 
z
M 1959 2075 
Q 2384 2075 2632 2365 
Q 2881 2656 2881 3163 
Q 2881 3666 2632 3958 
Q 2384 4250 1959 4250 
Q 1534 4250 1286 3958 
Q 1038 3666 1038 3163 
Q 1038 2656 1286 2365 
Q 1534 2075 1959 2075 
z
" transform="scale(0.015625)"/>
      <path id="DejaVuSans-35" d="M 691 4666 
L 3169 4666 
L 3169 4134 
L 1269 4134 
L 1269 2991 
Q 1406 3038 1543 3061 
Q 1681 3084 1819 3084 
Q 2600 3084 3056 2656 
Q 3513 2228 3513 1497 
Q 3513 744 3044 326 
Q 2575 -91 1722 -91 
Q 1428 -91 1123 -41 
Q 819 9 494 109 
L 494 744 
Q 775 591 1075 516 
Q 1375 441 1709 441 
Q 2250 441 2565 725 
Q 2881 1009 2881 1497 
Q 2881 1984 2565 2268 
Q 2250 2553 1709 2553 
Q 1456 2553 1204 2497 
Q 953 2441 691 2322 
L 691 4666 
z
" transform="scale(0.015625)"/>
     </defs>
     <use xlink:href="#DejaVuSans-30"/>
     <use xlink:href="#DejaVuSans-2e" x="63.623047"/>
     <use xlink:href="#DejaVuSans-32" x="95.410156"/>
     <use xlink:href="#DejaVuSans-39" x="159.033203"/>
     <use xlink:href="#DejaVuSans-35" x="222.65625"/>
    </g>
   </g>
   <g id="text_15">
    <!-- 0.0 -->
    <g transform="translate(87.6165 43.77825) scale(0.08 -0.08)">
     <use xlink:href="#DejaVuSans-30"/>
     <use xlink:href="#DejaVuSans-2e" x="63.623047"/>
     <use xlink:href="#DejaVuSans-30" x="95.410156"/>
    </g>
   </g>
   <g id="text_16">
    <!-- 0.539 -->
    <g transform="translate(108.73 43.77825) scale(0.08 -0.08)">
     <use xlink:href="#DejaVuSans-30"/>
     <use xlink:href="#DejaVuSans-2e" x="63.623047"/>
     <use xlink:href="#DejaVuSans-35" x="95.410156"/>
     <use xlink:href="#DejaVuSans-33" x="159.033203"/>
     <use xlink:href="#DejaVuSans-39" x="222.65625"/>
    </g>
   </g>
   <g id="text_17">
    <!-- 0.161 -->
    <g transform="translate(134.9335 43.77825) scale(0.08 -0.08)">
     <defs>
      <path id="DejaVuSans-36" d="M 2113 2584 
Q 1688 2584 1439 2293 
Q 1191 2003 1191 1497 
Q 1191 994 1439 701 
Q 1688 409 2113 409 
Q 2538 409 2786 701 
Q 3034 994 3034 1497 
Q 3034 2003 2786 2293 
Q 2538 2584 2113 2584 
z
M 3366 4563 
L 3366 3988 
Q 3128 4100 2886 4159 
Q 2644 4219 2406 4219 
Q 1781 4219 1451 3797 
Q 1122 3375 1075 2522 
Q 1259 2794 1537 2939 
Q 1816 3084 2150 3084 
Q 2853 3084 3261 2657 
Q 3669 2231 3669 1497 
Q 3669 778 3244 343 
Q 2819 -91 2113 -91 
Q 1303 -91 875 529 
Q 447 1150 447 2328 
Q 447 3434 972 4092 
Q 1497 4750 2381 4750 
Q 2619 4750 2861 4703 
Q 3103 4656 3366 4563 
z
" transform="scale(0.015625)"/>
     </defs>
     <use xlink:href="#DejaVuSans-30"/>
     <use xlink:href="#DejaVuSans-2e" x="63.623047"/>
     <use xlink:href="#DejaVuSans-31" x="95.410156"/>
     <use xlink:href="#DejaVuSans-36" x="159.033203"/>
     <use xlink:href="#DejaVuSans-31" x="222.65625"/>
    </g>
   </g>
   <g id="text_18">
    <!-- 0.591 -->
    <g transform="translate(161.137 43.77825) scale(0.08 -0.08)">
     <use xlink:href="#DejaVuSans-30"/>
     <use xlink:href="#DejaVuSans-2e" x="63.623047"/>
     <use xlink:href="#DejaVuSans-35" x="95.410156"/>
     <use xlink:href="#DejaVuSans-39" x="159.033203"/>
     <use xlink:href="#DejaVuSans-31" x="222.65625"/>
    </g>
   </g>
   <g id="text_19">
    <!-- 0.295 -->
    <g style="fill: #ffffff" transform="translate(30.1195 69.98175) scale(0.08 -0.08)">
     <use xlink:href="#DejaVuSans-30"/>
     <use xlink:href="#DejaVuSans-2e" x="63.623047"/>
     <use xlink:href="#DejaVuSans-32" x="95.410156"/>
     <use xlink:href="#DejaVuSans-39" x="159.033203"/>
     <use xlink:href="#DejaVuSans-35" x="222.65625"/>
    </g>
   </g>
   <g id="text_20">
    <!-- True -->
    <g transform="translate(59.2805 69.98175) scale(0.08 -0.08)">
     <use xlink:href="#DejaVuSans-54"/>
     <use xlink:href="#DejaVuSans-72" x="46.333984"/>
     <use xlink:href="#DejaVuSans-75" x="87.447266"/>
     <use xlink:href="#DejaVuSans-65" x="150.826172"/>
    </g>
   </g>
   <g id="text_21">
    <!-- 0.0 -->
    <g transform="translate(87.6165 69.98175) scale(0.08 -0.08)">
     <use xlink:href="#DejaVuSans-30"/>
     <use xlink:href="#DejaVuSans-2e" x="63.623047"/>
     <use xlink:href="#DejaVuSans-30" x="95.410156"/>
    </g>
   </g>
   <g id="text_22">
    <!-- 0.342 -->
    <g transform="translate(108.73 69.98175) scale(0.08 -0.08)">
     <use xlink:href="#DejaVuSans-30"/>
     <use xlink:href="#DejaVuSans-2e" x="63.623047"/>
     <use xlink:href="#DejaVuSans-33" x="95.410156"/>
     <use xlink:href="#DejaVuSans-34" x="159.033203"/>
     <use xlink:href="#DejaVuSans-32" x="222.65625"/>
    </g>
   </g>
   <g id="text_23">
    <!-- 0.166 -->
    <g transform="translate(134.9335 69.98175) scale(0.08 -0.08)">
     <use xlink:href="#DejaVuSans-30"/>
     <use xlink:href="#DejaVuSans-2e" x="63.623047"/>
     <use xlink:href="#DejaVuSans-31" x="95.410156"/>
     <use xlink:href="#DejaVuSans-36" x="159.033203"/>
     <use xlink:href="#DejaVuSans-36" x="222.65625"/>
    </g>
   </g>
   <g id="text_24">
    <!-- 0.388 -->
    <g transform="translate(161.137 69.98175) scale(0.08 -0.08)">
     <use xlink:href="#DejaVuSans-30"/>
     <use xlink:href="#DejaVuSans-2e" x="63.623047"/>
     <use xlink:href="#DejaVuSans-33" x="95.410156"/>
     <use xlink:href="#DejaVuSans-38" x="159.033203"/>
     <use xlink:href="#DejaVuSans-38" x="222.65625"/>
    </g>
   </g>
   <g id="text_25">
    <!-- 0.0 -->
    <g transform="translate(35.2095 96.18525) scale(0.08 -0.08)">
     <use xlink:href="#DejaVuSans-30"/>
     <use xlink:href="#DejaVuSans-2e" x="63.623047"/>
     <use xlink:href="#DejaVuSans-30" x="95.410156"/>
    </g>
   </g>
   <g id="text_26">
    <!-- 0.0 -->
    <g transform="translate(61.413 96.18525) scale(0.08 -0.08)">
     <use xlink:href="#DejaVuSans-30"/>
     <use xlink:href="#DejaVuSans-2e" x="63.623047"/>
     <use xlink:href="#DejaVuSans-30" x="95.410156"/>
    </g>
   </g>
   <g id="text_27">
    <!-- False -->
    <g transform="translate(83.934625 96.18525) scale(0.08 -0.08)">
     <defs>
      <path id="DejaVuSans-46" d="M 628 4666 
L 3309 4666 
L 3309 4134 
L 1259 4134 
L 1259 2759 
L 3109 2759 
L 3109 2228 
L 1259 2228 
L 1259 0 
L 628 0 
L 628 4666 
z
" transform="scale(0.015625)"/>
      <path id="DejaVuSans-61" d="M 2194 1759 
Q 1497 1759 1228 1600 
Q 959 1441 959 1056 
Q 959 750 1161 570 
Q 1363 391 1709 391 
Q 2188 391 2477 730 
Q 2766 1069 2766 1631 
L 2766 1759 
L 2194 1759 
z
M 3341 1997 
L 3341 0 
L 2766 0 
L 2766 531 
Q 2569 213 2275 61 
Q 1981 -91 1556 -91 
Q 1019 -91 701 211 
Q 384 513 384 1019 
Q 384 1609 779 1909 
Q 1175 2209 1959 2209 
L 2766 2209 
L 2766 2266 
Q 2766 2663 2505 2880 
Q 2244 3097 1772 3097 
Q 1472 3097 1187 3025 
Q 903 2953 641 2809 
L 641 3341 
Q 956 3463 1253 3523 
Q 1550 3584 1831 3584 
Q 2591 3584 2966 3190 
Q 3341 2797 3341 1997 
z
" transform="scale(0.015625)"/>
      <path id="DejaVuSans-73" d="M 2834 3397 
L 2834 2853 
Q 2591 2978 2328 3040 
Q 2066 3103 1784 3103 
Q 1356 3103 1142 2972 
Q 928 2841 928 2578 
Q 928 2378 1081 2264 
Q 1234 2150 1697 2047 
L 1894 2003 
Q 2506 1872 2764 1633 
Q 3022 1394 3022 966 
Q 3022 478 2636 193 
Q 2250 -91 1575 -91 
Q 1294 -91 989 -36 
Q 684 19 347 128 
L 347 722 
Q 666 556 975 473 
Q 1284 391 1588 391 
Q 1994 391 2212 530 
Q 2431 669 2431 922 
Q 2431 1156 2273 1281 
Q 2116 1406 1581 1522 
L 1381 1569 
Q 847 1681 609 1914 
Q 372 2147 372 2553 
Q 372 3047 722 3315 
Q 1072 3584 1716 3584 
Q 2034 3584 2315 3537 
Q 2597 3491 2834 3397 
z
" transform="scale(0.015625)"/>
     </defs>
     <use xlink:href="#DejaVuSans-46"/>
     <use xlink:href="#DejaVuSans-61" x="48.394531"/>
     <use xlink:href="#DejaVuSans-6c" x="109.673828"/>
     <use xlink:href="#DejaVuSans-73" x="137.457031"/>
     <use xlink:href="#DejaVuSans-65" x="189.556641"/>
    </g>
   </g>
   <g id="text_28">
    <!-- 0.0 -->
    <g transform="translate(113.82 96.18525) scale(0.08 -0.08)">
     <use xlink:href="#DejaVuSans-30"/>
     <use xlink:href="#DejaVuSans-2e" x="63.623047"/>
     <use xlink:href="#DejaVuSans-30" x="95.410156"/>
    </g>
   </g>
   <g id="text_29">
    <!-- 0.0 -->
    <g transform="translate(140.0235 96.18525) scale(0.08 -0.08)">
     <use xlink:href="#DejaVuSans-30"/>
     <use xlink:href="#DejaVuSans-2e" x="63.623047"/>
     <use xlink:href="#DejaVuSans-30" x="95.410156"/>
    </g>
   </g>
   <g id="text_30">
    <!-- 0.0 -->
    <g transform="translate(166.227 96.18525) scale(0.08 -0.08)">
     <use xlink:href="#DejaVuSans-30"/>
     <use xlink:href="#DejaVuSans-2e" x="63.623047"/>
     <use xlink:href="#DejaVuSans-30" x="95.410156"/>
    </g>
   </g>
   <g id="text_31">
    <!-- 0.539 -->
    <g transform="translate(30.1195 122.38875) scale(0.08 -0.08)">
     <use xlink:href="#DejaVuSans-30"/>
     <use xlink:href="#DejaVuSans-2e" x="63.623047"/>
     <use xlink:href="#DejaVuSans-35" x="95.410156"/>
     <use xlink:href="#DejaVuSans-33" x="159.033203"/>
     <use xlink:href="#DejaVuSans-39" x="222.65625"/>
    </g>
   </g>
   <g id="text_32">
    <!-- 0.342 -->
    <g transform="translate(56.323 122.38875) scale(0.08 -0.08)">
     <use xlink:href="#DejaVuSans-30"/>
     <use xlink:href="#DejaVuSans-2e" x="63.623047"/>
     <use xlink:href="#DejaVuSans-33" x="95.410156"/>
     <use xlink:href="#DejaVuSans-34" x="159.033203"/>
     <use xlink:href="#DejaVuSans-32" x="222.65625"/>
    </g>
   </g>
   <g id="text_33">
    <!-- 0.0 -->
    <g transform="translate(87.6165 122.38875) scale(0.08 -0.08)">
     <use xlink:href="#DejaVuSans-30"/>
     <use xlink:href="#DejaVuSans-2e" x="63.623047"/>
     <use xlink:href="#DejaVuSans-30" x="95.410156"/>
    </g>
   </g>
   <g id="text_34">
    <!-- False -->
    <g transform="translate(110.138125 122.38875) scale(0.08 -0.08)">
     <use xlink:href="#DejaVuSans-46"/>
     <use xlink:href="#DejaVuSans-61" x="48.394531"/>
     <use xlink:href="#DejaVuSans-6c" x="109.673828"/>
     <use xlink:href="#DejaVuSans-73" x="137.457031"/>
     <use xlink:href="#DejaVuSans-65" x="189.556641"/>
    </g>
   </g>
   <g id="text_35">
    <!-- 0.166 -->
    <g transform="translate(134.9335 122.38875) scale(0.08 -0.08)">
     <use xlink:href="#DejaVuSans-30"/>
     <use xlink:href="#DejaVuSans-2e" x="63.623047"/>
     <use xlink:href="#DejaVuSans-31" x="95.410156"/>
     <use xlink:href="#DejaVuSans-36" x="159.033203"/>
     <use xlink:href="#DejaVuSans-36" x="222.65625"/>
    </g>
   </g>
   <g id="text_36">
    <!-- 0.566 -->
    <g transform="translate(161.137 122.38875) scale(0.08 -0.08)">
     <use xlink:href="#DejaVuSans-30"/>
     <use xlink:href="#DejaVuSans-2e" x="63.623047"/>
     <use xlink:href="#DejaVuSans-35" x="95.410156"/>
     <use xlink:href="#DejaVuSans-36" x="159.033203"/>
     <use xlink:href="#DejaVuSans-36" x="222.65625"/>
    </g>
   </g>
   <g id="text_37">
    <!-- 0.161 -->
    <g transform="translate(30.1195 148.59225) scale(0.08 -0.08)">
     <use xlink:href="#DejaVuSans-30"/>
     <use xlink:href="#DejaVuSans-2e" x="63.623047"/>
     <use xlink:href="#DejaVuSans-31" x="95.410156"/>
     <use xlink:href="#DejaVuSans-36" x="159.033203"/>
     <use xlink:href="#DejaVuSans-31" x="222.65625"/>
    </g>
   </g>
   <g id="text_38">
    <!-- 0.166 -->
    <g transform="translate(56.323 148.59225) scale(0.08 -0.08)">
     <use xlink:href="#DejaVuSans-30"/>
     <use xlink:href="#DejaVuSans-2e" x="63.623047"/>
     <use xlink:href="#DejaVuSans-31" x="95.410156"/>
     <use xlink:href="#DejaVuSans-36" x="159.033203"/>
     <use xlink:href="#DejaVuSans-36" x="222.65625"/>
    </g>
   </g>
   <g id="text_39">
    <!-- 0.0 -->
    <g transform="translate(87.6165 148.59225) scale(0.08 -0.08)">
     <use xlink:href="#DejaVuSans-30"/>
     <use xlink:href="#DejaVuSans-2e" x="63.623047"/>
     <use xlink:href="#DejaVuSans-30" x="95.410156"/>
    </g>
   </g>
   <g id="text_40">
    <!-- 0.166 -->
    <g transform="translate(108.73 148.59225) scale(0.08 -0.08)">
     <use xlink:href="#DejaVuSans-30"/>
     <use xlink:href="#DejaVuSans-2e" x="63.623047"/>
     <use xlink:href="#DejaVuSans-31" x="95.410156"/>
     <use xlink:href="#DejaVuSans-36" x="159.033203"/>
     <use xlink:href="#DejaVuSans-36" x="222.65625"/>
    </g>
   </g>
   <g id="text_41">
    <!-- False -->
    <g transform="translate(136.341625 148.59225) scale(0.08 -0.08)">
     <use xlink:href="#DejaVuSans-46"/>
     <use xlink:href="#DejaVuSans-61" x="48.394531"/>
     <use xlink:href="#DejaVuSans-6c" x="109.673828"/>
     <use xlink:href="#DejaVuSans-73" x="137.457031"/>
     <use xlink:href="#DejaVuSans-65" x="189.556641"/>
    </g>
   </g>
   <g id="text_42">
    <!-- 0.218 -->
    <g transform="translate(161.137 148.59225) scale(0.08 -0.08)">
     <use xlink:href="#DejaVuSans-30"/>
     <use xlink:href="#DejaVuSans-2e" x="63.623047"/>
     <use xlink:href="#DejaVuSans-32" x="95.410156"/>
     <use xlink:href="#DejaVuSans-31" x="159.033203"/>
     <use xlink:href="#DejaVuSans-38" x="222.65625"/>
    </g>
   </g>
   <g id="text_43">
    <!-- 0.591 -->
    <g transform="translate(30.1195 174.79575) scale(0.08 -0.08)">
     <use xlink:href="#DejaVuSans-30"/>
     <use xlink:href="#DejaVuSans-2e" x="63.623047"/>
     <use xlink:href="#DejaVuSans-35" x="95.410156"/>
     <use xlink:href="#DejaVuSans-39" x="159.033203"/>
     <use xlink:href="#DejaVuSans-31" x="222.65625"/>
    </g>
   </g>
   <g id="text_44">
    <!-- 0.388 -->
    <g transform="translate(56.323 174.79575) scale(0.08 -0.08)">
     <use xlink:href="#DejaVuSans-30"/>
     <use xlink:href="#DejaVuSans-2e" x="63.623047"/>
     <use xlink:href="#DejaVuSans-33" x="95.410156"/>
     <use xlink:href="#DejaVuSans-38" x="159.033203"/>
     <use xlink:href="#DejaVuSans-38" x="222.65625"/>
    </g>
   </g>
   <g id="text_45">
    <!-- 0.0 -->
    <g transform="translate(87.6165 174.79575) scale(0.08 -0.08)">
     <use xlink:href="#DejaVuSans-30"/>
     <use xlink:href="#DejaVuSans-2e" x="63.623047"/>
     <use xlink:href="#DejaVuSans-30" x="95.410156"/>
    </g>
   </g>
   <g id="text_46">
    <!-- 0.566 -->
    <g transform="translate(108.73 174.79575) scale(0.08 -0.08)">
     <use xlink:href="#DejaVuSans-30"/>
     <use xlink:href="#DejaVuSans-2e" x="63.623047"/>
     <use xlink:href="#DejaVuSans-35" x="95.410156"/>
     <use xlink:href="#DejaVuSans-36" x="159.033203"/>
     <use xlink:href="#DejaVuSans-36" x="222.65625"/>
    </g>
   </g>
   <g id="text_47">
    <!-- 0.218 -->
    <g transform="translate(134.9335 174.79575) scale(0.08 -0.08)">
     <use xlink:href="#DejaVuSans-30"/>
     <use xlink:href="#DejaVuSans-2e" x="63.623047"/>
     <use xlink:href="#DejaVuSans-32" x="95.410156"/>
     <use xlink:href="#DejaVuSans-31" x="159.033203"/>
     <use xlink:href="#DejaVuSans-38" x="222.65625"/>
    </g>
   </g>
   <g id="text_48">
    <!-- False -->
    <g transform="translate(162.545125 174.79575) scale(0.08 -0.08)">
     <use xlink:href="#DejaVuSans-46"/>
     <use xlink:href="#DejaVuSans-61" x="48.394531"/>
     <use xlink:href="#DejaVuSans-6c" x="109.673828"/>
     <use xlink:href="#DejaVuSans-73" x="137.457031"/>
     <use xlink:href="#DejaVuSans-65" x="189.556641"/>
    </g>
   </g>
  </g>
 </g>
 <defs>
  <clipPath id="pb362986f0d">
   <rect x="10.8" y="28.469" width="17.469" height="157.221"/>
  </clipPath>
  <clipPath id="pcbd7a1fb85">
   <rect x="28.469" y="10.8" width="157.221" height="17.469"/>
  </clipPath>
  <clipPath id="pe1cfdb1897">
   <rect x="28.469" y="28.469" width="157.221" height="157.221"/>
  </clipPath>
 </defs>
</svg>
