<?xml version="1.0" encoding="utf-8" standalone="no"?>
<!DOCTYPE svg PUBLIC "-//W3C//DTD SVG 1.1//EN"
  "http://www.w3.org/Graphics/SVG/1.1/DTD/svg11.dtd">
<svg xmlns:xlink="http://www.w3.org/1999/xlink" width="252pt" height="252pt" viewBox="0 0 252 252" xmlns="http://www.w3.org/2000/svg" version="1.1">
 <metadata>
  <rdf:RDF xmlns:dc="http://purl.org/dc/elements/1.1/" xmlns:cc="http://creativecommons.org/ns#" xmlns:rdf="http://www.w3.org/1999/02/22-rdf-syntax-ns#">
   <cc:Work>
    <dc:type rdf:resource="http://purl.org/dc/dcmitype/StillImage"/>
    <dc:date>2024-08-07T10:54:21.912086</dc:date>
    <dc:format>image/svg+xml</dc:format>
    <dc:creator>
     <cc:Agent>
      <dc:title>Matplotlib v3.6.2, https://matplotlib.org/</dc:title>
     </cc:Agent>
    </dc:creator>
   </cc:Work>
  </rdf:RDF>
 </metadata>
 <defs>
  <style type="text/css">*{stroke-linejoin: round; stroke-linecap: butt}</style>
 </defs>
 <g id="figure_1">
  <g id="patch_1">
   <path d="M 0 252 
L 252 252 
L 252 0 
L 0 0 
z
" style="fill: #ffffff"/>
  </g>
  <g id="axes_1">
   <g id="LineCollection_1">
    <path d="M 27.365 72.2905 
L 19.808381 72.2905 
L 19.808381 102.1075 
L 27.365 102.1075 
" clip-path="url(#p9683c7c97f)" style="fill: none; stroke: #333333; stroke-width: 0.5"/>
    <path d="M 27.365 42.4735 
L 18.674815 42.4735 
L 18.674815 87.199 
L 19.808381 87.199 
" clip-path="url(#p9683c7c97f)" style="fill: none; stroke: #333333; stroke-width: 0.5"/>
    <path d="M 27.365 131.9245 
L 14.311889 131.9245 
L 14.311889 161.7415 
L 27.365 161.7415 
" clip-path="url(#p9683c7c97f)" style="fill: none; stroke: #333333; stroke-width: 0.5"/>
    <path d="M 18.674815 64.83625 
L 11.58881 64.83625 
L 11.58881 146.833 
L 14.311889 146.833 
" clip-path="url(#p9683c7c97f)" style="fill: none; stroke: #333333; stroke-width: 0.5"/>
   </g>
  </g>
  <g id="axes_2">
   <g id="LineCollection_2">
    <path d="M 72.2905 27.365 
L 72.2905 19.808381 
L 102.1075 19.808381 
L 102.1075 27.365 
" clip-path="url(#p952a337381)" style="fill: none; stroke: #333333; stroke-width: 0.5"/>
    <path d="M 42.4735 27.365 
L 42.4735 18.674816 
L 87.199 18.674816 
L 87.199 19.808381 
" clip-path="url(#p952a337381)" style="fill: none; stroke: #333333; stroke-width: 0.5"/>
    <path d="M 131.9245 27.365 
L 131.9245 14.311889 
L 161.7415 14.311889 
L 161.7415 27.365 
" clip-path="url(#p952a337381)" style="fill: none; stroke: #333333; stroke-width: 0.5"/>
    <path d="M 64.83625 18.674816 
L 64.83625 11.58881 
L 146.833 11.58881 
L 146.833 14.311889 
" clip-path="url(#p952a337381)" style="fill: none; stroke: #333333; stroke-width: 0.5"/>
   </g>
  </g>
  <g id="axes_3">
   <g id="patch_2">
    <path d="M 27.565 176.65 
L 176.65 176.65 
L 176.65 27.565 
L 27.565 27.565 
z
" style="fill: #ffffff"/>
   </g>
   <g id="QuadMesh_1">
    <path d="M 27.565 27.565 
L 57.382 27.565 
L 57.382 57.382 
L 27.565 57.382 
L 27.565 27.565 
" clip-path="url(#pc60aeb0e7b)" style="fill: #053061"/>
    <path d="M 57.382 27.565 
L 87.199 27.565 
L 87.199 57.382 
L 57.382 57.382 
L 57.382 27.565 
" clip-path="url(#pc60aeb0e7b)" style="fill: #d2e6f0"/>
    <path d="M 87.199 27.565 
L 117.016 27.565 
L 117.016 57.382 
L 87.199 57.382 
L 87.199 27.565 
" clip-path="url(#pc60aeb0e7b)" style="fill: #c7e0ed"/>
    <path d="M 117.016 27.565 
L 146.833 27.565 
L 146.833 57.382 
L 117.016 57.382 
L 117.016 27.565 
" clip-path="url(#pc60aeb0e7b)" style="fill: #d55d4c"/>
    <path d="M 146.833 27.565 
L 176.65 27.565 
L 176.65 57.382 
L 146.833 57.382 
L 146.833 27.565 
" clip-path="url(#pc60aeb0e7b)" style="fill: #b72230"/>
    <path d="M 27.565 57.382 
L 57.382 57.382 
L 57.382 87.199 
L 27.565 87.199 
L 27.565 57.382 
" clip-path="url(#pc60aeb0e7b)" style="fill: #d2e6f0"/>
    <path d="M 57.382 57.382 
L 87.199 57.382 
L 87.199 87.199 
L 57.382 87.199 
L 57.382 57.382 
" clip-path="url(#pc60aeb0e7b)" style="fill: #053061"/>
    <path d="M 87.199 57.382 
L 117.016 57.382 
L 117.016 87.199 
L 87.199 87.199 
L 87.199 57.382 
" clip-path="url(#pc60aeb0e7b)" style="fill: #96c7df"/>
    <path d="M 117.016 57.382 
L 146.833 57.382 
L 146.833 87.199 
L 117.016 87.199 
L 117.016 57.382 
" clip-path="url(#pc60aeb0e7b)" style="fill: #f3a481"/>
    <path d="M 146.833 57.382 
L 176.65 57.382 
L 176.65 87.199 
L 146.833 87.199 
L 146.833 57.382 
" clip-path="url(#pc60aeb0e7b)" style="fill: #df765e"/>
    <path d="M 27.565 87.199 
L 57.382 87.199 
L 57.382 117.016 
L 27.565 117.016 
L 27.565 87.199 
" clip-path="url(#pc60aeb0e7b)" style="fill: #c7e0ed"/>
    <path d="M 57.382 87.199 
L 87.199 87.199 
L 87.199 117.016 
L 57.382 117.016 
L 57.382 87.199 
" clip-path="url(#pc60aeb0e7b)" style="fill: #96c7df"/>
    <path d="M 87.199 87.199 
L 117.016 87.199 
L 117.016 117.016 
L 87.199 117.016 
L 87.199 87.199 
" clip-path="url(#pc60aeb0e7b)" style="fill: #053061"/>
    <path d="M 117.016 87.199 
L 146.833 87.199 
L 146.833 117.016 
L 117.016 117.016 
L 117.016 87.199 
" clip-path="url(#pc60aeb0e7b)" style="fill: #c2383a"/>
    <path d="M 146.833 87.199 
L 176.65 87.199 
L 176.65 117.016 
L 146.833 117.016 
L 146.833 87.199 
" clip-path="url(#pc60aeb0e7b)" style="fill: #d4e6f1"/>
    <path d="M 27.565 117.016 
L 57.382 117.016 
L 57.382 146.833 
L 27.565 146.833 
L 27.565 117.016 
" clip-path="url(#pc60aeb0e7b)" style="fill: #d55d4c"/>
    <path d="M 57.382 117.016 
L 87.199 117.016 
L 87.199 146.833 
L 57.382 146.833 
L 57.382 117.016 
" clip-path="url(#pc60aeb0e7b)" style="fill: #f3a481"/>
    <path d="M 87.199 117.016 
L 117.016 117.016 
L 117.016 146.833 
L 87.199 146.833 
L 87.199 117.016 
" clip-path="url(#pc60aeb0e7b)" style="fill: #c2383a"/>
    <path d="M 117.016 117.016 
L 146.833 117.016 
L 146.833 146.833 
L 117.016 146.833 
L 117.016 117.016 
" clip-path="url(#pc60aeb0e7b)" style="fill: #053061"/>
    <path d="M 146.833 117.016 
L 176.65 117.016 
L 176.65 146.833 
L 146.833 146.833 
L 146.833 117.016 
" clip-path="url(#pc60aeb0e7b)" style="fill: #facab1"/>
    <path d="M 27.565 146.833 
L 57.382 146.833 
L 57.382 176.65 
L 27.565 176.65 
L 27.565 146.833 
" clip-path="url(#pc60aeb0e7b)" style="fill: #b72230"/>
    <path d="M 57.382 146.833 
L 87.199 146.833 
L 87.199 176.65 
L 57.382 176.65 
L 57.382 146.833 
" clip-path="url(#pc60aeb0e7b)" style="fill: #df765e"/>
    <path d="M 87.199 146.833 
L 117.016 146.833 
L 117.016 176.65 
L 87.199 176.65 
L 87.199 146.833 
" clip-path="url(#pc60aeb0e7b)" style="fill: #d4e6f1"/>
    <path d="M 117.016 146.833 
L 146.833 146.833 
L 146.833 176.65 
L 117.016 176.65 
L 117.016 146.833 
" clip-path="url(#pc60aeb0e7b)" style="fill: #facab1"/>
    <path d="M 146.833 146.833 
L 176.65 146.833 
L 176.65 176.65 
L 146.833 176.65 
L 146.833 146.833 
" clip-path="url(#pc60aeb0e7b)" style="fill: #053061"/>
   </g>
   <g id="matplotlib.axis_1">
    <g id="xtick_1">
     <g id="line2d_1">
      <defs>
       <path id="mea11c80391" d="M 0 0 
L 0 3.5 
" style="stroke: #000000; stroke-width: 0.8"/>
      </defs>
      <g>
       <use xlink:href="#mea11c80391" x="42.4735" y="176.65" style="stroke: #000000; stroke-width: 0.8"/>
      </g>
     </g>
     <g id="text_1">
      <!-- PIK3R3 -->
      <g transform="translate(45.232875 218.860938) rotate(-90) scale(0.1 -0.1)">
       <defs>
        <path id="DejaVuSans-50" d="M 1259 4147 
L 1259 2394 
L 2053 2394 
Q 2494 2394 2734 2622 
Q 2975 2850 2975 3272 
Q 2975 3691 2734 3919 
Q 2494 4147 2053 4147 
L 1259 4147 
z
M 628 4666 
L 2053 4666 
Q 2838 4666 3239 4311 
Q 3641 3956 3641 3272 
Q 3641 2581 3239 2228 
Q 2838 1875 2053 1875 
L 1259 1875 
L 1259 0 
L 628 0 
L 628 4666 
z
" transform="scale(0.015625)"/>
        <path id="DejaVuSans-49" d="M 628 4666 
L 1259 4666 
L 1259 0 
L 628 0 
L 628 4666 
z
" transform="scale(0.015625)"/>
        <path id="DejaVuSans-4b" d="M 628 4666 
L 1259 4666 
L 1259 2694 
L 3353 4666 
L 4166 4666 
L 1850 2491 
L 4331 0 
L 3500 0 
L 1259 2247 
L 1259 0 
L 628 0 
L 628 4666 
z
" transform="scale(0.015625)"/>
        <path id="DejaVuSans-33" d="M 2597 2516 
Q 3050 2419 3304 2112 
Q 3559 1806 3559 1356 
Q 3559 666 3084 287 
Q 2609 -91 1734 -91 
Q 1441 -91 1130 -33 
Q 819 25 488 141 
L 488 750 
Q 750 597 1062 519 
Q 1375 441 1716 441 
Q 2309 441 2620 675 
Q 2931 909 2931 1356 
Q 2931 1769 2642 2001 
Q 2353 2234 1838 2234 
L 1294 2234 
L 1294 2753 
L 1863 2753 
Q 2328 2753 2575 2939 
Q 2822 3125 2822 3475 
Q 2822 3834 2567 4026 
Q 2313 4219 1838 4219 
Q 1578 4219 1281 4162 
Q 984 4106 628 3988 
L 628 4550 
Q 988 4650 1302 4700 
Q 1616 4750 1894 4750 
Q 2613 4750 3031 4423 
Q 3450 4097 3450 3541 
Q 3450 3153 3228 2886 
Q 3006 2619 2597 2516 
z
" transform="scale(0.015625)"/>
        <path id="DejaVuSans-52" d="M 2841 2188 
Q 3044 2119 3236 1894 
Q 3428 1669 3622 1275 
L 4263 0 
L 3584 0 
L 2988 1197 
Q 2756 1666 2539 1819 
Q 2322 1972 1947 1972 
L 1259 1972 
L 1259 0 
L 628 0 
L 628 4666 
L 2053 4666 
Q 2853 4666 3247 4331 
Q 3641 3997 3641 3322 
Q 3641 2881 3436 2590 
Q 3231 2300 2841 2188 
z
M 1259 4147 
L 1259 2491 
L 2053 2491 
Q 2509 2491 2742 2702 
Q 2975 2913 2975 3322 
Q 2975 3731 2742 3939 
Q 2509 4147 2053 4147 
L 1259 4147 
z
" transform="scale(0.015625)"/>
       </defs>
       <use xlink:href="#DejaVuSans-50"/>
       <use xlink:href="#DejaVuSans-49" x="60.302734"/>
       <use xlink:href="#DejaVuSans-4b" x="89.794922"/>
       <use xlink:href="#DejaVuSans-33" x="155.371094"/>
       <use xlink:href="#DejaVuSans-52" x="218.994141"/>
       <use xlink:href="#DejaVuSans-33" x="288.476562"/>
      </g>
     </g>
    </g>
    <g id="xtick_2">
     <g id="line2d_2">
      <g>
       <use xlink:href="#mea11c80391" x="72.2905" y="176.65" style="stroke: #000000; stroke-width: 0.8"/>
      </g>
     </g>
     <g id="text_2">
      <!-- HOXC8 -->
      <g transform="translate(75.049875 217.875) rotate(-90) scale(0.1 -0.1)">
       <defs>
        <path id="DejaVuSans-48" d="M 628 4666 
L 1259 4666 
L 1259 2753 
L 3553 2753 
L 3553 4666 
L 4184 4666 
L 4184 0 
L 3553 0 
L 3553 2222 
L 1259 2222 
L 1259 0 
L 628 0 
L 628 4666 
z
" transform="scale(0.015625)"/>
        <path id="DejaVuSans-4f" d="M 2522 4238 
Q 1834 4238 1429 3725 
Q 1025 3213 1025 2328 
Q 1025 1447 1429 934 
Q 1834 422 2522 422 
Q 3209 422 3611 934 
Q 4013 1447 4013 2328 
Q 4013 3213 3611 3725 
Q 3209 4238 2522 4238 
z
M 2522 4750 
Q 3503 4750 4090 4092 
Q 4678 3434 4678 2328 
Q 4678 1225 4090 567 
Q 3503 -91 2522 -91 
Q 1538 -91 948 565 
Q 359 1222 359 2328 
Q 359 3434 948 4092 
Q 1538 4750 2522 4750 
z
" transform="scale(0.015625)"/>
        <path id="DejaVuSans-58" d="M 403 4666 
L 1081 4666 
L 2241 2931 
L 3406 4666 
L 4084 4666 
L 2584 2425 
L 4184 0 
L 3506 0 
L 2194 1984 
L 872 0 
L 191 0 
L 1856 2491 
L 403 4666 
z
" transform="scale(0.015625)"/>
        <path id="DejaVuSans-43" d="M 4122 4306 
L 4122 3641 
Q 3803 3938 3442 4084 
Q 3081 4231 2675 4231 
Q 1875 4231 1450 3742 
Q 1025 3253 1025 2328 
Q 1025 1406 1450 917 
Q 1875 428 2675 428 
Q 3081 428 3442 575 
Q 3803 722 4122 1019 
L 4122 359 
Q 3791 134 3420 21 
Q 3050 -91 2638 -91 
Q 1578 -91 968 557 
Q 359 1206 359 2328 
Q 359 3453 968 4101 
Q 1578 4750 2638 4750 
Q 3056 4750 3426 4639 
Q 3797 4528 4122 4306 
z
" transform="scale(0.015625)"/>
        <path id="DejaVuSans-38" d="M 2034 2216 
Q 1584 2216 1326 1975 
Q 1069 1734 1069 1313 
Q 1069 891 1326 650 
Q 1584 409 2034 409 
Q 2484 409 2743 651 
Q 3003 894 3003 1313 
Q 3003 1734 2745 1975 
Q 2488 2216 2034 2216 
z
M 1403 2484 
Q 997 2584 770 2862 
Q 544 3141 544 3541 
Q 544 4100 942 4425 
Q 1341 4750 2034 4750 
Q 2731 4750 3128 4425 
Q 3525 4100 3525 3541 
Q 3525 3141 3298 2862 
Q 3072 2584 2669 2484 
Q 3125 2378 3379 2068 
Q 3634 1759 3634 1313 
Q 3634 634 3220 271 
Q 2806 -91 2034 -91 
Q 1263 -91 848 271 
Q 434 634 434 1313 
Q 434 1759 690 2068 
Q 947 2378 1403 2484 
z
M 1172 3481 
Q 1172 3119 1398 2916 
Q 1625 2713 2034 2713 
Q 2441 2713 2670 2916 
Q 2900 3119 2900 3481 
Q 2900 3844 2670 4047 
Q 2441 4250 2034 4250 
Q 1625 4250 1398 4047 
Q 1172 3844 1172 3481 
z
" transform="scale(0.015625)"/>
       </defs>
       <use xlink:href="#DejaVuSans-48"/>
       <use xlink:href="#DejaVuSans-4f" x="75.195312"/>
       <use xlink:href="#DejaVuSans-58" x="147.53125"/>
       <use xlink:href="#DejaVuSans-43" x="208.787109"/>
       <use xlink:href="#DejaVuSans-38" x="278.611328"/>
      </g>
     </g>
    </g>
    <g id="xtick_3">
     <g id="line2d_3">
      <g>
       <use xlink:href="#mea11c80391" x="102.1075" y="176.65" style="stroke: #000000; stroke-width: 0.8"/>
      </g>
     </g>
     <g id="text_3">
      <!-- NRBP1 -->
      <g transform="translate(104.866875 217.332813) rotate(-90) scale(0.1 -0.1)">
       <defs>
        <path id="DejaVuSans-4e" d="M 628 4666 
L 1478 4666 
L 3547 763 
L 3547 4666 
L 4159 4666 
L 4159 0 
L 3309 0 
L 1241 3903 
L 1241 0 
L 628 0 
L 628 4666 
z
" transform="scale(0.015625)"/>
        <path id="DejaVuSans-42" d="M 1259 2228 
L 1259 519 
L 2272 519 
Q 2781 519 3026 730 
Q 3272 941 3272 1375 
Q 3272 1813 3026 2020 
Q 2781 2228 2272 2228 
L 1259 2228 
z
M 1259 4147 
L 1259 2741 
L 2194 2741 
Q 2656 2741 2882 2914 
Q 3109 3088 3109 3444 
Q 3109 3797 2882 3972 
Q 2656 4147 2194 4147 
L 1259 4147 
z
M 628 4666 
L 2241 4666 
Q 2963 4666 3353 4366 
Q 3744 4066 3744 3513 
Q 3744 3084 3544 2831 
Q 3344 2578 2956 2516 
Q 3422 2416 3680 2098 
Q 3938 1781 3938 1306 
Q 3938 681 3513 340 
Q 3088 0 2303 0 
L 628 0 
L 628 4666 
z
" transform="scale(0.015625)"/>
        <path id="DejaVuSans-31" d="M 794 531 
L 1825 531 
L 1825 4091 
L 703 3866 
L 703 4441 
L 1819 4666 
L 2450 4666 
L 2450 531 
L 3481 531 
L 3481 0 
L 794 0 
L 794 531 
z
" transform="scale(0.015625)"/>
       </defs>
       <use xlink:href="#DejaVuSans-4e"/>
       <use xlink:href="#DejaVuSans-52" x="74.804688"/>
       <use xlink:href="#DejaVuSans-42" x="144.287109"/>
       <use xlink:href="#DejaVuSans-50" x="212.890625"/>
       <use xlink:href="#DejaVuSans-31" x="273.193359"/>
      </g>
     </g>
    </g>
    <g id="xtick_4">
     <g id="line2d_4">
      <g>
       <use xlink:href="#mea11c80391" x="131.9245" y="176.65" style="stroke: #000000; stroke-width: 0.8"/>
      </g>
     </g>
     <g id="text_4">
      <!-- RAB40B -->
      <g transform="translate(134.683875 223.485938) rotate(-90) scale(0.1 -0.1)">
       <defs>
        <path id="DejaVuSans-41" d="M 2188 4044 
L 1331 1722 
L 3047 1722 
L 2188 4044 
z
M 1831 4666 
L 2547 4666 
L 4325 0 
L 3669 0 
L 3244 1197 
L 1141 1197 
L 716 0 
L 50 0 
L 1831 4666 
z
" transform="scale(0.015625)"/>
        <path id="DejaVuSans-34" d="M 2419 4116 
L 825 1625 
L 2419 1625 
L 2419 4116 
z
M 2253 4666 
L 3047 4666 
L 3047 1625 
L 3713 1625 
L 3713 1100 
L 3047 1100 
L 3047 0 
L 2419 0 
L 2419 1100 
L 313 1100 
L 313 1709 
L 2253 4666 
z
" transform="scale(0.015625)"/>
        <path id="DejaVuSans-30" d="M 2034 4250 
Q 1547 4250 1301 3770 
Q 1056 3291 1056 2328 
Q 1056 1369 1301 889 
Q 1547 409 2034 409 
Q 2525 409 2770 889 
Q 3016 1369 3016 2328 
Q 3016 3291 2770 3770 
Q 2525 4250 2034 4250 
z
M 2034 4750 
Q 2819 4750 3233 4129 
Q 3647 3509 3647 2328 
Q 3647 1150 3233 529 
Q 2819 -91 2034 -91 
Q 1250 -91 836 529 
Q 422 1150 422 2328 
Q 422 3509 836 4129 
Q 1250 4750 2034 4750 
z
" transform="scale(0.015625)"/>
       </defs>
       <use xlink:href="#DejaVuSans-52"/>
       <use xlink:href="#DejaVuSans-41" x="65.482422"/>
       <use xlink:href="#DejaVuSans-42" x="133.890625"/>
       <use xlink:href="#DejaVuSans-34" x="202.494141"/>
       <use xlink:href="#DejaVuSans-30" x="266.117188"/>
       <use xlink:href="#DejaVuSans-42" x="329.740234"/>
      </g>
     </g>
    </g>
    <g id="xtick_5">
     <g id="line2d_5">
      <g>
       <use xlink:href="#mea11c80391" x="161.7415" y="176.65" style="stroke: #000000; stroke-width: 0.8"/>
      </g>
     </g>
     <g id="text_5">
      <!-- ZFP36L1 -->
      <g transform="translate(164.500875 226.940625) rotate(-90) scale(0.1 -0.1)">
       <defs>
        <path id="DejaVuSans-5a" d="M 359 4666 
L 4025 4666 
L 4025 4184 
L 1075 531 
L 4097 531 
L 4097 0 
L 288 0 
L 288 481 
L 3238 4134 
L 359 4134 
L 359 4666 
z
" transform="scale(0.015625)"/>
        <path id="DejaVuSans-46" d="M 628 4666 
L 3309 4666 
L 3309 4134 
L 1259 4134 
L 1259 2759 
L 3109 2759 
L 3109 2228 
L 1259 2228 
L 1259 0 
L 628 0 
L 628 4666 
z
" transform="scale(0.015625)"/>
        <path id="DejaVuSans-36" d="M 2113 2584 
Q 1688 2584 1439 2293 
Q 1191 2003 1191 1497 
Q 1191 994 1439 701 
Q 1688 409 2113 409 
Q 2538 409 2786 701 
Q 3034 994 3034 1497 
Q 3034 2003 2786 2293 
Q 2538 2584 2113 2584 
z
M 3366 4563 
L 3366 3988 
Q 3128 4100 2886 4159 
Q 2644 4219 2406 4219 
Q 1781 4219 1451 3797 
Q 1122 3375 1075 2522 
Q 1259 2794 1537 2939 
Q 1816 3084 2150 3084 
Q 2853 3084 3261 2657 
Q 3669 2231 3669 1497 
Q 3669 778 3244 343 
Q 2819 -91 2113 -91 
Q 1303 -91 875 529 
Q 447 1150 447 2328 
Q 447 3434 972 4092 
Q 1497 4750 2381 4750 
Q 2619 4750 2861 4703 
Q 3103 4656 3366 4563 
z
" transform="scale(0.015625)"/>
        <path id="DejaVuSans-4c" d="M 628 4666 
L 1259 4666 
L 1259 531 
L 3531 531 
L 3531 0 
L 628 0 
L 628 4666 
z
" transform="scale(0.015625)"/>
       </defs>
       <use xlink:href="#DejaVuSans-5a"/>
       <use xlink:href="#DejaVuSans-46" x="68.505859"/>
       <use xlink:href="#DejaVuSans-50" x="126.025391"/>
       <use xlink:href="#DejaVuSans-33" x="186.328125"/>
       <use xlink:href="#DejaVuSans-36" x="249.951172"/>
       <use xlink:href="#DejaVuSans-4c" x="313.574219"/>
       <use xlink:href="#DejaVuSans-31" x="369.287109"/>
      </g>
     </g>
    </g>
   </g>
   <g id="matplotlib.axis_2">
    <g id="ytick_1">
     <g id="line2d_6">
      <defs>
       <path id="me543a4bb83" d="M 0 0 
L 3.5 0 
" style="stroke: #000000; stroke-width: 0.8"/>
      </defs>
      <g>
       <use xlink:href="#me543a4bb83" x="176.65" y="42.4735" style="stroke: #000000; stroke-width: 0.8"/>
      </g>
     </g>
     <g id="text_6">
      <!-- PIK3R3 -->
      <g transform="translate(183.65 46.272719) scale(0.1 -0.1)">
       <use xlink:href="#DejaVuSans-50"/>
       <use xlink:href="#DejaVuSans-49" x="60.302734"/>
       <use xlink:href="#DejaVuSans-4b" x="89.794922"/>
       <use xlink:href="#DejaVuSans-33" x="155.371094"/>
       <use xlink:href="#DejaVuSans-52" x="218.994141"/>
       <use xlink:href="#DejaVuSans-33" x="288.476562"/>
      </g>
     </g>
    </g>
    <g id="ytick_2">
     <g id="line2d_7">
      <g>
       <use xlink:href="#me543a4bb83" x="176.65" y="72.2905" style="stroke: #000000; stroke-width: 0.8"/>
      </g>
     </g>
     <g id="text_7">
      <!-- HOXC8 -->
      <g transform="translate(183.65 76.089719) scale(0.1 -0.1)">
       <use xlink:href="#DejaVuSans-48"/>
       <use xlink:href="#DejaVuSans-4f" x="75.195312"/>
       <use xlink:href="#DejaVuSans-58" x="147.53125"/>
       <use xlink:href="#DejaVuSans-43" x="208.787109"/>
       <use xlink:href="#DejaVuSans-38" x="278.611328"/>
      </g>
     </g>
    </g>
    <g id="ytick_3">
     <g id="line2d_8">
      <g>
       <use xlink:href="#me543a4bb83" x="176.65" y="102.1075" style="stroke: #000000; stroke-width: 0.8"/>
      </g>
     </g>
     <g id="text_8">
      <!-- NRBP1 -->
      <g transform="translate(183.65 105.906719) scale(0.1 -0.1)">
       <use xlink:href="#DejaVuSans-4e"/>
       <use xlink:href="#DejaVuSans-52" x="74.804688"/>
       <use xlink:href="#DejaVuSans-42" x="144.287109"/>
       <use xlink:href="#DejaVuSans-50" x="212.890625"/>
       <use xlink:href="#DejaVuSans-31" x="273.193359"/>
      </g>
     </g>
    </g>
    <g id="ytick_4">
     <g id="line2d_9">
      <g>
       <use xlink:href="#me543a4bb83" x="176.65" y="131.9245" style="stroke: #000000; stroke-width: 0.8"/>
      </g>
     </g>
     <g id="text_9">
      <!-- RAB40B -->
      <g transform="translate(183.65 135.723719) scale(0.1 -0.1)">
       <use xlink:href="#DejaVuSans-52"/>
       <use xlink:href="#DejaVuSans-41" x="65.482422"/>
       <use xlink:href="#DejaVuSans-42" x="133.890625"/>
       <use xlink:href="#DejaVuSans-34" x="202.494141"/>
       <use xlink:href="#DejaVuSans-30" x="266.117188"/>
       <use xlink:href="#DejaVuSans-42" x="329.740234"/>
      </g>
     </g>
    </g>
    <g id="ytick_5">
     <g id="line2d_10">
      <g>
       <use xlink:href="#me543a4bb83" x="176.65" y="161.7415" style="stroke: #000000; stroke-width: 0.8"/>
      </g>
     </g>
     <g id="text_10">
      <!-- ZFP36L1 -->
      <g transform="translate(183.65 165.540719) scale(0.1 -0.1)">
       <use xlink:href="#DejaVuSans-5a"/>
       <use xlink:href="#DejaVuSans-46" x="68.505859"/>
       <use xlink:href="#DejaVuSans-50" x="126.025391"/>
       <use xlink:href="#DejaVuSans-33" x="186.328125"/>
       <use xlink:href="#DejaVuSans-36" x="249.951172"/>
       <use xlink:href="#DejaVuSans-4c" x="313.574219"/>
       <use xlink:href="#DejaVuSans-31" x="369.287109"/>
      </g>
     </g>
    </g>
   </g>
   <g id="text_11">
    <!-- 1.0 -->
    <g style="fill: #ffffff" transform="translate(36.11225 44.681) scale(0.08 -0.08)">
     <defs>
      <path id="DejaVuSans-2e" d="M 684 794 
L 1344 794 
L 1344 0 
L 684 0 
L 684 794 
z
" transform="scale(0.015625)"/>
     </defs>
     <use xlink:href="#DejaVuSans-31"/>
     <use xlink:href="#DejaVuSans-2e" x="63.623047"/>
     <use xlink:href="#DejaVuSans-30" x="95.410156"/>
    </g>
   </g>
   <g id="text_12">
    <!-- 0.303 -->
    <g transform="translate(60.83925 44.681) scale(0.08 -0.08)">
     <use xlink:href="#DejaVuSans-30"/>
     <use xlink:href="#DejaVuSans-2e" x="63.623047"/>
     <use xlink:href="#DejaVuSans-33" x="95.410156"/>
     <use xlink:href="#DejaVuSans-30" x="159.033203"/>
     <use xlink:href="#DejaVuSans-33" x="222.65625"/>
    </g>
   </g>
   <g id="text_13">
    <!-- 0.357 -->
    <g transform="translate(90.65625 44.681) scale(0.08 -0.08)">
     <defs>
      <path id="DejaVuSans-35" d="M 691 4666 
L 3169 4666 
L 3169 4134 
L 1269 4134 
L 1269 2991 
Q 1406 3038 1543 3061 
Q 1681 3084 1819 3084 
Q 2600 3084 3056 2656 
Q 3513 2228 3513 1497 
Q 3513 744 3044 326 
Q 2575 -91 1722 -91 
Q 1428 -91 1123 -41 
Q 819 9 494 109 
L 494 744 
Q 775 591 1075 516 
Q 1375 441 1709 441 
Q 2250 441 2565 725 
Q 2881 1009 2881 1497 
Q 2881 1984 2565 2268 
Q 2250 2553 1709 2553 
Q 1456 2553 1204 2497 
Q 953 2441 691 2322 
L 691 4666 
z
" transform="scale(0.015625)"/>
      <path id="DejaVuSans-37" d="M 525 4666 
L 3525 4666 
L 3525 4397 
L 1831 0 
L 1172 0 
L 2766 4134 
L 525 4134 
L 525 4666 
z
" transform="scale(0.015625)"/>
     </defs>
     <use xlink:href="#DejaVuSans-30"/>
     <use xlink:href="#DejaVuSans-2e" x="63.623047"/>
     <use xlink:href="#DejaVuSans-33" x="95.410156"/>
     <use xlink:href="#DejaVuSans-35" x="159.033203"/>
     <use xlink:href="#DejaVuSans-37" x="222.65625"/>
    </g>
   </g>
   <g id="text_14">
    <!-- 0.295 -->
    <g style="fill: #ffffff" transform="translate(120.47325 44.681) scale(0.08 -0.08)">
     <defs>
      <path id="DejaVuSans-32" d="M 1228 531 
L 3431 531 
L 3431 0 
L 469 0 
L 469 531 
Q 828 903 1448 1529 
Q 2069 2156 2228 2338 
Q 2531 2678 2651 2914 
Q 2772 3150 2772 3378 
Q 2772 3750 2511 3984 
Q 2250 4219 1831 4219 
Q 1534 4219 1204 4116 
Q 875 4013 500 3803 
L 500 4441 
Q 881 4594 1212 4672 
Q 1544 4750 1819 4750 
Q 2544 4750 2975 4387 
Q 3406 4025 3406 3419 
Q 3406 3131 3298 2873 
Q 3191 2616 2906 2266 
Q 2828 2175 2409 1742 
Q 1991 1309 1228 531 
z
" transform="scale(0.015625)"/>
      <path id="DejaVuSans-39" d="M 703 97 
L 703 672 
Q 941 559 1184 500 
Q 1428 441 1663 441 
Q 2288 441 2617 861 
Q 2947 1281 2994 2138 
Q 2813 1869 2534 1725 
Q 2256 1581 1919 1581 
Q 1219 1581 811 2004 
Q 403 2428 403 3163 
Q 403 3881 828 4315 
Q 1253 4750 1959 4750 
Q 2769 4750 3195 4129 
Q 3622 3509 3622 2328 
Q 3622 1225 3098 567 
Q 2575 -91 1691 -91 
Q 1453 -91 1209 -44 
Q 966 3 703 97 
z
M 1959 2075 
Q 2384 2075 2632 2365 
Q 2881 2656 2881 3163 
Q 2881 3666 2632 3958 
Q 2384 4250 1959 4250 
Q 1534 4250 1286 3958 
Q 1038 3666 1038 3163 
Q 1038 2656 1286 2365 
Q 1534 2075 1959 2075 
z
" transform="scale(0.015625)"/>
     </defs>
     <use xlink:href="#DejaVuSans-30"/>
     <use xlink:href="#DejaVuSans-2e" x="63.623047"/>
     <use xlink:href="#DejaVuSans-32" x="95.410156"/>
     <use xlink:href="#DejaVuSans-39" x="159.033203"/>
     <use xlink:href="#DejaVuSans-35" x="222.65625"/>
    </g>
   </g>
   <g id="text_15">
    <!-- 0.278 -->
    <g style="fill: #ffffff" transform="translate(150.29025 44.681) scale(0.08 -0.08)">
     <use xlink:href="#DejaVuSans-30"/>
     <use xlink:href="#DejaVuSans-2e" x="63.623047"/>
     <use xlink:href="#DejaVuSans-32" x="95.410156"/>
     <use xlink:href="#DejaVuSans-37" x="159.033203"/>
     <use xlink:href="#DejaVuSans-38" x="222.65625"/>
    </g>
   </g>
   <g id="text_16">
    <!-- 0.303 -->
    <g transform="translate(31.02225 74.498) scale(0.08 -0.08)">
     <use xlink:href="#DejaVuSans-30"/>
     <use xlink:href="#DejaVuSans-2e" x="63.623047"/>
     <use xlink:href="#DejaVuSans-33" x="95.410156"/>
     <use xlink:href="#DejaVuSans-30" x="159.033203"/>
     <use xlink:href="#DejaVuSans-33" x="222.65625"/>
    </g>
   </g>
   <g id="text_17">
    <!-- 1.0 -->
    <g style="fill: #ffffff" transform="translate(65.92925 74.498) scale(0.08 -0.08)">
     <use xlink:href="#DejaVuSans-31"/>
     <use xlink:href="#DejaVuSans-2e" x="63.623047"/>
     <use xlink:href="#DejaVuSans-30" x="95.410156"/>
    </g>
   </g>
   <g id="text_18">
    <!-- 0.492 -->
    <g transform="translate(90.65625 74.498) scale(0.08 -0.08)">
     <use xlink:href="#DejaVuSans-30"/>
     <use xlink:href="#DejaVuSans-2e" x="63.623047"/>
     <use xlink:href="#DejaVuSans-34" x="95.410156"/>
     <use xlink:href="#DejaVuSans-39" x="159.033203"/>
     <use xlink:href="#DejaVuSans-32" x="222.65625"/>
    </g>
   </g>
   <g id="text_19">
    <!-- 0.165 -->
    <g transform="translate(120.47325 74.498) scale(0.08 -0.08)">
     <use xlink:href="#DejaVuSans-30"/>
     <use xlink:href="#DejaVuSans-2e" x="63.623047"/>
     <use xlink:href="#DejaVuSans-31" x="95.410156"/>
     <use xlink:href="#DejaVuSans-36" x="159.033203"/>
     <use xlink:href="#DejaVuSans-35" x="222.65625"/>
    </g>
   </g>
   <g id="text_20">
    <!-- 0.349 -->
    <g style="fill: #ffffff" transform="translate(150.29025 74.498) scale(0.08 -0.08)">
     <use xlink:href="#DejaVuSans-30"/>
     <use xlink:href="#DejaVuSans-2e" x="63.623047"/>
     <use xlink:href="#DejaVuSans-33" x="95.410156"/>
     <use xlink:href="#DejaVuSans-34" x="159.033203"/>
     <use xlink:href="#DejaVuSans-39" x="222.65625"/>
    </g>
   </g>
   <g id="text_21">
    <!-- 0.357 -->
    <g transform="translate(31.02225 104.315) scale(0.08 -0.08)">
     <use xlink:href="#DejaVuSans-30"/>
     <use xlink:href="#DejaVuSans-2e" x="63.623047"/>
     <use xlink:href="#DejaVuSans-33" x="95.410156"/>
     <use xlink:href="#DejaVuSans-35" x="159.033203"/>
     <use xlink:href="#DejaVuSans-37" x="222.65625"/>
    </g>
   </g>
   <g id="text_22">
    <!-- 0.492 -->
    <g transform="translate(60.83925 104.315) scale(0.08 -0.08)">
     <use xlink:href="#DejaVuSans-30"/>
     <use xlink:href="#DejaVuSans-2e" x="63.623047"/>
     <use xlink:href="#DejaVuSans-34" x="95.410156"/>
     <use xlink:href="#DejaVuSans-39" x="159.033203"/>
     <use xlink:href="#DejaVuSans-32" x="222.65625"/>
    </g>
   </g>
   <g id="text_23">
    <!-- 1.0 -->
    <g style="fill: #ffffff" transform="translate(95.74625 104.315) scale(0.08 -0.08)">
     <use xlink:href="#DejaVuSans-31"/>
     <use xlink:href="#DejaVuSans-2e" x="63.623047"/>
     <use xlink:href="#DejaVuSans-30" x="95.410156"/>
    </g>
   </g>
   <g id="text_24">
    <!-- 0.167 -->
    <g style="fill: #ffffff" transform="translate(120.47325 104.315) scale(0.08 -0.08)">
     <use xlink:href="#DejaVuSans-30"/>
     <use xlink:href="#DejaVuSans-2e" x="63.623047"/>
     <use xlink:href="#DejaVuSans-31" x="95.410156"/>
     <use xlink:href="#DejaVuSans-36" x="159.033203"/>
     <use xlink:href="#DejaVuSans-37" x="222.65625"/>
    </g>
   </g>
   <g id="text_25">
    <!-- 0.172 -->
    <g transform="translate(150.29025 104.315) scale(0.08 -0.08)">
     <use xlink:href="#DejaVuSans-30"/>
     <use xlink:href="#DejaVuSans-2e" x="63.623047"/>
     <use xlink:href="#DejaVuSans-31" x="95.410156"/>
     <use xlink:href="#DejaVuSans-37" x="159.033203"/>
     <use xlink:href="#DejaVuSans-32" x="222.65625"/>
    </g>
   </g>
   <g id="text_26">
    <!-- 0.295 -->
    <g style="fill: #ffffff" transform="translate(31.02225 134.132) scale(0.08 -0.08)">
     <use xlink:href="#DejaVuSans-30"/>
     <use xlink:href="#DejaVuSans-2e" x="63.623047"/>
     <use xlink:href="#DejaVuSans-32" x="95.410156"/>
     <use xlink:href="#DejaVuSans-39" x="159.033203"/>
     <use xlink:href="#DejaVuSans-35" x="222.65625"/>
    </g>
   </g>
   <g id="text_27">
    <!-- 0.165 -->
    <g transform="translate(60.83925 134.132) scale(0.08 -0.08)">
     <use xlink:href="#DejaVuSans-30"/>
     <use xlink:href="#DejaVuSans-2e" x="63.623047"/>
     <use xlink:href="#DejaVuSans-31" x="95.410156"/>
     <use xlink:href="#DejaVuSans-36" x="159.033203"/>
     <use xlink:href="#DejaVuSans-35" x="222.65625"/>
    </g>
   </g>
   <g id="text_28">
    <!-- 0.167 -->
    <g style="fill: #ffffff" transform="translate(90.65625 134.132) scale(0.08 -0.08)">
     <use xlink:href="#DejaVuSans-30"/>
     <use xlink:href="#DejaVuSans-2e" x="63.623047"/>
     <use xlink:href="#DejaVuSans-31" x="95.410156"/>
     <use xlink:href="#DejaVuSans-36" x="159.033203"/>
     <use xlink:href="#DejaVuSans-37" x="222.65625"/>
    </g>
   </g>
   <g id="text_29">
    <!-- 1.0 -->
    <g style="fill: #ffffff" transform="translate(125.56325 134.132) scale(0.08 -0.08)">
     <use xlink:href="#DejaVuSans-31"/>
     <use xlink:href="#DejaVuSans-2e" x="63.623047"/>
     <use xlink:href="#DejaVuSans-30" x="95.410156"/>
    </g>
   </g>
   <g id="text_30">
    <!-- 0.116 -->
    <g transform="translate(150.29025 134.132) scale(0.08 -0.08)">
     <use xlink:href="#DejaVuSans-30"/>
     <use xlink:href="#DejaVuSans-2e" x="63.623047"/>
     <use xlink:href="#DejaVuSans-31" x="95.410156"/>
     <use xlink:href="#DejaVuSans-31" x="159.033203"/>
     <use xlink:href="#DejaVuSans-36" x="222.65625"/>
    </g>
   </g>
   <g id="text_31">
    <!-- 0.278 -->
    <g style="fill: #ffffff" transform="translate(31.02225 163.949) scale(0.08 -0.08)">
     <use xlink:href="#DejaVuSans-30"/>
     <use xlink:href="#DejaVuSans-2e" x="63.623047"/>
     <use xlink:href="#DejaVuSans-32" x="95.410156"/>
     <use xlink:href="#DejaVuSans-37" x="159.033203"/>
     <use xlink:href="#DejaVuSans-38" x="222.65625"/>
    </g>
   </g>
   <g id="text_32">
    <!-- 0.349 -->
    <g style="fill: #ffffff" transform="translate(60.83925 163.949) scale(0.08 -0.08)">
     <use xlink:href="#DejaVuSans-30"/>
     <use xlink:href="#DejaVuSans-2e" x="63.623047"/>
     <use xlink:href="#DejaVuSans-33" x="95.410156"/>
     <use xlink:href="#DejaVuSans-34" x="159.033203"/>
     <use xlink:href="#DejaVuSans-39" x="222.65625"/>
    </g>
   </g>
   <g id="text_33">
    <!-- 0.172 -->
    <g transform="translate(90.65625 163.949) scale(0.08 -0.08)">
     <use xlink:href="#DejaVuSans-30"/>
     <use xlink:href="#DejaVuSans-2e" x="63.623047"/>
     <use xlink:href="#DejaVuSans-31" x="95.410156"/>
     <use xlink:href="#DejaVuSans-37" x="159.033203"/>
     <use xlink:href="#DejaVuSans-32" x="222.65625"/>
    </g>
   </g>
   <g id="text_34">
    <!-- 0.116 -->
    <g transform="translate(120.47325 163.949) scale(0.08 -0.08)">
     <use xlink:href="#DejaVuSans-30"/>
     <use xlink:href="#DejaVuSans-2e" x="63.623047"/>
     <use xlink:href="#DejaVuSans-31" x="95.410156"/>
     <use xlink:href="#DejaVuSans-31" x="159.033203"/>
     <use xlink:href="#DejaVuSans-36" x="222.65625"/>
    </g>
   </g>
   <g id="text_35">
    <!-- 1.0 -->
    <g style="fill: #ffffff" transform="translate(155.38025 163.949) scale(0.08 -0.08)">
     <use xlink:href="#DejaVuSans-31"/>
     <use xlink:href="#DejaVuSans-2e" x="63.623047"/>
     <use xlink:href="#DejaVuSans-30" x="95.410156"/>
    </g>
   </g>
  </g>
 </g>
 <defs>
  <clipPath id="p9683c7c97f">
   <rect x="10.8" y="27.565" width="16.565" height="149.085"/>
  </clipPath>
  <clipPath id="p952a337381">
   <rect x="27.565" y="10.8" width="149.085" height="16.565"/>
  </clipPath>
  <clipPath id="pc60aeb0e7b">
   <rect x="27.565" y="27.565" width="149.085" height="149.085"/>
  </clipPath>
 </defs>
</svg>
