<?xml version="1.0" encoding="utf-8" standalone="no"?>
<!DOCTYPE svg PUBLIC "-//W3C//DTD SVG 1.1//EN"
  "http://www.w3.org/Graphics/SVG/1.1/DTD/svg11.dtd">
<svg xmlns:xlink="http://www.w3.org/1999/xlink" width="216pt" height="216pt" viewBox="0 0 216 216" xmlns="http://www.w3.org/2000/svg" version="1.1">
 <metadata>
  <rdf:RDF xmlns:dc="http://purl.org/dc/elements/1.1/" xmlns:cc="http://creativecommons.org/ns#" xmlns:rdf="http://www.w3.org/1999/02/22-rdf-syntax-ns#">
   <cc:Work>
    <dc:type rdf:resource="http://purl.org/dc/dcmitype/StillImage"/>
    <dc:date>2024-11-13T14:08:18.994106</dc:date>
    <dc:format>image/svg+xml</dc:format>
    <dc:creator>
     <cc:Agent>
      <dc:title>Matplotlib v3.6.2, https://matplotlib.org/</dc:title>
     </cc:Agent>
    </dc:creator>
   </cc:Work>
  </rdf:RDF>
 </metadata>
 <defs>
  <style type="text/css">*{stroke-linejoin: round; stroke-linecap: butt}</style>
 </defs>
 <g id="figure_1">
  <g id="patch_1">
   <path d="M 0 216 
L 216 216 
L 216 0 
L 0 0 
z
" style="fill: #ffffff"/>
  </g>
  <g id="axes_1">
   <g id="LineCollection_1">
    <path d="M 27.092 74.549 
L 11.57581 74.549 
L 11.57581 147.863 
L 27.092 147.863 
" clip-path="url(#pb6e401321f)" style="fill: none; stroke: #333333; stroke-width: 0.5"/>
   </g>
  </g>
  <g id="axes_2">
   <g id="LineCollection_2">
    <path d="M 74.549 27.092 
L 74.549 11.57581 
L 147.863 11.57581 
L 147.863 27.092 
" clip-path="url(#p7776718f67)" style="fill: none; stroke: #333333; stroke-width: 0.5"/>
   </g>
  </g>
  <g id="axes_3">
   <g id="patch_2">
    <path d="M 37.892 184.52 
L 184.52 184.52 
L 184.52 37.892 
L 37.892 37.892 
z
" style="fill: #ffffff"/>
   </g>
   <g id="QuadMesh_1">
    <path d="M 37.892 37.892 
L 111.206 37.892 
L 111.206 111.206 
L 37.892 111.206 
L 37.892 37.892 
" clip-path="url(#pee5352db96)" style="fill: #053061"/>
    <path d="M 111.206 37.892 
L 184.52 37.892 
L 184.52 111.206 
L 111.206 111.206 
L 111.206 37.892 
" clip-path="url(#pee5352db96)" style="fill: #124984"/>
    <path d="M 37.892 111.206 
L 111.206 111.206 
L 111.206 184.52 
L 37.892 184.52 
L 37.892 111.206 
" clip-path="url(#pee5352db96)" style="fill: #124984"/>
    <path d="M 111.206 111.206 
L 184.52 111.206 
L 184.52 184.52 
L 111.206 184.52 
L 111.206 111.206 
" clip-path="url(#pee5352db96)" style="fill: #053061"/>
   </g>
   <g id="QuadMesh_2">
    <path d="M 37.892 37.892 
L 111.206 37.892 
L 111.206 111.206 
L 37.892 111.206 
L 37.892 37.892 
" clip-path="url(#pee5352db96)" style="fill: none"/>
    <path d="M 111.206 37.892 
L 184.52 37.892 
L 184.52 111.206 
L 111.206 111.206 
L 111.206 37.892 
" clip-path="url(#pee5352db96)" style="fill: #124984"/>
    <path d="M 37.892 111.206 
L 111.206 111.206 
L 111.206 184.52 
L 37.892 184.52 
L 37.892 111.206 
" clip-path="url(#pee5352db96)" style="fill: none"/>
    <path d="M 111.206 111.206 
L 184.52 111.206 
L 184.52 184.52 
L 111.206 184.52 
L 111.206 111.206 
" clip-path="url(#pee5352db96)" style="fill: none"/>
   </g>
   <g id="QuadMesh_3">
    <path d="M 37.892 37.892 
L 111.206 37.892 
L 111.206 111.206 
L 37.892 111.206 
L 37.892 37.892 
" clip-path="url(#pee5352db96)" style="fill: none"/>
    <path d="M 111.206 37.892 
L 184.52 37.892 
L 184.52 111.206 
L 111.206 111.206 
L 111.206 37.892 
" clip-path="url(#pee5352db96)" style="fill: none"/>
    <path d="M 37.892 111.206 
L 111.206 111.206 
L 111.206 184.52 
L 37.892 184.52 
L 37.892 111.206 
" clip-path="url(#pee5352db96)" style="fill: #ffe81a"/>
    <path d="M 111.206 111.206 
L 184.52 111.206 
L 184.52 184.52 
L 111.206 184.52 
L 111.206 111.206 
" clip-path="url(#pee5352db96)" style="fill: none"/>
   </g>
   <g id="QuadMesh_4">
    <path d="M 37.892 37.892 
L 111.206 37.892 
L 111.206 111.206 
L 37.892 111.206 
L 37.892 37.892 
" clip-path="url(#pee5352db96)"/>
    <path d="M 111.206 37.892 
L 184.52 37.892 
L 184.52 111.206 
L 111.206 111.206 
L 111.206 37.892 
" clip-path="url(#pee5352db96)" style="fill: none"/>
    <path d="M 37.892 111.206 
L 111.206 111.206 
L 111.206 184.52 
L 37.892 184.52 
L 37.892 111.206 
" clip-path="url(#pee5352db96)" style="fill: none"/>
    <path d="M 111.206 111.206 
L 184.52 111.206 
L 184.52 184.52 
L 111.206 184.52 
L 111.206 111.206 
" clip-path="url(#pee5352db96)"/>
   </g>
   <g id="matplotlib.axis_1">
    <g id="xtick_1">
     <g id="line2d_1">
      <defs>
       <path id="m8e0c674688" d="M 0 0 
L 0 3.5 
" style="stroke: #000000; stroke-width: 0.8"/>
      </defs>
      <g>
       <use xlink:href="#m8e0c674688" x="74.549" y="184.52" style="stroke: #000000; stroke-width: 0.8"/>
      </g>
     </g>
     <g id="text_1">
      <!-- Gene 1 -->
      <g transform="translate(49.396031 202.157813) scale(0.14 -0.14)">
       <defs>
        <path id="DejaVuSans-47" d="M 3809 666 
L 3809 1919 
L 2778 1919 
L 2778 2438 
L 4434 2438 
L 4434 434 
Q 4069 175 3628 42 
Q 3188 -91 2688 -91 
Q 1594 -91 976 548 
Q 359 1188 359 2328 
Q 359 3472 976 4111 
Q 1594 4750 2688 4750 
Q 3144 4750 3555 4637 
Q 3966 4525 4313 4306 
L 4313 3634 
Q 3963 3931 3569 4081 
Q 3175 4231 2741 4231 
Q 1884 4231 1454 3753 
Q 1025 3275 1025 2328 
Q 1025 1384 1454 906 
Q 1884 428 2741 428 
Q 3075 428 3337 486 
Q 3600 544 3809 666 
z
" transform="scale(0.015625)"/>
        <path id="DejaVuSans-65" d="M 3597 1894 
L 3597 1613 
L 953 1613 
Q 991 1019 1311 708 
Q 1631 397 2203 397 
Q 2534 397 2845 478 
Q 3156 559 3463 722 
L 3463 178 
Q 3153 47 2828 -22 
Q 2503 -91 2169 -91 
Q 1331 -91 842 396 
Q 353 884 353 1716 
Q 353 2575 817 3079 
Q 1281 3584 2069 3584 
Q 2775 3584 3186 3129 
Q 3597 2675 3597 1894 
z
M 3022 2063 
Q 3016 2534 2758 2815 
Q 2500 3097 2075 3097 
Q 1594 3097 1305 2825 
Q 1016 2553 972 2059 
L 3022 2063 
z
" transform="scale(0.015625)"/>
        <path id="DejaVuSans-6e" d="M 3513 2113 
L 3513 0 
L 2938 0 
L 2938 2094 
Q 2938 2591 2744 2837 
Q 2550 3084 2163 3084 
Q 1697 3084 1428 2787 
Q 1159 2491 1159 1978 
L 1159 0 
L 581 0 
L 581 3500 
L 1159 3500 
L 1159 2956 
Q 1366 3272 1645 3428 
Q 1925 3584 2291 3584 
Q 2894 3584 3203 3211 
Q 3513 2838 3513 2113 
z
" transform="scale(0.015625)"/>
        <path id="DejaVuSans-20" transform="scale(0.015625)"/>
        <path id="DejaVuSans-31" d="M 794 531 
L 1825 531 
L 1825 4091 
L 703 3866 
L 703 4441 
L 1819 4666 
L 2450 4666 
L 2450 531 
L 3481 531 
L 3481 0 
L 794 0 
L 794 531 
z
" transform="scale(0.015625)"/>
       </defs>
       <use xlink:href="#DejaVuSans-47"/>
       <use xlink:href="#DejaVuSans-65" x="77.490234"/>
       <use xlink:href="#DejaVuSans-6e" x="139.013672"/>
       <use xlink:href="#DejaVuSans-65" x="202.392578"/>
       <use xlink:href="#DejaVuSans-20" x="263.916016"/>
       <use xlink:href="#DejaVuSans-31" x="295.703125"/>
      </g>
     </g>
    </g>
    <g id="xtick_2">
     <g id="line2d_2">
      <g>
       <use xlink:href="#m8e0c674688" x="147.863" y="184.52" style="stroke: #000000; stroke-width: 0.8"/>
      </g>
     </g>
     <g id="text_2">
      <!-- Gene 2 -->
      <g transform="translate(122.710031 202.157813) scale(0.14 -0.14)">
       <defs>
        <path id="DejaVuSans-32" d="M 1228 531 
L 3431 531 
L 3431 0 
L 469 0 
L 469 531 
Q 828 903 1448 1529 
Q 2069 2156 2228 2338 
Q 2531 2678 2651 2914 
Q 2772 3150 2772 3378 
Q 2772 3750 2511 3984 
Q 2250 4219 1831 4219 
Q 1534 4219 1204 4116 
Q 875 4013 500 3803 
L 500 4441 
Q 881 4594 1212 4672 
Q 1544 4750 1819 4750 
Q 2544 4750 2975 4387 
Q 3406 4025 3406 3419 
Q 3406 3131 3298 2873 
Q 3191 2616 2906 2266 
Q 2828 2175 2409 1742 
Q 1991 1309 1228 531 
z
" transform="scale(0.015625)"/>
       </defs>
       <use xlink:href="#DejaVuSans-47"/>
       <use xlink:href="#DejaVuSans-65" x="77.490234"/>
       <use xlink:href="#DejaVuSans-6e" x="139.013672"/>
       <use xlink:href="#DejaVuSans-65" x="202.392578"/>
       <use xlink:href="#DejaVuSans-20" x="263.916016"/>
       <use xlink:href="#DejaVuSans-32" x="295.703125"/>
      </g>
     </g>
    </g>
   </g>
   <g id="matplotlib.axis_2">
    <g id="ytick_1">
     <g id="line2d_3">
      <defs>
       <path id="m5c748b9fd9" d="M 0 0 
L 3.5 0 
" style="stroke: #000000; stroke-width: 0.8"/>
      </defs>
      <g>
       <use xlink:href="#m5c748b9fd9" x="184.52" y="74.549" style="stroke: #000000; stroke-width: 0.8"/>
      </g>
     </g>
     <g id="text_3">
      <!-- Gene 1 -->
      <g transform="translate(202.157812 99.701969) rotate(-90) scale(0.14 -0.14)">
       <use xlink:href="#DejaVuSans-47"/>
       <use xlink:href="#DejaVuSans-65" x="77.490234"/>
       <use xlink:href="#DejaVuSans-6e" x="139.013672"/>
       <use xlink:href="#DejaVuSans-65" x="202.392578"/>
       <use xlink:href="#DejaVuSans-20" x="263.916016"/>
       <use xlink:href="#DejaVuSans-31" x="295.703125"/>
      </g>
     </g>
    </g>
    <g id="ytick_2">
     <g id="line2d_4">
      <g>
       <use xlink:href="#m5c748b9fd9" x="184.52" y="147.863" style="stroke: #000000; stroke-width: 0.8"/>
      </g>
     </g>
     <g id="text_4">
      <!-- Gene 2 -->
      <g transform="translate(202.157812 173.015969) rotate(-90) scale(0.14 -0.14)">
       <use xlink:href="#DejaVuSans-47"/>
       <use xlink:href="#DejaVuSans-65" x="77.490234"/>
       <use xlink:href="#DejaVuSans-6e" x="139.013672"/>
       <use xlink:href="#DejaVuSans-65" x="202.392578"/>
       <use xlink:href="#DejaVuSans-20" x="263.916016"/>
       <use xlink:href="#DejaVuSans-32" x="295.703125"/>
      </g>
     </g>
    </g>
   </g>
   <g id="text_5">
    <!-- 0.95 -->
    <g style="fill: #ffffff" transform="translate(125.597375 80.06775) scale(0.2 -0.2)">
     <defs>
      <path id="DejaVuSans-30" d="M 2034 4250 
Q 1547 4250 1301 3770 
Q 1056 3291 1056 2328 
Q 1056 1369 1301 889 
Q 1547 409 2034 409 
Q 2525 409 2770 889 
Q 3016 1369 3016 2328 
Q 3016 3291 2770 3770 
Q 2525 4250 2034 4250 
z
M 2034 4750 
Q 2819 4750 3233 4129 
Q 3647 3509 3647 2328 
Q 3647 1150 3233 529 
Q 2819 -91 2034 -91 
Q 1250 -91 836 529 
Q 422 1150 422 2328 
Q 422 3509 836 4129 
Q 1250 4750 2034 4750 
z
" transform="scale(0.015625)"/>
      <path id="DejaVuSans-2e" d="M 684 794 
L 1344 794 
L 1344 0 
L 684 0 
L 684 794 
z
" transform="scale(0.015625)"/>
      <path id="DejaVuSans-39" d="M 703 97 
L 703 672 
Q 941 559 1184 500 
Q 1428 441 1663 441 
Q 2288 441 2617 861 
Q 2947 1281 2994 2138 
Q 2813 1869 2534 1725 
Q 2256 1581 1919 1581 
Q 1219 1581 811 2004 
Q 403 2428 403 3163 
Q 403 3881 828 4315 
Q 1253 4750 1959 4750 
Q 2769 4750 3195 4129 
Q 3622 3509 3622 2328 
Q 3622 1225 3098 567 
Q 2575 -91 1691 -91 
Q 1453 -91 1209 -44 
Q 966 3 703 97 
z
M 1959 2075 
Q 2384 2075 2632 2365 
Q 2881 2656 2881 3163 
Q 2881 3666 2632 3958 
Q 2384 4250 1959 4250 
Q 1534 4250 1286 3958 
Q 1038 3666 1038 3163 
Q 1038 2656 1286 2365 
Q 1534 2075 1959 2075 
z
" transform="scale(0.015625)"/>
      <path id="DejaVuSans-35" d="M 691 4666 
L 3169 4666 
L 3169 4134 
L 1269 4134 
L 1269 2991 
Q 1406 3038 1543 3061 
Q 1681 3084 1819 3084 
Q 2600 3084 3056 2656 
Q 3513 2228 3513 1497 
Q 3513 744 3044 326 
Q 2575 -91 1722 -91 
Q 1428 -91 1123 -41 
Q 819 9 494 109 
L 494 744 
Q 775 591 1075 516 
Q 1375 441 1709 441 
Q 2250 441 2565 725 
Q 2881 1009 2881 1497 
Q 2881 1984 2565 2268 
Q 2250 2553 1709 2553 
Q 1456 2553 1204 2497 
Q 953 2441 691 2322 
L 691 4666 
z
" transform="scale(0.015625)"/>
     </defs>
     <use xlink:href="#DejaVuSans-30"/>
     <use xlink:href="#DejaVuSans-2e" x="63.623047"/>
     <use xlink:href="#DejaVuSans-39" x="95.410156"/>
     <use xlink:href="#DejaVuSans-35" x="159.033203"/>
    </g>
   </g>
   <g id="text_6">
    <!-- 0.25 -->
    <g style="fill: #262626" transform="translate(52.283375 153.38175) scale(0.2 -0.2)">
     <use xlink:href="#DejaVuSans-30"/>
     <use xlink:href="#DejaVuSans-2e" x="63.623047"/>
     <use xlink:href="#DejaVuSans-32" x="95.410156"/>
     <use xlink:href="#DejaVuSans-35" x="159.033203"/>
    </g>
   </g>
   <g id="text_7">
    <!-- 1 -->
    <g style="fill: #ffffff" transform="translate(68.1865 80.06775) scale(0.2 -0.2)">
     <use xlink:href="#DejaVuSans-31"/>
    </g>
   </g>
   <g id="text_8">
    <!-- 1 -->
    <g style="fill: #ffffff" transform="translate(141.5005 153.38175) scale(0.2 -0.2)">
     <use xlink:href="#DejaVuSans-31"/>
    </g>
   </g>
  </g>
 </g>
 <defs>
  <clipPath id="pb6e401321f">
   <rect x="10.8" y="37.892" width="16.292" height="146.628"/>
  </clipPath>
  <clipPath id="p7776718f67">
   <rect x="37.892" y="10.8" width="146.628" height="16.292"/>
  </clipPath>
  <clipPath id="pee5352db96">
   <rect x="37.892" y="37.892" width="146.628" height="146.628"/>
  </clipPath>
 </defs>
</svg>
