<?xml version="1.0" encoding="utf-8" standalone="no"?>
<!DOCTYPE svg PUBLIC "-//W3C//DTD SVG 1.1//EN"
  "http://www.w3.org/Graphics/SVG/1.1/DTD/svg11.dtd">
<svg xmlns:xlink="http://www.w3.org/1999/xlink" width="216pt" height="216pt" viewBox="0 0 216 216" xmlns="http://www.w3.org/2000/svg" version="1.1">
 <metadata>
  <rdf:RDF xmlns:dc="http://purl.org/dc/elements/1.1/" xmlns:cc="http://creativecommons.org/ns#" xmlns:rdf="http://www.w3.org/1999/02/22-rdf-syntax-ns#">
   <cc:Work>
    <dc:type rdf:resource="http://purl.org/dc/dcmitype/StillImage"/>
    <dc:date>2024-10-29T13:09:44.405599</dc:date>
    <dc:format>image/svg+xml</dc:format>
    <dc:creator>
     <cc:Agent>
      <dc:title>Matplotlib v3.6.2, https://matplotlib.org/</dc:title>
     </cc:Agent>
    </dc:creator>
   </cc:Work>
  </rdf:RDF>
 </metadata>
 <defs>
  <style type="text/css">*{stroke-linejoin: round; stroke-linecap: butt}</style>
 </defs>
 <g id="figure_1">
  <g id="patch_1">
   <path d="M 0 216 
L 216 216 
L 216 0 
L 0 0 
z
" style="fill: #ffffff"/>
  </g>
  <g id="axes_1">
   <g id="LineCollection_1">
    <path d="M 27.452 75.719 
L 11.592952 75.719 
L 11.592952 150.653 
L 27.452 150.653 
" clip-path="url(#pefa3cfbf5a)" style="fill: none; stroke: #333333; stroke-width: 0.5"/>
   </g>
  </g>
  <g id="axes_2">
   <g id="LineCollection_2">
    <path d="M 75.719 27.452 
L 75.719 11.592952 
L 150.653 11.592952 
L 150.653 27.452 
" clip-path="url(#pc930e75b21)" style="fill: none; stroke: #333333; stroke-width: 0.5"/>
   </g>
  </g>
  <g id="axes_3">
   <g id="patch_2">
    <path d="M 38.252 188.12 
L 188.12 188.12 
L 188.12 38.252 
L 38.252 38.252 
z
" style="fill: #ffffff"/>
   </g>
   <g id="QuadMesh_1">
    <path d="M 38.252 38.252 
L 113.186 38.252 
L 113.186 113.186 
L 38.252 113.186 
L 38.252 38.252 
" clip-path="url(#p7747ab5b61)" style="fill: #67001f"/>
    <path d="M 113.186 38.252 
L 188.12 38.252 
L 188.12 113.186 
L 113.186 113.186 
L 113.186 38.252 
" clip-path="url(#p7747ab5b61)" style="fill: #67001f"/>
    <path d="M 38.252 113.186 
L 113.186 113.186 
L 113.186 188.12 
L 38.252 188.12 
L 38.252 113.186 
" clip-path="url(#p7747ab5b61)" style="fill: #67001f"/>
    <path d="M 113.186 113.186 
L 188.12 113.186 
L 188.12 188.12 
L 113.186 188.12 
L 113.186 113.186 
" clip-path="url(#p7747ab5b61)" style="fill: #67001f"/>
   </g>
   <g id="QuadMesh_2">
    <path d="M 38.252 38.252 
L 113.186 38.252 
L 113.186 113.186 
L 38.252 113.186 
L 38.252 38.252 
" clip-path="url(#p7747ab5b61)" style="fill: none"/>
    <path d="M 113.186 38.252 
L 188.12 38.252 
L 188.12 113.186 
L 113.186 113.186 
L 113.186 38.252 
" clip-path="url(#p7747ab5b61)" style="fill: #67001f"/>
    <path d="M 38.252 113.186 
L 113.186 113.186 
L 113.186 188.12 
L 38.252 188.12 
L 38.252 113.186 
" clip-path="url(#p7747ab5b61)" style="fill: none"/>
    <path d="M 113.186 113.186 
L 188.12 113.186 
L 188.12 188.12 
L 113.186 188.12 
L 113.186 113.186 
" clip-path="url(#p7747ab5b61)" style="fill: none"/>
   </g>
   <g id="QuadMesh_3">
    <path d="M 38.252 38.252 
L 113.186 38.252 
L 113.186 113.186 
L 38.252 113.186 
L 38.252 38.252 
" clip-path="url(#p7747ab5b61)" style="fill: none"/>
    <path d="M 113.186 38.252 
L 188.12 38.252 
L 188.12 113.186 
L 113.186 113.186 
L 113.186 38.252 
" clip-path="url(#p7747ab5b61)" style="fill: none"/>
    <path d="M 38.252 113.186 
L 113.186 113.186 
L 113.186 188.12 
L 38.252 188.12 
L 38.252 113.186 
" clip-path="url(#p7747ab5b61)" style="fill: #707070"/>
    <path d="M 113.186 113.186 
L 188.12 113.186 
L 188.12 188.12 
L 113.186 188.12 
L 113.186 113.186 
" clip-path="url(#p7747ab5b61)" style="fill: none"/>
   </g>
   <g id="QuadMesh_4">
    <path d="M 38.252 38.252 
L 113.186 38.252 
L 113.186 113.186 
L 38.252 113.186 
L 38.252 38.252 
" clip-path="url(#p7747ab5b61)"/>
    <path d="M 113.186 38.252 
L 188.12 38.252 
L 188.12 113.186 
L 113.186 113.186 
L 113.186 38.252 
" clip-path="url(#p7747ab5b61)" style="fill: none"/>
    <path d="M 38.252 113.186 
L 113.186 113.186 
L 113.186 188.12 
L 38.252 188.12 
L 38.252 113.186 
" clip-path="url(#p7747ab5b61)" style="fill: none"/>
    <path d="M 113.186 113.186 
L 188.12 113.186 
L 188.12 188.12 
L 113.186 188.12 
L 113.186 113.186 
" clip-path="url(#p7747ab5b61)"/>
   </g>
   <g id="matplotlib.axis_1">
    <g id="xtick_1">
     <g id="line2d_1">
      <defs>
       <path id="medbc13b363" d="M 0 0 
L 0 3.5 
" style="stroke: #000000; stroke-width: 0.8"/>
      </defs>
      <g>
       <use xlink:href="#medbc13b363" x="75.719" y="188.12" style="stroke: #000000; stroke-width: 0.8"/>
      </g>
     </g>
     <g id="text_1">
      <!-- SLC39A1 -->
      <g transform="translate(53.303375 202.718438) scale(0.1 -0.1)">
       <defs>
        <path id="DejaVuSans-53" d="M 3425 4513 
L 3425 3897 
Q 3066 4069 2747 4153 
Q 2428 4238 2131 4238 
Q 1616 4238 1336 4038 
Q 1056 3838 1056 3469 
Q 1056 3159 1242 3001 
Q 1428 2844 1947 2747 
L 2328 2669 
Q 3034 2534 3370 2195 
Q 3706 1856 3706 1288 
Q 3706 609 3251 259 
Q 2797 -91 1919 -91 
Q 1588 -91 1214 -16 
Q 841 59 441 206 
L 441 856 
Q 825 641 1194 531 
Q 1563 422 1919 422 
Q 2459 422 2753 634 
Q 3047 847 3047 1241 
Q 3047 1584 2836 1778 
Q 2625 1972 2144 2069 
L 1759 2144 
Q 1053 2284 737 2584 
Q 422 2884 422 3419 
Q 422 4038 858 4394 
Q 1294 4750 2059 4750 
Q 2388 4750 2728 4690 
Q 3069 4631 3425 4513 
z
" transform="scale(0.015625)"/>
        <path id="DejaVuSans-4c" d="M 628 4666 
L 1259 4666 
L 1259 531 
L 3531 531 
L 3531 0 
L 628 0 
L 628 4666 
z
" transform="scale(0.015625)"/>
        <path id="DejaVuSans-43" d="M 4122 4306 
L 4122 3641 
Q 3803 3938 3442 4084 
Q 3081 4231 2675 4231 
Q 1875 4231 1450 3742 
Q 1025 3253 1025 2328 
Q 1025 1406 1450 917 
Q 1875 428 2675 428 
Q 3081 428 3442 575 
Q 3803 722 4122 1019 
L 4122 359 
Q 3791 134 3420 21 
Q 3050 -91 2638 -91 
Q 1578 -91 968 557 
Q 359 1206 359 2328 
Q 359 3453 968 4101 
Q 1578 4750 2638 4750 
Q 3056 4750 3426 4639 
Q 3797 4528 4122 4306 
z
" transform="scale(0.015625)"/>
        <path id="DejaVuSans-33" d="M 2597 2516 
Q 3050 2419 3304 2112 
Q 3559 1806 3559 1356 
Q 3559 666 3084 287 
Q 2609 -91 1734 -91 
Q 1441 -91 1130 -33 
Q 819 25 488 141 
L 488 750 
Q 750 597 1062 519 
Q 1375 441 1716 441 
Q 2309 441 2620 675 
Q 2931 909 2931 1356 
Q 2931 1769 2642 2001 
Q 2353 2234 1838 2234 
L 1294 2234 
L 1294 2753 
L 1863 2753 
Q 2328 2753 2575 2939 
Q 2822 3125 2822 3475 
Q 2822 3834 2567 4026 
Q 2313 4219 1838 4219 
Q 1578 4219 1281 4162 
Q 984 4106 628 3988 
L 628 4550 
Q 988 4650 1302 4700 
Q 1616 4750 1894 4750 
Q 2613 4750 3031 4423 
Q 3450 4097 3450 3541 
Q 3450 3153 3228 2886 
Q 3006 2619 2597 2516 
z
" transform="scale(0.015625)"/>
        <path id="DejaVuSans-39" d="M 703 97 
L 703 672 
Q 941 559 1184 500 
Q 1428 441 1663 441 
Q 2288 441 2617 861 
Q 2947 1281 2994 2138 
Q 2813 1869 2534 1725 
Q 2256 1581 1919 1581 
Q 1219 1581 811 2004 
Q 403 2428 403 3163 
Q 403 3881 828 4315 
Q 1253 4750 1959 4750 
Q 2769 4750 3195 4129 
Q 3622 3509 3622 2328 
Q 3622 1225 3098 567 
Q 2575 -91 1691 -91 
Q 1453 -91 1209 -44 
Q 966 3 703 97 
z
M 1959 2075 
Q 2384 2075 2632 2365 
Q 2881 2656 2881 3163 
Q 2881 3666 2632 3958 
Q 2384 4250 1959 4250 
Q 1534 4250 1286 3958 
Q 1038 3666 1038 3163 
Q 1038 2656 1286 2365 
Q 1534 2075 1959 2075 
z
" transform="scale(0.015625)"/>
        <path id="DejaVuSans-41" d="M 2188 4044 
L 1331 1722 
L 3047 1722 
L 2188 4044 
z
M 1831 4666 
L 2547 4666 
L 4325 0 
L 3669 0 
L 3244 1197 
L 1141 1197 
L 716 0 
L 50 0 
L 1831 4666 
z
" transform="scale(0.015625)"/>
        <path id="DejaVuSans-31" d="M 794 531 
L 1825 531 
L 1825 4091 
L 703 3866 
L 703 4441 
L 1819 4666 
L 2450 4666 
L 2450 531 
L 3481 531 
L 3481 0 
L 794 0 
L 794 531 
z
" transform="scale(0.015625)"/>
       </defs>
       <use xlink:href="#DejaVuSans-53"/>
       <use xlink:href="#DejaVuSans-4c" x="63.476562"/>
       <use xlink:href="#DejaVuSans-43" x="119.189453"/>
       <use xlink:href="#DejaVuSans-33" x="189.013672"/>
       <use xlink:href="#DejaVuSans-39" x="252.636719"/>
       <use xlink:href="#DejaVuSans-41" x="316.259766"/>
       <use xlink:href="#DejaVuSans-31" x="384.667969"/>
      </g>
     </g>
    </g>
    <g id="xtick_2">
     <g id="line2d_2">
      <g>
       <use xlink:href="#medbc13b363" x="150.653" y="188.12" style="stroke: #000000; stroke-width: 0.8"/>
      </g>
     </g>
     <g id="text_2">
      <!-- ZBTB16 -->
      <g transform="translate(130.950656 202.718438) scale(0.1 -0.1)">
       <defs>
        <path id="DejaVuSans-5a" d="M 359 4666 
L 4025 4666 
L 4025 4184 
L 1075 531 
L 4097 531 
L 4097 0 
L 288 0 
L 288 481 
L 3238 4134 
L 359 4134 
L 359 4666 
z
" transform="scale(0.015625)"/>
        <path id="DejaVuSans-42" d="M 1259 2228 
L 1259 519 
L 2272 519 
Q 2781 519 3026 730 
Q 3272 941 3272 1375 
Q 3272 1813 3026 2020 
Q 2781 2228 2272 2228 
L 1259 2228 
z
M 1259 4147 
L 1259 2741 
L 2194 2741 
Q 2656 2741 2882 2914 
Q 3109 3088 3109 3444 
Q 3109 3797 2882 3972 
Q 2656 4147 2194 4147 
L 1259 4147 
z
M 628 4666 
L 2241 4666 
Q 2963 4666 3353 4366 
Q 3744 4066 3744 3513 
Q 3744 3084 3544 2831 
Q 3344 2578 2956 2516 
Q 3422 2416 3680 2098 
Q 3938 1781 3938 1306 
Q 3938 681 3513 340 
Q 3088 0 2303 0 
L 628 0 
L 628 4666 
z
" transform="scale(0.015625)"/>
        <path id="DejaVuSans-54" d="M -19 4666 
L 3928 4666 
L 3928 4134 
L 2272 4134 
L 2272 0 
L 1638 0 
L 1638 4134 
L -19 4134 
L -19 4666 
z
" transform="scale(0.015625)"/>
        <path id="DejaVuSans-36" d="M 2113 2584 
Q 1688 2584 1439 2293 
Q 1191 2003 1191 1497 
Q 1191 994 1439 701 
Q 1688 409 2113 409 
Q 2538 409 2786 701 
Q 3034 994 3034 1497 
Q 3034 2003 2786 2293 
Q 2538 2584 2113 2584 
z
M 3366 4563 
L 3366 3988 
Q 3128 4100 2886 4159 
Q 2644 4219 2406 4219 
Q 1781 4219 1451 3797 
Q 1122 3375 1075 2522 
Q 1259 2794 1537 2939 
Q 1816 3084 2150 3084 
Q 2853 3084 3261 2657 
Q 3669 2231 3669 1497 
Q 3669 778 3244 343 
Q 2819 -91 2113 -91 
Q 1303 -91 875 529 
Q 447 1150 447 2328 
Q 447 3434 972 4092 
Q 1497 4750 2381 4750 
Q 2619 4750 2861 4703 
Q 3103 4656 3366 4563 
z
" transform="scale(0.015625)"/>
       </defs>
       <use xlink:href="#DejaVuSans-5a"/>
       <use xlink:href="#DejaVuSans-42" x="68.505859"/>
       <use xlink:href="#DejaVuSans-54" x="137.109375"/>
       <use xlink:href="#DejaVuSans-42" x="198.193359"/>
       <use xlink:href="#DejaVuSans-31" x="266.796875"/>
       <use xlink:href="#DejaVuSans-36" x="330.419922"/>
      </g>
     </g>
    </g>
   </g>
   <g id="matplotlib.axis_2">
    <g id="ytick_1">
     <g id="line2d_3">
      <defs>
       <path id="m3f7716d0e9" d="M 0 0 
L 3.5 0 
" style="stroke: #000000; stroke-width: 0.8"/>
      </defs>
      <g>
       <use xlink:href="#m3f7716d0e9" x="188.12" y="75.719" style="stroke: #000000; stroke-width: 0.8"/>
      </g>
     </g>
     <g id="text_3">
      <!-- SLC39A1 -->
      <g transform="translate(202.718437 98.134625) rotate(-90) scale(0.1 -0.1)">
       <use xlink:href="#DejaVuSans-53"/>
       <use xlink:href="#DejaVuSans-4c" x="63.476562"/>
       <use xlink:href="#DejaVuSans-43" x="119.189453"/>
       <use xlink:href="#DejaVuSans-33" x="189.013672"/>
       <use xlink:href="#DejaVuSans-39" x="252.636719"/>
       <use xlink:href="#DejaVuSans-41" x="316.259766"/>
       <use xlink:href="#DejaVuSans-31" x="384.667969"/>
      </g>
     </g>
    </g>
    <g id="ytick_2">
     <g id="line2d_4">
      <g>
       <use xlink:href="#m3f7716d0e9" x="188.12" y="150.653" style="stroke: #000000; stroke-width: 0.8"/>
      </g>
     </g>
     <g id="text_4">
      <!-- ZBTB16 -->
      <g transform="translate(202.718437 170.355344) rotate(-90) scale(0.1 -0.1)">
       <use xlink:href="#DejaVuSans-5a"/>
       <use xlink:href="#DejaVuSans-42" x="68.505859"/>
       <use xlink:href="#DejaVuSans-54" x="137.109375"/>
       <use xlink:href="#DejaVuSans-42" x="198.193359"/>
       <use xlink:href="#DejaVuSans-31" x="266.796875"/>
       <use xlink:href="#DejaVuSans-36" x="330.419922"/>
      </g>
     </g>
    </g>
   </g>
   <g id="text_5">
    <!-- 0.00035 -->
    <g style="fill: #ffffff" transform="translate(129.976437 78.478375) scale(0.1 -0.1)">
     <defs>
      <path id="DejaVuSans-30" d="M 2034 4250 
Q 1547 4250 1301 3770 
Q 1056 3291 1056 2328 
Q 1056 1369 1301 889 
Q 1547 409 2034 409 
Q 2525 409 2770 889 
Q 3016 1369 3016 2328 
Q 3016 3291 2770 3770 
Q 2525 4250 2034 4250 
z
M 2034 4750 
Q 2819 4750 3233 4129 
Q 3647 3509 3647 2328 
Q 3647 1150 3233 529 
Q 2819 -91 2034 -91 
Q 1250 -91 836 529 
Q 422 1150 422 2328 
Q 422 3509 836 4129 
Q 1250 4750 2034 4750 
z
" transform="scale(0.015625)"/>
      <path id="DejaVuSans-2e" d="M 684 794 
L 1344 794 
L 1344 0 
L 684 0 
L 684 794 
z
" transform="scale(0.015625)"/>
      <path id="DejaVuSans-35" d="M 691 4666 
L 3169 4666 
L 3169 4134 
L 1269 4134 
L 1269 2991 
Q 1406 3038 1543 3061 
Q 1681 3084 1819 3084 
Q 2600 3084 3056 2656 
Q 3513 2228 3513 1497 
Q 3513 744 3044 326 
Q 2575 -91 1722 -91 
Q 1428 -91 1123 -41 
Q 819 9 494 109 
L 494 744 
Q 775 591 1075 516 
Q 1375 441 1709 441 
Q 2250 441 2565 725 
Q 2881 1009 2881 1497 
Q 2881 1984 2565 2268 
Q 2250 2553 1709 2553 
Q 1456 2553 1204 2497 
Q 953 2441 691 2322 
L 691 4666 
z
" transform="scale(0.015625)"/>
     </defs>
     <use xlink:href="#DejaVuSans-30"/>
     <use xlink:href="#DejaVuSans-2e" x="63.623047"/>
     <use xlink:href="#DejaVuSans-30" x="95.410156"/>
     <use xlink:href="#DejaVuSans-30" x="159.033203"/>
     <use xlink:href="#DejaVuSans-30" x="222.65625"/>
     <use xlink:href="#DejaVuSans-33" x="286.279297"/>
     <use xlink:href="#DejaVuSans-35" x="349.902344"/>
    </g>
   </g>
   <g id="text_6">
    <!-- 0.63 -->
    <g style="fill: #ffffff" transform="translate(64.586187 153.412375) scale(0.1 -0.1)">
     <use xlink:href="#DejaVuSans-30"/>
     <use xlink:href="#DejaVuSans-2e" x="63.623047"/>
     <use xlink:href="#DejaVuSans-36" x="95.410156"/>
     <use xlink:href="#DejaVuSans-33" x="159.033203"/>
    </g>
   </g>
   <g id="text_7">
    <!-- 1 -->
    <g style="fill: #ffffff" transform="translate(72.53775 78.478375) scale(0.1 -0.1)">
     <use xlink:href="#DejaVuSans-31"/>
    </g>
   </g>
   <g id="text_8">
    <!-- 1 -->
    <g style="fill: #ffffff" transform="translate(147.47175 153.412375) scale(0.1 -0.1)">
     <use xlink:href="#DejaVuSans-31"/>
    </g>
   </g>
  </g>
 </g>
 <defs>
  <clipPath id="pefa3cfbf5a">
   <rect x="10.8" y="38.252" width="16.652" height="149.868"/>
  </clipPath>
  <clipPath id="pc930e75b21">
   <rect x="38.252" y="10.8" width="149.868" height="16.652"/>
  </clipPath>
  <clipPath id="p7747ab5b61">
   <rect x="38.252" y="38.252" width="149.868" height="149.868"/>
  </clipPath>
 </defs>
</svg>
