<?xml version="1.0" encoding="utf-8" standalone="no"?>
<!DOCTYPE svg PUBLIC "-//W3C//DTD SVG 1.1//EN"
  "http://www.w3.org/Graphics/SVG/1.1/DTD/svg11.dtd">
<svg xmlns:xlink="http://www.w3.org/1999/xlink" width="648pt" height="648pt" viewBox="0 0 648 648" xmlns="http://www.w3.org/2000/svg" version="1.1">
 <metadata>
  <rdf:RDF xmlns:dc="http://purl.org/dc/elements/1.1/" xmlns:cc="http://creativecommons.org/ns#" xmlns:rdf="http://www.w3.org/1999/02/22-rdf-syntax-ns#">
   <cc:Work>
    <dc:type rdf:resource="http://purl.org/dc/dcmitype/StillImage"/>
    <dc:date>2024-10-16T20:45:18.893983</dc:date>
    <dc:format>image/svg+xml</dc:format>
    <dc:creator>
     <cc:Agent>
      <dc:title>Matplotlib v3.6.2, https://matplotlib.org/</dc:title>
     </cc:Agent>
    </dc:creator>
   </cc:Work>
  </rdf:RDF>
 </metadata>
 <defs>
  <style type="text/css">*{stroke-linejoin: round; stroke-linecap: butt}</style>
 </defs>
 <g id="figure_1">
  <g id="patch_1">
   <path d="M 0 648 
L 648 648 
L 648 0 
L 0 0 
z
" style="fill: #ffffff"/>
  </g>
  <g id="axes_1">
   <g id="LineCollection_1">
    <path d="M 130.504 530.342 
L 21.324432 530.342 
L 21.324432 590.194 
L 130.504 590.194 
" clip-path="url(#pbbf841dc0f)" style="fill: none; stroke: #333333; stroke-width: 0.5"/>
    <path d="M 130.504 470.49 
L 17.275785 470.49 
L 17.275785 560.268 
L 21.324432 560.268 
" clip-path="url(#pbbf841dc0f)" style="fill: none; stroke: #333333; stroke-width: 0.5"/>
    <path d="M 130.504 410.638 
L 16.624873 410.638 
L 16.624873 515.379 
L 17.275785 515.379 
" clip-path="url(#pbbf841dc0f)" style="fill: none; stroke: #333333; stroke-width: 0.5"/>
    <path d="M 130.504 350.786 
L 16.545311 350.786 
L 16.545311 463.0085 
L 16.624873 463.0085 
" clip-path="url(#pbbf841dc0f)" style="fill: none; stroke: #333333; stroke-width: 0.5"/>
    <path d="M 130.504 290.934 
L 16.525596 290.934 
L 16.525596 406.89725 
L 16.545311 406.89725 
" clip-path="url(#pbbf841dc0f)" style="fill: none; stroke: #333333; stroke-width: 0.5"/>
    <path d="M 130.504 231.082 
L 16.516097 231.082 
L 16.516097 348.915625 
L 16.525596 348.915625 
" clip-path="url(#pbbf841dc0f)" style="fill: none; stroke: #333333; stroke-width: 0.5"/>
    <path d="M 130.504 171.23 
L 16.50019 171.23 
L 16.50019 289.998813 
L 16.516097 289.998813 
" clip-path="url(#pbbf841dc0f)" style="fill: none; stroke: #333333; stroke-width: 0.5"/>
   </g>
  </g>
  <g id="axes_2">
   <g id="LineCollection_2">
    <path d="M 530.342 130.504 
L 530.342 21.324432 
L 590.194 21.324432 
L 590.194 130.504 
" clip-path="url(#p7bf0808da2)" style="fill: none; stroke: #333333; stroke-width: 0.5"/>
    <path d="M 470.49 130.504 
L 470.49 17.275785 
L 560.268 17.275785 
L 560.268 21.324432 
" clip-path="url(#p7bf0808da2)" style="fill: none; stroke: #333333; stroke-width: 0.5"/>
    <path d="M 410.638 130.504 
L 410.638 16.624873 
L 515.379 16.624873 
L 515.379 17.275785 
" clip-path="url(#p7bf0808da2)" style="fill: none; stroke: #333333; stroke-width: 0.5"/>
    <path d="M 350.786 130.504 
L 350.786 16.545311 
L 463.0085 16.545311 
L 463.0085 16.624873 
" clip-path="url(#p7bf0808da2)" style="fill: none; stroke: #333333; stroke-width: 0.5"/>
    <path d="M 290.934 130.504 
L 290.934 16.525596 
L 406.89725 16.525596 
L 406.89725 16.545311 
" clip-path="url(#p7bf0808da2)" style="fill: none; stroke: #333333; stroke-width: 0.5"/>
    <path d="M 231.082 130.504 
L 231.082 16.516097 
L 348.915625 16.516097 
L 348.915625 16.525596 
" clip-path="url(#p7bf0808da2)" style="fill: none; stroke: #333333; stroke-width: 0.5"/>
    <path d="M 171.23 130.504 
L 171.23 16.50019 
L 289.998812 16.50019 
L 289.998812 16.516097 
" clip-path="url(#p7bf0808da2)" style="fill: none; stroke: #333333; stroke-width: 0.5"/>
   </g>
  </g>
  <g id="axes_3">
   <g id="patch_2">
    <path d="M 141.304 620.12 
L 620.12 620.12 
L 620.12 141.304 
L 141.304 141.304 
z
" style="fill: #ffffff"/>
   </g>
   <g id="QuadMesh_1">
    <path d="M 141.304 141.304 
L 201.156 141.304 
L 201.156 201.156 
L 141.304 201.156 
L 141.304 141.304 
" clip-path="url(#p27cc23b222)" style="fill: #67001f"/>
    <path d="M 201.156 141.304 
L 261.008 141.304 
L 261.008 201.156 
L 201.156 201.156 
L 201.156 141.304 
" clip-path="url(#p27cc23b222)" style="fill: #053061"/>
    <path d="M 261.008 141.304 
L 320.86 141.304 
L 320.86 201.156 
L 261.008 201.156 
L 261.008 141.304 
" clip-path="url(#p27cc23b222)" style="fill: #053061"/>
    <path d="M 320.86 141.304 
L 380.712 141.304 
L 380.712 201.156 
L 320.86 201.156 
L 320.86 141.304 
" clip-path="url(#p27cc23b222)" style="fill: #053061"/>
    <path d="M 380.712 141.304 
L 440.564 141.304 
L 440.564 201.156 
L 380.712 201.156 
L 380.712 141.304 
" clip-path="url(#p27cc23b222)" style="fill: #053061"/>
    <path d="M 440.564 141.304 
L 500.416 141.304 
L 500.416 201.156 
L 440.564 201.156 
L 440.564 141.304 
" clip-path="url(#p27cc23b222)" style="fill: #053061"/>
    <path d="M 500.416 141.304 
L 560.268 141.304 
L 560.268 201.156 
L 500.416 201.156 
L 500.416 141.304 
" clip-path="url(#p27cc23b222)" style="fill: #053061"/>
    <path d="M 560.268 141.304 
L 620.12 141.304 
L 620.12 201.156 
L 560.268 201.156 
L 560.268 141.304 
" clip-path="url(#p27cc23b222)" style="fill: #053061"/>
    <path d="M 141.304 201.156 
L 201.156 201.156 
L 201.156 261.008 
L 141.304 261.008 
L 141.304 201.156 
" clip-path="url(#p27cc23b222)" style="fill: #053061"/>
    <path d="M 201.156 201.156 
L 261.008 201.156 
L 261.008 261.008 
L 201.156 261.008 
L 201.156 201.156 
" clip-path="url(#p27cc23b222)" style="fill: #67001f"/>
    <path d="M 261.008 201.156 
L 320.86 201.156 
L 320.86 261.008 
L 261.008 261.008 
L 261.008 201.156 
" clip-path="url(#p27cc23b222)" style="fill: #053061"/>
    <path d="M 320.86 201.156 
L 380.712 201.156 
L 380.712 261.008 
L 320.86 261.008 
L 320.86 201.156 
" clip-path="url(#p27cc23b222)" style="fill: #053061"/>
    <path d="M 380.712 201.156 
L 440.564 201.156 
L 440.564 261.008 
L 380.712 261.008 
L 380.712 201.156 
" clip-path="url(#p27cc23b222)" style="fill: #053061"/>
    <path d="M 440.564 201.156 
L 500.416 201.156 
L 500.416 261.008 
L 440.564 261.008 
L 440.564 201.156 
" clip-path="url(#p27cc23b222)" style="fill: #053061"/>
    <path d="M 500.416 201.156 
L 560.268 201.156 
L 560.268 261.008 
L 500.416 261.008 
L 500.416 201.156 
" clip-path="url(#p27cc23b222)" style="fill: #053061"/>
    <path d="M 560.268 201.156 
L 620.12 201.156 
L 620.12 261.008 
L 560.268 261.008 
L 560.268 201.156 
" clip-path="url(#p27cc23b222)" style="fill: #053061"/>
    <path d="M 141.304 261.008 
L 201.156 261.008 
L 201.156 320.86 
L 141.304 320.86 
L 141.304 261.008 
" clip-path="url(#p27cc23b222)" style="fill: #053061"/>
    <path d="M 201.156 261.008 
L 261.008 261.008 
L 261.008 320.86 
L 201.156 320.86 
L 201.156 261.008 
" clip-path="url(#p27cc23b222)" style="fill: #053061"/>
    <path d="M 261.008 261.008 
L 320.86 261.008 
L 320.86 320.86 
L 261.008 320.86 
L 261.008 261.008 
" clip-path="url(#p27cc23b222)" style="fill: #67001f"/>
    <path d="M 320.86 261.008 
L 380.712 261.008 
L 380.712 320.86 
L 320.86 320.86 
L 320.86 261.008 
" clip-path="url(#p27cc23b222)" style="fill: #053061"/>
    <path d="M 380.712 261.008 
L 440.564 261.008 
L 440.564 320.86 
L 380.712 320.86 
L 380.712 261.008 
" clip-path="url(#p27cc23b222)" style="fill: #053061"/>
    <path d="M 440.564 261.008 
L 500.416 261.008 
L 500.416 320.86 
L 440.564 320.86 
L 440.564 261.008 
" clip-path="url(#p27cc23b222)" style="fill: #053061"/>
    <path d="M 500.416 261.008 
L 560.268 261.008 
L 560.268 320.86 
L 500.416 320.86 
L 500.416 261.008 
" clip-path="url(#p27cc23b222)" style="fill: #053061"/>
    <path d="M 560.268 261.008 
L 620.12 261.008 
L 620.12 320.86 
L 560.268 320.86 
L 560.268 261.008 
" clip-path="url(#p27cc23b222)" style="fill: #053061"/>
    <path d="M 141.304 320.86 
L 201.156 320.86 
L 201.156 380.712 
L 141.304 380.712 
L 141.304 320.86 
" clip-path="url(#p27cc23b222)" style="fill: #053061"/>
    <path d="M 201.156 320.86 
L 261.008 320.86 
L 261.008 380.712 
L 201.156 380.712 
L 201.156 320.86 
" clip-path="url(#p27cc23b222)" style="fill: #053061"/>
    <path d="M 261.008 320.86 
L 320.86 320.86 
L 320.86 380.712 
L 261.008 380.712 
L 261.008 320.86 
" clip-path="url(#p27cc23b222)" style="fill: #053061"/>
    <path d="M 320.86 320.86 
L 380.712 320.86 
L 380.712 380.712 
L 320.86 380.712 
L 320.86 320.86 
" clip-path="url(#p27cc23b222)" style="fill: #67001f"/>
    <path d="M 380.712 320.86 
L 440.564 320.86 
L 440.564 380.712 
L 380.712 380.712 
L 380.712 320.86 
" clip-path="url(#p27cc23b222)" style="fill: #053061"/>
    <path d="M 440.564 320.86 
L 500.416 320.86 
L 500.416 380.712 
L 440.564 380.712 
L 440.564 320.86 
" clip-path="url(#p27cc23b222)" style="fill: #053061"/>
    <path d="M 500.416 320.86 
L 560.268 320.86 
L 560.268 380.712 
L 500.416 380.712 
L 500.416 320.86 
" clip-path="url(#p27cc23b222)" style="fill: #053061"/>
    <path d="M 560.268 320.86 
L 620.12 320.86 
L 620.12 380.712 
L 560.268 380.712 
L 560.268 320.86 
" clip-path="url(#p27cc23b222)" style="fill: #053061"/>
    <path d="M 141.304 380.712 
L 201.156 380.712 
L 201.156 440.564 
L 141.304 440.564 
L 141.304 380.712 
" clip-path="url(#p27cc23b222)" style="fill: #053061"/>
    <path d="M 201.156 380.712 
L 261.008 380.712 
L 261.008 440.564 
L 201.156 440.564 
L 201.156 380.712 
" clip-path="url(#p27cc23b222)" style="fill: #053061"/>
    <path d="M 261.008 380.712 
L 320.86 380.712 
L 320.86 440.564 
L 261.008 440.564 
L 261.008 380.712 
" clip-path="url(#p27cc23b222)" style="fill: #053061"/>
    <path d="M 320.86 380.712 
L 380.712 380.712 
L 380.712 440.564 
L 320.86 440.564 
L 320.86 380.712 
" clip-path="url(#p27cc23b222)" style="fill: #053061"/>
    <path d="M 380.712 380.712 
L 440.564 380.712 
L 440.564 440.564 
L 380.712 440.564 
L 380.712 380.712 
" clip-path="url(#p27cc23b222)" style="fill: #67001f"/>
    <path d="M 440.564 380.712 
L 500.416 380.712 
L 500.416 440.564 
L 440.564 440.564 
L 440.564 380.712 
" clip-path="url(#p27cc23b222)" style="fill: #053061"/>
    <path d="M 500.416 380.712 
L 560.268 380.712 
L 560.268 440.564 
L 500.416 440.564 
L 500.416 380.712 
" clip-path="url(#p27cc23b222)" style="fill: #053061"/>
    <path d="M 560.268 380.712 
L 620.12 380.712 
L 620.12 440.564 
L 560.268 440.564 
L 560.268 380.712 
" clip-path="url(#p27cc23b222)" style="fill: #053061"/>
    <path d="M 141.304 440.564 
L 201.156 440.564 
L 201.156 500.416 
L 141.304 500.416 
L 141.304 440.564 
" clip-path="url(#p27cc23b222)" style="fill: #053061"/>
    <path d="M 201.156 440.564 
L 261.008 440.564 
L 261.008 500.416 
L 201.156 500.416 
L 201.156 440.564 
" clip-path="url(#p27cc23b222)" style="fill: #053061"/>
    <path d="M 261.008 440.564 
L 320.86 440.564 
L 320.86 500.416 
L 261.008 500.416 
L 261.008 440.564 
" clip-path="url(#p27cc23b222)" style="fill: #053061"/>
    <path d="M 320.86 440.564 
L 380.712 440.564 
L 380.712 500.416 
L 320.86 500.416 
L 320.86 440.564 
" clip-path="url(#p27cc23b222)" style="fill: #053061"/>
    <path d="M 380.712 440.564 
L 440.564 440.564 
L 440.564 500.416 
L 380.712 500.416 
L 380.712 440.564 
" clip-path="url(#p27cc23b222)" style="fill: #053061"/>
    <path d="M 440.564 440.564 
L 500.416 440.564 
L 500.416 500.416 
L 440.564 500.416 
L 440.564 440.564 
" clip-path="url(#p27cc23b222)" style="fill: #67001f"/>
    <path d="M 500.416 440.564 
L 560.268 440.564 
L 560.268 500.416 
L 500.416 500.416 
L 500.416 440.564 
" clip-path="url(#p27cc23b222)" style="fill: #08366a"/>
    <path d="M 560.268 440.564 
L 620.12 440.564 
L 620.12 500.416 
L 560.268 500.416 
L 560.268 440.564 
" clip-path="url(#p27cc23b222)" style="fill: #053061"/>
    <path d="M 141.304 500.416 
L 201.156 500.416 
L 201.156 560.268 
L 141.304 560.268 
L 141.304 500.416 
" clip-path="url(#p27cc23b222)" style="fill: #053061"/>
    <path d="M 201.156 500.416 
L 261.008 500.416 
L 261.008 560.268 
L 201.156 560.268 
L 201.156 500.416 
" clip-path="url(#p27cc23b222)" style="fill: #053061"/>
    <path d="M 261.008 500.416 
L 320.86 500.416 
L 320.86 560.268 
L 261.008 560.268 
L 261.008 500.416 
" clip-path="url(#p27cc23b222)" style="fill: #053061"/>
    <path d="M 320.86 500.416 
L 380.712 500.416 
L 380.712 560.268 
L 320.86 560.268 
L 320.86 500.416 
" clip-path="url(#p27cc23b222)" style="fill: #053061"/>
    <path d="M 380.712 500.416 
L 440.564 500.416 
L 440.564 560.268 
L 380.712 560.268 
L 380.712 500.416 
" clip-path="url(#p27cc23b222)" style="fill: #053061"/>
    <path d="M 440.564 500.416 
L 500.416 500.416 
L 500.416 560.268 
L 440.564 560.268 
L 440.564 500.416 
" clip-path="url(#p27cc23b222)" style="fill: #08366a"/>
    <path d="M 500.416 500.416 
L 560.268 500.416 
L 560.268 560.268 
L 500.416 560.268 
L 500.416 500.416 
" clip-path="url(#p27cc23b222)" style="fill: #67001f"/>
    <path d="M 560.268 500.416 
L 620.12 500.416 
L 620.12 560.268 
L 560.268 560.268 
L 560.268 500.416 
" clip-path="url(#p27cc23b222)" style="fill: #10457e"/>
    <path d="M 141.304 560.268 
L 201.156 560.268 
L 201.156 620.12 
L 141.304 620.12 
L 141.304 560.268 
" clip-path="url(#p27cc23b222)" style="fill: #053061"/>
    <path d="M 201.156 560.268 
L 261.008 560.268 
L 261.008 620.12 
L 201.156 620.12 
L 201.156 560.268 
" clip-path="url(#p27cc23b222)" style="fill: #053061"/>
    <path d="M 261.008 560.268 
L 320.86 560.268 
L 320.86 620.12 
L 261.008 620.12 
L 261.008 560.268 
" clip-path="url(#p27cc23b222)" style="fill: #053061"/>
    <path d="M 320.86 560.268 
L 380.712 560.268 
L 380.712 620.12 
L 320.86 620.12 
L 320.86 560.268 
" clip-path="url(#p27cc23b222)" style="fill: #053061"/>
    <path d="M 380.712 560.268 
L 440.564 560.268 
L 440.564 620.12 
L 380.712 620.12 
L 380.712 560.268 
" clip-path="url(#p27cc23b222)" style="fill: #053061"/>
    <path d="M 440.564 560.268 
L 500.416 560.268 
L 500.416 620.12 
L 440.564 620.12 
L 440.564 560.268 
" clip-path="url(#p27cc23b222)" style="fill: #053061"/>
    <path d="M 500.416 560.268 
L 560.268 560.268 
L 560.268 620.12 
L 500.416 620.12 
L 500.416 560.268 
" clip-path="url(#p27cc23b222)" style="fill: #10457e"/>
    <path d="M 560.268 560.268 
L 620.12 560.268 
L 620.12 620.12 
L 560.268 620.12 
L 560.268 560.268 
" clip-path="url(#p27cc23b222)" style="fill: #67001f"/>
   </g>
   <g id="QuadMesh_2">
    <path d="M 141.304 141.304 
L 201.156 141.304 
L 201.156 201.156 
L 141.304 201.156 
L 141.304 141.304 
" clip-path="url(#p27cc23b222)" style="fill: none"/>
    <path d="M 201.156 141.304 
L 261.008 141.304 
L 261.008 201.156 
L 201.156 201.156 
L 201.156 141.304 
" clip-path="url(#p27cc23b222)" style="fill: #053061"/>
    <path d="M 261.008 141.304 
L 320.86 141.304 
L 320.86 201.156 
L 261.008 201.156 
L 261.008 141.304 
" clip-path="url(#p27cc23b222)" style="fill: #053061"/>
    <path d="M 320.86 141.304 
L 380.712 141.304 
L 380.712 201.156 
L 320.86 201.156 
L 320.86 141.304 
" clip-path="url(#p27cc23b222)" style="fill: #053061"/>
    <path d="M 380.712 141.304 
L 440.564 141.304 
L 440.564 201.156 
L 380.712 201.156 
L 380.712 141.304 
" clip-path="url(#p27cc23b222)" style="fill: #053061"/>
    <path d="M 440.564 141.304 
L 500.416 141.304 
L 500.416 201.156 
L 440.564 201.156 
L 440.564 141.304 
" clip-path="url(#p27cc23b222)" style="fill: #063264"/>
    <path d="M 500.416 141.304 
L 560.268 141.304 
L 560.268 201.156 
L 500.416 201.156 
L 500.416 141.304 
" clip-path="url(#p27cc23b222)" style="fill: #09386d"/>
    <path d="M 560.268 141.304 
L 620.12 141.304 
L 620.12 201.156 
L 560.268 201.156 
L 560.268 141.304 
" clip-path="url(#p27cc23b222)" style="fill: #09386d"/>
    <path d="M 141.304 201.156 
L 201.156 201.156 
L 201.156 261.008 
L 141.304 261.008 
L 141.304 201.156 
" clip-path="url(#p27cc23b222)" style="fill: none"/>
    <path d="M 201.156 201.156 
L 261.008 201.156 
L 261.008 261.008 
L 201.156 261.008 
L 201.156 201.156 
" clip-path="url(#p27cc23b222)" style="fill: none"/>
    <path d="M 261.008 201.156 
L 320.86 201.156 
L 320.86 261.008 
L 261.008 261.008 
L 261.008 201.156 
" clip-path="url(#p27cc23b222)" style="fill: #053061"/>
    <path d="M 320.86 201.156 
L 380.712 201.156 
L 380.712 261.008 
L 320.86 261.008 
L 320.86 201.156 
" clip-path="url(#p27cc23b222)" style="fill: #053061"/>
    <path d="M 380.712 201.156 
L 440.564 201.156 
L 440.564 261.008 
L 380.712 261.008 
L 380.712 201.156 
" clip-path="url(#p27cc23b222)" style="fill: #053061"/>
    <path d="M 440.564 201.156 
L 500.416 201.156 
L 500.416 261.008 
L 440.564 261.008 
L 440.564 201.156 
" clip-path="url(#p27cc23b222)" style="fill: #073467"/>
    <path d="M 500.416 201.156 
L 560.268 201.156 
L 560.268 261.008 
L 500.416 261.008 
L 500.416 201.156 
" clip-path="url(#p27cc23b222)" style="fill: #063264"/>
    <path d="M 560.268 201.156 
L 620.12 201.156 
L 620.12 261.008 
L 560.268 261.008 
L 560.268 201.156 
" clip-path="url(#p27cc23b222)" style="fill: #10457e"/>
    <path d="M 141.304 261.008 
L 201.156 261.008 
L 201.156 320.86 
L 141.304 320.86 
L 141.304 261.008 
" clip-path="url(#p27cc23b222)" style="fill: none"/>
    <path d="M 201.156 261.008 
L 261.008 261.008 
L 261.008 320.86 
L 201.156 320.86 
L 201.156 261.008 
" clip-path="url(#p27cc23b222)" style="fill: none"/>
    <path d="M 261.008 261.008 
L 320.86 261.008 
L 320.86 320.86 
L 261.008 320.86 
L 261.008 261.008 
" clip-path="url(#p27cc23b222)" style="fill: none"/>
    <path d="M 320.86 261.008 
L 380.712 261.008 
L 380.712 320.86 
L 320.86 320.86 
L 320.86 261.008 
" clip-path="url(#p27cc23b222)" style="fill: #063264"/>
    <path d="M 380.712 261.008 
L 440.564 261.008 
L 440.564 320.86 
L 380.712 320.86 
L 380.712 261.008 
" clip-path="url(#p27cc23b222)" style="fill: #053061"/>
    <path d="M 440.564 261.008 
L 500.416 261.008 
L 500.416 320.86 
L 440.564 320.86 
L 440.564 261.008 
" clip-path="url(#p27cc23b222)" style="fill: #073467"/>
    <path d="M 500.416 261.008 
L 560.268 261.008 
L 560.268 320.86 
L 500.416 320.86 
L 500.416 261.008 
" clip-path="url(#p27cc23b222)" style="fill: #09386d"/>
    <path d="M 560.268 261.008 
L 620.12 261.008 
L 620.12 320.86 
L 560.268 320.86 
L 560.268 261.008 
" clip-path="url(#p27cc23b222)" style="fill: #0e4179"/>
    <path d="M 141.304 320.86 
L 201.156 320.86 
L 201.156 380.712 
L 141.304 380.712 
L 141.304 320.86 
" clip-path="url(#p27cc23b222)" style="fill: none"/>
    <path d="M 201.156 320.86 
L 261.008 320.86 
L 261.008 380.712 
L 201.156 380.712 
L 201.156 320.86 
" clip-path="url(#p27cc23b222)" style="fill: none"/>
    <path d="M 261.008 320.86 
L 320.86 320.86 
L 320.86 380.712 
L 261.008 380.712 
L 261.008 320.86 
" clip-path="url(#p27cc23b222)" style="fill: none"/>
    <path d="M 320.86 320.86 
L 380.712 320.86 
L 380.712 380.712 
L 320.86 380.712 
L 320.86 320.86 
" clip-path="url(#p27cc23b222)" style="fill: none"/>
    <path d="M 380.712 320.86 
L 440.564 320.86 
L 440.564 380.712 
L 380.712 380.712 
L 380.712 320.86 
" clip-path="url(#p27cc23b222)" style="fill: #063264"/>
    <path d="M 440.564 320.86 
L 500.416 320.86 
L 500.416 380.712 
L 440.564 380.712 
L 440.564 320.86 
" clip-path="url(#p27cc23b222)" style="fill: #063264"/>
    <path d="M 500.416 320.86 
L 560.268 320.86 
L 560.268 380.712 
L 500.416 380.712 
L 500.416 320.86 
" clip-path="url(#p27cc23b222)" style="fill: #134c87"/>
    <path d="M 560.268 320.86 
L 620.12 320.86 
L 620.12 380.712 
L 560.268 380.712 
L 560.268 320.86 
" clip-path="url(#p27cc23b222)" style="fill: #073467"/>
    <path d="M 141.304 380.712 
L 201.156 380.712 
L 201.156 440.564 
L 141.304 440.564 
L 141.304 380.712 
" clip-path="url(#p27cc23b222)" style="fill: none"/>
    <path d="M 201.156 380.712 
L 261.008 380.712 
L 261.008 440.564 
L 201.156 440.564 
L 201.156 380.712 
" clip-path="url(#p27cc23b222)" style="fill: none"/>
    <path d="M 261.008 380.712 
L 320.86 380.712 
L 320.86 440.564 
L 261.008 440.564 
L 261.008 380.712 
" clip-path="url(#p27cc23b222)" style="fill: none"/>
    <path d="M 320.86 380.712 
L 380.712 380.712 
L 380.712 440.564 
L 320.86 440.564 
L 320.86 380.712 
" clip-path="url(#p27cc23b222)" style="fill: none"/>
    <path d="M 380.712 380.712 
L 440.564 380.712 
L 440.564 440.564 
L 380.712 440.564 
L 380.712 380.712 
" clip-path="url(#p27cc23b222)" style="fill: none"/>
    <path d="M 440.564 380.712 
L 500.416 380.712 
L 500.416 440.564 
L 440.564 440.564 
L 440.564 380.712 
" clip-path="url(#p27cc23b222)" style="fill: #08366a"/>
    <path d="M 500.416 380.712 
L 560.268 380.712 
L 560.268 440.564 
L 500.416 440.564 
L 500.416 380.712 
" clip-path="url(#p27cc23b222)" style="fill: #063264"/>
    <path d="M 560.268 380.712 
L 620.12 380.712 
L 620.12 440.564 
L 560.268 440.564 
L 560.268 380.712 
" clip-path="url(#p27cc23b222)" style="fill: #1d5fa2"/>
    <path d="M 141.304 440.564 
L 201.156 440.564 
L 201.156 500.416 
L 141.304 500.416 
L 141.304 440.564 
" clip-path="url(#p27cc23b222)" style="fill: none"/>
    <path d="M 201.156 440.564 
L 261.008 440.564 
L 261.008 500.416 
L 201.156 500.416 
L 201.156 440.564 
" clip-path="url(#p27cc23b222)" style="fill: none"/>
    <path d="M 261.008 440.564 
L 320.86 440.564 
L 320.86 500.416 
L 261.008 500.416 
L 261.008 440.564 
" clip-path="url(#p27cc23b222)" style="fill: none"/>
    <path d="M 320.86 440.564 
L 380.712 440.564 
L 380.712 500.416 
L 320.86 500.416 
L 320.86 440.564 
" clip-path="url(#p27cc23b222)" style="fill: none"/>
    <path d="M 380.712 440.564 
L 440.564 440.564 
L 440.564 500.416 
L 380.712 500.416 
L 380.712 440.564 
" clip-path="url(#p27cc23b222)" style="fill: none"/>
    <path d="M 440.564 440.564 
L 500.416 440.564 
L 500.416 500.416 
L 440.564 500.416 
L 440.564 440.564 
" clip-path="url(#p27cc23b222)" style="fill: none"/>
    <path d="M 500.416 440.564 
L 560.268 440.564 
L 560.268 500.416 
L 500.416 500.416 
L 500.416 440.564 
" clip-path="url(#p27cc23b222)" style="fill: #a7d0e4"/>
    <path d="M 560.268 440.564 
L 620.12 440.564 
L 620.12 500.416 
L 560.268 500.416 
L 560.268 440.564 
" clip-path="url(#p27cc23b222)" style="fill: #073467"/>
    <path d="M 141.304 500.416 
L 201.156 500.416 
L 201.156 560.268 
L 141.304 560.268 
L 141.304 500.416 
" clip-path="url(#p27cc23b222)" style="fill: none"/>
    <path d="M 201.156 500.416 
L 261.008 500.416 
L 261.008 560.268 
L 201.156 560.268 
L 201.156 500.416 
" clip-path="url(#p27cc23b222)" style="fill: none"/>
    <path d="M 261.008 500.416 
L 320.86 500.416 
L 320.86 560.268 
L 261.008 560.268 
L 261.008 500.416 
" clip-path="url(#p27cc23b222)" style="fill: none"/>
    <path d="M 320.86 500.416 
L 380.712 500.416 
L 380.712 560.268 
L 320.86 560.268 
L 320.86 500.416 
" clip-path="url(#p27cc23b222)" style="fill: none"/>
    <path d="M 380.712 500.416 
L 440.564 500.416 
L 440.564 560.268 
L 380.712 560.268 
L 380.712 500.416 
" clip-path="url(#p27cc23b222)" style="fill: none"/>
    <path d="M 440.564 500.416 
L 500.416 500.416 
L 500.416 560.268 
L 440.564 560.268 
L 440.564 500.416 
" clip-path="url(#p27cc23b222)" style="fill: none"/>
    <path d="M 500.416 500.416 
L 560.268 500.416 
L 560.268 560.268 
L 500.416 560.268 
L 500.416 500.416 
" clip-path="url(#p27cc23b222)" style="fill: none"/>
    <path d="M 560.268 500.416 
L 620.12 500.416 
L 620.12 560.268 
L 560.268 560.268 
L 560.268 500.416 
" clip-path="url(#p27cc23b222)" style="fill: #67001f"/>
    <path d="M 141.304 560.268 
L 201.156 560.268 
L 201.156 620.12 
L 141.304 620.12 
L 141.304 560.268 
" clip-path="url(#p27cc23b222)" style="fill: none"/>
    <path d="M 201.156 560.268 
L 261.008 560.268 
L 261.008 620.12 
L 201.156 620.12 
L 201.156 560.268 
" clip-path="url(#p27cc23b222)" style="fill: none"/>
    <path d="M 261.008 560.268 
L 320.86 560.268 
L 320.86 620.12 
L 261.008 620.12 
L 261.008 560.268 
" clip-path="url(#p27cc23b222)" style="fill: none"/>
    <path d="M 320.86 560.268 
L 380.712 560.268 
L 380.712 620.12 
L 320.86 620.12 
L 320.86 560.268 
" clip-path="url(#p27cc23b222)" style="fill: none"/>
    <path d="M 380.712 560.268 
L 440.564 560.268 
L 440.564 620.12 
L 380.712 620.12 
L 380.712 560.268 
" clip-path="url(#p27cc23b222)" style="fill: none"/>
    <path d="M 440.564 560.268 
L 500.416 560.268 
L 500.416 620.12 
L 440.564 620.12 
L 440.564 560.268 
" clip-path="url(#p27cc23b222)" style="fill: none"/>
    <path d="M 500.416 560.268 
L 560.268 560.268 
L 560.268 620.12 
L 500.416 620.12 
L 500.416 560.268 
" clip-path="url(#p27cc23b222)" style="fill: none"/>
    <path d="M 560.268 560.268 
L 620.12 560.268 
L 620.12 620.12 
L 560.268 620.12 
L 560.268 560.268 
" clip-path="url(#p27cc23b222)" style="fill: none"/>
   </g>
   <g id="QuadMesh_3">
    <path d="M 141.304 141.304 
L 201.156 141.304 
L 201.156 201.156 
L 141.304 201.156 
L 141.304 141.304 
" clip-path="url(#p27cc23b222)" style="fill: none"/>
    <path d="M 201.156 141.304 
L 261.008 141.304 
L 261.008 201.156 
L 201.156 201.156 
L 201.156 141.304 
" clip-path="url(#p27cc23b222)" style="fill: none"/>
    <path d="M 261.008 141.304 
L 320.86 141.304 
L 320.86 201.156 
L 261.008 201.156 
L 261.008 141.304 
" clip-path="url(#p27cc23b222)" style="fill: none"/>
    <path d="M 320.86 141.304 
L 380.712 141.304 
L 380.712 201.156 
L 320.86 201.156 
L 320.86 141.304 
" clip-path="url(#p27cc23b222)" style="fill: none"/>
    <path d="M 380.712 141.304 
L 440.564 141.304 
L 440.564 201.156 
L 380.712 201.156 
L 380.712 141.304 
" clip-path="url(#p27cc23b222)" style="fill: none"/>
    <path d="M 440.564 141.304 
L 500.416 141.304 
L 500.416 201.156 
L 440.564 201.156 
L 440.564 141.304 
" clip-path="url(#p27cc23b222)" style="fill: none"/>
    <path d="M 500.416 141.304 
L 560.268 141.304 
L 560.268 201.156 
L 500.416 201.156 
L 500.416 141.304 
" clip-path="url(#p27cc23b222)" style="fill: none"/>
    <path d="M 560.268 141.304 
L 620.12 141.304 
L 620.12 201.156 
L 560.268 201.156 
L 560.268 141.304 
" clip-path="url(#p27cc23b222)" style="fill: none"/>
    <path d="M 141.304 201.156 
L 201.156 201.156 
L 201.156 261.008 
L 141.304 261.008 
L 141.304 201.156 
" clip-path="url(#p27cc23b222)" style="fill: #c5c5c5"/>
    <path d="M 201.156 201.156 
L 261.008 201.156 
L 261.008 261.008 
L 201.156 261.008 
L 201.156 201.156 
" clip-path="url(#p27cc23b222)" style="fill: none"/>
    <path d="M 261.008 201.156 
L 320.86 201.156 
L 320.86 261.008 
L 261.008 261.008 
L 261.008 201.156 
" clip-path="url(#p27cc23b222)" style="fill: none"/>
    <path d="M 320.86 201.156 
L 380.712 201.156 
L 380.712 261.008 
L 320.86 261.008 
L 320.86 201.156 
" clip-path="url(#p27cc23b222)" style="fill: none"/>
    <path d="M 380.712 201.156 
L 440.564 201.156 
L 440.564 261.008 
L 380.712 261.008 
L 380.712 201.156 
" clip-path="url(#p27cc23b222)" style="fill: none"/>
    <path d="M 440.564 201.156 
L 500.416 201.156 
L 500.416 261.008 
L 440.564 261.008 
L 440.564 201.156 
" clip-path="url(#p27cc23b222)" style="fill: none"/>
    <path d="M 500.416 201.156 
L 560.268 201.156 
L 560.268 261.008 
L 500.416 261.008 
L 500.416 201.156 
" clip-path="url(#p27cc23b222)" style="fill: none"/>
    <path d="M 560.268 201.156 
L 620.12 201.156 
L 620.12 261.008 
L 560.268 261.008 
L 560.268 201.156 
" clip-path="url(#p27cc23b222)" style="fill: none"/>
    <path d="M 141.304 261.008 
L 201.156 261.008 
L 201.156 320.86 
L 141.304 320.86 
L 141.304 261.008 
" clip-path="url(#p27cc23b222)" style="fill: #848484"/>
    <path d="M 201.156 261.008 
L 261.008 261.008 
L 261.008 320.86 
L 201.156 320.86 
L 201.156 261.008 
" clip-path="url(#p27cc23b222)" style="fill: #b8b8b8"/>
    <path d="M 261.008 261.008 
L 320.86 261.008 
L 320.86 320.86 
L 261.008 320.86 
L 261.008 261.008 
" clip-path="url(#p27cc23b222)" style="fill: none"/>
    <path d="M 320.86 261.008 
L 380.712 261.008 
L 380.712 320.86 
L 320.86 320.86 
L 320.86 261.008 
" clip-path="url(#p27cc23b222)" style="fill: none"/>
    <path d="M 380.712 261.008 
L 440.564 261.008 
L 440.564 320.86 
L 380.712 320.86 
L 380.712 261.008 
" clip-path="url(#p27cc23b222)" style="fill: none"/>
    <path d="M 440.564 261.008 
L 500.416 261.008 
L 500.416 320.86 
L 440.564 320.86 
L 440.564 261.008 
" clip-path="url(#p27cc23b222)" style="fill: none"/>
    <path d="M 500.416 261.008 
L 560.268 261.008 
L 560.268 320.86 
L 500.416 320.86 
L 500.416 261.008 
" clip-path="url(#p27cc23b222)" style="fill: none"/>
    <path d="M 560.268 261.008 
L 620.12 261.008 
L 620.12 320.86 
L 560.268 320.86 
L 560.268 261.008 
" clip-path="url(#p27cc23b222)" style="fill: none"/>
    <path d="M 141.304 320.86 
L 201.156 320.86 
L 201.156 380.712 
L 141.304 380.712 
L 141.304 320.86 
" clip-path="url(#p27cc23b222)" style="fill: #c5c5c5"/>
    <path d="M 201.156 320.86 
L 261.008 320.86 
L 261.008 380.712 
L 201.156 380.712 
L 201.156 320.86 
" clip-path="url(#p27cc23b222)" style="fill: #bfbfbf"/>
    <path d="M 261.008 320.86 
L 320.86 320.86 
L 320.86 380.712 
L 261.008 380.712 
L 261.008 320.86 
" clip-path="url(#p27cc23b222)" style="fill: #a7a7a7"/>
    <path d="M 320.86 320.86 
L 380.712 320.86 
L 380.712 380.712 
L 320.86 380.712 
L 320.86 320.86 
" clip-path="url(#p27cc23b222)" style="fill: none"/>
    <path d="M 380.712 320.86 
L 440.564 320.86 
L 440.564 380.712 
L 380.712 380.712 
L 380.712 320.86 
" clip-path="url(#p27cc23b222)" style="fill: none"/>
    <path d="M 440.564 320.86 
L 500.416 320.86 
L 500.416 380.712 
L 440.564 380.712 
L 440.564 320.86 
" clip-path="url(#p27cc23b222)" style="fill: none"/>
    <path d="M 500.416 320.86 
L 560.268 320.86 
L 560.268 380.712 
L 500.416 380.712 
L 500.416 320.86 
" clip-path="url(#p27cc23b222)" style="fill: none"/>
    <path d="M 560.268 320.86 
L 620.12 320.86 
L 620.12 380.712 
L 560.268 380.712 
L 560.268 320.86 
" clip-path="url(#p27cc23b222)" style="fill: none"/>
    <path d="M 141.304 380.712 
L 201.156 380.712 
L 201.156 440.564 
L 141.304 440.564 
L 141.304 380.712 
" clip-path="url(#p27cc23b222)" style="fill: #e7e7e7"/>
    <path d="M 201.156 380.712 
L 261.008 380.712 
L 261.008 440.564 
L 201.156 440.564 
L 201.156 380.712 
" clip-path="url(#p27cc23b222)" style="fill: #d0d0d0"/>
    <path d="M 261.008 380.712 
L 320.86 380.712 
L 320.86 440.564 
L 261.008 440.564 
L 261.008 380.712 
" clip-path="url(#p27cc23b222)" style="fill: #c9c9c9"/>
    <path d="M 320.86 380.712 
L 380.712 380.712 
L 380.712 440.564 
L 320.86 440.564 
L 320.86 380.712 
" clip-path="url(#p27cc23b222)" style="fill: #e6e6e6"/>
    <path d="M 380.712 380.712 
L 440.564 380.712 
L 440.564 440.564 
L 380.712 440.564 
L 380.712 380.712 
" clip-path="url(#p27cc23b222)" style="fill: none"/>
    <path d="M 440.564 380.712 
L 500.416 380.712 
L 500.416 440.564 
L 440.564 440.564 
L 440.564 380.712 
" clip-path="url(#p27cc23b222)" style="fill: none"/>
    <path d="M 500.416 380.712 
L 560.268 380.712 
L 560.268 440.564 
L 500.416 440.564 
L 500.416 380.712 
" clip-path="url(#p27cc23b222)" style="fill: none"/>
    <path d="M 560.268 380.712 
L 620.12 380.712 
L 620.12 440.564 
L 560.268 440.564 
L 560.268 380.712 
" clip-path="url(#p27cc23b222)" style="fill: none"/>
    <path d="M 141.304 440.564 
L 201.156 440.564 
L 201.156 500.416 
L 141.304 500.416 
L 141.304 440.564 
" clip-path="url(#p27cc23b222)" style="fill: #5e5e5e"/>
    <path d="M 201.156 440.564 
L 261.008 440.564 
L 261.008 500.416 
L 201.156 500.416 
L 201.156 440.564 
" clip-path="url(#p27cc23b222)" style="fill: #707070"/>
    <path d="M 261.008 440.564 
L 320.86 440.564 
L 320.86 500.416 
L 261.008 500.416 
L 261.008 440.564 
" clip-path="url(#p27cc23b222)" style="fill: #676767"/>
    <path d="M 320.86 440.564 
L 380.712 440.564 
L 380.712 500.416 
L 320.86 500.416 
L 320.86 440.564 
" clip-path="url(#p27cc23b222)" style="fill: #5b5b5b"/>
    <path d="M 380.712 440.564 
L 440.564 440.564 
L 440.564 500.416 
L 380.712 500.416 
L 380.712 440.564 
" clip-path="url(#p27cc23b222)" style="fill: #d8d8d8"/>
    <path d="M 440.564 440.564 
L 500.416 440.564 
L 500.416 500.416 
L 440.564 500.416 
L 440.564 440.564 
" clip-path="url(#p27cc23b222)" style="fill: none"/>
    <path d="M 500.416 440.564 
L 560.268 440.564 
L 560.268 500.416 
L 500.416 500.416 
L 500.416 440.564 
" clip-path="url(#p27cc23b222)" style="fill: none"/>
    <path d="M 560.268 440.564 
L 620.12 440.564 
L 620.12 500.416 
L 560.268 500.416 
L 560.268 440.564 
" clip-path="url(#p27cc23b222)" style="fill: none"/>
    <path d="M 141.304 500.416 
L 201.156 500.416 
L 201.156 560.268 
L 141.304 560.268 
L 141.304 500.416 
" clip-path="url(#p27cc23b222)" style="fill: #8d8d8d"/>
    <path d="M 201.156 500.416 
L 261.008 500.416 
L 261.008 560.268 
L 201.156 560.268 
L 201.156 500.416 
" clip-path="url(#p27cc23b222)" style="fill: #636363"/>
    <path d="M 261.008 500.416 
L 320.86 500.416 
L 320.86 560.268 
L 261.008 560.268 
L 261.008 500.416 
" clip-path="url(#p27cc23b222)" style="fill: #6f6f6f"/>
    <path d="M 320.86 500.416 
L 380.712 500.416 
L 380.712 560.268 
L 320.86 560.268 
L 320.86 500.416 
" clip-path="url(#p27cc23b222)" style="fill: #c5c5c5"/>
    <path d="M 380.712 500.416 
L 440.564 500.416 
L 440.564 560.268 
L 380.712 560.268 
L 380.712 500.416 
" clip-path="url(#p27cc23b222)" style="fill: #bdbdbd"/>
    <path d="M 440.564 500.416 
L 500.416 500.416 
L 500.416 560.268 
L 440.564 560.268 
L 440.564 500.416 
" clip-path="url(#p27cc23b222)" style="fill: #929292"/>
    <path d="M 500.416 500.416 
L 560.268 500.416 
L 560.268 560.268 
L 500.416 560.268 
L 500.416 500.416 
" clip-path="url(#p27cc23b222)" style="fill: none"/>
    <path d="M 560.268 500.416 
L 620.12 500.416 
L 620.12 560.268 
L 560.268 560.268 
L 560.268 500.416 
" clip-path="url(#p27cc23b222)" style="fill: none"/>
    <path d="M 141.304 560.268 
L 201.156 560.268 
L 201.156 620.12 
L 141.304 620.12 
L 141.304 560.268 
" clip-path="url(#p27cc23b222)" style="fill: #393939"/>
    <path d="M 201.156 560.268 
L 261.008 560.268 
L 261.008 620.12 
L 201.156 620.12 
L 201.156 560.268 
" clip-path="url(#p27cc23b222)" style="fill: #949494"/>
    <path d="M 261.008 560.268 
L 320.86 560.268 
L 320.86 620.12 
L 261.008 620.12 
L 261.008 560.268 
" clip-path="url(#p27cc23b222)" style="fill: #272727"/>
    <path d="M 320.86 560.268 
L 380.712 560.268 
L 380.712 620.12 
L 320.86 620.12 
L 320.86 560.268 
" clip-path="url(#p27cc23b222)" style="fill: #5e5e5e"/>
    <path d="M 380.712 560.268 
L 440.564 560.268 
L 440.564 620.12 
L 380.712 620.12 
L 380.712 560.268 
" clip-path="url(#p27cc23b222)" style="fill: #dcdcdc"/>
    <path d="M 440.564 560.268 
L 500.416 560.268 
L 500.416 620.12 
L 440.564 620.12 
L 440.564 560.268 
" clip-path="url(#p27cc23b222)" style="fill: #090909"/>
    <path d="M 500.416 560.268 
L 560.268 560.268 
L 560.268 620.12 
L 500.416 620.12 
L 500.416 560.268 
" clip-path="url(#p27cc23b222)" style="fill: #434343"/>
    <path d="M 560.268 560.268 
L 620.12 560.268 
L 620.12 620.12 
L 560.268 620.12 
L 560.268 560.268 
" clip-path="url(#p27cc23b222)" style="fill: none"/>
   </g>
   <g id="QuadMesh_4">
    <path d="M 141.304 141.304 
L 201.156 141.304 
L 201.156 201.156 
L 141.304 201.156 
L 141.304 141.304 
" clip-path="url(#p27cc23b222)"/>
    <path d="M 201.156 141.304 
L 261.008 141.304 
L 261.008 201.156 
L 201.156 201.156 
L 201.156 141.304 
" clip-path="url(#p27cc23b222)" style="fill: none"/>
    <path d="M 261.008 141.304 
L 320.86 141.304 
L 320.86 201.156 
L 261.008 201.156 
L 261.008 141.304 
" clip-path="url(#p27cc23b222)" style="fill: none"/>
    <path d="M 320.86 141.304 
L 380.712 141.304 
L 380.712 201.156 
L 320.86 201.156 
L 320.86 141.304 
" clip-path="url(#p27cc23b222)" style="fill: none"/>
    <path d="M 380.712 141.304 
L 440.564 141.304 
L 440.564 201.156 
L 380.712 201.156 
L 380.712 141.304 
" clip-path="url(#p27cc23b222)" style="fill: none"/>
    <path d="M 440.564 141.304 
L 500.416 141.304 
L 500.416 201.156 
L 440.564 201.156 
L 440.564 141.304 
" clip-path="url(#p27cc23b222)" style="fill: none"/>
    <path d="M 500.416 141.304 
L 560.268 141.304 
L 560.268 201.156 
L 500.416 201.156 
L 500.416 141.304 
" clip-path="url(#p27cc23b222)" style="fill: none"/>
    <path d="M 560.268 141.304 
L 620.12 141.304 
L 620.12 201.156 
L 560.268 201.156 
L 560.268 141.304 
" clip-path="url(#p27cc23b222)" style="fill: none"/>
    <path d="M 141.304 201.156 
L 201.156 201.156 
L 201.156 261.008 
L 141.304 261.008 
L 141.304 201.156 
" clip-path="url(#p27cc23b222)" style="fill: none"/>
    <path d="M 201.156 201.156 
L 261.008 201.156 
L 261.008 261.008 
L 201.156 261.008 
L 201.156 201.156 
" clip-path="url(#p27cc23b222)"/>
    <path d="M 261.008 201.156 
L 320.86 201.156 
L 320.86 261.008 
L 261.008 261.008 
L 261.008 201.156 
" clip-path="url(#p27cc23b222)" style="fill: none"/>
    <path d="M 320.86 201.156 
L 380.712 201.156 
L 380.712 261.008 
L 320.86 261.008 
L 320.86 201.156 
" clip-path="url(#p27cc23b222)" style="fill: none"/>
    <path d="M 380.712 201.156 
L 440.564 201.156 
L 440.564 261.008 
L 380.712 261.008 
L 380.712 201.156 
" clip-path="url(#p27cc23b222)" style="fill: none"/>
    <path d="M 440.564 201.156 
L 500.416 201.156 
L 500.416 261.008 
L 440.564 261.008 
L 440.564 201.156 
" clip-path="url(#p27cc23b222)" style="fill: none"/>
    <path d="M 500.416 201.156 
L 560.268 201.156 
L 560.268 261.008 
L 500.416 261.008 
L 500.416 201.156 
" clip-path="url(#p27cc23b222)" style="fill: none"/>
    <path d="M 560.268 201.156 
L 620.12 201.156 
L 620.12 261.008 
L 560.268 261.008 
L 560.268 201.156 
" clip-path="url(#p27cc23b222)" style="fill: none"/>
    <path d="M 141.304 261.008 
L 201.156 261.008 
L 201.156 320.86 
L 141.304 320.86 
L 141.304 261.008 
" clip-path="url(#p27cc23b222)" style="fill: none"/>
    <path d="M 201.156 261.008 
L 261.008 261.008 
L 261.008 320.86 
L 201.156 320.86 
L 201.156 261.008 
" clip-path="url(#p27cc23b222)" style="fill: none"/>
    <path d="M 261.008 261.008 
L 320.86 261.008 
L 320.86 320.86 
L 261.008 320.86 
L 261.008 261.008 
" clip-path="url(#p27cc23b222)"/>
    <path d="M 320.86 261.008 
L 380.712 261.008 
L 380.712 320.86 
L 320.86 320.86 
L 320.86 261.008 
" clip-path="url(#p27cc23b222)" style="fill: none"/>
    <path d="M 380.712 261.008 
L 440.564 261.008 
L 440.564 320.86 
L 380.712 320.86 
L 380.712 261.008 
" clip-path="url(#p27cc23b222)" style="fill: none"/>
    <path d="M 440.564 261.008 
L 500.416 261.008 
L 500.416 320.86 
L 440.564 320.86 
L 440.564 261.008 
" clip-path="url(#p27cc23b222)" style="fill: none"/>
    <path d="M 500.416 261.008 
L 560.268 261.008 
L 560.268 320.86 
L 500.416 320.86 
L 500.416 261.008 
" clip-path="url(#p27cc23b222)" style="fill: none"/>
    <path d="M 560.268 261.008 
L 620.12 261.008 
L 620.12 320.86 
L 560.268 320.86 
L 560.268 261.008 
" clip-path="url(#p27cc23b222)" style="fill: none"/>
    <path d="M 141.304 320.86 
L 201.156 320.86 
L 201.156 380.712 
L 141.304 380.712 
L 141.304 320.86 
" clip-path="url(#p27cc23b222)" style="fill: none"/>
    <path d="M 201.156 320.86 
L 261.008 320.86 
L 261.008 380.712 
L 201.156 380.712 
L 201.156 320.86 
" clip-path="url(#p27cc23b222)" style="fill: none"/>
    <path d="M 261.008 320.86 
L 320.86 320.86 
L 320.86 380.712 
L 261.008 380.712 
L 261.008 320.86 
" clip-path="url(#p27cc23b222)" style="fill: none"/>
    <path d="M 320.86 320.86 
L 380.712 320.86 
L 380.712 380.712 
L 320.86 380.712 
L 320.86 320.86 
" clip-path="url(#p27cc23b222)"/>
    <path d="M 380.712 320.86 
L 440.564 320.86 
L 440.564 380.712 
L 380.712 380.712 
L 380.712 320.86 
" clip-path="url(#p27cc23b222)" style="fill: none"/>
    <path d="M 440.564 320.86 
L 500.416 320.86 
L 500.416 380.712 
L 440.564 380.712 
L 440.564 320.86 
" clip-path="url(#p27cc23b222)" style="fill: none"/>
    <path d="M 500.416 320.86 
L 560.268 320.86 
L 560.268 380.712 
L 500.416 380.712 
L 500.416 320.86 
" clip-path="url(#p27cc23b222)" style="fill: none"/>
    <path d="M 560.268 320.86 
L 620.12 320.86 
L 620.12 380.712 
L 560.268 380.712 
L 560.268 320.86 
" clip-path="url(#p27cc23b222)" style="fill: none"/>
    <path d="M 141.304 380.712 
L 201.156 380.712 
L 201.156 440.564 
L 141.304 440.564 
L 141.304 380.712 
" clip-path="url(#p27cc23b222)" style="fill: none"/>
    <path d="M 201.156 380.712 
L 261.008 380.712 
L 261.008 440.564 
L 201.156 440.564 
L 201.156 380.712 
" clip-path="url(#p27cc23b222)" style="fill: none"/>
    <path d="M 261.008 380.712 
L 320.86 380.712 
L 320.86 440.564 
L 261.008 440.564 
L 261.008 380.712 
" clip-path="url(#p27cc23b222)" style="fill: none"/>
    <path d="M 320.86 380.712 
L 380.712 380.712 
L 380.712 440.564 
L 320.86 440.564 
L 320.86 380.712 
" clip-path="url(#p27cc23b222)" style="fill: none"/>
    <path d="M 380.712 380.712 
L 440.564 380.712 
L 440.564 440.564 
L 380.712 440.564 
L 380.712 380.712 
" clip-path="url(#p27cc23b222)"/>
    <path d="M 440.564 380.712 
L 500.416 380.712 
L 500.416 440.564 
L 440.564 440.564 
L 440.564 380.712 
" clip-path="url(#p27cc23b222)" style="fill: none"/>
    <path d="M 500.416 380.712 
L 560.268 380.712 
L 560.268 440.564 
L 500.416 440.564 
L 500.416 380.712 
" clip-path="url(#p27cc23b222)" style="fill: none"/>
    <path d="M 560.268 380.712 
L 620.12 380.712 
L 620.12 440.564 
L 560.268 440.564 
L 560.268 380.712 
" clip-path="url(#p27cc23b222)" style="fill: none"/>
    <path d="M 141.304 440.564 
L 201.156 440.564 
L 201.156 500.416 
L 141.304 500.416 
L 141.304 440.564 
" clip-path="url(#p27cc23b222)" style="fill: none"/>
    <path d="M 201.156 440.564 
L 261.008 440.564 
L 261.008 500.416 
L 201.156 500.416 
L 201.156 440.564 
" clip-path="url(#p27cc23b222)" style="fill: none"/>
    <path d="M 261.008 440.564 
L 320.86 440.564 
L 320.86 500.416 
L 261.008 500.416 
L 261.008 440.564 
" clip-path="url(#p27cc23b222)" style="fill: none"/>
    <path d="M 320.86 440.564 
L 380.712 440.564 
L 380.712 500.416 
L 320.86 500.416 
L 320.86 440.564 
" clip-path="url(#p27cc23b222)" style="fill: none"/>
    <path d="M 380.712 440.564 
L 440.564 440.564 
L 440.564 500.416 
L 380.712 500.416 
L 380.712 440.564 
" clip-path="url(#p27cc23b222)" style="fill: none"/>
    <path d="M 440.564 440.564 
L 500.416 440.564 
L 500.416 500.416 
L 440.564 500.416 
L 440.564 440.564 
" clip-path="url(#p27cc23b222)"/>
    <path d="M 500.416 440.564 
L 560.268 440.564 
L 560.268 500.416 
L 500.416 500.416 
L 500.416 440.564 
" clip-path="url(#p27cc23b222)" style="fill: none"/>
    <path d="M 560.268 440.564 
L 620.12 440.564 
L 620.12 500.416 
L 560.268 500.416 
L 560.268 440.564 
" clip-path="url(#p27cc23b222)" style="fill: none"/>
    <path d="M 141.304 500.416 
L 201.156 500.416 
L 201.156 560.268 
L 141.304 560.268 
L 141.304 500.416 
" clip-path="url(#p27cc23b222)" style="fill: none"/>
    <path d="M 201.156 500.416 
L 261.008 500.416 
L 261.008 560.268 
L 201.156 560.268 
L 201.156 500.416 
" clip-path="url(#p27cc23b222)" style="fill: none"/>
    <path d="M 261.008 500.416 
L 320.86 500.416 
L 320.86 560.268 
L 261.008 560.268 
L 261.008 500.416 
" clip-path="url(#p27cc23b222)" style="fill: none"/>
    <path d="M 320.86 500.416 
L 380.712 500.416 
L 380.712 560.268 
L 320.86 560.268 
L 320.86 500.416 
" clip-path="url(#p27cc23b222)" style="fill: none"/>
    <path d="M 380.712 500.416 
L 440.564 500.416 
L 440.564 560.268 
L 380.712 560.268 
L 380.712 500.416 
" clip-path="url(#p27cc23b222)" style="fill: none"/>
    <path d="M 440.564 500.416 
L 500.416 500.416 
L 500.416 560.268 
L 440.564 560.268 
L 440.564 500.416 
" clip-path="url(#p27cc23b222)" style="fill: none"/>
    <path d="M 500.416 500.416 
L 560.268 500.416 
L 560.268 560.268 
L 500.416 560.268 
L 500.416 500.416 
" clip-path="url(#p27cc23b222)"/>
    <path d="M 560.268 500.416 
L 620.12 500.416 
L 620.12 560.268 
L 560.268 560.268 
L 560.268 500.416 
" clip-path="url(#p27cc23b222)" style="fill: none"/>
    <path d="M 141.304 560.268 
L 201.156 560.268 
L 201.156 620.12 
L 141.304 620.12 
L 141.304 560.268 
" clip-path="url(#p27cc23b222)" style="fill: none"/>
    <path d="M 201.156 560.268 
L 261.008 560.268 
L 261.008 620.12 
L 201.156 620.12 
L 201.156 560.268 
" clip-path="url(#p27cc23b222)" style="fill: none"/>
    <path d="M 261.008 560.268 
L 320.86 560.268 
L 320.86 620.12 
L 261.008 620.12 
L 261.008 560.268 
" clip-path="url(#p27cc23b222)" style="fill: none"/>
    <path d="M 320.86 560.268 
L 380.712 560.268 
L 380.712 620.12 
L 320.86 620.12 
L 320.86 560.268 
" clip-path="url(#p27cc23b222)" style="fill: none"/>
    <path d="M 380.712 560.268 
L 440.564 560.268 
L 440.564 620.12 
L 380.712 620.12 
L 380.712 560.268 
" clip-path="url(#p27cc23b222)" style="fill: none"/>
    <path d="M 440.564 560.268 
L 500.416 560.268 
L 500.416 620.12 
L 440.564 620.12 
L 440.564 560.268 
" clip-path="url(#p27cc23b222)" style="fill: none"/>
    <path d="M 500.416 560.268 
L 560.268 560.268 
L 560.268 620.12 
L 500.416 620.12 
L 500.416 560.268 
" clip-path="url(#p27cc23b222)" style="fill: none"/>
    <path d="M 560.268 560.268 
L 620.12 560.268 
L 620.12 620.12 
L 560.268 620.12 
L 560.268 560.268 
" clip-path="url(#p27cc23b222)"/>
   </g>
   <g id="matplotlib.axis_1">
    <g id="xtick_1">
     <g id="line2d_1">
      <defs>
       <path id="m2098d11b64" d="M 0 0 
L 0 3.5 
" style="stroke: #000000; stroke-width: 0.8"/>
      </defs>
      <g>
       <use xlink:href="#m2098d11b64" x="171.23" y="620.12" style="stroke: #000000; stroke-width: 0.8"/>
      </g>
     </g>
     <g id="text_1">
      <!-- LDHAL6B -->
      <g transform="translate(148.015938 634.718438) scale(0.1 -0.1)">
       <defs>
        <path id="DejaVuSans-4c" d="M 628 4666 
L 1259 4666 
L 1259 531 
L 3531 531 
L 3531 0 
L 628 0 
L 628 4666 
z
" transform="scale(0.015625)"/>
        <path id="DejaVuSans-44" d="M 1259 4147 
L 1259 519 
L 2022 519 
Q 2988 519 3436 956 
Q 3884 1394 3884 2338 
Q 3884 3275 3436 3711 
Q 2988 4147 2022 4147 
L 1259 4147 
z
M 628 4666 
L 1925 4666 
Q 3281 4666 3915 4102 
Q 4550 3538 4550 2338 
Q 4550 1131 3912 565 
Q 3275 0 1925 0 
L 628 0 
L 628 4666 
z
" transform="scale(0.015625)"/>
        <path id="DejaVuSans-48" d="M 628 4666 
L 1259 4666 
L 1259 2753 
L 3553 2753 
L 3553 4666 
L 4184 4666 
L 4184 0 
L 3553 0 
L 3553 2222 
L 1259 2222 
L 1259 0 
L 628 0 
L 628 4666 
z
" transform="scale(0.015625)"/>
        <path id="DejaVuSans-41" d="M 2188 4044 
L 1331 1722 
L 3047 1722 
L 2188 4044 
z
M 1831 4666 
L 2547 4666 
L 4325 0 
L 3669 0 
L 3244 1197 
L 1141 1197 
L 716 0 
L 50 0 
L 1831 4666 
z
" transform="scale(0.015625)"/>
        <path id="DejaVuSans-36" d="M 2113 2584 
Q 1688 2584 1439 2293 
Q 1191 2003 1191 1497 
Q 1191 994 1439 701 
Q 1688 409 2113 409 
Q 2538 409 2786 701 
Q 3034 994 3034 1497 
Q 3034 2003 2786 2293 
Q 2538 2584 2113 2584 
z
M 3366 4563 
L 3366 3988 
Q 3128 4100 2886 4159 
Q 2644 4219 2406 4219 
Q 1781 4219 1451 3797 
Q 1122 3375 1075 2522 
Q 1259 2794 1537 2939 
Q 1816 3084 2150 3084 
Q 2853 3084 3261 2657 
Q 3669 2231 3669 1497 
Q 3669 778 3244 343 
Q 2819 -91 2113 -91 
Q 1303 -91 875 529 
Q 447 1150 447 2328 
Q 447 3434 972 4092 
Q 1497 4750 2381 4750 
Q 2619 4750 2861 4703 
Q 3103 4656 3366 4563 
z
" transform="scale(0.015625)"/>
        <path id="DejaVuSans-42" d="M 1259 2228 
L 1259 519 
L 2272 519 
Q 2781 519 3026 730 
Q 3272 941 3272 1375 
Q 3272 1813 3026 2020 
Q 2781 2228 2272 2228 
L 1259 2228 
z
M 1259 4147 
L 1259 2741 
L 2194 2741 
Q 2656 2741 2882 2914 
Q 3109 3088 3109 3444 
Q 3109 3797 2882 3972 
Q 2656 4147 2194 4147 
L 1259 4147 
z
M 628 4666 
L 2241 4666 
Q 2963 4666 3353 4366 
Q 3744 4066 3744 3513 
Q 3744 3084 3544 2831 
Q 3344 2578 2956 2516 
Q 3422 2416 3680 2098 
Q 3938 1781 3938 1306 
Q 3938 681 3513 340 
Q 3088 0 2303 0 
L 628 0 
L 628 4666 
z
" transform="scale(0.015625)"/>
       </defs>
       <use xlink:href="#DejaVuSans-4c"/>
       <use xlink:href="#DejaVuSans-44" x="55.712891"/>
       <use xlink:href="#DejaVuSans-48" x="132.714844"/>
       <use xlink:href="#DejaVuSans-41" x="207.910156"/>
       <use xlink:href="#DejaVuSans-4c" x="276.318359"/>
       <use xlink:href="#DejaVuSans-36" x="332.03125"/>
       <use xlink:href="#DejaVuSans-42" x="395.654297"/>
      </g>
     </g>
    </g>
    <g id="xtick_2">
     <g id="line2d_2">
      <g>
       <use xlink:href="#m2098d11b64" x="231.082" y="620.12" style="stroke: #000000; stroke-width: 0.8"/>
      </g>
     </g>
     <g id="text_2">
      <!-- DGUOK -->
      <g transform="translate(212.483563 634.718438) scale(0.1 -0.1)">
       <defs>
        <path id="DejaVuSans-47" d="M 3809 666 
L 3809 1919 
L 2778 1919 
L 2778 2438 
L 4434 2438 
L 4434 434 
Q 4069 175 3628 42 
Q 3188 -91 2688 -91 
Q 1594 -91 976 548 
Q 359 1188 359 2328 
Q 359 3472 976 4111 
Q 1594 4750 2688 4750 
Q 3144 4750 3555 4637 
Q 3966 4525 4313 4306 
L 4313 3634 
Q 3963 3931 3569 4081 
Q 3175 4231 2741 4231 
Q 1884 4231 1454 3753 
Q 1025 3275 1025 2328 
Q 1025 1384 1454 906 
Q 1884 428 2741 428 
Q 3075 428 3337 486 
Q 3600 544 3809 666 
z
" transform="scale(0.015625)"/>
        <path id="DejaVuSans-55" d="M 556 4666 
L 1191 4666 
L 1191 1831 
Q 1191 1081 1462 751 
Q 1734 422 2344 422 
Q 2950 422 3222 751 
Q 3494 1081 3494 1831 
L 3494 4666 
L 4128 4666 
L 4128 1753 
Q 4128 841 3676 375 
Q 3225 -91 2344 -91 
Q 1459 -91 1007 375 
Q 556 841 556 1753 
L 556 4666 
z
" transform="scale(0.015625)"/>
        <path id="DejaVuSans-4f" d="M 2522 4238 
Q 1834 4238 1429 3725 
Q 1025 3213 1025 2328 
Q 1025 1447 1429 934 
Q 1834 422 2522 422 
Q 3209 422 3611 934 
Q 4013 1447 4013 2328 
Q 4013 3213 3611 3725 
Q 3209 4238 2522 4238 
z
M 2522 4750 
Q 3503 4750 4090 4092 
Q 4678 3434 4678 2328 
Q 4678 1225 4090 567 
Q 3503 -91 2522 -91 
Q 1538 -91 948 565 
Q 359 1222 359 2328 
Q 359 3434 948 4092 
Q 1538 4750 2522 4750 
z
" transform="scale(0.015625)"/>
        <path id="DejaVuSans-4b" d="M 628 4666 
L 1259 4666 
L 1259 2694 
L 3353 4666 
L 4166 4666 
L 1850 2491 
L 4331 0 
L 3500 0 
L 1259 2247 
L 1259 0 
L 628 0 
L 628 4666 
z
" transform="scale(0.015625)"/>
       </defs>
       <use xlink:href="#DejaVuSans-44"/>
       <use xlink:href="#DejaVuSans-47" x="77.001953"/>
       <use xlink:href="#DejaVuSans-55" x="154.492188"/>
       <use xlink:href="#DejaVuSans-4f" x="227.685547"/>
       <use xlink:href="#DejaVuSans-4b" x="306.396484"/>
      </g>
     </g>
    </g>
    <g id="xtick_3">
     <g id="line2d_3">
      <g>
       <use xlink:href="#m2098d11b64" x="290.934" y="620.12" style="stroke: #000000; stroke-width: 0.8"/>
      </g>
     </g>
     <g id="text_3">
      <!-- UQCRFS1 -->
      <g transform="translate(267.229312 634.718438) scale(0.1 -0.1)">
       <defs>
        <path id="DejaVuSans-51" d="M 2522 4238 
Q 1834 4238 1429 3725 
Q 1025 3213 1025 2328 
Q 1025 1447 1429 934 
Q 1834 422 2522 422 
Q 3209 422 3611 934 
Q 4013 1447 4013 2328 
Q 4013 3213 3611 3725 
Q 3209 4238 2522 4238 
z
M 3406 84 
L 4238 -825 
L 3475 -825 
L 2784 -78 
Q 2681 -84 2626 -87 
Q 2572 -91 2522 -91 
Q 1538 -91 948 567 
Q 359 1225 359 2328 
Q 359 3434 948 4092 
Q 1538 4750 2522 4750 
Q 3503 4750 4090 4092 
Q 4678 3434 4678 2328 
Q 4678 1516 4351 937 
Q 4025 359 3406 84 
z
" transform="scale(0.015625)"/>
        <path id="DejaVuSans-43" d="M 4122 4306 
L 4122 3641 
Q 3803 3938 3442 4084 
Q 3081 4231 2675 4231 
Q 1875 4231 1450 3742 
Q 1025 3253 1025 2328 
Q 1025 1406 1450 917 
Q 1875 428 2675 428 
Q 3081 428 3442 575 
Q 3803 722 4122 1019 
L 4122 359 
Q 3791 134 3420 21 
Q 3050 -91 2638 -91 
Q 1578 -91 968 557 
Q 359 1206 359 2328 
Q 359 3453 968 4101 
Q 1578 4750 2638 4750 
Q 3056 4750 3426 4639 
Q 3797 4528 4122 4306 
z
" transform="scale(0.015625)"/>
        <path id="DejaVuSans-52" d="M 2841 2188 
Q 3044 2119 3236 1894 
Q 3428 1669 3622 1275 
L 4263 0 
L 3584 0 
L 2988 1197 
Q 2756 1666 2539 1819 
Q 2322 1972 1947 1972 
L 1259 1972 
L 1259 0 
L 628 0 
L 628 4666 
L 2053 4666 
Q 2853 4666 3247 4331 
Q 3641 3997 3641 3322 
Q 3641 2881 3436 2590 
Q 3231 2300 2841 2188 
z
M 1259 4147 
L 1259 2491 
L 2053 2491 
Q 2509 2491 2742 2702 
Q 2975 2913 2975 3322 
Q 2975 3731 2742 3939 
Q 2509 4147 2053 4147 
L 1259 4147 
z
" transform="scale(0.015625)"/>
        <path id="DejaVuSans-46" d="M 628 4666 
L 3309 4666 
L 3309 4134 
L 1259 4134 
L 1259 2759 
L 3109 2759 
L 3109 2228 
L 1259 2228 
L 1259 0 
L 628 0 
L 628 4666 
z
" transform="scale(0.015625)"/>
        <path id="DejaVuSans-53" d="M 3425 4513 
L 3425 3897 
Q 3066 4069 2747 4153 
Q 2428 4238 2131 4238 
Q 1616 4238 1336 4038 
Q 1056 3838 1056 3469 
Q 1056 3159 1242 3001 
Q 1428 2844 1947 2747 
L 2328 2669 
Q 3034 2534 3370 2195 
Q 3706 1856 3706 1288 
Q 3706 609 3251 259 
Q 2797 -91 1919 -91 
Q 1588 -91 1214 -16 
Q 841 59 441 206 
L 441 856 
Q 825 641 1194 531 
Q 1563 422 1919 422 
Q 2459 422 2753 634 
Q 3047 847 3047 1241 
Q 3047 1584 2836 1778 
Q 2625 1972 2144 2069 
L 1759 2144 
Q 1053 2284 737 2584 
Q 422 2884 422 3419 
Q 422 4038 858 4394 
Q 1294 4750 2059 4750 
Q 2388 4750 2728 4690 
Q 3069 4631 3425 4513 
z
" transform="scale(0.015625)"/>
        <path id="DejaVuSans-31" d="M 794 531 
L 1825 531 
L 1825 4091 
L 703 3866 
L 703 4441 
L 1819 4666 
L 2450 4666 
L 2450 531 
L 3481 531 
L 3481 0 
L 794 0 
L 794 531 
z
" transform="scale(0.015625)"/>
       </defs>
       <use xlink:href="#DejaVuSans-55"/>
       <use xlink:href="#DejaVuSans-51" x="73.193359"/>
       <use xlink:href="#DejaVuSans-43" x="151.904297"/>
       <use xlink:href="#DejaVuSans-52" x="221.728516"/>
       <use xlink:href="#DejaVuSans-46" x="291.210938"/>
       <use xlink:href="#DejaVuSans-53" x="346.980469"/>
       <use xlink:href="#DejaVuSans-31" x="410.457031"/>
      </g>
     </g>
    </g>
    <g id="xtick_4">
     <g id="line2d_4">
      <g>
       <use xlink:href="#m2098d11b64" x="350.786" y="620.12" style="stroke: #000000; stroke-width: 0.8"/>
      </g>
     </g>
     <g id="text_4">
      <!-- ECH1 -->
      <g transform="translate(337.193813 634.718438) scale(0.1 -0.1)">
       <defs>
        <path id="DejaVuSans-45" d="M 628 4666 
L 3578 4666 
L 3578 4134 
L 1259 4134 
L 1259 2753 
L 3481 2753 
L 3481 2222 
L 1259 2222 
L 1259 531 
L 3634 531 
L 3634 0 
L 628 0 
L 628 4666 
z
" transform="scale(0.015625)"/>
       </defs>
       <use xlink:href="#DejaVuSans-45"/>
       <use xlink:href="#DejaVuSans-43" x="63.183594"/>
       <use xlink:href="#DejaVuSans-48" x="133.007812"/>
       <use xlink:href="#DejaVuSans-31" x="208.203125"/>
      </g>
     </g>
    </g>
    <g id="xtick_5">
     <g id="line2d_5">
      <g>
       <use xlink:href="#m2098d11b64" x="410.638" y="620.12" style="stroke: #000000; stroke-width: 0.8"/>
      </g>
     </g>
     <g id="text_5">
      <!-- MRPS2 -->
      <g transform="translate(393.479406 634.718438) scale(0.1 -0.1)">
       <defs>
        <path id="DejaVuSans-4d" d="M 628 4666 
L 1569 4666 
L 2759 1491 
L 3956 4666 
L 4897 4666 
L 4897 0 
L 4281 0 
L 4281 4097 
L 3078 897 
L 2444 897 
L 1241 4097 
L 1241 0 
L 628 0 
L 628 4666 
z
" transform="scale(0.015625)"/>
        <path id="DejaVuSans-50" d="M 1259 4147 
L 1259 2394 
L 2053 2394 
Q 2494 2394 2734 2622 
Q 2975 2850 2975 3272 
Q 2975 3691 2734 3919 
Q 2494 4147 2053 4147 
L 1259 4147 
z
M 628 4666 
L 2053 4666 
Q 2838 4666 3239 4311 
Q 3641 3956 3641 3272 
Q 3641 2581 3239 2228 
Q 2838 1875 2053 1875 
L 1259 1875 
L 1259 0 
L 628 0 
L 628 4666 
z
" transform="scale(0.015625)"/>
        <path id="DejaVuSans-32" d="M 1228 531 
L 3431 531 
L 3431 0 
L 469 0 
L 469 531 
Q 828 903 1448 1529 
Q 2069 2156 2228 2338 
Q 2531 2678 2651 2914 
Q 2772 3150 2772 3378 
Q 2772 3750 2511 3984 
Q 2250 4219 1831 4219 
Q 1534 4219 1204 4116 
Q 875 4013 500 3803 
L 500 4441 
Q 881 4594 1212 4672 
Q 1544 4750 1819 4750 
Q 2544 4750 2975 4387 
Q 3406 4025 3406 3419 
Q 3406 3131 3298 2873 
Q 3191 2616 2906 2266 
Q 2828 2175 2409 1742 
Q 1991 1309 1228 531 
z
" transform="scale(0.015625)"/>
       </defs>
       <use xlink:href="#DejaVuSans-4d"/>
       <use xlink:href="#DejaVuSans-52" x="86.279297"/>
       <use xlink:href="#DejaVuSans-50" x="155.761719"/>
       <use xlink:href="#DejaVuSans-53" x="216.064453"/>
       <use xlink:href="#DejaVuSans-32" x="279.541016"/>
      </g>
     </g>
    </g>
    <g id="xtick_6">
     <g id="line2d_6">
      <g>
       <use xlink:href="#m2098d11b64" x="470.49" y="620.12" style="stroke: #000000; stroke-width: 0.8"/>
      </g>
     </g>
     <g id="text_6">
      <!-- ACADVL -->
      <g transform="translate(450.276719 634.718438) scale(0.1 -0.1)">
       <defs>
        <path id="DejaVuSans-56" d="M 1831 0 
L 50 4666 
L 709 4666 
L 2188 738 
L 3669 4666 
L 4325 4666 
L 2547 0 
L 1831 0 
z
" transform="scale(0.015625)"/>
       </defs>
       <use xlink:href="#DejaVuSans-41"/>
       <use xlink:href="#DejaVuSans-43" x="66.658203"/>
       <use xlink:href="#DejaVuSans-41" x="136.482422"/>
       <use xlink:href="#DejaVuSans-44" x="204.890625"/>
       <use xlink:href="#DejaVuSans-56" x="280.142578"/>
       <use xlink:href="#DejaVuSans-4c" x="348.550781"/>
      </g>
     </g>
    </g>
    <g id="xtick_7">
     <g id="line2d_7">
      <g>
       <use xlink:href="#m2098d11b64" x="530.342" y="620.12" style="stroke: #000000; stroke-width: 0.8"/>
      </g>
     </g>
     <g id="text_7">
      <!-- SARS2 -->
      <g transform="translate(513.824031 634.718438) scale(0.1 -0.1)">
       <use xlink:href="#DejaVuSans-53"/>
       <use xlink:href="#DejaVuSans-41" x="65.351562"/>
       <use xlink:href="#DejaVuSans-52" x="133.759766"/>
       <use xlink:href="#DejaVuSans-53" x="203.242188"/>
       <use xlink:href="#DejaVuSans-32" x="266.71875"/>
      </g>
     </g>
    </g>
    <g id="xtick_8">
     <g id="line2d_8">
      <g>
       <use xlink:href="#m2098d11b64" x="590.194" y="620.12" style="stroke: #000000; stroke-width: 0.8"/>
      </g>
     </g>
     <g id="text_8">
      <!-- HMGCL -->
      <g transform="translate(571.968219 634.718438) scale(0.1 -0.1)">
       <use xlink:href="#DejaVuSans-48"/>
       <use xlink:href="#DejaVuSans-4d" x="75.195312"/>
       <use xlink:href="#DejaVuSans-47" x="161.474609"/>
       <use xlink:href="#DejaVuSans-43" x="238.964844"/>
       <use xlink:href="#DejaVuSans-4c" x="308.789062"/>
      </g>
     </g>
    </g>
   </g>
   <g id="matplotlib.axis_2">
    <g id="ytick_1">
     <g id="line2d_9">
      <defs>
       <path id="m913e5aed09" d="M 0 0 
L 3.5 0 
" style="stroke: #000000; stroke-width: 0.8"/>
      </defs>
      <g>
       <use xlink:href="#m913e5aed09" x="620.12" y="171.23" style="stroke: #000000; stroke-width: 0.8"/>
      </g>
     </g>
     <g id="text_9">
      <!-- LDHAL6B -->
      <g transform="translate(634.718438 194.444063) rotate(-90) scale(0.1 -0.1)">
       <use xlink:href="#DejaVuSans-4c"/>
       <use xlink:href="#DejaVuSans-44" x="55.712891"/>
       <use xlink:href="#DejaVuSans-48" x="132.714844"/>
       <use xlink:href="#DejaVuSans-41" x="207.910156"/>
       <use xlink:href="#DejaVuSans-4c" x="276.318359"/>
       <use xlink:href="#DejaVuSans-36" x="332.03125"/>
       <use xlink:href="#DejaVuSans-42" x="395.654297"/>
      </g>
     </g>
    </g>
    <g id="ytick_2">
     <g id="line2d_10">
      <g>
       <use xlink:href="#m913e5aed09" x="620.12" y="231.082" style="stroke: #000000; stroke-width: 0.8"/>
      </g>
     </g>
     <g id="text_10">
      <!-- DGUOK -->
      <g transform="translate(634.718438 249.680438) rotate(-90) scale(0.1 -0.1)">
       <use xlink:href="#DejaVuSans-44"/>
       <use xlink:href="#DejaVuSans-47" x="77.001953"/>
       <use xlink:href="#DejaVuSans-55" x="154.492188"/>
       <use xlink:href="#DejaVuSans-4f" x="227.685547"/>
       <use xlink:href="#DejaVuSans-4b" x="306.396484"/>
      </g>
     </g>
    </g>
    <g id="ytick_3">
     <g id="line2d_11">
      <g>
       <use xlink:href="#m913e5aed09" x="620.12" y="290.934" style="stroke: #000000; stroke-width: 0.8"/>
      </g>
     </g>
     <g id="text_11">
      <!-- UQCRFS1 -->
      <g transform="translate(634.718438 314.638688) rotate(-90) scale(0.1 -0.1)">
       <use xlink:href="#DejaVuSans-55"/>
       <use xlink:href="#DejaVuSans-51" x="73.193359"/>
       <use xlink:href="#DejaVuSans-43" x="151.904297"/>
       <use xlink:href="#DejaVuSans-52" x="221.728516"/>
       <use xlink:href="#DejaVuSans-46" x="291.210938"/>
       <use xlink:href="#DejaVuSans-53" x="346.980469"/>
       <use xlink:href="#DejaVuSans-31" x="410.457031"/>
      </g>
     </g>
    </g>
    <g id="ytick_4">
     <g id="line2d_12">
      <g>
       <use xlink:href="#m913e5aed09" x="620.12" y="350.786" style="stroke: #000000; stroke-width: 0.8"/>
      </g>
     </g>
     <g id="text_12">
      <!-- ECH1 -->
      <g transform="translate(634.718438 364.378188) rotate(-90) scale(0.1 -0.1)">
       <use xlink:href="#DejaVuSans-45"/>
       <use xlink:href="#DejaVuSans-43" x="63.183594"/>
       <use xlink:href="#DejaVuSans-48" x="133.007812"/>
       <use xlink:href="#DejaVuSans-31" x="208.203125"/>
      </g>
     </g>
    </g>
    <g id="ytick_5">
     <g id="line2d_13">
      <g>
       <use xlink:href="#m913e5aed09" x="620.12" y="410.638" style="stroke: #000000; stroke-width: 0.8"/>
      </g>
     </g>
     <g id="text_13">
      <!-- MRPS2 -->
      <g transform="translate(634.718438 427.796594) rotate(-90) scale(0.1 -0.1)">
       <use xlink:href="#DejaVuSans-4d"/>
       <use xlink:href="#DejaVuSans-52" x="86.279297"/>
       <use xlink:href="#DejaVuSans-50" x="155.761719"/>
       <use xlink:href="#DejaVuSans-53" x="216.064453"/>
       <use xlink:href="#DejaVuSans-32" x="279.541016"/>
      </g>
     </g>
    </g>
    <g id="ytick_6">
     <g id="line2d_14">
      <g>
       <use xlink:href="#m913e5aed09" x="620.12" y="470.49" style="stroke: #000000; stroke-width: 0.8"/>
      </g>
     </g>
     <g id="text_14">
      <!-- ACADVL -->
      <g transform="translate(634.718438 490.703281) rotate(-90) scale(0.1 -0.1)">
       <use xlink:href="#DejaVuSans-41"/>
       <use xlink:href="#DejaVuSans-43" x="66.658203"/>
       <use xlink:href="#DejaVuSans-41" x="136.482422"/>
       <use xlink:href="#DejaVuSans-44" x="204.890625"/>
       <use xlink:href="#DejaVuSans-56" x="280.142578"/>
       <use xlink:href="#DejaVuSans-4c" x="348.550781"/>
      </g>
     </g>
    </g>
    <g id="ytick_7">
     <g id="line2d_15">
      <g>
       <use xlink:href="#m913e5aed09" x="620.12" y="530.342" style="stroke: #000000; stroke-width: 0.8"/>
      </g>
     </g>
     <g id="text_15">
      <!-- SARS2 -->
      <g transform="translate(634.718438 546.859969) rotate(-90) scale(0.1 -0.1)">
       <use xlink:href="#DejaVuSans-53"/>
       <use xlink:href="#DejaVuSans-41" x="65.351562"/>
       <use xlink:href="#DejaVuSans-52" x="133.759766"/>
       <use xlink:href="#DejaVuSans-53" x="203.242188"/>
       <use xlink:href="#DejaVuSans-32" x="266.71875"/>
      </g>
     </g>
    </g>
    <g id="ytick_8">
     <g id="line2d_16">
      <g>
       <use xlink:href="#m913e5aed09" x="620.12" y="590.194" style="stroke: #000000; stroke-width: 0.8"/>
      </g>
     </g>
     <g id="text_16">
      <!-- HMGCL -->
      <g transform="translate(634.718438 608.419781) rotate(-90) scale(0.1 -0.1)">
       <use xlink:href="#DejaVuSans-48"/>
       <use xlink:href="#DejaVuSans-4d" x="75.195312"/>
       <use xlink:href="#DejaVuSans-47" x="161.474609"/>
       <use xlink:href="#DejaVuSans-43" x="238.964844"/>
       <use xlink:href="#DejaVuSans-4c" x="308.789062"/>
      </g>
     </g>
    </g>
   </g>
   <g id="text_17">
    <!-- 1 -->
    <g style="fill: #ffffff" transform="translate(227.90075 173.989375) scale(0.1 -0.1)">
     <use xlink:href="#DejaVuSans-31"/>
    </g>
   </g>
   <g id="text_18">
    <!-- 1 -->
    <g style="fill: #ffffff" transform="translate(287.75275 173.989375) scale(0.1 -0.1)">
     <use xlink:href="#DejaVuSans-31"/>
    </g>
   </g>
   <g id="text_19">
    <!-- 1 -->
    <g style="fill: #ffffff" transform="translate(347.60475 173.989375) scale(0.1 -0.1)">
     <use xlink:href="#DejaVuSans-31"/>
    </g>
   </g>
   <g id="text_20">
    <!-- 1 -->
    <g style="fill: #ffffff" transform="translate(407.45675 173.989375) scale(0.1 -0.1)">
     <use xlink:href="#DejaVuSans-31"/>
    </g>
   </g>
   <g id="text_21">
    <!-- 1 -->
    <g style="fill: #ffffff" transform="translate(467.30875 173.989375) scale(0.1 -0.1)">
     <use xlink:href="#DejaVuSans-31"/>
    </g>
   </g>
   <g id="text_22">
    <!-- 1 -->
    <g style="fill: #ffffff" transform="translate(527.16075 173.989375) scale(0.1 -0.1)">
     <use xlink:href="#DejaVuSans-31"/>
    </g>
   </g>
   <g id="text_23">
    <!-- 1 -->
    <g style="fill: #ffffff" transform="translate(587.01275 173.989375) scale(0.1 -0.1)">
     <use xlink:href="#DejaVuSans-31"/>
    </g>
   </g>
   <g id="text_24">
    <!-- 1 -->
    <g style="fill: #ffffff" transform="translate(287.75275 233.841375) scale(0.1 -0.1)">
     <use xlink:href="#DejaVuSans-31"/>
    </g>
   </g>
   <g id="text_25">
    <!-- 1 -->
    <g style="fill: #ffffff" transform="translate(347.60475 233.841375) scale(0.1 -0.1)">
     <use xlink:href="#DejaVuSans-31"/>
    </g>
   </g>
   <g id="text_26">
    <!-- 1 -->
    <g style="fill: #ffffff" transform="translate(407.45675 233.841375) scale(0.1 -0.1)">
     <use xlink:href="#DejaVuSans-31"/>
    </g>
   </g>
   <g id="text_27">
    <!-- 1 -->
    <g style="fill: #ffffff" transform="translate(467.30875 233.841375) scale(0.1 -0.1)">
     <use xlink:href="#DejaVuSans-31"/>
    </g>
   </g>
   <g id="text_28">
    <!-- 1 -->
    <g style="fill: #ffffff" transform="translate(527.16075 233.841375) scale(0.1 -0.1)">
     <use xlink:href="#DejaVuSans-31"/>
    </g>
   </g>
   <g id="text_29">
    <!-- 1 -->
    <g style="fill: #ffffff" transform="translate(587.01275 233.841375) scale(0.1 -0.1)">
     <use xlink:href="#DejaVuSans-31"/>
    </g>
   </g>
   <g id="text_30">
    <!-- 1 -->
    <g style="fill: #ffffff" transform="translate(347.60475 293.693375) scale(0.1 -0.1)">
     <use xlink:href="#DejaVuSans-31"/>
    </g>
   </g>
   <g id="text_31">
    <!-- 1 -->
    <g style="fill: #ffffff" transform="translate(407.45675 293.693375) scale(0.1 -0.1)">
     <use xlink:href="#DejaVuSans-31"/>
    </g>
   </g>
   <g id="text_32">
    <!-- 1 -->
    <g style="fill: #ffffff" transform="translate(467.30875 293.693375) scale(0.1 -0.1)">
     <use xlink:href="#DejaVuSans-31"/>
    </g>
   </g>
   <g id="text_33">
    <!-- 1 -->
    <g style="fill: #ffffff" transform="translate(527.16075 293.693375) scale(0.1 -0.1)">
     <use xlink:href="#DejaVuSans-31"/>
    </g>
   </g>
   <g id="text_34">
    <!-- 1 -->
    <g style="fill: #ffffff" transform="translate(587.01275 293.693375) scale(0.1 -0.1)">
     <use xlink:href="#DejaVuSans-31"/>
    </g>
   </g>
   <g id="text_35">
    <!-- 1 -->
    <g style="fill: #ffffff" transform="translate(407.45675 353.545375) scale(0.1 -0.1)">
     <use xlink:href="#DejaVuSans-31"/>
    </g>
   </g>
   <g id="text_36">
    <!-- 1 -->
    <g style="fill: #ffffff" transform="translate(467.30875 353.545375) scale(0.1 -0.1)">
     <use xlink:href="#DejaVuSans-31"/>
    </g>
   </g>
   <g id="text_37">
    <!-- 1 -->
    <g style="fill: #ffffff" transform="translate(527.16075 353.545375) scale(0.1 -0.1)">
     <use xlink:href="#DejaVuSans-31"/>
    </g>
   </g>
   <g id="text_38">
    <!-- 1 -->
    <g style="fill: #ffffff" transform="translate(587.01275 353.545375) scale(0.1 -0.1)">
     <use xlink:href="#DejaVuSans-31"/>
    </g>
   </g>
   <g id="text_39">
    <!-- 1 -->
    <g style="fill: #ffffff" transform="translate(467.30875 413.397375) scale(0.1 -0.1)">
     <use xlink:href="#DejaVuSans-31"/>
    </g>
   </g>
   <g id="text_40">
    <!-- 1 -->
    <g style="fill: #ffffff" transform="translate(527.16075 413.397375) scale(0.1 -0.1)">
     <use xlink:href="#DejaVuSans-31"/>
    </g>
   </g>
   <g id="text_41">
    <!-- 1 -->
    <g style="fill: #ffffff" transform="translate(587.01275 413.397375) scale(0.1 -0.1)">
     <use xlink:href="#DejaVuSans-31"/>
    </g>
   </g>
   <g id="text_42">
    <!-- 0.99 -->
    <g style="fill: #262626" transform="translate(519.209187 473.249375) scale(0.1 -0.1)">
     <defs>
      <path id="DejaVuSans-30" d="M 2034 4250 
Q 1547 4250 1301 3770 
Q 1056 3291 1056 2328 
Q 1056 1369 1301 889 
Q 1547 409 2034 409 
Q 2525 409 2770 889 
Q 3016 1369 3016 2328 
Q 3016 3291 2770 3770 
Q 2525 4250 2034 4250 
z
M 2034 4750 
Q 2819 4750 3233 4129 
Q 3647 3509 3647 2328 
Q 3647 1150 3233 529 
Q 2819 -91 2034 -91 
Q 1250 -91 836 529 
Q 422 1150 422 2328 
Q 422 3509 836 4129 
Q 1250 4750 2034 4750 
z
" transform="scale(0.015625)"/>
      <path id="DejaVuSans-2e" d="M 684 794 
L 1344 794 
L 1344 0 
L 684 0 
L 684 794 
z
" transform="scale(0.015625)"/>
      <path id="DejaVuSans-39" d="M 703 97 
L 703 672 
Q 941 559 1184 500 
Q 1428 441 1663 441 
Q 2288 441 2617 861 
Q 2947 1281 2994 2138 
Q 2813 1869 2534 1725 
Q 2256 1581 1919 1581 
Q 1219 1581 811 2004 
Q 403 2428 403 3163 
Q 403 3881 828 4315 
Q 1253 4750 1959 4750 
Q 2769 4750 3195 4129 
Q 3622 3509 3622 2328 
Q 3622 1225 3098 567 
Q 2575 -91 1691 -91 
Q 1453 -91 1209 -44 
Q 966 3 703 97 
z
M 1959 2075 
Q 2384 2075 2632 2365 
Q 2881 2656 2881 3163 
Q 2881 3666 2632 3958 
Q 2384 4250 1959 4250 
Q 1534 4250 1286 3958 
Q 1038 3666 1038 3163 
Q 1038 2656 1286 2365 
Q 1534 2075 1959 2075 
z
" transform="scale(0.015625)"/>
     </defs>
     <use xlink:href="#DejaVuSans-30"/>
     <use xlink:href="#DejaVuSans-2e" x="63.623047"/>
     <use xlink:href="#DejaVuSans-39" x="95.410156"/>
     <use xlink:href="#DejaVuSans-39" x="159.033203"/>
    </g>
   </g>
   <g id="text_43">
    <!-- 1 -->
    <g style="fill: #ffffff" transform="translate(587.01275 473.249375) scale(0.1 -0.1)">
     <use xlink:href="#DejaVuSans-31"/>
    </g>
   </g>
   <g id="text_44">
    <!-- 0.96 -->
    <g style="fill: #ffffff" transform="translate(579.061188 533.101375) scale(0.1 -0.1)">
     <use xlink:href="#DejaVuSans-30"/>
     <use xlink:href="#DejaVuSans-2e" x="63.623047"/>
     <use xlink:href="#DejaVuSans-39" x="95.410156"/>
     <use xlink:href="#DejaVuSans-36" x="159.033203"/>
    </g>
   </g>
   <g id="text_45">
    <!-- 0.34 -->
    <g style="fill: #262626" transform="translate(160.097188 233.841375) scale(0.1 -0.1)">
     <defs>
      <path id="DejaVuSans-33" d="M 2597 2516 
Q 3050 2419 3304 2112 
Q 3559 1806 3559 1356 
Q 3559 666 3084 287 
Q 2609 -91 1734 -91 
Q 1441 -91 1130 -33 
Q 819 25 488 141 
L 488 750 
Q 750 597 1062 519 
Q 1375 441 1716 441 
Q 2309 441 2620 675 
Q 2931 909 2931 1356 
Q 2931 1769 2642 2001 
Q 2353 2234 1838 2234 
L 1294 2234 
L 1294 2753 
L 1863 2753 
Q 2328 2753 2575 2939 
Q 2822 3125 2822 3475 
Q 2822 3834 2567 4026 
Q 2313 4219 1838 4219 
Q 1578 4219 1281 4162 
Q 984 4106 628 3988 
L 628 4550 
Q 988 4650 1302 4700 
Q 1616 4750 1894 4750 
Q 2613 4750 3031 4423 
Q 3450 4097 3450 3541 
Q 3450 3153 3228 2886 
Q 3006 2619 2597 2516 
z
" transform="scale(0.015625)"/>
      <path id="DejaVuSans-34" d="M 2419 4116 
L 825 1625 
L 2419 1625 
L 2419 4116 
z
M 2253 4666 
L 3047 4666 
L 3047 1625 
L 3713 1625 
L 3713 1100 
L 3047 1100 
L 3047 0 
L 2419 0 
L 2419 1100 
L 313 1100 
L 313 1709 
L 2253 4666 
z
" transform="scale(0.015625)"/>
     </defs>
     <use xlink:href="#DejaVuSans-30"/>
     <use xlink:href="#DejaVuSans-2e" x="63.623047"/>
     <use xlink:href="#DejaVuSans-33" x="95.410156"/>
     <use xlink:href="#DejaVuSans-34" x="159.033203"/>
    </g>
   </g>
   <g id="text_46">
    <!-- 0.56 -->
    <g style="fill: #ffffff" transform="translate(160.097188 293.693375) scale(0.1 -0.1)">
     <defs>
      <path id="DejaVuSans-35" d="M 691 4666 
L 3169 4666 
L 3169 4134 
L 1269 4134 
L 1269 2991 
Q 1406 3038 1543 3061 
Q 1681 3084 1819 3084 
Q 2600 3084 3056 2656 
Q 3513 2228 3513 1497 
Q 3513 744 3044 326 
Q 2575 -91 1722 -91 
Q 1428 -91 1123 -41 
Q 819 9 494 109 
L 494 744 
Q 775 591 1075 516 
Q 1375 441 1709 441 
Q 2250 441 2565 725 
Q 2881 1009 2881 1497 
Q 2881 1984 2565 2268 
Q 2250 2553 1709 2553 
Q 1456 2553 1204 2497 
Q 953 2441 691 2322 
L 691 4666 
z
" transform="scale(0.015625)"/>
     </defs>
     <use xlink:href="#DejaVuSans-30"/>
     <use xlink:href="#DejaVuSans-2e" x="63.623047"/>
     <use xlink:href="#DejaVuSans-35" x="95.410156"/>
     <use xlink:href="#DejaVuSans-36" x="159.033203"/>
    </g>
   </g>
   <g id="text_47">
    <!-- 0.39 -->
    <g style="fill: #262626" transform="translate(219.949187 293.693375) scale(0.1 -0.1)">
     <use xlink:href="#DejaVuSans-30"/>
     <use xlink:href="#DejaVuSans-2e" x="63.623047"/>
     <use xlink:href="#DejaVuSans-33" x="95.410156"/>
     <use xlink:href="#DejaVuSans-39" x="159.033203"/>
    </g>
   </g>
   <g id="text_48">
    <!-- 0.34 -->
    <g style="fill: #262626" transform="translate(160.097188 353.545375) scale(0.1 -0.1)">
     <use xlink:href="#DejaVuSans-30"/>
     <use xlink:href="#DejaVuSans-2e" x="63.623047"/>
     <use xlink:href="#DejaVuSans-33" x="95.410156"/>
     <use xlink:href="#DejaVuSans-34" x="159.033203"/>
    </g>
   </g>
   <g id="text_49">
    <!-- 0.37 -->
    <g style="fill: #262626" transform="translate(219.949187 353.545375) scale(0.1 -0.1)">
     <defs>
      <path id="DejaVuSans-37" d="M 525 4666 
L 3525 4666 
L 3525 4397 
L 1831 0 
L 1172 0 
L 2766 4134 
L 525 4134 
L 525 4666 
z
" transform="scale(0.015625)"/>
     </defs>
     <use xlink:href="#DejaVuSans-30"/>
     <use xlink:href="#DejaVuSans-2e" x="63.623047"/>
     <use xlink:href="#DejaVuSans-33" x="95.410156"/>
     <use xlink:href="#DejaVuSans-37" x="159.033203"/>
    </g>
   </g>
   <g id="text_50">
    <!-- 0.45 -->
    <g style="fill: #ffffff" transform="translate(279.801187 353.545375) scale(0.1 -0.1)">
     <use xlink:href="#DejaVuSans-30"/>
     <use xlink:href="#DejaVuSans-2e" x="63.623047"/>
     <use xlink:href="#DejaVuSans-34" x="95.410156"/>
     <use xlink:href="#DejaVuSans-35" x="159.033203"/>
    </g>
   </g>
   <g id="text_51">
    <!-- 0.18 -->
    <g style="fill: #262626" transform="translate(160.097188 413.397375) scale(0.1 -0.1)">
     <defs>
      <path id="DejaVuSans-38" d="M 2034 2216 
Q 1584 2216 1326 1975 
Q 1069 1734 1069 1313 
Q 1069 891 1326 650 
Q 1584 409 2034 409 
Q 2484 409 2743 651 
Q 3003 894 3003 1313 
Q 3003 1734 2745 1975 
Q 2488 2216 2034 2216 
z
M 1403 2484 
Q 997 2584 770 2862 
Q 544 3141 544 3541 
Q 544 4100 942 4425 
Q 1341 4750 2034 4750 
Q 2731 4750 3128 4425 
Q 3525 4100 3525 3541 
Q 3525 3141 3298 2862 
Q 3072 2584 2669 2484 
Q 3125 2378 3379 2068 
Q 3634 1759 3634 1313 
Q 3634 634 3220 271 
Q 2806 -91 2034 -91 
Q 1263 -91 848 271 
Q 434 634 434 1313 
Q 434 1759 690 2068 
Q 947 2378 1403 2484 
z
M 1172 3481 
Q 1172 3119 1398 2916 
Q 1625 2713 2034 2713 
Q 2441 2713 2670 2916 
Q 2900 3119 2900 3481 
Q 2900 3844 2670 4047 
Q 2441 4250 2034 4250 
Q 1625 4250 1398 4047 
Q 1172 3844 1172 3481 
z
" transform="scale(0.015625)"/>
     </defs>
     <use xlink:href="#DejaVuSans-30"/>
     <use xlink:href="#DejaVuSans-2e" x="63.623047"/>
     <use xlink:href="#DejaVuSans-31" x="95.410156"/>
     <use xlink:href="#DejaVuSans-38" x="159.033203"/>
    </g>
   </g>
   <g id="text_52">
    <!-- 0.29 -->
    <g style="fill: #262626" transform="translate(219.949187 413.397375) scale(0.1 -0.1)">
     <use xlink:href="#DejaVuSans-30"/>
     <use xlink:href="#DejaVuSans-2e" x="63.623047"/>
     <use xlink:href="#DejaVuSans-32" x="95.410156"/>
     <use xlink:href="#DejaVuSans-39" x="159.033203"/>
    </g>
   </g>
   <g id="text_53">
    <!-- 0.32 -->
    <g style="fill: #262626" transform="translate(279.801187 413.397375) scale(0.1 -0.1)">
     <use xlink:href="#DejaVuSans-30"/>
     <use xlink:href="#DejaVuSans-2e" x="63.623047"/>
     <use xlink:href="#DejaVuSans-33" x="95.410156"/>
     <use xlink:href="#DejaVuSans-32" x="159.033203"/>
    </g>
   </g>
   <g id="text_54">
    <!-- 0.18 -->
    <g style="fill: #262626" transform="translate(339.653188 413.397375) scale(0.1 -0.1)">
     <use xlink:href="#DejaVuSans-30"/>
     <use xlink:href="#DejaVuSans-2e" x="63.623047"/>
     <use xlink:href="#DejaVuSans-31" x="95.410156"/>
     <use xlink:href="#DejaVuSans-38" x="159.033203"/>
    </g>
   </g>
   <g id="text_55">
    <!-- 0.7 -->
    <g style="fill: #ffffff" transform="translate(163.278438 473.249375) scale(0.1 -0.1)">
     <use xlink:href="#DejaVuSans-30"/>
     <use xlink:href="#DejaVuSans-2e" x="63.623047"/>
     <use xlink:href="#DejaVuSans-37" x="95.410156"/>
    </g>
   </g>
   <g id="text_56">
    <!-- 0.63 -->
    <g style="fill: #ffffff" transform="translate(219.949187 473.249375) scale(0.1 -0.1)">
     <use xlink:href="#DejaVuSans-30"/>
     <use xlink:href="#DejaVuSans-2e" x="63.623047"/>
     <use xlink:href="#DejaVuSans-36" x="95.410156"/>
     <use xlink:href="#DejaVuSans-33" x="159.033203"/>
    </g>
   </g>
   <g id="text_57">
    <!-- 0.67 -->
    <g style="fill: #ffffff" transform="translate(279.801187 473.249375) scale(0.1 -0.1)">
     <use xlink:href="#DejaVuSans-30"/>
     <use xlink:href="#DejaVuSans-2e" x="63.623047"/>
     <use xlink:href="#DejaVuSans-36" x="95.410156"/>
     <use xlink:href="#DejaVuSans-37" x="159.033203"/>
    </g>
   </g>
   <g id="text_58">
    <!-- 0.72 -->
    <g style="fill: #ffffff" transform="translate(339.653188 473.249375) scale(0.1 -0.1)">
     <use xlink:href="#DejaVuSans-30"/>
     <use xlink:href="#DejaVuSans-2e" x="63.623047"/>
     <use xlink:href="#DejaVuSans-37" x="95.410156"/>
     <use xlink:href="#DejaVuSans-32" x="159.033203"/>
    </g>
   </g>
   <g id="text_59">
    <!-- 0.25 -->
    <g style="fill: #262626" transform="translate(399.505188 473.249375) scale(0.1 -0.1)">
     <use xlink:href="#DejaVuSans-30"/>
     <use xlink:href="#DejaVuSans-2e" x="63.623047"/>
     <use xlink:href="#DejaVuSans-32" x="95.410156"/>
     <use xlink:href="#DejaVuSans-35" x="159.033203"/>
    </g>
   </g>
   <g id="text_60">
    <!-- 0.53 -->
    <g style="fill: #ffffff" transform="translate(160.097188 533.101375) scale(0.1 -0.1)">
     <use xlink:href="#DejaVuSans-30"/>
     <use xlink:href="#DejaVuSans-2e" x="63.623047"/>
     <use xlink:href="#DejaVuSans-35" x="95.410156"/>
     <use xlink:href="#DejaVuSans-33" x="159.033203"/>
    </g>
   </g>
   <g id="text_61">
    <!-- 0.68 -->
    <g style="fill: #ffffff" transform="translate(219.949187 533.101375) scale(0.1 -0.1)">
     <use xlink:href="#DejaVuSans-30"/>
     <use xlink:href="#DejaVuSans-2e" x="63.623047"/>
     <use xlink:href="#DejaVuSans-36" x="95.410156"/>
     <use xlink:href="#DejaVuSans-38" x="159.033203"/>
    </g>
   </g>
   <g id="text_62">
    <!-- 0.64 -->
    <g style="fill: #ffffff" transform="translate(279.801187 533.101375) scale(0.1 -0.1)">
     <use xlink:href="#DejaVuSans-30"/>
     <use xlink:href="#DejaVuSans-2e" x="63.623047"/>
     <use xlink:href="#DejaVuSans-36" x="95.410156"/>
     <use xlink:href="#DejaVuSans-34" x="159.033203"/>
    </g>
   </g>
   <g id="text_63">
    <!-- 0.34 -->
    <g style="fill: #262626" transform="translate(339.653188 533.101375) scale(0.1 -0.1)">
     <use xlink:href="#DejaVuSans-30"/>
     <use xlink:href="#DejaVuSans-2e" x="63.623047"/>
     <use xlink:href="#DejaVuSans-33" x="95.410156"/>
     <use xlink:href="#DejaVuSans-34" x="159.033203"/>
    </g>
   </g>
   <g id="text_64">
    <!-- 0.38 -->
    <g style="fill: #262626" transform="translate(399.505188 533.101375) scale(0.1 -0.1)">
     <use xlink:href="#DejaVuSans-30"/>
     <use xlink:href="#DejaVuSans-2e" x="63.623047"/>
     <use xlink:href="#DejaVuSans-33" x="95.410156"/>
     <use xlink:href="#DejaVuSans-38" x="159.033203"/>
    </g>
   </g>
   <g id="text_65">
    <!-- 0.51 -->
    <g style="fill: #ffffff" transform="translate(459.357188 533.101375) scale(0.1 -0.1)">
     <use xlink:href="#DejaVuSans-30"/>
     <use xlink:href="#DejaVuSans-2e" x="63.623047"/>
     <use xlink:href="#DejaVuSans-35" x="95.410156"/>
     <use xlink:href="#DejaVuSans-31" x="159.033203"/>
    </g>
   </g>
   <g id="text_66">
    <!-- 0.82 -->
    <g style="fill: #ffffff" transform="translate(160.097188 592.953375) scale(0.1 -0.1)">
     <use xlink:href="#DejaVuSans-30"/>
     <use xlink:href="#DejaVuSans-2e" x="63.623047"/>
     <use xlink:href="#DejaVuSans-38" x="95.410156"/>
     <use xlink:href="#DejaVuSans-32" x="159.033203"/>
    </g>
   </g>
   <g id="text_67">
    <!-- 0.5 -->
    <g style="fill: #ffffff" transform="translate(223.130437 592.953375) scale(0.1 -0.1)">
     <use xlink:href="#DejaVuSans-30"/>
     <use xlink:href="#DejaVuSans-2e" x="63.623047"/>
     <use xlink:href="#DejaVuSans-35" x="95.410156"/>
    </g>
   </g>
   <g id="text_68">
    <!-- 0.87 -->
    <g style="fill: #ffffff" transform="translate(279.801187 592.953375) scale(0.1 -0.1)">
     <use xlink:href="#DejaVuSans-30"/>
     <use xlink:href="#DejaVuSans-2e" x="63.623047"/>
     <use xlink:href="#DejaVuSans-38" x="95.410156"/>
     <use xlink:href="#DejaVuSans-37" x="159.033203"/>
    </g>
   </g>
   <g id="text_69">
    <!-- 0.71 -->
    <g style="fill: #ffffff" transform="translate(339.653188 592.953375) scale(0.1 -0.1)">
     <use xlink:href="#DejaVuSans-30"/>
     <use xlink:href="#DejaVuSans-2e" x="63.623047"/>
     <use xlink:href="#DejaVuSans-37" x="95.410156"/>
     <use xlink:href="#DejaVuSans-31" x="159.033203"/>
    </g>
   </g>
   <g id="text_70">
    <!-- 0.24 -->
    <g style="fill: #262626" transform="translate(399.505188 592.953375) scale(0.1 -0.1)">
     <use xlink:href="#DejaVuSans-30"/>
     <use xlink:href="#DejaVuSans-2e" x="63.623047"/>
     <use xlink:href="#DejaVuSans-32" x="95.410156"/>
     <use xlink:href="#DejaVuSans-34" x="159.033203"/>
    </g>
   </g>
   <g id="text_71">
    <!-- 0.97 -->
    <g style="fill: #ffffff" transform="translate(459.357188 592.953375) scale(0.1 -0.1)">
     <use xlink:href="#DejaVuSans-30"/>
     <use xlink:href="#DejaVuSans-2e" x="63.623047"/>
     <use xlink:href="#DejaVuSans-39" x="95.410156"/>
     <use xlink:href="#DejaVuSans-37" x="159.033203"/>
    </g>
   </g>
   <g id="text_72">
    <!-- 0.79 -->
    <g style="fill: #ffffff" transform="translate(519.209187 592.953375) scale(0.1 -0.1)">
     <use xlink:href="#DejaVuSans-30"/>
     <use xlink:href="#DejaVuSans-2e" x="63.623047"/>
     <use xlink:href="#DejaVuSans-37" x="95.410156"/>
     <use xlink:href="#DejaVuSans-39" x="159.033203"/>
    </g>
   </g>
   <g id="text_73">
    <!-- 1 -->
    <g style="fill: #ffffff" transform="translate(168.04875 173.989375) scale(0.1 -0.1)">
     <use xlink:href="#DejaVuSans-31"/>
    </g>
   </g>
   <g id="text_74">
    <!-- 1 -->
    <g style="fill: #ffffff" transform="translate(227.90075 233.841375) scale(0.1 -0.1)">
     <use xlink:href="#DejaVuSans-31"/>
    </g>
   </g>
   <g id="text_75">
    <!-- 1 -->
    <g style="fill: #ffffff" transform="translate(287.75275 293.693375) scale(0.1 -0.1)">
     <use xlink:href="#DejaVuSans-31"/>
    </g>
   </g>
   <g id="text_76">
    <!-- 1 -->
    <g style="fill: #ffffff" transform="translate(347.60475 353.545375) scale(0.1 -0.1)">
     <use xlink:href="#DejaVuSans-31"/>
    </g>
   </g>
   <g id="text_77">
    <!-- 1 -->
    <g style="fill: #ffffff" transform="translate(407.45675 413.397375) scale(0.1 -0.1)">
     <use xlink:href="#DejaVuSans-31"/>
    </g>
   </g>
   <g id="text_78">
    <!-- 1 -->
    <g style="fill: #ffffff" transform="translate(467.30875 473.249375) scale(0.1 -0.1)">
     <use xlink:href="#DejaVuSans-31"/>
    </g>
   </g>
   <g id="text_79">
    <!-- 1 -->
    <g style="fill: #ffffff" transform="translate(527.16075 533.101375) scale(0.1 -0.1)">
     <use xlink:href="#DejaVuSans-31"/>
    </g>
   </g>
   <g id="text_80">
    <!-- 1 -->
    <g style="fill: #ffffff" transform="translate(587.01275 592.953375) scale(0.1 -0.1)">
     <use xlink:href="#DejaVuSans-31"/>
    </g>
   </g>
  </g>
 </g>
 <defs>
  <clipPath id="pbbf841dc0f">
   <rect x="10.8" y="141.304" width="119.704" height="478.816"/>
  </clipPath>
  <clipPath id="p7bf0808da2">
   <rect x="141.304" y="10.8" width="478.816" height="119.704"/>
  </clipPath>
  <clipPath id="p27cc23b222">
   <rect x="141.304" y="141.304" width="478.816" height="478.816"/>
  </clipPath>
 </defs>
</svg>
