<?xml version="1.0" encoding="utf-8" standalone="no"?>
<!DOCTYPE svg PUBLIC "-//W3C//DTD SVG 1.1//EN"
  "http://www.w3.org/Graphics/SVG/1.1/DTD/svg11.dtd">
<svg xmlns:xlink="http://www.w3.org/1999/xlink" width="216pt" height="216pt" viewBox="0 0 216 216" xmlns="http://www.w3.org/2000/svg" version="1.1">
 <metadata>
  <rdf:RDF xmlns:dc="http://purl.org/dc/elements/1.1/" xmlns:cc="http://creativecommons.org/ns#" xmlns:rdf="http://www.w3.org/1999/02/22-rdf-syntax-ns#">
   <cc:Work>
    <dc:type rdf:resource="http://purl.org/dc/dcmitype/StillImage"/>
    <dc:date>2024-11-13T10:24:28.963673</dc:date>
    <dc:format>image/svg+xml</dc:format>
    <dc:creator>
     <cc:Agent>
      <dc:title>Matplotlib v3.6.2, https://matplotlib.org/</dc:title>
     </cc:Agent>
    </dc:creator>
   </cc:Work>
  </rdf:RDF>
 </metadata>
 <defs>
  <style type="text/css">*{stroke-linejoin: round; stroke-linecap: butt}</style>
 </defs>
 <g id="figure_1">
  <g id="patch_1">
   <path d="M 0 216 
L 216 216 
L 216 0 
L 0 0 
z
" style="fill: #ffffff"/>
  </g>
  <g id="axes_1">
   <g id="LineCollection_1">
    <path d="M 27.092 74.549 
L 11.57581 74.549 
L 11.57581 147.863 
L 27.092 147.863 
" clip-path="url(#p4087f1a39a)" style="fill: none; stroke: #333333; stroke-width: 0.5"/>
   </g>
  </g>
  <g id="axes_2">
   <g id="LineCollection_2">
    <path d="M 74.549 27.092 
L 74.549 11.57581 
L 147.863 11.57581 
L 147.863 27.092 
" clip-path="url(#pf2ca46d371)" style="fill: none; stroke: #333333; stroke-width: 0.5"/>
   </g>
  </g>
  <g id="axes_3">
   <g id="patch_2">
    <path d="M 37.892 184.52 
L 184.52 184.52 
L 184.52 37.892 
L 37.892 37.892 
z
" style="fill: #ffffff"/>
   </g>
   <g id="QuadMesh_1">
    <path d="M 37.892 37.892 
L 111.206 37.892 
L 111.206 111.206 
L 37.892 111.206 
L 37.892 37.892 
" clip-path="url(#pb73eddf931)" style="fill: #67001f"/>
    <path d="M 111.206 37.892 
L 184.52 37.892 
L 184.52 111.206 
L 111.206 111.206 
L 111.206 37.892 
" clip-path="url(#pb73eddf931)" style="fill: #960f27"/>
    <path d="M 37.892 111.206 
L 111.206 111.206 
L 111.206 184.52 
L 37.892 184.52 
L 37.892 111.206 
" clip-path="url(#pb73eddf931)" style="fill: #960f27"/>
    <path d="M 111.206 111.206 
L 184.52 111.206 
L 184.52 184.52 
L 111.206 184.52 
L 111.206 111.206 
" clip-path="url(#pb73eddf931)" style="fill: #67001f"/>
   </g>
   <g id="QuadMesh_2">
    <path d="M 37.892 37.892 
L 111.206 37.892 
L 111.206 111.206 
L 37.892 111.206 
L 37.892 37.892 
" clip-path="url(#pb73eddf931)" style="fill: none"/>
    <path d="M 111.206 37.892 
L 184.52 37.892 
L 184.52 111.206 
L 111.206 111.206 
L 111.206 37.892 
" clip-path="url(#pb73eddf931)" style="fill: #960f27"/>
    <path d="M 37.892 111.206 
L 111.206 111.206 
L 111.206 184.52 
L 37.892 184.52 
L 37.892 111.206 
" clip-path="url(#pb73eddf931)" style="fill: none"/>
    <path d="M 111.206 111.206 
L 184.52 111.206 
L 184.52 184.52 
L 111.206 184.52 
L 111.206 111.206 
" clip-path="url(#pb73eddf931)" style="fill: none"/>
   </g>
   <g id="QuadMesh_3">
    <path d="M 37.892 37.892 
L 111.206 37.892 
L 111.206 111.206 
L 37.892 111.206 
L 37.892 37.892 
" clip-path="url(#pb73eddf931)" style="fill: none"/>
    <path d="M 111.206 37.892 
L 184.52 37.892 
L 184.52 111.206 
L 111.206 111.206 
L 111.206 37.892 
" clip-path="url(#pb73eddf931)" style="fill: none"/>
    <path d="M 37.892 111.206 
L 111.206 111.206 
L 111.206 184.52 
L 37.892 184.52 
L 37.892 111.206 
" clip-path="url(#pb73eddf931)" style="fill: #e86c12"/>
    <path d="M 111.206 111.206 
L 184.52 111.206 
L 184.52 184.52 
L 111.206 184.52 
L 111.206 111.206 
" clip-path="url(#pb73eddf931)" style="fill: none"/>
   </g>
   <g id="QuadMesh_4">
    <path d="M 37.892 37.892 
L 111.206 37.892 
L 111.206 111.206 
L 37.892 111.206 
L 37.892 37.892 
" clip-path="url(#pb73eddf931)"/>
    <path d="M 111.206 37.892 
L 184.52 37.892 
L 184.52 111.206 
L 111.206 111.206 
L 111.206 37.892 
" clip-path="url(#pb73eddf931)" style="fill: none"/>
    <path d="M 37.892 111.206 
L 111.206 111.206 
L 111.206 184.52 
L 37.892 184.52 
L 37.892 111.206 
" clip-path="url(#pb73eddf931)" style="fill: none"/>
    <path d="M 111.206 111.206 
L 184.52 111.206 
L 184.52 184.52 
L 111.206 184.52 
L 111.206 111.206 
" clip-path="url(#pb73eddf931)"/>
   </g>
   <g id="matplotlib.axis_1">
    <g id="xtick_1">
     <g id="line2d_1">
      <defs>
       <path id="m416be0669c" d="M 0 0 
L 0 3.5 
" style="stroke: #000000; stroke-width: 0.8"/>
      </defs>
      <g>
       <use xlink:href="#m416be0669c" x="74.549" y="184.52" style="stroke: #000000; stroke-width: 0.8"/>
      </g>
     </g>
     <g id="text_1">
      <!-- FOXO3 -->
      <g transform="translate(51.146031 202.157813) scale(0.14 -0.14)">
       <defs>
        <path id="DejaVuSans-46" d="M 628 4666 
L 3309 4666 
L 3309 4134 
L 1259 4134 
L 1259 2759 
L 3109 2759 
L 3109 2228 
L 1259 2228 
L 1259 0 
L 628 0 
L 628 4666 
z
" transform="scale(0.015625)"/>
        <path id="DejaVuSans-4f" d="M 2522 4238 
Q 1834 4238 1429 3725 
Q 1025 3213 1025 2328 
Q 1025 1447 1429 934 
Q 1834 422 2522 422 
Q 3209 422 3611 934 
Q 4013 1447 4013 2328 
Q 4013 3213 3611 3725 
Q 3209 4238 2522 4238 
z
M 2522 4750 
Q 3503 4750 4090 4092 
Q 4678 3434 4678 2328 
Q 4678 1225 4090 567 
Q 3503 -91 2522 -91 
Q 1538 -91 948 565 
Q 359 1222 359 2328 
Q 359 3434 948 4092 
Q 1538 4750 2522 4750 
z
" transform="scale(0.015625)"/>
        <path id="DejaVuSans-58" d="M 403 4666 
L 1081 4666 
L 2241 2931 
L 3406 4666 
L 4084 4666 
L 2584 2425 
L 4184 0 
L 3506 0 
L 2194 1984 
L 872 0 
L 191 0 
L 1856 2491 
L 403 4666 
z
" transform="scale(0.015625)"/>
        <path id="DejaVuSans-33" d="M 2597 2516 
Q 3050 2419 3304 2112 
Q 3559 1806 3559 1356 
Q 3559 666 3084 287 
Q 2609 -91 1734 -91 
Q 1441 -91 1130 -33 
Q 819 25 488 141 
L 488 750 
Q 750 597 1062 519 
Q 1375 441 1716 441 
Q 2309 441 2620 675 
Q 2931 909 2931 1356 
Q 2931 1769 2642 2001 
Q 2353 2234 1838 2234 
L 1294 2234 
L 1294 2753 
L 1863 2753 
Q 2328 2753 2575 2939 
Q 2822 3125 2822 3475 
Q 2822 3834 2567 4026 
Q 2313 4219 1838 4219 
Q 1578 4219 1281 4162 
Q 984 4106 628 3988 
L 628 4550 
Q 988 4650 1302 4700 
Q 1616 4750 1894 4750 
Q 2613 4750 3031 4423 
Q 3450 4097 3450 3541 
Q 3450 3153 3228 2886 
Q 3006 2619 2597 2516 
z
" transform="scale(0.015625)"/>
       </defs>
       <use xlink:href="#DejaVuSans-46"/>
       <use xlink:href="#DejaVuSans-4f" x="57.519531"/>
       <use xlink:href="#DejaVuSans-58" x="129.855469"/>
       <use xlink:href="#DejaVuSans-4f" x="191.986328"/>
       <use xlink:href="#DejaVuSans-33" x="270.697266"/>
      </g>
     </g>
    </g>
    <g id="xtick_2">
     <g id="line2d_2">
      <g>
       <use xlink:href="#m416be0669c" x="147.863" y="184.52" style="stroke: #000000; stroke-width: 0.8"/>
      </g>
     </g>
     <g id="text_2">
      <!-- TGFB1 -->
      <g transform="translate(124.881125 202.157813) scale(0.14 -0.14)">
       <defs>
        <path id="DejaVuSans-54" d="M -19 4666 
L 3928 4666 
L 3928 4134 
L 2272 4134 
L 2272 0 
L 1638 0 
L 1638 4134 
L -19 4134 
L -19 4666 
z
" transform="scale(0.015625)"/>
        <path id="DejaVuSans-47" d="M 3809 666 
L 3809 1919 
L 2778 1919 
L 2778 2438 
L 4434 2438 
L 4434 434 
Q 4069 175 3628 42 
Q 3188 -91 2688 -91 
Q 1594 -91 976 548 
Q 359 1188 359 2328 
Q 359 3472 976 4111 
Q 1594 4750 2688 4750 
Q 3144 4750 3555 4637 
Q 3966 4525 4313 4306 
L 4313 3634 
Q 3963 3931 3569 4081 
Q 3175 4231 2741 4231 
Q 1884 4231 1454 3753 
Q 1025 3275 1025 2328 
Q 1025 1384 1454 906 
Q 1884 428 2741 428 
Q 3075 428 3337 486 
Q 3600 544 3809 666 
z
" transform="scale(0.015625)"/>
        <path id="DejaVuSans-42" d="M 1259 2228 
L 1259 519 
L 2272 519 
Q 2781 519 3026 730 
Q 3272 941 3272 1375 
Q 3272 1813 3026 2020 
Q 2781 2228 2272 2228 
L 1259 2228 
z
M 1259 4147 
L 1259 2741 
L 2194 2741 
Q 2656 2741 2882 2914 
Q 3109 3088 3109 3444 
Q 3109 3797 2882 3972 
Q 2656 4147 2194 4147 
L 1259 4147 
z
M 628 4666 
L 2241 4666 
Q 2963 4666 3353 4366 
Q 3744 4066 3744 3513 
Q 3744 3084 3544 2831 
Q 3344 2578 2956 2516 
Q 3422 2416 3680 2098 
Q 3938 1781 3938 1306 
Q 3938 681 3513 340 
Q 3088 0 2303 0 
L 628 0 
L 628 4666 
z
" transform="scale(0.015625)"/>
        <path id="DejaVuSans-31" d="M 794 531 
L 1825 531 
L 1825 4091 
L 703 3866 
L 703 4441 
L 1819 4666 
L 2450 4666 
L 2450 531 
L 3481 531 
L 3481 0 
L 794 0 
L 794 531 
z
" transform="scale(0.015625)"/>
       </defs>
       <use xlink:href="#DejaVuSans-54"/>
       <use xlink:href="#DejaVuSans-47" x="61.083984"/>
       <use xlink:href="#DejaVuSans-46" x="138.574219"/>
       <use xlink:href="#DejaVuSans-42" x="196.09375"/>
       <use xlink:href="#DejaVuSans-31" x="264.697266"/>
      </g>
     </g>
    </g>
   </g>
   <g id="matplotlib.axis_2">
    <g id="ytick_1">
     <g id="line2d_3">
      <defs>
       <path id="mefd1c8f6a8" d="M 0 0 
L 3.5 0 
" style="stroke: #000000; stroke-width: 0.8"/>
      </defs>
      <g>
       <use xlink:href="#mefd1c8f6a8" x="184.52" y="74.549" style="stroke: #000000; stroke-width: 0.8"/>
      </g>
     </g>
     <g id="text_3">
      <!-- FOXO3 -->
      <g transform="translate(202.157812 97.951969) rotate(-90) scale(0.14 -0.14)">
       <use xlink:href="#DejaVuSans-46"/>
       <use xlink:href="#DejaVuSans-4f" x="57.519531"/>
       <use xlink:href="#DejaVuSans-58" x="129.855469"/>
       <use xlink:href="#DejaVuSans-4f" x="191.986328"/>
       <use xlink:href="#DejaVuSans-33" x="270.697266"/>
      </g>
     </g>
    </g>
    <g id="ytick_2">
     <g id="line2d_4">
      <g>
       <use xlink:href="#mefd1c8f6a8" x="184.52" y="147.863" style="stroke: #000000; stroke-width: 0.8"/>
      </g>
     </g>
     <g id="text_4">
      <!-- TGFB1 -->
      <g transform="translate(202.157812 170.844875) rotate(-90) scale(0.14 -0.14)">
       <use xlink:href="#DejaVuSans-54"/>
       <use xlink:href="#DejaVuSans-47" x="61.083984"/>
       <use xlink:href="#DejaVuSans-46" x="138.574219"/>
       <use xlink:href="#DejaVuSans-42" x="196.09375"/>
       <use xlink:href="#DejaVuSans-31" x="264.697266"/>
      </g>
     </g>
    </g>
   </g>
   <g id="text_5">
    <!-- 0.06 -->
    <g style="fill: #ffffff" transform="translate(125.597375 80.06775) scale(0.2 -0.2)">
     <defs>
      <path id="DejaVuSans-30" d="M 2034 4250 
Q 1547 4250 1301 3770 
Q 1056 3291 1056 2328 
Q 1056 1369 1301 889 
Q 1547 409 2034 409 
Q 2525 409 2770 889 
Q 3016 1369 3016 2328 
Q 3016 3291 2770 3770 
Q 2525 4250 2034 4250 
z
M 2034 4750 
Q 2819 4750 3233 4129 
Q 3647 3509 3647 2328 
Q 3647 1150 3233 529 
Q 2819 -91 2034 -91 
Q 1250 -91 836 529 
Q 422 1150 422 2328 
Q 422 3509 836 4129 
Q 1250 4750 2034 4750 
z
" transform="scale(0.015625)"/>
      <path id="DejaVuSans-2e" d="M 684 794 
L 1344 794 
L 1344 0 
L 684 0 
L 684 794 
z
" transform="scale(0.015625)"/>
      <path id="DejaVuSans-36" d="M 2113 2584 
Q 1688 2584 1439 2293 
Q 1191 2003 1191 1497 
Q 1191 994 1439 701 
Q 1688 409 2113 409 
Q 2538 409 2786 701 
Q 3034 994 3034 1497 
Q 3034 2003 2786 2293 
Q 2538 2584 2113 2584 
z
M 3366 4563 
L 3366 3988 
Q 3128 4100 2886 4159 
Q 2644 4219 2406 4219 
Q 1781 4219 1451 3797 
Q 1122 3375 1075 2522 
Q 1259 2794 1537 2939 
Q 1816 3084 2150 3084 
Q 2853 3084 3261 2657 
Q 3669 2231 3669 1497 
Q 3669 778 3244 343 
Q 2819 -91 2113 -91 
Q 1303 -91 875 529 
Q 447 1150 447 2328 
Q 447 3434 972 4092 
Q 1497 4750 2381 4750 
Q 2619 4750 2861 4703 
Q 3103 4656 3366 4563 
z
" transform="scale(0.015625)"/>
     </defs>
     <use xlink:href="#DejaVuSans-30"/>
     <use xlink:href="#DejaVuSans-2e" x="63.623047"/>
     <use xlink:href="#DejaVuSans-30" x="95.410156"/>
     <use xlink:href="#DejaVuSans-36" x="159.033203"/>
    </g>
   </g>
   <g id="text_6">
    <!-- 0.64 -->
    <g style="fill: #ffffff" transform="translate(52.283375 153.38175) scale(0.2 -0.2)">
     <defs>
      <path id="DejaVuSans-34" d="M 2419 4116 
L 825 1625 
L 2419 1625 
L 2419 4116 
z
M 2253 4666 
L 3047 4666 
L 3047 1625 
L 3713 1625 
L 3713 1100 
L 3047 1100 
L 3047 0 
L 2419 0 
L 2419 1100 
L 313 1100 
L 313 1709 
L 2253 4666 
z
" transform="scale(0.015625)"/>
     </defs>
     <use xlink:href="#DejaVuSans-30"/>
     <use xlink:href="#DejaVuSans-2e" x="63.623047"/>
     <use xlink:href="#DejaVuSans-36" x="95.410156"/>
     <use xlink:href="#DejaVuSans-34" x="159.033203"/>
    </g>
   </g>
   <g id="text_7">
    <!-- 1 -->
    <g style="fill: #ffffff" transform="translate(68.1865 80.06775) scale(0.2 -0.2)">
     <use xlink:href="#DejaVuSans-31"/>
    </g>
   </g>
   <g id="text_8">
    <!-- 1 -->
    <g style="fill: #ffffff" transform="translate(141.5005 153.38175) scale(0.2 -0.2)">
     <use xlink:href="#DejaVuSans-31"/>
    </g>
   </g>
  </g>
 </g>
 <defs>
  <clipPath id="p4087f1a39a">
   <rect x="10.8" y="37.892" width="16.292" height="146.628"/>
  </clipPath>
  <clipPath id="pf2ca46d371">
   <rect x="37.892" y="10.8" width="146.628" height="16.292"/>
  </clipPath>
  <clipPath id="pb73eddf931">
   <rect x="37.892" y="37.892" width="146.628" height="146.628"/>
  </clipPath>
 </defs>
</svg>
