<?xml version="1.0" encoding="utf-8" standalone="no"?>
<!DOCTYPE svg PUBLIC "-//W3C//DTD SVG 1.1//EN"
  "http://www.w3.org/Graphics/SVG/1.1/DTD/svg11.dtd">
<svg xmlns:xlink="http://www.w3.org/1999/xlink" width="504pt" height="504pt" viewBox="0 0 504 504" xmlns="http://www.w3.org/2000/svg" version="1.1">
 <metadata>
  <rdf:RDF xmlns:dc="http://purl.org/dc/elements/1.1/" xmlns:cc="http://creativecommons.org/ns#" xmlns:rdf="http://www.w3.org/1999/02/22-rdf-syntax-ns#">
   <cc:Work>
    <dc:type rdf:resource="http://purl.org/dc/dcmitype/StillImage"/>
    <dc:date>2024-10-17T14:30:18.929197</dc:date>
    <dc:format>image/svg+xml</dc:format>
    <dc:creator>
     <cc:Agent>
      <dc:title>Matplotlib v3.6.2, https://matplotlib.org/</dc:title>
     </cc:Agent>
    </dc:creator>
   </cc:Work>
  </rdf:RDF>
 </metadata>
 <defs>
  <style type="text/css">*{stroke-linejoin: round; stroke-linecap: butt}</style>
 </defs>
 <g id="figure_1">
  <g id="patch_1">
   <path d="M 0 504 
L 504 504 
L 504 0 
L 0 0 
z
" style="fill: #ffffff"/>
  </g>
  <g id="axes_1">
   <g id="LineCollection_1">
    <path d="M 56.252 169.319 
L 25.737522 169.319 
L 25.737522 237.497 
L 56.252 237.497 
" clip-path="url(#p24e3e720f9)" style="fill: none; stroke: #333333; stroke-width: 0.5"/>
    <path d="M 56.252 101.141 
L 25.629294 101.141 
L 25.629294 203.408 
L 25.737522 203.408 
" clip-path="url(#p24e3e720f9)" style="fill: none; stroke: #333333; stroke-width: 0.5"/>
    <path d="M 56.252 373.853 
L 25.600286 373.853 
L 25.600286 442.031 
L 56.252 442.031 
" clip-path="url(#p24e3e720f9)" style="fill: none; stroke: #333333; stroke-width: 0.5"/>
    <path d="M 56.252 305.675 
L 25.600232 305.675 
L 25.600232 407.942 
L 25.600286 407.942 
" clip-path="url(#p24e3e720f9)" style="fill: none; stroke: #333333; stroke-width: 0.5"/>
    <path d="M 25.629294 152.2745 
L 12.964381 152.2745 
L 12.964381 356.8085 
L 25.600232 356.8085 
" clip-path="url(#p24e3e720f9)" style="fill: none; stroke: #333333; stroke-width: 0.5"/>
   </g>
  </g>
  <g id="axes_2">
   <g id="LineCollection_2">
    <path d="M 169.319 56.252 
L 169.319 25.737522 
L 237.497 25.737522 
L 237.497 56.252 
" clip-path="url(#p868d2d522a)" style="fill: none; stroke: #333333; stroke-width: 0.5"/>
    <path d="M 101.141 56.252 
L 101.141 25.629294 
L 203.408 25.629294 
L 203.408 25.737522 
" clip-path="url(#p868d2d522a)" style="fill: none; stroke: #333333; stroke-width: 0.5"/>
    <path d="M 373.853 56.252 
L 373.853 25.600286 
L 442.031 25.600286 
L 442.031 56.252 
" clip-path="url(#p868d2d522a)" style="fill: none; stroke: #333333; stroke-width: 0.5"/>
    <path d="M 305.675 56.252 
L 305.675 25.600232 
L 407.942 25.600232 
L 407.942 25.600286 
" clip-path="url(#p868d2d522a)" style="fill: none; stroke: #333333; stroke-width: 0.5"/>
    <path d="M 152.2745 25.629294 
L 152.2745 12.964381 
L 356.8085 12.964381 
L 356.8085 25.600232 
" clip-path="url(#p868d2d522a)" style="fill: none; stroke: #333333; stroke-width: 0.5"/>
   </g>
  </g>
  <g id="axes_3">
   <g id="patch_2">
    <path d="M 67.052 476.12 
L 476.12 476.12 
L 476.12 67.052 
L 67.052 67.052 
z
" style="fill: #ffffff"/>
   </g>
   <g id="QuadMesh_1">
    <path d="M 67.052 67.052 
L 135.23 67.052 
L 135.23 135.23 
L 67.052 135.23 
L 67.052 67.052 
" clip-path="url(#p5e87c1914b)" style="fill: #67001f"/>
    <path d="M 135.23 67.052 
L 203.408 67.052 
L 203.408 135.23 
L 135.23 135.23 
L 135.23 67.052 
" clip-path="url(#p5e87c1914b)" style="fill: #053061"/>
    <path d="M 203.408 67.052 
L 271.586 67.052 
L 271.586 135.23 
L 203.408 135.23 
L 203.408 67.052 
" clip-path="url(#p5e87c1914b)" style="fill: #053061"/>
    <path d="M 271.586 67.052 
L 339.764 67.052 
L 339.764 135.23 
L 271.586 135.23 
L 271.586 67.052 
" clip-path="url(#p5e87c1914b)" style="fill: #67001f"/>
    <path d="M 339.764 67.052 
L 407.942 67.052 
L 407.942 135.23 
L 339.764 135.23 
L 339.764 67.052 
" clip-path="url(#p5e87c1914b)" style="fill: #67001f"/>
    <path d="M 407.942 67.052 
L 476.12 67.052 
L 476.12 135.23 
L 407.942 135.23 
L 407.942 67.052 
" clip-path="url(#p5e87c1914b)" style="fill: #67001f"/>
    <path d="M 67.052 135.23 
L 135.23 135.23 
L 135.23 203.408 
L 67.052 203.408 
L 67.052 135.23 
" clip-path="url(#p5e87c1914b)" style="fill: #053061"/>
    <path d="M 135.23 135.23 
L 203.408 135.23 
L 203.408 203.408 
L 135.23 203.408 
L 135.23 135.23 
" clip-path="url(#p5e87c1914b)" style="fill: #67001f"/>
    <path d="M 203.408 135.23 
L 271.586 135.23 
L 271.586 203.408 
L 203.408 203.408 
L 203.408 135.23 
" clip-path="url(#p5e87c1914b)" style="fill: #063264"/>
    <path d="M 271.586 135.23 
L 339.764 135.23 
L 339.764 203.408 
L 271.586 203.408 
L 271.586 135.23 
" clip-path="url(#p5e87c1914b)" style="fill: #67001f"/>
    <path d="M 339.764 135.23 
L 407.942 135.23 
L 407.942 203.408 
L 339.764 203.408 
L 339.764 135.23 
" clip-path="url(#p5e87c1914b)" style="fill: #67001f"/>
    <path d="M 407.942 135.23 
L 476.12 135.23 
L 476.12 203.408 
L 407.942 203.408 
L 407.942 135.23 
" clip-path="url(#p5e87c1914b)" style="fill: #67001f"/>
    <path d="M 67.052 203.408 
L 135.23 203.408 
L 135.23 271.586 
L 67.052 271.586 
L 67.052 203.408 
" clip-path="url(#p5e87c1914b)" style="fill: #053061"/>
    <path d="M 135.23 203.408 
L 203.408 203.408 
L 203.408 271.586 
L 135.23 271.586 
L 135.23 203.408 
" clip-path="url(#p5e87c1914b)" style="fill: #063264"/>
    <path d="M 203.408 203.408 
L 271.586 203.408 
L 271.586 271.586 
L 203.408 271.586 
L 203.408 203.408 
" clip-path="url(#p5e87c1914b)" style="fill: #67001f"/>
    <path d="M 271.586 203.408 
L 339.764 203.408 
L 339.764 271.586 
L 271.586 271.586 
L 271.586 203.408 
" clip-path="url(#p5e87c1914b)" style="fill: #67001f"/>
    <path d="M 339.764 203.408 
L 407.942 203.408 
L 407.942 271.586 
L 339.764 271.586 
L 339.764 203.408 
" clip-path="url(#p5e87c1914b)" style="fill: #67001f"/>
    <path d="M 407.942 203.408 
L 476.12 203.408 
L 476.12 271.586 
L 407.942 271.586 
L 407.942 203.408 
" clip-path="url(#p5e87c1914b)" style="fill: #67001f"/>
    <path d="M 67.052 271.586 
L 135.23 271.586 
L 135.23 339.764 
L 67.052 339.764 
L 67.052 271.586 
" clip-path="url(#p5e87c1914b)" style="fill: #67001f"/>
    <path d="M 135.23 271.586 
L 203.408 271.586 
L 203.408 339.764 
L 135.23 339.764 
L 135.23 271.586 
" clip-path="url(#p5e87c1914b)" style="fill: #67001f"/>
    <path d="M 203.408 271.586 
L 271.586 271.586 
L 271.586 339.764 
L 203.408 339.764 
L 203.408 271.586 
" clip-path="url(#p5e87c1914b)" style="fill: #67001f"/>
    <path d="M 271.586 271.586 
L 339.764 271.586 
L 339.764 339.764 
L 271.586 339.764 
L 271.586 271.586 
" clip-path="url(#p5e87c1914b)" style="fill: #67001f"/>
    <path d="M 339.764 271.586 
L 407.942 271.586 
L 407.942 339.764 
L 339.764 339.764 
L 339.764 271.586 
" clip-path="url(#p5e87c1914b)" style="fill: #053061"/>
    <path d="M 407.942 271.586 
L 476.12 271.586 
L 476.12 339.764 
L 407.942 339.764 
L 407.942 271.586 
" clip-path="url(#p5e87c1914b)" style="fill: #053061"/>
    <path d="M 67.052 339.764 
L 135.23 339.764 
L 135.23 407.942 
L 67.052 407.942 
L 67.052 339.764 
" clip-path="url(#p5e87c1914b)" style="fill: #67001f"/>
    <path d="M 135.23 339.764 
L 203.408 339.764 
L 203.408 407.942 
L 135.23 407.942 
L 135.23 339.764 
" clip-path="url(#p5e87c1914b)" style="fill: #67001f"/>
    <path d="M 203.408 339.764 
L 271.586 339.764 
L 271.586 407.942 
L 203.408 407.942 
L 203.408 339.764 
" clip-path="url(#p5e87c1914b)" style="fill: #67001f"/>
    <path d="M 271.586 339.764 
L 339.764 339.764 
L 339.764 407.942 
L 271.586 407.942 
L 271.586 339.764 
" clip-path="url(#p5e87c1914b)" style="fill: #053061"/>
    <path d="M 339.764 339.764 
L 407.942 339.764 
L 407.942 407.942 
L 339.764 407.942 
L 339.764 339.764 
" clip-path="url(#p5e87c1914b)" style="fill: #67001f"/>
    <path d="M 407.942 339.764 
L 476.12 339.764 
L 476.12 407.942 
L 407.942 407.942 
L 407.942 339.764 
" clip-path="url(#p5e87c1914b)" style="fill: #053061"/>
    <path d="M 67.052 407.942 
L 135.23 407.942 
L 135.23 476.12 
L 67.052 476.12 
L 67.052 407.942 
" clip-path="url(#p5e87c1914b)" style="fill: #67001f"/>
    <path d="M 135.23 407.942 
L 203.408 407.942 
L 203.408 476.12 
L 135.23 476.12 
L 135.23 407.942 
" clip-path="url(#p5e87c1914b)" style="fill: #67001f"/>
    <path d="M 203.408 407.942 
L 271.586 407.942 
L 271.586 476.12 
L 203.408 476.12 
L 203.408 407.942 
" clip-path="url(#p5e87c1914b)" style="fill: #67001f"/>
    <path d="M 271.586 407.942 
L 339.764 407.942 
L 339.764 476.12 
L 271.586 476.12 
L 271.586 407.942 
" clip-path="url(#p5e87c1914b)" style="fill: #053061"/>
    <path d="M 339.764 407.942 
L 407.942 407.942 
L 407.942 476.12 
L 339.764 476.12 
L 339.764 407.942 
" clip-path="url(#p5e87c1914b)" style="fill: #053061"/>
    <path d="M 407.942 407.942 
L 476.12 407.942 
L 476.12 476.12 
L 407.942 476.12 
L 407.942 407.942 
" clip-path="url(#p5e87c1914b)" style="fill: #67001f"/>
   </g>
   <g id="QuadMesh_2">
    <path d="M 67.052 67.052 
L 135.23 67.052 
L 135.23 135.23 
L 67.052 135.23 
L 67.052 67.052 
" clip-path="url(#p5e87c1914b)" style="fill: none"/>
    <path d="M 135.23 67.052 
L 203.408 67.052 
L 203.408 135.23 
L 135.23 135.23 
L 135.23 67.052 
" clip-path="url(#p5e87c1914b)" style="fill: #053061"/>
    <path d="M 203.408 67.052 
L 271.586 67.052 
L 271.586 135.23 
L 203.408 135.23 
L 203.408 67.052 
" clip-path="url(#p5e87c1914b)" style="fill: #053061"/>
    <path d="M 271.586 67.052 
L 339.764 67.052 
L 339.764 135.23 
L 271.586 135.23 
L 271.586 67.052 
" clip-path="url(#p5e87c1914b)" style="fill: #67001f"/>
    <path d="M 339.764 67.052 
L 407.942 67.052 
L 407.942 135.23 
L 339.764 135.23 
L 339.764 67.052 
" clip-path="url(#p5e87c1914b)" style="fill: #67001f"/>
    <path d="M 407.942 67.052 
L 476.12 67.052 
L 476.12 135.23 
L 407.942 135.23 
L 407.942 67.052 
" clip-path="url(#p5e87c1914b)" style="fill: #67001f"/>
    <path d="M 67.052 135.23 
L 135.23 135.23 
L 135.23 203.408 
L 67.052 203.408 
L 67.052 135.23 
" clip-path="url(#p5e87c1914b)" style="fill: none"/>
    <path d="M 135.23 135.23 
L 203.408 135.23 
L 203.408 203.408 
L 135.23 203.408 
L 135.23 135.23 
" clip-path="url(#p5e87c1914b)" style="fill: none"/>
    <path d="M 203.408 135.23 
L 271.586 135.23 
L 271.586 203.408 
L 203.408 203.408 
L 203.408 135.23 
" clip-path="url(#p5e87c1914b)" style="fill: #063264"/>
    <path d="M 271.586 135.23 
L 339.764 135.23 
L 339.764 203.408 
L 271.586 203.408 
L 271.586 135.23 
" clip-path="url(#p5e87c1914b)" style="fill: #67001f"/>
    <path d="M 339.764 135.23 
L 407.942 135.23 
L 407.942 203.408 
L 339.764 203.408 
L 339.764 135.23 
" clip-path="url(#p5e87c1914b)" style="fill: #67001f"/>
    <path d="M 407.942 135.23 
L 476.12 135.23 
L 476.12 203.408 
L 407.942 203.408 
L 407.942 135.23 
" clip-path="url(#p5e87c1914b)" style="fill: #67001f"/>
    <path d="M 67.052 203.408 
L 135.23 203.408 
L 135.23 271.586 
L 67.052 271.586 
L 67.052 203.408 
" clip-path="url(#p5e87c1914b)" style="fill: none"/>
    <path d="M 135.23 203.408 
L 203.408 203.408 
L 203.408 271.586 
L 135.23 271.586 
L 135.23 203.408 
" clip-path="url(#p5e87c1914b)" style="fill: none"/>
    <path d="M 203.408 203.408 
L 271.586 203.408 
L 271.586 271.586 
L 203.408 271.586 
L 203.408 203.408 
" clip-path="url(#p5e87c1914b)" style="fill: none"/>
    <path d="M 271.586 203.408 
L 339.764 203.408 
L 339.764 271.586 
L 271.586 271.586 
L 271.586 203.408 
" clip-path="url(#p5e87c1914b)" style="fill: #67001f"/>
    <path d="M 339.764 203.408 
L 407.942 203.408 
L 407.942 271.586 
L 339.764 271.586 
L 339.764 203.408 
" clip-path="url(#p5e87c1914b)" style="fill: #67001f"/>
    <path d="M 407.942 203.408 
L 476.12 203.408 
L 476.12 271.586 
L 407.942 271.586 
L 407.942 203.408 
" clip-path="url(#p5e87c1914b)" style="fill: #67001f"/>
    <path d="M 67.052 271.586 
L 135.23 271.586 
L 135.23 339.764 
L 67.052 339.764 
L 67.052 271.586 
" clip-path="url(#p5e87c1914b)" style="fill: none"/>
    <path d="M 135.23 271.586 
L 203.408 271.586 
L 203.408 339.764 
L 135.23 339.764 
L 135.23 271.586 
" clip-path="url(#p5e87c1914b)" style="fill: none"/>
    <path d="M 203.408 271.586 
L 271.586 271.586 
L 271.586 339.764 
L 203.408 339.764 
L 203.408 271.586 
" clip-path="url(#p5e87c1914b)" style="fill: none"/>
    <path d="M 271.586 271.586 
L 339.764 271.586 
L 339.764 339.764 
L 271.586 339.764 
L 271.586 271.586 
" clip-path="url(#p5e87c1914b)" style="fill: none"/>
    <path d="M 339.764 271.586 
L 407.942 271.586 
L 407.942 339.764 
L 339.764 339.764 
L 339.764 271.586 
" clip-path="url(#p5e87c1914b)" style="fill: #053061"/>
    <path d="M 407.942 271.586 
L 476.12 271.586 
L 476.12 339.764 
L 407.942 339.764 
L 407.942 271.586 
" clip-path="url(#p5e87c1914b)" style="fill: #053061"/>
    <path d="M 67.052 339.764 
L 135.23 339.764 
L 135.23 407.942 
L 67.052 407.942 
L 67.052 339.764 
" clip-path="url(#p5e87c1914b)" style="fill: none"/>
    <path d="M 135.23 339.764 
L 203.408 339.764 
L 203.408 407.942 
L 135.23 407.942 
L 135.23 339.764 
" clip-path="url(#p5e87c1914b)" style="fill: none"/>
    <path d="M 203.408 339.764 
L 271.586 339.764 
L 271.586 407.942 
L 203.408 407.942 
L 203.408 339.764 
" clip-path="url(#p5e87c1914b)" style="fill: none"/>
    <path d="M 271.586 339.764 
L 339.764 339.764 
L 339.764 407.942 
L 271.586 407.942 
L 271.586 339.764 
" clip-path="url(#p5e87c1914b)" style="fill: none"/>
    <path d="M 339.764 339.764 
L 407.942 339.764 
L 407.942 407.942 
L 339.764 407.942 
L 339.764 339.764 
" clip-path="url(#p5e87c1914b)" style="fill: none"/>
    <path d="M 407.942 339.764 
L 476.12 339.764 
L 476.12 407.942 
L 407.942 407.942 
L 407.942 339.764 
" clip-path="url(#p5e87c1914b)" style="fill: #053061"/>
    <path d="M 67.052 407.942 
L 135.23 407.942 
L 135.23 476.12 
L 67.052 476.12 
L 67.052 407.942 
" clip-path="url(#p5e87c1914b)" style="fill: none"/>
    <path d="M 135.23 407.942 
L 203.408 407.942 
L 203.408 476.12 
L 135.23 476.12 
L 135.23 407.942 
" clip-path="url(#p5e87c1914b)" style="fill: none"/>
    <path d="M 203.408 407.942 
L 271.586 407.942 
L 271.586 476.12 
L 203.408 476.12 
L 203.408 407.942 
" clip-path="url(#p5e87c1914b)" style="fill: none"/>
    <path d="M 271.586 407.942 
L 339.764 407.942 
L 339.764 476.12 
L 271.586 476.12 
L 271.586 407.942 
" clip-path="url(#p5e87c1914b)" style="fill: none"/>
    <path d="M 339.764 407.942 
L 407.942 407.942 
L 407.942 476.12 
L 339.764 476.12 
L 339.764 407.942 
" clip-path="url(#p5e87c1914b)" style="fill: none"/>
    <path d="M 407.942 407.942 
L 476.12 407.942 
L 476.12 476.12 
L 407.942 476.12 
L 407.942 407.942 
" clip-path="url(#p5e87c1914b)" style="fill: none"/>
   </g>
   <g id="QuadMesh_3">
    <path d="M 67.052 67.052 
L 135.23 67.052 
L 135.23 135.23 
L 67.052 135.23 
L 67.052 67.052 
" clip-path="url(#p5e87c1914b)" style="fill: none"/>
    <path d="M 135.23 67.052 
L 203.408 67.052 
L 203.408 135.23 
L 135.23 135.23 
L 135.23 67.052 
" clip-path="url(#p5e87c1914b)" style="fill: none"/>
    <path d="M 203.408 67.052 
L 271.586 67.052 
L 271.586 135.23 
L 203.408 135.23 
L 203.408 67.052 
" clip-path="url(#p5e87c1914b)" style="fill: none"/>
    <path d="M 271.586 67.052 
L 339.764 67.052 
L 339.764 135.23 
L 271.586 135.23 
L 271.586 67.052 
" clip-path="url(#p5e87c1914b)" style="fill: none"/>
    <path d="M 339.764 67.052 
L 407.942 67.052 
L 407.942 135.23 
L 339.764 135.23 
L 339.764 67.052 
" clip-path="url(#p5e87c1914b)" style="fill: none"/>
    <path d="M 407.942 67.052 
L 476.12 67.052 
L 476.12 135.23 
L 407.942 135.23 
L 407.942 67.052 
" clip-path="url(#p5e87c1914b)" style="fill: none"/>
    <path d="M 67.052 135.23 
L 135.23 135.23 
L 135.23 203.408 
L 67.052 203.408 
L 67.052 135.23 
" clip-path="url(#p5e87c1914b)" style="fill: #777777"/>
    <path d="M 135.23 135.23 
L 203.408 135.23 
L 203.408 203.408 
L 135.23 203.408 
L 135.23 135.23 
" clip-path="url(#p5e87c1914b)" style="fill: none"/>
    <path d="M 203.408 135.23 
L 271.586 135.23 
L 271.586 203.408 
L 203.408 203.408 
L 203.408 135.23 
" clip-path="url(#p5e87c1914b)" style="fill: none"/>
    <path d="M 271.586 135.23 
L 339.764 135.23 
L 339.764 203.408 
L 271.586 203.408 
L 271.586 135.23 
" clip-path="url(#p5e87c1914b)" style="fill: none"/>
    <path d="M 339.764 135.23 
L 407.942 135.23 
L 407.942 203.408 
L 339.764 203.408 
L 339.764 135.23 
" clip-path="url(#p5e87c1914b)" style="fill: none"/>
    <path d="M 407.942 135.23 
L 476.12 135.23 
L 476.12 203.408 
L 407.942 203.408 
L 407.942 135.23 
" clip-path="url(#p5e87c1914b)" style="fill: none"/>
    <path d="M 67.052 203.408 
L 135.23 203.408 
L 135.23 271.586 
L 67.052 271.586 
L 67.052 203.408 
" clip-path="url(#p5e87c1914b)" style="fill: #565656"/>
    <path d="M 135.23 203.408 
L 203.408 203.408 
L 203.408 271.586 
L 135.23 271.586 
L 135.23 203.408 
" clip-path="url(#p5e87c1914b)" style="fill: #bfbfbf"/>
    <path d="M 203.408 203.408 
L 271.586 203.408 
L 271.586 271.586 
L 203.408 271.586 
L 203.408 203.408 
" clip-path="url(#p5e87c1914b)" style="fill: none"/>
    <path d="M 271.586 203.408 
L 339.764 203.408 
L 339.764 271.586 
L 271.586 271.586 
L 271.586 203.408 
" clip-path="url(#p5e87c1914b)" style="fill: none"/>
    <path d="M 339.764 203.408 
L 407.942 203.408 
L 407.942 271.586 
L 339.764 271.586 
L 339.764 203.408 
" clip-path="url(#p5e87c1914b)" style="fill: none"/>
    <path d="M 407.942 203.408 
L 476.12 203.408 
L 476.12 271.586 
L 407.942 271.586 
L 407.942 203.408 
" clip-path="url(#p5e87c1914b)" style="fill: none"/>
    <path d="M 67.052 271.586 
L 135.23 271.586 
L 135.23 339.764 
L 67.052 339.764 
L 67.052 271.586 
" clip-path="url(#p5e87c1914b)" style="fill: #545454"/>
    <path d="M 135.23 271.586 
L 203.408 271.586 
L 203.408 339.764 
L 135.23 339.764 
L 135.23 271.586 
" clip-path="url(#p5e87c1914b)" style="fill: #363636"/>
    <path d="M 203.408 271.586 
L 271.586 271.586 
L 271.586 339.764 
L 203.408 339.764 
L 203.408 271.586 
" clip-path="url(#p5e87c1914b)" style="fill: #b3b3b3"/>
    <path d="M 271.586 271.586 
L 339.764 271.586 
L 339.764 339.764 
L 271.586 339.764 
L 271.586 271.586 
" clip-path="url(#p5e87c1914b)" style="fill: none"/>
    <path d="M 339.764 271.586 
L 407.942 271.586 
L 407.942 339.764 
L 339.764 339.764 
L 339.764 271.586 
" clip-path="url(#p5e87c1914b)" style="fill: none"/>
    <path d="M 407.942 271.586 
L 476.12 271.586 
L 476.12 339.764 
L 407.942 339.764 
L 407.942 271.586 
" clip-path="url(#p5e87c1914b)" style="fill: none"/>
    <path d="M 67.052 339.764 
L 135.23 339.764 
L 135.23 407.942 
L 67.052 407.942 
L 67.052 339.764 
" clip-path="url(#p5e87c1914b)" style="fill: #737373"/>
    <path d="M 135.23 339.764 
L 203.408 339.764 
L 203.408 407.942 
L 135.23 407.942 
L 135.23 339.764 
" clip-path="url(#p5e87c1914b)" style="fill: #575757"/>
    <path d="M 203.408 339.764 
L 271.586 339.764 
L 271.586 407.942 
L 203.408 407.942 
L 203.408 339.764 
" clip-path="url(#p5e87c1914b)" style="fill: #c8c8c8"/>
    <path d="M 271.586 339.764 
L 339.764 339.764 
L 339.764 407.942 
L 271.586 407.942 
L 271.586 339.764 
" clip-path="url(#p5e87c1914b)" style="fill: #0e0e0e"/>
    <path d="M 339.764 339.764 
L 407.942 339.764 
L 407.942 407.942 
L 339.764 407.942 
L 339.764 339.764 
" clip-path="url(#p5e87c1914b)" style="fill: none"/>
    <path d="M 407.942 339.764 
L 476.12 339.764 
L 476.12 407.942 
L 407.942 407.942 
L 407.942 339.764 
" clip-path="url(#p5e87c1914b)" style="fill: none"/>
    <path d="M 67.052 407.942 
L 135.23 407.942 
L 135.23 476.12 
L 67.052 476.12 
L 67.052 407.942 
" clip-path="url(#p5e87c1914b)" style="fill: #838383"/>
    <path d="M 135.23 407.942 
L 203.408 407.942 
L 203.408 476.12 
L 135.23 476.12 
L 135.23 407.942 
" clip-path="url(#p5e87c1914b)" style="fill: #282828"/>
    <path d="M 203.408 407.942 
L 271.586 407.942 
L 271.586 476.12 
L 203.408 476.12 
L 203.408 407.942 
" clip-path="url(#p5e87c1914b)" style="fill: #c4c4c4"/>
    <path d="M 271.586 407.942 
L 339.764 407.942 
L 339.764 476.12 
L 271.586 476.12 
L 271.586 407.942 
" clip-path="url(#p5e87c1914b)" style="fill: #101010"/>
    <path d="M 339.764 407.942 
L 407.942 407.942 
L 407.942 476.12 
L 339.764 476.12 
L 339.764 407.942 
" clip-path="url(#p5e87c1914b)" style="fill: #232323"/>
    <path d="M 407.942 407.942 
L 476.12 407.942 
L 476.12 476.12 
L 407.942 476.12 
L 407.942 407.942 
" clip-path="url(#p5e87c1914b)" style="fill: none"/>
   </g>
   <g id="QuadMesh_4">
    <path d="M 67.052 67.052 
L 135.23 67.052 
L 135.23 135.23 
L 67.052 135.23 
L 67.052 67.052 
" clip-path="url(#p5e87c1914b)"/>
    <path d="M 135.23 67.052 
L 203.408 67.052 
L 203.408 135.23 
L 135.23 135.23 
L 135.23 67.052 
" clip-path="url(#p5e87c1914b)" style="fill: none"/>
    <path d="M 203.408 67.052 
L 271.586 67.052 
L 271.586 135.23 
L 203.408 135.23 
L 203.408 67.052 
" clip-path="url(#p5e87c1914b)" style="fill: none"/>
    <path d="M 271.586 67.052 
L 339.764 67.052 
L 339.764 135.23 
L 271.586 135.23 
L 271.586 67.052 
" clip-path="url(#p5e87c1914b)" style="fill: none"/>
    <path d="M 339.764 67.052 
L 407.942 67.052 
L 407.942 135.23 
L 339.764 135.23 
L 339.764 67.052 
" clip-path="url(#p5e87c1914b)" style="fill: none"/>
    <path d="M 407.942 67.052 
L 476.12 67.052 
L 476.12 135.23 
L 407.942 135.23 
L 407.942 67.052 
" clip-path="url(#p5e87c1914b)" style="fill: none"/>
    <path d="M 67.052 135.23 
L 135.23 135.23 
L 135.23 203.408 
L 67.052 203.408 
L 67.052 135.23 
" clip-path="url(#p5e87c1914b)" style="fill: none"/>
    <path d="M 135.23 135.23 
L 203.408 135.23 
L 203.408 203.408 
L 135.23 203.408 
L 135.23 135.23 
" clip-path="url(#p5e87c1914b)"/>
    <path d="M 203.408 135.23 
L 271.586 135.23 
L 271.586 203.408 
L 203.408 203.408 
L 203.408 135.23 
" clip-path="url(#p5e87c1914b)" style="fill: none"/>
    <path d="M 271.586 135.23 
L 339.764 135.23 
L 339.764 203.408 
L 271.586 203.408 
L 271.586 135.23 
" clip-path="url(#p5e87c1914b)" style="fill: none"/>
    <path d="M 339.764 135.23 
L 407.942 135.23 
L 407.942 203.408 
L 339.764 203.408 
L 339.764 135.23 
" clip-path="url(#p5e87c1914b)" style="fill: none"/>
    <path d="M 407.942 135.23 
L 476.12 135.23 
L 476.12 203.408 
L 407.942 203.408 
L 407.942 135.23 
" clip-path="url(#p5e87c1914b)" style="fill: none"/>
    <path d="M 67.052 203.408 
L 135.23 203.408 
L 135.23 271.586 
L 67.052 271.586 
L 67.052 203.408 
" clip-path="url(#p5e87c1914b)" style="fill: none"/>
    <path d="M 135.23 203.408 
L 203.408 203.408 
L 203.408 271.586 
L 135.23 271.586 
L 135.23 203.408 
" clip-path="url(#p5e87c1914b)" style="fill: none"/>
    <path d="M 203.408 203.408 
L 271.586 203.408 
L 271.586 271.586 
L 203.408 271.586 
L 203.408 203.408 
" clip-path="url(#p5e87c1914b)"/>
    <path d="M 271.586 203.408 
L 339.764 203.408 
L 339.764 271.586 
L 271.586 271.586 
L 271.586 203.408 
" clip-path="url(#p5e87c1914b)" style="fill: none"/>
    <path d="M 339.764 203.408 
L 407.942 203.408 
L 407.942 271.586 
L 339.764 271.586 
L 339.764 203.408 
" clip-path="url(#p5e87c1914b)" style="fill: none"/>
    <path d="M 407.942 203.408 
L 476.12 203.408 
L 476.12 271.586 
L 407.942 271.586 
L 407.942 203.408 
" clip-path="url(#p5e87c1914b)" style="fill: none"/>
    <path d="M 67.052 271.586 
L 135.23 271.586 
L 135.23 339.764 
L 67.052 339.764 
L 67.052 271.586 
" clip-path="url(#p5e87c1914b)" style="fill: none"/>
    <path d="M 135.23 271.586 
L 203.408 271.586 
L 203.408 339.764 
L 135.23 339.764 
L 135.23 271.586 
" clip-path="url(#p5e87c1914b)" style="fill: none"/>
    <path d="M 203.408 271.586 
L 271.586 271.586 
L 271.586 339.764 
L 203.408 339.764 
L 203.408 271.586 
" clip-path="url(#p5e87c1914b)" style="fill: none"/>
    <path d="M 271.586 271.586 
L 339.764 271.586 
L 339.764 339.764 
L 271.586 339.764 
L 271.586 271.586 
" clip-path="url(#p5e87c1914b)"/>
    <path d="M 339.764 271.586 
L 407.942 271.586 
L 407.942 339.764 
L 339.764 339.764 
L 339.764 271.586 
" clip-path="url(#p5e87c1914b)" style="fill: none"/>
    <path d="M 407.942 271.586 
L 476.12 271.586 
L 476.12 339.764 
L 407.942 339.764 
L 407.942 271.586 
" clip-path="url(#p5e87c1914b)" style="fill: none"/>
    <path d="M 67.052 339.764 
L 135.23 339.764 
L 135.23 407.942 
L 67.052 407.942 
L 67.052 339.764 
" clip-path="url(#p5e87c1914b)" style="fill: none"/>
    <path d="M 135.23 339.764 
L 203.408 339.764 
L 203.408 407.942 
L 135.23 407.942 
L 135.23 339.764 
" clip-path="url(#p5e87c1914b)" style="fill: none"/>
    <path d="M 203.408 339.764 
L 271.586 339.764 
L 271.586 407.942 
L 203.408 407.942 
L 203.408 339.764 
" clip-path="url(#p5e87c1914b)" style="fill: none"/>
    <path d="M 271.586 339.764 
L 339.764 339.764 
L 339.764 407.942 
L 271.586 407.942 
L 271.586 339.764 
" clip-path="url(#p5e87c1914b)" style="fill: none"/>
    <path d="M 339.764 339.764 
L 407.942 339.764 
L 407.942 407.942 
L 339.764 407.942 
L 339.764 339.764 
" clip-path="url(#p5e87c1914b)"/>
    <path d="M 407.942 339.764 
L 476.12 339.764 
L 476.12 407.942 
L 407.942 407.942 
L 407.942 339.764 
" clip-path="url(#p5e87c1914b)" style="fill: none"/>
    <path d="M 67.052 407.942 
L 135.23 407.942 
L 135.23 476.12 
L 67.052 476.12 
L 67.052 407.942 
" clip-path="url(#p5e87c1914b)" style="fill: none"/>
    <path d="M 135.23 407.942 
L 203.408 407.942 
L 203.408 476.12 
L 135.23 476.12 
L 135.23 407.942 
" clip-path="url(#p5e87c1914b)" style="fill: none"/>
    <path d="M 203.408 407.942 
L 271.586 407.942 
L 271.586 476.12 
L 203.408 476.12 
L 203.408 407.942 
" clip-path="url(#p5e87c1914b)" style="fill: none"/>
    <path d="M 271.586 407.942 
L 339.764 407.942 
L 339.764 476.12 
L 271.586 476.12 
L 271.586 407.942 
" clip-path="url(#p5e87c1914b)" style="fill: none"/>
    <path d="M 339.764 407.942 
L 407.942 407.942 
L 407.942 476.12 
L 339.764 476.12 
L 339.764 407.942 
" clip-path="url(#p5e87c1914b)" style="fill: none"/>
    <path d="M 407.942 407.942 
L 476.12 407.942 
L 476.12 476.12 
L 407.942 476.12 
L 407.942 407.942 
" clip-path="url(#p5e87c1914b)"/>
   </g>
   <g id="matplotlib.axis_1">
    <g id="xtick_1">
     <g id="line2d_1">
      <defs>
       <path id="m60e2c5a69d" d="M 0 0 
L 0 3.5 
" style="stroke: #000000; stroke-width: 0.8"/>
      </defs>
      <g>
       <use xlink:href="#m60e2c5a69d" x="101.141" y="476.12" style="stroke: #000000; stroke-width: 0.8"/>
      </g>
     </g>
     <g id="text_1">
      <!-- HOOK1 -->
      <g transform="translate(83.048813 490.718437) scale(0.1 -0.1)">
       <defs>
        <path id="DejaVuSans-48" d="M 628 4666 
L 1259 4666 
L 1259 2753 
L 3553 2753 
L 3553 4666 
L 4184 4666 
L 4184 0 
L 3553 0 
L 3553 2222 
L 1259 2222 
L 1259 0 
L 628 0 
L 628 4666 
z
" transform="scale(0.015625)"/>
        <path id="DejaVuSans-4f" d="M 2522 4238 
Q 1834 4238 1429 3725 
Q 1025 3213 1025 2328 
Q 1025 1447 1429 934 
Q 1834 422 2522 422 
Q 3209 422 3611 934 
Q 4013 1447 4013 2328 
Q 4013 3213 3611 3725 
Q 3209 4238 2522 4238 
z
M 2522 4750 
Q 3503 4750 4090 4092 
Q 4678 3434 4678 2328 
Q 4678 1225 4090 567 
Q 3503 -91 2522 -91 
Q 1538 -91 948 565 
Q 359 1222 359 2328 
Q 359 3434 948 4092 
Q 1538 4750 2522 4750 
z
" transform="scale(0.015625)"/>
        <path id="DejaVuSans-4b" d="M 628 4666 
L 1259 4666 
L 1259 2694 
L 3353 4666 
L 4166 4666 
L 1850 2491 
L 4331 0 
L 3500 0 
L 1259 2247 
L 1259 0 
L 628 0 
L 628 4666 
z
" transform="scale(0.015625)"/>
        <path id="DejaVuSans-31" d="M 794 531 
L 1825 531 
L 1825 4091 
L 703 3866 
L 703 4441 
L 1819 4666 
L 2450 4666 
L 2450 531 
L 3481 531 
L 3481 0 
L 794 0 
L 794 531 
z
" transform="scale(0.015625)"/>
       </defs>
       <use xlink:href="#DejaVuSans-48"/>
       <use xlink:href="#DejaVuSans-4f" x="75.195312"/>
       <use xlink:href="#DejaVuSans-4f" x="153.90625"/>
       <use xlink:href="#DejaVuSans-4b" x="232.617188"/>
       <use xlink:href="#DejaVuSans-31" x="298.193359"/>
      </g>
     </g>
    </g>
    <g id="xtick_2">
     <g id="line2d_2">
      <g>
       <use xlink:href="#m60e2c5a69d" x="169.319" y="476.12" style="stroke: #000000; stroke-width: 0.8"/>
      </g>
     </g>
     <g id="text_2">
      <!-- SPDL1 -->
      <g transform="translate(153.31275 490.718437) scale(0.1 -0.1)">
       <defs>
        <path id="DejaVuSans-53" d="M 3425 4513 
L 3425 3897 
Q 3066 4069 2747 4153 
Q 2428 4238 2131 4238 
Q 1616 4238 1336 4038 
Q 1056 3838 1056 3469 
Q 1056 3159 1242 3001 
Q 1428 2844 1947 2747 
L 2328 2669 
Q 3034 2534 3370 2195 
Q 3706 1856 3706 1288 
Q 3706 609 3251 259 
Q 2797 -91 1919 -91 
Q 1588 -91 1214 -16 
Q 841 59 441 206 
L 441 856 
Q 825 641 1194 531 
Q 1563 422 1919 422 
Q 2459 422 2753 634 
Q 3047 847 3047 1241 
Q 3047 1584 2836 1778 
Q 2625 1972 2144 2069 
L 1759 2144 
Q 1053 2284 737 2584 
Q 422 2884 422 3419 
Q 422 4038 858 4394 
Q 1294 4750 2059 4750 
Q 2388 4750 2728 4690 
Q 3069 4631 3425 4513 
z
" transform="scale(0.015625)"/>
        <path id="DejaVuSans-50" d="M 1259 4147 
L 1259 2394 
L 2053 2394 
Q 2494 2394 2734 2622 
Q 2975 2850 2975 3272 
Q 2975 3691 2734 3919 
Q 2494 4147 2053 4147 
L 1259 4147 
z
M 628 4666 
L 2053 4666 
Q 2838 4666 3239 4311 
Q 3641 3956 3641 3272 
Q 3641 2581 3239 2228 
Q 2838 1875 2053 1875 
L 1259 1875 
L 1259 0 
L 628 0 
L 628 4666 
z
" transform="scale(0.015625)"/>
        <path id="DejaVuSans-44" d="M 1259 4147 
L 1259 519 
L 2022 519 
Q 2988 519 3436 956 
Q 3884 1394 3884 2338 
Q 3884 3275 3436 3711 
Q 2988 4147 2022 4147 
L 1259 4147 
z
M 628 4666 
L 1925 4666 
Q 3281 4666 3915 4102 
Q 4550 3538 4550 2338 
Q 4550 1131 3912 565 
Q 3275 0 1925 0 
L 628 0 
L 628 4666 
z
" transform="scale(0.015625)"/>
        <path id="DejaVuSans-4c" d="M 628 4666 
L 1259 4666 
L 1259 531 
L 3531 531 
L 3531 0 
L 628 0 
L 628 4666 
z
" transform="scale(0.015625)"/>
       </defs>
       <use xlink:href="#DejaVuSans-53"/>
       <use xlink:href="#DejaVuSans-50" x="63.476562"/>
       <use xlink:href="#DejaVuSans-44" x="123.779297"/>
       <use xlink:href="#DejaVuSans-4c" x="200.78125"/>
       <use xlink:href="#DejaVuSans-31" x="256.494141"/>
      </g>
     </g>
    </g>
    <g id="xtick_3">
     <g id="line2d_3">
      <g>
       <use xlink:href="#m60e2c5a69d" x="237.497" y="476.12" style="stroke: #000000; stroke-width: 0.8"/>
      </g>
     </g>
     <g id="text_3">
      <!-- HOOK2 -->
      <g transform="translate(219.404813 490.718437) scale(0.1 -0.1)">
       <defs>
        <path id="DejaVuSans-32" d="M 1228 531 
L 3431 531 
L 3431 0 
L 469 0 
L 469 531 
Q 828 903 1448 1529 
Q 2069 2156 2228 2338 
Q 2531 2678 2651 2914 
Q 2772 3150 2772 3378 
Q 2772 3750 2511 3984 
Q 2250 4219 1831 4219 
Q 1534 4219 1204 4116 
Q 875 4013 500 3803 
L 500 4441 
Q 881 4594 1212 4672 
Q 1544 4750 1819 4750 
Q 2544 4750 2975 4387 
Q 3406 4025 3406 3419 
Q 3406 3131 3298 2873 
Q 3191 2616 2906 2266 
Q 2828 2175 2409 1742 
Q 1991 1309 1228 531 
z
" transform="scale(0.015625)"/>
       </defs>
       <use xlink:href="#DejaVuSans-48"/>
       <use xlink:href="#DejaVuSans-4f" x="75.195312"/>
       <use xlink:href="#DejaVuSans-4f" x="153.90625"/>
       <use xlink:href="#DejaVuSans-4b" x="232.617188"/>
       <use xlink:href="#DejaVuSans-32" x="298.193359"/>
      </g>
     </g>
    </g>
    <g id="xtick_4">
     <g id="line2d_4">
      <g>
       <use xlink:href="#m60e2c5a69d" x="305.675" y="476.12" style="stroke: #000000; stroke-width: 0.8"/>
      </g>
     </g>
     <g id="text_4">
      <!-- NDEL1 -->
      <g transform="translate(288.957812 490.718437) scale(0.1 -0.1)">
       <defs>
        <path id="DejaVuSans-4e" d="M 628 4666 
L 1478 4666 
L 3547 763 
L 3547 4666 
L 4159 4666 
L 4159 0 
L 3309 0 
L 1241 3903 
L 1241 0 
L 628 0 
L 628 4666 
z
" transform="scale(0.015625)"/>
        <path id="DejaVuSans-45" d="M 628 4666 
L 3578 4666 
L 3578 4134 
L 1259 4134 
L 1259 2753 
L 3481 2753 
L 3481 2222 
L 1259 2222 
L 1259 531 
L 3634 531 
L 3634 0 
L 628 0 
L 628 4666 
z
" transform="scale(0.015625)"/>
       </defs>
       <use xlink:href="#DejaVuSans-4e"/>
       <use xlink:href="#DejaVuSans-44" x="74.804688"/>
       <use xlink:href="#DejaVuSans-45" x="151.806641"/>
       <use xlink:href="#DejaVuSans-4c" x="214.990234"/>
       <use xlink:href="#DejaVuSans-31" x="270.703125"/>
      </g>
     </g>
    </g>
    <g id="xtick_5">
     <g id="line2d_5">
      <g>
       <use xlink:href="#m60e2c5a69d" x="373.853" y="476.12" style="stroke: #000000; stroke-width: 0.8"/>
      </g>
     </g>
     <g id="text_5">
      <!-- PAFAH1B1 -->
      <g transform="translate(348.343625 490.718437) scale(0.1 -0.1)">
       <defs>
        <path id="DejaVuSans-41" d="M 2188 4044 
L 1331 1722 
L 3047 1722 
L 2188 4044 
z
M 1831 4666 
L 2547 4666 
L 4325 0 
L 3669 0 
L 3244 1197 
L 1141 1197 
L 716 0 
L 50 0 
L 1831 4666 
z
" transform="scale(0.015625)"/>
        <path id="DejaVuSans-46" d="M 628 4666 
L 3309 4666 
L 3309 4134 
L 1259 4134 
L 1259 2759 
L 3109 2759 
L 3109 2228 
L 1259 2228 
L 1259 0 
L 628 0 
L 628 4666 
z
" transform="scale(0.015625)"/>
        <path id="DejaVuSans-42" d="M 1259 2228 
L 1259 519 
L 2272 519 
Q 2781 519 3026 730 
Q 3272 941 3272 1375 
Q 3272 1813 3026 2020 
Q 2781 2228 2272 2228 
L 1259 2228 
z
M 1259 4147 
L 1259 2741 
L 2194 2741 
Q 2656 2741 2882 2914 
Q 3109 3088 3109 3444 
Q 3109 3797 2882 3972 
Q 2656 4147 2194 4147 
L 1259 4147 
z
M 628 4666 
L 2241 4666 
Q 2963 4666 3353 4366 
Q 3744 4066 3744 3513 
Q 3744 3084 3544 2831 
Q 3344 2578 2956 2516 
Q 3422 2416 3680 2098 
Q 3938 1781 3938 1306 
Q 3938 681 3513 340 
Q 3088 0 2303 0 
L 628 0 
L 628 4666 
z
" transform="scale(0.015625)"/>
       </defs>
       <use xlink:href="#DejaVuSans-50"/>
       <use xlink:href="#DejaVuSans-41" x="53.927734"/>
       <use xlink:href="#DejaVuSans-46" x="122.335938"/>
       <use xlink:href="#DejaVuSans-41" x="170.730469"/>
       <use xlink:href="#DejaVuSans-48" x="239.138672"/>
       <use xlink:href="#DejaVuSans-31" x="314.333984"/>
       <use xlink:href="#DejaVuSans-42" x="377.957031"/>
       <use xlink:href="#DejaVuSans-31" x="446.560547"/>
      </g>
     </g>
    </g>
    <g id="xtick_6">
     <g id="line2d_6">
      <g>
       <use xlink:href="#m60e2c5a69d" x="442.031" y="476.12" style="stroke: #000000; stroke-width: 0.8"/>
      </g>
     </g>
     <g id="text_6">
      <!-- NDE1 -->
      <g transform="translate(428.09975 490.718437) scale(0.1 -0.1)">
       <use xlink:href="#DejaVuSans-4e"/>
       <use xlink:href="#DejaVuSans-44" x="74.804688"/>
       <use xlink:href="#DejaVuSans-45" x="151.806641"/>
       <use xlink:href="#DejaVuSans-31" x="214.990234"/>
      </g>
     </g>
    </g>
   </g>
   <g id="matplotlib.axis_2">
    <g id="ytick_1">
     <g id="line2d_7">
      <defs>
       <path id="m49c809ecac" d="M 0 0 
L 3.5 0 
" style="stroke: #000000; stroke-width: 0.8"/>
      </defs>
      <g>
       <use xlink:href="#m49c809ecac" x="476.12" y="101.141" style="stroke: #000000; stroke-width: 0.8"/>
      </g>
     </g>
     <g id="text_7">
      <!-- HOOK1 -->
      <g transform="translate(490.718438 119.233188) rotate(-90) scale(0.1 -0.1)">
       <use xlink:href="#DejaVuSans-48"/>
       <use xlink:href="#DejaVuSans-4f" x="75.195312"/>
       <use xlink:href="#DejaVuSans-4f" x="153.90625"/>
       <use xlink:href="#DejaVuSans-4b" x="232.617188"/>
       <use xlink:href="#DejaVuSans-31" x="298.193359"/>
      </g>
     </g>
    </g>
    <g id="ytick_2">
     <g id="line2d_8">
      <g>
       <use xlink:href="#m49c809ecac" x="476.12" y="169.319" style="stroke: #000000; stroke-width: 0.8"/>
      </g>
     </g>
     <g id="text_8">
      <!-- SPDL1 -->
      <g transform="translate(490.718438 185.32525) rotate(-90) scale(0.1 -0.1)">
       <use xlink:href="#DejaVuSans-53"/>
       <use xlink:href="#DejaVuSans-50" x="63.476562"/>
       <use xlink:href="#DejaVuSans-44" x="123.779297"/>
       <use xlink:href="#DejaVuSans-4c" x="200.78125"/>
       <use xlink:href="#DejaVuSans-31" x="256.494141"/>
      </g>
     </g>
    </g>
    <g id="ytick_3">
     <g id="line2d_9">
      <g>
       <use xlink:href="#m49c809ecac" x="476.12" y="237.497" style="stroke: #000000; stroke-width: 0.8"/>
      </g>
     </g>
     <g id="text_9">
      <!-- HOOK2 -->
      <g transform="translate(490.718438 255.589188) rotate(-90) scale(0.1 -0.1)">
       <use xlink:href="#DejaVuSans-48"/>
       <use xlink:href="#DejaVuSans-4f" x="75.195312"/>
       <use xlink:href="#DejaVuSans-4f" x="153.90625"/>
       <use xlink:href="#DejaVuSans-4b" x="232.617188"/>
       <use xlink:href="#DejaVuSans-32" x="298.193359"/>
      </g>
     </g>
    </g>
    <g id="ytick_4">
     <g id="line2d_10">
      <g>
       <use xlink:href="#m49c809ecac" x="476.12" y="305.675" style="stroke: #000000; stroke-width: 0.8"/>
      </g>
     </g>
     <g id="text_10">
      <!-- NDEL1 -->
      <g transform="translate(490.718438 322.392187) rotate(-90) scale(0.1 -0.1)">
       <use xlink:href="#DejaVuSans-4e"/>
       <use xlink:href="#DejaVuSans-44" x="74.804688"/>
       <use xlink:href="#DejaVuSans-45" x="151.806641"/>
       <use xlink:href="#DejaVuSans-4c" x="214.990234"/>
       <use xlink:href="#DejaVuSans-31" x="270.703125"/>
      </g>
     </g>
    </g>
    <g id="ytick_5">
     <g id="line2d_11">
      <g>
       <use xlink:href="#m49c809ecac" x="476.12" y="373.853" style="stroke: #000000; stroke-width: 0.8"/>
      </g>
     </g>
     <g id="text_11">
      <!-- PAFAH1B1 -->
      <g transform="translate(490.718438 399.362375) rotate(-90) scale(0.1 -0.1)">
       <use xlink:href="#DejaVuSans-50"/>
       <use xlink:href="#DejaVuSans-41" x="53.927734"/>
       <use xlink:href="#DejaVuSans-46" x="122.335938"/>
       <use xlink:href="#DejaVuSans-41" x="170.730469"/>
       <use xlink:href="#DejaVuSans-48" x="239.138672"/>
       <use xlink:href="#DejaVuSans-31" x="314.333984"/>
       <use xlink:href="#DejaVuSans-42" x="377.957031"/>
       <use xlink:href="#DejaVuSans-31" x="446.560547"/>
      </g>
     </g>
    </g>
    <g id="ytick_6">
     <g id="line2d_12">
      <g>
       <use xlink:href="#m49c809ecac" x="476.12" y="442.031" style="stroke: #000000; stroke-width: 0.8"/>
      </g>
     </g>
     <g id="text_12">
      <!-- NDE1 -->
      <g transform="translate(490.718438 455.96225) rotate(-90) scale(0.1 -0.1)">
       <use xlink:href="#DejaVuSans-4e"/>
       <use xlink:href="#DejaVuSans-44" x="74.804688"/>
       <use xlink:href="#DejaVuSans-45" x="151.806641"/>
       <use xlink:href="#DejaVuSans-31" x="214.990234"/>
      </g>
     </g>
    </g>
   </g>
   <g id="text_13">
    <!-- 1 -->
    <g style="fill: #ffffff" transform="translate(166.13775 103.900375) scale(0.1 -0.1)">
     <use xlink:href="#DejaVuSans-31"/>
    </g>
   </g>
   <g id="text_14">
    <!-- 1 -->
    <g style="fill: #ffffff" transform="translate(234.31575 103.900375) scale(0.1 -0.1)">
     <use xlink:href="#DejaVuSans-31"/>
    </g>
   </g>
   <g id="text_15">
    <!-- 9.7e-07 -->
    <g style="fill: #ffffff" transform="translate(286.480469 103.900375) scale(0.1 -0.1)">
     <defs>
      <path id="DejaVuSans-39" d="M 703 97 
L 703 672 
Q 941 559 1184 500 
Q 1428 441 1663 441 
Q 2288 441 2617 861 
Q 2947 1281 2994 2138 
Q 2813 1869 2534 1725 
Q 2256 1581 1919 1581 
Q 1219 1581 811 2004 
Q 403 2428 403 3163 
Q 403 3881 828 4315 
Q 1253 4750 1959 4750 
Q 2769 4750 3195 4129 
Q 3622 3509 3622 2328 
Q 3622 1225 3098 567 
Q 2575 -91 1691 -91 
Q 1453 -91 1209 -44 
Q 966 3 703 97 
z
M 1959 2075 
Q 2384 2075 2632 2365 
Q 2881 2656 2881 3163 
Q 2881 3666 2632 3958 
Q 2384 4250 1959 4250 
Q 1534 4250 1286 3958 
Q 1038 3666 1038 3163 
Q 1038 2656 1286 2365 
Q 1534 2075 1959 2075 
z
" transform="scale(0.015625)"/>
      <path id="DejaVuSans-2e" d="M 684 794 
L 1344 794 
L 1344 0 
L 684 0 
L 684 794 
z
" transform="scale(0.015625)"/>
      <path id="DejaVuSans-37" d="M 525 4666 
L 3525 4666 
L 3525 4397 
L 1831 0 
L 1172 0 
L 2766 4134 
L 525 4134 
L 525 4666 
z
" transform="scale(0.015625)"/>
      <path id="DejaVuSans-65" d="M 3597 1894 
L 3597 1613 
L 953 1613 
Q 991 1019 1311 708 
Q 1631 397 2203 397 
Q 2534 397 2845 478 
Q 3156 559 3463 722 
L 3463 178 
Q 3153 47 2828 -22 
Q 2503 -91 2169 -91 
Q 1331 -91 842 396 
Q 353 884 353 1716 
Q 353 2575 817 3079 
Q 1281 3584 2069 3584 
Q 2775 3584 3186 3129 
Q 3597 2675 3597 1894 
z
M 3022 2063 
Q 3016 2534 2758 2815 
Q 2500 3097 2075 3097 
Q 1594 3097 1305 2825 
Q 1016 2553 972 2059 
L 3022 2063 
z
" transform="scale(0.015625)"/>
      <path id="DejaVuSans-2d" d="M 313 2009 
L 1997 2009 
L 1997 1497 
L 313 1497 
L 313 2009 
z
" transform="scale(0.015625)"/>
      <path id="DejaVuSans-30" d="M 2034 4250 
Q 1547 4250 1301 3770 
Q 1056 3291 1056 2328 
Q 1056 1369 1301 889 
Q 1547 409 2034 409 
Q 2525 409 2770 889 
Q 3016 1369 3016 2328 
Q 3016 3291 2770 3770 
Q 2525 4250 2034 4250 
z
M 2034 4750 
Q 2819 4750 3233 4129 
Q 3647 3509 3647 2328 
Q 3647 1150 3233 529 
Q 2819 -91 2034 -91 
Q 1250 -91 836 529 
Q 422 1150 422 2328 
Q 422 3509 836 4129 
Q 1250 4750 2034 4750 
z
" transform="scale(0.015625)"/>
     </defs>
     <use xlink:href="#DejaVuSans-39"/>
     <use xlink:href="#DejaVuSans-2e" x="63.623047"/>
     <use xlink:href="#DejaVuSans-37" x="95.410156"/>
     <use xlink:href="#DejaVuSans-65" x="159.033203"/>
     <use xlink:href="#DejaVuSans-2d" x="220.556641"/>
     <use xlink:href="#DejaVuSans-30" x="256.640625"/>
     <use xlink:href="#DejaVuSans-37" x="320.263672"/>
    </g>
   </g>
   <g id="text_16">
    <!-- 4.3e-06 -->
    <g style="fill: #ffffff" transform="translate(354.658469 103.900375) scale(0.1 -0.1)">
     <defs>
      <path id="DejaVuSans-34" d="M 2419 4116 
L 825 1625 
L 2419 1625 
L 2419 4116 
z
M 2253 4666 
L 3047 4666 
L 3047 1625 
L 3713 1625 
L 3713 1100 
L 3047 1100 
L 3047 0 
L 2419 0 
L 2419 1100 
L 313 1100 
L 313 1709 
L 2253 4666 
z
" transform="scale(0.015625)"/>
      <path id="DejaVuSans-33" d="M 2597 2516 
Q 3050 2419 3304 2112 
Q 3559 1806 3559 1356 
Q 3559 666 3084 287 
Q 2609 -91 1734 -91 
Q 1441 -91 1130 -33 
Q 819 25 488 141 
L 488 750 
Q 750 597 1062 519 
Q 1375 441 1716 441 
Q 2309 441 2620 675 
Q 2931 909 2931 1356 
Q 2931 1769 2642 2001 
Q 2353 2234 1838 2234 
L 1294 2234 
L 1294 2753 
L 1863 2753 
Q 2328 2753 2575 2939 
Q 2822 3125 2822 3475 
Q 2822 3834 2567 4026 
Q 2313 4219 1838 4219 
Q 1578 4219 1281 4162 
Q 984 4106 628 3988 
L 628 4550 
Q 988 4650 1302 4700 
Q 1616 4750 1894 4750 
Q 2613 4750 3031 4423 
Q 3450 4097 3450 3541 
Q 3450 3153 3228 2886 
Q 3006 2619 2597 2516 
z
" transform="scale(0.015625)"/>
      <path id="DejaVuSans-36" d="M 2113 2584 
Q 1688 2584 1439 2293 
Q 1191 2003 1191 1497 
Q 1191 994 1439 701 
Q 1688 409 2113 409 
Q 2538 409 2786 701 
Q 3034 994 3034 1497 
Q 3034 2003 2786 2293 
Q 2538 2584 2113 2584 
z
M 3366 4563 
L 3366 3988 
Q 3128 4100 2886 4159 
Q 2644 4219 2406 4219 
Q 1781 4219 1451 3797 
Q 1122 3375 1075 2522 
Q 1259 2794 1537 2939 
Q 1816 3084 2150 3084 
Q 2853 3084 3261 2657 
Q 3669 2231 3669 1497 
Q 3669 778 3244 343 
Q 2819 -91 2113 -91 
Q 1303 -91 875 529 
Q 447 1150 447 2328 
Q 447 3434 972 4092 
Q 1497 4750 2381 4750 
Q 2619 4750 2861 4703 
Q 3103 4656 3366 4563 
z
" transform="scale(0.015625)"/>
     </defs>
     <use xlink:href="#DejaVuSans-34"/>
     <use xlink:href="#DejaVuSans-2e" x="63.623047"/>
     <use xlink:href="#DejaVuSans-33" x="95.410156"/>
     <use xlink:href="#DejaVuSans-65" x="159.033203"/>
     <use xlink:href="#DejaVuSans-2d" x="220.556641"/>
     <use xlink:href="#DejaVuSans-30" x="256.640625"/>
     <use xlink:href="#DejaVuSans-36" x="320.263672"/>
    </g>
   </g>
   <g id="text_17">
    <!-- 2.8e-07 -->
    <g style="fill: #ffffff" transform="translate(422.836469 103.900375) scale(0.1 -0.1)">
     <defs>
      <path id="DejaVuSans-38" d="M 2034 2216 
Q 1584 2216 1326 1975 
Q 1069 1734 1069 1313 
Q 1069 891 1326 650 
Q 1584 409 2034 409 
Q 2484 409 2743 651 
Q 3003 894 3003 1313 
Q 3003 1734 2745 1975 
Q 2488 2216 2034 2216 
z
M 1403 2484 
Q 997 2584 770 2862 
Q 544 3141 544 3541 
Q 544 4100 942 4425 
Q 1341 4750 2034 4750 
Q 2731 4750 3128 4425 
Q 3525 4100 3525 3541 
Q 3525 3141 3298 2862 
Q 3072 2584 2669 2484 
Q 3125 2378 3379 2068 
Q 3634 1759 3634 1313 
Q 3634 634 3220 271 
Q 2806 -91 2034 -91 
Q 1263 -91 848 271 
Q 434 634 434 1313 
Q 434 1759 690 2068 
Q 947 2378 1403 2484 
z
M 1172 3481 
Q 1172 3119 1398 2916 
Q 1625 2713 2034 2713 
Q 2441 2713 2670 2916 
Q 2900 3119 2900 3481 
Q 2900 3844 2670 4047 
Q 2441 4250 2034 4250 
Q 1625 4250 1398 4047 
Q 1172 3844 1172 3481 
z
" transform="scale(0.015625)"/>
     </defs>
     <use xlink:href="#DejaVuSans-32"/>
     <use xlink:href="#DejaVuSans-2e" x="63.623047"/>
     <use xlink:href="#DejaVuSans-38" x="95.410156"/>
     <use xlink:href="#DejaVuSans-65" x="159.033203"/>
     <use xlink:href="#DejaVuSans-2d" x="220.556641"/>
     <use xlink:href="#DejaVuSans-30" x="256.640625"/>
     <use xlink:href="#DejaVuSans-37" x="320.263672"/>
    </g>
   </g>
   <g id="text_18">
    <!-- 1 -->
    <g style="fill: #ffffff" transform="translate(234.31575 172.078375) scale(0.1 -0.1)">
     <use xlink:href="#DejaVuSans-31"/>
    </g>
   </g>
   <g id="text_19">
    <!-- 0.00079 -->
    <g style="fill: #ffffff" transform="translate(284.998438 172.078375) scale(0.1 -0.1)">
     <use xlink:href="#DejaVuSans-30"/>
     <use xlink:href="#DejaVuSans-2e" x="63.623047"/>
     <use xlink:href="#DejaVuSans-30" x="95.410156"/>
     <use xlink:href="#DejaVuSans-30" x="159.033203"/>
     <use xlink:href="#DejaVuSans-30" x="222.65625"/>
     <use xlink:href="#DejaVuSans-37" x="286.279297"/>
     <use xlink:href="#DejaVuSans-39" x="349.902344"/>
    </g>
   </g>
   <g id="text_20">
    <!-- 0.0019 -->
    <g style="fill: #ffffff" transform="translate(356.357687 172.078375) scale(0.1 -0.1)">
     <use xlink:href="#DejaVuSans-30"/>
     <use xlink:href="#DejaVuSans-2e" x="63.623047"/>
     <use xlink:href="#DejaVuSans-30" x="95.410156"/>
     <use xlink:href="#DejaVuSans-30" x="159.033203"/>
     <use xlink:href="#DejaVuSans-31" x="222.65625"/>
     <use xlink:href="#DejaVuSans-39" x="286.279297"/>
    </g>
   </g>
   <g id="text_21">
    <!-- 0.00033 -->
    <g style="fill: #ffffff" transform="translate(421.354438 172.078375) scale(0.1 -0.1)">
     <use xlink:href="#DejaVuSans-30"/>
     <use xlink:href="#DejaVuSans-2e" x="63.623047"/>
     <use xlink:href="#DejaVuSans-30" x="95.410156"/>
     <use xlink:href="#DejaVuSans-30" x="159.033203"/>
     <use xlink:href="#DejaVuSans-30" x="222.65625"/>
     <use xlink:href="#DejaVuSans-33" x="286.279297"/>
     <use xlink:href="#DejaVuSans-33" x="349.902344"/>
    </g>
   </g>
   <g id="text_22">
    <!-- 1.6e-07 -->
    <g style="fill: #ffffff" transform="translate(286.480469 240.256375) scale(0.1 -0.1)">
     <use xlink:href="#DejaVuSans-31"/>
     <use xlink:href="#DejaVuSans-2e" x="63.623047"/>
     <use xlink:href="#DejaVuSans-36" x="95.410156"/>
     <use xlink:href="#DejaVuSans-65" x="159.033203"/>
     <use xlink:href="#DejaVuSans-2d" x="220.556641"/>
     <use xlink:href="#DejaVuSans-30" x="256.640625"/>
     <use xlink:href="#DejaVuSans-37" x="320.263672"/>
    </g>
   </g>
   <g id="text_23">
    <!-- 2.2e-07 -->
    <g style="fill: #ffffff" transform="translate(354.658469 240.256375) scale(0.1 -0.1)">
     <use xlink:href="#DejaVuSans-32"/>
     <use xlink:href="#DejaVuSans-2e" x="63.623047"/>
     <use xlink:href="#DejaVuSans-32" x="95.410156"/>
     <use xlink:href="#DejaVuSans-65" x="159.033203"/>
     <use xlink:href="#DejaVuSans-2d" x="220.556641"/>
     <use xlink:href="#DejaVuSans-30" x="256.640625"/>
     <use xlink:href="#DejaVuSans-37" x="320.263672"/>
    </g>
   </g>
   <g id="text_24">
    <!-- 2e-08 -->
    <g style="fill: #ffffff" transform="translate(427.606781 240.256375) scale(0.1 -0.1)">
     <use xlink:href="#DejaVuSans-32"/>
     <use xlink:href="#DejaVuSans-65" x="63.623047"/>
     <use xlink:href="#DejaVuSans-2d" x="125.146484"/>
     <use xlink:href="#DejaVuSans-30" x="161.230469"/>
     <use xlink:href="#DejaVuSans-38" x="224.853516"/>
    </g>
   </g>
   <g id="text_25">
    <!-- 1 -->
    <g style="fill: #ffffff" transform="translate(370.67175 308.434375) scale(0.1 -0.1)">
     <use xlink:href="#DejaVuSans-31"/>
    </g>
   </g>
   <g id="text_26">
    <!-- 1 -->
    <g style="fill: #ffffff" transform="translate(438.84975 308.434375) scale(0.1 -0.1)">
     <use xlink:href="#DejaVuSans-31"/>
    </g>
   </g>
   <g id="text_27">
    <!-- 1 -->
    <g style="fill: #ffffff" transform="translate(438.84975 376.612375) scale(0.1 -0.1)">
     <use xlink:href="#DejaVuSans-31"/>
    </g>
   </g>
   <g id="text_28">
    <!-- 0.61 -->
    <g style="fill: #ffffff" transform="translate(90.008188 172.078375) scale(0.1 -0.1)">
     <use xlink:href="#DejaVuSans-30"/>
     <use xlink:href="#DejaVuSans-2e" x="63.623047"/>
     <use xlink:href="#DejaVuSans-36" x="95.410156"/>
     <use xlink:href="#DejaVuSans-31" x="159.033203"/>
    </g>
   </g>
   <g id="text_29">
    <!-- 0.73 -->
    <g style="fill: #ffffff" transform="translate(90.008188 240.256375) scale(0.1 -0.1)">
     <use xlink:href="#DejaVuSans-30"/>
     <use xlink:href="#DejaVuSans-2e" x="63.623047"/>
     <use xlink:href="#DejaVuSans-37" x="95.410156"/>
     <use xlink:href="#DejaVuSans-33" x="159.033203"/>
    </g>
   </g>
   <g id="text_30">
    <!-- 0.36 -->
    <g style="fill: #262626" transform="translate(158.186188 240.256375) scale(0.1 -0.1)">
     <use xlink:href="#DejaVuSans-30"/>
     <use xlink:href="#DejaVuSans-2e" x="63.623047"/>
     <use xlink:href="#DejaVuSans-33" x="95.410156"/>
     <use xlink:href="#DejaVuSans-36" x="159.033203"/>
    </g>
   </g>
   <g id="text_31">
    <!-- 0.74 -->
    <g style="fill: #ffffff" transform="translate(90.008188 308.434375) scale(0.1 -0.1)">
     <use xlink:href="#DejaVuSans-30"/>
     <use xlink:href="#DejaVuSans-2e" x="63.623047"/>
     <use xlink:href="#DejaVuSans-37" x="95.410156"/>
     <use xlink:href="#DejaVuSans-34" x="159.033203"/>
    </g>
   </g>
   <g id="text_32">
    <!-- 0.83 -->
    <g style="fill: #ffffff" transform="translate(158.186188 308.434375) scale(0.1 -0.1)">
     <use xlink:href="#DejaVuSans-30"/>
     <use xlink:href="#DejaVuSans-2e" x="63.623047"/>
     <use xlink:href="#DejaVuSans-38" x="95.410156"/>
     <use xlink:href="#DejaVuSans-33" x="159.033203"/>
    </g>
   </g>
   <g id="text_33">
    <!-- 0.41 -->
    <g style="fill: #262626" transform="translate(226.364188 308.434375) scale(0.1 -0.1)">
     <use xlink:href="#DejaVuSans-30"/>
     <use xlink:href="#DejaVuSans-2e" x="63.623047"/>
     <use xlink:href="#DejaVuSans-34" x="95.410156"/>
     <use xlink:href="#DejaVuSans-31" x="159.033203"/>
    </g>
   </g>
   <g id="text_34">
    <!-- 0.62 -->
    <g style="fill: #ffffff" transform="translate(90.008188 376.612375) scale(0.1 -0.1)">
     <use xlink:href="#DejaVuSans-30"/>
     <use xlink:href="#DejaVuSans-2e" x="63.623047"/>
     <use xlink:href="#DejaVuSans-36" x="95.410156"/>
     <use xlink:href="#DejaVuSans-32" x="159.033203"/>
    </g>
   </g>
   <g id="text_35">
    <!-- 0.73 -->
    <g style="fill: #ffffff" transform="translate(158.186188 376.612375) scale(0.1 -0.1)">
     <use xlink:href="#DejaVuSans-30"/>
     <use xlink:href="#DejaVuSans-2e" x="63.623047"/>
     <use xlink:href="#DejaVuSans-37" x="95.410156"/>
     <use xlink:href="#DejaVuSans-33" x="159.033203"/>
    </g>
   </g>
   <g id="text_36">
    <!-- 0.33 -->
    <g style="fill: #262626" transform="translate(226.364188 376.612375) scale(0.1 -0.1)">
     <use xlink:href="#DejaVuSans-30"/>
     <use xlink:href="#DejaVuSans-2e" x="63.623047"/>
     <use xlink:href="#DejaVuSans-33" x="95.410156"/>
     <use xlink:href="#DejaVuSans-33" x="159.033203"/>
    </g>
   </g>
   <g id="text_37">
    <!-- 0.95 -->
    <g style="fill: #ffffff" transform="translate(294.542188 376.612375) scale(0.1 -0.1)">
     <defs>
      <path id="DejaVuSans-35" d="M 691 4666 
L 3169 4666 
L 3169 4134 
L 1269 4134 
L 1269 2991 
Q 1406 3038 1543 3061 
Q 1681 3084 1819 3084 
Q 2600 3084 3056 2656 
Q 3513 2228 3513 1497 
Q 3513 744 3044 326 
Q 2575 -91 1722 -91 
Q 1428 -91 1123 -41 
Q 819 9 494 109 
L 494 744 
Q 775 591 1075 516 
Q 1375 441 1709 441 
Q 2250 441 2565 725 
Q 2881 1009 2881 1497 
Q 2881 1984 2565 2268 
Q 2250 2553 1709 2553 
Q 1456 2553 1204 2497 
Q 953 2441 691 2322 
L 691 4666 
z
" transform="scale(0.015625)"/>
     </defs>
     <use xlink:href="#DejaVuSans-30"/>
     <use xlink:href="#DejaVuSans-2e" x="63.623047"/>
     <use xlink:href="#DejaVuSans-39" x="95.410156"/>
     <use xlink:href="#DejaVuSans-35" x="159.033203"/>
    </g>
   </g>
   <g id="text_38">
    <!-- 0.57 -->
    <g style="fill: #ffffff" transform="translate(90.008188 444.790375) scale(0.1 -0.1)">
     <use xlink:href="#DejaVuSans-30"/>
     <use xlink:href="#DejaVuSans-2e" x="63.623047"/>
     <use xlink:href="#DejaVuSans-35" x="95.410156"/>
     <use xlink:href="#DejaVuSans-37" x="159.033203"/>
    </g>
   </g>
   <g id="text_39">
    <!-- 0.87 -->
    <g style="fill: #ffffff" transform="translate(158.186188 444.790375) scale(0.1 -0.1)">
     <use xlink:href="#DejaVuSans-30"/>
     <use xlink:href="#DejaVuSans-2e" x="63.623047"/>
     <use xlink:href="#DejaVuSans-38" x="95.410156"/>
     <use xlink:href="#DejaVuSans-37" x="159.033203"/>
    </g>
   </g>
   <g id="text_40">
    <!-- 0.34 -->
    <g style="fill: #262626" transform="translate(226.364188 444.790375) scale(0.1 -0.1)">
     <use xlink:href="#DejaVuSans-30"/>
     <use xlink:href="#DejaVuSans-2e" x="63.623047"/>
     <use xlink:href="#DejaVuSans-33" x="95.410156"/>
     <use xlink:href="#DejaVuSans-34" x="159.033203"/>
    </g>
   </g>
   <g id="text_41">
    <!-- 0.94 -->
    <g style="fill: #ffffff" transform="translate(294.542188 444.790375) scale(0.1 -0.1)">
     <use xlink:href="#DejaVuSans-30"/>
     <use xlink:href="#DejaVuSans-2e" x="63.623047"/>
     <use xlink:href="#DejaVuSans-39" x="95.410156"/>
     <use xlink:href="#DejaVuSans-34" x="159.033203"/>
    </g>
   </g>
   <g id="text_42">
    <!-- 0.88 -->
    <g style="fill: #ffffff" transform="translate(362.720188 444.790375) scale(0.1 -0.1)">
     <use xlink:href="#DejaVuSans-30"/>
     <use xlink:href="#DejaVuSans-2e" x="63.623047"/>
     <use xlink:href="#DejaVuSans-38" x="95.410156"/>
     <use xlink:href="#DejaVuSans-38" x="159.033203"/>
    </g>
   </g>
   <g id="text_43">
    <!-- 1 -->
    <g style="fill: #ffffff" transform="translate(97.95975 103.900375) scale(0.1 -0.1)">
     <use xlink:href="#DejaVuSans-31"/>
    </g>
   </g>
   <g id="text_44">
    <!-- 1 -->
    <g style="fill: #ffffff" transform="translate(166.13775 172.078375) scale(0.1 -0.1)">
     <use xlink:href="#DejaVuSans-31"/>
    </g>
   </g>
   <g id="text_45">
    <!-- 1 -->
    <g style="fill: #ffffff" transform="translate(234.31575 240.256375) scale(0.1 -0.1)">
     <use xlink:href="#DejaVuSans-31"/>
    </g>
   </g>
   <g id="text_46">
    <!-- 1 -->
    <g style="fill: #ffffff" transform="translate(302.49375 308.434375) scale(0.1 -0.1)">
     <use xlink:href="#DejaVuSans-31"/>
    </g>
   </g>
   <g id="text_47">
    <!-- 1 -->
    <g style="fill: #ffffff" transform="translate(370.67175 376.612375) scale(0.1 -0.1)">
     <use xlink:href="#DejaVuSans-31"/>
    </g>
   </g>
   <g id="text_48">
    <!-- 1 -->
    <g style="fill: #ffffff" transform="translate(438.84975 444.790375) scale(0.1 -0.1)">
     <use xlink:href="#DejaVuSans-31"/>
    </g>
   </g>
  </g>
 </g>
 <defs>
  <clipPath id="p24e3e720f9">
   <rect x="10.8" y="67.052" width="45.452" height="409.068"/>
  </clipPath>
  <clipPath id="p868d2d522a">
   <rect x="67.052" y="10.8" width="409.068" height="45.452"/>
  </clipPath>
  <clipPath id="p5e87c1914b">
   <rect x="67.052" y="67.052" width="409.068" height="409.068"/>
  </clipPath>
 </defs>
</svg>
