<?xml version="1.0" encoding="utf-8" standalone="no"?>
<!DOCTYPE svg PUBLIC "-//W3C//DTD SVG 1.1//EN"
  "http://www.w3.org/Graphics/SVG/1.1/DTD/svg11.dtd">
<svg xmlns:xlink="http://www.w3.org/1999/xlink" width="576pt" height="576pt" viewBox="0 0 576 576" xmlns="http://www.w3.org/2000/svg" version="1.1">
 <metadata>
  <rdf:RDF xmlns:dc="http://purl.org/dc/elements/1.1/" xmlns:cc="http://creativecommons.org/ns#" xmlns:rdf="http://www.w3.org/1999/02/22-rdf-syntax-ns#">
   <cc:Work>
    <dc:type rdf:resource="http://purl.org/dc/dcmitype/StillImage"/>
    <dc:date>2024-10-17T17:18:45.091872</dc:date>
    <dc:format>image/svg+xml</dc:format>
    <dc:creator>
     <cc:Agent>
      <dc:title>Matplotlib v3.6.2, https://matplotlib.org/</dc:title>
     </cc:Agent>
    </dc:creator>
   </cc:Work>
  </rdf:RDF>
 </metadata>
 <defs>
  <style type="text/css">*{stroke-linejoin: round; stroke-linecap: butt}</style>
 </defs>
 <g id="figure_1">
  <g id="patch_1">
   <path d="M 0 576 
L 576 576 
L 576 0 
L 0 0 
z
" style="fill: #ffffff"/>
  </g>
  <g id="axes_1">
   <g id="LineCollection_1">
    <path d="M 63.452 108.099714 
L 31.855266 108.099714 
L 31.855266 175.795143 
L 63.452 175.795143 
" clip-path="url(#p83fc15871f)" style="fill: none; stroke: #333333; stroke-width: 0.5"/>
    <path d="M 63.452 243.490571 
L 31.739261 243.490571 
L 31.739261 311.186 
L 63.452 311.186 
" clip-path="url(#p83fc15871f)" style="fill: none; stroke: #333333; stroke-width: 0.5"/>
    <path d="M 31.855266 141.947429 
L 31.673153 141.947429 
L 31.673153 277.338286 
L 31.739261 277.338286 
" clip-path="url(#p83fc15871f)" style="fill: none; stroke: #333333; stroke-width: 0.5"/>
    <path d="M 63.452 446.576857 
L 31.597897 446.576857 
L 31.597897 514.272286 
L 63.452 514.272286 
" clip-path="url(#p83fc15871f)" style="fill: none; stroke: #333333; stroke-width: 0.5"/>
    <path d="M 63.452 378.881429 
L 31.591907 378.881429 
L 31.591907 480.424571 
L 31.597897 480.424571 
" clip-path="url(#p83fc15871f)" style="fill: none; stroke: #333333; stroke-width: 0.5"/>
    <path d="M 31.673153 209.642857 
L 13.307238 209.642857 
L 13.307238 429.653 
L 31.591907 429.653 
" clip-path="url(#p83fc15871f)" style="fill: none; stroke: #333333; stroke-width: 0.5"/>
   </g>
  </g>
  <g id="axes_2">
   <g id="LineCollection_2">
    <path d="M 108.099714 63.452 
L 108.099714 31.855266 
L 175.795143 31.855266 
L 175.795143 63.452 
" clip-path="url(#pe3d66edbaa)" style="fill: none; stroke: #333333; stroke-width: 0.5"/>
    <path d="M 243.490571 63.452 
L 243.490571 31.739261 
L 311.186 31.739261 
L 311.186 63.452 
" clip-path="url(#pe3d66edbaa)" style="fill: none; stroke: #333333; stroke-width: 0.5"/>
    <path d="M 141.947429 31.855266 
L 141.947429 31.673153 
L 277.338286 31.673153 
L 277.338286 31.739261 
" clip-path="url(#pe3d66edbaa)" style="fill: none; stroke: #333333; stroke-width: 0.5"/>
    <path d="M 446.576857 63.452 
L 446.576857 31.597897 
L 514.272286 31.597897 
L 514.272286 63.452 
" clip-path="url(#pe3d66edbaa)" style="fill: none; stroke: #333333; stroke-width: 0.5"/>
    <path d="M 378.881429 63.452 
L 378.881429 31.591907 
L 480.424571 31.591907 
L 480.424571 31.597897 
" clip-path="url(#pe3d66edbaa)" style="fill: none; stroke: #333333; stroke-width: 0.5"/>
    <path d="M 209.642857 31.673153 
L 209.642857 13.307238 
L 429.653 13.307238 
L 429.653 31.591907 
" clip-path="url(#pe3d66edbaa)" style="fill: none; stroke: #333333; stroke-width: 0.5"/>
   </g>
  </g>
  <g id="axes_3">
   <g id="patch_2">
    <path d="M 74.252 548.12 
L 548.12 548.12 
L 548.12 74.252 
L 74.252 74.252 
z
" style="fill: #ffffff"/>
   </g>
   <g id="QuadMesh_1">
    <path d="M 74.252 74.252 
L 141.947429 74.252 
L 141.947429 141.947429 
L 74.252 141.947429 
L 74.252 74.252 
" clip-path="url(#peea0b95cdd)" style="fill: #67001f"/>
    <path d="M 141.947429 74.252 
L 209.642857 74.252 
L 209.642857 141.947429 
L 141.947429 141.947429 
L 141.947429 74.252 
" clip-path="url(#peea0b95cdd)" style="fill: #073467"/>
    <path d="M 209.642857 74.252 
L 277.338286 74.252 
L 277.338286 141.947429 
L 209.642857 141.947429 
L 209.642857 74.252 
" clip-path="url(#peea0b95cdd)" style="fill: #063264"/>
    <path d="M 277.338286 74.252 
L 345.033714 74.252 
L 345.033714 141.947429 
L 277.338286 141.947429 
L 277.338286 74.252 
" clip-path="url(#peea0b95cdd)" style="fill: #053061"/>
    <path d="M 345.033714 74.252 
L 412.729143 74.252 
L 412.729143 141.947429 
L 345.033714 141.947429 
L 345.033714 74.252 
" clip-path="url(#peea0b95cdd)" style="fill: #67001f"/>
    <path d="M 412.729143 74.252 
L 480.424571 74.252 
L 480.424571 141.947429 
L 412.729143 141.947429 
L 412.729143 74.252 
" clip-path="url(#peea0b95cdd)" style="fill: #67001f"/>
    <path d="M 480.424571 74.252 
L 548.12 74.252 
L 548.12 141.947429 
L 480.424571 141.947429 
L 480.424571 74.252 
" clip-path="url(#peea0b95cdd)" style="fill: #67001f"/>
    <path d="M 74.252 141.947429 
L 141.947429 141.947429 
L 141.947429 209.642857 
L 74.252 209.642857 
L 74.252 141.947429 
" clip-path="url(#peea0b95cdd)" style="fill: #073467"/>
    <path d="M 141.947429 141.947429 
L 209.642857 141.947429 
L 209.642857 209.642857 
L 141.947429 209.642857 
L 141.947429 141.947429 
" clip-path="url(#peea0b95cdd)" style="fill: #67001f"/>
    <path d="M 209.642857 141.947429 
L 277.338286 141.947429 
L 277.338286 209.642857 
L 209.642857 209.642857 
L 209.642857 141.947429 
" clip-path="url(#peea0b95cdd)" style="fill: #053061"/>
    <path d="M 277.338286 141.947429 
L 345.033714 141.947429 
L 345.033714 209.642857 
L 277.338286 209.642857 
L 277.338286 141.947429 
" clip-path="url(#peea0b95cdd)" style="fill: #063264"/>
    <path d="M 345.033714 141.947429 
L 412.729143 141.947429 
L 412.729143 209.642857 
L 345.033714 209.642857 
L 345.033714 141.947429 
" clip-path="url(#peea0b95cdd)" style="fill: #67001f"/>
    <path d="M 412.729143 141.947429 
L 480.424571 141.947429 
L 480.424571 209.642857 
L 412.729143 209.642857 
L 412.729143 141.947429 
" clip-path="url(#peea0b95cdd)" style="fill: #67001f"/>
    <path d="M 480.424571 141.947429 
L 548.12 141.947429 
L 548.12 209.642857 
L 480.424571 209.642857 
L 480.424571 141.947429 
" clip-path="url(#peea0b95cdd)" style="fill: #67001f"/>
    <path d="M 74.252 209.642857 
L 141.947429 209.642857 
L 141.947429 277.338286 
L 74.252 277.338286 
L 74.252 209.642857 
" clip-path="url(#peea0b95cdd)" style="fill: #063264"/>
    <path d="M 141.947429 209.642857 
L 209.642857 209.642857 
L 209.642857 277.338286 
L 141.947429 277.338286 
L 141.947429 209.642857 
" clip-path="url(#peea0b95cdd)" style="fill: #053061"/>
    <path d="M 209.642857 209.642857 
L 277.338286 209.642857 
L 277.338286 277.338286 
L 209.642857 277.338286 
L 209.642857 209.642857 
" clip-path="url(#peea0b95cdd)" style="fill: #67001f"/>
    <path d="M 277.338286 209.642857 
L 345.033714 209.642857 
L 345.033714 277.338286 
L 277.338286 277.338286 
L 277.338286 209.642857 
" clip-path="url(#peea0b95cdd)" style="fill: #063264"/>
    <path d="M 345.033714 209.642857 
L 412.729143 209.642857 
L 412.729143 277.338286 
L 345.033714 277.338286 
L 345.033714 209.642857 
" clip-path="url(#peea0b95cdd)" style="fill: #67001f"/>
    <path d="M 412.729143 209.642857 
L 480.424571 209.642857 
L 480.424571 277.338286 
L 412.729143 277.338286 
L 412.729143 209.642857 
" clip-path="url(#peea0b95cdd)" style="fill: #67001f"/>
    <path d="M 480.424571 209.642857 
L 548.12 209.642857 
L 548.12 277.338286 
L 480.424571 277.338286 
L 480.424571 209.642857 
" clip-path="url(#peea0b95cdd)" style="fill: #67001f"/>
    <path d="M 74.252 277.338286 
L 141.947429 277.338286 
L 141.947429 345.033714 
L 74.252 345.033714 
L 74.252 277.338286 
" clip-path="url(#peea0b95cdd)" style="fill: #053061"/>
    <path d="M 141.947429 277.338286 
L 209.642857 277.338286 
L 209.642857 345.033714 
L 141.947429 345.033714 
L 141.947429 277.338286 
" clip-path="url(#peea0b95cdd)" style="fill: #063264"/>
    <path d="M 209.642857 277.338286 
L 277.338286 277.338286 
L 277.338286 345.033714 
L 209.642857 345.033714 
L 209.642857 277.338286 
" clip-path="url(#peea0b95cdd)" style="fill: #063264"/>
    <path d="M 277.338286 277.338286 
L 345.033714 277.338286 
L 345.033714 345.033714 
L 277.338286 345.033714 
L 277.338286 277.338286 
" clip-path="url(#peea0b95cdd)" style="fill: #67001f"/>
    <path d="M 345.033714 277.338286 
L 412.729143 277.338286 
L 412.729143 345.033714 
L 345.033714 345.033714 
L 345.033714 277.338286 
" clip-path="url(#peea0b95cdd)" style="fill: #6a011f"/>
    <path d="M 412.729143 277.338286 
L 480.424571 277.338286 
L 480.424571 345.033714 
L 412.729143 345.033714 
L 412.729143 277.338286 
" clip-path="url(#peea0b95cdd)" style="fill: #700320"/>
    <path d="M 480.424571 277.338286 
L 548.12 277.338286 
L 548.12 345.033714 
L 480.424571 345.033714 
L 480.424571 277.338286 
" clip-path="url(#peea0b95cdd)" style="fill: #67001f"/>
    <path d="M 74.252 345.033714 
L 141.947429 345.033714 
L 141.947429 412.729143 
L 74.252 412.729143 
L 74.252 345.033714 
" clip-path="url(#peea0b95cdd)" style="fill: #67001f"/>
    <path d="M 141.947429 345.033714 
L 209.642857 345.033714 
L 209.642857 412.729143 
L 141.947429 412.729143 
L 141.947429 345.033714 
" clip-path="url(#peea0b95cdd)" style="fill: #67001f"/>
    <path d="M 209.642857 345.033714 
L 277.338286 345.033714 
L 277.338286 412.729143 
L 209.642857 412.729143 
L 209.642857 345.033714 
" clip-path="url(#peea0b95cdd)" style="fill: #67001f"/>
    <path d="M 277.338286 345.033714 
L 345.033714 345.033714 
L 345.033714 412.729143 
L 277.338286 412.729143 
L 277.338286 345.033714 
" clip-path="url(#peea0b95cdd)" style="fill: #6a011f"/>
    <path d="M 345.033714 345.033714 
L 412.729143 345.033714 
L 412.729143 412.729143 
L 345.033714 412.729143 
L 345.033714 345.033714 
" clip-path="url(#peea0b95cdd)" style="fill: #67001f"/>
    <path d="M 412.729143 345.033714 
L 480.424571 345.033714 
L 480.424571 412.729143 
L 412.729143 412.729143 
L 412.729143 345.033714 
" clip-path="url(#peea0b95cdd)" style="fill: #053061"/>
    <path d="M 480.424571 345.033714 
L 548.12 345.033714 
L 548.12 412.729143 
L 480.424571 412.729143 
L 480.424571 345.033714 
" clip-path="url(#peea0b95cdd)" style="fill: #053061"/>
    <path d="M 74.252 412.729143 
L 141.947429 412.729143 
L 141.947429 480.424571 
L 74.252 480.424571 
L 74.252 412.729143 
" clip-path="url(#peea0b95cdd)" style="fill: #67001f"/>
    <path d="M 141.947429 412.729143 
L 209.642857 412.729143 
L 209.642857 480.424571 
L 141.947429 480.424571 
L 141.947429 412.729143 
" clip-path="url(#peea0b95cdd)" style="fill: #67001f"/>
    <path d="M 209.642857 412.729143 
L 277.338286 412.729143 
L 277.338286 480.424571 
L 209.642857 480.424571 
L 209.642857 412.729143 
" clip-path="url(#peea0b95cdd)" style="fill: #67001f"/>
    <path d="M 277.338286 412.729143 
L 345.033714 412.729143 
L 345.033714 480.424571 
L 277.338286 480.424571 
L 277.338286 412.729143 
" clip-path="url(#peea0b95cdd)" style="fill: #700320"/>
    <path d="M 345.033714 412.729143 
L 412.729143 412.729143 
L 412.729143 480.424571 
L 345.033714 480.424571 
L 345.033714 412.729143 
" clip-path="url(#peea0b95cdd)" style="fill: #053061"/>
    <path d="M 412.729143 412.729143 
L 480.424571 412.729143 
L 480.424571 480.424571 
L 412.729143 480.424571 
L 412.729143 412.729143 
" clip-path="url(#peea0b95cdd)" style="fill: #67001f"/>
    <path d="M 480.424571 412.729143 
L 548.12 412.729143 
L 548.12 480.424571 
L 480.424571 480.424571 
L 480.424571 412.729143 
" clip-path="url(#peea0b95cdd)" style="fill: #053061"/>
    <path d="M 74.252 480.424571 
L 141.947429 480.424571 
L 141.947429 548.12 
L 74.252 548.12 
L 74.252 480.424571 
" clip-path="url(#peea0b95cdd)" style="fill: #67001f"/>
    <path d="M 141.947429 480.424571 
L 209.642857 480.424571 
L 209.642857 548.12 
L 141.947429 548.12 
L 141.947429 480.424571 
" clip-path="url(#peea0b95cdd)" style="fill: #67001f"/>
    <path d="M 209.642857 480.424571 
L 277.338286 480.424571 
L 277.338286 548.12 
L 209.642857 548.12 
L 209.642857 480.424571 
" clip-path="url(#peea0b95cdd)" style="fill: #67001f"/>
    <path d="M 277.338286 480.424571 
L 345.033714 480.424571 
L 345.033714 548.12 
L 277.338286 548.12 
L 277.338286 480.424571 
" clip-path="url(#peea0b95cdd)" style="fill: #67001f"/>
    <path d="M 345.033714 480.424571 
L 412.729143 480.424571 
L 412.729143 548.12 
L 345.033714 548.12 
L 345.033714 480.424571 
" clip-path="url(#peea0b95cdd)" style="fill: #053061"/>
    <path d="M 412.729143 480.424571 
L 480.424571 480.424571 
L 480.424571 548.12 
L 412.729143 548.12 
L 412.729143 480.424571 
" clip-path="url(#peea0b95cdd)" style="fill: #053061"/>
    <path d="M 480.424571 480.424571 
L 548.12 480.424571 
L 548.12 548.12 
L 480.424571 548.12 
L 480.424571 480.424571 
" clip-path="url(#peea0b95cdd)" style="fill: #67001f"/>
   </g>
   <g id="QuadMesh_2">
    <path d="M 74.252 74.252 
L 141.947429 74.252 
L 141.947429 141.947429 
L 74.252 141.947429 
L 74.252 74.252 
" clip-path="url(#peea0b95cdd)" style="fill: none"/>
    <path d="M 141.947429 74.252 
L 209.642857 74.252 
L 209.642857 141.947429 
L 141.947429 141.947429 
L 141.947429 74.252 
" clip-path="url(#peea0b95cdd)" style="fill: #073467"/>
    <path d="M 209.642857 74.252 
L 277.338286 74.252 
L 277.338286 141.947429 
L 209.642857 141.947429 
L 209.642857 74.252 
" clip-path="url(#peea0b95cdd)" style="fill: #063264"/>
    <path d="M 277.338286 74.252 
L 345.033714 74.252 
L 345.033714 141.947429 
L 277.338286 141.947429 
L 277.338286 74.252 
" clip-path="url(#peea0b95cdd)" style="fill: #053061"/>
    <path d="M 345.033714 74.252 
L 412.729143 74.252 
L 412.729143 141.947429 
L 345.033714 141.947429 
L 345.033714 74.252 
" clip-path="url(#peea0b95cdd)" style="fill: #67001f"/>
    <path d="M 412.729143 74.252 
L 480.424571 74.252 
L 480.424571 141.947429 
L 412.729143 141.947429 
L 412.729143 74.252 
" clip-path="url(#peea0b95cdd)" style="fill: #67001f"/>
    <path d="M 480.424571 74.252 
L 548.12 74.252 
L 548.12 141.947429 
L 480.424571 141.947429 
L 480.424571 74.252 
" clip-path="url(#peea0b95cdd)" style="fill: #67001f"/>
    <path d="M 74.252 141.947429 
L 141.947429 141.947429 
L 141.947429 209.642857 
L 74.252 209.642857 
L 74.252 141.947429 
" clip-path="url(#peea0b95cdd)" style="fill: none"/>
    <path d="M 141.947429 141.947429 
L 209.642857 141.947429 
L 209.642857 209.642857 
L 141.947429 209.642857 
L 141.947429 141.947429 
" clip-path="url(#peea0b95cdd)" style="fill: none"/>
    <path d="M 209.642857 141.947429 
L 277.338286 141.947429 
L 277.338286 209.642857 
L 209.642857 209.642857 
L 209.642857 141.947429 
" clip-path="url(#peea0b95cdd)" style="fill: #053061"/>
    <path d="M 277.338286 141.947429 
L 345.033714 141.947429 
L 345.033714 209.642857 
L 277.338286 209.642857 
L 277.338286 141.947429 
" clip-path="url(#peea0b95cdd)" style="fill: #063264"/>
    <path d="M 345.033714 141.947429 
L 412.729143 141.947429 
L 412.729143 209.642857 
L 345.033714 209.642857 
L 345.033714 141.947429 
" clip-path="url(#peea0b95cdd)" style="fill: #67001f"/>
    <path d="M 412.729143 141.947429 
L 480.424571 141.947429 
L 480.424571 209.642857 
L 412.729143 209.642857 
L 412.729143 141.947429 
" clip-path="url(#peea0b95cdd)" style="fill: #67001f"/>
    <path d="M 480.424571 141.947429 
L 548.12 141.947429 
L 548.12 209.642857 
L 480.424571 209.642857 
L 480.424571 141.947429 
" clip-path="url(#peea0b95cdd)" style="fill: #67001f"/>
    <path d="M 74.252 209.642857 
L 141.947429 209.642857 
L 141.947429 277.338286 
L 74.252 277.338286 
L 74.252 209.642857 
" clip-path="url(#peea0b95cdd)" style="fill: none"/>
    <path d="M 141.947429 209.642857 
L 209.642857 209.642857 
L 209.642857 277.338286 
L 141.947429 277.338286 
L 141.947429 209.642857 
" clip-path="url(#peea0b95cdd)" style="fill: none"/>
    <path d="M 209.642857 209.642857 
L 277.338286 209.642857 
L 277.338286 277.338286 
L 209.642857 277.338286 
L 209.642857 209.642857 
" clip-path="url(#peea0b95cdd)" style="fill: none"/>
    <path d="M 277.338286 209.642857 
L 345.033714 209.642857 
L 345.033714 277.338286 
L 277.338286 277.338286 
L 277.338286 209.642857 
" clip-path="url(#peea0b95cdd)" style="fill: #063264"/>
    <path d="M 345.033714 209.642857 
L 412.729143 209.642857 
L 412.729143 277.338286 
L 345.033714 277.338286 
L 345.033714 209.642857 
" clip-path="url(#peea0b95cdd)" style="fill: #67001f"/>
    <path d="M 412.729143 209.642857 
L 480.424571 209.642857 
L 480.424571 277.338286 
L 412.729143 277.338286 
L 412.729143 209.642857 
" clip-path="url(#peea0b95cdd)" style="fill: #67001f"/>
    <path d="M 480.424571 209.642857 
L 548.12 209.642857 
L 548.12 277.338286 
L 480.424571 277.338286 
L 480.424571 209.642857 
" clip-path="url(#peea0b95cdd)" style="fill: #67001f"/>
    <path d="M 74.252 277.338286 
L 141.947429 277.338286 
L 141.947429 345.033714 
L 74.252 345.033714 
L 74.252 277.338286 
" clip-path="url(#peea0b95cdd)" style="fill: none"/>
    <path d="M 141.947429 277.338286 
L 209.642857 277.338286 
L 209.642857 345.033714 
L 141.947429 345.033714 
L 141.947429 277.338286 
" clip-path="url(#peea0b95cdd)" style="fill: none"/>
    <path d="M 209.642857 277.338286 
L 277.338286 277.338286 
L 277.338286 345.033714 
L 209.642857 345.033714 
L 209.642857 277.338286 
" clip-path="url(#peea0b95cdd)" style="fill: none"/>
    <path d="M 277.338286 277.338286 
L 345.033714 277.338286 
L 345.033714 345.033714 
L 277.338286 345.033714 
L 277.338286 277.338286 
" clip-path="url(#peea0b95cdd)" style="fill: none"/>
    <path d="M 345.033714 277.338286 
L 412.729143 277.338286 
L 412.729143 345.033714 
L 345.033714 345.033714 
L 345.033714 277.338286 
" clip-path="url(#peea0b95cdd)" style="fill: #6a011f"/>
    <path d="M 412.729143 277.338286 
L 480.424571 277.338286 
L 480.424571 345.033714 
L 412.729143 345.033714 
L 412.729143 277.338286 
" clip-path="url(#peea0b95cdd)" style="fill: #700320"/>
    <path d="M 480.424571 277.338286 
L 548.12 277.338286 
L 548.12 345.033714 
L 480.424571 345.033714 
L 480.424571 277.338286 
" clip-path="url(#peea0b95cdd)" style="fill: #67001f"/>
    <path d="M 74.252 345.033714 
L 141.947429 345.033714 
L 141.947429 412.729143 
L 74.252 412.729143 
L 74.252 345.033714 
" clip-path="url(#peea0b95cdd)" style="fill: none"/>
    <path d="M 141.947429 345.033714 
L 209.642857 345.033714 
L 209.642857 412.729143 
L 141.947429 412.729143 
L 141.947429 345.033714 
" clip-path="url(#peea0b95cdd)" style="fill: none"/>
    <path d="M 209.642857 345.033714 
L 277.338286 345.033714 
L 277.338286 412.729143 
L 209.642857 412.729143 
L 209.642857 345.033714 
" clip-path="url(#peea0b95cdd)" style="fill: none"/>
    <path d="M 277.338286 345.033714 
L 345.033714 345.033714 
L 345.033714 412.729143 
L 277.338286 412.729143 
L 277.338286 345.033714 
" clip-path="url(#peea0b95cdd)" style="fill: none"/>
    <path d="M 345.033714 345.033714 
L 412.729143 345.033714 
L 412.729143 412.729143 
L 345.033714 412.729143 
L 345.033714 345.033714 
" clip-path="url(#peea0b95cdd)" style="fill: none"/>
    <path d="M 412.729143 345.033714 
L 480.424571 345.033714 
L 480.424571 412.729143 
L 412.729143 412.729143 
L 412.729143 345.033714 
" clip-path="url(#peea0b95cdd)" style="fill: #053061"/>
    <path d="M 480.424571 345.033714 
L 548.12 345.033714 
L 548.12 412.729143 
L 480.424571 412.729143 
L 480.424571 345.033714 
" clip-path="url(#peea0b95cdd)" style="fill: #053061"/>
    <path d="M 74.252 412.729143 
L 141.947429 412.729143 
L 141.947429 480.424571 
L 74.252 480.424571 
L 74.252 412.729143 
" clip-path="url(#peea0b95cdd)" style="fill: none"/>
    <path d="M 141.947429 412.729143 
L 209.642857 412.729143 
L 209.642857 480.424571 
L 141.947429 480.424571 
L 141.947429 412.729143 
" clip-path="url(#peea0b95cdd)" style="fill: none"/>
    <path d="M 209.642857 412.729143 
L 277.338286 412.729143 
L 277.338286 480.424571 
L 209.642857 480.424571 
L 209.642857 412.729143 
" clip-path="url(#peea0b95cdd)" style="fill: none"/>
    <path d="M 277.338286 412.729143 
L 345.033714 412.729143 
L 345.033714 480.424571 
L 277.338286 480.424571 
L 277.338286 412.729143 
" clip-path="url(#peea0b95cdd)" style="fill: none"/>
    <path d="M 345.033714 412.729143 
L 412.729143 412.729143 
L 412.729143 480.424571 
L 345.033714 480.424571 
L 345.033714 412.729143 
" clip-path="url(#peea0b95cdd)" style="fill: none"/>
    <path d="M 412.729143 412.729143 
L 480.424571 412.729143 
L 480.424571 480.424571 
L 412.729143 480.424571 
L 412.729143 412.729143 
" clip-path="url(#peea0b95cdd)" style="fill: none"/>
    <path d="M 480.424571 412.729143 
L 548.12 412.729143 
L 548.12 480.424571 
L 480.424571 480.424571 
L 480.424571 412.729143 
" clip-path="url(#peea0b95cdd)" style="fill: #053061"/>
    <path d="M 74.252 480.424571 
L 141.947429 480.424571 
L 141.947429 548.12 
L 74.252 548.12 
L 74.252 480.424571 
" clip-path="url(#peea0b95cdd)" style="fill: none"/>
    <path d="M 141.947429 480.424571 
L 209.642857 480.424571 
L 209.642857 548.12 
L 141.947429 548.12 
L 141.947429 480.424571 
" clip-path="url(#peea0b95cdd)" style="fill: none"/>
    <path d="M 209.642857 480.424571 
L 277.338286 480.424571 
L 277.338286 548.12 
L 209.642857 548.12 
L 209.642857 480.424571 
" clip-path="url(#peea0b95cdd)" style="fill: none"/>
    <path d="M 277.338286 480.424571 
L 345.033714 480.424571 
L 345.033714 548.12 
L 277.338286 548.12 
L 277.338286 480.424571 
" clip-path="url(#peea0b95cdd)" style="fill: none"/>
    <path d="M 345.033714 480.424571 
L 412.729143 480.424571 
L 412.729143 548.12 
L 345.033714 548.12 
L 345.033714 480.424571 
" clip-path="url(#peea0b95cdd)" style="fill: none"/>
    <path d="M 412.729143 480.424571 
L 480.424571 480.424571 
L 480.424571 548.12 
L 412.729143 548.12 
L 412.729143 480.424571 
" clip-path="url(#peea0b95cdd)" style="fill: none"/>
    <path d="M 480.424571 480.424571 
L 548.12 480.424571 
L 548.12 548.12 
L 480.424571 548.12 
L 480.424571 480.424571 
" clip-path="url(#peea0b95cdd)" style="fill: none"/>
   </g>
   <g id="QuadMesh_3">
    <path d="M 74.252 74.252 
L 141.947429 74.252 
L 141.947429 141.947429 
L 74.252 141.947429 
L 74.252 74.252 
" clip-path="url(#peea0b95cdd)" style="fill: none"/>
    <path d="M 141.947429 74.252 
L 209.642857 74.252 
L 209.642857 141.947429 
L 141.947429 141.947429 
L 141.947429 74.252 
" clip-path="url(#peea0b95cdd)" style="fill: none"/>
    <path d="M 209.642857 74.252 
L 277.338286 74.252 
L 277.338286 141.947429 
L 209.642857 141.947429 
L 209.642857 74.252 
" clip-path="url(#peea0b95cdd)" style="fill: none"/>
    <path d="M 277.338286 74.252 
L 345.033714 74.252 
L 345.033714 141.947429 
L 277.338286 141.947429 
L 277.338286 74.252 
" clip-path="url(#peea0b95cdd)" style="fill: none"/>
    <path d="M 345.033714 74.252 
L 412.729143 74.252 
L 412.729143 141.947429 
L 345.033714 141.947429 
L 345.033714 74.252 
" clip-path="url(#peea0b95cdd)" style="fill: none"/>
    <path d="M 412.729143 74.252 
L 480.424571 74.252 
L 480.424571 141.947429 
L 412.729143 141.947429 
L 412.729143 74.252 
" clip-path="url(#peea0b95cdd)" style="fill: none"/>
    <path d="M 480.424571 74.252 
L 548.12 74.252 
L 548.12 141.947429 
L 480.424571 141.947429 
L 480.424571 74.252 
" clip-path="url(#peea0b95cdd)" style="fill: none"/>
    <path d="M 74.252 141.947429 
L 141.947429 141.947429 
L 141.947429 209.642857 
L 74.252 209.642857 
L 74.252 141.947429 
" clip-path="url(#peea0b95cdd)" style="fill: #e9e9e9"/>
    <path d="M 141.947429 141.947429 
L 209.642857 141.947429 
L 209.642857 209.642857 
L 141.947429 209.642857 
L 141.947429 141.947429 
" clip-path="url(#peea0b95cdd)" style="fill: none"/>
    <path d="M 209.642857 141.947429 
L 277.338286 141.947429 
L 277.338286 209.642857 
L 209.642857 209.642857 
L 209.642857 141.947429 
" clip-path="url(#peea0b95cdd)" style="fill: none"/>
    <path d="M 277.338286 141.947429 
L 345.033714 141.947429 
L 345.033714 209.642857 
L 277.338286 209.642857 
L 277.338286 141.947429 
" clip-path="url(#peea0b95cdd)" style="fill: none"/>
    <path d="M 345.033714 141.947429 
L 412.729143 141.947429 
L 412.729143 209.642857 
L 345.033714 209.642857 
L 345.033714 141.947429 
" clip-path="url(#peea0b95cdd)" style="fill: none"/>
    <path d="M 412.729143 141.947429 
L 480.424571 141.947429 
L 480.424571 209.642857 
L 412.729143 209.642857 
L 412.729143 141.947429 
" clip-path="url(#peea0b95cdd)" style="fill: none"/>
    <path d="M 480.424571 141.947429 
L 548.12 141.947429 
L 548.12 209.642857 
L 480.424571 209.642857 
L 480.424571 141.947429 
" clip-path="url(#peea0b95cdd)" style="fill: none"/>
    <path d="M 74.252 209.642857 
L 141.947429 209.642857 
L 141.947429 277.338286 
L 74.252 277.338286 
L 74.252 209.642857 
" clip-path="url(#peea0b95cdd)" style="fill: #d3d3d3"/>
    <path d="M 141.947429 209.642857 
L 209.642857 209.642857 
L 209.642857 277.338286 
L 141.947429 277.338286 
L 141.947429 209.642857 
" clip-path="url(#peea0b95cdd)" style="fill: #ededed"/>
    <path d="M 209.642857 209.642857 
L 277.338286 209.642857 
L 277.338286 277.338286 
L 209.642857 277.338286 
L 209.642857 209.642857 
" clip-path="url(#peea0b95cdd)" style="fill: none"/>
    <path d="M 277.338286 209.642857 
L 345.033714 209.642857 
L 345.033714 277.338286 
L 277.338286 277.338286 
L 277.338286 209.642857 
" clip-path="url(#peea0b95cdd)" style="fill: none"/>
    <path d="M 345.033714 209.642857 
L 412.729143 209.642857 
L 412.729143 277.338286 
L 345.033714 277.338286 
L 345.033714 209.642857 
" clip-path="url(#peea0b95cdd)" style="fill: none"/>
    <path d="M 412.729143 209.642857 
L 480.424571 209.642857 
L 480.424571 277.338286 
L 412.729143 277.338286 
L 412.729143 209.642857 
" clip-path="url(#peea0b95cdd)" style="fill: none"/>
    <path d="M 480.424571 209.642857 
L 548.12 209.642857 
L 548.12 277.338286 
L 480.424571 277.338286 
L 480.424571 209.642857 
" clip-path="url(#peea0b95cdd)" style="fill: none"/>
    <path d="M 74.252 277.338286 
L 141.947429 277.338286 
L 141.947429 345.033714 
L 74.252 345.033714 
L 74.252 277.338286 
" clip-path="url(#peea0b95cdd)" style="fill: #cdcdcd"/>
    <path d="M 141.947429 277.338286 
L 209.642857 277.338286 
L 209.642857 345.033714 
L 141.947429 345.033714 
L 141.947429 277.338286 
" clip-path="url(#peea0b95cdd)" style="fill: #d4d4d4"/>
    <path d="M 209.642857 277.338286 
L 277.338286 277.338286 
L 277.338286 345.033714 
L 209.642857 345.033714 
L 209.642857 277.338286 
" clip-path="url(#peea0b95cdd)" style="fill: #c3c3c3"/>
    <path d="M 277.338286 277.338286 
L 345.033714 277.338286 
L 345.033714 345.033714 
L 277.338286 345.033714 
L 277.338286 277.338286 
" clip-path="url(#peea0b95cdd)" style="fill: none"/>
    <path d="M 345.033714 277.338286 
L 412.729143 277.338286 
L 412.729143 345.033714 
L 345.033714 345.033714 
L 345.033714 277.338286 
" clip-path="url(#peea0b95cdd)" style="fill: none"/>
    <path d="M 412.729143 277.338286 
L 480.424571 277.338286 
L 480.424571 345.033714 
L 412.729143 345.033714 
L 412.729143 277.338286 
" clip-path="url(#peea0b95cdd)" style="fill: none"/>
    <path d="M 480.424571 277.338286 
L 548.12 277.338286 
L 548.12 345.033714 
L 480.424571 345.033714 
L 480.424571 277.338286 
" clip-path="url(#peea0b95cdd)" style="fill: none"/>
    <path d="M 74.252 345.033714 
L 141.947429 345.033714 
L 141.947429 412.729143 
L 74.252 412.729143 
L 74.252 345.033714 
" clip-path="url(#peea0b95cdd)" style="fill: #c1c1c1"/>
    <path d="M 141.947429 345.033714 
L 209.642857 345.033714 
L 209.642857 412.729143 
L 141.947429 412.729143 
L 141.947429 345.033714 
" clip-path="url(#peea0b95cdd)" style="fill: #e1e1e1"/>
    <path d="M 209.642857 345.033714 
L 277.338286 345.033714 
L 277.338286 412.729143 
L 209.642857 412.729143 
L 209.642857 345.033714 
" clip-path="url(#peea0b95cdd)" style="fill: #e7e7e7"/>
    <path d="M 277.338286 345.033714 
L 345.033714 345.033714 
L 345.033714 412.729143 
L 277.338286 412.729143 
L 277.338286 345.033714 
" clip-path="url(#peea0b95cdd)" style="fill: #999999"/>
    <path d="M 345.033714 345.033714 
L 412.729143 345.033714 
L 412.729143 412.729143 
L 345.033714 412.729143 
L 345.033714 345.033714 
" clip-path="url(#peea0b95cdd)" style="fill: none"/>
    <path d="M 412.729143 345.033714 
L 480.424571 345.033714 
L 480.424571 412.729143 
L 412.729143 412.729143 
L 412.729143 345.033714 
" clip-path="url(#peea0b95cdd)" style="fill: none"/>
    <path d="M 480.424571 345.033714 
L 548.12 345.033714 
L 548.12 412.729143 
L 480.424571 412.729143 
L 480.424571 345.033714 
" clip-path="url(#peea0b95cdd)" style="fill: none"/>
    <path d="M 74.252 412.729143 
L 141.947429 412.729143 
L 141.947429 480.424571 
L 74.252 480.424571 
L 74.252 412.729143 
" clip-path="url(#peea0b95cdd)" style="fill: #c5c5c5"/>
    <path d="M 141.947429 412.729143 
L 209.642857 412.729143 
L 209.642857 480.424571 
L 141.947429 480.424571 
L 141.947429 412.729143 
" clip-path="url(#peea0b95cdd)" style="fill: #e9e9e9"/>
    <path d="M 209.642857 412.729143 
L 277.338286 412.729143 
L 277.338286 480.424571 
L 209.642857 480.424571 
L 209.642857 412.729143 
" clip-path="url(#peea0b95cdd)" style="fill: #e3e3e3"/>
    <path d="M 277.338286 412.729143 
L 345.033714 412.729143 
L 345.033714 480.424571 
L 277.338286 480.424571 
L 277.338286 412.729143 
" clip-path="url(#peea0b95cdd)" style="fill: #dfdfdf"/>
    <path d="M 345.033714 412.729143 
L 412.729143 412.729143 
L 412.729143 480.424571 
L 345.033714 480.424571 
L 345.033714 412.729143 
" clip-path="url(#peea0b95cdd)" style="fill: #e4e4e4"/>
    <path d="M 412.729143 412.729143 
L 480.424571 412.729143 
L 480.424571 480.424571 
L 412.729143 480.424571 
L 412.729143 412.729143 
" clip-path="url(#peea0b95cdd)" style="fill: none"/>
    <path d="M 480.424571 412.729143 
L 548.12 412.729143 
L 548.12 480.424571 
L 480.424571 480.424571 
L 480.424571 412.729143 
" clip-path="url(#peea0b95cdd)" style="fill: none"/>
    <path d="M 74.252 480.424571 
L 141.947429 480.424571 
L 141.947429 548.12 
L 74.252 548.12 
L 74.252 480.424571 
" clip-path="url(#peea0b95cdd)" style="fill: #cfcfcf"/>
    <path d="M 141.947429 480.424571 
L 209.642857 480.424571 
L 209.642857 548.12 
L 141.947429 548.12 
L 141.947429 480.424571 
" clip-path="url(#peea0b95cdd)" style="fill: #e9e9e9"/>
    <path d="M 209.642857 480.424571 
L 277.338286 480.424571 
L 277.338286 548.12 
L 209.642857 548.12 
L 209.642857 480.424571 
" clip-path="url(#peea0b95cdd)" style="fill: #f1f1f1"/>
    <path d="M 277.338286 480.424571 
L 345.033714 480.424571 
L 345.033714 548.12 
L 277.338286 548.12 
L 277.338286 480.424571 
" clip-path="url(#peea0b95cdd)" style="fill: #e9e9e9"/>
    <path d="M 345.033714 480.424571 
L 412.729143 480.424571 
L 412.729143 548.12 
L 345.033714 548.12 
L 345.033714 480.424571 
" clip-path="url(#peea0b95cdd)" style="fill: #e9e9e9"/>
    <path d="M 412.729143 480.424571 
L 480.424571 480.424571 
L 480.424571 548.12 
L 412.729143 548.12 
L 412.729143 480.424571 
" clip-path="url(#peea0b95cdd)" style="fill: #8c8c8c"/>
    <path d="M 480.424571 480.424571 
L 548.12 480.424571 
L 548.12 548.12 
L 480.424571 548.12 
L 480.424571 480.424571 
" clip-path="url(#peea0b95cdd)" style="fill: none"/>
   </g>
   <g id="QuadMesh_4">
    <path d="M 74.252 74.252 
L 141.947429 74.252 
L 141.947429 141.947429 
L 74.252 141.947429 
L 74.252 74.252 
" clip-path="url(#peea0b95cdd)"/>
    <path d="M 141.947429 74.252 
L 209.642857 74.252 
L 209.642857 141.947429 
L 141.947429 141.947429 
L 141.947429 74.252 
" clip-path="url(#peea0b95cdd)" style="fill: none"/>
    <path d="M 209.642857 74.252 
L 277.338286 74.252 
L 277.338286 141.947429 
L 209.642857 141.947429 
L 209.642857 74.252 
" clip-path="url(#peea0b95cdd)" style="fill: none"/>
    <path d="M 277.338286 74.252 
L 345.033714 74.252 
L 345.033714 141.947429 
L 277.338286 141.947429 
L 277.338286 74.252 
" clip-path="url(#peea0b95cdd)" style="fill: none"/>
    <path d="M 345.033714 74.252 
L 412.729143 74.252 
L 412.729143 141.947429 
L 345.033714 141.947429 
L 345.033714 74.252 
" clip-path="url(#peea0b95cdd)" style="fill: none"/>
    <path d="M 412.729143 74.252 
L 480.424571 74.252 
L 480.424571 141.947429 
L 412.729143 141.947429 
L 412.729143 74.252 
" clip-path="url(#peea0b95cdd)" style="fill: none"/>
    <path d="M 480.424571 74.252 
L 548.12 74.252 
L 548.12 141.947429 
L 480.424571 141.947429 
L 480.424571 74.252 
" clip-path="url(#peea0b95cdd)" style="fill: none"/>
    <path d="M 74.252 141.947429 
L 141.947429 141.947429 
L 141.947429 209.642857 
L 74.252 209.642857 
L 74.252 141.947429 
" clip-path="url(#peea0b95cdd)" style="fill: none"/>
    <path d="M 141.947429 141.947429 
L 209.642857 141.947429 
L 209.642857 209.642857 
L 141.947429 209.642857 
L 141.947429 141.947429 
" clip-path="url(#peea0b95cdd)"/>
    <path d="M 209.642857 141.947429 
L 277.338286 141.947429 
L 277.338286 209.642857 
L 209.642857 209.642857 
L 209.642857 141.947429 
" clip-path="url(#peea0b95cdd)" style="fill: none"/>
    <path d="M 277.338286 141.947429 
L 345.033714 141.947429 
L 345.033714 209.642857 
L 277.338286 209.642857 
L 277.338286 141.947429 
" clip-path="url(#peea0b95cdd)" style="fill: none"/>
    <path d="M 345.033714 141.947429 
L 412.729143 141.947429 
L 412.729143 209.642857 
L 345.033714 209.642857 
L 345.033714 141.947429 
" clip-path="url(#peea0b95cdd)" style="fill: none"/>
    <path d="M 412.729143 141.947429 
L 480.424571 141.947429 
L 480.424571 209.642857 
L 412.729143 209.642857 
L 412.729143 141.947429 
" clip-path="url(#peea0b95cdd)" style="fill: none"/>
    <path d="M 480.424571 141.947429 
L 548.12 141.947429 
L 548.12 209.642857 
L 480.424571 209.642857 
L 480.424571 141.947429 
" clip-path="url(#peea0b95cdd)" style="fill: none"/>
    <path d="M 74.252 209.642857 
L 141.947429 209.642857 
L 141.947429 277.338286 
L 74.252 277.338286 
L 74.252 209.642857 
" clip-path="url(#peea0b95cdd)" style="fill: none"/>
    <path d="M 141.947429 209.642857 
L 209.642857 209.642857 
L 209.642857 277.338286 
L 141.947429 277.338286 
L 141.947429 209.642857 
" clip-path="url(#peea0b95cdd)" style="fill: none"/>
    <path d="M 209.642857 209.642857 
L 277.338286 209.642857 
L 277.338286 277.338286 
L 209.642857 277.338286 
L 209.642857 209.642857 
" clip-path="url(#peea0b95cdd)"/>
    <path d="M 277.338286 209.642857 
L 345.033714 209.642857 
L 345.033714 277.338286 
L 277.338286 277.338286 
L 277.338286 209.642857 
" clip-path="url(#peea0b95cdd)" style="fill: none"/>
    <path d="M 345.033714 209.642857 
L 412.729143 209.642857 
L 412.729143 277.338286 
L 345.033714 277.338286 
L 345.033714 209.642857 
" clip-path="url(#peea0b95cdd)" style="fill: none"/>
    <path d="M 412.729143 209.642857 
L 480.424571 209.642857 
L 480.424571 277.338286 
L 412.729143 277.338286 
L 412.729143 209.642857 
" clip-path="url(#peea0b95cdd)" style="fill: none"/>
    <path d="M 480.424571 209.642857 
L 548.12 209.642857 
L 548.12 277.338286 
L 480.424571 277.338286 
L 480.424571 209.642857 
" clip-path="url(#peea0b95cdd)" style="fill: none"/>
    <path d="M 74.252 277.338286 
L 141.947429 277.338286 
L 141.947429 345.033714 
L 74.252 345.033714 
L 74.252 277.338286 
" clip-path="url(#peea0b95cdd)" style="fill: none"/>
    <path d="M 141.947429 277.338286 
L 209.642857 277.338286 
L 209.642857 345.033714 
L 141.947429 345.033714 
L 141.947429 277.338286 
" clip-path="url(#peea0b95cdd)" style="fill: none"/>
    <path d="M 209.642857 277.338286 
L 277.338286 277.338286 
L 277.338286 345.033714 
L 209.642857 345.033714 
L 209.642857 277.338286 
" clip-path="url(#peea0b95cdd)" style="fill: none"/>
    <path d="M 277.338286 277.338286 
L 345.033714 277.338286 
L 345.033714 345.033714 
L 277.338286 345.033714 
L 277.338286 277.338286 
" clip-path="url(#peea0b95cdd)"/>
    <path d="M 345.033714 277.338286 
L 412.729143 277.338286 
L 412.729143 345.033714 
L 345.033714 345.033714 
L 345.033714 277.338286 
" clip-path="url(#peea0b95cdd)" style="fill: none"/>
    <path d="M 412.729143 277.338286 
L 480.424571 277.338286 
L 480.424571 345.033714 
L 412.729143 345.033714 
L 412.729143 277.338286 
" clip-path="url(#peea0b95cdd)" style="fill: none"/>
    <path d="M 480.424571 277.338286 
L 548.12 277.338286 
L 548.12 345.033714 
L 480.424571 345.033714 
L 480.424571 277.338286 
" clip-path="url(#peea0b95cdd)" style="fill: none"/>
    <path d="M 74.252 345.033714 
L 141.947429 345.033714 
L 141.947429 412.729143 
L 74.252 412.729143 
L 74.252 345.033714 
" clip-path="url(#peea0b95cdd)" style="fill: none"/>
    <path d="M 141.947429 345.033714 
L 209.642857 345.033714 
L 209.642857 412.729143 
L 141.947429 412.729143 
L 141.947429 345.033714 
" clip-path="url(#peea0b95cdd)" style="fill: none"/>
    <path d="M 209.642857 345.033714 
L 277.338286 345.033714 
L 277.338286 412.729143 
L 209.642857 412.729143 
L 209.642857 345.033714 
" clip-path="url(#peea0b95cdd)" style="fill: none"/>
    <path d="M 277.338286 345.033714 
L 345.033714 345.033714 
L 345.033714 412.729143 
L 277.338286 412.729143 
L 277.338286 345.033714 
" clip-path="url(#peea0b95cdd)" style="fill: none"/>
    <path d="M 345.033714 345.033714 
L 412.729143 345.033714 
L 412.729143 412.729143 
L 345.033714 412.729143 
L 345.033714 345.033714 
" clip-path="url(#peea0b95cdd)"/>
    <path d="M 412.729143 345.033714 
L 480.424571 345.033714 
L 480.424571 412.729143 
L 412.729143 412.729143 
L 412.729143 345.033714 
" clip-path="url(#peea0b95cdd)" style="fill: none"/>
    <path d="M 480.424571 345.033714 
L 548.12 345.033714 
L 548.12 412.729143 
L 480.424571 412.729143 
L 480.424571 345.033714 
" clip-path="url(#peea0b95cdd)" style="fill: none"/>
    <path d="M 74.252 412.729143 
L 141.947429 412.729143 
L 141.947429 480.424571 
L 74.252 480.424571 
L 74.252 412.729143 
" clip-path="url(#peea0b95cdd)" style="fill: none"/>
    <path d="M 141.947429 412.729143 
L 209.642857 412.729143 
L 209.642857 480.424571 
L 141.947429 480.424571 
L 141.947429 412.729143 
" clip-path="url(#peea0b95cdd)" style="fill: none"/>
    <path d="M 209.642857 412.729143 
L 277.338286 412.729143 
L 277.338286 480.424571 
L 209.642857 480.424571 
L 209.642857 412.729143 
" clip-path="url(#peea0b95cdd)" style="fill: none"/>
    <path d="M 277.338286 412.729143 
L 345.033714 412.729143 
L 345.033714 480.424571 
L 277.338286 480.424571 
L 277.338286 412.729143 
" clip-path="url(#peea0b95cdd)" style="fill: none"/>
    <path d="M 345.033714 412.729143 
L 412.729143 412.729143 
L 412.729143 480.424571 
L 345.033714 480.424571 
L 345.033714 412.729143 
" clip-path="url(#peea0b95cdd)" style="fill: none"/>
    <path d="M 412.729143 412.729143 
L 480.424571 412.729143 
L 480.424571 480.424571 
L 412.729143 480.424571 
L 412.729143 412.729143 
" clip-path="url(#peea0b95cdd)"/>
    <path d="M 480.424571 412.729143 
L 548.12 412.729143 
L 548.12 480.424571 
L 480.424571 480.424571 
L 480.424571 412.729143 
" clip-path="url(#peea0b95cdd)" style="fill: none"/>
    <path d="M 74.252 480.424571 
L 141.947429 480.424571 
L 141.947429 548.12 
L 74.252 548.12 
L 74.252 480.424571 
" clip-path="url(#peea0b95cdd)" style="fill: none"/>
    <path d="M 141.947429 480.424571 
L 209.642857 480.424571 
L 209.642857 548.12 
L 141.947429 548.12 
L 141.947429 480.424571 
" clip-path="url(#peea0b95cdd)" style="fill: none"/>
    <path d="M 209.642857 480.424571 
L 277.338286 480.424571 
L 277.338286 548.12 
L 209.642857 548.12 
L 209.642857 480.424571 
" clip-path="url(#peea0b95cdd)" style="fill: none"/>
    <path d="M 277.338286 480.424571 
L 345.033714 480.424571 
L 345.033714 548.12 
L 277.338286 548.12 
L 277.338286 480.424571 
" clip-path="url(#peea0b95cdd)" style="fill: none"/>
    <path d="M 345.033714 480.424571 
L 412.729143 480.424571 
L 412.729143 548.12 
L 345.033714 548.12 
L 345.033714 480.424571 
" clip-path="url(#peea0b95cdd)" style="fill: none"/>
    <path d="M 412.729143 480.424571 
L 480.424571 480.424571 
L 480.424571 548.12 
L 412.729143 548.12 
L 412.729143 480.424571 
" clip-path="url(#peea0b95cdd)" style="fill: none"/>
    <path d="M 480.424571 480.424571 
L 548.12 480.424571 
L 548.12 548.12 
L 480.424571 548.12 
L 480.424571 480.424571 
" clip-path="url(#peea0b95cdd)"/>
   </g>
   <g id="matplotlib.axis_1">
    <g id="xtick_1">
     <g id="line2d_1">
      <defs>
       <path id="mffc9acf779" d="M 0 0 
L 0 3.5 
" style="stroke: #000000; stroke-width: 0.8"/>
      </defs>
      <g>
       <use xlink:href="#mffc9acf779" x="108.099714" y="548.12" style="stroke: #000000; stroke-width: 0.8"/>
      </g>
     </g>
     <g id="text_1">
      <!-- PIK3R3 -->
      <g transform="translate(90.494246 562.718438) scale(0.1 -0.1)">
       <defs>
        <path id="DejaVuSans-50" d="M 1259 4147 
L 1259 2394 
L 2053 2394 
Q 2494 2394 2734 2622 
Q 2975 2850 2975 3272 
Q 2975 3691 2734 3919 
Q 2494 4147 2053 4147 
L 1259 4147 
z
M 628 4666 
L 2053 4666 
Q 2838 4666 3239 4311 
Q 3641 3956 3641 3272 
Q 3641 2581 3239 2228 
Q 2838 1875 2053 1875 
L 1259 1875 
L 1259 0 
L 628 0 
L 628 4666 
z
" transform="scale(0.015625)"/>
        <path id="DejaVuSans-49" d="M 628 4666 
L 1259 4666 
L 1259 0 
L 628 0 
L 628 4666 
z
" transform="scale(0.015625)"/>
        <path id="DejaVuSans-4b" d="M 628 4666 
L 1259 4666 
L 1259 2694 
L 3353 4666 
L 4166 4666 
L 1850 2491 
L 4331 0 
L 3500 0 
L 1259 2247 
L 1259 0 
L 628 0 
L 628 4666 
z
" transform="scale(0.015625)"/>
        <path id="DejaVuSans-33" d="M 2597 2516 
Q 3050 2419 3304 2112 
Q 3559 1806 3559 1356 
Q 3559 666 3084 287 
Q 2609 -91 1734 -91 
Q 1441 -91 1130 -33 
Q 819 25 488 141 
L 488 750 
Q 750 597 1062 519 
Q 1375 441 1716 441 
Q 2309 441 2620 675 
Q 2931 909 2931 1356 
Q 2931 1769 2642 2001 
Q 2353 2234 1838 2234 
L 1294 2234 
L 1294 2753 
L 1863 2753 
Q 2328 2753 2575 2939 
Q 2822 3125 2822 3475 
Q 2822 3834 2567 4026 
Q 2313 4219 1838 4219 
Q 1578 4219 1281 4162 
Q 984 4106 628 3988 
L 628 4550 
Q 988 4650 1302 4700 
Q 1616 4750 1894 4750 
Q 2613 4750 3031 4423 
Q 3450 4097 3450 3541 
Q 3450 3153 3228 2886 
Q 3006 2619 2597 2516 
z
" transform="scale(0.015625)"/>
        <path id="DejaVuSans-52" d="M 2841 2188 
Q 3044 2119 3236 1894 
Q 3428 1669 3622 1275 
L 4263 0 
L 3584 0 
L 2988 1197 
Q 2756 1666 2539 1819 
Q 2322 1972 1947 1972 
L 1259 1972 
L 1259 0 
L 628 0 
L 628 4666 
L 2053 4666 
Q 2853 4666 3247 4331 
Q 3641 3997 3641 3322 
Q 3641 2881 3436 2590 
Q 3231 2300 2841 2188 
z
M 1259 4147 
L 1259 2491 
L 2053 2491 
Q 2509 2491 2742 2702 
Q 2975 2913 2975 3322 
Q 2975 3731 2742 3939 
Q 2509 4147 2053 4147 
L 1259 4147 
z
" transform="scale(0.015625)"/>
       </defs>
       <use xlink:href="#DejaVuSans-50"/>
       <use xlink:href="#DejaVuSans-49" x="60.302734"/>
       <use xlink:href="#DejaVuSans-4b" x="89.794922"/>
       <use xlink:href="#DejaVuSans-33" x="155.371094"/>
       <use xlink:href="#DejaVuSans-52" x="218.994141"/>
       <use xlink:href="#DejaVuSans-33" x="288.476562"/>
      </g>
     </g>
    </g>
    <g id="xtick_2">
     <g id="line2d_2">
      <g>
       <use xlink:href="#mffc9acf779" x="175.795143" y="548.12" style="stroke: #000000; stroke-width: 0.8"/>
      </g>
     </g>
     <g id="text_2">
      <!-- INSYN1 -->
      <g transform="translate(157.429518 562.718438) scale(0.1 -0.1)">
       <defs>
        <path id="DejaVuSans-4e" d="M 628 4666 
L 1478 4666 
L 3547 763 
L 3547 4666 
L 4159 4666 
L 4159 0 
L 3309 0 
L 1241 3903 
L 1241 0 
L 628 0 
L 628 4666 
z
" transform="scale(0.015625)"/>
        <path id="DejaVuSans-53" d="M 3425 4513 
L 3425 3897 
Q 3066 4069 2747 4153 
Q 2428 4238 2131 4238 
Q 1616 4238 1336 4038 
Q 1056 3838 1056 3469 
Q 1056 3159 1242 3001 
Q 1428 2844 1947 2747 
L 2328 2669 
Q 3034 2534 3370 2195 
Q 3706 1856 3706 1288 
Q 3706 609 3251 259 
Q 2797 -91 1919 -91 
Q 1588 -91 1214 -16 
Q 841 59 441 206 
L 441 856 
Q 825 641 1194 531 
Q 1563 422 1919 422 
Q 2459 422 2753 634 
Q 3047 847 3047 1241 
Q 3047 1584 2836 1778 
Q 2625 1972 2144 2069 
L 1759 2144 
Q 1053 2284 737 2584 
Q 422 2884 422 3419 
Q 422 4038 858 4394 
Q 1294 4750 2059 4750 
Q 2388 4750 2728 4690 
Q 3069 4631 3425 4513 
z
" transform="scale(0.015625)"/>
        <path id="DejaVuSans-59" d="M -13 4666 
L 666 4666 
L 1959 2747 
L 3244 4666 
L 3922 4666 
L 2272 2222 
L 2272 0 
L 1638 0 
L 1638 2222 
L -13 4666 
z
" transform="scale(0.015625)"/>
        <path id="DejaVuSans-31" d="M 794 531 
L 1825 531 
L 1825 4091 
L 703 3866 
L 703 4441 
L 1819 4666 
L 2450 4666 
L 2450 531 
L 3481 531 
L 3481 0 
L 794 0 
L 794 531 
z
" transform="scale(0.015625)"/>
       </defs>
       <use xlink:href="#DejaVuSans-49"/>
       <use xlink:href="#DejaVuSans-4e" x="29.492188"/>
       <use xlink:href="#DejaVuSans-53" x="104.296875"/>
       <use xlink:href="#DejaVuSans-59" x="167.773438"/>
       <use xlink:href="#DejaVuSans-4e" x="228.857422"/>
       <use xlink:href="#DejaVuSans-31" x="303.662109"/>
      </g>
     </g>
    </g>
    <g id="xtick_3">
     <g id="line2d_3">
      <g>
       <use xlink:href="#mffc9acf779" x="243.490571" y="548.12" style="stroke: #000000; stroke-width: 0.8"/>
      </g>
     </g>
     <g id="text_3">
      <!-- ZFP36L1 -->
      <g transform="translate(221.845259 562.718438) scale(0.1 -0.1)">
       <defs>
        <path id="DejaVuSans-5a" d="M 359 4666 
L 4025 4666 
L 4025 4184 
L 1075 531 
L 4097 531 
L 4097 0 
L 288 0 
L 288 481 
L 3238 4134 
L 359 4134 
L 359 4666 
z
" transform="scale(0.015625)"/>
        <path id="DejaVuSans-46" d="M 628 4666 
L 3309 4666 
L 3309 4134 
L 1259 4134 
L 1259 2759 
L 3109 2759 
L 3109 2228 
L 1259 2228 
L 1259 0 
L 628 0 
L 628 4666 
z
" transform="scale(0.015625)"/>
        <path id="DejaVuSans-36" d="M 2113 2584 
Q 1688 2584 1439 2293 
Q 1191 2003 1191 1497 
Q 1191 994 1439 701 
Q 1688 409 2113 409 
Q 2538 409 2786 701 
Q 3034 994 3034 1497 
Q 3034 2003 2786 2293 
Q 2538 2584 2113 2584 
z
M 3366 4563 
L 3366 3988 
Q 3128 4100 2886 4159 
Q 2644 4219 2406 4219 
Q 1781 4219 1451 3797 
Q 1122 3375 1075 2522 
Q 1259 2794 1537 2939 
Q 1816 3084 2150 3084 
Q 2853 3084 3261 2657 
Q 3669 2231 3669 1497 
Q 3669 778 3244 343 
Q 2819 -91 2113 -91 
Q 1303 -91 875 529 
Q 447 1150 447 2328 
Q 447 3434 972 4092 
Q 1497 4750 2381 4750 
Q 2619 4750 2861 4703 
Q 3103 4656 3366 4563 
z
" transform="scale(0.015625)"/>
        <path id="DejaVuSans-4c" d="M 628 4666 
L 1259 4666 
L 1259 531 
L 3531 531 
L 3531 0 
L 628 0 
L 628 4666 
z
" transform="scale(0.015625)"/>
       </defs>
       <use xlink:href="#DejaVuSans-5a"/>
       <use xlink:href="#DejaVuSans-46" x="68.505859"/>
       <use xlink:href="#DejaVuSans-50" x="126.025391"/>
       <use xlink:href="#DejaVuSans-33" x="186.328125"/>
       <use xlink:href="#DejaVuSans-36" x="249.951172"/>
       <use xlink:href="#DejaVuSans-4c" x="313.574219"/>
       <use xlink:href="#DejaVuSans-31" x="369.287109"/>
      </g>
     </g>
    </g>
    <g id="xtick_4">
     <g id="line2d_4">
      <g>
       <use xlink:href="#mffc9acf779" x="311.186" y="548.12" style="stroke: #000000; stroke-width: 0.8"/>
      </g>
     </g>
     <g id="text_4">
      <!-- HOXC8 -->
      <g transform="translate(294.0735 562.718438) scale(0.1 -0.1)">
       <defs>
        <path id="DejaVuSans-48" d="M 628 4666 
L 1259 4666 
L 1259 2753 
L 3553 2753 
L 3553 4666 
L 4184 4666 
L 4184 0 
L 3553 0 
L 3553 2222 
L 1259 2222 
L 1259 0 
L 628 0 
L 628 4666 
z
" transform="scale(0.015625)"/>
        <path id="DejaVuSans-4f" d="M 2522 4238 
Q 1834 4238 1429 3725 
Q 1025 3213 1025 2328 
Q 1025 1447 1429 934 
Q 1834 422 2522 422 
Q 3209 422 3611 934 
Q 4013 1447 4013 2328 
Q 4013 3213 3611 3725 
Q 3209 4238 2522 4238 
z
M 2522 4750 
Q 3503 4750 4090 4092 
Q 4678 3434 4678 2328 
Q 4678 1225 4090 567 
Q 3503 -91 2522 -91 
Q 1538 -91 948 565 
Q 359 1222 359 2328 
Q 359 3434 948 4092 
Q 1538 4750 2522 4750 
z
" transform="scale(0.015625)"/>
        <path id="DejaVuSans-58" d="M 403 4666 
L 1081 4666 
L 2241 2931 
L 3406 4666 
L 4084 4666 
L 2584 2425 
L 4184 0 
L 3506 0 
L 2194 1984 
L 872 0 
L 191 0 
L 1856 2491 
L 403 4666 
z
" transform="scale(0.015625)"/>
        <path id="DejaVuSans-43" d="M 4122 4306 
L 4122 3641 
Q 3803 3938 3442 4084 
Q 3081 4231 2675 4231 
Q 1875 4231 1450 3742 
Q 1025 3253 1025 2328 
Q 1025 1406 1450 917 
Q 1875 428 2675 428 
Q 3081 428 3442 575 
Q 3803 722 4122 1019 
L 4122 359 
Q 3791 134 3420 21 
Q 3050 -91 2638 -91 
Q 1578 -91 968 557 
Q 359 1206 359 2328 
Q 359 3453 968 4101 
Q 1578 4750 2638 4750 
Q 3056 4750 3426 4639 
Q 3797 4528 4122 4306 
z
" transform="scale(0.015625)"/>
        <path id="DejaVuSans-38" d="M 2034 2216 
Q 1584 2216 1326 1975 
Q 1069 1734 1069 1313 
Q 1069 891 1326 650 
Q 1584 409 2034 409 
Q 2484 409 2743 651 
Q 3003 894 3003 1313 
Q 3003 1734 2745 1975 
Q 2488 2216 2034 2216 
z
M 1403 2484 
Q 997 2584 770 2862 
Q 544 3141 544 3541 
Q 544 4100 942 4425 
Q 1341 4750 2034 4750 
Q 2731 4750 3128 4425 
Q 3525 4100 3525 3541 
Q 3525 3141 3298 2862 
Q 3072 2584 2669 2484 
Q 3125 2378 3379 2068 
Q 3634 1759 3634 1313 
Q 3634 634 3220 271 
Q 2806 -91 2034 -91 
Q 1263 -91 848 271 
Q 434 634 434 1313 
Q 434 1759 690 2068 
Q 947 2378 1403 2484 
z
M 1172 3481 
Q 1172 3119 1398 2916 
Q 1625 2713 2034 2713 
Q 2441 2713 2670 2916 
Q 2900 3119 2900 3481 
Q 2900 3844 2670 4047 
Q 2441 4250 2034 4250 
Q 1625 4250 1398 4047 
Q 1172 3844 1172 3481 
z
" transform="scale(0.015625)"/>
       </defs>
       <use xlink:href="#DejaVuSans-48"/>
       <use xlink:href="#DejaVuSans-4f" x="75.195312"/>
       <use xlink:href="#DejaVuSans-58" x="147.53125"/>
       <use xlink:href="#DejaVuSans-43" x="208.787109"/>
       <use xlink:href="#DejaVuSans-38" x="278.611328"/>
      </g>
     </g>
    </g>
    <g id="xtick_5">
     <g id="line2d_5">
      <g>
       <use xlink:href="#mffc9acf779" x="378.881429" y="548.12" style="stroke: #000000; stroke-width: 0.8"/>
      </g>
     </g>
     <g id="text_5">
      <!-- NRBP1 -->
      <g transform="translate(362.040022 562.718438) scale(0.1 -0.1)">
       <defs>
        <path id="DejaVuSans-42" d="M 1259 2228 
L 1259 519 
L 2272 519 
Q 2781 519 3026 730 
Q 3272 941 3272 1375 
Q 3272 1813 3026 2020 
Q 2781 2228 2272 2228 
L 1259 2228 
z
M 1259 4147 
L 1259 2741 
L 2194 2741 
Q 2656 2741 2882 2914 
Q 3109 3088 3109 3444 
Q 3109 3797 2882 3972 
Q 2656 4147 2194 4147 
L 1259 4147 
z
M 628 4666 
L 2241 4666 
Q 2963 4666 3353 4366 
Q 3744 4066 3744 3513 
Q 3744 3084 3544 2831 
Q 3344 2578 2956 2516 
Q 3422 2416 3680 2098 
Q 3938 1781 3938 1306 
Q 3938 681 3513 340 
Q 3088 0 2303 0 
L 628 0 
L 628 4666 
z
" transform="scale(0.015625)"/>
       </defs>
       <use xlink:href="#DejaVuSans-4e"/>
       <use xlink:href="#DejaVuSans-52" x="74.804688"/>
       <use xlink:href="#DejaVuSans-42" x="144.287109"/>
       <use xlink:href="#DejaVuSans-50" x="212.890625"/>
       <use xlink:href="#DejaVuSans-31" x="273.193359"/>
      </g>
     </g>
    </g>
    <g id="xtick_6">
     <g id="line2d_6">
      <g>
       <use xlink:href="#mffc9acf779" x="446.576857" y="548.12" style="stroke: #000000; stroke-width: 0.8"/>
      </g>
     </g>
     <g id="text_6">
      <!-- RAB40C -->
      <g transform="translate(426.597951 562.718438) scale(0.1 -0.1)">
       <defs>
        <path id="DejaVuSans-41" d="M 2188 4044 
L 1331 1722 
L 3047 1722 
L 2188 4044 
z
M 1831 4666 
L 2547 4666 
L 4325 0 
L 3669 0 
L 3244 1197 
L 1141 1197 
L 716 0 
L 50 0 
L 1831 4666 
z
" transform="scale(0.015625)"/>
        <path id="DejaVuSans-34" d="M 2419 4116 
L 825 1625 
L 2419 1625 
L 2419 4116 
z
M 2253 4666 
L 3047 4666 
L 3047 1625 
L 3713 1625 
L 3713 1100 
L 3047 1100 
L 3047 0 
L 2419 0 
L 2419 1100 
L 313 1100 
L 313 1709 
L 2253 4666 
z
" transform="scale(0.015625)"/>
        <path id="DejaVuSans-30" d="M 2034 4250 
Q 1547 4250 1301 3770 
Q 1056 3291 1056 2328 
Q 1056 1369 1301 889 
Q 1547 409 2034 409 
Q 2525 409 2770 889 
Q 3016 1369 3016 2328 
Q 3016 3291 2770 3770 
Q 2525 4250 2034 4250 
z
M 2034 4750 
Q 2819 4750 3233 4129 
Q 3647 3509 3647 2328 
Q 3647 1150 3233 529 
Q 2819 -91 2034 -91 
Q 1250 -91 836 529 
Q 422 1150 422 2328 
Q 422 3509 836 4129 
Q 1250 4750 2034 4750 
z
" transform="scale(0.015625)"/>
       </defs>
       <use xlink:href="#DejaVuSans-52"/>
       <use xlink:href="#DejaVuSans-41" x="65.482422"/>
       <use xlink:href="#DejaVuSans-42" x="133.890625"/>
       <use xlink:href="#DejaVuSans-34" x="202.494141"/>
       <use xlink:href="#DejaVuSans-30" x="266.117188"/>
       <use xlink:href="#DejaVuSans-43" x="329.740234"/>
      </g>
     </g>
    </g>
    <g id="xtick_7">
     <g id="line2d_7">
      <g>
       <use xlink:href="#mffc9acf779" x="514.272286" y="548.12" style="stroke: #000000; stroke-width: 0.8"/>
      </g>
     </g>
     <g id="text_7">
      <!-- RAB40B -->
      <g transform="translate(494.354317 562.718438) scale(0.1 -0.1)">
       <use xlink:href="#DejaVuSans-52"/>
       <use xlink:href="#DejaVuSans-41" x="65.482422"/>
       <use xlink:href="#DejaVuSans-42" x="133.890625"/>
       <use xlink:href="#DejaVuSans-34" x="202.494141"/>
       <use xlink:href="#DejaVuSans-30" x="266.117188"/>
       <use xlink:href="#DejaVuSans-42" x="329.740234"/>
      </g>
     </g>
    </g>
   </g>
   <g id="matplotlib.axis_2">
    <g id="ytick_1">
     <g id="line2d_8">
      <defs>
       <path id="m05ce8cc620" d="M 0 0 
L 3.5 0 
" style="stroke: #000000; stroke-width: 0.8"/>
      </defs>
      <g>
       <use xlink:href="#m05ce8cc620" x="548.12" y="108.099714" style="stroke: #000000; stroke-width: 0.8"/>
      </g>
     </g>
     <g id="text_8">
      <!-- PIK3R3 -->
      <g transform="translate(562.718438 125.705183) rotate(-90) scale(0.1 -0.1)">
       <use xlink:href="#DejaVuSans-50"/>
       <use xlink:href="#DejaVuSans-49" x="60.302734"/>
       <use xlink:href="#DejaVuSans-4b" x="89.794922"/>
       <use xlink:href="#DejaVuSans-33" x="155.371094"/>
       <use xlink:href="#DejaVuSans-52" x="218.994141"/>
       <use xlink:href="#DejaVuSans-33" x="288.476562"/>
      </g>
     </g>
    </g>
    <g id="ytick_2">
     <g id="line2d_9">
      <g>
       <use xlink:href="#m05ce8cc620" x="548.12" y="175.795143" style="stroke: #000000; stroke-width: 0.8"/>
      </g>
     </g>
     <g id="text_9">
      <!-- INSYN1 -->
      <g transform="translate(562.718438 194.160768) rotate(-90) scale(0.1 -0.1)">
       <use xlink:href="#DejaVuSans-49"/>
       <use xlink:href="#DejaVuSans-4e" x="29.492188"/>
       <use xlink:href="#DejaVuSans-53" x="104.296875"/>
       <use xlink:href="#DejaVuSans-59" x="167.773438"/>
       <use xlink:href="#DejaVuSans-4e" x="228.857422"/>
       <use xlink:href="#DejaVuSans-31" x="303.662109"/>
      </g>
     </g>
    </g>
    <g id="ytick_3">
     <g id="line2d_10">
      <g>
       <use xlink:href="#m05ce8cc620" x="548.12" y="243.490571" style="stroke: #000000; stroke-width: 0.8"/>
      </g>
     </g>
     <g id="text_10">
      <!-- ZFP36L1 -->
      <g transform="translate(562.718438 265.135884) rotate(-90) scale(0.1 -0.1)">
       <use xlink:href="#DejaVuSans-5a"/>
       <use xlink:href="#DejaVuSans-46" x="68.505859"/>
       <use xlink:href="#DejaVuSans-50" x="126.025391"/>
       <use xlink:href="#DejaVuSans-33" x="186.328125"/>
       <use xlink:href="#DejaVuSans-36" x="249.951172"/>
       <use xlink:href="#DejaVuSans-4c" x="313.574219"/>
       <use xlink:href="#DejaVuSans-31" x="369.287109"/>
      </g>
     </g>
    </g>
    <g id="ytick_4">
     <g id="line2d_11">
      <g>
       <use xlink:href="#m05ce8cc620" x="548.12" y="311.186" style="stroke: #000000; stroke-width: 0.8"/>
      </g>
     </g>
     <g id="text_11">
      <!-- HOXC8 -->
      <g transform="translate(562.718438 328.2985) rotate(-90) scale(0.1 -0.1)">
       <use xlink:href="#DejaVuSans-48"/>
       <use xlink:href="#DejaVuSans-4f" x="75.195312"/>
       <use xlink:href="#DejaVuSans-58" x="147.53125"/>
       <use xlink:href="#DejaVuSans-43" x="208.787109"/>
       <use xlink:href="#DejaVuSans-38" x="278.611328"/>
      </g>
     </g>
    </g>
    <g id="ytick_5">
     <g id="line2d_12">
      <g>
       <use xlink:href="#m05ce8cc620" x="548.12" y="378.881429" style="stroke: #000000; stroke-width: 0.8"/>
      </g>
     </g>
     <g id="text_12">
      <!-- NRBP1 -->
      <g transform="translate(562.718438 395.722835) rotate(-90) scale(0.1 -0.1)">
       <use xlink:href="#DejaVuSans-4e"/>
       <use xlink:href="#DejaVuSans-52" x="74.804688"/>
       <use xlink:href="#DejaVuSans-42" x="144.287109"/>
       <use xlink:href="#DejaVuSans-50" x="212.890625"/>
       <use xlink:href="#DejaVuSans-31" x="273.193359"/>
      </g>
     </g>
    </g>
    <g id="ytick_6">
     <g id="line2d_13">
      <g>
       <use xlink:href="#m05ce8cc620" x="548.12" y="446.576857" style="stroke: #000000; stroke-width: 0.8"/>
      </g>
     </g>
     <g id="text_13">
      <!-- RAB40C -->
      <g transform="translate(562.718438 466.555763) rotate(-90) scale(0.1 -0.1)">
       <use xlink:href="#DejaVuSans-52"/>
       <use xlink:href="#DejaVuSans-41" x="65.482422"/>
       <use xlink:href="#DejaVuSans-42" x="133.890625"/>
       <use xlink:href="#DejaVuSans-34" x="202.494141"/>
       <use xlink:href="#DejaVuSans-30" x="266.117188"/>
       <use xlink:href="#DejaVuSans-43" x="329.740234"/>
      </g>
     </g>
    </g>
    <g id="ytick_7">
     <g id="line2d_14">
      <g>
       <use xlink:href="#m05ce8cc620" x="548.12" y="514.272286" style="stroke: #000000; stroke-width: 0.8"/>
      </g>
     </g>
     <g id="text_14">
      <!-- RAB40B -->
      <g transform="translate(562.718438 534.190254) rotate(-90) scale(0.1 -0.1)">
       <use xlink:href="#DejaVuSans-52"/>
       <use xlink:href="#DejaVuSans-41" x="65.482422"/>
       <use xlink:href="#DejaVuSans-42" x="133.890625"/>
       <use xlink:href="#DejaVuSans-34" x="202.494141"/>
       <use xlink:href="#DejaVuSans-30" x="266.117188"/>
       <use xlink:href="#DejaVuSans-42" x="329.740234"/>
      </g>
     </g>
    </g>
   </g>
   <g id="text_15">
    <!-- 0.99 -->
    <g style="fill: #ffffff" transform="translate(164.66233 110.859089) scale(0.1 -0.1)">
     <defs>
      <path id="DejaVuSans-2e" d="M 684 794 
L 1344 794 
L 1344 0 
L 684 0 
L 684 794 
z
" transform="scale(0.015625)"/>
      <path id="DejaVuSans-39" d="M 703 97 
L 703 672 
Q 941 559 1184 500 
Q 1428 441 1663 441 
Q 2288 441 2617 861 
Q 2947 1281 2994 2138 
Q 2813 1869 2534 1725 
Q 2256 1581 1919 1581 
Q 1219 1581 811 2004 
Q 403 2428 403 3163 
Q 403 3881 828 4315 
Q 1253 4750 1959 4750 
Q 2769 4750 3195 4129 
Q 3622 3509 3622 2328 
Q 3622 1225 3098 567 
Q 2575 -91 1691 -91 
Q 1453 -91 1209 -44 
Q 966 3 703 97 
z
M 1959 2075 
Q 2384 2075 2632 2365 
Q 2881 2656 2881 3163 
Q 2881 3666 2632 3958 
Q 2384 4250 1959 4250 
Q 1534 4250 1286 3958 
Q 1038 3666 1038 3163 
Q 1038 2656 1286 2365 
Q 1534 2075 1959 2075 
z
" transform="scale(0.015625)"/>
     </defs>
     <use xlink:href="#DejaVuSans-30"/>
     <use xlink:href="#DejaVuSans-2e" x="63.623047"/>
     <use xlink:href="#DejaVuSans-39" x="95.410156"/>
     <use xlink:href="#DejaVuSans-39" x="159.033203"/>
    </g>
   </g>
   <g id="text_16">
    <!-- 0.99 -->
    <g style="fill: #ffffff" transform="translate(232.357759 110.859089) scale(0.1 -0.1)">
     <use xlink:href="#DejaVuSans-30"/>
     <use xlink:href="#DejaVuSans-2e" x="63.623047"/>
     <use xlink:href="#DejaVuSans-39" x="95.410156"/>
     <use xlink:href="#DejaVuSans-39" x="159.033203"/>
    </g>
   </g>
   <g id="text_17">
    <!-- 1 -->
    <g style="fill: #ffffff" transform="translate(308.00475 110.859089) scale(0.1 -0.1)">
     <use xlink:href="#DejaVuSans-31"/>
    </g>
   </g>
   <g id="text_18">
    <!-- 4.6e-05 -->
    <g style="fill: #ffffff" transform="translate(359.686897 110.859089) scale(0.1 -0.1)">
     <defs>
      <path id="DejaVuSans-65" d="M 3597 1894 
L 3597 1613 
L 953 1613 
Q 991 1019 1311 708 
Q 1631 397 2203 397 
Q 2534 397 2845 478 
Q 3156 559 3463 722 
L 3463 178 
Q 3153 47 2828 -22 
Q 2503 -91 2169 -91 
Q 1331 -91 842 396 
Q 353 884 353 1716 
Q 353 2575 817 3079 
Q 1281 3584 2069 3584 
Q 2775 3584 3186 3129 
Q 3597 2675 3597 1894 
z
M 3022 2063 
Q 3016 2534 2758 2815 
Q 2500 3097 2075 3097 
Q 1594 3097 1305 2825 
Q 1016 2553 972 2059 
L 3022 2063 
z
" transform="scale(0.015625)"/>
      <path id="DejaVuSans-2d" d="M 313 2009 
L 1997 2009 
L 1997 1497 
L 313 1497 
L 313 2009 
z
" transform="scale(0.015625)"/>
      <path id="DejaVuSans-35" d="M 691 4666 
L 3169 4666 
L 3169 4134 
L 1269 4134 
L 1269 2991 
Q 1406 3038 1543 3061 
Q 1681 3084 1819 3084 
Q 2600 3084 3056 2656 
Q 3513 2228 3513 1497 
Q 3513 744 3044 326 
Q 2575 -91 1722 -91 
Q 1428 -91 1123 -41 
Q 819 9 494 109 
L 494 744 
Q 775 591 1075 516 
Q 1375 441 1709 441 
Q 2250 441 2565 725 
Q 2881 1009 2881 1497 
Q 2881 1984 2565 2268 
Q 2250 2553 1709 2553 
Q 1456 2553 1204 2497 
Q 953 2441 691 2322 
L 691 4666 
z
" transform="scale(0.015625)"/>
     </defs>
     <use xlink:href="#DejaVuSans-34"/>
     <use xlink:href="#DejaVuSans-2e" x="63.623047"/>
     <use xlink:href="#DejaVuSans-36" x="95.410156"/>
     <use xlink:href="#DejaVuSans-65" x="159.033203"/>
     <use xlink:href="#DejaVuSans-2d" x="220.556641"/>
     <use xlink:href="#DejaVuSans-30" x="256.640625"/>
     <use xlink:href="#DejaVuSans-35" x="320.263672"/>
    </g>
   </g>
   <g id="text_19">
    <!-- 0.0037 -->
    <g style="fill: #ffffff" transform="translate(429.081545 110.859089) scale(0.1 -0.1)">
     <defs>
      <path id="DejaVuSans-37" d="M 525 4666 
L 3525 4666 
L 3525 4397 
L 1831 0 
L 1172 0 
L 2766 4134 
L 525 4134 
L 525 4666 
z
" transform="scale(0.015625)"/>
     </defs>
     <use xlink:href="#DejaVuSans-30"/>
     <use xlink:href="#DejaVuSans-2e" x="63.623047"/>
     <use xlink:href="#DejaVuSans-30" x="95.410156"/>
     <use xlink:href="#DejaVuSans-30" x="159.033203"/>
     <use xlink:href="#DejaVuSans-33" x="222.65625"/>
     <use xlink:href="#DejaVuSans-37" x="286.279297"/>
    </g>
   </g>
   <g id="text_20">
    <!-- 0.00011 -->
    <g style="fill: #ffffff" transform="translate(493.595723 110.859089) scale(0.1 -0.1)">
     <use xlink:href="#DejaVuSans-30"/>
     <use xlink:href="#DejaVuSans-2e" x="63.623047"/>
     <use xlink:href="#DejaVuSans-30" x="95.410156"/>
     <use xlink:href="#DejaVuSans-30" x="159.033203"/>
     <use xlink:href="#DejaVuSans-30" x="222.65625"/>
     <use xlink:href="#DejaVuSans-31" x="286.279297"/>
     <use xlink:href="#DejaVuSans-31" x="349.902344"/>
    </g>
   </g>
   <g id="text_21">
    <!-- 1 -->
    <g style="fill: #ffffff" transform="translate(240.309321 178.554518) scale(0.1 -0.1)">
     <use xlink:href="#DejaVuSans-31"/>
    </g>
   </g>
   <g id="text_22">
    <!-- 0.99 -->
    <g style="fill: #ffffff" transform="translate(300.053187 178.554518) scale(0.1 -0.1)">
     <use xlink:href="#DejaVuSans-30"/>
     <use xlink:href="#DejaVuSans-2e" x="63.623047"/>
     <use xlink:href="#DejaVuSans-39" x="95.410156"/>
     <use xlink:href="#DejaVuSans-39" x="159.033203"/>
    </g>
   </g>
   <g id="text_23">
    <!-- 0.00013 -->
    <g style="fill: #ffffff" transform="translate(358.204866 178.554518) scale(0.1 -0.1)">
     <use xlink:href="#DejaVuSans-30"/>
     <use xlink:href="#DejaVuSans-2e" x="63.623047"/>
     <use xlink:href="#DejaVuSans-30" x="95.410156"/>
     <use xlink:href="#DejaVuSans-30" x="159.033203"/>
     <use xlink:href="#DejaVuSans-30" x="222.65625"/>
     <use xlink:href="#DejaVuSans-31" x="286.279297"/>
     <use xlink:href="#DejaVuSans-33" x="349.902344"/>
    </g>
   </g>
   <g id="text_24">
    <!-- 0.002 -->
    <g style="fill: #ffffff" transform="translate(432.262795 178.554518) scale(0.1 -0.1)">
     <defs>
      <path id="DejaVuSans-32" d="M 1228 531 
L 3431 531 
L 3431 0 
L 469 0 
L 469 531 
Q 828 903 1448 1529 
Q 2069 2156 2228 2338 
Q 2531 2678 2651 2914 
Q 2772 3150 2772 3378 
Q 2772 3750 2511 3984 
Q 2250 4219 1831 4219 
Q 1534 4219 1204 4116 
Q 875 4013 500 3803 
L 500 4441 
Q 881 4594 1212 4672 
Q 1544 4750 1819 4750 
Q 2544 4750 2975 4387 
Q 3406 4025 3406 3419 
Q 3406 3131 3298 2873 
Q 3191 2616 2906 2266 
Q 2828 2175 2409 1742 
Q 1991 1309 1228 531 
z
" transform="scale(0.015625)"/>
     </defs>
     <use xlink:href="#DejaVuSans-30"/>
     <use xlink:href="#DejaVuSans-2e" x="63.623047"/>
     <use xlink:href="#DejaVuSans-30" x="95.410156"/>
     <use xlink:href="#DejaVuSans-30" x="159.033203"/>
     <use xlink:href="#DejaVuSans-32" x="222.65625"/>
    </g>
   </g>
   <g id="text_25">
    <!-- 1.3e-05 -->
    <g style="fill: #ffffff" transform="translate(495.077754 178.554518) scale(0.1 -0.1)">
     <use xlink:href="#DejaVuSans-31"/>
     <use xlink:href="#DejaVuSans-2e" x="63.623047"/>
     <use xlink:href="#DejaVuSans-33" x="95.410156"/>
     <use xlink:href="#DejaVuSans-65" x="159.033203"/>
     <use xlink:href="#DejaVuSans-2d" x="220.556641"/>
     <use xlink:href="#DejaVuSans-30" x="256.640625"/>
     <use xlink:href="#DejaVuSans-35" x="320.263672"/>
    </g>
   </g>
   <g id="text_26">
    <!-- 1 -->
    <g style="fill: #ffffff" transform="translate(308.00475 246.249946) scale(0.1 -0.1)">
     <use xlink:href="#DejaVuSans-31"/>
    </g>
   </g>
   <g id="text_27">
    <!-- 0.00062 -->
    <g style="fill: #ffffff" transform="translate(358.204866 246.249946) scale(0.1 -0.1)">
     <use xlink:href="#DejaVuSans-30"/>
     <use xlink:href="#DejaVuSans-2e" x="63.623047"/>
     <use xlink:href="#DejaVuSans-30" x="95.410156"/>
     <use xlink:href="#DejaVuSans-30" x="159.033203"/>
     <use xlink:href="#DejaVuSans-30" x="222.65625"/>
     <use xlink:href="#DejaVuSans-36" x="286.279297"/>
     <use xlink:href="#DejaVuSans-32" x="349.902344"/>
    </g>
   </g>
   <g id="text_28">
    <!-- 0.0021 -->
    <g style="fill: #ffffff" transform="translate(429.081545 246.249946) scale(0.1 -0.1)">
     <use xlink:href="#DejaVuSans-30"/>
     <use xlink:href="#DejaVuSans-2e" x="63.623047"/>
     <use xlink:href="#DejaVuSans-30" x="95.410156"/>
     <use xlink:href="#DejaVuSans-30" x="159.033203"/>
     <use xlink:href="#DejaVuSans-32" x="222.65625"/>
     <use xlink:href="#DejaVuSans-31" x="286.279297"/>
    </g>
   </g>
   <g id="text_29">
    <!-- 0.00011 -->
    <g style="fill: #ffffff" transform="translate(493.595723 246.249946) scale(0.1 -0.1)">
     <use xlink:href="#DejaVuSans-30"/>
     <use xlink:href="#DejaVuSans-2e" x="63.623047"/>
     <use xlink:href="#DejaVuSans-30" x="95.410156"/>
     <use xlink:href="#DejaVuSans-30" x="159.033203"/>
     <use xlink:href="#DejaVuSans-30" x="222.65625"/>
     <use xlink:href="#DejaVuSans-31" x="286.279297"/>
     <use xlink:href="#DejaVuSans-31" x="349.902344"/>
    </g>
   </g>
   <g id="text_30">
    <!-- 0.0045 -->
    <g style="fill: #ffffff" transform="translate(361.386116 313.945375) scale(0.1 -0.1)">
     <use xlink:href="#DejaVuSans-30"/>
     <use xlink:href="#DejaVuSans-2e" x="63.623047"/>
     <use xlink:href="#DejaVuSans-30" x="95.410156"/>
     <use xlink:href="#DejaVuSans-30" x="159.033203"/>
     <use xlink:href="#DejaVuSans-34" x="222.65625"/>
     <use xlink:href="#DejaVuSans-35" x="286.279297"/>
    </g>
   </g>
   <g id="text_31">
    <!-- 0.012 -->
    <g style="fill: #ffffff" transform="translate(432.262795 313.945375) scale(0.1 -0.1)">
     <use xlink:href="#DejaVuSans-30"/>
     <use xlink:href="#DejaVuSans-2e" x="63.623047"/>
     <use xlink:href="#DejaVuSans-30" x="95.410156"/>
     <use xlink:href="#DejaVuSans-31" x="159.033203"/>
     <use xlink:href="#DejaVuSans-32" x="222.65625"/>
    </g>
   </g>
   <g id="text_32">
    <!-- 0.0013 -->
    <g style="fill: #ffffff" transform="translate(496.776973 313.945375) scale(0.1 -0.1)">
     <use xlink:href="#DejaVuSans-30"/>
     <use xlink:href="#DejaVuSans-2e" x="63.623047"/>
     <use xlink:href="#DejaVuSans-30" x="95.410156"/>
     <use xlink:href="#DejaVuSans-30" x="159.033203"/>
     <use xlink:href="#DejaVuSans-31" x="222.65625"/>
     <use xlink:href="#DejaVuSans-33" x="286.279297"/>
    </g>
   </g>
   <g id="text_33">
    <!-- 1 -->
    <g style="fill: #ffffff" transform="translate(443.395607 381.640804) scale(0.1 -0.1)">
     <use xlink:href="#DejaVuSans-31"/>
    </g>
   </g>
   <g id="text_34">
    <!-- 1 -->
    <g style="fill: #ffffff" transform="translate(511.091036 381.640804) scale(0.1 -0.1)">
     <use xlink:href="#DejaVuSans-31"/>
    </g>
   </g>
   <g id="text_35">
    <!-- 1 -->
    <g style="fill: #ffffff" transform="translate(511.091036 449.336232) scale(0.1 -0.1)">
     <use xlink:href="#DejaVuSans-31"/>
    </g>
   </g>
   <g id="text_36">
    <!-- 0.17 -->
    <g style="fill: #262626" transform="translate(96.966902 178.554518) scale(0.1 -0.1)">
     <use xlink:href="#DejaVuSans-30"/>
     <use xlink:href="#DejaVuSans-2e" x="63.623047"/>
     <use xlink:href="#DejaVuSans-31" x="95.410156"/>
     <use xlink:href="#DejaVuSans-37" x="159.033203"/>
    </g>
   </g>
   <g id="text_37">
    <!-- 0.28 -->
    <g style="fill: #262626" transform="translate(96.966902 246.249946) scale(0.1 -0.1)">
     <use xlink:href="#DejaVuSans-30"/>
     <use xlink:href="#DejaVuSans-2e" x="63.623047"/>
     <use xlink:href="#DejaVuSans-32" x="95.410156"/>
     <use xlink:href="#DejaVuSans-38" x="159.033203"/>
    </g>
   </g>
   <g id="text_38">
    <!-- 0.14 -->
    <g style="fill: #262626" transform="translate(164.66233 246.249946) scale(0.1 -0.1)">
     <use xlink:href="#DejaVuSans-30"/>
     <use xlink:href="#DejaVuSans-2e" x="63.623047"/>
     <use xlink:href="#DejaVuSans-31" x="95.410156"/>
     <use xlink:href="#DejaVuSans-34" x="159.033203"/>
    </g>
   </g>
   <g id="text_39">
    <!-- 0.3 -->
    <g style="fill: #262626" transform="translate(100.148152 313.945375) scale(0.1 -0.1)">
     <use xlink:href="#DejaVuSans-30"/>
     <use xlink:href="#DejaVuSans-2e" x="63.623047"/>
     <use xlink:href="#DejaVuSans-33" x="95.410156"/>
    </g>
   </g>
   <g id="text_40">
    <!-- 0.27 -->
    <g style="fill: #262626" transform="translate(164.66233 313.945375) scale(0.1 -0.1)">
     <use xlink:href="#DejaVuSans-30"/>
     <use xlink:href="#DejaVuSans-2e" x="63.623047"/>
     <use xlink:href="#DejaVuSans-32" x="95.410156"/>
     <use xlink:href="#DejaVuSans-37" x="159.033203"/>
    </g>
   </g>
   <g id="text_41">
    <!-- 0.35 -->
    <g style="fill: #262626" transform="translate(232.357759 313.945375) scale(0.1 -0.1)">
     <use xlink:href="#DejaVuSans-30"/>
     <use xlink:href="#DejaVuSans-2e" x="63.623047"/>
     <use xlink:href="#DejaVuSans-33" x="95.410156"/>
     <use xlink:href="#DejaVuSans-35" x="159.033203"/>
    </g>
   </g>
   <g id="text_42">
    <!-- 0.36 -->
    <g style="fill: #262626" transform="translate(96.966902 381.640804) scale(0.1 -0.1)">
     <use xlink:href="#DejaVuSans-30"/>
     <use xlink:href="#DejaVuSans-2e" x="63.623047"/>
     <use xlink:href="#DejaVuSans-33" x="95.410156"/>
     <use xlink:href="#DejaVuSans-36" x="159.033203"/>
    </g>
   </g>
   <g id="text_43">
    <!-- 0.21 -->
    <g style="fill: #262626" transform="translate(164.66233 381.640804) scale(0.1 -0.1)">
     <use xlink:href="#DejaVuSans-30"/>
     <use xlink:href="#DejaVuSans-2e" x="63.623047"/>
     <use xlink:href="#DejaVuSans-32" x="95.410156"/>
     <use xlink:href="#DejaVuSans-31" x="159.033203"/>
    </g>
   </g>
   <g id="text_44">
    <!-- 0.17 -->
    <g style="fill: #262626" transform="translate(232.357759 381.640804) scale(0.1 -0.1)">
     <use xlink:href="#DejaVuSans-30"/>
     <use xlink:href="#DejaVuSans-2e" x="63.623047"/>
     <use xlink:href="#DejaVuSans-31" x="95.410156"/>
     <use xlink:href="#DejaVuSans-37" x="159.033203"/>
    </g>
   </g>
   <g id="text_45">
    <!-- 0.49 -->
    <g style="fill: #ffffff" transform="translate(300.053187 381.640804) scale(0.1 -0.1)">
     <use xlink:href="#DejaVuSans-30"/>
     <use xlink:href="#DejaVuSans-2e" x="63.623047"/>
     <use xlink:href="#DejaVuSans-34" x="95.410156"/>
     <use xlink:href="#DejaVuSans-39" x="159.033203"/>
    </g>
   </g>
   <g id="text_46">
    <!-- 0.34 -->
    <g style="fill: #262626" transform="translate(96.966902 449.336232) scale(0.1 -0.1)">
     <use xlink:href="#DejaVuSans-30"/>
     <use xlink:href="#DejaVuSans-2e" x="63.623047"/>
     <use xlink:href="#DejaVuSans-33" x="95.410156"/>
     <use xlink:href="#DejaVuSans-34" x="159.033203"/>
    </g>
   </g>
   <g id="text_47">
    <!-- 0.17 -->
    <g style="fill: #262626" transform="translate(164.66233 449.336232) scale(0.1 -0.1)">
     <use xlink:href="#DejaVuSans-30"/>
     <use xlink:href="#DejaVuSans-2e" x="63.623047"/>
     <use xlink:href="#DejaVuSans-31" x="95.410156"/>
     <use xlink:href="#DejaVuSans-37" x="159.033203"/>
    </g>
   </g>
   <g id="text_48">
    <!-- 0.2 -->
    <g style="fill: #262626" transform="translate(235.539009 449.336232) scale(0.1 -0.1)">
     <use xlink:href="#DejaVuSans-30"/>
     <use xlink:href="#DejaVuSans-2e" x="63.623047"/>
     <use xlink:href="#DejaVuSans-32" x="95.410156"/>
    </g>
   </g>
   <g id="text_49">
    <!-- 0.22 -->
    <g style="fill: #262626" transform="translate(300.053187 449.336232) scale(0.1 -0.1)">
     <use xlink:href="#DejaVuSans-30"/>
     <use xlink:href="#DejaVuSans-2e" x="63.623047"/>
     <use xlink:href="#DejaVuSans-32" x="95.410156"/>
     <use xlink:href="#DejaVuSans-32" x="159.033203"/>
    </g>
   </g>
   <g id="text_50">
    <!-- 0.2 -->
    <g style="fill: #262626" transform="translate(370.929866 449.336232) scale(0.1 -0.1)">
     <use xlink:href="#DejaVuSans-30"/>
     <use xlink:href="#DejaVuSans-2e" x="63.623047"/>
     <use xlink:href="#DejaVuSans-32" x="95.410156"/>
    </g>
   </g>
   <g id="text_51">
    <!-- 0.29 -->
    <g style="fill: #262626" transform="translate(96.966902 517.031661) scale(0.1 -0.1)">
     <use xlink:href="#DejaVuSans-30"/>
     <use xlink:href="#DejaVuSans-2e" x="63.623047"/>
     <use xlink:href="#DejaVuSans-32" x="95.410156"/>
     <use xlink:href="#DejaVuSans-39" x="159.033203"/>
    </g>
   </g>
   <g id="text_52">
    <!-- 0.16 -->
    <g style="fill: #262626" transform="translate(164.66233 517.031661) scale(0.1 -0.1)">
     <use xlink:href="#DejaVuSans-30"/>
     <use xlink:href="#DejaVuSans-2e" x="63.623047"/>
     <use xlink:href="#DejaVuSans-31" x="95.410156"/>
     <use xlink:href="#DejaVuSans-36" x="159.033203"/>
    </g>
   </g>
   <g id="text_53">
    <!-- 0.12 -->
    <g style="fill: #262626" transform="translate(232.357759 517.031661) scale(0.1 -0.1)">
     <use xlink:href="#DejaVuSans-30"/>
     <use xlink:href="#DejaVuSans-2e" x="63.623047"/>
     <use xlink:href="#DejaVuSans-31" x="95.410156"/>
     <use xlink:href="#DejaVuSans-32" x="159.033203"/>
    </g>
   </g>
   <g id="text_54">
    <!-- 0.17 -->
    <g style="fill: #262626" transform="translate(300.053187 517.031661) scale(0.1 -0.1)">
     <use xlink:href="#DejaVuSans-30"/>
     <use xlink:href="#DejaVuSans-2e" x="63.623047"/>
     <use xlink:href="#DejaVuSans-31" x="95.410156"/>
     <use xlink:href="#DejaVuSans-37" x="159.033203"/>
    </g>
   </g>
   <g id="text_55">
    <!-- 0.17 -->
    <g style="fill: #262626" transform="translate(367.748616 517.031661) scale(0.1 -0.1)">
     <use xlink:href="#DejaVuSans-30"/>
     <use xlink:href="#DejaVuSans-2e" x="63.623047"/>
     <use xlink:href="#DejaVuSans-31" x="95.410156"/>
     <use xlink:href="#DejaVuSans-37" x="159.033203"/>
    </g>
   </g>
   <g id="text_56">
    <!-- 0.54 -->
    <g style="fill: #ffffff" transform="translate(435.444045 517.031661) scale(0.1 -0.1)">
     <use xlink:href="#DejaVuSans-30"/>
     <use xlink:href="#DejaVuSans-2e" x="63.623047"/>
     <use xlink:href="#DejaVuSans-35" x="95.410156"/>
     <use xlink:href="#DejaVuSans-34" x="159.033203"/>
    </g>
   </g>
   <g id="text_57">
    <!-- 1 -->
    <g style="fill: #ffffff" transform="translate(104.918464 110.859089) scale(0.1 -0.1)">
     <use xlink:href="#DejaVuSans-31"/>
    </g>
   </g>
   <g id="text_58">
    <!-- 1 -->
    <g style="fill: #ffffff" transform="translate(172.613893 178.554518) scale(0.1 -0.1)">
     <use xlink:href="#DejaVuSans-31"/>
    </g>
   </g>
   <g id="text_59">
    <!-- 1 -->
    <g style="fill: #ffffff" transform="translate(240.309321 246.249946) scale(0.1 -0.1)">
     <use xlink:href="#DejaVuSans-31"/>
    </g>
   </g>
   <g id="text_60">
    <!-- 1 -->
    <g style="fill: #ffffff" transform="translate(308.00475 313.945375) scale(0.1 -0.1)">
     <use xlink:href="#DejaVuSans-31"/>
    </g>
   </g>
   <g id="text_61">
    <!-- 1 -->
    <g style="fill: #ffffff" transform="translate(375.700179 381.640804) scale(0.1 -0.1)">
     <use xlink:href="#DejaVuSans-31"/>
    </g>
   </g>
   <g id="text_62">
    <!-- 1 -->
    <g style="fill: #ffffff" transform="translate(443.395607 449.336232) scale(0.1 -0.1)">
     <use xlink:href="#DejaVuSans-31"/>
    </g>
   </g>
   <g id="text_63">
    <!-- 1 -->
    <g style="fill: #ffffff" transform="translate(511.091036 517.031661) scale(0.1 -0.1)">
     <use xlink:href="#DejaVuSans-31"/>
    </g>
   </g>
  </g>
 </g>
 <defs>
  <clipPath id="p83fc15871f">
   <rect x="10.8" y="74.252" width="52.652" height="473.868"/>
  </clipPath>
  <clipPath id="pe3d66edbaa">
   <rect x="74.252" y="10.8" width="473.868" height="52.652"/>
  </clipPath>
  <clipPath id="peea0b95cdd">
   <rect x="74.252" y="74.252" width="473.868" height="473.868"/>
  </clipPath>
 </defs>
</svg>
