<?xml version="1.0" encoding="utf-8" standalone="no"?>
<!DOCTYPE svg PUBLIC "-//W3C//DTD SVG 1.1//EN"
  "http://www.w3.org/Graphics/SVG/1.1/DTD/svg11.dtd">
<svg xmlns:xlink="http://www.w3.org/1999/xlink" width="504pt" height="504pt" viewBox="0 0 504 504" xmlns="http://www.w3.org/2000/svg" version="1.1">
 <metadata>
  <rdf:RDF xmlns:dc="http://purl.org/dc/elements/1.1/" xmlns:cc="http://creativecommons.org/ns#" xmlns:rdf="http://www.w3.org/1999/02/22-rdf-syntax-ns#">
   <cc:Work>
    <dc:type rdf:resource="http://purl.org/dc/dcmitype/StillImage"/>
    <dc:date>2024-11-13T14:08:12.685452</dc:date>
    <dc:format>image/svg+xml</dc:format>
    <dc:creator>
     <cc:Agent>
      <dc:title>Matplotlib v3.6.2, https://matplotlib.org/</dc:title>
     </cc:Agent>
    </dc:creator>
   </cc:Work>
  </rdf:RDF>
 </metadata>
 <defs>
  <style type="text/css">*{stroke-linejoin: round; stroke-linecap: butt}</style>
 </defs>
 <g id="figure_1">
  <g id="patch_1">
   <path d="M 0 504 
L 504 504 
L 504 0 
L 0 0 
z
" style="fill: #ffffff"/>
  </g>
  <g id="axes_1">
   <g id="LineCollection_1">
    <path d="M 55.892 235.787 
L 38.059576 235.787 
L 38.059576 303.425 
L 55.892 303.425 
" clip-path="url(#p517494dd3f)" style="fill: none; stroke: #333333; stroke-width: 0.5"/>
    <path d="M 55.892 168.149 
L 21.696012 168.149 
L 21.696012 269.606 
L 38.059576 269.606 
" clip-path="url(#p517494dd3f)" style="fill: none; stroke: #333333; stroke-width: 0.5"/>
    <path d="M 55.892 371.063 
L 15.255511 371.063 
L 15.255511 438.701 
L 55.892 438.701 
" clip-path="url(#p517494dd3f)" style="fill: none; stroke: #333333; stroke-width: 0.5"/>
    <path d="M 21.696012 218.8775 
L 14.119342 218.8775 
L 14.119342 404.882 
L 15.255511 404.882 
" clip-path="url(#p517494dd3f)" style="fill: none; stroke: #333333; stroke-width: 0.5"/>
    <path d="M 55.892 100.511 
L 12.947238 100.511 
L 12.947238 311.87975 
L 14.119342 311.87975 
" clip-path="url(#p517494dd3f)" style="fill: none; stroke: #333333; stroke-width: 0.5"/>
   </g>
  </g>
  <g id="axes_2">
   <g id="LineCollection_2">
    <path d="M 235.787 55.892 
L 235.787 38.059575 
L 303.425 38.059575 
L 303.425 55.892 
" clip-path="url(#pfa9fbde78a)" style="fill: none; stroke: #333333; stroke-width: 0.5"/>
    <path d="M 168.149 55.892 
L 168.149 21.696013 
L 269.606 21.696013 
L 269.606 38.059575 
" clip-path="url(#pfa9fbde78a)" style="fill: none; stroke: #333333; stroke-width: 0.5"/>
    <path d="M 371.063 55.892 
L 371.063 15.255511 
L 438.701 15.255511 
L 438.701 55.892 
" clip-path="url(#pfa9fbde78a)" style="fill: none; stroke: #333333; stroke-width: 0.5"/>
    <path d="M 218.8775 21.696013 
L 218.8775 14.119342 
L 404.882 14.119342 
L 404.882 15.255511 
" clip-path="url(#pfa9fbde78a)" style="fill: none; stroke: #333333; stroke-width: 0.5"/>
    <path d="M 100.511 55.892 
L 100.511 12.947238 
L 311.87975 12.947238 
L 311.87975 14.119342 
" clip-path="url(#pfa9fbde78a)" style="fill: none; stroke: #333333; stroke-width: 0.5"/>
   </g>
  </g>
  <g id="axes_3">
   <g id="patch_2">
    <path d="M 66.692 472.52 
L 472.52 472.52 
L 472.52 66.692 
L 66.692 66.692 
z
" style="fill: #ffffff"/>
   </g>
   <g id="QuadMesh_1">
    <path d="M 66.692 66.692 
L 134.33 66.692 
L 134.33 134.33 
L 66.692 134.33 
L 66.692 66.692 
" clip-path="url(#pf3e83d10ca)" style="fill: #67001f"/>
    <path d="M 134.33 66.692 
L 201.968 66.692 
L 201.968 134.33 
L 134.33 134.33 
L 134.33 66.692 
" clip-path="url(#pf3e83d10ca)" style="fill: #0a3b70"/>
    <path d="M 201.968 66.692 
L 269.606 66.692 
L 269.606 134.33 
L 201.968 134.33 
L 201.968 66.692 
" clip-path="url(#pf3e83d10ca)" style="fill: #2870b1"/>
    <path d="M 269.606 66.692 
L 337.244 66.692 
L 337.244 134.33 
L 269.606 134.33 
L 269.606 66.692 
" clip-path="url(#pf3e83d10ca)" style="fill: #0d3f76"/>
    <path d="M 337.244 66.692 
L 404.882 66.692 
L 404.882 134.33 
L 337.244 134.33 
L 337.244 66.692 
" clip-path="url(#pf3e83d10ca)" style="fill: #124984"/>
    <path d="M 404.882 66.692 
L 472.52 66.692 
L 472.52 134.33 
L 404.882 134.33 
L 404.882 66.692 
" clip-path="url(#pf3e83d10ca)" style="fill: #073467"/>
    <path d="M 66.692 134.33 
L 134.33 134.33 
L 134.33 201.968 
L 66.692 201.968 
L 66.692 134.33 
" clip-path="url(#pf3e83d10ca)" style="fill: #0a3b70"/>
    <path d="M 134.33 134.33 
L 201.968 134.33 
L 201.968 201.968 
L 134.33 201.968 
L 134.33 134.33 
" clip-path="url(#pf3e83d10ca)" style="fill: #67001f"/>
    <path d="M 201.968 134.33 
L 269.606 134.33 
L 269.606 201.968 
L 201.968 201.968 
L 201.968 134.33 
" clip-path="url(#pf3e83d10ca)" style="fill: #65a9cf"/>
    <path d="M 269.606 134.33 
L 337.244 134.33 
L 337.244 201.968 
L 269.606 201.968 
L 269.606 134.33 
" clip-path="url(#pf3e83d10ca)" style="fill: #78b4d5"/>
    <path d="M 337.244 134.33 
L 404.882 134.33 
L 404.882 201.968 
L 337.244 201.968 
L 337.244 134.33 
" clip-path="url(#pf3e83d10ca)" style="fill: #2369ad"/>
    <path d="M 404.882 134.33 
L 472.52 134.33 
L 472.52 201.968 
L 404.882 201.968 
L 404.882 134.33 
" clip-path="url(#pf3e83d10ca)" style="fill: #053061"/>
    <path d="M 66.692 201.968 
L 134.33 201.968 
L 134.33 269.606 
L 66.692 269.606 
L 66.692 201.968 
" clip-path="url(#pf3e83d10ca)" style="fill: #2870b1"/>
    <path d="M 134.33 201.968 
L 201.968 201.968 
L 201.968 269.606 
L 134.33 269.606 
L 134.33 201.968 
" clip-path="url(#pf3e83d10ca)" style="fill: #65a9cf"/>
    <path d="M 201.968 201.968 
L 269.606 201.968 
L 269.606 269.606 
L 201.968 269.606 
L 201.968 201.968 
" clip-path="url(#pf3e83d10ca)" style="fill: #67001f"/>
    <path d="M 269.606 201.968 
L 337.244 201.968 
L 337.244 269.606 
L 269.606 269.606 
L 269.606 201.968 
" clip-path="url(#pf3e83d10ca)" style="fill: #fdd9c4"/>
    <path d="M 337.244 201.968 
L 404.882 201.968 
L 404.882 269.606 
L 337.244 269.606 
L 337.244 201.968 
" clip-path="url(#pf3e83d10ca)" style="fill: #0a3b70"/>
    <path d="M 404.882 201.968 
L 472.52 201.968 
L 472.52 269.606 
L 404.882 269.606 
L 404.882 201.968 
" clip-path="url(#pf3e83d10ca)" style="fill: #3f8ec0"/>
    <path d="M 66.692 269.606 
L 134.33 269.606 
L 134.33 337.244 
L 66.692 337.244 
L 66.692 269.606 
" clip-path="url(#pf3e83d10ca)" style="fill: #0d3f76"/>
    <path d="M 134.33 269.606 
L 201.968 269.606 
L 201.968 337.244 
L 134.33 337.244 
L 134.33 269.606 
" clip-path="url(#pf3e83d10ca)" style="fill: #78b4d5"/>
    <path d="M 201.968 269.606 
L 269.606 269.606 
L 269.606 337.244 
L 201.968 337.244 
L 201.968 269.606 
" clip-path="url(#pf3e83d10ca)" style="fill: #fdd9c4"/>
    <path d="M 269.606 269.606 
L 337.244 269.606 
L 337.244 337.244 
L 269.606 337.244 
L 269.606 269.606 
" clip-path="url(#pf3e83d10ca)" style="fill: #67001f"/>
    <path d="M 337.244 269.606 
L 404.882 269.606 
L 404.882 337.244 
L 337.244 337.244 
L 337.244 269.606 
" clip-path="url(#pf3e83d10ca)" style="fill: #2a71b2"/>
    <path d="M 404.882 269.606 
L 472.52 269.606 
L 472.52 337.244 
L 404.882 337.244 
L 404.882 269.606 
" clip-path="url(#pf3e83d10ca)" style="fill: #2065ab"/>
    <path d="M 66.692 337.244 
L 134.33 337.244 
L 134.33 404.882 
L 66.692 404.882 
L 66.692 337.244 
" clip-path="url(#pf3e83d10ca)" style="fill: #124984"/>
    <path d="M 134.33 337.244 
L 201.968 337.244 
L 201.968 404.882 
L 134.33 404.882 
L 134.33 337.244 
" clip-path="url(#pf3e83d10ca)" style="fill: #2369ad"/>
    <path d="M 201.968 337.244 
L 269.606 337.244 
L 269.606 404.882 
L 201.968 404.882 
L 201.968 337.244 
" clip-path="url(#pf3e83d10ca)" style="fill: #0a3b70"/>
    <path d="M 269.606 337.244 
L 337.244 337.244 
L 337.244 404.882 
L 269.606 404.882 
L 269.606 337.244 
" clip-path="url(#pf3e83d10ca)" style="fill: #2a71b2"/>
    <path d="M 337.244 337.244 
L 404.882 337.244 
L 404.882 404.882 
L 337.244 404.882 
L 337.244 337.244 
" clip-path="url(#pf3e83d10ca)" style="fill: #67001f"/>
    <path d="M 404.882 337.244 
L 472.52 337.244 
L 472.52 404.882 
L 404.882 404.882 
L 404.882 337.244 
" clip-path="url(#pf3e83d10ca)" style="fill: #185493"/>
    <path d="M 66.692 404.882 
L 134.33 404.882 
L 134.33 472.52 
L 66.692 472.52 
L 66.692 404.882 
" clip-path="url(#pf3e83d10ca)" style="fill: #073467"/>
    <path d="M 134.33 404.882 
L 201.968 404.882 
L 201.968 472.52 
L 134.33 472.52 
L 134.33 404.882 
" clip-path="url(#pf3e83d10ca)" style="fill: #053061"/>
    <path d="M 201.968 404.882 
L 269.606 404.882 
L 269.606 472.52 
L 201.968 472.52 
L 201.968 404.882 
" clip-path="url(#pf3e83d10ca)" style="fill: #3f8ec0"/>
    <path d="M 269.606 404.882 
L 337.244 404.882 
L 337.244 472.52 
L 269.606 472.52 
L 269.606 404.882 
" clip-path="url(#pf3e83d10ca)" style="fill: #2065ab"/>
    <path d="M 337.244 404.882 
L 404.882 404.882 
L 404.882 472.52 
L 337.244 472.52 
L 337.244 404.882 
" clip-path="url(#pf3e83d10ca)" style="fill: #185493"/>
    <path d="M 404.882 404.882 
L 472.52 404.882 
L 472.52 472.52 
L 404.882 472.52 
L 404.882 404.882 
" clip-path="url(#pf3e83d10ca)" style="fill: #67001f"/>
   </g>
   <g id="QuadMesh_2">
    <path d="M 66.692 66.692 
L 134.33 66.692 
L 134.33 134.33 
L 66.692 134.33 
L 66.692 66.692 
" clip-path="url(#pf3e83d10ca)" style="fill: none"/>
    <path d="M 134.33 66.692 
L 201.968 66.692 
L 201.968 134.33 
L 134.33 134.33 
L 134.33 66.692 
" clip-path="url(#pf3e83d10ca)" style="fill: #0a3b70"/>
    <path d="M 201.968 66.692 
L 269.606 66.692 
L 269.606 134.33 
L 201.968 134.33 
L 201.968 66.692 
" clip-path="url(#pf3e83d10ca)" style="fill: #2870b1"/>
    <path d="M 269.606 66.692 
L 337.244 66.692 
L 337.244 134.33 
L 269.606 134.33 
L 269.606 66.692 
" clip-path="url(#pf3e83d10ca)" style="fill: #0d3f76"/>
    <path d="M 337.244 66.692 
L 404.882 66.692 
L 404.882 134.33 
L 337.244 134.33 
L 337.244 66.692 
" clip-path="url(#pf3e83d10ca)" style="fill: #124984"/>
    <path d="M 404.882 66.692 
L 472.52 66.692 
L 472.52 134.33 
L 404.882 134.33 
L 404.882 66.692 
" clip-path="url(#pf3e83d10ca)" style="fill: #073467"/>
    <path d="M 66.692 134.33 
L 134.33 134.33 
L 134.33 201.968 
L 66.692 201.968 
L 66.692 134.33 
" clip-path="url(#pf3e83d10ca)" style="fill: none"/>
    <path d="M 134.33 134.33 
L 201.968 134.33 
L 201.968 201.968 
L 134.33 201.968 
L 134.33 134.33 
" clip-path="url(#pf3e83d10ca)" style="fill: none"/>
    <path d="M 201.968 134.33 
L 269.606 134.33 
L 269.606 201.968 
L 201.968 201.968 
L 201.968 134.33 
" clip-path="url(#pf3e83d10ca)" style="fill: #65a9cf"/>
    <path d="M 269.606 134.33 
L 337.244 134.33 
L 337.244 201.968 
L 269.606 201.968 
L 269.606 134.33 
" clip-path="url(#pf3e83d10ca)" style="fill: #78b4d5"/>
    <path d="M 337.244 134.33 
L 404.882 134.33 
L 404.882 201.968 
L 337.244 201.968 
L 337.244 134.33 
" clip-path="url(#pf3e83d10ca)" style="fill: #2369ad"/>
    <path d="M 404.882 134.33 
L 472.52 134.33 
L 472.52 201.968 
L 404.882 201.968 
L 404.882 134.33 
" clip-path="url(#pf3e83d10ca)" style="fill: #053061"/>
    <path d="M 66.692 201.968 
L 134.33 201.968 
L 134.33 269.606 
L 66.692 269.606 
L 66.692 201.968 
" clip-path="url(#pf3e83d10ca)" style="fill: none"/>
    <path d="M 134.33 201.968 
L 201.968 201.968 
L 201.968 269.606 
L 134.33 269.606 
L 134.33 201.968 
" clip-path="url(#pf3e83d10ca)" style="fill: none"/>
    <path d="M 201.968 201.968 
L 269.606 201.968 
L 269.606 269.606 
L 201.968 269.606 
L 201.968 201.968 
" clip-path="url(#pf3e83d10ca)" style="fill: none"/>
    <path d="M 269.606 201.968 
L 337.244 201.968 
L 337.244 269.606 
L 269.606 269.606 
L 269.606 201.968 
" clip-path="url(#pf3e83d10ca)" style="fill: #fdd9c4"/>
    <path d="M 337.244 201.968 
L 404.882 201.968 
L 404.882 269.606 
L 337.244 269.606 
L 337.244 201.968 
" clip-path="url(#pf3e83d10ca)" style="fill: #0a3b70"/>
    <path d="M 404.882 201.968 
L 472.52 201.968 
L 472.52 269.606 
L 404.882 269.606 
L 404.882 201.968 
" clip-path="url(#pf3e83d10ca)" style="fill: #3f8ec0"/>
    <path d="M 66.692 269.606 
L 134.33 269.606 
L 134.33 337.244 
L 66.692 337.244 
L 66.692 269.606 
" clip-path="url(#pf3e83d10ca)" style="fill: none"/>
    <path d="M 134.33 269.606 
L 201.968 269.606 
L 201.968 337.244 
L 134.33 337.244 
L 134.33 269.606 
" clip-path="url(#pf3e83d10ca)" style="fill: none"/>
    <path d="M 201.968 269.606 
L 269.606 269.606 
L 269.606 337.244 
L 201.968 337.244 
L 201.968 269.606 
" clip-path="url(#pf3e83d10ca)" style="fill: none"/>
    <path d="M 269.606 269.606 
L 337.244 269.606 
L 337.244 337.244 
L 269.606 337.244 
L 269.606 269.606 
" clip-path="url(#pf3e83d10ca)" style="fill: none"/>
    <path d="M 337.244 269.606 
L 404.882 269.606 
L 404.882 337.244 
L 337.244 337.244 
L 337.244 269.606 
" clip-path="url(#pf3e83d10ca)" style="fill: #2a71b2"/>
    <path d="M 404.882 269.606 
L 472.52 269.606 
L 472.52 337.244 
L 404.882 337.244 
L 404.882 269.606 
" clip-path="url(#pf3e83d10ca)" style="fill: #2065ab"/>
    <path d="M 66.692 337.244 
L 134.33 337.244 
L 134.33 404.882 
L 66.692 404.882 
L 66.692 337.244 
" clip-path="url(#pf3e83d10ca)" style="fill: none"/>
    <path d="M 134.33 337.244 
L 201.968 337.244 
L 201.968 404.882 
L 134.33 404.882 
L 134.33 337.244 
" clip-path="url(#pf3e83d10ca)" style="fill: none"/>
    <path d="M 201.968 337.244 
L 269.606 337.244 
L 269.606 404.882 
L 201.968 404.882 
L 201.968 337.244 
" clip-path="url(#pf3e83d10ca)" style="fill: none"/>
    <path d="M 269.606 337.244 
L 337.244 337.244 
L 337.244 404.882 
L 269.606 404.882 
L 269.606 337.244 
" clip-path="url(#pf3e83d10ca)" style="fill: none"/>
    <path d="M 337.244 337.244 
L 404.882 337.244 
L 404.882 404.882 
L 337.244 404.882 
L 337.244 337.244 
" clip-path="url(#pf3e83d10ca)" style="fill: none"/>
    <path d="M 404.882 337.244 
L 472.52 337.244 
L 472.52 404.882 
L 404.882 404.882 
L 404.882 337.244 
" clip-path="url(#pf3e83d10ca)" style="fill: #185493"/>
    <path d="M 66.692 404.882 
L 134.33 404.882 
L 134.33 472.52 
L 66.692 472.52 
L 66.692 404.882 
" clip-path="url(#pf3e83d10ca)" style="fill: none"/>
    <path d="M 134.33 404.882 
L 201.968 404.882 
L 201.968 472.52 
L 134.33 472.52 
L 134.33 404.882 
" clip-path="url(#pf3e83d10ca)" style="fill: none"/>
    <path d="M 201.968 404.882 
L 269.606 404.882 
L 269.606 472.52 
L 201.968 472.52 
L 201.968 404.882 
" clip-path="url(#pf3e83d10ca)" style="fill: none"/>
    <path d="M 269.606 404.882 
L 337.244 404.882 
L 337.244 472.52 
L 269.606 472.52 
L 269.606 404.882 
" clip-path="url(#pf3e83d10ca)" style="fill: none"/>
    <path d="M 337.244 404.882 
L 404.882 404.882 
L 404.882 472.52 
L 337.244 472.52 
L 337.244 404.882 
" clip-path="url(#pf3e83d10ca)" style="fill: none"/>
    <path d="M 404.882 404.882 
L 472.52 404.882 
L 472.52 472.52 
L 404.882 472.52 
L 404.882 404.882 
" clip-path="url(#pf3e83d10ca)" style="fill: none"/>
   </g>
   <g id="QuadMesh_3">
    <path d="M 66.692 66.692 
L 134.33 66.692 
L 134.33 134.33 
L 66.692 134.33 
L 66.692 66.692 
" clip-path="url(#pf3e83d10ca)" style="fill: none"/>
    <path d="M 134.33 66.692 
L 201.968 66.692 
L 201.968 134.33 
L 134.33 134.33 
L 134.33 66.692 
" clip-path="url(#pf3e83d10ca)" style="fill: none"/>
    <path d="M 201.968 66.692 
L 269.606 66.692 
L 269.606 134.33 
L 201.968 134.33 
L 201.968 66.692 
" clip-path="url(#pf3e83d10ca)" style="fill: none"/>
    <path d="M 269.606 66.692 
L 337.244 66.692 
L 337.244 134.33 
L 269.606 134.33 
L 269.606 66.692 
" clip-path="url(#pf3e83d10ca)" style="fill: none"/>
    <path d="M 337.244 66.692 
L 404.882 66.692 
L 404.882 134.33 
L 337.244 134.33 
L 337.244 66.692 
" clip-path="url(#pf3e83d10ca)" style="fill: none"/>
    <path d="M 404.882 66.692 
L 472.52 66.692 
L 472.52 134.33 
L 404.882 134.33 
L 404.882 66.692 
" clip-path="url(#pf3e83d10ca)" style="fill: none"/>
    <path d="M 66.692 134.33 
L 134.33 134.33 
L 134.33 201.968 
L 66.692 201.968 
L 66.692 134.33 
" clip-path="url(#pf3e83d10ca)" style="fill: #e4ff78"/>
    <path d="M 134.33 134.33 
L 201.968 134.33 
L 201.968 201.968 
L 134.33 201.968 
L 134.33 134.33 
" clip-path="url(#pf3e83d10ca)" style="fill: none"/>
    <path d="M 201.968 134.33 
L 269.606 134.33 
L 269.606 201.968 
L 201.968 201.968 
L 201.968 134.33 
" clip-path="url(#pf3e83d10ca)" style="fill: none"/>
    <path d="M 269.606 134.33 
L 337.244 134.33 
L 337.244 201.968 
L 269.606 201.968 
L 269.606 134.33 
" clip-path="url(#pf3e83d10ca)" style="fill: none"/>
    <path d="M 337.244 134.33 
L 404.882 134.33 
L 404.882 201.968 
L 337.244 201.968 
L 337.244 134.33 
" clip-path="url(#pf3e83d10ca)" style="fill: none"/>
    <path d="M 404.882 134.33 
L 472.52 134.33 
L 472.52 201.968 
L 404.882 201.968 
L 404.882 134.33 
" clip-path="url(#pf3e83d10ca)" style="fill: none"/>
    <path d="M 66.692 201.968 
L 134.33 201.968 
L 134.33 269.606 
L 66.692 269.606 
L 66.692 201.968 
" clip-path="url(#pf3e83d10ca)" style="fill: #ffd60f"/>
    <path d="M 134.33 201.968 
L 201.968 201.968 
L 201.968 269.606 
L 134.33 269.606 
L 134.33 201.968 
" clip-path="url(#pf3e83d10ca)" style="fill: #ffda11"/>
    <path d="M 201.968 201.968 
L 269.606 201.968 
L 269.606 269.606 
L 201.968 269.606 
L 201.968 201.968 
" clip-path="url(#pf3e83d10ca)" style="fill: none"/>
    <path d="M 269.606 201.968 
L 337.244 201.968 
L 337.244 269.606 
L 269.606 269.606 
L 269.606 201.968 
" clip-path="url(#pf3e83d10ca)" style="fill: none"/>
    <path d="M 337.244 201.968 
L 404.882 201.968 
L 404.882 269.606 
L 337.244 269.606 
L 337.244 201.968 
" clip-path="url(#pf3e83d10ca)" style="fill: none"/>
    <path d="M 404.882 201.968 
L 472.52 201.968 
L 472.52 269.606 
L 404.882 269.606 
L 404.882 201.968 
" clip-path="url(#pf3e83d10ca)" style="fill: none"/>
    <path d="M 66.692 269.606 
L 134.33 269.606 
L 134.33 337.244 
L 66.692 337.244 
L 66.692 269.606 
" clip-path="url(#pf3e83d10ca)" style="fill: #f2f348"/>
    <path d="M 134.33 269.606 
L 201.968 269.606 
L 201.968 337.244 
L 134.33 337.244 
L 134.33 269.606 
" clip-path="url(#pf3e83d10ca)" style="fill: #ffd810"/>
    <path d="M 201.968 269.606 
L 269.606 269.606 
L 269.606 337.244 
L 201.968 337.244 
L 201.968 269.606 
" clip-path="url(#pf3e83d10ca)" style="fill: #ffb500"/>
    <path d="M 269.606 269.606 
L 337.244 269.606 
L 337.244 337.244 
L 269.606 337.244 
L 269.606 269.606 
" clip-path="url(#pf3e83d10ca)" style="fill: none"/>
    <path d="M 337.244 269.606 
L 404.882 269.606 
L 404.882 337.244 
L 337.244 337.244 
L 337.244 269.606 
" clip-path="url(#pf3e83d10ca)" style="fill: none"/>
    <path d="M 404.882 269.606 
L 472.52 269.606 
L 472.52 337.244 
L 404.882 337.244 
L 404.882 269.606 
" clip-path="url(#pf3e83d10ca)" style="fill: none"/>
    <path d="M 66.692 337.244 
L 134.33 337.244 
L 134.33 404.882 
L 66.692 404.882 
L 66.692 337.244 
" clip-path="url(#pf3e83d10ca)" style="fill: #eff654"/>
    <path d="M 134.33 337.244 
L 201.968 337.244 
L 201.968 404.882 
L 134.33 404.882 
L 134.33 337.244 
" clip-path="url(#pf3e83d10ca)" style="fill: #ffe417"/>
    <path d="M 201.968 337.244 
L 269.606 337.244 
L 269.606 404.882 
L 201.968 404.882 
L 201.968 337.244 
" clip-path="url(#pf3e83d10ca)" style="fill: #ffe216"/>
    <path d="M 269.606 337.244 
L 337.244 337.244 
L 337.244 404.882 
L 269.606 404.882 
L 269.606 337.244 
" clip-path="url(#pf3e83d10ca)" style="fill: #ffbb00"/>
    <path d="M 337.244 337.244 
L 404.882 337.244 
L 404.882 404.882 
L 337.244 404.882 
L 337.244 337.244 
" clip-path="url(#pf3e83d10ca)" style="fill: none"/>
    <path d="M 404.882 337.244 
L 472.52 337.244 
L 472.52 404.882 
L 404.882 404.882 
L 404.882 337.244 
" clip-path="url(#pf3e83d10ca)" style="fill: none"/>
    <path d="M 66.692 404.882 
L 134.33 404.882 
L 134.33 472.52 
L 66.692 472.52 
L 66.692 404.882 
" clip-path="url(#pf3e83d10ca)" style="fill: #f5f13e"/>
    <path d="M 134.33 404.882 
L 201.968 404.882 
L 201.968 472.52 
L 134.33 472.52 
L 134.33 404.882 
" clip-path="url(#pf3e83d10ca)" style="fill: #f2f347"/>
    <path d="M 201.968 404.882 
L 269.606 404.882 
L 269.606 472.52 
L 201.968 472.52 
L 201.968 404.882 
" clip-path="url(#pf3e83d10ca)" style="fill: #ffa400"/>
    <path d="M 269.606 404.882 
L 337.244 404.882 
L 337.244 472.52 
L 269.606 472.52 
L 269.606 404.882 
" clip-path="url(#pf3e83d10ca)" style="fill: #ffbf01"/>
    <path d="M 337.244 404.882 
L 404.882 404.882 
L 404.882 472.52 
L 337.244 472.52 
L 337.244 404.882 
" clip-path="url(#pf3e83d10ca)" style="fill: #ffcf0b"/>
    <path d="M 404.882 404.882 
L 472.52 404.882 
L 472.52 472.52 
L 404.882 472.52 
L 404.882 404.882 
" clip-path="url(#pf3e83d10ca)" style="fill: none"/>
   </g>
   <g id="QuadMesh_4">
    <path d="M 66.692 66.692 
L 134.33 66.692 
L 134.33 134.33 
L 66.692 134.33 
L 66.692 66.692 
" clip-path="url(#pf3e83d10ca)"/>
    <path d="M 134.33 66.692 
L 201.968 66.692 
L 201.968 134.33 
L 134.33 134.33 
L 134.33 66.692 
" clip-path="url(#pf3e83d10ca)" style="fill: none"/>
    <path d="M 201.968 66.692 
L 269.606 66.692 
L 269.606 134.33 
L 201.968 134.33 
L 201.968 66.692 
" clip-path="url(#pf3e83d10ca)" style="fill: none"/>
    <path d="M 269.606 66.692 
L 337.244 66.692 
L 337.244 134.33 
L 269.606 134.33 
L 269.606 66.692 
" clip-path="url(#pf3e83d10ca)" style="fill: none"/>
    <path d="M 337.244 66.692 
L 404.882 66.692 
L 404.882 134.33 
L 337.244 134.33 
L 337.244 66.692 
" clip-path="url(#pf3e83d10ca)" style="fill: none"/>
    <path d="M 404.882 66.692 
L 472.52 66.692 
L 472.52 134.33 
L 404.882 134.33 
L 404.882 66.692 
" clip-path="url(#pf3e83d10ca)" style="fill: none"/>
    <path d="M 66.692 134.33 
L 134.33 134.33 
L 134.33 201.968 
L 66.692 201.968 
L 66.692 134.33 
" clip-path="url(#pf3e83d10ca)" style="fill: none"/>
    <path d="M 134.33 134.33 
L 201.968 134.33 
L 201.968 201.968 
L 134.33 201.968 
L 134.33 134.33 
" clip-path="url(#pf3e83d10ca)"/>
    <path d="M 201.968 134.33 
L 269.606 134.33 
L 269.606 201.968 
L 201.968 201.968 
L 201.968 134.33 
" clip-path="url(#pf3e83d10ca)" style="fill: none"/>
    <path d="M 269.606 134.33 
L 337.244 134.33 
L 337.244 201.968 
L 269.606 201.968 
L 269.606 134.33 
" clip-path="url(#pf3e83d10ca)" style="fill: none"/>
    <path d="M 337.244 134.33 
L 404.882 134.33 
L 404.882 201.968 
L 337.244 201.968 
L 337.244 134.33 
" clip-path="url(#pf3e83d10ca)" style="fill: none"/>
    <path d="M 404.882 134.33 
L 472.52 134.33 
L 472.52 201.968 
L 404.882 201.968 
L 404.882 134.33 
" clip-path="url(#pf3e83d10ca)" style="fill: none"/>
    <path d="M 66.692 201.968 
L 134.33 201.968 
L 134.33 269.606 
L 66.692 269.606 
L 66.692 201.968 
" clip-path="url(#pf3e83d10ca)" style="fill: none"/>
    <path d="M 134.33 201.968 
L 201.968 201.968 
L 201.968 269.606 
L 134.33 269.606 
L 134.33 201.968 
" clip-path="url(#pf3e83d10ca)" style="fill: none"/>
    <path d="M 201.968 201.968 
L 269.606 201.968 
L 269.606 269.606 
L 201.968 269.606 
L 201.968 201.968 
" clip-path="url(#pf3e83d10ca)"/>
    <path d="M 269.606 201.968 
L 337.244 201.968 
L 337.244 269.606 
L 269.606 269.606 
L 269.606 201.968 
" clip-path="url(#pf3e83d10ca)" style="fill: none"/>
    <path d="M 337.244 201.968 
L 404.882 201.968 
L 404.882 269.606 
L 337.244 269.606 
L 337.244 201.968 
" clip-path="url(#pf3e83d10ca)" style="fill: none"/>
    <path d="M 404.882 201.968 
L 472.52 201.968 
L 472.52 269.606 
L 404.882 269.606 
L 404.882 201.968 
" clip-path="url(#pf3e83d10ca)" style="fill: none"/>
    <path d="M 66.692 269.606 
L 134.33 269.606 
L 134.33 337.244 
L 66.692 337.244 
L 66.692 269.606 
" clip-path="url(#pf3e83d10ca)" style="fill: none"/>
    <path d="M 134.33 269.606 
L 201.968 269.606 
L 201.968 337.244 
L 134.33 337.244 
L 134.33 269.606 
" clip-path="url(#pf3e83d10ca)" style="fill: none"/>
    <path d="M 201.968 269.606 
L 269.606 269.606 
L 269.606 337.244 
L 201.968 337.244 
L 201.968 269.606 
" clip-path="url(#pf3e83d10ca)" style="fill: none"/>
    <path d="M 269.606 269.606 
L 337.244 269.606 
L 337.244 337.244 
L 269.606 337.244 
L 269.606 269.606 
" clip-path="url(#pf3e83d10ca)"/>
    <path d="M 337.244 269.606 
L 404.882 269.606 
L 404.882 337.244 
L 337.244 337.244 
L 337.244 269.606 
" clip-path="url(#pf3e83d10ca)" style="fill: none"/>
    <path d="M 404.882 269.606 
L 472.52 269.606 
L 472.52 337.244 
L 404.882 337.244 
L 404.882 269.606 
" clip-path="url(#pf3e83d10ca)" style="fill: none"/>
    <path d="M 66.692 337.244 
L 134.33 337.244 
L 134.33 404.882 
L 66.692 404.882 
L 66.692 337.244 
" clip-path="url(#pf3e83d10ca)" style="fill: none"/>
    <path d="M 134.33 337.244 
L 201.968 337.244 
L 201.968 404.882 
L 134.33 404.882 
L 134.33 337.244 
" clip-path="url(#pf3e83d10ca)" style="fill: none"/>
    <path d="M 201.968 337.244 
L 269.606 337.244 
L 269.606 404.882 
L 201.968 404.882 
L 201.968 337.244 
" clip-path="url(#pf3e83d10ca)" style="fill: none"/>
    <path d="M 269.606 337.244 
L 337.244 337.244 
L 337.244 404.882 
L 269.606 404.882 
L 269.606 337.244 
" clip-path="url(#pf3e83d10ca)" style="fill: none"/>
    <path d="M 337.244 337.244 
L 404.882 337.244 
L 404.882 404.882 
L 337.244 404.882 
L 337.244 337.244 
" clip-path="url(#pf3e83d10ca)"/>
    <path d="M 404.882 337.244 
L 472.52 337.244 
L 472.52 404.882 
L 404.882 404.882 
L 404.882 337.244 
" clip-path="url(#pf3e83d10ca)" style="fill: none"/>
    <path d="M 66.692 404.882 
L 134.33 404.882 
L 134.33 472.52 
L 66.692 472.52 
L 66.692 404.882 
" clip-path="url(#pf3e83d10ca)" style="fill: none"/>
    <path d="M 134.33 404.882 
L 201.968 404.882 
L 201.968 472.52 
L 134.33 472.52 
L 134.33 404.882 
" clip-path="url(#pf3e83d10ca)" style="fill: none"/>
    <path d="M 201.968 404.882 
L 269.606 404.882 
L 269.606 472.52 
L 201.968 472.52 
L 201.968 404.882 
" clip-path="url(#pf3e83d10ca)" style="fill: none"/>
    <path d="M 269.606 404.882 
L 337.244 404.882 
L 337.244 472.52 
L 269.606 472.52 
L 269.606 404.882 
" clip-path="url(#pf3e83d10ca)" style="fill: none"/>
    <path d="M 337.244 404.882 
L 404.882 404.882 
L 404.882 472.52 
L 337.244 472.52 
L 337.244 404.882 
" clip-path="url(#pf3e83d10ca)" style="fill: none"/>
    <path d="M 404.882 404.882 
L 472.52 404.882 
L 472.52 472.52 
L 404.882 472.52 
L 404.882 404.882 
" clip-path="url(#pf3e83d10ca)"/>
   </g>
   <g id="matplotlib.axis_1">
    <g id="xtick_1">
     <g id="line2d_1">
      <defs>
       <path id="m1c559ea8f0" d="M 0 0 
L 0 3.5 
" style="stroke: #000000; stroke-width: 0.8"/>
      </defs>
      <g>
       <use xlink:href="#m1c559ea8f0" x="100.511" y="472.52" style="stroke: #000000; stroke-width: 0.8"/>
      </g>
     </g>
     <g id="text_1">
      <!-- LAIR1 -->
      <g transform="translate(80.282094 490.157812) scale(0.14 -0.14)">
       <defs>
        <path id="DejaVuSans-4c" d="M 628 4666 
L 1259 4666 
L 1259 531 
L 3531 531 
L 3531 0 
L 628 0 
L 628 4666 
z
" transform="scale(0.015625)"/>
        <path id="DejaVuSans-41" d="M 2188 4044 
L 1331 1722 
L 3047 1722 
L 2188 4044 
z
M 1831 4666 
L 2547 4666 
L 4325 0 
L 3669 0 
L 3244 1197 
L 1141 1197 
L 716 0 
L 50 0 
L 1831 4666 
z
" transform="scale(0.015625)"/>
        <path id="DejaVuSans-49" d="M 628 4666 
L 1259 4666 
L 1259 0 
L 628 0 
L 628 4666 
z
" transform="scale(0.015625)"/>
        <path id="DejaVuSans-52" d="M 2841 2188 
Q 3044 2119 3236 1894 
Q 3428 1669 3622 1275 
L 4263 0 
L 3584 0 
L 2988 1197 
Q 2756 1666 2539 1819 
Q 2322 1972 1947 1972 
L 1259 1972 
L 1259 0 
L 628 0 
L 628 4666 
L 2053 4666 
Q 2853 4666 3247 4331 
Q 3641 3997 3641 3322 
Q 3641 2881 3436 2590 
Q 3231 2300 2841 2188 
z
M 1259 4147 
L 1259 2491 
L 2053 2491 
Q 2509 2491 2742 2702 
Q 2975 2913 2975 3322 
Q 2975 3731 2742 3939 
Q 2509 4147 2053 4147 
L 1259 4147 
z
" transform="scale(0.015625)"/>
        <path id="DejaVuSans-31" d="M 794 531 
L 1825 531 
L 1825 4091 
L 703 3866 
L 703 4441 
L 1819 4666 
L 2450 4666 
L 2450 531 
L 3481 531 
L 3481 0 
L 794 0 
L 794 531 
z
" transform="scale(0.015625)"/>
       </defs>
       <use xlink:href="#DejaVuSans-4c"/>
       <use xlink:href="#DejaVuSans-41" x="57.962891"/>
       <use xlink:href="#DejaVuSans-49" x="126.371094"/>
       <use xlink:href="#DejaVuSans-52" x="155.863281"/>
       <use xlink:href="#DejaVuSans-31" x="225.345703"/>
      </g>
     </g>
    </g>
    <g id="xtick_2">
     <g id="line2d_2">
      <g>
       <use xlink:href="#m1c559ea8f0" x="168.149" y="472.52" style="stroke: #000000; stroke-width: 0.8"/>
      </g>
     </g>
     <g id="text_2">
      <!-- ECH1 -->
      <g transform="translate(149.119937 490.157812) scale(0.14 -0.14)">
       <defs>
        <path id="DejaVuSans-45" d="M 628 4666 
L 3578 4666 
L 3578 4134 
L 1259 4134 
L 1259 2753 
L 3481 2753 
L 3481 2222 
L 1259 2222 
L 1259 531 
L 3634 531 
L 3634 0 
L 628 0 
L 628 4666 
z
" transform="scale(0.015625)"/>
        <path id="DejaVuSans-43" d="M 4122 4306 
L 4122 3641 
Q 3803 3938 3442 4084 
Q 3081 4231 2675 4231 
Q 1875 4231 1450 3742 
Q 1025 3253 1025 2328 
Q 1025 1406 1450 917 
Q 1875 428 2675 428 
Q 3081 428 3442 575 
Q 3803 722 4122 1019 
L 4122 359 
Q 3791 134 3420 21 
Q 3050 -91 2638 -91 
Q 1578 -91 968 557 
Q 359 1206 359 2328 
Q 359 3453 968 4101 
Q 1578 4750 2638 4750 
Q 3056 4750 3426 4639 
Q 3797 4528 4122 4306 
z
" transform="scale(0.015625)"/>
        <path id="DejaVuSans-48" d="M 628 4666 
L 1259 4666 
L 1259 2753 
L 3553 2753 
L 3553 4666 
L 4184 4666 
L 4184 0 
L 3553 0 
L 3553 2222 
L 1259 2222 
L 1259 0 
L 628 0 
L 628 4666 
z
" transform="scale(0.015625)"/>
       </defs>
       <use xlink:href="#DejaVuSans-45"/>
       <use xlink:href="#DejaVuSans-43" x="63.183594"/>
       <use xlink:href="#DejaVuSans-48" x="133.007812"/>
       <use xlink:href="#DejaVuSans-31" x="208.203125"/>
      </g>
     </g>
    </g>
    <g id="xtick_3">
     <g id="line2d_3">
      <g>
       <use xlink:href="#m1c559ea8f0" x="235.787" y="472.52" style="stroke: #000000; stroke-width: 0.8"/>
      </g>
     </g>
     <g id="text_3">
      <!-- PVR -->
      <g transform="translate(221.913875 490.157812) scale(0.14 -0.14)">
       <defs>
        <path id="DejaVuSans-50" d="M 1259 4147 
L 1259 2394 
L 2053 2394 
Q 2494 2394 2734 2622 
Q 2975 2850 2975 3272 
Q 2975 3691 2734 3919 
Q 2494 4147 2053 4147 
L 1259 4147 
z
M 628 4666 
L 2053 4666 
Q 2838 4666 3239 4311 
Q 3641 3956 3641 3272 
Q 3641 2581 3239 2228 
Q 2838 1875 2053 1875 
L 1259 1875 
L 1259 0 
L 628 0 
L 628 4666 
z
" transform="scale(0.015625)"/>
        <path id="DejaVuSans-56" d="M 1831 0 
L 50 4666 
L 709 4666 
L 2188 738 
L 3669 4666 
L 4325 4666 
L 2547 0 
L 1831 0 
z
" transform="scale(0.015625)"/>
       </defs>
       <use xlink:href="#DejaVuSans-50"/>
       <use xlink:href="#DejaVuSans-56" x="60.302734"/>
       <use xlink:href="#DejaVuSans-52" x="128.710938"/>
      </g>
     </g>
    </g>
    <g id="xtick_4">
     <g id="line2d_4">
      <g>
       <use xlink:href="#m1c559ea8f0" x="303.425" y="472.52" style="stroke: #000000; stroke-width: 0.8"/>
      </g>
     </g>
     <g id="text_4">
      <!-- UQCRFS1 -->
      <g transform="translate(270.238437 490.157812) scale(0.14 -0.14)">
       <defs>
        <path id="DejaVuSans-55" d="M 556 4666 
L 1191 4666 
L 1191 1831 
Q 1191 1081 1462 751 
Q 1734 422 2344 422 
Q 2950 422 3222 751 
Q 3494 1081 3494 1831 
L 3494 4666 
L 4128 4666 
L 4128 1753 
Q 4128 841 3676 375 
Q 3225 -91 2344 -91 
Q 1459 -91 1007 375 
Q 556 841 556 1753 
L 556 4666 
z
" transform="scale(0.015625)"/>
        <path id="DejaVuSans-51" d="M 2522 4238 
Q 1834 4238 1429 3725 
Q 1025 3213 1025 2328 
Q 1025 1447 1429 934 
Q 1834 422 2522 422 
Q 3209 422 3611 934 
Q 4013 1447 4013 2328 
Q 4013 3213 3611 3725 
Q 3209 4238 2522 4238 
z
M 3406 84 
L 4238 -825 
L 3475 -825 
L 2784 -78 
Q 2681 -84 2626 -87 
Q 2572 -91 2522 -91 
Q 1538 -91 948 567 
Q 359 1225 359 2328 
Q 359 3434 948 4092 
Q 1538 4750 2522 4750 
Q 3503 4750 4090 4092 
Q 4678 3434 4678 2328 
Q 4678 1516 4351 937 
Q 4025 359 3406 84 
z
" transform="scale(0.015625)"/>
        <path id="DejaVuSans-46" d="M 628 4666 
L 3309 4666 
L 3309 4134 
L 1259 4134 
L 1259 2759 
L 3109 2759 
L 3109 2228 
L 1259 2228 
L 1259 0 
L 628 0 
L 628 4666 
z
" transform="scale(0.015625)"/>
        <path id="DejaVuSans-53" d="M 3425 4513 
L 3425 3897 
Q 3066 4069 2747 4153 
Q 2428 4238 2131 4238 
Q 1616 4238 1336 4038 
Q 1056 3838 1056 3469 
Q 1056 3159 1242 3001 
Q 1428 2844 1947 2747 
L 2328 2669 
Q 3034 2534 3370 2195 
Q 3706 1856 3706 1288 
Q 3706 609 3251 259 
Q 2797 -91 1919 -91 
Q 1588 -91 1214 -16 
Q 841 59 441 206 
L 441 856 
Q 825 641 1194 531 
Q 1563 422 1919 422 
Q 2459 422 2753 634 
Q 3047 847 3047 1241 
Q 3047 1584 2836 1778 
Q 2625 1972 2144 2069 
L 1759 2144 
Q 1053 2284 737 2584 
Q 422 2884 422 3419 
Q 422 4038 858 4394 
Q 1294 4750 2059 4750 
Q 2388 4750 2728 4690 
Q 3069 4631 3425 4513 
z
" transform="scale(0.015625)"/>
       </defs>
       <use xlink:href="#DejaVuSans-55"/>
       <use xlink:href="#DejaVuSans-51" x="73.193359"/>
       <use xlink:href="#DejaVuSans-43" x="151.904297"/>
       <use xlink:href="#DejaVuSans-52" x="221.728516"/>
       <use xlink:href="#DejaVuSans-46" x="291.210938"/>
       <use xlink:href="#DejaVuSans-53" x="346.980469"/>
       <use xlink:href="#DejaVuSans-31" x="410.457031"/>
      </g>
     </g>
    </g>
    <g id="xtick_5">
     <g id="line2d_5">
      <g>
       <use xlink:href="#m1c559ea8f0" x="371.063" y="472.52" style="stroke: #000000; stroke-width: 0.8"/>
      </g>
     </g>
     <g id="text_5">
      <!-- SARS2 -->
      <g transform="translate(347.937844 490.157812) scale(0.14 -0.14)">
       <defs>
        <path id="DejaVuSans-32" d="M 1228 531 
L 3431 531 
L 3431 0 
L 469 0 
L 469 531 
Q 828 903 1448 1529 
Q 2069 2156 2228 2338 
Q 2531 2678 2651 2914 
Q 2772 3150 2772 3378 
Q 2772 3750 2511 3984 
Q 2250 4219 1831 4219 
Q 1534 4219 1204 4116 
Q 875 4013 500 3803 
L 500 4441 
Q 881 4594 1212 4672 
Q 1544 4750 1819 4750 
Q 2544 4750 2975 4387 
Q 3406 4025 3406 3419 
Q 3406 3131 3298 2873 
Q 3191 2616 2906 2266 
Q 2828 2175 2409 1742 
Q 1991 1309 1228 531 
z
" transform="scale(0.015625)"/>
       </defs>
       <use xlink:href="#DejaVuSans-53"/>
       <use xlink:href="#DejaVuSans-41" x="65.351562"/>
       <use xlink:href="#DejaVuSans-52" x="133.759766"/>
       <use xlink:href="#DejaVuSans-53" x="203.242188"/>
       <use xlink:href="#DejaVuSans-32" x="266.71875"/>
      </g>
     </g>
    </g>
    <g id="xtick_6">
     <g id="line2d_6">
      <g>
       <use xlink:href="#m1c559ea8f0" x="438.701" y="472.52" style="stroke: #000000; stroke-width: 0.8"/>
      </g>
     </g>
     <g id="text_6">
      <!-- SLC1A5 -->
      <g transform="translate(411.772875 490.157812) scale(0.14 -0.14)">
       <defs>
        <path id="DejaVuSans-35" d="M 691 4666 
L 3169 4666 
L 3169 4134 
L 1269 4134 
L 1269 2991 
Q 1406 3038 1543 3061 
Q 1681 3084 1819 3084 
Q 2600 3084 3056 2656 
Q 3513 2228 3513 1497 
Q 3513 744 3044 326 
Q 2575 -91 1722 -91 
Q 1428 -91 1123 -41 
Q 819 9 494 109 
L 494 744 
Q 775 591 1075 516 
Q 1375 441 1709 441 
Q 2250 441 2565 725 
Q 2881 1009 2881 1497 
Q 2881 1984 2565 2268 
Q 2250 2553 1709 2553 
Q 1456 2553 1204 2497 
Q 953 2441 691 2322 
L 691 4666 
z
" transform="scale(0.015625)"/>
       </defs>
       <use xlink:href="#DejaVuSans-53"/>
       <use xlink:href="#DejaVuSans-4c" x="63.476562"/>
       <use xlink:href="#DejaVuSans-43" x="119.189453"/>
       <use xlink:href="#DejaVuSans-31" x="189.013672"/>
       <use xlink:href="#DejaVuSans-41" x="252.636719"/>
       <use xlink:href="#DejaVuSans-35" x="321.044922"/>
      </g>
     </g>
    </g>
   </g>
   <g id="matplotlib.axis_2">
    <g id="ytick_1">
     <g id="line2d_7">
      <defs>
       <path id="m61c4c02ff5" d="M 0 0 
L 3.5 0 
" style="stroke: #000000; stroke-width: 0.8"/>
      </defs>
      <g>
       <use xlink:href="#m61c4c02ff5" x="472.52" y="100.511" style="stroke: #000000; stroke-width: 0.8"/>
      </g>
     </g>
     <g id="text_7">
      <!-- LAIR1 -->
      <g transform="translate(490.157812 120.739906) rotate(-90) scale(0.14 -0.14)">
       <use xlink:href="#DejaVuSans-4c"/>
       <use xlink:href="#DejaVuSans-41" x="57.962891"/>
       <use xlink:href="#DejaVuSans-49" x="126.371094"/>
       <use xlink:href="#DejaVuSans-52" x="155.863281"/>
       <use xlink:href="#DejaVuSans-31" x="225.345703"/>
      </g>
     </g>
    </g>
    <g id="ytick_2">
     <g id="line2d_8">
      <g>
       <use xlink:href="#m61c4c02ff5" x="472.52" y="168.149" style="stroke: #000000; stroke-width: 0.8"/>
      </g>
     </g>
     <g id="text_8">
      <!-- ECH1 -->
      <g transform="translate(490.157812 187.178063) rotate(-90) scale(0.14 -0.14)">
       <use xlink:href="#DejaVuSans-45"/>
       <use xlink:href="#DejaVuSans-43" x="63.183594"/>
       <use xlink:href="#DejaVuSans-48" x="133.007812"/>
       <use xlink:href="#DejaVuSans-31" x="208.203125"/>
      </g>
     </g>
    </g>
    <g id="ytick_3">
     <g id="line2d_9">
      <g>
       <use xlink:href="#m61c4c02ff5" x="472.52" y="235.787" style="stroke: #000000; stroke-width: 0.8"/>
      </g>
     </g>
     <g id="text_9">
      <!-- PVR -->
      <g transform="translate(490.157812 249.660125) rotate(-90) scale(0.14 -0.14)">
       <use xlink:href="#DejaVuSans-50"/>
       <use xlink:href="#DejaVuSans-56" x="60.302734"/>
       <use xlink:href="#DejaVuSans-52" x="128.710938"/>
      </g>
     </g>
    </g>
    <g id="ytick_4">
     <g id="line2d_10">
      <g>
       <use xlink:href="#m61c4c02ff5" x="472.52" y="303.425" style="stroke: #000000; stroke-width: 0.8"/>
      </g>
     </g>
     <g id="text_10">
      <!-- UQCRFS1 -->
      <g transform="translate(490.157812 336.611562) rotate(-90) scale(0.14 -0.14)">
       <use xlink:href="#DejaVuSans-55"/>
       <use xlink:href="#DejaVuSans-51" x="73.193359"/>
       <use xlink:href="#DejaVuSans-43" x="151.904297"/>
       <use xlink:href="#DejaVuSans-52" x="221.728516"/>
       <use xlink:href="#DejaVuSans-46" x="291.210938"/>
       <use xlink:href="#DejaVuSans-53" x="346.980469"/>
       <use xlink:href="#DejaVuSans-31" x="410.457031"/>
      </g>
     </g>
    </g>
    <g id="ytick_5">
     <g id="line2d_11">
      <g>
       <use xlink:href="#m61c4c02ff5" x="472.52" y="371.063" style="stroke: #000000; stroke-width: 0.8"/>
      </g>
     </g>
     <g id="text_11">
      <!-- SARS2 -->
      <g transform="translate(490.157812 394.188156) rotate(-90) scale(0.14 -0.14)">
       <use xlink:href="#DejaVuSans-53"/>
       <use xlink:href="#DejaVuSans-41" x="65.351562"/>
       <use xlink:href="#DejaVuSans-52" x="133.759766"/>
       <use xlink:href="#DejaVuSans-53" x="203.242188"/>
       <use xlink:href="#DejaVuSans-32" x="266.71875"/>
      </g>
     </g>
    </g>
    <g id="ytick_6">
     <g id="line2d_12">
      <g>
       <use xlink:href="#m61c4c02ff5" x="472.52" y="438.701" style="stroke: #000000; stroke-width: 0.8"/>
      </g>
     </g>
     <g id="text_12">
      <!-- SLC1A5 -->
      <g transform="translate(490.157812 465.629125) rotate(-90) scale(0.14 -0.14)">
       <use xlink:href="#DejaVuSans-53"/>
       <use xlink:href="#DejaVuSans-4c" x="63.476562"/>
       <use xlink:href="#DejaVuSans-43" x="119.189453"/>
       <use xlink:href="#DejaVuSans-31" x="189.013672"/>
       <use xlink:href="#DejaVuSans-41" x="252.636719"/>
       <use xlink:href="#DejaVuSans-35" x="321.044922"/>
      </g>
     </g>
    </g>
   </g>
   <g id="text_13">
    <!-- 0.98 -->
    <g style="fill: #ffffff" transform="translate(145.883375 106.02975) scale(0.2 -0.2)">
     <defs>
      <path id="DejaVuSans-30" d="M 2034 4250 
Q 1547 4250 1301 3770 
Q 1056 3291 1056 2328 
Q 1056 1369 1301 889 
Q 1547 409 2034 409 
Q 2525 409 2770 889 
Q 3016 1369 3016 2328 
Q 3016 3291 2770 3770 
Q 2525 4250 2034 4250 
z
M 2034 4750 
Q 2819 4750 3233 4129 
Q 3647 3509 3647 2328 
Q 3647 1150 3233 529 
Q 2819 -91 2034 -91 
Q 1250 -91 836 529 
Q 422 1150 422 2328 
Q 422 3509 836 4129 
Q 1250 4750 2034 4750 
z
" transform="scale(0.015625)"/>
      <path id="DejaVuSans-2e" d="M 684 794 
L 1344 794 
L 1344 0 
L 684 0 
L 684 794 
z
" transform="scale(0.015625)"/>
      <path id="DejaVuSans-39" d="M 703 97 
L 703 672 
Q 941 559 1184 500 
Q 1428 441 1663 441 
Q 2288 441 2617 861 
Q 2947 1281 2994 2138 
Q 2813 1869 2534 1725 
Q 2256 1581 1919 1581 
Q 1219 1581 811 2004 
Q 403 2428 403 3163 
Q 403 3881 828 4315 
Q 1253 4750 1959 4750 
Q 2769 4750 3195 4129 
Q 3622 3509 3622 2328 
Q 3622 1225 3098 567 
Q 2575 -91 1691 -91 
Q 1453 -91 1209 -44 
Q 966 3 703 97 
z
M 1959 2075 
Q 2384 2075 2632 2365 
Q 2881 2656 2881 3163 
Q 2881 3666 2632 3958 
Q 2384 4250 1959 4250 
Q 1534 4250 1286 3958 
Q 1038 3666 1038 3163 
Q 1038 2656 1286 2365 
Q 1534 2075 1959 2075 
z
" transform="scale(0.015625)"/>
      <path id="DejaVuSans-38" d="M 2034 2216 
Q 1584 2216 1326 1975 
Q 1069 1734 1069 1313 
Q 1069 891 1326 650 
Q 1584 409 2034 409 
Q 2484 409 2743 651 
Q 3003 894 3003 1313 
Q 3003 1734 2745 1975 
Q 2488 2216 2034 2216 
z
M 1403 2484 
Q 997 2584 770 2862 
Q 544 3141 544 3541 
Q 544 4100 942 4425 
Q 1341 4750 2034 4750 
Q 2731 4750 3128 4425 
Q 3525 4100 3525 3541 
Q 3525 3141 3298 2862 
Q 3072 2584 2669 2484 
Q 3125 2378 3379 2068 
Q 3634 1759 3634 1313 
Q 3634 634 3220 271 
Q 2806 -91 2034 -91 
Q 1263 -91 848 271 
Q 434 634 434 1313 
Q 434 1759 690 2068 
Q 947 2378 1403 2484 
z
M 1172 3481 
Q 1172 3119 1398 2916 
Q 1625 2713 2034 2713 
Q 2441 2713 2670 2916 
Q 2900 3119 2900 3481 
Q 2900 3844 2670 4047 
Q 2441 4250 2034 4250 
Q 1625 4250 1398 4047 
Q 1172 3844 1172 3481 
z
" transform="scale(0.015625)"/>
     </defs>
     <use xlink:href="#DejaVuSans-30"/>
     <use xlink:href="#DejaVuSans-2e" x="63.623047"/>
     <use xlink:href="#DejaVuSans-39" x="95.410156"/>
     <use xlink:href="#DejaVuSans-38" x="159.033203"/>
    </g>
   </g>
   <g id="text_14">
    <!-- 0.88 -->
    <g style="fill: #ffffff" transform="translate(213.521375 106.02975) scale(0.2 -0.2)">
     <use xlink:href="#DejaVuSans-30"/>
     <use xlink:href="#DejaVuSans-2e" x="63.623047"/>
     <use xlink:href="#DejaVuSans-38" x="95.410156"/>
     <use xlink:href="#DejaVuSans-38" x="159.033203"/>
    </g>
   </g>
   <g id="text_15">
    <!-- 0.97 -->
    <g style="fill: #ffffff" transform="translate(281.159375 106.02975) scale(0.2 -0.2)">
     <defs>
      <path id="DejaVuSans-37" d="M 525 4666 
L 3525 4666 
L 3525 4397 
L 1831 0 
L 1172 0 
L 2766 4134 
L 525 4134 
L 525 4666 
z
" transform="scale(0.015625)"/>
     </defs>
     <use xlink:href="#DejaVuSans-30"/>
     <use xlink:href="#DejaVuSans-2e" x="63.623047"/>
     <use xlink:href="#DejaVuSans-39" x="95.410156"/>
     <use xlink:href="#DejaVuSans-37" x="159.033203"/>
    </g>
   </g>
   <g id="text_16">
    <!-- 0.95 -->
    <g style="fill: #ffffff" transform="translate(348.797375 106.02975) scale(0.2 -0.2)">
     <use xlink:href="#DejaVuSans-30"/>
     <use xlink:href="#DejaVuSans-2e" x="63.623047"/>
     <use xlink:href="#DejaVuSans-39" x="95.410156"/>
     <use xlink:href="#DejaVuSans-35" x="159.033203"/>
    </g>
   </g>
   <g id="text_17">
    <!-- 0.99 -->
    <g style="fill: #ffffff" transform="translate(416.435375 106.02975) scale(0.2 -0.2)">
     <use xlink:href="#DejaVuSans-30"/>
     <use xlink:href="#DejaVuSans-2e" x="63.623047"/>
     <use xlink:href="#DejaVuSans-39" x="95.410156"/>
     <use xlink:href="#DejaVuSans-39" x="159.033203"/>
    </g>
   </g>
   <g id="text_18">
    <!-- 0.75 -->
    <g style="fill: #ffffff" transform="translate(213.521375 173.66775) scale(0.2 -0.2)">
     <use xlink:href="#DejaVuSans-30"/>
     <use xlink:href="#DejaVuSans-2e" x="63.623047"/>
     <use xlink:href="#DejaVuSans-37" x="95.410156"/>
     <use xlink:href="#DejaVuSans-35" x="159.033203"/>
    </g>
   </g>
   <g id="text_19">
    <!-- 0.73 -->
    <g style="fill: #262626" transform="translate(281.159375 173.66775) scale(0.2 -0.2)">
     <defs>
      <path id="DejaVuSans-33" d="M 2597 2516 
Q 3050 2419 3304 2112 
Q 3559 1806 3559 1356 
Q 3559 666 3084 287 
Q 2609 -91 1734 -91 
Q 1441 -91 1130 -33 
Q 819 25 488 141 
L 488 750 
Q 750 597 1062 519 
Q 1375 441 1716 441 
Q 2309 441 2620 675 
Q 2931 909 2931 1356 
Q 2931 1769 2642 2001 
Q 2353 2234 1838 2234 
L 1294 2234 
L 1294 2753 
L 1863 2753 
Q 2328 2753 2575 2939 
Q 2822 3125 2822 3475 
Q 2822 3834 2567 4026 
Q 2313 4219 1838 4219 
Q 1578 4219 1281 4162 
Q 984 4106 628 3988 
L 628 4550 
Q 988 4650 1302 4700 
Q 1616 4750 1894 4750 
Q 2613 4750 3031 4423 
Q 3450 4097 3450 3541 
Q 3450 3153 3228 2886 
Q 3006 2619 2597 2516 
z
" transform="scale(0.015625)"/>
     </defs>
     <use xlink:href="#DejaVuSans-30"/>
     <use xlink:href="#DejaVuSans-2e" x="63.623047"/>
     <use xlink:href="#DejaVuSans-37" x="95.410156"/>
     <use xlink:href="#DejaVuSans-33" x="159.033203"/>
    </g>
   </g>
   <g id="text_20">
    <!-- 0.89 -->
    <g style="fill: #ffffff" transform="translate(348.797375 173.66775) scale(0.2 -0.2)">
     <use xlink:href="#DejaVuSans-30"/>
     <use xlink:href="#DejaVuSans-2e" x="63.623047"/>
     <use xlink:href="#DejaVuSans-38" x="95.410156"/>
     <use xlink:href="#DejaVuSans-39" x="159.033203"/>
    </g>
   </g>
   <g id="text_21">
    <!-- 1.00 -->
    <g style="fill: #ffffff" transform="translate(416.435375 173.66775) scale(0.2 -0.2)">
     <use xlink:href="#DejaVuSans-31"/>
     <use xlink:href="#DejaVuSans-2e" x="63.623047"/>
     <use xlink:href="#DejaVuSans-30" x="95.410156"/>
     <use xlink:href="#DejaVuSans-30" x="159.033203"/>
    </g>
   </g>
   <g id="text_22">
    <!-- 0.40 -->
    <g style="fill: #262626" transform="translate(281.159375 241.30575) scale(0.2 -0.2)">
     <defs>
      <path id="DejaVuSans-34" d="M 2419 4116 
L 825 1625 
L 2419 1625 
L 2419 4116 
z
M 2253 4666 
L 3047 4666 
L 3047 1625 
L 3713 1625 
L 3713 1100 
L 3047 1100 
L 3047 0 
L 2419 0 
L 2419 1100 
L 313 1100 
L 313 1709 
L 2253 4666 
z
" transform="scale(0.015625)"/>
     </defs>
     <use xlink:href="#DejaVuSans-30"/>
     <use xlink:href="#DejaVuSans-2e" x="63.623047"/>
     <use xlink:href="#DejaVuSans-34" x="95.410156"/>
     <use xlink:href="#DejaVuSans-30" x="159.033203"/>
    </g>
   </g>
   <g id="text_23">
    <!-- 0.98 -->
    <g style="fill: #ffffff" transform="translate(348.797375 241.30575) scale(0.2 -0.2)">
     <use xlink:href="#DejaVuSans-30"/>
     <use xlink:href="#DejaVuSans-2e" x="63.623047"/>
     <use xlink:href="#DejaVuSans-39" x="95.410156"/>
     <use xlink:href="#DejaVuSans-38" x="159.033203"/>
    </g>
   </g>
   <g id="text_24">
    <!-- 0.81 -->
    <g style="fill: #ffffff" transform="translate(416.435375 241.30575) scale(0.2 -0.2)">
     <use xlink:href="#DejaVuSans-30"/>
     <use xlink:href="#DejaVuSans-2e" x="63.623047"/>
     <use xlink:href="#DejaVuSans-38" x="95.410156"/>
     <use xlink:href="#DejaVuSans-31" x="159.033203"/>
    </g>
   </g>
   <g id="text_25">
    <!-- 0.87 -->
    <g style="fill: #ffffff" transform="translate(348.797375 308.94375) scale(0.2 -0.2)">
     <use xlink:href="#DejaVuSans-30"/>
     <use xlink:href="#DejaVuSans-2e" x="63.623047"/>
     <use xlink:href="#DejaVuSans-38" x="95.410156"/>
     <use xlink:href="#DejaVuSans-37" x="159.033203"/>
    </g>
   </g>
   <g id="text_26">
    <!-- 0.90 -->
    <g style="fill: #ffffff" transform="translate(416.435375 308.94375) scale(0.2 -0.2)">
     <use xlink:href="#DejaVuSans-30"/>
     <use xlink:href="#DejaVuSans-2e" x="63.623047"/>
     <use xlink:href="#DejaVuSans-39" x="95.410156"/>
     <use xlink:href="#DejaVuSans-30" x="159.033203"/>
    </g>
   </g>
   <g id="text_27">
    <!-- 0.93 -->
    <g style="fill: #ffffff" transform="translate(416.435375 376.58175) scale(0.2 -0.2)">
     <use xlink:href="#DejaVuSans-30"/>
     <use xlink:href="#DejaVuSans-2e" x="63.623047"/>
     <use xlink:href="#DejaVuSans-39" x="95.410156"/>
     <use xlink:href="#DejaVuSans-33" x="159.033203"/>
    </g>
   </g>
   <g id="text_28">
    <!-- 0.01 -->
    <g style="fill: #262626" transform="translate(78.245375 173.66775) scale(0.2 -0.2)">
     <use xlink:href="#DejaVuSans-30"/>
     <use xlink:href="#DejaVuSans-2e" x="63.623047"/>
     <use xlink:href="#DejaVuSans-30" x="95.410156"/>
     <use xlink:href="#DejaVuSans-31" x="159.033203"/>
    </g>
   </g>
   <g id="text_29">
    <!-- 0.36 -->
    <g style="fill: #262626" transform="translate(78.245375 241.30575) scale(0.2 -0.2)">
     <defs>
      <path id="DejaVuSans-36" d="M 2113 2584 
Q 1688 2584 1439 2293 
Q 1191 2003 1191 1497 
Q 1191 994 1439 701 
Q 1688 409 2113 409 
Q 2538 409 2786 701 
Q 3034 994 3034 1497 
Q 3034 2003 2786 2293 
Q 2538 2584 2113 2584 
z
M 3366 4563 
L 3366 3988 
Q 3128 4100 2886 4159 
Q 2644 4219 2406 4219 
Q 1781 4219 1451 3797 
Q 1122 3375 1075 2522 
Q 1259 2794 1537 2939 
Q 1816 3084 2150 3084 
Q 2853 3084 3261 2657 
Q 3669 2231 3669 1497 
Q 3669 778 3244 343 
Q 2819 -91 2113 -91 
Q 1303 -91 875 529 
Q 447 1150 447 2328 
Q 447 3434 972 4092 
Q 1497 4750 2381 4750 
Q 2619 4750 2861 4703 
Q 3103 4656 3366 4563 
z
" transform="scale(0.015625)"/>
     </defs>
     <use xlink:href="#DejaVuSans-30"/>
     <use xlink:href="#DejaVuSans-2e" x="63.623047"/>
     <use xlink:href="#DejaVuSans-33" x="95.410156"/>
     <use xlink:href="#DejaVuSans-36" x="159.033203"/>
    </g>
   </g>
   <g id="text_30">
    <!-- 0.34 -->
    <g style="fill: #262626" transform="translate(145.883375 241.30575) scale(0.2 -0.2)">
     <use xlink:href="#DejaVuSans-30"/>
     <use xlink:href="#DejaVuSans-2e" x="63.623047"/>
     <use xlink:href="#DejaVuSans-33" x="95.410156"/>
     <use xlink:href="#DejaVuSans-34" x="159.033203"/>
    </g>
   </g>
   <g id="text_31">
    <!-- 0.13 -->
    <g style="fill: #262626" transform="translate(78.245375 308.94375) scale(0.2 -0.2)">
     <use xlink:href="#DejaVuSans-30"/>
     <use xlink:href="#DejaVuSans-2e" x="63.623047"/>
     <use xlink:href="#DejaVuSans-31" x="95.410156"/>
     <use xlink:href="#DejaVuSans-33" x="159.033203"/>
    </g>
   </g>
   <g id="text_32">
    <!-- 0.34 -->
    <g style="fill: #262626" transform="translate(145.883375 308.94375) scale(0.2 -0.2)">
     <use xlink:href="#DejaVuSans-30"/>
     <use xlink:href="#DejaVuSans-2e" x="63.623047"/>
     <use xlink:href="#DejaVuSans-33" x="95.410156"/>
     <use xlink:href="#DejaVuSans-34" x="159.033203"/>
    </g>
   </g>
   <g id="text_33">
    <!-- 0.56 -->
    <g style="fill: #262626" transform="translate(213.521375 308.94375) scale(0.2 -0.2)">
     <use xlink:href="#DejaVuSans-30"/>
     <use xlink:href="#DejaVuSans-2e" x="63.623047"/>
     <use xlink:href="#DejaVuSans-35" x="95.410156"/>
     <use xlink:href="#DejaVuSans-36" x="159.033203"/>
    </g>
   </g>
   <g id="text_34">
    <!-- 0.10 -->
    <g style="fill: #262626" transform="translate(78.245375 376.58175) scale(0.2 -0.2)">
     <use xlink:href="#DejaVuSans-30"/>
     <use xlink:href="#DejaVuSans-2e" x="63.623047"/>
     <use xlink:href="#DejaVuSans-31" x="95.410156"/>
     <use xlink:href="#DejaVuSans-30" x="159.033203"/>
    </g>
   </g>
   <g id="text_35">
    <!-- 0.27 -->
    <g style="fill: #262626" transform="translate(145.883375 376.58175) scale(0.2 -0.2)">
     <use xlink:href="#DejaVuSans-30"/>
     <use xlink:href="#DejaVuSans-2e" x="63.623047"/>
     <use xlink:href="#DejaVuSans-32" x="95.410156"/>
     <use xlink:href="#DejaVuSans-37" x="159.033203"/>
    </g>
   </g>
   <g id="text_36">
    <!-- 0.29 -->
    <g style="fill: #262626" transform="translate(213.521375 376.58175) scale(0.2 -0.2)">
     <use xlink:href="#DejaVuSans-30"/>
     <use xlink:href="#DejaVuSans-2e" x="63.623047"/>
     <use xlink:href="#DejaVuSans-32" x="95.410156"/>
     <use xlink:href="#DejaVuSans-39" x="159.033203"/>
    </g>
   </g>
   <g id="text_37">
    <!-- 0.51 -->
    <g style="fill: #262626" transform="translate(281.159375 376.58175) scale(0.2 -0.2)">
     <use xlink:href="#DejaVuSans-30"/>
     <use xlink:href="#DejaVuSans-2e" x="63.623047"/>
     <use xlink:href="#DejaVuSans-35" x="95.410156"/>
     <use xlink:href="#DejaVuSans-31" x="159.033203"/>
    </g>
   </g>
   <g id="text_38">
    <!-- 0.16 -->
    <g style="fill: #262626" transform="translate(78.245375 444.21975) scale(0.2 -0.2)">
     <use xlink:href="#DejaVuSans-30"/>
     <use xlink:href="#DejaVuSans-2e" x="63.623047"/>
     <use xlink:href="#DejaVuSans-31" x="95.410156"/>
     <use xlink:href="#DejaVuSans-36" x="159.033203"/>
    </g>
   </g>
   <g id="text_39">
    <!-- 0.13 -->
    <g style="fill: #262626" transform="translate(145.883375 444.21975) scale(0.2 -0.2)">
     <use xlink:href="#DejaVuSans-30"/>
     <use xlink:href="#DejaVuSans-2e" x="63.623047"/>
     <use xlink:href="#DejaVuSans-31" x="95.410156"/>
     <use xlink:href="#DejaVuSans-33" x="159.033203"/>
    </g>
   </g>
   <g id="text_40">
    <!-- 0.71 -->
    <g style="fill: #262626" transform="translate(213.521375 444.21975) scale(0.2 -0.2)">
     <use xlink:href="#DejaVuSans-30"/>
     <use xlink:href="#DejaVuSans-2e" x="63.623047"/>
     <use xlink:href="#DejaVuSans-37" x="95.410156"/>
     <use xlink:href="#DejaVuSans-31" x="159.033203"/>
    </g>
   </g>
   <g id="text_41">
    <!-- 0.49 -->
    <g style="fill: #262626" transform="translate(281.159375 444.21975) scale(0.2 -0.2)">
     <use xlink:href="#DejaVuSans-30"/>
     <use xlink:href="#DejaVuSans-2e" x="63.623047"/>
     <use xlink:href="#DejaVuSans-34" x="95.410156"/>
     <use xlink:href="#DejaVuSans-39" x="159.033203"/>
    </g>
   </g>
   <g id="text_42">
    <!-- 0.40 -->
    <g style="fill: #262626" transform="translate(348.797375 444.21975) scale(0.2 -0.2)">
     <use xlink:href="#DejaVuSans-30"/>
     <use xlink:href="#DejaVuSans-2e" x="63.623047"/>
     <use xlink:href="#DejaVuSans-34" x="95.410156"/>
     <use xlink:href="#DejaVuSans-30" x="159.033203"/>
    </g>
   </g>
   <g id="text_43">
    <!-- 1 -->
    <g style="fill: #ffffff" transform="translate(94.1485 106.02975) scale(0.2 -0.2)">
     <use xlink:href="#DejaVuSans-31"/>
    </g>
   </g>
   <g id="text_44">
    <!-- 1 -->
    <g style="fill: #ffffff" transform="translate(161.7865 173.66775) scale(0.2 -0.2)">
     <use xlink:href="#DejaVuSans-31"/>
    </g>
   </g>
   <g id="text_45">
    <!-- 1 -->
    <g style="fill: #ffffff" transform="translate(229.4245 241.30575) scale(0.2 -0.2)">
     <use xlink:href="#DejaVuSans-31"/>
    </g>
   </g>
   <g id="text_46">
    <!-- 1 -->
    <g style="fill: #ffffff" transform="translate(297.0625 308.94375) scale(0.2 -0.2)">
     <use xlink:href="#DejaVuSans-31"/>
    </g>
   </g>
   <g id="text_47">
    <!-- 1 -->
    <g style="fill: #ffffff" transform="translate(364.7005 376.58175) scale(0.2 -0.2)">
     <use xlink:href="#DejaVuSans-31"/>
    </g>
   </g>
   <g id="text_48">
    <!-- 1 -->
    <g style="fill: #ffffff" transform="translate(432.3385 444.21975) scale(0.2 -0.2)">
     <use xlink:href="#DejaVuSans-31"/>
    </g>
   </g>
  </g>
 </g>
 <defs>
  <clipPath id="p517494dd3f">
   <rect x="10.8" y="66.692" width="45.092" height="405.828"/>
  </clipPath>
  <clipPath id="pfa9fbde78a">
   <rect x="66.692" y="10.8" width="405.828" height="45.092"/>
  </clipPath>
  <clipPath id="pf3e83d10ca">
   <rect x="66.692" y="66.692" width="405.828" height="405.828"/>
  </clipPath>
 </defs>
</svg>
