<?xml version="1.0" encoding="utf-8" standalone="no"?>
<!DOCTYPE svg PUBLIC "-//W3C//DTD SVG 1.1//EN"
  "http://www.w3.org/Graphics/SVG/1.1/DTD/svg11.dtd">
<svg xmlns:xlink="http://www.w3.org/1999/xlink" width="324pt" height="324pt" viewBox="0 0 324 324" xmlns="http://www.w3.org/2000/svg" version="1.1">
 <metadata>
  <rdf:RDF xmlns:dc="http://purl.org/dc/elements/1.1/" xmlns:cc="http://creativecommons.org/ns#" xmlns:rdf="http://www.w3.org/1999/02/22-rdf-syntax-ns#">
   <cc:Work>
    <dc:type rdf:resource="http://purl.org/dc/dcmitype/StillImage"/>
    <dc:date>2024-07-22T11:58:09.227233</dc:date>
    <dc:format>image/svg+xml</dc:format>
    <dc:creator>
     <cc:Agent>
      <dc:title>Matplotlib v3.6.2, https://matplotlib.org/</dc:title>
     </cc:Agent>
    </dc:creator>
   </cc:Work>
  </rdf:RDF>
 </metadata>
 <defs>
  <style type="text/css">*{stroke-linejoin: round; stroke-linecap: butt}</style>
 </defs>
 <g id="figure_1">
  <g id="patch_1">
   <path d="M 0 324 
L 324 324 
L 324 0 
L 0 0 
z
" style="fill: #ffffff"/>
  </g>
  <g id="axes_1">
   <g id="LineCollection_1">
    <path d="M 34.565 80.5975 
L 34.536318 80.5975 
L 34.536318 111.1525 
L 34.565 111.1525 
" clip-path="url(#pf7ac89a5e5)" style="fill: none; stroke: #333333; stroke-width: 0.5"/>
    <path d="M 34.565 50.0425 
L 34.476497 50.0425 
L 34.476497 95.875 
L 34.536318 95.875 
" clip-path="url(#pf7ac89a5e5)" style="fill: none; stroke: #333333; stroke-width: 0.5"/>
    <path d="M 34.565 141.7075 
L 34.533749 141.7075 
L 34.533749 172.2625 
L 34.565 172.2625 
" clip-path="url(#pf7ac89a5e5)" style="fill: none; stroke: #333333; stroke-width: 0.5"/>
    <path d="M 34.565 202.8175 
L 34.475896 202.8175 
L 34.475896 233.3725 
L 34.565 233.3725 
" clip-path="url(#pf7ac89a5e5)" style="fill: none; stroke: #333333; stroke-width: 0.5"/>
    <path d="M 34.533749 156.985 
L 34.445763 156.985 
L 34.445763 218.095 
L 34.475896 218.095 
" clip-path="url(#pf7ac89a5e5)" style="fill: none; stroke: #333333; stroke-width: 0.5"/>
    <path d="M 34.476497 72.95875 
L 11.931667 72.95875 
L 11.931667 187.54 
L 34.445763 187.54 
" clip-path="url(#pf7ac89a5e5)" style="fill: none; stroke: #333333; stroke-width: 0.5"/>
   </g>
  </g>
  <g id="axes_2">
   <g id="LineCollection_2">
    <path d="M 80.5975 34.565 
L 80.5975 34.536318 
L 111.1525 34.536318 
L 111.1525 34.565 
" clip-path="url(#p50ce7fe466)" style="fill: none; stroke: #333333; stroke-width: 0.5"/>
    <path d="M 50.0425 34.565 
L 50.0425 34.476497 
L 95.875 34.476497 
L 95.875 34.536318 
" clip-path="url(#p50ce7fe466)" style="fill: none; stroke: #333333; stroke-width: 0.5"/>
    <path d="M 141.7075 34.565 
L 141.7075 34.533749 
L 172.2625 34.533749 
L 172.2625 34.565 
" clip-path="url(#p50ce7fe466)" style="fill: none; stroke: #333333; stroke-width: 0.5"/>
    <path d="M 202.8175 34.565 
L 202.8175 34.475896 
L 233.3725 34.475896 
L 233.3725 34.565 
" clip-path="url(#p50ce7fe466)" style="fill: none; stroke: #333333; stroke-width: 0.5"/>
    <path d="M 156.985 34.533749 
L 156.985 34.445763 
L 218.095 34.445763 
L 218.095 34.475896 
" clip-path="url(#p50ce7fe466)" style="fill: none; stroke: #333333; stroke-width: 0.5"/>
    <path d="M 72.95875 34.476497 
L 72.95875 11.931667 
L 187.54 11.931667 
L 187.54 34.445763 
" clip-path="url(#p50ce7fe466)" style="fill: none; stroke: #333333; stroke-width: 0.5"/>
   </g>
  </g>
  <g id="axes_3">
   <g id="patch_2">
    <path d="M 34.765 248.65 
L 248.65 248.65 
L 248.65 34.765 
L 34.765 34.765 
z
" style="fill: #ffffff"/>
   </g>
   <g id="QuadMesh_1">
    <path d="M 34.765 34.765 
L 65.32 34.765 
L 65.32 65.32 
L 34.765 65.32 
L 34.765 34.765 
" clip-path="url(#pedd1d50764)" style="fill: #053061"/>
    <path d="M 65.32 34.765 
L 95.875 34.765 
L 95.875 65.32 
L 65.32 65.32 
L 65.32 34.765 
" clip-path="url(#pedd1d50764)" style="fill: #053061"/>
    <path d="M 95.875 34.765 
L 126.43 34.765 
L 126.43 65.32 
L 95.875 65.32 
L 95.875 34.765 
" clip-path="url(#pedd1d50764)" style="fill: #053061"/>
    <path d="M 126.43 34.765 
L 156.985 34.765 
L 156.985 65.32 
L 126.43 65.32 
L 126.43 34.765 
" clip-path="url(#pedd1d50764)" style="fill: #67001f"/>
    <path d="M 156.985 34.765 
L 187.54 34.765 
L 187.54 65.32 
L 156.985 65.32 
L 156.985 34.765 
" clip-path="url(#pedd1d50764)" style="fill: #67001f"/>
    <path d="M 187.54 34.765 
L 218.095 34.765 
L 218.095 65.32 
L 187.54 65.32 
L 187.54 34.765 
" clip-path="url(#pedd1d50764)" style="fill: #700320"/>
    <path d="M 218.095 34.765 
L 248.65 34.765 
L 248.65 65.32 
L 218.095 65.32 
L 218.095 34.765 
" clip-path="url(#pedd1d50764)" style="fill: #67001f"/>
    <path d="M 34.765 65.32 
L 65.32 65.32 
L 65.32 95.875 
L 34.765 95.875 
L 34.765 65.32 
" clip-path="url(#pedd1d50764)" style="fill: #053061"/>
    <path d="M 65.32 65.32 
L 95.875 65.32 
L 95.875 95.875 
L 65.32 95.875 
L 65.32 65.32 
" clip-path="url(#pedd1d50764)" style="fill: #053061"/>
    <path d="M 95.875 65.32 
L 126.43 65.32 
L 126.43 95.875 
L 95.875 95.875 
L 95.875 65.32 
" clip-path="url(#pedd1d50764)" style="fill: #053061"/>
    <path d="M 126.43 65.32 
L 156.985 65.32 
L 156.985 95.875 
L 126.43 95.875 
L 126.43 65.32 
" clip-path="url(#pedd1d50764)" style="fill: #67001f"/>
    <path d="M 156.985 65.32 
L 187.54 65.32 
L 187.54 95.875 
L 156.985 95.875 
L 156.985 65.32 
" clip-path="url(#pedd1d50764)" style="fill: #67001f"/>
    <path d="M 187.54 65.32 
L 218.095 65.32 
L 218.095 95.875 
L 187.54 95.875 
L 187.54 65.32 
" clip-path="url(#pedd1d50764)" style="fill: #6a011f"/>
    <path d="M 218.095 65.32 
L 248.65 65.32 
L 248.65 95.875 
L 218.095 95.875 
L 218.095 65.32 
" clip-path="url(#pedd1d50764)" style="fill: #67001f"/>
    <path d="M 34.765 95.875 
L 65.32 95.875 
L 65.32 126.43 
L 34.765 126.43 
L 34.765 95.875 
" clip-path="url(#pedd1d50764)" style="fill: #053061"/>
    <path d="M 65.32 95.875 
L 95.875 95.875 
L 95.875 126.43 
L 65.32 126.43 
L 65.32 95.875 
" clip-path="url(#pedd1d50764)" style="fill: #053061"/>
    <path d="M 95.875 95.875 
L 126.43 95.875 
L 126.43 126.43 
L 95.875 126.43 
L 95.875 95.875 
" clip-path="url(#pedd1d50764)" style="fill: #053061"/>
    <path d="M 126.43 95.875 
L 156.985 95.875 
L 156.985 126.43 
L 126.43 126.43 
L 126.43 95.875 
" clip-path="url(#pedd1d50764)" style="fill: #67001f"/>
    <path d="M 156.985 95.875 
L 187.54 95.875 
L 187.54 126.43 
L 156.985 126.43 
L 156.985 95.875 
" clip-path="url(#pedd1d50764)" style="fill: #67001f"/>
    <path d="M 187.54 95.875 
L 218.095 95.875 
L 218.095 126.43 
L 187.54 126.43 
L 187.54 95.875 
" clip-path="url(#pedd1d50764)" style="fill: #67001f"/>
    <path d="M 218.095 95.875 
L 248.65 95.875 
L 248.65 126.43 
L 218.095 126.43 
L 218.095 95.875 
" clip-path="url(#pedd1d50764)" style="fill: #67001f"/>
    <path d="M 34.765 126.43 
L 65.32 126.43 
L 65.32 156.985 
L 34.765 156.985 
L 34.765 126.43 
" clip-path="url(#pedd1d50764)" style="fill: #67001f"/>
    <path d="M 65.32 126.43 
L 95.875 126.43 
L 95.875 156.985 
L 65.32 156.985 
L 65.32 126.43 
" clip-path="url(#pedd1d50764)" style="fill: #67001f"/>
    <path d="M 95.875 126.43 
L 126.43 126.43 
L 126.43 156.985 
L 95.875 156.985 
L 95.875 126.43 
" clip-path="url(#pedd1d50764)" style="fill: #67001f"/>
    <path d="M 126.43 126.43 
L 156.985 126.43 
L 156.985 156.985 
L 126.43 156.985 
L 126.43 126.43 
" clip-path="url(#pedd1d50764)" style="fill: #053061"/>
    <path d="M 156.985 126.43 
L 187.54 126.43 
L 187.54 156.985 
L 156.985 156.985 
L 156.985 126.43 
" clip-path="url(#pedd1d50764)" style="fill: #053061"/>
    <path d="M 187.54 126.43 
L 218.095 126.43 
L 218.095 156.985 
L 187.54 156.985 
L 187.54 126.43 
" clip-path="url(#pedd1d50764)" style="fill: #063264"/>
    <path d="M 218.095 126.43 
L 248.65 126.43 
L 248.65 156.985 
L 218.095 156.985 
L 218.095 126.43 
" clip-path="url(#pedd1d50764)" style="fill: #073467"/>
    <path d="M 34.765 156.985 
L 65.32 156.985 
L 65.32 187.54 
L 34.765 187.54 
L 34.765 156.985 
" clip-path="url(#pedd1d50764)" style="fill: #67001f"/>
    <path d="M 65.32 156.985 
L 95.875 156.985 
L 95.875 187.54 
L 65.32 187.54 
L 65.32 156.985 
" clip-path="url(#pedd1d50764)" style="fill: #67001f"/>
    <path d="M 95.875 156.985 
L 126.43 156.985 
L 126.43 187.54 
L 95.875 187.54 
L 95.875 156.985 
" clip-path="url(#pedd1d50764)" style="fill: #67001f"/>
    <path d="M 126.43 156.985 
L 156.985 156.985 
L 156.985 187.54 
L 126.43 187.54 
L 126.43 156.985 
" clip-path="url(#pedd1d50764)" style="fill: #053061"/>
    <path d="M 156.985 156.985 
L 187.54 156.985 
L 187.54 187.54 
L 156.985 187.54 
L 156.985 156.985 
" clip-path="url(#pedd1d50764)" style="fill: #053061"/>
    <path d="M 187.54 156.985 
L 218.095 156.985 
L 218.095 187.54 
L 187.54 187.54 
L 187.54 156.985 
" clip-path="url(#pedd1d50764)" style="fill: #063264"/>
    <path d="M 218.095 156.985 
L 248.65 156.985 
L 248.65 187.54 
L 218.095 187.54 
L 218.095 156.985 
" clip-path="url(#pedd1d50764)" style="fill: #063264"/>
    <path d="M 34.765 187.54 
L 65.32 187.54 
L 65.32 218.095 
L 34.765 218.095 
L 34.765 187.54 
" clip-path="url(#pedd1d50764)" style="fill: #700320"/>
    <path d="M 65.32 187.54 
L 95.875 187.54 
L 95.875 218.095 
L 65.32 218.095 
L 65.32 187.54 
" clip-path="url(#pedd1d50764)" style="fill: #6a011f"/>
    <path d="M 95.875 187.54 
L 126.43 187.54 
L 126.43 218.095 
L 95.875 218.095 
L 95.875 187.54 
" clip-path="url(#pedd1d50764)" style="fill: #67001f"/>
    <path d="M 126.43 187.54 
L 156.985 187.54 
L 156.985 218.095 
L 126.43 218.095 
L 126.43 187.54 
" clip-path="url(#pedd1d50764)" style="fill: #063264"/>
    <path d="M 156.985 187.54 
L 187.54 187.54 
L 187.54 218.095 
L 156.985 218.095 
L 156.985 187.54 
" clip-path="url(#pedd1d50764)" style="fill: #063264"/>
    <path d="M 187.54 187.54 
L 218.095 187.54 
L 218.095 218.095 
L 187.54 218.095 
L 187.54 187.54 
" clip-path="url(#pedd1d50764)" style="fill: #053061"/>
    <path d="M 218.095 187.54 
L 248.65 187.54 
L 248.65 218.095 
L 218.095 218.095 
L 218.095 187.54 
" clip-path="url(#pedd1d50764)" style="fill: #053061"/>
    <path d="M 34.765 218.095 
L 65.32 218.095 
L 65.32 248.65 
L 34.765 248.65 
L 34.765 218.095 
" clip-path="url(#pedd1d50764)" style="fill: #67001f"/>
    <path d="M 65.32 218.095 
L 95.875 218.095 
L 95.875 248.65 
L 65.32 248.65 
L 65.32 218.095 
" clip-path="url(#pedd1d50764)" style="fill: #67001f"/>
    <path d="M 95.875 218.095 
L 126.43 218.095 
L 126.43 248.65 
L 95.875 248.65 
L 95.875 218.095 
" clip-path="url(#pedd1d50764)" style="fill: #67001f"/>
    <path d="M 126.43 218.095 
L 156.985 218.095 
L 156.985 248.65 
L 126.43 248.65 
L 126.43 218.095 
" clip-path="url(#pedd1d50764)" style="fill: #073467"/>
    <path d="M 156.985 218.095 
L 187.54 218.095 
L 187.54 248.65 
L 156.985 248.65 
L 156.985 218.095 
" clip-path="url(#pedd1d50764)" style="fill: #063264"/>
    <path d="M 187.54 218.095 
L 218.095 218.095 
L 218.095 248.65 
L 187.54 248.65 
L 187.54 218.095 
" clip-path="url(#pedd1d50764)" style="fill: #053061"/>
    <path d="M 218.095 218.095 
L 248.65 218.095 
L 248.65 248.65 
L 218.095 248.65 
L 218.095 218.095 
" clip-path="url(#pedd1d50764)" style="fill: #053061"/>
   </g>
   <g id="matplotlib.axis_1">
    <g id="xtick_1">
     <g id="line2d_1">
      <defs>
       <path id="m726b8a8f38" d="M 0 0 
L 0 3.5 
" style="stroke: #000000; stroke-width: 0.8"/>
      </defs>
      <g>
       <use xlink:href="#m726b8a8f38" x="50.0425" y="248.65" style="stroke: #000000; stroke-width: 0.8"/>
      </g>
     </g>
     <g id="text_1">
      <!-- RAB40C -->
      <g transform="translate(52.801875 295.607813) rotate(-90) scale(0.1 -0.1)">
       <defs>
        <path id="DejaVuSans-52" d="M 2841 2188 
Q 3044 2119 3236 1894 
Q 3428 1669 3622 1275 
L 4263 0 
L 3584 0 
L 2988 1197 
Q 2756 1666 2539 1819 
Q 2322 1972 1947 1972 
L 1259 1972 
L 1259 0 
L 628 0 
L 628 4666 
L 2053 4666 
Q 2853 4666 3247 4331 
Q 3641 3997 3641 3322 
Q 3641 2881 3436 2590 
Q 3231 2300 2841 2188 
z
M 1259 4147 
L 1259 2491 
L 2053 2491 
Q 2509 2491 2742 2702 
Q 2975 2913 2975 3322 
Q 2975 3731 2742 3939 
Q 2509 4147 2053 4147 
L 1259 4147 
z
" transform="scale(0.015625)"/>
        <path id="DejaVuSans-41" d="M 2188 4044 
L 1331 1722 
L 3047 1722 
L 2188 4044 
z
M 1831 4666 
L 2547 4666 
L 4325 0 
L 3669 0 
L 3244 1197 
L 1141 1197 
L 716 0 
L 50 0 
L 1831 4666 
z
" transform="scale(0.015625)"/>
        <path id="DejaVuSans-42" d="M 1259 2228 
L 1259 519 
L 2272 519 
Q 2781 519 3026 730 
Q 3272 941 3272 1375 
Q 3272 1813 3026 2020 
Q 2781 2228 2272 2228 
L 1259 2228 
z
M 1259 4147 
L 1259 2741 
L 2194 2741 
Q 2656 2741 2882 2914 
Q 3109 3088 3109 3444 
Q 3109 3797 2882 3972 
Q 2656 4147 2194 4147 
L 1259 4147 
z
M 628 4666 
L 2241 4666 
Q 2963 4666 3353 4366 
Q 3744 4066 3744 3513 
Q 3744 3084 3544 2831 
Q 3344 2578 2956 2516 
Q 3422 2416 3680 2098 
Q 3938 1781 3938 1306 
Q 3938 681 3513 340 
Q 3088 0 2303 0 
L 628 0 
L 628 4666 
z
" transform="scale(0.015625)"/>
        <path id="DejaVuSans-34" d="M 2419 4116 
L 825 1625 
L 2419 1625 
L 2419 4116 
z
M 2253 4666 
L 3047 4666 
L 3047 1625 
L 3713 1625 
L 3713 1100 
L 3047 1100 
L 3047 0 
L 2419 0 
L 2419 1100 
L 313 1100 
L 313 1709 
L 2253 4666 
z
" transform="scale(0.015625)"/>
        <path id="DejaVuSans-30" d="M 2034 4250 
Q 1547 4250 1301 3770 
Q 1056 3291 1056 2328 
Q 1056 1369 1301 889 
Q 1547 409 2034 409 
Q 2525 409 2770 889 
Q 3016 1369 3016 2328 
Q 3016 3291 2770 3770 
Q 2525 4250 2034 4250 
z
M 2034 4750 
Q 2819 4750 3233 4129 
Q 3647 3509 3647 2328 
Q 3647 1150 3233 529 
Q 2819 -91 2034 -91 
Q 1250 -91 836 529 
Q 422 1150 422 2328 
Q 422 3509 836 4129 
Q 1250 4750 2034 4750 
z
" transform="scale(0.015625)"/>
        <path id="DejaVuSans-43" d="M 4122 4306 
L 4122 3641 
Q 3803 3938 3442 4084 
Q 3081 4231 2675 4231 
Q 1875 4231 1450 3742 
Q 1025 3253 1025 2328 
Q 1025 1406 1450 917 
Q 1875 428 2675 428 
Q 3081 428 3442 575 
Q 3803 722 4122 1019 
L 4122 359 
Q 3791 134 3420 21 
Q 3050 -91 2638 -91 
Q 1578 -91 968 557 
Q 359 1206 359 2328 
Q 359 3453 968 4101 
Q 1578 4750 2638 4750 
Q 3056 4750 3426 4639 
Q 3797 4528 4122 4306 
z
" transform="scale(0.015625)"/>
       </defs>
       <use xlink:href="#DejaVuSans-52"/>
       <use xlink:href="#DejaVuSans-41" x="65.482422"/>
       <use xlink:href="#DejaVuSans-42" x="133.890625"/>
       <use xlink:href="#DejaVuSans-34" x="202.494141"/>
       <use xlink:href="#DejaVuSans-30" x="266.117188"/>
       <use xlink:href="#DejaVuSans-43" x="329.740234"/>
      </g>
     </g>
    </g>
    <g id="xtick_2">
     <g id="line2d_2">
      <g>
       <use xlink:href="#m726b8a8f38" x="80.5975" y="248.65" style="stroke: #000000; stroke-width: 0.8"/>
      </g>
     </g>
     <g id="text_2">
      <!-- NRBP1 -->
      <g transform="translate(83.356875 289.332812) rotate(-90) scale(0.1 -0.1)">
       <defs>
        <path id="DejaVuSans-4e" d="M 628 4666 
L 1478 4666 
L 3547 763 
L 3547 4666 
L 4159 4666 
L 4159 0 
L 3309 0 
L 1241 3903 
L 1241 0 
L 628 0 
L 628 4666 
z
" transform="scale(0.015625)"/>
        <path id="DejaVuSans-50" d="M 1259 4147 
L 1259 2394 
L 2053 2394 
Q 2494 2394 2734 2622 
Q 2975 2850 2975 3272 
Q 2975 3691 2734 3919 
Q 2494 4147 2053 4147 
L 1259 4147 
z
M 628 4666 
L 2053 4666 
Q 2838 4666 3239 4311 
Q 3641 3956 3641 3272 
Q 3641 2581 3239 2228 
Q 2838 1875 2053 1875 
L 1259 1875 
L 1259 0 
L 628 0 
L 628 4666 
z
" transform="scale(0.015625)"/>
        <path id="DejaVuSans-31" d="M 794 531 
L 1825 531 
L 1825 4091 
L 703 3866 
L 703 4441 
L 1819 4666 
L 2450 4666 
L 2450 531 
L 3481 531 
L 3481 0 
L 794 0 
L 794 531 
z
" transform="scale(0.015625)"/>
       </defs>
       <use xlink:href="#DejaVuSans-4e"/>
       <use xlink:href="#DejaVuSans-52" x="74.804688"/>
       <use xlink:href="#DejaVuSans-42" x="144.287109"/>
       <use xlink:href="#DejaVuSans-50" x="212.890625"/>
       <use xlink:href="#DejaVuSans-31" x="273.193359"/>
      </g>
     </g>
    </g>
    <g id="xtick_3">
     <g id="line2d_3">
      <g>
       <use xlink:href="#m726b8a8f38" x="111.1525" y="248.65" style="stroke: #000000; stroke-width: 0.8"/>
      </g>
     </g>
     <g id="text_3">
      <!-- RAB40B -->
      <g transform="translate(113.911875 295.485937) rotate(-90) scale(0.1 -0.1)">
       <use xlink:href="#DejaVuSans-52"/>
       <use xlink:href="#DejaVuSans-41" x="65.482422"/>
       <use xlink:href="#DejaVuSans-42" x="133.890625"/>
       <use xlink:href="#DejaVuSans-34" x="202.494141"/>
       <use xlink:href="#DejaVuSans-30" x="266.117188"/>
       <use xlink:href="#DejaVuSans-42" x="329.740234"/>
      </g>
     </g>
    </g>
    <g id="xtick_4">
     <g id="line2d_4">
      <g>
       <use xlink:href="#m726b8a8f38" x="141.7075" y="248.65" style="stroke: #000000; stroke-width: 0.8"/>
      </g>
     </g>
     <g id="text_4">
      <!-- INSYN1 -->
      <g transform="translate(144.466875 292.38125) rotate(-90) scale(0.1 -0.1)">
       <defs>
        <path id="DejaVuSans-49" d="M 628 4666 
L 1259 4666 
L 1259 0 
L 628 0 
L 628 4666 
z
" transform="scale(0.015625)"/>
        <path id="DejaVuSans-53" d="M 3425 4513 
L 3425 3897 
Q 3066 4069 2747 4153 
Q 2428 4238 2131 4238 
Q 1616 4238 1336 4038 
Q 1056 3838 1056 3469 
Q 1056 3159 1242 3001 
Q 1428 2844 1947 2747 
L 2328 2669 
Q 3034 2534 3370 2195 
Q 3706 1856 3706 1288 
Q 3706 609 3251 259 
Q 2797 -91 1919 -91 
Q 1588 -91 1214 -16 
Q 841 59 441 206 
L 441 856 
Q 825 641 1194 531 
Q 1563 422 1919 422 
Q 2459 422 2753 634 
Q 3047 847 3047 1241 
Q 3047 1584 2836 1778 
Q 2625 1972 2144 2069 
L 1759 2144 
Q 1053 2284 737 2584 
Q 422 2884 422 3419 
Q 422 4038 858 4394 
Q 1294 4750 2059 4750 
Q 2388 4750 2728 4690 
Q 3069 4631 3425 4513 
z
" transform="scale(0.015625)"/>
        <path id="DejaVuSans-59" d="M -13 4666 
L 666 4666 
L 1959 2747 
L 3244 4666 
L 3922 4666 
L 2272 2222 
L 2272 0 
L 1638 0 
L 1638 2222 
L -13 4666 
z
" transform="scale(0.015625)"/>
       </defs>
       <use xlink:href="#DejaVuSans-49"/>
       <use xlink:href="#DejaVuSans-4e" x="29.492188"/>
       <use xlink:href="#DejaVuSans-53" x="104.296875"/>
       <use xlink:href="#DejaVuSans-59" x="167.773438"/>
       <use xlink:href="#DejaVuSans-4e" x="228.857422"/>
       <use xlink:href="#DejaVuSans-31" x="303.662109"/>
      </g>
     </g>
    </g>
    <g id="xtick_5">
     <g id="line2d_5">
      <g>
       <use xlink:href="#m726b8a8f38" x="172.2625" y="248.65" style="stroke: #000000; stroke-width: 0.8"/>
      </g>
     </g>
     <g id="text_5">
      <!-- ZFP36L1 -->
      <g transform="translate(175.021875 298.940625) rotate(-90) scale(0.1 -0.1)">
       <defs>
        <path id="DejaVuSans-5a" d="M 359 4666 
L 4025 4666 
L 4025 4184 
L 1075 531 
L 4097 531 
L 4097 0 
L 288 0 
L 288 481 
L 3238 4134 
L 359 4134 
L 359 4666 
z
" transform="scale(0.015625)"/>
        <path id="DejaVuSans-46" d="M 628 4666 
L 3309 4666 
L 3309 4134 
L 1259 4134 
L 1259 2759 
L 3109 2759 
L 3109 2228 
L 1259 2228 
L 1259 0 
L 628 0 
L 628 4666 
z
" transform="scale(0.015625)"/>
        <path id="DejaVuSans-33" d="M 2597 2516 
Q 3050 2419 3304 2112 
Q 3559 1806 3559 1356 
Q 3559 666 3084 287 
Q 2609 -91 1734 -91 
Q 1441 -91 1130 -33 
Q 819 25 488 141 
L 488 750 
Q 750 597 1062 519 
Q 1375 441 1716 441 
Q 2309 441 2620 675 
Q 2931 909 2931 1356 
Q 2931 1769 2642 2001 
Q 2353 2234 1838 2234 
L 1294 2234 
L 1294 2753 
L 1863 2753 
Q 2328 2753 2575 2939 
Q 2822 3125 2822 3475 
Q 2822 3834 2567 4026 
Q 2313 4219 1838 4219 
Q 1578 4219 1281 4162 
Q 984 4106 628 3988 
L 628 4550 
Q 988 4650 1302 4700 
Q 1616 4750 1894 4750 
Q 2613 4750 3031 4423 
Q 3450 4097 3450 3541 
Q 3450 3153 3228 2886 
Q 3006 2619 2597 2516 
z
" transform="scale(0.015625)"/>
        <path id="DejaVuSans-36" d="M 2113 2584 
Q 1688 2584 1439 2293 
Q 1191 2003 1191 1497 
Q 1191 994 1439 701 
Q 1688 409 2113 409 
Q 2538 409 2786 701 
Q 3034 994 3034 1497 
Q 3034 2003 2786 2293 
Q 2538 2584 2113 2584 
z
M 3366 4563 
L 3366 3988 
Q 3128 4100 2886 4159 
Q 2644 4219 2406 4219 
Q 1781 4219 1451 3797 
Q 1122 3375 1075 2522 
Q 1259 2794 1537 2939 
Q 1816 3084 2150 3084 
Q 2853 3084 3261 2657 
Q 3669 2231 3669 1497 
Q 3669 778 3244 343 
Q 2819 -91 2113 -91 
Q 1303 -91 875 529 
Q 447 1150 447 2328 
Q 447 3434 972 4092 
Q 1497 4750 2381 4750 
Q 2619 4750 2861 4703 
Q 3103 4656 3366 4563 
z
" transform="scale(0.015625)"/>
        <path id="DejaVuSans-4c" d="M 628 4666 
L 1259 4666 
L 1259 531 
L 3531 531 
L 3531 0 
L 628 0 
L 628 4666 
z
" transform="scale(0.015625)"/>
       </defs>
       <use xlink:href="#DejaVuSans-5a"/>
       <use xlink:href="#DejaVuSans-46" x="68.505859"/>
       <use xlink:href="#DejaVuSans-50" x="126.025391"/>
       <use xlink:href="#DejaVuSans-33" x="186.328125"/>
       <use xlink:href="#DejaVuSans-36" x="249.951172"/>
       <use xlink:href="#DejaVuSans-4c" x="313.574219"/>
       <use xlink:href="#DejaVuSans-31" x="369.287109"/>
      </g>
     </g>
    </g>
    <g id="xtick_6">
     <g id="line2d_6">
      <g>
       <use xlink:href="#m726b8a8f38" x="202.8175" y="248.65" style="stroke: #000000; stroke-width: 0.8"/>
      </g>
     </g>
     <g id="text_6">
      <!-- HOXC8 -->
      <g transform="translate(205.576875 289.875) rotate(-90) scale(0.1 -0.1)">
       <defs>
        <path id="DejaVuSans-48" d="M 628 4666 
L 1259 4666 
L 1259 2753 
L 3553 2753 
L 3553 4666 
L 4184 4666 
L 4184 0 
L 3553 0 
L 3553 2222 
L 1259 2222 
L 1259 0 
L 628 0 
L 628 4666 
z
" transform="scale(0.015625)"/>
        <path id="DejaVuSans-4f" d="M 2522 4238 
Q 1834 4238 1429 3725 
Q 1025 3213 1025 2328 
Q 1025 1447 1429 934 
Q 1834 422 2522 422 
Q 3209 422 3611 934 
Q 4013 1447 4013 2328 
Q 4013 3213 3611 3725 
Q 3209 4238 2522 4238 
z
M 2522 4750 
Q 3503 4750 4090 4092 
Q 4678 3434 4678 2328 
Q 4678 1225 4090 567 
Q 3503 -91 2522 -91 
Q 1538 -91 948 565 
Q 359 1222 359 2328 
Q 359 3434 948 4092 
Q 1538 4750 2522 4750 
z
" transform="scale(0.015625)"/>
        <path id="DejaVuSans-58" d="M 403 4666 
L 1081 4666 
L 2241 2931 
L 3406 4666 
L 4084 4666 
L 2584 2425 
L 4184 0 
L 3506 0 
L 2194 1984 
L 872 0 
L 191 0 
L 1856 2491 
L 403 4666 
z
" transform="scale(0.015625)"/>
        <path id="DejaVuSans-38" d="M 2034 2216 
Q 1584 2216 1326 1975 
Q 1069 1734 1069 1313 
Q 1069 891 1326 650 
Q 1584 409 2034 409 
Q 2484 409 2743 651 
Q 3003 894 3003 1313 
Q 3003 1734 2745 1975 
Q 2488 2216 2034 2216 
z
M 1403 2484 
Q 997 2584 770 2862 
Q 544 3141 544 3541 
Q 544 4100 942 4425 
Q 1341 4750 2034 4750 
Q 2731 4750 3128 4425 
Q 3525 4100 3525 3541 
Q 3525 3141 3298 2862 
Q 3072 2584 2669 2484 
Q 3125 2378 3379 2068 
Q 3634 1759 3634 1313 
Q 3634 634 3220 271 
Q 2806 -91 2034 -91 
Q 1263 -91 848 271 
Q 434 634 434 1313 
Q 434 1759 690 2068 
Q 947 2378 1403 2484 
z
M 1172 3481 
Q 1172 3119 1398 2916 
Q 1625 2713 2034 2713 
Q 2441 2713 2670 2916 
Q 2900 3119 2900 3481 
Q 2900 3844 2670 4047 
Q 2441 4250 2034 4250 
Q 1625 4250 1398 4047 
Q 1172 3844 1172 3481 
z
" transform="scale(0.015625)"/>
       </defs>
       <use xlink:href="#DejaVuSans-48"/>
       <use xlink:href="#DejaVuSans-4f" x="75.195312"/>
       <use xlink:href="#DejaVuSans-58" x="147.53125"/>
       <use xlink:href="#DejaVuSans-43" x="208.787109"/>
       <use xlink:href="#DejaVuSans-38" x="278.611328"/>
      </g>
     </g>
    </g>
    <g id="xtick_7">
     <g id="line2d_7">
      <g>
       <use xlink:href="#m726b8a8f38" x="233.3725" y="248.65" style="stroke: #000000; stroke-width: 0.8"/>
      </g>
     </g>
     <g id="text_7">
      <!-- PIK3R3 -->
      <g transform="translate(236.131875 290.860937) rotate(-90) scale(0.1 -0.1)">
       <defs>
        <path id="DejaVuSans-4b" d="M 628 4666 
L 1259 4666 
L 1259 2694 
L 3353 4666 
L 4166 4666 
L 1850 2491 
L 4331 0 
L 3500 0 
L 1259 2247 
L 1259 0 
L 628 0 
L 628 4666 
z
" transform="scale(0.015625)"/>
       </defs>
       <use xlink:href="#DejaVuSans-50"/>
       <use xlink:href="#DejaVuSans-49" x="60.302734"/>
       <use xlink:href="#DejaVuSans-4b" x="89.794922"/>
       <use xlink:href="#DejaVuSans-33" x="155.371094"/>
       <use xlink:href="#DejaVuSans-52" x="218.994141"/>
       <use xlink:href="#DejaVuSans-33" x="288.476562"/>
      </g>
     </g>
    </g>
   </g>
   <g id="matplotlib.axis_2">
    <g id="ytick_1">
     <g id="line2d_8">
      <defs>
       <path id="mbf7c31ad5c" d="M 0 0 
L 3.5 0 
" style="stroke: #000000; stroke-width: 0.8"/>
      </defs>
      <g>
       <use xlink:href="#mbf7c31ad5c" x="248.65" y="50.0425" style="stroke: #000000; stroke-width: 0.8"/>
      </g>
     </g>
     <g id="text_8">
      <!-- RAB40C -->
      <g transform="translate(255.65 53.841719) scale(0.1 -0.1)">
       <use xlink:href="#DejaVuSans-52"/>
       <use xlink:href="#DejaVuSans-41" x="65.482422"/>
       <use xlink:href="#DejaVuSans-42" x="133.890625"/>
       <use xlink:href="#DejaVuSans-34" x="202.494141"/>
       <use xlink:href="#DejaVuSans-30" x="266.117188"/>
       <use xlink:href="#DejaVuSans-43" x="329.740234"/>
      </g>
     </g>
    </g>
    <g id="ytick_2">
     <g id="line2d_9">
      <g>
       <use xlink:href="#mbf7c31ad5c" x="248.65" y="80.5975" style="stroke: #000000; stroke-width: 0.8"/>
      </g>
     </g>
     <g id="text_9">
      <!-- NRBP1 -->
      <g transform="translate(255.65 84.396719) scale(0.1 -0.1)">
       <use xlink:href="#DejaVuSans-4e"/>
       <use xlink:href="#DejaVuSans-52" x="74.804688"/>
       <use xlink:href="#DejaVuSans-42" x="144.287109"/>
       <use xlink:href="#DejaVuSans-50" x="212.890625"/>
       <use xlink:href="#DejaVuSans-31" x="273.193359"/>
      </g>
     </g>
    </g>
    <g id="ytick_3">
     <g id="line2d_10">
      <g>
       <use xlink:href="#mbf7c31ad5c" x="248.65" y="111.1525" style="stroke: #000000; stroke-width: 0.8"/>
      </g>
     </g>
     <g id="text_10">
      <!-- RAB40B -->
      <g transform="translate(255.65 114.951719) scale(0.1 -0.1)">
       <use xlink:href="#DejaVuSans-52"/>
       <use xlink:href="#DejaVuSans-41" x="65.482422"/>
       <use xlink:href="#DejaVuSans-42" x="133.890625"/>
       <use xlink:href="#DejaVuSans-34" x="202.494141"/>
       <use xlink:href="#DejaVuSans-30" x="266.117188"/>
       <use xlink:href="#DejaVuSans-42" x="329.740234"/>
      </g>
     </g>
    </g>
    <g id="ytick_4">
     <g id="line2d_11">
      <g>
       <use xlink:href="#mbf7c31ad5c" x="248.65" y="141.7075" style="stroke: #000000; stroke-width: 0.8"/>
      </g>
     </g>
     <g id="text_11">
      <!-- INSYN1 -->
      <g transform="translate(255.65 145.506719) scale(0.1 -0.1)">
       <use xlink:href="#DejaVuSans-49"/>
       <use xlink:href="#DejaVuSans-4e" x="29.492188"/>
       <use xlink:href="#DejaVuSans-53" x="104.296875"/>
       <use xlink:href="#DejaVuSans-59" x="167.773438"/>
       <use xlink:href="#DejaVuSans-4e" x="228.857422"/>
       <use xlink:href="#DejaVuSans-31" x="303.662109"/>
      </g>
     </g>
    </g>
    <g id="ytick_5">
     <g id="line2d_12">
      <g>
       <use xlink:href="#mbf7c31ad5c" x="248.65" y="172.2625" style="stroke: #000000; stroke-width: 0.8"/>
      </g>
     </g>
     <g id="text_12">
      <!-- ZFP36L1 -->
      <g transform="translate(255.65 176.061719) scale(0.1 -0.1)">
       <use xlink:href="#DejaVuSans-5a"/>
       <use xlink:href="#DejaVuSans-46" x="68.505859"/>
       <use xlink:href="#DejaVuSans-50" x="126.025391"/>
       <use xlink:href="#DejaVuSans-33" x="186.328125"/>
       <use xlink:href="#DejaVuSans-36" x="249.951172"/>
       <use xlink:href="#DejaVuSans-4c" x="313.574219"/>
       <use xlink:href="#DejaVuSans-31" x="369.287109"/>
      </g>
     </g>
    </g>
    <g id="ytick_6">
     <g id="line2d_13">
      <g>
       <use xlink:href="#mbf7c31ad5c" x="248.65" y="202.8175" style="stroke: #000000; stroke-width: 0.8"/>
      </g>
     </g>
     <g id="text_13">
      <!-- HOXC8 -->
      <g transform="translate(255.65 206.616719) scale(0.1 -0.1)">
       <use xlink:href="#DejaVuSans-48"/>
       <use xlink:href="#DejaVuSans-4f" x="75.195312"/>
       <use xlink:href="#DejaVuSans-58" x="147.53125"/>
       <use xlink:href="#DejaVuSans-43" x="208.787109"/>
       <use xlink:href="#DejaVuSans-38" x="278.611328"/>
      </g>
     </g>
    </g>
    <g id="ytick_7">
     <g id="line2d_14">
      <g>
       <use xlink:href="#mbf7c31ad5c" x="248.65" y="233.3725" style="stroke: #000000; stroke-width: 0.8"/>
      </g>
     </g>
     <g id="text_14">
      <!-- PIK3R3 -->
      <g transform="translate(255.65 237.171719) scale(0.1 -0.1)">
       <use xlink:href="#DejaVuSans-50"/>
       <use xlink:href="#DejaVuSans-49" x="60.302734"/>
       <use xlink:href="#DejaVuSans-4b" x="89.794922"/>
       <use xlink:href="#DejaVuSans-33" x="155.371094"/>
       <use xlink:href="#DejaVuSans-52" x="218.994141"/>
       <use xlink:href="#DejaVuSans-33" x="288.476562"/>
      </g>
     </g>
    </g>
   </g>
   <g id="text_15">
    <!-- 1.0 -->
    <g style="fill: #ffffff" transform="translate(43.68125 52.25) scale(0.08 -0.08)">
     <defs>
      <path id="DejaVuSans-2e" d="M 684 794 
L 1344 794 
L 1344 0 
L 684 0 
L 684 794 
z
" transform="scale(0.015625)"/>
     </defs>
     <use xlink:href="#DejaVuSans-31"/>
     <use xlink:href="#DejaVuSans-2e" x="63.623047"/>
     <use xlink:href="#DejaVuSans-30" x="95.410156"/>
    </g>
   </g>
   <g id="text_16">
    <!-- 0.195 -->
    <g style="fill: #ffffff" transform="translate(69.14625 52.25) scale(0.08 -0.08)">
     <defs>
      <path id="DejaVuSans-39" d="M 703 97 
L 703 672 
Q 941 559 1184 500 
Q 1428 441 1663 441 
Q 2288 441 2617 861 
Q 2947 1281 2994 2138 
Q 2813 1869 2534 1725 
Q 2256 1581 1919 1581 
Q 1219 1581 811 2004 
Q 403 2428 403 3163 
Q 403 3881 828 4315 
Q 1253 4750 1959 4750 
Q 2769 4750 3195 4129 
Q 3622 3509 3622 2328 
Q 3622 1225 3098 567 
Q 2575 -91 1691 -91 
Q 1453 -91 1209 -44 
Q 966 3 703 97 
z
M 1959 2075 
Q 2384 2075 2632 2365 
Q 2881 2656 2881 3163 
Q 2881 3666 2632 3958 
Q 2384 4250 1959 4250 
Q 1534 4250 1286 3958 
Q 1038 3666 1038 3163 
Q 1038 2656 1286 2365 
Q 1534 2075 1959 2075 
z
" transform="scale(0.015625)"/>
      <path id="DejaVuSans-35" d="M 691 4666 
L 3169 4666 
L 3169 4134 
L 1269 4134 
L 1269 2991 
Q 1406 3038 1543 3061 
Q 1681 3084 1819 3084 
Q 2600 3084 3056 2656 
Q 3513 2228 3513 1497 
Q 3513 744 3044 326 
Q 2575 -91 1722 -91 
Q 1428 -91 1123 -41 
Q 819 9 494 109 
L 494 744 
Q 775 591 1075 516 
Q 1375 441 1709 441 
Q 2250 441 2565 725 
Q 2881 1009 2881 1497 
Q 2881 1984 2565 2268 
Q 2250 2553 1709 2553 
Q 1456 2553 1204 2497 
Q 953 2441 691 2322 
L 691 4666 
z
" transform="scale(0.015625)"/>
     </defs>
     <use xlink:href="#DejaVuSans-30"/>
     <use xlink:href="#DejaVuSans-2e" x="63.623047"/>
     <use xlink:href="#DejaVuSans-31" x="95.410156"/>
     <use xlink:href="#DejaVuSans-39" x="159.033203"/>
     <use xlink:href="#DejaVuSans-35" x="222.65625"/>
    </g>
   </g>
   <g id="text_17">
    <!-- 0.539 -->
    <g style="fill: #ffffff" transform="translate(99.70125 52.25) scale(0.08 -0.08)">
     <use xlink:href="#DejaVuSans-30"/>
     <use xlink:href="#DejaVuSans-2e" x="63.623047"/>
     <use xlink:href="#DejaVuSans-35" x="95.410156"/>
     <use xlink:href="#DejaVuSans-33" x="159.033203"/>
     <use xlink:href="#DejaVuSans-39" x="222.65625"/>
    </g>
   </g>
   <g id="text_18">
    <!-- 0.166 -->
    <g style="fill: #ffffff" transform="translate(130.25625 52.25) scale(0.08 -0.08)">
     <use xlink:href="#DejaVuSans-30"/>
     <use xlink:href="#DejaVuSans-2e" x="63.623047"/>
     <use xlink:href="#DejaVuSans-31" x="95.410156"/>
     <use xlink:href="#DejaVuSans-36" x="159.033203"/>
     <use xlink:href="#DejaVuSans-36" x="222.65625"/>
    </g>
   </g>
   <g id="text_19">
    <!-- 0.196 -->
    <g style="fill: #ffffff" transform="translate(160.81125 52.25) scale(0.08 -0.08)">
     <use xlink:href="#DejaVuSans-30"/>
     <use xlink:href="#DejaVuSans-2e" x="63.623047"/>
     <use xlink:href="#DejaVuSans-31" x="95.410156"/>
     <use xlink:href="#DejaVuSans-39" x="159.033203"/>
     <use xlink:href="#DejaVuSans-36" x="222.65625"/>
    </g>
   </g>
   <g id="text_20">
    <!-- 0.222 -->
    <g style="fill: #ffffff" transform="translate(191.36625 52.25) scale(0.08 -0.08)">
     <defs>
      <path id="DejaVuSans-32" d="M 1228 531 
L 3431 531 
L 3431 0 
L 469 0 
L 469 531 
Q 828 903 1448 1529 
Q 2069 2156 2228 2338 
Q 2531 2678 2651 2914 
Q 2772 3150 2772 3378 
Q 2772 3750 2511 3984 
Q 2250 4219 1831 4219 
Q 1534 4219 1204 4116 
Q 875 4013 500 3803 
L 500 4441 
Q 881 4594 1212 4672 
Q 1544 4750 1819 4750 
Q 2544 4750 2975 4387 
Q 3406 4025 3406 3419 
Q 3406 3131 3298 2873 
Q 3191 2616 2906 2266 
Q 2828 2175 2409 1742 
Q 1991 1309 1228 531 
z
" transform="scale(0.015625)"/>
     </defs>
     <use xlink:href="#DejaVuSans-30"/>
     <use xlink:href="#DejaVuSans-2e" x="63.623047"/>
     <use xlink:href="#DejaVuSans-32" x="95.410156"/>
     <use xlink:href="#DejaVuSans-32" x="159.033203"/>
     <use xlink:href="#DejaVuSans-32" x="222.65625"/>
    </g>
   </g>
   <g id="text_21">
    <!-- 0.342 -->
    <g style="fill: #ffffff" transform="translate(221.92125 52.25) scale(0.08 -0.08)">
     <use xlink:href="#DejaVuSans-30"/>
     <use xlink:href="#DejaVuSans-2e" x="63.623047"/>
     <use xlink:href="#DejaVuSans-33" x="95.410156"/>
     <use xlink:href="#DejaVuSans-34" x="159.033203"/>
     <use xlink:href="#DejaVuSans-32" x="222.65625"/>
    </g>
   </g>
   <g id="text_22">
    <!-- 0.195 -->
    <g style="fill: #ffffff" transform="translate(38.59125 82.805) scale(0.08 -0.08)">
     <use xlink:href="#DejaVuSans-30"/>
     <use xlink:href="#DejaVuSans-2e" x="63.623047"/>
     <use xlink:href="#DejaVuSans-31" x="95.410156"/>
     <use xlink:href="#DejaVuSans-39" x="159.033203"/>
     <use xlink:href="#DejaVuSans-35" x="222.65625"/>
    </g>
   </g>
   <g id="text_23">
    <!-- 1.0 -->
    <g style="fill: #ffffff" transform="translate(74.23625 82.805) scale(0.08 -0.08)">
     <use xlink:href="#DejaVuSans-31"/>
     <use xlink:href="#DejaVuSans-2e" x="63.623047"/>
     <use xlink:href="#DejaVuSans-30" x="95.410156"/>
    </g>
   </g>
   <g id="text_24">
    <!-- 0.167 -->
    <g style="fill: #ffffff" transform="translate(99.70125 82.805) scale(0.08 -0.08)">
     <defs>
      <path id="DejaVuSans-37" d="M 525 4666 
L 3525 4666 
L 3525 4397 
L 1831 0 
L 1172 0 
L 2766 4134 
L 525 4134 
L 525 4666 
z
" transform="scale(0.015625)"/>
     </defs>
     <use xlink:href="#DejaVuSans-30"/>
     <use xlink:href="#DejaVuSans-2e" x="63.623047"/>
     <use xlink:href="#DejaVuSans-31" x="95.410156"/>
     <use xlink:href="#DejaVuSans-36" x="159.033203"/>
     <use xlink:href="#DejaVuSans-37" x="222.65625"/>
    </g>
   </g>
   <g id="text_25">
    <!-- 0.208 -->
    <g style="fill: #ffffff" transform="translate(130.25625 82.805) scale(0.08 -0.08)">
     <use xlink:href="#DejaVuSans-30"/>
     <use xlink:href="#DejaVuSans-2e" x="63.623047"/>
     <use xlink:href="#DejaVuSans-32" x="95.410156"/>
     <use xlink:href="#DejaVuSans-30" x="159.033203"/>
     <use xlink:href="#DejaVuSans-38" x="222.65625"/>
    </g>
   </g>
   <g id="text_26">
    <!-- 0.172 -->
    <g style="fill: #ffffff" transform="translate(160.81125 82.805) scale(0.08 -0.08)">
     <use xlink:href="#DejaVuSans-30"/>
     <use xlink:href="#DejaVuSans-2e" x="63.623047"/>
     <use xlink:href="#DejaVuSans-31" x="95.410156"/>
     <use xlink:href="#DejaVuSans-37" x="159.033203"/>
     <use xlink:href="#DejaVuSans-32" x="222.65625"/>
    </g>
   </g>
   <g id="text_27">
    <!-- 0.492 -->
    <g style="fill: #ffffff" transform="translate(191.36625 82.805) scale(0.08 -0.08)">
     <use xlink:href="#DejaVuSans-30"/>
     <use xlink:href="#DejaVuSans-2e" x="63.623047"/>
     <use xlink:href="#DejaVuSans-34" x="95.410156"/>
     <use xlink:href="#DejaVuSans-39" x="159.033203"/>
     <use xlink:href="#DejaVuSans-32" x="222.65625"/>
    </g>
   </g>
   <g id="text_28">
    <!-- 0.357 -->
    <g style="fill: #ffffff" transform="translate(221.92125 82.805) scale(0.08 -0.08)">
     <use xlink:href="#DejaVuSans-30"/>
     <use xlink:href="#DejaVuSans-2e" x="63.623047"/>
     <use xlink:href="#DejaVuSans-33" x="95.410156"/>
     <use xlink:href="#DejaVuSans-35" x="159.033203"/>
     <use xlink:href="#DejaVuSans-37" x="222.65625"/>
    </g>
   </g>
   <g id="text_29">
    <!-- 0.539 -->
    <g style="fill: #ffffff" transform="translate(38.59125 113.36) scale(0.08 -0.08)">
     <use xlink:href="#DejaVuSans-30"/>
     <use xlink:href="#DejaVuSans-2e" x="63.623047"/>
     <use xlink:href="#DejaVuSans-35" x="95.410156"/>
     <use xlink:href="#DejaVuSans-33" x="159.033203"/>
     <use xlink:href="#DejaVuSans-39" x="222.65625"/>
    </g>
   </g>
   <g id="text_30">
    <!-- 0.167 -->
    <g style="fill: #ffffff" transform="translate(69.14625 113.36) scale(0.08 -0.08)">
     <use xlink:href="#DejaVuSans-30"/>
     <use xlink:href="#DejaVuSans-2e" x="63.623047"/>
     <use xlink:href="#DejaVuSans-31" x="95.410156"/>
     <use xlink:href="#DejaVuSans-36" x="159.033203"/>
     <use xlink:href="#DejaVuSans-37" x="222.65625"/>
    </g>
   </g>
   <g id="text_31">
    <!-- 1.0 -->
    <g style="fill: #ffffff" transform="translate(104.79125 113.36) scale(0.08 -0.08)">
     <use xlink:href="#DejaVuSans-31"/>
     <use xlink:href="#DejaVuSans-2e" x="63.623047"/>
     <use xlink:href="#DejaVuSans-30" x="95.410156"/>
    </g>
   </g>
   <g id="text_32">
    <!-- 0.161 -->
    <g style="fill: #ffffff" transform="translate(130.25625 113.36) scale(0.08 -0.08)">
     <use xlink:href="#DejaVuSans-30"/>
     <use xlink:href="#DejaVuSans-2e" x="63.623047"/>
     <use xlink:href="#DejaVuSans-31" x="95.410156"/>
     <use xlink:href="#DejaVuSans-36" x="159.033203"/>
     <use xlink:href="#DejaVuSans-31" x="222.65625"/>
    </g>
   </g>
   <g id="text_33">
    <!-- 0.116 -->
    <g style="fill: #ffffff" transform="translate(160.81125 113.36) scale(0.08 -0.08)">
     <use xlink:href="#DejaVuSans-30"/>
     <use xlink:href="#DejaVuSans-2e" x="63.623047"/>
     <use xlink:href="#DejaVuSans-31" x="95.410156"/>
     <use xlink:href="#DejaVuSans-31" x="159.033203"/>
     <use xlink:href="#DejaVuSans-36" x="222.65625"/>
    </g>
   </g>
   <g id="text_34">
    <!-- 0.165 -->
    <g style="fill: #ffffff" transform="translate(191.36625 113.36) scale(0.08 -0.08)">
     <use xlink:href="#DejaVuSans-30"/>
     <use xlink:href="#DejaVuSans-2e" x="63.623047"/>
     <use xlink:href="#DejaVuSans-31" x="95.410156"/>
     <use xlink:href="#DejaVuSans-36" x="159.033203"/>
     <use xlink:href="#DejaVuSans-35" x="222.65625"/>
    </g>
   </g>
   <g id="text_35">
    <!-- 0.295 -->
    <g style="fill: #ffffff" transform="translate(221.92125 113.36) scale(0.08 -0.08)">
     <use xlink:href="#DejaVuSans-30"/>
     <use xlink:href="#DejaVuSans-2e" x="63.623047"/>
     <use xlink:href="#DejaVuSans-32" x="95.410156"/>
     <use xlink:href="#DejaVuSans-39" x="159.033203"/>
     <use xlink:href="#DejaVuSans-35" x="222.65625"/>
    </g>
   </g>
   <g id="text_36">
    <!-- 0.166 -->
    <g style="fill: #ffffff" transform="translate(38.59125 143.915) scale(0.08 -0.08)">
     <use xlink:href="#DejaVuSans-30"/>
     <use xlink:href="#DejaVuSans-2e" x="63.623047"/>
     <use xlink:href="#DejaVuSans-31" x="95.410156"/>
     <use xlink:href="#DejaVuSans-36" x="159.033203"/>
     <use xlink:href="#DejaVuSans-36" x="222.65625"/>
    </g>
   </g>
   <g id="text_37">
    <!-- 0.208 -->
    <g style="fill: #ffffff" transform="translate(69.14625 143.915) scale(0.08 -0.08)">
     <use xlink:href="#DejaVuSans-30"/>
     <use xlink:href="#DejaVuSans-2e" x="63.623047"/>
     <use xlink:href="#DejaVuSans-32" x="95.410156"/>
     <use xlink:href="#DejaVuSans-30" x="159.033203"/>
     <use xlink:href="#DejaVuSans-38" x="222.65625"/>
    </g>
   </g>
   <g id="text_38">
    <!-- 0.161 -->
    <g style="fill: #ffffff" transform="translate(99.70125 143.915) scale(0.08 -0.08)">
     <use xlink:href="#DejaVuSans-30"/>
     <use xlink:href="#DejaVuSans-2e" x="63.623047"/>
     <use xlink:href="#DejaVuSans-31" x="95.410156"/>
     <use xlink:href="#DejaVuSans-36" x="159.033203"/>
     <use xlink:href="#DejaVuSans-31" x="222.65625"/>
    </g>
   </g>
   <g id="text_39">
    <!-- 1.0 -->
    <g style="fill: #ffffff" transform="translate(135.34625 143.915) scale(0.08 -0.08)">
     <use xlink:href="#DejaVuSans-31"/>
     <use xlink:href="#DejaVuSans-2e" x="63.623047"/>
     <use xlink:href="#DejaVuSans-30" x="95.410156"/>
    </g>
   </g>
   <g id="text_40">
    <!-- 0.144 -->
    <g style="fill: #ffffff" transform="translate(160.81125 143.915) scale(0.08 -0.08)">
     <use xlink:href="#DejaVuSans-30"/>
     <use xlink:href="#DejaVuSans-2e" x="63.623047"/>
     <use xlink:href="#DejaVuSans-31" x="95.410156"/>
     <use xlink:href="#DejaVuSans-34" x="159.033203"/>
     <use xlink:href="#DejaVuSans-34" x="222.65625"/>
    </g>
   </g>
   <g id="text_41">
    <!-- 0.27 -->
    <g style="fill: #ffffff" transform="translate(193.91125 143.915) scale(0.08 -0.08)">
     <use xlink:href="#DejaVuSans-30"/>
     <use xlink:href="#DejaVuSans-2e" x="63.623047"/>
     <use xlink:href="#DejaVuSans-32" x="95.410156"/>
     <use xlink:href="#DejaVuSans-37" x="159.033203"/>
    </g>
   </g>
   <g id="text_42">
    <!-- 0.166 -->
    <g style="fill: #ffffff" transform="translate(221.92125 143.915) scale(0.08 -0.08)">
     <use xlink:href="#DejaVuSans-30"/>
     <use xlink:href="#DejaVuSans-2e" x="63.623047"/>
     <use xlink:href="#DejaVuSans-31" x="95.410156"/>
     <use xlink:href="#DejaVuSans-36" x="159.033203"/>
     <use xlink:href="#DejaVuSans-36" x="222.65625"/>
    </g>
   </g>
   <g id="text_43">
    <!-- 0.196 -->
    <g style="fill: #ffffff" transform="translate(38.59125 174.47) scale(0.08 -0.08)">
     <use xlink:href="#DejaVuSans-30"/>
     <use xlink:href="#DejaVuSans-2e" x="63.623047"/>
     <use xlink:href="#DejaVuSans-31" x="95.410156"/>
     <use xlink:href="#DejaVuSans-39" x="159.033203"/>
     <use xlink:href="#DejaVuSans-36" x="222.65625"/>
    </g>
   </g>
   <g id="text_44">
    <!-- 0.172 -->
    <g style="fill: #ffffff" transform="translate(69.14625 174.47) scale(0.08 -0.08)">
     <use xlink:href="#DejaVuSans-30"/>
     <use xlink:href="#DejaVuSans-2e" x="63.623047"/>
     <use xlink:href="#DejaVuSans-31" x="95.410156"/>
     <use xlink:href="#DejaVuSans-37" x="159.033203"/>
     <use xlink:href="#DejaVuSans-32" x="222.65625"/>
    </g>
   </g>
   <g id="text_45">
    <!-- 0.116 -->
    <g style="fill: #ffffff" transform="translate(99.70125 174.47) scale(0.08 -0.08)">
     <use xlink:href="#DejaVuSans-30"/>
     <use xlink:href="#DejaVuSans-2e" x="63.623047"/>
     <use xlink:href="#DejaVuSans-31" x="95.410156"/>
     <use xlink:href="#DejaVuSans-31" x="159.033203"/>
     <use xlink:href="#DejaVuSans-36" x="222.65625"/>
    </g>
   </g>
   <g id="text_46">
    <!-- 0.144 -->
    <g style="fill: #ffffff" transform="translate(130.25625 174.47) scale(0.08 -0.08)">
     <use xlink:href="#DejaVuSans-30"/>
     <use xlink:href="#DejaVuSans-2e" x="63.623047"/>
     <use xlink:href="#DejaVuSans-31" x="95.410156"/>
     <use xlink:href="#DejaVuSans-34" x="159.033203"/>
     <use xlink:href="#DejaVuSans-34" x="222.65625"/>
    </g>
   </g>
   <g id="text_47">
    <!-- 1.0 -->
    <g style="fill: #ffffff" transform="translate(165.90125 174.47) scale(0.08 -0.08)">
     <use xlink:href="#DejaVuSans-31"/>
     <use xlink:href="#DejaVuSans-2e" x="63.623047"/>
     <use xlink:href="#DejaVuSans-30" x="95.410156"/>
    </g>
   </g>
   <g id="text_48">
    <!-- 0.349 -->
    <g style="fill: #ffffff" transform="translate(191.36625 174.47) scale(0.08 -0.08)">
     <use xlink:href="#DejaVuSans-30"/>
     <use xlink:href="#DejaVuSans-2e" x="63.623047"/>
     <use xlink:href="#DejaVuSans-33" x="95.410156"/>
     <use xlink:href="#DejaVuSans-34" x="159.033203"/>
     <use xlink:href="#DejaVuSans-39" x="222.65625"/>
    </g>
   </g>
   <g id="text_49">
    <!-- 0.278 -->
    <g style="fill: #ffffff" transform="translate(221.92125 174.47) scale(0.08 -0.08)">
     <use xlink:href="#DejaVuSans-30"/>
     <use xlink:href="#DejaVuSans-2e" x="63.623047"/>
     <use xlink:href="#DejaVuSans-32" x="95.410156"/>
     <use xlink:href="#DejaVuSans-37" x="159.033203"/>
     <use xlink:href="#DejaVuSans-38" x="222.65625"/>
    </g>
   </g>
   <g id="text_50">
    <!-- 0.222 -->
    <g style="fill: #ffffff" transform="translate(38.59125 205.025) scale(0.08 -0.08)">
     <use xlink:href="#DejaVuSans-30"/>
     <use xlink:href="#DejaVuSans-2e" x="63.623047"/>
     <use xlink:href="#DejaVuSans-32" x="95.410156"/>
     <use xlink:href="#DejaVuSans-32" x="159.033203"/>
     <use xlink:href="#DejaVuSans-32" x="222.65625"/>
    </g>
   </g>
   <g id="text_51">
    <!-- 0.492 -->
    <g style="fill: #ffffff" transform="translate(69.14625 205.025) scale(0.08 -0.08)">
     <use xlink:href="#DejaVuSans-30"/>
     <use xlink:href="#DejaVuSans-2e" x="63.623047"/>
     <use xlink:href="#DejaVuSans-34" x="95.410156"/>
     <use xlink:href="#DejaVuSans-39" x="159.033203"/>
     <use xlink:href="#DejaVuSans-32" x="222.65625"/>
    </g>
   </g>
   <g id="text_52">
    <!-- 0.165 -->
    <g style="fill: #ffffff" transform="translate(99.70125 205.025) scale(0.08 -0.08)">
     <use xlink:href="#DejaVuSans-30"/>
     <use xlink:href="#DejaVuSans-2e" x="63.623047"/>
     <use xlink:href="#DejaVuSans-31" x="95.410156"/>
     <use xlink:href="#DejaVuSans-36" x="159.033203"/>
     <use xlink:href="#DejaVuSans-35" x="222.65625"/>
    </g>
   </g>
   <g id="text_53">
    <!-- 0.27 -->
    <g style="fill: #ffffff" transform="translate(132.80125 205.025) scale(0.08 -0.08)">
     <use xlink:href="#DejaVuSans-30"/>
     <use xlink:href="#DejaVuSans-2e" x="63.623047"/>
     <use xlink:href="#DejaVuSans-32" x="95.410156"/>
     <use xlink:href="#DejaVuSans-37" x="159.033203"/>
    </g>
   </g>
   <g id="text_54">
    <!-- 0.349 -->
    <g style="fill: #ffffff" transform="translate(160.81125 205.025) scale(0.08 -0.08)">
     <use xlink:href="#DejaVuSans-30"/>
     <use xlink:href="#DejaVuSans-2e" x="63.623047"/>
     <use xlink:href="#DejaVuSans-33" x="95.410156"/>
     <use xlink:href="#DejaVuSans-34" x="159.033203"/>
     <use xlink:href="#DejaVuSans-39" x="222.65625"/>
    </g>
   </g>
   <g id="text_55">
    <!-- 1.0 -->
    <g style="fill: #ffffff" transform="translate(196.45625 205.025) scale(0.08 -0.08)">
     <use xlink:href="#DejaVuSans-31"/>
     <use xlink:href="#DejaVuSans-2e" x="63.623047"/>
     <use xlink:href="#DejaVuSans-30" x="95.410156"/>
    </g>
   </g>
   <g id="text_56">
    <!-- 0.303 -->
    <g style="fill: #ffffff" transform="translate(221.92125 205.025) scale(0.08 -0.08)">
     <use xlink:href="#DejaVuSans-30"/>
     <use xlink:href="#DejaVuSans-2e" x="63.623047"/>
     <use xlink:href="#DejaVuSans-33" x="95.410156"/>
     <use xlink:href="#DejaVuSans-30" x="159.033203"/>
     <use xlink:href="#DejaVuSans-33" x="222.65625"/>
    </g>
   </g>
   <g id="text_57">
    <!-- 0.342 -->
    <g style="fill: #ffffff" transform="translate(38.59125 235.58) scale(0.08 -0.08)">
     <use xlink:href="#DejaVuSans-30"/>
     <use xlink:href="#DejaVuSans-2e" x="63.623047"/>
     <use xlink:href="#DejaVuSans-33" x="95.410156"/>
     <use xlink:href="#DejaVuSans-34" x="159.033203"/>
     <use xlink:href="#DejaVuSans-32" x="222.65625"/>
    </g>
   </g>
   <g id="text_58">
    <!-- 0.357 -->
    <g style="fill: #ffffff" transform="translate(69.14625 235.58) scale(0.08 -0.08)">
     <use xlink:href="#DejaVuSans-30"/>
     <use xlink:href="#DejaVuSans-2e" x="63.623047"/>
     <use xlink:href="#DejaVuSans-33" x="95.410156"/>
     <use xlink:href="#DejaVuSans-35" x="159.033203"/>
     <use xlink:href="#DejaVuSans-37" x="222.65625"/>
    </g>
   </g>
   <g id="text_59">
    <!-- 0.295 -->
    <g style="fill: #ffffff" transform="translate(99.70125 235.58) scale(0.08 -0.08)">
     <use xlink:href="#DejaVuSans-30"/>
     <use xlink:href="#DejaVuSans-2e" x="63.623047"/>
     <use xlink:href="#DejaVuSans-32" x="95.410156"/>
     <use xlink:href="#DejaVuSans-39" x="159.033203"/>
     <use xlink:href="#DejaVuSans-35" x="222.65625"/>
    </g>
   </g>
   <g id="text_60">
    <!-- 0.166 -->
    <g style="fill: #ffffff" transform="translate(130.25625 235.58) scale(0.08 -0.08)">
     <use xlink:href="#DejaVuSans-30"/>
     <use xlink:href="#DejaVuSans-2e" x="63.623047"/>
     <use xlink:href="#DejaVuSans-31" x="95.410156"/>
     <use xlink:href="#DejaVuSans-36" x="159.033203"/>
     <use xlink:href="#DejaVuSans-36" x="222.65625"/>
    </g>
   </g>
   <g id="text_61">
    <!-- 0.278 -->
    <g style="fill: #ffffff" transform="translate(160.81125 235.58) scale(0.08 -0.08)">
     <use xlink:href="#DejaVuSans-30"/>
     <use xlink:href="#DejaVuSans-2e" x="63.623047"/>
     <use xlink:href="#DejaVuSans-32" x="95.410156"/>
     <use xlink:href="#DejaVuSans-37" x="159.033203"/>
     <use xlink:href="#DejaVuSans-38" x="222.65625"/>
    </g>
   </g>
   <g id="text_62">
    <!-- 0.303 -->
    <g style="fill: #ffffff" transform="translate(191.36625 235.58) scale(0.08 -0.08)">
     <use xlink:href="#DejaVuSans-30"/>
     <use xlink:href="#DejaVuSans-2e" x="63.623047"/>
     <use xlink:href="#DejaVuSans-33" x="95.410156"/>
     <use xlink:href="#DejaVuSans-30" x="159.033203"/>
     <use xlink:href="#DejaVuSans-33" x="222.65625"/>
    </g>
   </g>
   <g id="text_63">
    <!-- 1.0 -->
    <g style="fill: #ffffff" transform="translate(227.01125 235.58) scale(0.08 -0.08)">
     <use xlink:href="#DejaVuSans-31"/>
     <use xlink:href="#DejaVuSans-2e" x="63.623047"/>
     <use xlink:href="#DejaVuSans-30" x="95.410156"/>
    </g>
   </g>
  </g>
 </g>
 <defs>
  <clipPath id="pf7ac89a5e5">
   <rect x="10.8" y="34.765" width="23.765" height="213.885"/>
  </clipPath>
  <clipPath id="p50ce7fe466">
   <rect x="34.765" y="10.8" width="213.885" height="23.765"/>
  </clipPath>
  <clipPath id="pedd1d50764">
   <rect x="34.765" y="34.765" width="213.885" height="213.885"/>
  </clipPath>
 </defs>
</svg>
