<?xml version="1.0" encoding="utf-8" standalone="no"?>
<!DOCTYPE svg PUBLIC "-//W3C//DTD SVG 1.1//EN"
  "http://www.w3.org/Graphics/SVG/1.1/DTD/svg11.dtd">
<svg xmlns:xlink="http://www.w3.org/1999/xlink" width="324pt" height="324pt" viewBox="0 0 324 324" xmlns="http://www.w3.org/2000/svg" version="1.1">
 <metadata>
  <rdf:RDF xmlns:dc="http://purl.org/dc/elements/1.1/" xmlns:cc="http://creativecommons.org/ns#" xmlns:rdf="http://www.w3.org/1999/02/22-rdf-syntax-ns#">
   <cc:Work>
    <dc:type rdf:resource="http://purl.org/dc/dcmitype/StillImage"/>
    <dc:date>2024-07-09T15:17:26.646133</dc:date>
    <dc:format>image/svg+xml</dc:format>
    <dc:creator>
     <cc:Agent>
      <dc:title>Matplotlib v3.6.2, https://matplotlib.org/</dc:title>
     </cc:Agent>
    </dc:creator>
   </cc:Work>
  </rdf:RDF>
 </metadata>
 <defs>
  <style type="text/css">*{stroke-linejoin: round; stroke-linecap: butt}</style>
 </defs>
 <g id="figure_1">
  <g id="patch_1">
   <path d="M 0 324 
L 324 324 
L 324 0 
L 0 0 
z
" style="fill: #ffffff"/>
  </g>
  <g id="axes_1">
   <g id="LineCollection_1">
    <path d="M 35.199 82.454214 
L 27.461508 82.454214 
L 27.461508 113.824357 
L 35.199 113.824357 
" clip-path="url(#p6c94e717b4)" style="fill: none; stroke: #333333; stroke-width: 0.5"/>
    <path d="M 35.199 51.084071 
L 27.34657 51.084071 
L 27.34657 98.139286 
L 27.461508 98.139286 
" clip-path="url(#p6c94e717b4)" style="fill: none; stroke: #333333; stroke-width: 0.5"/>
    <path d="M 35.199 145.1945 
L 27.93745 145.1945 
L 27.93745 176.564643 
L 35.199 176.564643 
" clip-path="url(#p6c94e717b4)" style="fill: none; stroke: #333333; stroke-width: 0.5"/>
    <path d="M 35.199 207.934786 
L 27.54201 207.934786 
L 27.54201 239.304929 
L 35.199 239.304929 
" clip-path="url(#p6c94e717b4)" style="fill: none; stroke: #333333; stroke-width: 0.5"/>
    <path d="M 27.93745 160.879571 
L 27.101003 160.879571 
L 27.101003 223.619857 
L 27.54201 223.619857 
" clip-path="url(#p6c94e717b4)" style="fill: none; stroke: #333333; stroke-width: 0.5"/>
    <path d="M 27.34657 74.611679 
L 11.961857 74.611679 
L 11.961857 192.249714 
L 27.101003 192.249714 
" clip-path="url(#p6c94e717b4)" style="fill: none; stroke: #333333; stroke-width: 0.5"/>
   </g>
  </g>
  <g id="axes_2">
   <g id="LineCollection_2">
    <path d="M 82.454214 35.199 
L 82.454214 27.461508 
L 113.824357 27.461508 
L 113.824357 35.199 
" clip-path="url(#p81bfabfffe)" style="fill: none; stroke: #333333; stroke-width: 0.5"/>
    <path d="M 51.084071 35.199 
L 51.084071 27.34657 
L 98.139286 27.34657 
L 98.139286 27.461508 
" clip-path="url(#p81bfabfffe)" style="fill: none; stroke: #333333; stroke-width: 0.5"/>
    <path d="M 145.1945 35.199 
L 145.1945 27.93745 
L 176.564643 27.93745 
L 176.564643 35.199 
" clip-path="url(#p81bfabfffe)" style="fill: none; stroke: #333333; stroke-width: 0.5"/>
    <path d="M 207.934786 35.199 
L 207.934786 27.54201 
L 239.304929 27.54201 
L 239.304929 35.199 
" clip-path="url(#p81bfabfffe)" style="fill: none; stroke: #333333; stroke-width: 0.5"/>
    <path d="M 160.879571 27.93745 
L 160.879571 27.101003 
L 223.619857 27.101003 
L 223.619857 27.54201 
" clip-path="url(#p81bfabfffe)" style="fill: none; stroke: #333333; stroke-width: 0.5"/>
    <path d="M 74.611679 27.34657 
L 74.611679 11.961857 
L 192.249714 11.961857 
L 192.249714 27.101003 
" clip-path="url(#p81bfabfffe)" style="fill: none; stroke: #333333; stroke-width: 0.5"/>
   </g>
  </g>
  <g id="axes_3">
   <g id="patch_2">
    <path d="M 35.399 254.99 
L 254.99 254.99 
L 254.99 35.399 
L 35.399 35.399 
z
" style="fill: #ffffff"/>
   </g>
   <g id="QuadMesh_1">
    <path d="M 35.399 35.399 
L 66.769143 35.399 
L 66.769143 66.769143 
L 35.399 66.769143 
L 35.399 35.399 
" clip-path="url(#pa62300e890)" style="fill: #f6f7f7"/>
    <path d="M 66.769143 35.399 
L 98.139286 35.399 
L 98.139286 66.769143 
L 66.769143 66.769143 
L 66.769143 35.399 
" clip-path="url(#pa62300e890)" style="fill: #053061"/>
    <path d="M 98.139286 35.399 
L 129.509429 35.399 
L 129.509429 66.769143 
L 98.139286 66.769143 
L 98.139286 35.399 
" clip-path="url(#pa62300e890)" style="fill: #053061"/>
    <path d="M 129.509429 35.399 
L 160.879571 35.399 
L 160.879571 66.769143 
L 129.509429 66.769143 
L 129.509429 35.399 
" clip-path="url(#pa62300e890)" style="fill: #f8bfa4"/>
    <path d="M 160.879571 35.399 
L 192.249714 35.399 
L 192.249714 66.769143 
L 160.879571 66.769143 
L 160.879571 35.399 
" clip-path="url(#pa62300e890)" style="fill: #67001f"/>
    <path d="M 192.249714 35.399 
L 223.619857 35.399 
L 223.619857 66.769143 
L 192.249714 66.769143 
L 192.249714 35.399 
" clip-path="url(#pa62300e890)" style="fill: #67001f"/>
    <path d="M 223.619857 35.399 
L 254.99 35.399 
L 254.99 66.769143 
L 223.619857 66.769143 
L 223.619857 35.399 
" clip-path="url(#pa62300e890)" style="fill: #67001f"/>
    <path d="M 35.399 66.769143 
L 66.769143 66.769143 
L 66.769143 98.139286 
L 35.399 98.139286 
L 35.399 66.769143 
" clip-path="url(#pa62300e890)" style="fill: #053061"/>
    <path d="M 66.769143 66.769143 
L 98.139286 66.769143 
L 98.139286 98.139286 
L 66.769143 98.139286 
L 66.769143 66.769143 
" clip-path="url(#pa62300e890)" style="fill: #f6f7f7"/>
    <path d="M 98.139286 66.769143 
L 129.509429 66.769143 
L 129.509429 98.139286 
L 98.139286 98.139286 
L 98.139286 66.769143 
" clip-path="url(#pa62300e890)" style="fill: #053061"/>
    <path d="M 129.509429 66.769143 
L 160.879571 66.769143 
L 160.879571 98.139286 
L 129.509429 98.139286 
L 129.509429 66.769143 
" clip-path="url(#pa62300e890)" style="fill: #d25849"/>
    <path d="M 160.879571 66.769143 
L 192.249714 66.769143 
L 192.249714 98.139286 
L 160.879571 98.139286 
L 160.879571 66.769143 
" clip-path="url(#pa62300e890)" style="fill: #67001f"/>
    <path d="M 192.249714 66.769143 
L 223.619857 66.769143 
L 223.619857 98.139286 
L 192.249714 98.139286 
L 192.249714 66.769143 
" clip-path="url(#pa62300e890)" style="fill: #67001f"/>
    <path d="M 223.619857 66.769143 
L 254.99 66.769143 
L 254.99 98.139286 
L 223.619857 98.139286 
L 223.619857 66.769143 
" clip-path="url(#pa62300e890)" style="fill: #67001f"/>
    <path d="M 35.399 98.139286 
L 66.769143 98.139286 
L 66.769143 129.509429 
L 35.399 129.509429 
L 35.399 98.139286 
" clip-path="url(#pa62300e890)" style="fill: #053061"/>
    <path d="M 66.769143 98.139286 
L 98.139286 98.139286 
L 98.139286 129.509429 
L 66.769143 129.509429 
L 66.769143 98.139286 
" clip-path="url(#pa62300e890)" style="fill: #053061"/>
    <path d="M 98.139286 98.139286 
L 129.509429 98.139286 
L 129.509429 129.509429 
L 98.139286 129.509429 
L 98.139286 98.139286 
" clip-path="url(#pa62300e890)" style="fill: #f6f7f7"/>
    <path d="M 129.509429 98.139286 
L 160.879571 98.139286 
L 160.879571 129.509429 
L 129.509429 129.509429 
L 129.509429 98.139286 
" clip-path="url(#pa62300e890)" style="fill: #e37e64"/>
    <path d="M 160.879571 98.139286 
L 192.249714 98.139286 
L 192.249714 129.509429 
L 160.879571 129.509429 
L 160.879571 98.139286 
" clip-path="url(#pa62300e890)" style="fill: #67001f"/>
    <path d="M 192.249714 98.139286 
L 223.619857 98.139286 
L 223.619857 129.509429 
L 192.249714 129.509429 
L 192.249714 98.139286 
" clip-path="url(#pa62300e890)" style="fill: #67001f"/>
    <path d="M 223.619857 98.139286 
L 254.99 98.139286 
L 254.99 129.509429 
L 223.619857 129.509429 
L 223.619857 98.139286 
" clip-path="url(#pa62300e890)" style="fill: #67001f"/>
    <path d="M 35.399 129.509429 
L 66.769143 129.509429 
L 66.769143 160.879571 
L 35.399 160.879571 
L 35.399 129.509429 
" clip-path="url(#pa62300e890)" style="fill: #f8bfa4"/>
    <path d="M 66.769143 129.509429 
L 98.139286 129.509429 
L 98.139286 160.879571 
L 66.769143 160.879571 
L 66.769143 129.509429 
" clip-path="url(#pa62300e890)" style="fill: #d25849"/>
    <path d="M 98.139286 129.509429 
L 129.509429 129.509429 
L 129.509429 160.879571 
L 98.139286 160.879571 
L 98.139286 129.509429 
" clip-path="url(#pa62300e890)" style="fill: #e37e64"/>
    <path d="M 129.509429 129.509429 
L 160.879571 129.509429 
L 160.879571 160.879571 
L 129.509429 160.879571 
L 129.509429 129.509429 
" clip-path="url(#pa62300e890)" style="fill: #f6f7f7"/>
    <path d="M 160.879571 129.509429 
L 192.249714 129.509429 
L 192.249714 160.879571 
L 160.879571 160.879571 
L 160.879571 129.509429 
" clip-path="url(#pa62300e890)" style="fill: #3a87bd"/>
    <path d="M 192.249714 129.509429 
L 223.619857 129.509429 
L 223.619857 160.879571 
L 192.249714 160.879571 
L 192.249714 129.509429 
" clip-path="url(#pa62300e890)" style="fill: #175290"/>
    <path d="M 223.619857 129.509429 
L 254.99 129.509429 
L 254.99 160.879571 
L 223.619857 160.879571 
L 223.619857 129.509429 
" clip-path="url(#pa62300e890)" style="fill: #2369ad"/>
    <path d="M 35.399 160.879571 
L 66.769143 160.879571 
L 66.769143 192.249714 
L 35.399 192.249714 
L 35.399 160.879571 
" clip-path="url(#pa62300e890)" style="fill: #67001f"/>
    <path d="M 66.769143 160.879571 
L 98.139286 160.879571 
L 98.139286 192.249714 
L 66.769143 192.249714 
L 66.769143 160.879571 
" clip-path="url(#pa62300e890)" style="fill: #67001f"/>
    <path d="M 98.139286 160.879571 
L 129.509429 160.879571 
L 129.509429 192.249714 
L 98.139286 192.249714 
L 98.139286 160.879571 
" clip-path="url(#pa62300e890)" style="fill: #67001f"/>
    <path d="M 129.509429 160.879571 
L 160.879571 160.879571 
L 160.879571 192.249714 
L 129.509429 192.249714 
L 129.509429 160.879571 
" clip-path="url(#pa62300e890)" style="fill: #3a87bd"/>
    <path d="M 160.879571 160.879571 
L 192.249714 160.879571 
L 192.249714 192.249714 
L 160.879571 192.249714 
L 160.879571 160.879571 
" clip-path="url(#pa62300e890)" style="fill: #f6f7f7"/>
    <path d="M 192.249714 160.879571 
L 223.619857 160.879571 
L 223.619857 192.249714 
L 192.249714 192.249714 
L 192.249714 160.879571 
" clip-path="url(#pa62300e890)" style="fill: #053061"/>
    <path d="M 223.619857 160.879571 
L 254.99 160.879571 
L 254.99 192.249714 
L 223.619857 192.249714 
L 223.619857 160.879571 
" clip-path="url(#pa62300e890)" style="fill: #053061"/>
    <path d="M 35.399 192.249714 
L 66.769143 192.249714 
L 66.769143 223.619857 
L 35.399 223.619857 
L 35.399 192.249714 
" clip-path="url(#pa62300e890)" style="fill: #67001f"/>
    <path d="M 66.769143 192.249714 
L 98.139286 192.249714 
L 98.139286 223.619857 
L 66.769143 223.619857 
L 66.769143 192.249714 
" clip-path="url(#pa62300e890)" style="fill: #67001f"/>
    <path d="M 98.139286 192.249714 
L 129.509429 192.249714 
L 129.509429 223.619857 
L 98.139286 223.619857 
L 98.139286 192.249714 
" clip-path="url(#pa62300e890)" style="fill: #67001f"/>
    <path d="M 129.509429 192.249714 
L 160.879571 192.249714 
L 160.879571 223.619857 
L 129.509429 223.619857 
L 129.509429 192.249714 
" clip-path="url(#pa62300e890)" style="fill: #175290"/>
    <path d="M 160.879571 192.249714 
L 192.249714 192.249714 
L 192.249714 223.619857 
L 160.879571 223.619857 
L 160.879571 192.249714 
" clip-path="url(#pa62300e890)" style="fill: #053061"/>
    <path d="M 192.249714 192.249714 
L 223.619857 192.249714 
L 223.619857 223.619857 
L 192.249714 223.619857 
L 192.249714 192.249714 
" clip-path="url(#pa62300e890)" style="fill: #f6f7f7"/>
    <path d="M 223.619857 192.249714 
L 254.99 192.249714 
L 254.99 223.619857 
L 223.619857 223.619857 
L 223.619857 192.249714 
" clip-path="url(#pa62300e890)" style="fill: #063264"/>
    <path d="M 35.399 223.619857 
L 66.769143 223.619857 
L 66.769143 254.99 
L 35.399 254.99 
L 35.399 223.619857 
" clip-path="url(#pa62300e890)" style="fill: #67001f"/>
    <path d="M 66.769143 223.619857 
L 98.139286 223.619857 
L 98.139286 254.99 
L 66.769143 254.99 
L 66.769143 223.619857 
" clip-path="url(#pa62300e890)" style="fill: #67001f"/>
    <path d="M 98.139286 223.619857 
L 129.509429 223.619857 
L 129.509429 254.99 
L 98.139286 254.99 
L 98.139286 223.619857 
" clip-path="url(#pa62300e890)" style="fill: #67001f"/>
    <path d="M 129.509429 223.619857 
L 160.879571 223.619857 
L 160.879571 254.99 
L 129.509429 254.99 
L 129.509429 223.619857 
" clip-path="url(#pa62300e890)" style="fill: #2369ad"/>
    <path d="M 160.879571 223.619857 
L 192.249714 223.619857 
L 192.249714 254.99 
L 160.879571 254.99 
L 160.879571 223.619857 
" clip-path="url(#pa62300e890)" style="fill: #053061"/>
    <path d="M 192.249714 223.619857 
L 223.619857 223.619857 
L 223.619857 254.99 
L 192.249714 254.99 
L 192.249714 223.619857 
" clip-path="url(#pa62300e890)" style="fill: #063264"/>
    <path d="M 223.619857 223.619857 
L 254.99 223.619857 
L 254.99 254.99 
L 223.619857 254.99 
L 223.619857 223.619857 
" clip-path="url(#pa62300e890)" style="fill: #f6f7f7"/>
   </g>
   <g id="matplotlib.axis_1">
    <g id="xtick_1">
     <g id="line2d_1">
      <defs>
       <path id="m8b576e3c50" d="M 0 0 
L 0 3.5 
" style="stroke: #000000; stroke-width: 0.8"/>
      </defs>
      <g>
       <use xlink:href="#m8b576e3c50" x="51.084071" y="254.99" style="stroke: #000000; stroke-width: 0.8"/>
      </g>
     </g>
     <g id="text_1">
      <!-- PAFAH1B1 -->
      <g transform="translate(53.843446 313.00875) rotate(-90) scale(0.1 -0.1)">
       <defs>
        <path id="DejaVuSans-50" d="M 1259 4147 
L 1259 2394 
L 2053 2394 
Q 2494 2394 2734 2622 
Q 2975 2850 2975 3272 
Q 2975 3691 2734 3919 
Q 2494 4147 2053 4147 
L 1259 4147 
z
M 628 4666 
L 2053 4666 
Q 2838 4666 3239 4311 
Q 3641 3956 3641 3272 
Q 3641 2581 3239 2228 
Q 2838 1875 2053 1875 
L 1259 1875 
L 1259 0 
L 628 0 
L 628 4666 
z
" transform="scale(0.015625)"/>
        <path id="DejaVuSans-41" d="M 2188 4044 
L 1331 1722 
L 3047 1722 
L 2188 4044 
z
M 1831 4666 
L 2547 4666 
L 4325 0 
L 3669 0 
L 3244 1197 
L 1141 1197 
L 716 0 
L 50 0 
L 1831 4666 
z
" transform="scale(0.015625)"/>
        <path id="DejaVuSans-46" d="M 628 4666 
L 3309 4666 
L 3309 4134 
L 1259 4134 
L 1259 2759 
L 3109 2759 
L 3109 2228 
L 1259 2228 
L 1259 0 
L 628 0 
L 628 4666 
z
" transform="scale(0.015625)"/>
        <path id="DejaVuSans-48" d="M 628 4666 
L 1259 4666 
L 1259 2753 
L 3553 2753 
L 3553 4666 
L 4184 4666 
L 4184 0 
L 3553 0 
L 3553 2222 
L 1259 2222 
L 1259 0 
L 628 0 
L 628 4666 
z
" transform="scale(0.015625)"/>
        <path id="DejaVuSans-31" d="M 794 531 
L 1825 531 
L 1825 4091 
L 703 3866 
L 703 4441 
L 1819 4666 
L 2450 4666 
L 2450 531 
L 3481 531 
L 3481 0 
L 794 0 
L 794 531 
z
" transform="scale(0.015625)"/>
        <path id="DejaVuSans-42" d="M 1259 2228 
L 1259 519 
L 2272 519 
Q 2781 519 3026 730 
Q 3272 941 3272 1375 
Q 3272 1813 3026 2020 
Q 2781 2228 2272 2228 
L 1259 2228 
z
M 1259 4147 
L 1259 2741 
L 2194 2741 
Q 2656 2741 2882 2914 
Q 3109 3088 3109 3444 
Q 3109 3797 2882 3972 
Q 2656 4147 2194 4147 
L 1259 4147 
z
M 628 4666 
L 2241 4666 
Q 2963 4666 3353 4366 
Q 3744 4066 3744 3513 
Q 3744 3084 3544 2831 
Q 3344 2578 2956 2516 
Q 3422 2416 3680 2098 
Q 3938 1781 3938 1306 
Q 3938 681 3513 340 
Q 3088 0 2303 0 
L 628 0 
L 628 4666 
z
" transform="scale(0.015625)"/>
       </defs>
       <use xlink:href="#DejaVuSans-50"/>
       <use xlink:href="#DejaVuSans-41" x="53.927734"/>
       <use xlink:href="#DejaVuSans-46" x="122.335938"/>
       <use xlink:href="#DejaVuSans-41" x="170.730469"/>
       <use xlink:href="#DejaVuSans-48" x="239.138672"/>
       <use xlink:href="#DejaVuSans-31" x="314.333984"/>
       <use xlink:href="#DejaVuSans-42" x="377.957031"/>
       <use xlink:href="#DejaVuSans-31" x="446.560547"/>
      </g>
     </g>
    </g>
    <g id="xtick_2">
     <g id="line2d_2">
      <g>
       <use xlink:href="#m8b576e3c50" x="82.454214" y="254.99" style="stroke: #000000; stroke-width: 0.8"/>
      </g>
     </g>
     <g id="text_2">
      <!-- NDE1 -->
      <g transform="translate(85.213589 289.8525) rotate(-90) scale(0.1 -0.1)">
       <defs>
        <path id="DejaVuSans-4e" d="M 628 4666 
L 1478 4666 
L 3547 763 
L 3547 4666 
L 4159 4666 
L 4159 0 
L 3309 0 
L 1241 3903 
L 1241 0 
L 628 0 
L 628 4666 
z
" transform="scale(0.015625)"/>
        <path id="DejaVuSans-44" d="M 1259 4147 
L 1259 519 
L 2022 519 
Q 2988 519 3436 956 
Q 3884 1394 3884 2338 
Q 3884 3275 3436 3711 
Q 2988 4147 2022 4147 
L 1259 4147 
z
M 628 4666 
L 1925 4666 
Q 3281 4666 3915 4102 
Q 4550 3538 4550 2338 
Q 4550 1131 3912 565 
Q 3275 0 1925 0 
L 628 0 
L 628 4666 
z
" transform="scale(0.015625)"/>
        <path id="DejaVuSans-45" d="M 628 4666 
L 3578 4666 
L 3578 4134 
L 1259 4134 
L 1259 2753 
L 3481 2753 
L 3481 2222 
L 1259 2222 
L 1259 531 
L 3634 531 
L 3634 0 
L 628 0 
L 628 4666 
z
" transform="scale(0.015625)"/>
       </defs>
       <use xlink:href="#DejaVuSans-4e"/>
       <use xlink:href="#DejaVuSans-44" x="74.804688"/>
       <use xlink:href="#DejaVuSans-45" x="151.806641"/>
       <use xlink:href="#DejaVuSans-31" x="214.990234"/>
      </g>
     </g>
    </g>
    <g id="xtick_3">
     <g id="line2d_3">
      <g>
       <use xlink:href="#m8b576e3c50" x="113.824357" y="254.99" style="stroke: #000000; stroke-width: 0.8"/>
      </g>
     </g>
     <g id="text_3">
      <!-- NDEL1 -->
      <g transform="translate(116.583732 295.424375) rotate(-90) scale(0.1 -0.1)">
       <defs>
        <path id="DejaVuSans-4c" d="M 628 4666 
L 1259 4666 
L 1259 531 
L 3531 531 
L 3531 0 
L 628 0 
L 628 4666 
z
" transform="scale(0.015625)"/>
       </defs>
       <use xlink:href="#DejaVuSans-4e"/>
       <use xlink:href="#DejaVuSans-44" x="74.804688"/>
       <use xlink:href="#DejaVuSans-45" x="151.806641"/>
       <use xlink:href="#DejaVuSans-4c" x="214.990234"/>
       <use xlink:href="#DejaVuSans-31" x="270.703125"/>
      </g>
     </g>
    </g>
    <g id="xtick_4">
     <g id="line2d_4">
      <g>
       <use xlink:href="#m8b576e3c50" x="145.1945" y="254.99" style="stroke: #000000; stroke-width: 0.8"/>
      </g>
     </g>
     <g id="text_4">
      <!-- BICD2 -->
      <g transform="translate(147.953875 292.84625) rotate(-90) scale(0.1 -0.1)">
       <defs>
        <path id="DejaVuSans-49" d="M 628 4666 
L 1259 4666 
L 1259 0 
L 628 0 
L 628 4666 
z
" transform="scale(0.015625)"/>
        <path id="DejaVuSans-43" d="M 4122 4306 
L 4122 3641 
Q 3803 3938 3442 4084 
Q 3081 4231 2675 4231 
Q 1875 4231 1450 3742 
Q 1025 3253 1025 2328 
Q 1025 1406 1450 917 
Q 1875 428 2675 428 
Q 3081 428 3442 575 
Q 3803 722 4122 1019 
L 4122 359 
Q 3791 134 3420 21 
Q 3050 -91 2638 -91 
Q 1578 -91 968 557 
Q 359 1206 359 2328 
Q 359 3453 968 4101 
Q 1578 4750 2638 4750 
Q 3056 4750 3426 4639 
Q 3797 4528 4122 4306 
z
" transform="scale(0.015625)"/>
        <path id="DejaVuSans-32" d="M 1228 531 
L 3431 531 
L 3431 0 
L 469 0 
L 469 531 
Q 828 903 1448 1529 
Q 2069 2156 2228 2338 
Q 2531 2678 2651 2914 
Q 2772 3150 2772 3378 
Q 2772 3750 2511 3984 
Q 2250 4219 1831 4219 
Q 1534 4219 1204 4116 
Q 875 4013 500 3803 
L 500 4441 
Q 881 4594 1212 4672 
Q 1544 4750 1819 4750 
Q 2544 4750 2975 4387 
Q 3406 4025 3406 3419 
Q 3406 3131 3298 2873 
Q 3191 2616 2906 2266 
Q 2828 2175 2409 1742 
Q 1991 1309 1228 531 
z
" transform="scale(0.015625)"/>
       </defs>
       <use xlink:href="#DejaVuSans-42"/>
       <use xlink:href="#DejaVuSans-49" x="68.603516"/>
       <use xlink:href="#DejaVuSans-43" x="98.095703"/>
       <use xlink:href="#DejaVuSans-44" x="167.919922"/>
       <use xlink:href="#DejaVuSans-32" x="244.921875"/>
      </g>
     </g>
    </g>
    <g id="xtick_5">
     <g id="line2d_5">
      <g>
       <use xlink:href="#m8b576e3c50" x="176.564643" y="254.99" style="stroke: #000000; stroke-width: 0.8"/>
      </g>
     </g>
     <g id="text_5">
      <!-- HOOK1 -->
      <g transform="translate(179.324018 298.174375) rotate(-90) scale(0.1 -0.1)">
       <defs>
        <path id="DejaVuSans-4f" d="M 2522 4238 
Q 1834 4238 1429 3725 
Q 1025 3213 1025 2328 
Q 1025 1447 1429 934 
Q 1834 422 2522 422 
Q 3209 422 3611 934 
Q 4013 1447 4013 2328 
Q 4013 3213 3611 3725 
Q 3209 4238 2522 4238 
z
M 2522 4750 
Q 3503 4750 4090 4092 
Q 4678 3434 4678 2328 
Q 4678 1225 4090 567 
Q 3503 -91 2522 -91 
Q 1538 -91 948 565 
Q 359 1222 359 2328 
Q 359 3434 948 4092 
Q 1538 4750 2522 4750 
z
" transform="scale(0.015625)"/>
        <path id="DejaVuSans-4b" d="M 628 4666 
L 1259 4666 
L 1259 2694 
L 3353 4666 
L 4166 4666 
L 1850 2491 
L 4331 0 
L 3500 0 
L 1259 2247 
L 1259 0 
L 628 0 
L 628 4666 
z
" transform="scale(0.015625)"/>
       </defs>
       <use xlink:href="#DejaVuSans-48"/>
       <use xlink:href="#DejaVuSans-4f" x="75.195312"/>
       <use xlink:href="#DejaVuSans-4f" x="153.90625"/>
       <use xlink:href="#DejaVuSans-4b" x="232.617188"/>
       <use xlink:href="#DejaVuSans-31" x="298.193359"/>
      </g>
     </g>
    </g>
    <g id="xtick_6">
     <g id="line2d_6">
      <g>
       <use xlink:href="#m8b576e3c50" x="207.934786" y="254.99" style="stroke: #000000; stroke-width: 0.8"/>
      </g>
     </g>
     <g id="text_6">
      <!-- HOOK2 -->
      <g transform="translate(210.694161 298.174375) rotate(-90) scale(0.1 -0.1)">
       <use xlink:href="#DejaVuSans-48"/>
       <use xlink:href="#DejaVuSans-4f" x="75.195312"/>
       <use xlink:href="#DejaVuSans-4f" x="153.90625"/>
       <use xlink:href="#DejaVuSans-4b" x="232.617188"/>
       <use xlink:href="#DejaVuSans-32" x="298.193359"/>
      </g>
     </g>
    </g>
    <g id="xtick_7">
     <g id="line2d_7">
      <g>
       <use xlink:href="#m8b576e3c50" x="239.304929" y="254.99" style="stroke: #000000; stroke-width: 0.8"/>
      </g>
     </g>
     <g id="text_7">
      <!-- SPDL1 -->
      <g transform="translate(242.064304 294.0025) rotate(-90) scale(0.1 -0.1)">
       <defs>
        <path id="DejaVuSans-53" d="M 3425 4513 
L 3425 3897 
Q 3066 4069 2747 4153 
Q 2428 4238 2131 4238 
Q 1616 4238 1336 4038 
Q 1056 3838 1056 3469 
Q 1056 3159 1242 3001 
Q 1428 2844 1947 2747 
L 2328 2669 
Q 3034 2534 3370 2195 
Q 3706 1856 3706 1288 
Q 3706 609 3251 259 
Q 2797 -91 1919 -91 
Q 1588 -91 1214 -16 
Q 841 59 441 206 
L 441 856 
Q 825 641 1194 531 
Q 1563 422 1919 422 
Q 2459 422 2753 634 
Q 3047 847 3047 1241 
Q 3047 1584 2836 1778 
Q 2625 1972 2144 2069 
L 1759 2144 
Q 1053 2284 737 2584 
Q 422 2884 422 3419 
Q 422 4038 858 4394 
Q 1294 4750 2059 4750 
Q 2388 4750 2728 4690 
Q 3069 4631 3425 4513 
z
" transform="scale(0.015625)"/>
       </defs>
       <use xlink:href="#DejaVuSans-53"/>
       <use xlink:href="#DejaVuSans-50" x="63.476562"/>
       <use xlink:href="#DejaVuSans-44" x="123.779297"/>
       <use xlink:href="#DejaVuSans-4c" x="200.78125"/>
       <use xlink:href="#DejaVuSans-31" x="256.494141"/>
      </g>
     </g>
    </g>
   </g>
   <g id="matplotlib.axis_2">
    <g id="ytick_1">
     <g id="line2d_8">
      <defs>
       <path id="m7751872dfb" d="M 0 0 
L 3.5 0 
" style="stroke: #000000; stroke-width: 0.8"/>
      </defs>
      <g>
       <use xlink:href="#m7751872dfb" x="254.99" y="51.084071" style="stroke: #000000; stroke-width: 0.8"/>
      </g>
     </g>
     <g id="text_8">
      <!-- PAFAH1B1 -->
      <g transform="translate(261.99 54.88329) scale(0.1 -0.1)">
       <use xlink:href="#DejaVuSans-50"/>
       <use xlink:href="#DejaVuSans-41" x="53.927734"/>
       <use xlink:href="#DejaVuSans-46" x="122.335938"/>
       <use xlink:href="#DejaVuSans-41" x="170.730469"/>
       <use xlink:href="#DejaVuSans-48" x="239.138672"/>
       <use xlink:href="#DejaVuSans-31" x="314.333984"/>
       <use xlink:href="#DejaVuSans-42" x="377.957031"/>
       <use xlink:href="#DejaVuSans-31" x="446.560547"/>
      </g>
     </g>
    </g>
    <g id="ytick_2">
     <g id="line2d_9">
      <g>
       <use xlink:href="#m7751872dfb" x="254.99" y="82.454214" style="stroke: #000000; stroke-width: 0.8"/>
      </g>
     </g>
     <g id="text_9">
      <!-- NDE1 -->
      <g transform="translate(261.99 86.253433) scale(0.1 -0.1)">
       <use xlink:href="#DejaVuSans-4e"/>
       <use xlink:href="#DejaVuSans-44" x="74.804688"/>
       <use xlink:href="#DejaVuSans-45" x="151.806641"/>
       <use xlink:href="#DejaVuSans-31" x="214.990234"/>
      </g>
     </g>
    </g>
    <g id="ytick_3">
     <g id="line2d_10">
      <g>
       <use xlink:href="#m7751872dfb" x="254.99" y="113.824357" style="stroke: #000000; stroke-width: 0.8"/>
      </g>
     </g>
     <g id="text_10">
      <!-- NDEL1 -->
      <g transform="translate(261.99 117.623576) scale(0.1 -0.1)">
       <use xlink:href="#DejaVuSans-4e"/>
       <use xlink:href="#DejaVuSans-44" x="74.804688"/>
       <use xlink:href="#DejaVuSans-45" x="151.806641"/>
       <use xlink:href="#DejaVuSans-4c" x="214.990234"/>
       <use xlink:href="#DejaVuSans-31" x="270.703125"/>
      </g>
     </g>
    </g>
    <g id="ytick_4">
     <g id="line2d_11">
      <g>
       <use xlink:href="#m7751872dfb" x="254.99" y="145.1945" style="stroke: #000000; stroke-width: 0.8"/>
      </g>
     </g>
     <g id="text_11">
      <!-- BICD2 -->
      <g transform="translate(261.99 148.993719) scale(0.1 -0.1)">
       <use xlink:href="#DejaVuSans-42"/>
       <use xlink:href="#DejaVuSans-49" x="68.603516"/>
       <use xlink:href="#DejaVuSans-43" x="98.095703"/>
       <use xlink:href="#DejaVuSans-44" x="167.919922"/>
       <use xlink:href="#DejaVuSans-32" x="244.921875"/>
      </g>
     </g>
    </g>
    <g id="ytick_5">
     <g id="line2d_12">
      <g>
       <use xlink:href="#m7751872dfb" x="254.99" y="176.564643" style="stroke: #000000; stroke-width: 0.8"/>
      </g>
     </g>
     <g id="text_12">
      <!-- HOOK1 -->
      <g transform="translate(261.99 180.363862) scale(0.1 -0.1)">
       <use xlink:href="#DejaVuSans-48"/>
       <use xlink:href="#DejaVuSans-4f" x="75.195312"/>
       <use xlink:href="#DejaVuSans-4f" x="153.90625"/>
       <use xlink:href="#DejaVuSans-4b" x="232.617188"/>
       <use xlink:href="#DejaVuSans-31" x="298.193359"/>
      </g>
     </g>
    </g>
    <g id="ytick_6">
     <g id="line2d_13">
      <g>
       <use xlink:href="#m7751872dfb" x="254.99" y="207.934786" style="stroke: #000000; stroke-width: 0.8"/>
      </g>
     </g>
     <g id="text_13">
      <!-- HOOK2 -->
      <g transform="translate(261.99 211.734004) scale(0.1 -0.1)">
       <use xlink:href="#DejaVuSans-48"/>
       <use xlink:href="#DejaVuSans-4f" x="75.195312"/>
       <use xlink:href="#DejaVuSans-4f" x="153.90625"/>
       <use xlink:href="#DejaVuSans-4b" x="232.617188"/>
       <use xlink:href="#DejaVuSans-32" x="298.193359"/>
      </g>
     </g>
    </g>
    <g id="ytick_7">
     <g id="line2d_14">
      <g>
       <use xlink:href="#m7751872dfb" x="254.99" y="239.304929" style="stroke: #000000; stroke-width: 0.8"/>
      </g>
     </g>
     <g id="text_14">
      <!-- SPDL1 -->
      <g transform="translate(261.99 243.104147) scale(0.1 -0.1)">
       <use xlink:href="#DejaVuSans-53"/>
       <use xlink:href="#DejaVuSans-50" x="63.476562"/>
       <use xlink:href="#DejaVuSans-44" x="123.779297"/>
       <use xlink:href="#DejaVuSans-4c" x="200.78125"/>
       <use xlink:href="#DejaVuSans-31" x="256.494141"/>
      </g>
     </g>
    </g>
   </g>
   <g id="text_15">
    <!-- True -->
    <g transform="translate(42.590321 53.291571) scale(0.08 -0.08)">
     <defs>
      <path id="DejaVuSans-54" d="M -19 4666 
L 3928 4666 
L 3928 4134 
L 2272 4134 
L 2272 0 
L 1638 0 
L 1638 4134 
L -19 4134 
L -19 4666 
z
" transform="scale(0.015625)"/>
      <path id="DejaVuSans-72" d="M 2631 2963 
Q 2534 3019 2420 3045 
Q 2306 3072 2169 3072 
Q 1681 3072 1420 2755 
Q 1159 2438 1159 1844 
L 1159 0 
L 581 0 
L 581 3500 
L 1159 3500 
L 1159 2956 
Q 1341 3275 1631 3429 
Q 1922 3584 2338 3584 
Q 2397 3584 2469 3576 
Q 2541 3569 2628 3553 
L 2631 2963 
z
" transform="scale(0.015625)"/>
      <path id="DejaVuSans-75" d="M 544 1381 
L 544 3500 
L 1119 3500 
L 1119 1403 
Q 1119 906 1312 657 
Q 1506 409 1894 409 
Q 2359 409 2629 706 
Q 2900 1003 2900 1516 
L 2900 3500 
L 3475 3500 
L 3475 0 
L 2900 0 
L 2900 538 
Q 2691 219 2414 64 
Q 2138 -91 1772 -91 
Q 1169 -91 856 284 
Q 544 659 544 1381 
z
M 1991 3584 
L 1991 3584 
z
" transform="scale(0.015625)"/>
      <path id="DejaVuSans-65" d="M 3597 1894 
L 3597 1613 
L 953 1613 
Q 991 1019 1311 708 
Q 1631 397 2203 397 
Q 2534 397 2845 478 
Q 3156 559 3463 722 
L 3463 178 
Q 3153 47 2828 -22 
Q 2503 -91 2169 -91 
Q 1331 -91 842 396 
Q 353 884 353 1716 
Q 353 2575 817 3079 
Q 1281 3584 2069 3584 
Q 2775 3584 3186 3129 
Q 3597 2675 3597 1894 
z
M 3022 2063 
Q 3016 2534 2758 2815 
Q 2500 3097 2075 3097 
Q 1594 3097 1305 2825 
Q 1016 2553 972 2059 
L 3022 2063 
z
" transform="scale(0.015625)"/>
     </defs>
     <use xlink:href="#DejaVuSans-54"/>
     <use xlink:href="#DejaVuSans-72" x="46.333984"/>
     <use xlink:href="#DejaVuSans-75" x="87.447266"/>
     <use xlink:href="#DejaVuSans-65" x="150.826172"/>
    </g>
   </g>
   <g id="text_16">
    <!-- 0.881 -->
    <g style="fill: #ffffff" transform="translate(71.002964 53.291571) scale(0.08 -0.08)">
     <defs>
      <path id="DejaVuSans-30" d="M 2034 4250 
Q 1547 4250 1301 3770 
Q 1056 3291 1056 2328 
Q 1056 1369 1301 889 
Q 1547 409 2034 409 
Q 2525 409 2770 889 
Q 3016 1369 3016 2328 
Q 3016 3291 2770 3770 
Q 2525 4250 2034 4250 
z
M 2034 4750 
Q 2819 4750 3233 4129 
Q 3647 3509 3647 2328 
Q 3647 1150 3233 529 
Q 2819 -91 2034 -91 
Q 1250 -91 836 529 
Q 422 1150 422 2328 
Q 422 3509 836 4129 
Q 1250 4750 2034 4750 
z
" transform="scale(0.015625)"/>
      <path id="DejaVuSans-2e" d="M 684 794 
L 1344 794 
L 1344 0 
L 684 0 
L 684 794 
z
" transform="scale(0.015625)"/>
      <path id="DejaVuSans-38" d="M 2034 2216 
Q 1584 2216 1326 1975 
Q 1069 1734 1069 1313 
Q 1069 891 1326 650 
Q 1584 409 2034 409 
Q 2484 409 2743 651 
Q 3003 894 3003 1313 
Q 3003 1734 2745 1975 
Q 2488 2216 2034 2216 
z
M 1403 2484 
Q 997 2584 770 2862 
Q 544 3141 544 3541 
Q 544 4100 942 4425 
Q 1341 4750 2034 4750 
Q 2731 4750 3128 4425 
Q 3525 4100 3525 3541 
Q 3525 3141 3298 2862 
Q 3072 2584 2669 2484 
Q 3125 2378 3379 2068 
Q 3634 1759 3634 1313 
Q 3634 634 3220 271 
Q 2806 -91 2034 -91 
Q 1263 -91 848 271 
Q 434 634 434 1313 
Q 434 1759 690 2068 
Q 947 2378 1403 2484 
z
M 1172 3481 
Q 1172 3119 1398 2916 
Q 1625 2713 2034 2713 
Q 2441 2713 2670 2916 
Q 2900 3119 2900 3481 
Q 2900 3844 2670 4047 
Q 2441 4250 2034 4250 
Q 1625 4250 1398 4047 
Q 1172 3844 1172 3481 
z
" transform="scale(0.015625)"/>
     </defs>
     <use xlink:href="#DejaVuSans-30"/>
     <use xlink:href="#DejaVuSans-2e" x="63.623047"/>
     <use xlink:href="#DejaVuSans-38" x="95.410156"/>
     <use xlink:href="#DejaVuSans-38" x="159.033203"/>
     <use xlink:href="#DejaVuSans-31" x="222.65625"/>
    </g>
   </g>
   <g id="text_17">
    <!-- 0.953 -->
    <g style="fill: #ffffff" transform="translate(102.373107 53.291571) scale(0.08 -0.08)">
     <defs>
      <path id="DejaVuSans-39" d="M 703 97 
L 703 672 
Q 941 559 1184 500 
Q 1428 441 1663 441 
Q 2288 441 2617 861 
Q 2947 1281 2994 2138 
Q 2813 1869 2534 1725 
Q 2256 1581 1919 1581 
Q 1219 1581 811 2004 
Q 403 2428 403 3163 
Q 403 3881 828 4315 
Q 1253 4750 1959 4750 
Q 2769 4750 3195 4129 
Q 3622 3509 3622 2328 
Q 3622 1225 3098 567 
Q 2575 -91 1691 -91 
Q 1453 -91 1209 -44 
Q 966 3 703 97 
z
M 1959 2075 
Q 2384 2075 2632 2365 
Q 2881 2656 2881 3163 
Q 2881 3666 2632 3958 
Q 2384 4250 1959 4250 
Q 1534 4250 1286 3958 
Q 1038 3666 1038 3163 
Q 1038 2656 1286 2365 
Q 1534 2075 1959 2075 
z
" transform="scale(0.015625)"/>
      <path id="DejaVuSans-35" d="M 691 4666 
L 3169 4666 
L 3169 4134 
L 1269 4134 
L 1269 2991 
Q 1406 3038 1543 3061 
Q 1681 3084 1819 3084 
Q 2600 3084 3056 2656 
Q 3513 2228 3513 1497 
Q 3513 744 3044 326 
Q 2575 -91 1722 -91 
Q 1428 -91 1123 -41 
Q 819 9 494 109 
L 494 744 
Q 775 591 1075 516 
Q 1375 441 1709 441 
Q 2250 441 2565 725 
Q 2881 1009 2881 1497 
Q 2881 1984 2565 2268 
Q 2250 2553 1709 2553 
Q 1456 2553 1204 2497 
Q 953 2441 691 2322 
L 691 4666 
z
" transform="scale(0.015625)"/>
      <path id="DejaVuSans-33" d="M 2597 2516 
Q 3050 2419 3304 2112 
Q 3559 1806 3559 1356 
Q 3559 666 3084 287 
Q 2609 -91 1734 -91 
Q 1441 -91 1130 -33 
Q 819 25 488 141 
L 488 750 
Q 750 597 1062 519 
Q 1375 441 1716 441 
Q 2309 441 2620 675 
Q 2931 909 2931 1356 
Q 2931 1769 2642 2001 
Q 2353 2234 1838 2234 
L 1294 2234 
L 1294 2753 
L 1863 2753 
Q 2328 2753 2575 2939 
Q 2822 3125 2822 3475 
Q 2822 3834 2567 4026 
Q 2313 4219 1838 4219 
Q 1578 4219 1281 4162 
Q 984 4106 628 3988 
L 628 4550 
Q 988 4650 1302 4700 
Q 1616 4750 1894 4750 
Q 2613 4750 3031 4423 
Q 3450 4097 3450 3541 
Q 3450 3153 3228 2886 
Q 3006 2619 2597 2516 
z
" transform="scale(0.015625)"/>
     </defs>
     <use xlink:href="#DejaVuSans-30"/>
     <use xlink:href="#DejaVuSans-2e" x="63.623047"/>
     <use xlink:href="#DejaVuSans-39" x="95.410156"/>
     <use xlink:href="#DejaVuSans-35" x="159.033203"/>
     <use xlink:href="#DejaVuSans-33" x="222.65625"/>
    </g>
   </g>
   <g id="text_18">
    <!-- 0.495 -->
    <g transform="translate(133.74325 53.291571) scale(0.08 -0.08)">
     <defs>
      <path id="DejaVuSans-34" d="M 2419 4116 
L 825 1625 
L 2419 1625 
L 2419 4116 
z
M 2253 4666 
L 3047 4666 
L 3047 1625 
L 3713 1625 
L 3713 1100 
L 3047 1100 
L 3047 0 
L 2419 0 
L 2419 1100 
L 313 1100 
L 313 1709 
L 2253 4666 
z
" transform="scale(0.015625)"/>
     </defs>
     <use xlink:href="#DejaVuSans-30"/>
     <use xlink:href="#DejaVuSans-2e" x="63.623047"/>
     <use xlink:href="#DejaVuSans-34" x="95.410156"/>
     <use xlink:href="#DejaVuSans-39" x="159.033203"/>
     <use xlink:href="#DejaVuSans-35" x="222.65625"/>
    </g>
   </g>
   <g id="text_19">
    <!-- 0.624 -->
    <g style="fill: #ffffff" transform="translate(165.113393 53.291571) scale(0.08 -0.08)">
     <defs>
      <path id="DejaVuSans-36" d="M 2113 2584 
Q 1688 2584 1439 2293 
Q 1191 2003 1191 1497 
Q 1191 994 1439 701 
Q 1688 409 2113 409 
Q 2538 409 2786 701 
Q 3034 994 3034 1497 
Q 3034 2003 2786 2293 
Q 2538 2584 2113 2584 
z
M 3366 4563 
L 3366 3988 
Q 3128 4100 2886 4159 
Q 2644 4219 2406 4219 
Q 1781 4219 1451 3797 
Q 1122 3375 1075 2522 
Q 1259 2794 1537 2939 
Q 1816 3084 2150 3084 
Q 2853 3084 3261 2657 
Q 3669 2231 3669 1497 
Q 3669 778 3244 343 
Q 2819 -91 2113 -91 
Q 1303 -91 875 529 
Q 447 1150 447 2328 
Q 447 3434 972 4092 
Q 1497 4750 2381 4750 
Q 2619 4750 2861 4703 
Q 3103 4656 3366 4563 
z
" transform="scale(0.015625)"/>
     </defs>
     <use xlink:href="#DejaVuSans-30"/>
     <use xlink:href="#DejaVuSans-2e" x="63.623047"/>
     <use xlink:href="#DejaVuSans-36" x="95.410156"/>
     <use xlink:href="#DejaVuSans-32" x="159.033203"/>
     <use xlink:href="#DejaVuSans-34" x="222.65625"/>
    </g>
   </g>
   <g id="text_20">
    <!-- 0.325 -->
    <g style="fill: #ffffff" transform="translate(196.483536 53.291571) scale(0.08 -0.08)">
     <use xlink:href="#DejaVuSans-30"/>
     <use xlink:href="#DejaVuSans-2e" x="63.623047"/>
     <use xlink:href="#DejaVuSans-33" x="95.410156"/>
     <use xlink:href="#DejaVuSans-32" x="159.033203"/>
     <use xlink:href="#DejaVuSans-35" x="222.65625"/>
    </g>
   </g>
   <g id="text_21">
    <!-- 0.729 -->
    <g style="fill: #ffffff" transform="translate(227.853679 53.291571) scale(0.08 -0.08)">
     <defs>
      <path id="DejaVuSans-37" d="M 525 4666 
L 3525 4666 
L 3525 4397 
L 1831 0 
L 1172 0 
L 2766 4134 
L 525 4134 
L 525 4666 
z
" transform="scale(0.015625)"/>
     </defs>
     <use xlink:href="#DejaVuSans-30"/>
     <use xlink:href="#DejaVuSans-2e" x="63.623047"/>
     <use xlink:href="#DejaVuSans-37" x="95.410156"/>
     <use xlink:href="#DejaVuSans-32" x="159.033203"/>
     <use xlink:href="#DejaVuSans-39" x="222.65625"/>
    </g>
   </g>
   <g id="text_22">
    <!-- 0.881 -->
    <g style="fill: #ffffff" transform="translate(39.632821 84.661714) scale(0.08 -0.08)">
     <use xlink:href="#DejaVuSans-30"/>
     <use xlink:href="#DejaVuSans-2e" x="63.623047"/>
     <use xlink:href="#DejaVuSans-38" x="95.410156"/>
     <use xlink:href="#DejaVuSans-38" x="159.033203"/>
     <use xlink:href="#DejaVuSans-31" x="222.65625"/>
    </g>
   </g>
   <g id="text_23">
    <!-- True -->
    <g transform="translate(73.960464 84.661714) scale(0.08 -0.08)">
     <use xlink:href="#DejaVuSans-54"/>
     <use xlink:href="#DejaVuSans-72" x="46.333984"/>
     <use xlink:href="#DejaVuSans-75" x="87.447266"/>
     <use xlink:href="#DejaVuSans-65" x="150.826172"/>
    </g>
   </g>
   <g id="text_24">
    <!-- 0.945 -->
    <g style="fill: #ffffff" transform="translate(102.373107 84.661714) scale(0.08 -0.08)">
     <use xlink:href="#DejaVuSans-30"/>
     <use xlink:href="#DejaVuSans-2e" x="63.623047"/>
     <use xlink:href="#DejaVuSans-39" x="95.410156"/>
     <use xlink:href="#DejaVuSans-34" x="159.033203"/>
     <use xlink:href="#DejaVuSans-35" x="222.65625"/>
    </g>
   </g>
   <g id="text_25">
    <!-- 0.634 -->
    <g style="fill: #ffffff" transform="translate(133.74325 84.661714) scale(0.08 -0.08)">
     <use xlink:href="#DejaVuSans-30"/>
     <use xlink:href="#DejaVuSans-2e" x="63.623047"/>
     <use xlink:href="#DejaVuSans-36" x="95.410156"/>
     <use xlink:href="#DejaVuSans-33" x="159.033203"/>
     <use xlink:href="#DejaVuSans-34" x="222.65625"/>
    </g>
   </g>
   <g id="text_26">
    <!-- 0.568 -->
    <g style="fill: #ffffff" transform="translate(165.113393 84.661714) scale(0.08 -0.08)">
     <use xlink:href="#DejaVuSans-30"/>
     <use xlink:href="#DejaVuSans-2e" x="63.623047"/>
     <use xlink:href="#DejaVuSans-35" x="95.410156"/>
     <use xlink:href="#DejaVuSans-36" x="159.033203"/>
     <use xlink:href="#DejaVuSans-38" x="222.65625"/>
    </g>
   </g>
   <g id="text_27">
    <!-- 0.345 -->
    <g style="fill: #ffffff" transform="translate(196.483536 84.661714) scale(0.08 -0.08)">
     <use xlink:href="#DejaVuSans-30"/>
     <use xlink:href="#DejaVuSans-2e" x="63.623047"/>
     <use xlink:href="#DejaVuSans-33" x="95.410156"/>
     <use xlink:href="#DejaVuSans-34" x="159.033203"/>
     <use xlink:href="#DejaVuSans-35" x="222.65625"/>
    </g>
   </g>
   <g id="text_28">
    <!-- 0.867 -->
    <g style="fill: #ffffff" transform="translate(227.853679 84.661714) scale(0.08 -0.08)">
     <use xlink:href="#DejaVuSans-30"/>
     <use xlink:href="#DejaVuSans-2e" x="63.623047"/>
     <use xlink:href="#DejaVuSans-38" x="95.410156"/>
     <use xlink:href="#DejaVuSans-36" x="159.033203"/>
     <use xlink:href="#DejaVuSans-37" x="222.65625"/>
    </g>
   </g>
   <g id="text_29">
    <!-- 0.953 -->
    <g style="fill: #ffffff" transform="translate(39.632821 116.031857) scale(0.08 -0.08)">
     <use xlink:href="#DejaVuSans-30"/>
     <use xlink:href="#DejaVuSans-2e" x="63.623047"/>
     <use xlink:href="#DejaVuSans-39" x="95.410156"/>
     <use xlink:href="#DejaVuSans-35" x="159.033203"/>
     <use xlink:href="#DejaVuSans-33" x="222.65625"/>
    </g>
   </g>
   <g id="text_30">
    <!-- 0.945 -->
    <g style="fill: #ffffff" transform="translate(71.002964 116.031857) scale(0.08 -0.08)">
     <use xlink:href="#DejaVuSans-30"/>
     <use xlink:href="#DejaVuSans-2e" x="63.623047"/>
     <use xlink:href="#DejaVuSans-39" x="95.410156"/>
     <use xlink:href="#DejaVuSans-34" x="159.033203"/>
     <use xlink:href="#DejaVuSans-35" x="222.65625"/>
    </g>
   </g>
   <g id="text_31">
    <!-- True -->
    <g transform="translate(105.330607 116.031857) scale(0.08 -0.08)">
     <use xlink:href="#DejaVuSans-54"/>
     <use xlink:href="#DejaVuSans-72" x="46.333984"/>
     <use xlink:href="#DejaVuSans-75" x="87.447266"/>
     <use xlink:href="#DejaVuSans-65" x="150.826172"/>
    </g>
   </g>
   <g id="text_32">
    <!-- 0.621 -->
    <g style="fill: #ffffff" transform="translate(133.74325 116.031857) scale(0.08 -0.08)">
     <use xlink:href="#DejaVuSans-30"/>
     <use xlink:href="#DejaVuSans-2e" x="63.623047"/>
     <use xlink:href="#DejaVuSans-36" x="95.410156"/>
     <use xlink:href="#DejaVuSans-32" x="159.033203"/>
     <use xlink:href="#DejaVuSans-31" x="222.65625"/>
    </g>
   </g>
   <g id="text_33">
    <!-- 0.739 -->
    <g style="fill: #ffffff" transform="translate(165.113393 116.031857) scale(0.08 -0.08)">
     <use xlink:href="#DejaVuSans-30"/>
     <use xlink:href="#DejaVuSans-2e" x="63.623047"/>
     <use xlink:href="#DejaVuSans-37" x="95.410156"/>
     <use xlink:href="#DejaVuSans-33" x="159.033203"/>
     <use xlink:href="#DejaVuSans-39" x="222.65625"/>
    </g>
   </g>
   <g id="text_34">
    <!-- 0.409 -->
    <g style="fill: #ffffff" transform="translate(196.483536 116.031857) scale(0.08 -0.08)">
     <use xlink:href="#DejaVuSans-30"/>
     <use xlink:href="#DejaVuSans-2e" x="63.623047"/>
     <use xlink:href="#DejaVuSans-34" x="95.410156"/>
     <use xlink:href="#DejaVuSans-30" x="159.033203"/>
     <use xlink:href="#DejaVuSans-39" x="222.65625"/>
    </g>
   </g>
   <g id="text_35">
    <!-- 0.826 -->
    <g style="fill: #ffffff" transform="translate(227.853679 116.031857) scale(0.08 -0.08)">
     <use xlink:href="#DejaVuSans-30"/>
     <use xlink:href="#DejaVuSans-2e" x="63.623047"/>
     <use xlink:href="#DejaVuSans-38" x="95.410156"/>
     <use xlink:href="#DejaVuSans-32" x="159.033203"/>
     <use xlink:href="#DejaVuSans-36" x="222.65625"/>
    </g>
   </g>
   <g id="text_36">
    <!-- 0.495 -->
    <g transform="translate(39.632821 147.402) scale(0.08 -0.08)">
     <use xlink:href="#DejaVuSans-30"/>
     <use xlink:href="#DejaVuSans-2e" x="63.623047"/>
     <use xlink:href="#DejaVuSans-34" x="95.410156"/>
     <use xlink:href="#DejaVuSans-39" x="159.033203"/>
     <use xlink:href="#DejaVuSans-35" x="222.65625"/>
    </g>
   </g>
   <g id="text_37">
    <!-- 0.634 -->
    <g style="fill: #ffffff" transform="translate(71.002964 147.402) scale(0.08 -0.08)">
     <use xlink:href="#DejaVuSans-30"/>
     <use xlink:href="#DejaVuSans-2e" x="63.623047"/>
     <use xlink:href="#DejaVuSans-36" x="95.410156"/>
     <use xlink:href="#DejaVuSans-33" x="159.033203"/>
     <use xlink:href="#DejaVuSans-34" x="222.65625"/>
    </g>
   </g>
   <g id="text_38">
    <!-- 0.621 -->
    <g style="fill: #ffffff" transform="translate(102.373107 147.402) scale(0.08 -0.08)">
     <use xlink:href="#DejaVuSans-30"/>
     <use xlink:href="#DejaVuSans-2e" x="63.623047"/>
     <use xlink:href="#DejaVuSans-36" x="95.410156"/>
     <use xlink:href="#DejaVuSans-32" x="159.033203"/>
     <use xlink:href="#DejaVuSans-31" x="222.65625"/>
    </g>
   </g>
   <g id="text_39">
    <!-- True -->
    <g transform="translate(136.70075 147.402) scale(0.08 -0.08)">
     <use xlink:href="#DejaVuSans-54"/>
     <use xlink:href="#DejaVuSans-72" x="46.333984"/>
     <use xlink:href="#DejaVuSans-75" x="87.447266"/>
     <use xlink:href="#DejaVuSans-65" x="150.826172"/>
    </g>
   </g>
   <g id="text_40">
    <!-- 0.406 -->
    <g style="fill: #ffffff" transform="translate(165.113393 147.402) scale(0.08 -0.08)">
     <use xlink:href="#DejaVuSans-30"/>
     <use xlink:href="#DejaVuSans-2e" x="63.623047"/>
     <use xlink:href="#DejaVuSans-34" x="95.410156"/>
     <use xlink:href="#DejaVuSans-30" x="159.033203"/>
     <use xlink:href="#DejaVuSans-36" x="222.65625"/>
    </g>
   </g>
   <g id="text_41">
    <!-- 0.173 -->
    <g style="fill: #ffffff" transform="translate(196.483536 147.402) scale(0.08 -0.08)">
     <use xlink:href="#DejaVuSans-30"/>
     <use xlink:href="#DejaVuSans-2e" x="63.623047"/>
     <use xlink:href="#DejaVuSans-31" x="95.410156"/>
     <use xlink:href="#DejaVuSans-37" x="159.033203"/>
     <use xlink:href="#DejaVuSans-33" x="222.65625"/>
    </g>
   </g>
   <g id="text_42">
    <!-- 0.417 -->
    <g style="fill: #ffffff" transform="translate(227.853679 147.402) scale(0.08 -0.08)">
     <use xlink:href="#DejaVuSans-30"/>
     <use xlink:href="#DejaVuSans-2e" x="63.623047"/>
     <use xlink:href="#DejaVuSans-34" x="95.410156"/>
     <use xlink:href="#DejaVuSans-31" x="159.033203"/>
     <use xlink:href="#DejaVuSans-37" x="222.65625"/>
    </g>
   </g>
   <g id="text_43">
    <!-- 0.624 -->
    <g style="fill: #ffffff" transform="translate(39.632821 178.772143) scale(0.08 -0.08)">
     <use xlink:href="#DejaVuSans-30"/>
     <use xlink:href="#DejaVuSans-2e" x="63.623047"/>
     <use xlink:href="#DejaVuSans-36" x="95.410156"/>
     <use xlink:href="#DejaVuSans-32" x="159.033203"/>
     <use xlink:href="#DejaVuSans-34" x="222.65625"/>
    </g>
   </g>
   <g id="text_44">
    <!-- 0.568 -->
    <g style="fill: #ffffff" transform="translate(71.002964 178.772143) scale(0.08 -0.08)">
     <use xlink:href="#DejaVuSans-30"/>
     <use xlink:href="#DejaVuSans-2e" x="63.623047"/>
     <use xlink:href="#DejaVuSans-35" x="95.410156"/>
     <use xlink:href="#DejaVuSans-36" x="159.033203"/>
     <use xlink:href="#DejaVuSans-38" x="222.65625"/>
    </g>
   </g>
   <g id="text_45">
    <!-- 0.739 -->
    <g style="fill: #ffffff" transform="translate(102.373107 178.772143) scale(0.08 -0.08)">
     <use xlink:href="#DejaVuSans-30"/>
     <use xlink:href="#DejaVuSans-2e" x="63.623047"/>
     <use xlink:href="#DejaVuSans-37" x="95.410156"/>
     <use xlink:href="#DejaVuSans-33" x="159.033203"/>
     <use xlink:href="#DejaVuSans-39" x="222.65625"/>
    </g>
   </g>
   <g id="text_46">
    <!-- 0.406 -->
    <g style="fill: #ffffff" transform="translate(133.74325 178.772143) scale(0.08 -0.08)">
     <use xlink:href="#DejaVuSans-30"/>
     <use xlink:href="#DejaVuSans-2e" x="63.623047"/>
     <use xlink:href="#DejaVuSans-34" x="95.410156"/>
     <use xlink:href="#DejaVuSans-30" x="159.033203"/>
     <use xlink:href="#DejaVuSans-36" x="222.65625"/>
    </g>
   </g>
   <g id="text_47">
    <!-- True -->
    <g transform="translate(168.070893 178.772143) scale(0.08 -0.08)">
     <use xlink:href="#DejaVuSans-54"/>
     <use xlink:href="#DejaVuSans-72" x="46.333984"/>
     <use xlink:href="#DejaVuSans-75" x="87.447266"/>
     <use xlink:href="#DejaVuSans-65" x="150.826172"/>
    </g>
   </g>
   <g id="text_48">
    <!-- 0.732 -->
    <g style="fill: #ffffff" transform="translate(196.483536 178.772143) scale(0.08 -0.08)">
     <use xlink:href="#DejaVuSans-30"/>
     <use xlink:href="#DejaVuSans-2e" x="63.623047"/>
     <use xlink:href="#DejaVuSans-37" x="95.410156"/>
     <use xlink:href="#DejaVuSans-33" x="159.033203"/>
     <use xlink:href="#DejaVuSans-32" x="222.65625"/>
    </g>
   </g>
   <g id="text_49">
    <!-- 0.611 -->
    <g style="fill: #ffffff" transform="translate(227.853679 178.772143) scale(0.08 -0.08)">
     <use xlink:href="#DejaVuSans-30"/>
     <use xlink:href="#DejaVuSans-2e" x="63.623047"/>
     <use xlink:href="#DejaVuSans-36" x="95.410156"/>
     <use xlink:href="#DejaVuSans-31" x="159.033203"/>
     <use xlink:href="#DejaVuSans-31" x="222.65625"/>
    </g>
   </g>
   <g id="text_50">
    <!-- 0.325 -->
    <g style="fill: #ffffff" transform="translate(39.632821 210.142286) scale(0.08 -0.08)">
     <use xlink:href="#DejaVuSans-30"/>
     <use xlink:href="#DejaVuSans-2e" x="63.623047"/>
     <use xlink:href="#DejaVuSans-33" x="95.410156"/>
     <use xlink:href="#DejaVuSans-32" x="159.033203"/>
     <use xlink:href="#DejaVuSans-35" x="222.65625"/>
    </g>
   </g>
   <g id="text_51">
    <!-- 0.345 -->
    <g style="fill: #ffffff" transform="translate(71.002964 210.142286) scale(0.08 -0.08)">
     <use xlink:href="#DejaVuSans-30"/>
     <use xlink:href="#DejaVuSans-2e" x="63.623047"/>
     <use xlink:href="#DejaVuSans-33" x="95.410156"/>
     <use xlink:href="#DejaVuSans-34" x="159.033203"/>
     <use xlink:href="#DejaVuSans-35" x="222.65625"/>
    </g>
   </g>
   <g id="text_52">
    <!-- 0.409 -->
    <g style="fill: #ffffff" transform="translate(102.373107 210.142286) scale(0.08 -0.08)">
     <use xlink:href="#DejaVuSans-30"/>
     <use xlink:href="#DejaVuSans-2e" x="63.623047"/>
     <use xlink:href="#DejaVuSans-34" x="95.410156"/>
     <use xlink:href="#DejaVuSans-30" x="159.033203"/>
     <use xlink:href="#DejaVuSans-39" x="222.65625"/>
    </g>
   </g>
   <g id="text_53">
    <!-- 0.173 -->
    <g style="fill: #ffffff" transform="translate(133.74325 210.142286) scale(0.08 -0.08)">
     <use xlink:href="#DejaVuSans-30"/>
     <use xlink:href="#DejaVuSans-2e" x="63.623047"/>
     <use xlink:href="#DejaVuSans-31" x="95.410156"/>
     <use xlink:href="#DejaVuSans-37" x="159.033203"/>
     <use xlink:href="#DejaVuSans-33" x="222.65625"/>
    </g>
   </g>
   <g id="text_54">
    <!-- 0.732 -->
    <g style="fill: #ffffff" transform="translate(165.113393 210.142286) scale(0.08 -0.08)">
     <use xlink:href="#DejaVuSans-30"/>
     <use xlink:href="#DejaVuSans-2e" x="63.623047"/>
     <use xlink:href="#DejaVuSans-37" x="95.410156"/>
     <use xlink:href="#DejaVuSans-33" x="159.033203"/>
     <use xlink:href="#DejaVuSans-32" x="222.65625"/>
    </g>
   </g>
   <g id="text_55">
    <!-- True -->
    <g transform="translate(199.441036 210.142286) scale(0.08 -0.08)">
     <use xlink:href="#DejaVuSans-54"/>
     <use xlink:href="#DejaVuSans-72" x="46.333984"/>
     <use xlink:href="#DejaVuSans-75" x="87.447266"/>
     <use xlink:href="#DejaVuSans-65" x="150.826172"/>
    </g>
   </g>
   <g id="text_56">
    <!-- 0.364 -->
    <g style="fill: #ffffff" transform="translate(227.853679 210.142286) scale(0.08 -0.08)">
     <use xlink:href="#DejaVuSans-30"/>
     <use xlink:href="#DejaVuSans-2e" x="63.623047"/>
     <use xlink:href="#DejaVuSans-33" x="95.410156"/>
     <use xlink:href="#DejaVuSans-36" x="159.033203"/>
     <use xlink:href="#DejaVuSans-34" x="222.65625"/>
    </g>
   </g>
   <g id="text_57">
    <!-- 0.729 -->
    <g style="fill: #ffffff" transform="translate(39.632821 241.512429) scale(0.08 -0.08)">
     <use xlink:href="#DejaVuSans-30"/>
     <use xlink:href="#DejaVuSans-2e" x="63.623047"/>
     <use xlink:href="#DejaVuSans-37" x="95.410156"/>
     <use xlink:href="#DejaVuSans-32" x="159.033203"/>
     <use xlink:href="#DejaVuSans-39" x="222.65625"/>
    </g>
   </g>
   <g id="text_58">
    <!-- 0.867 -->
    <g style="fill: #ffffff" transform="translate(71.002964 241.512429) scale(0.08 -0.08)">
     <use xlink:href="#DejaVuSans-30"/>
     <use xlink:href="#DejaVuSans-2e" x="63.623047"/>
     <use xlink:href="#DejaVuSans-38" x="95.410156"/>
     <use xlink:href="#DejaVuSans-36" x="159.033203"/>
     <use xlink:href="#DejaVuSans-37" x="222.65625"/>
    </g>
   </g>
   <g id="text_59">
    <!-- 0.826 -->
    <g style="fill: #ffffff" transform="translate(102.373107 241.512429) scale(0.08 -0.08)">
     <use xlink:href="#DejaVuSans-30"/>
     <use xlink:href="#DejaVuSans-2e" x="63.623047"/>
     <use xlink:href="#DejaVuSans-38" x="95.410156"/>
     <use xlink:href="#DejaVuSans-32" x="159.033203"/>
     <use xlink:href="#DejaVuSans-36" x="222.65625"/>
    </g>
   </g>
   <g id="text_60">
    <!-- 0.417 -->
    <g style="fill: #ffffff" transform="translate(133.74325 241.512429) scale(0.08 -0.08)">
     <use xlink:href="#DejaVuSans-30"/>
     <use xlink:href="#DejaVuSans-2e" x="63.623047"/>
     <use xlink:href="#DejaVuSans-34" x="95.410156"/>
     <use xlink:href="#DejaVuSans-31" x="159.033203"/>
     <use xlink:href="#DejaVuSans-37" x="222.65625"/>
    </g>
   </g>
   <g id="text_61">
    <!-- 0.611 -->
    <g style="fill: #ffffff" transform="translate(165.113393 241.512429) scale(0.08 -0.08)">
     <use xlink:href="#DejaVuSans-30"/>
     <use xlink:href="#DejaVuSans-2e" x="63.623047"/>
     <use xlink:href="#DejaVuSans-36" x="95.410156"/>
     <use xlink:href="#DejaVuSans-31" x="159.033203"/>
     <use xlink:href="#DejaVuSans-31" x="222.65625"/>
    </g>
   </g>
   <g id="text_62">
    <!-- 0.364 -->
    <g style="fill: #ffffff" transform="translate(196.483536 241.512429) scale(0.08 -0.08)">
     <use xlink:href="#DejaVuSans-30"/>
     <use xlink:href="#DejaVuSans-2e" x="63.623047"/>
     <use xlink:href="#DejaVuSans-33" x="95.410156"/>
     <use xlink:href="#DejaVuSans-36" x="159.033203"/>
     <use xlink:href="#DejaVuSans-34" x="222.65625"/>
    </g>
   </g>
   <g id="text_63">
    <!-- True -->
    <g transform="translate(230.811179 241.512429) scale(0.08 -0.08)">
     <use xlink:href="#DejaVuSans-54"/>
     <use xlink:href="#DejaVuSans-72" x="46.333984"/>
     <use xlink:href="#DejaVuSans-75" x="87.447266"/>
     <use xlink:href="#DejaVuSans-65" x="150.826172"/>
    </g>
   </g>
  </g>
 </g>
 <defs>
  <clipPath id="p6c94e717b4">
   <rect x="10.8" y="35.399" width="24.399" height="219.591"/>
  </clipPath>
  <clipPath id="p81bfabfffe">
   <rect x="35.399" y="10.8" width="219.591" height="24.399"/>
  </clipPath>
  <clipPath id="pa62300e890">
   <rect x="35.399" y="35.399" width="219.591" height="219.591"/>
  </clipPath>
 </defs>
</svg>
