<svg class="main-svg" xmlns="http://www.w3.org/2000/svg" xmlns:xlink="http://www.w3.org/1999/xlink" width="1280" height="960" style="" viewBox="0 0 640 480"><rect x="0" y="0" width="640" height="480" style="fill: rgb(255, 255, 255); fill-opacity: 1;"/><defs id="defs-cae737"><g class="clips"><clipPath id="clipcae737xyplot" class="plotclip"><rect width="243" height="340"/></clipPath><clipPath class="axesclip" id="clipcae737x"><rect x="93" y="0" width="243" height="480"/></clipPath><clipPath class="axesclip" id="clipcae737y"><rect x="0" y="60" width="640" height="340"/></clipPath><clipPath class="axesclip" id="clipcae737xy"><rect x="93" y="60" width="243" height="340"/></clipPath></g><g class="gradients"/><g class="patterns"/></defs><g class="bglayer"/><g class="layer-below"><g class="imagelayer"/><g class="shapelayer"/></g><g class="cartesianlayer"><g class="subplot xy"><g class="layer-subplot"><g class="shapelayer"/><g class="imagelayer"/></g><g class="minor-gridlayer"><g class="x"/><g class="y"/></g><g class="gridlayer"><g class="x"><path class="xgrid crisp" transform="translate(117.65,0)" d="M0,60v340" style="stroke: rgb(255, 255, 255); stroke-opacity: 1; stroke-width: 1px;"/><path class="xgrid crisp" transform="translate(214.5,0)" d="M0,60v340" style="stroke: rgb(255, 255, 255); stroke-opacity: 1; stroke-width: 1px;"/><path class="xgrid crisp" transform="translate(311.35,0)" d="M0,60v340" style="stroke: rgb(255, 255, 255); stroke-opacity: 1; stroke-width: 1px;"/></g><g class="y"><path class="ygrid crisp" transform="translate(0,370.5)" d="M93,0h243" style="stroke: rgb(255, 255, 255); stroke-opacity: 1; stroke-width: 1px;"/><path class="ygrid crisp" transform="translate(0,230)" d="M93,0h243" style="stroke: rgb(255, 255, 255); stroke-opacity: 1; stroke-width: 1px;"/><path class="ygrid crisp" transform="translate(0,89.5)" d="M93,0h243" style="stroke: rgb(255, 255, 255); stroke-opacity: 1; stroke-width: 1px;"/></g></g><g class="zerolinelayer"/><path class="xlines-below"/><path class="ylines-below"/><g class="overlines-below"/><g class="xaxislayer-below"/><g class="yaxislayer-below"/><g class="overaxes-below"/><g class="plot" transform="translate(93,60)" clip-path="url(#clipcae737xyplot)"><g class="scatterlayer mlayer"><g class="trace scatter traced4ea3c" style="stroke-miterlimit: 2; opacity: 1;"><g class="fills"/><g class="errorbars"/><g class="lines"/><g class="points"><path class="point" transform="translate(24.65,310.5)" d="M10,0A10,10 0 1,1 0,-10A10,10 0 0,1 10,0Z" style="opacity: 1; stroke-width: 0px; fill: rgb(213, 94, 0); fill-opacity: 1;"/><path class="point" transform="translate(121.5,170)" d="M10,0A10,10 0 1,1 0,-10A10,10 0 0,1 10,0Z" style="opacity: 1; stroke-width: 0px; fill: rgb(213, 94, 0); fill-opacity: 1;"/></g><g class="text"/></g><g class="trace scatter trace42a389" style="stroke-miterlimit: 2; opacity: 1;"><g class="fills"/><g class="errorbars"/><g class="lines"/><g class="points"><path class="point" transform="translate(24.65,29.5)" d="M10,0A10,10 0 1,1 0,-10A10,10 0 0,1 10,0Z" style="opacity: 1; stroke-width: 0px; fill: rgb(0, 158, 115); fill-opacity: 1;"/><path class="point" transform="translate(218.35,170)" d="M10,0A10,10 0 1,1 0,-10A10,10 0 0,1 10,0Z" style="opacity: 1; stroke-width: 0px; fill: rgb(0, 158, 115); fill-opacity: 1;"/></g><g class="text"/></g><g class="trace scatter tracee5ce9c" style="stroke-miterlimit: 2; opacity: 1;"><g class="fills"/><g class="errorbars"/><g class="lines"/><g class="points"><path class="point" transform="translate(24.65,170)" d="M0,5.66l5.66,5.66l5.66,-5.66l-5.66,-5.66l5.66,-5.66l-5.66,-5.66l-5.66,5.66l-5.66,-5.66l-5.66,5.66l5.66,5.66l-5.66,5.66l5.66,5.66Z" style="opacity: 1; stroke-width: 0px; fill: rgb(0, 158, 115); fill-opacity: 1;"/><path class="point" transform="translate(218.35,29.5)" d="M0,5.66l5.66,5.66l5.66,-5.66l-5.66,-5.66l5.66,-5.66l-5.66,-5.66l-5.66,5.66l-5.66,-5.66l-5.66,5.66l5.66,5.66l-5.66,5.66l5.66,5.66Z" style="opacity: 1; stroke-width: 0px; fill: rgb(0, 158, 115); fill-opacity: 1;"/></g><g class="text"/></g></g></g><g class="overplot"/><path class="xlines-above crisp" d="M92,400.5H336" style="fill: none; stroke-width: 1px; stroke: rgb(0, 0, 0); stroke-opacity: 1;"/><path class="ylines-above crisp" d="M92.5,60V400" style="fill: none; stroke-width: 1px; stroke: rgb(0, 0, 0); stroke-opacity: 1;"/><g class="overlines-above"/><g class="xaxislayer-above"><g class="xtick"><text text-anchor="middle" x="0" y="415.4" transform="translate(117.65,0)" style="font-family: 'Open Sans', verdana, arial, sans-serif; font-size: 12px; fill: rgb(42, 63, 95); fill-opacity: 1; white-space: pre; opacity: 1;">CHRM4</text></g><g class="xtick"><text text-anchor="middle" x="0" y="415.4" transform="translate(214.5,0)" style="font-family: 'Open Sans', verdana, arial, sans-serif; font-size: 12px; fill: rgb(42, 63, 95); fill-opacity: 1; white-space: pre; opacity: 1;">MYT1</text></g><g class="xtick"><text text-anchor="middle" x="0" y="415.4" transform="translate(311.35,0)" style="font-family: 'Open Sans', verdana, arial, sans-serif; font-size: 12px; fill: rgb(42, 63, 95); fill-opacity: 1; white-space: pre; opacity: 1;">GPR176</text></g></g><g class="yaxislayer-above"><g class="ytick"><text text-anchor="end" x="89.6" y="4.199999999999999" transform="translate(0,370.5)" style="font-family: 'Open Sans', verdana, arial, sans-serif; font-size: 12px; fill: rgb(42, 63, 95); fill-opacity: 1; white-space: pre; opacity: 1;">GPR176</text></g><g class="ytick"><text text-anchor="end" x="89.6" y="4.199999999999999" transform="translate(0,230)" style="font-family: 'Open Sans', verdana, arial, sans-serif; font-size: 12px; fill: rgb(42, 63, 95); fill-opacity: 1; white-space: pre; opacity: 1;">TSC22D1</text></g><g class="ytick"><text text-anchor="end" x="89.6" y="4.199999999999999" transform="translate(0,89.5)" style="font-family: 'Open Sans', verdana, arial, sans-serif; font-size: 12px; fill: rgb(42, 63, 95); fill-opacity: 1; white-space: pre; opacity: 1;">MYT1</text></g></g><g class="overaxes-above"/></g></g><g class="polarlayer"/><g class="smithlayer"/><g class="ternarylayer"/><g class="geolayer"/><g class="funnelarealayer"/><g class="pielayer"/><g class="iciclelayer"/><g class="treemaplayer"/><g class="sunburstlayer"/><g class="glimages"/><defs id="topdefs-cae737"><g class="clips"/><clipPath id="legendcae737"><rect width="287" height="86" x="0" y="0"/></clipPath></defs><g class="layer-above"><g class="imagelayer"/><g class="shapelayer"/></g><g class="infolayer"><g class="legend" pointer-events="all" transform="translate(340.86,60)"><rect class="bg" shape-rendering="crispEdges" width="287" height="86" x="0" y="0" style="stroke: rgb(68, 68, 68); stroke-opacity: 1; fill: rgb(255, 255, 255); fill-opacity: 1; stroke-width: 0px;"/><g class="scrollbox" transform="" clip-path="url(#legendcae737)"><text class="legendtitletext" text-anchor="start" x="2" y="18.2" style="font-family: 'Open Sans', verdana, arial, sans-serif; font-size: 14px; fill: rgb(42, 63, 95); fill-opacity: 1; white-space: pre;">plate, row_column</text><g class="groups" transform=""><g class="traces" transform="translate(0,32.7)" style="opacity: 1;"><text class="legendtext" text-anchor="start" x="40" y="4.680000000000001" style="font-family: 'Open Sans', verdana, arial, sans-serif; font-size: 12px; fill: rgb(42, 63, 95); fill-opacity: 1; white-space: pre;">same_plate, different_rows_and_columns</text><g class="layers" style="opacity: 1;"><g class="legendfill"/><g class="legendlines"/><g class="legendsymbols"><g class="legendpoints"><path class="scatterpts" transform="translate(20,0)" d="M8,0A8,8 0 1,1 0,-8A8,8 0 0,1 8,0Z" style="opacity: 1; stroke-width: 0px; fill: rgb(213, 94, 0); fill-opacity: 1;"/></g></g></g><rect class="legendtoggle" x="0" y="-9.5" width="281.71875" height="19" style="fill: rgb(0, 0, 0); fill-opacity: 0;"/></g></g><g class="groups" transform=""><g class="traces" transform="translate(0,51.7)" style="opacity: 1;"><text class="legendtext" text-anchor="start" x="40" y="4.680000000000001" style="font-family: 'Open Sans', verdana, arial, sans-serif; font-size: 12px; fill: rgb(42, 63, 95); fill-opacity: 1; white-space: pre;">different_plates, different_rows_and_columns</text><g class="layers" style="opacity: 1;"><g class="legendfill"/><g class="legendlines"/><g class="legendsymbols"><g class="legendpoints"><path class="scatterpts" transform="translate(20,0)" d="M8,0A8,8 0 1,1 0,-8A8,8 0 0,1 8,0Z" style="opacity: 1; stroke-width: 0px; fill: rgb(0, 158, 115); fill-opacity: 1;"/></g></g></g><rect class="legendtoggle" x="0" y="-9.5" width="281.71875" height="19" style="fill: rgb(0, 0, 0); fill-opacity: 0;"/></g></g><g class="groups" transform=""><g class="traces" transform="translate(0,70.7)" style="opacity: 1;"><text class="legendtext" text-anchor="start" x="40" y="4.680000000000001" style="font-family: 'Open Sans', verdana, arial, sans-serif; font-size: 12px; fill: rgb(42, 63, 95); fill-opacity: 1; white-space: pre;">different_plates, same_row_or_column</text><g class="layers" style="opacity: 1;"><g class="legendfill"/><g class="legendlines"/><g class="legendsymbols"><g class="legendpoints"><path class="scatterpts" transform="translate(20,0)" d="M0,4.53l4.53,4.53l4.53,-4.53l-4.53,-4.53l4.53,-4.53l-4.53,-4.53l-4.53,4.53l-4.53,-4.53l-4.53,4.53l4.53,4.53l-4.53,4.53l4.53,4.53Z" style="opacity: 1; stroke-width: 0px; fill: rgb(0, 158, 115); fill-opacity: 1;"/></g></g></g><rect class="legendtoggle" x="0" y="-9.5" width="281.71875" height="19" style="fill: rgb(0, 0, 0); fill-opacity: 0;"/></g></g></g><rect class="scrollbar" rx="20" ry="3" width="0" height="0" x="0" y="0" style="fill: rgb(128, 139, 164); fill-opacity: 1;"/></g><g class="g-gtitle"><text class="gtitle" x="32" y="30" text-anchor="start" dy="0em" style="font-family: 'Open Sans', verdana, arial, sans-serif; font-size: 12px; fill: rgb(42, 63, 95); opacity: 1; font-weight: normal; white-space: pre;">CRISPR: MYT1-CHRM4-GPR176-TSC22D1</text></g><g class="g-xtitle"><text class="xtitle" x="214.5" y="443.20625" text-anchor="middle" style="font-family: 'Open Sans', verdana, arial, sans-serif; font-size: 14px; fill: rgb(42, 63, 95); opacity: 1; font-weight: normal; white-space: pre;">Gene 1</text></g><g class="g-ytitle" transform="translate(0.8935546875,0)"><text class="ytitle" transform="rotate(-90,12.106250000000003,230)" x="12.106250000000003" y="230" text-anchor="middle" style="font-family: 'Open Sans', verdana, arial, sans-serif; font-size: 14px; fill: rgb(42, 63, 95); opacity: 1; font-weight: normal; white-space: pre;">Gene 2</text></g></g></svg>