<?xml version="1.0" encoding="utf-8" standalone="no"?>
<!DOCTYPE svg PUBLIC "-//W3C//DTD SVG 1.1//EN"
  "http://www.w3.org/Graphics/SVG/1.1/DTD/svg11.dtd">
<svg xmlns:xlink="http://www.w3.org/1999/xlink" width="324pt" height="324pt" viewBox="0 0 324 324" xmlns="http://www.w3.org/2000/svg" version="1.1">
 <metadata>
  <rdf:RDF xmlns:dc="http://purl.org/dc/elements/1.1/" xmlns:cc="http://creativecommons.org/ns#" xmlns:rdf="http://www.w3.org/1999/02/22-rdf-syntax-ns#">
   <cc:Work>
    <dc:type rdf:resource="http://purl.org/dc/dcmitype/StillImage"/>
    <dc:date>2024-08-09T14:09:00.843001</dc:date>
    <dc:format>image/svg+xml</dc:format>
    <dc:creator>
     <cc:Agent>
      <dc:title>Matplotlib v3.6.2, https://matplotlib.org/</dc:title>
     </cc:Agent>
    </dc:creator>
   </cc:Work>
  </rdf:RDF>
 </metadata>
 <defs>
  <style type="text/css">*{stroke-linejoin: round; stroke-linecap: butt}</style>
 </defs>
 <g id="figure_1">
  <g id="patch_1">
   <path d="M 0 324 
L 324 324 
L 324 0 
L 0 0 
z
" style="fill: #ffffff"/>
  </g>
  <g id="axes_1">
   <g id="LineCollection_1">
    <path d="M 33.973 128.7715 
L 29.564453 128.7715 
L 29.564453 155.788214 
L 33.973 155.788214 
" clip-path="url(#p781eddfddf)" style="fill: none; stroke: #333333; stroke-width: 0.5"/>
    <path d="M 33.973 101.754786 
L 26.466898 101.754786 
L 26.466898 142.279857 
L 29.564453 142.279857 
" clip-path="url(#p781eddfddf)" style="fill: none; stroke: #333333; stroke-width: 0.5"/>
    <path d="M 33.973 182.804929 
L 22.237553 182.804929 
L 22.237553 209.821643 
L 33.973 209.821643 
" clip-path="url(#p781eddfddf)" style="fill: none; stroke: #333333; stroke-width: 0.5"/>
    <path d="M 26.466898 122.017321 
L 19.091389 122.017321 
L 19.091389 196.313286 
L 22.237553 196.313286 
" clip-path="url(#p781eddfddf)" style="fill: none; stroke: #333333; stroke-width: 0.5"/>
    <path d="M 33.973 74.738071 
L 16.588941 74.738071 
L 16.588941 159.165304 
L 19.091389 159.165304 
" clip-path="url(#p781eddfddf)" style="fill: none; stroke: #333333; stroke-width: 0.5"/>
    <path d="M 33.973 47.721357 
L 13.960619 47.721357 
L 13.960619 116.951688 
L 16.588941 116.951688 
" clip-path="url(#p781eddfddf)" style="fill: none; stroke: #333333; stroke-width: 0.5"/>
   </g>
  </g>
  <g id="axes_2">
   <g id="LineCollection_2">
    <path d="M 128.7715 33.973 
L 128.7715 29.564459 
L 155.788214 29.564459 
L 155.788214 33.973 
" clip-path="url(#p1194f110e0)" style="fill: none; stroke: #333333; stroke-width: 0.5"/>
    <path d="M 101.754786 33.973 
L 101.754786 26.466587 
L 142.279857 26.466587 
L 142.279857 29.564459 
" clip-path="url(#p1194f110e0)" style="fill: none; stroke: #333333; stroke-width: 0.5"/>
    <path d="M 182.804929 33.973 
L 182.804929 22.237393 
L 209.821643 22.237393 
L 209.821643 33.973 
" clip-path="url(#p1194f110e0)" style="fill: none; stroke: #333333; stroke-width: 0.5"/>
    <path d="M 122.017321 26.466587 
L 122.017321 19.091088 
L 196.313286 19.091088 
L 196.313286 22.237393 
" clip-path="url(#p1194f110e0)" style="fill: none; stroke: #333333; stroke-width: 0.5"/>
    <path d="M 74.738071 33.973 
L 74.738071 16.589264 
L 159.165304 16.589264 
L 159.165304 19.091088 
" clip-path="url(#p1194f110e0)" style="fill: none; stroke: #333333; stroke-width: 0.5"/>
    <path d="M 47.721357 33.973 
L 47.721357 13.960619 
L 116.951688 13.960619 
L 116.951688 16.589264 
" clip-path="url(#p1194f110e0)" style="fill: none; stroke: #333333; stroke-width: 0.5"/>
   </g>
  </g>
  <g id="axes_3">
   <g id="patch_2">
    <path d="M 34.213 223.33 
L 223.33 223.33 
L 223.33 34.213 
L 34.213 34.213 
z
" style="fill: #eaeaf2"/>
   </g>
   <g id="matplotlib.axis_1">
    <g id="xtick_1">
     <g id="text_1">
      <!-- A01_PPCDC -->
      <g style="fill: #262626" transform="translate(50.506592 296.949687) rotate(-90) scale(0.11 -0.11)">
       <defs>
        <path id="DejaVuSans-41" d="M 2188 4044 
L 1331 1722 
L 3047 1722 
L 2188 4044 
z
M 1831 4666 
L 2547 4666 
L 4325 0 
L 3669 0 
L 3244 1197 
L 1141 1197 
L 716 0 
L 50 0 
L 1831 4666 
z
" transform="scale(0.015625)"/>
        <path id="DejaVuSans-30" d="M 2034 4250 
Q 1547 4250 1301 3770 
Q 1056 3291 1056 2328 
Q 1056 1369 1301 889 
Q 1547 409 2034 409 
Q 2525 409 2770 889 
Q 3016 1369 3016 2328 
Q 3016 3291 2770 3770 
Q 2525 4250 2034 4250 
z
M 2034 4750 
Q 2819 4750 3233 4129 
Q 3647 3509 3647 2328 
Q 3647 1150 3233 529 
Q 2819 -91 2034 -91 
Q 1250 -91 836 529 
Q 422 1150 422 2328 
Q 422 3509 836 4129 
Q 1250 4750 2034 4750 
z
" transform="scale(0.015625)"/>
        <path id="DejaVuSans-31" d="M 794 531 
L 1825 531 
L 1825 4091 
L 703 3866 
L 703 4441 
L 1819 4666 
L 2450 4666 
L 2450 531 
L 3481 531 
L 3481 0 
L 794 0 
L 794 531 
z
" transform="scale(0.015625)"/>
        <path id="DejaVuSans-5f" d="M 3263 -1063 
L 3263 -1509 
L -63 -1509 
L -63 -1063 
L 3263 -1063 
z
" transform="scale(0.015625)"/>
        <path id="DejaVuSans-50" d="M 1259 4147 
L 1259 2394 
L 2053 2394 
Q 2494 2394 2734 2622 
Q 2975 2850 2975 3272 
Q 2975 3691 2734 3919 
Q 2494 4147 2053 4147 
L 1259 4147 
z
M 628 4666 
L 2053 4666 
Q 2838 4666 3239 4311 
Q 3641 3956 3641 3272 
Q 3641 2581 3239 2228 
Q 2838 1875 2053 1875 
L 1259 1875 
L 1259 0 
L 628 0 
L 628 4666 
z
" transform="scale(0.015625)"/>
        <path id="DejaVuSans-43" d="M 4122 4306 
L 4122 3641 
Q 3803 3938 3442 4084 
Q 3081 4231 2675 4231 
Q 1875 4231 1450 3742 
Q 1025 3253 1025 2328 
Q 1025 1406 1450 917 
Q 1875 428 2675 428 
Q 3081 428 3442 575 
Q 3803 722 4122 1019 
L 4122 359 
Q 3791 134 3420 21 
Q 3050 -91 2638 -91 
Q 1578 -91 968 557 
Q 359 1206 359 2328 
Q 359 3453 968 4101 
Q 1578 4750 2638 4750 
Q 3056 4750 3426 4639 
Q 3797 4528 4122 4306 
z
" transform="scale(0.015625)"/>
        <path id="DejaVuSans-44" d="M 1259 4147 
L 1259 519 
L 2022 519 
Q 2988 519 3436 956 
Q 3884 1394 3884 2338 
Q 3884 3275 3436 3711 
Q 2988 4147 2022 4147 
L 1259 4147 
z
M 628 4666 
L 1925 4666 
Q 3281 4666 3915 4102 
Q 4550 3538 4550 2338 
Q 4550 1131 3912 565 
Q 3275 0 1925 0 
L 628 0 
L 628 4666 
z
" transform="scale(0.015625)"/>
       </defs>
       <use xlink:href="#DejaVuSans-41"/>
       <use xlink:href="#DejaVuSans-30" x="68.408203"/>
       <use xlink:href="#DejaVuSans-31" x="132.03125"/>
       <use xlink:href="#DejaVuSans-5f" x="195.654297"/>
       <use xlink:href="#DejaVuSans-50" x="245.654297"/>
       <use xlink:href="#DejaVuSans-50" x="305.957031"/>
       <use xlink:href="#DejaVuSans-43" x="366.259766"/>
       <use xlink:href="#DejaVuSans-44" x="436.083984"/>
       <use xlink:href="#DejaVuSans-43" x="513.085938"/>
      </g>
     </g>
    </g>
    <g id="xtick_2">
     <g id="text_2">
      <!-- M01_SOCS2 -->
      <g style="fill: #262626" transform="translate(77.523306 299.123906) rotate(-90) scale(0.11 -0.11)">
       <defs>
        <path id="DejaVuSans-4d" d="M 628 4666 
L 1569 4666 
L 2759 1491 
L 3956 4666 
L 4897 4666 
L 4897 0 
L 4281 0 
L 4281 4097 
L 3078 897 
L 2444 897 
L 1241 4097 
L 1241 0 
L 628 0 
L 628 4666 
z
" transform="scale(0.015625)"/>
        <path id="DejaVuSans-53" d="M 3425 4513 
L 3425 3897 
Q 3066 4069 2747 4153 
Q 2428 4238 2131 4238 
Q 1616 4238 1336 4038 
Q 1056 3838 1056 3469 
Q 1056 3159 1242 3001 
Q 1428 2844 1947 2747 
L 2328 2669 
Q 3034 2534 3370 2195 
Q 3706 1856 3706 1288 
Q 3706 609 3251 259 
Q 2797 -91 1919 -91 
Q 1588 -91 1214 -16 
Q 841 59 441 206 
L 441 856 
Q 825 641 1194 531 
Q 1563 422 1919 422 
Q 2459 422 2753 634 
Q 3047 847 3047 1241 
Q 3047 1584 2836 1778 
Q 2625 1972 2144 2069 
L 1759 2144 
Q 1053 2284 737 2584 
Q 422 2884 422 3419 
Q 422 4038 858 4394 
Q 1294 4750 2059 4750 
Q 2388 4750 2728 4690 
Q 3069 4631 3425 4513 
z
" transform="scale(0.015625)"/>
        <path id="DejaVuSans-4f" d="M 2522 4238 
Q 1834 4238 1429 3725 
Q 1025 3213 1025 2328 
Q 1025 1447 1429 934 
Q 1834 422 2522 422 
Q 3209 422 3611 934 
Q 4013 1447 4013 2328 
Q 4013 3213 3611 3725 
Q 3209 4238 2522 4238 
z
M 2522 4750 
Q 3503 4750 4090 4092 
Q 4678 3434 4678 2328 
Q 4678 1225 4090 567 
Q 3503 -91 2522 -91 
Q 1538 -91 948 565 
Q 359 1222 359 2328 
Q 359 3434 948 4092 
Q 1538 4750 2522 4750 
z
" transform="scale(0.015625)"/>
        <path id="DejaVuSans-32" d="M 1228 531 
L 3431 531 
L 3431 0 
L 469 0 
L 469 531 
Q 828 903 1448 1529 
Q 2069 2156 2228 2338 
Q 2531 2678 2651 2914 
Q 2772 3150 2772 3378 
Q 2772 3750 2511 3984 
Q 2250 4219 1831 4219 
Q 1534 4219 1204 4116 
Q 875 4013 500 3803 
L 500 4441 
Q 881 4594 1212 4672 
Q 1544 4750 1819 4750 
Q 2544 4750 2975 4387 
Q 3406 4025 3406 3419 
Q 3406 3131 3298 2873 
Q 3191 2616 2906 2266 
Q 2828 2175 2409 1742 
Q 1991 1309 1228 531 
z
" transform="scale(0.015625)"/>
       </defs>
       <use xlink:href="#DejaVuSans-4d"/>
       <use xlink:href="#DejaVuSans-30" x="86.279297"/>
       <use xlink:href="#DejaVuSans-31" x="149.902344"/>
       <use xlink:href="#DejaVuSans-5f" x="213.525391"/>
       <use xlink:href="#DejaVuSans-53" x="263.525391"/>
       <use xlink:href="#DejaVuSans-4f" x="327.001953"/>
       <use xlink:href="#DejaVuSans-43" x="405.712891"/>
       <use xlink:href="#DejaVuSans-53" x="475.537109"/>
       <use xlink:href="#DejaVuSans-32" x="539.013672"/>
      </g>
     </g>
    </g>
    <g id="xtick_3">
     <g id="text_3">
      <!-- I01_CLDN3 -->
      <g style="fill: #262626" transform="translate(104.54002 293.080781) rotate(-90) scale(0.11 -0.11)">
       <defs>
        <path id="DejaVuSans-49" d="M 628 4666 
L 1259 4666 
L 1259 0 
L 628 0 
L 628 4666 
z
" transform="scale(0.015625)"/>
        <path id="DejaVuSans-4c" d="M 628 4666 
L 1259 4666 
L 1259 531 
L 3531 531 
L 3531 0 
L 628 0 
L 628 4666 
z
" transform="scale(0.015625)"/>
        <path id="DejaVuSans-4e" d="M 628 4666 
L 1478 4666 
L 3547 763 
L 3547 4666 
L 4159 4666 
L 4159 0 
L 3309 0 
L 1241 3903 
L 1241 0 
L 628 0 
L 628 4666 
z
" transform="scale(0.015625)"/>
        <path id="DejaVuSans-33" d="M 2597 2516 
Q 3050 2419 3304 2112 
Q 3559 1806 3559 1356 
Q 3559 666 3084 287 
Q 2609 -91 1734 -91 
Q 1441 -91 1130 -33 
Q 819 25 488 141 
L 488 750 
Q 750 597 1062 519 
Q 1375 441 1716 441 
Q 2309 441 2620 675 
Q 2931 909 2931 1356 
Q 2931 1769 2642 2001 
Q 2353 2234 1838 2234 
L 1294 2234 
L 1294 2753 
L 1863 2753 
Q 2328 2753 2575 2939 
Q 2822 3125 2822 3475 
Q 2822 3834 2567 4026 
Q 2313 4219 1838 4219 
Q 1578 4219 1281 4162 
Q 984 4106 628 3988 
L 628 4550 
Q 988 4650 1302 4700 
Q 1616 4750 1894 4750 
Q 2613 4750 3031 4423 
Q 3450 4097 3450 3541 
Q 3450 3153 3228 2886 
Q 3006 2619 2597 2516 
z
" transform="scale(0.015625)"/>
       </defs>
       <use xlink:href="#DejaVuSans-49"/>
       <use xlink:href="#DejaVuSans-30" x="29.492188"/>
       <use xlink:href="#DejaVuSans-31" x="93.115234"/>
       <use xlink:href="#DejaVuSans-5f" x="156.738281"/>
       <use xlink:href="#DejaVuSans-43" x="206.738281"/>
       <use xlink:href="#DejaVuSans-4c" x="276.5625"/>
       <use xlink:href="#DejaVuSans-44" x="332.275391"/>
       <use xlink:href="#DejaVuSans-4e" x="409.277344"/>
       <use xlink:href="#DejaVuSans-33" x="484.082031"/>
      </g>
     </g>
    </g>
    <g id="xtick_4">
     <g id="text_4">
      <!-- G01_RAB30 -->
      <g style="fill: #262626" transform="translate(131.556734 297.123281) rotate(-90) scale(0.11 -0.11)">
       <defs>
        <path id="DejaVuSans-47" d="M 3809 666 
L 3809 1919 
L 2778 1919 
L 2778 2438 
L 4434 2438 
L 4434 434 
Q 4069 175 3628 42 
Q 3188 -91 2688 -91 
Q 1594 -91 976 548 
Q 359 1188 359 2328 
Q 359 3472 976 4111 
Q 1594 4750 2688 4750 
Q 3144 4750 3555 4637 
Q 3966 4525 4313 4306 
L 4313 3634 
Q 3963 3931 3569 4081 
Q 3175 4231 2741 4231 
Q 1884 4231 1454 3753 
Q 1025 3275 1025 2328 
Q 1025 1384 1454 906 
Q 1884 428 2741 428 
Q 3075 428 3337 486 
Q 3600 544 3809 666 
z
" transform="scale(0.015625)"/>
        <path id="DejaVuSans-52" d="M 2841 2188 
Q 3044 2119 3236 1894 
Q 3428 1669 3622 1275 
L 4263 0 
L 3584 0 
L 2988 1197 
Q 2756 1666 2539 1819 
Q 2322 1972 1947 1972 
L 1259 1972 
L 1259 0 
L 628 0 
L 628 4666 
L 2053 4666 
Q 2853 4666 3247 4331 
Q 3641 3997 3641 3322 
Q 3641 2881 3436 2590 
Q 3231 2300 2841 2188 
z
M 1259 4147 
L 1259 2491 
L 2053 2491 
Q 2509 2491 2742 2702 
Q 2975 2913 2975 3322 
Q 2975 3731 2742 3939 
Q 2509 4147 2053 4147 
L 1259 4147 
z
" transform="scale(0.015625)"/>
        <path id="DejaVuSans-42" d="M 1259 2228 
L 1259 519 
L 2272 519 
Q 2781 519 3026 730 
Q 3272 941 3272 1375 
Q 3272 1813 3026 2020 
Q 2781 2228 2272 2228 
L 1259 2228 
z
M 1259 4147 
L 1259 2741 
L 2194 2741 
Q 2656 2741 2882 2914 
Q 3109 3088 3109 3444 
Q 3109 3797 2882 3972 
Q 2656 4147 2194 4147 
L 1259 4147 
z
M 628 4666 
L 2241 4666 
Q 2963 4666 3353 4366 
Q 3744 4066 3744 3513 
Q 3744 3084 3544 2831 
Q 3344 2578 2956 2516 
Q 3422 2416 3680 2098 
Q 3938 1781 3938 1306 
Q 3938 681 3513 340 
Q 3088 0 2303 0 
L 628 0 
L 628 4666 
z
" transform="scale(0.015625)"/>
       </defs>
       <use xlink:href="#DejaVuSans-47"/>
       <use xlink:href="#DejaVuSans-30" x="77.490234"/>
       <use xlink:href="#DejaVuSans-31" x="141.113281"/>
       <use xlink:href="#DejaVuSans-5f" x="204.736328"/>
       <use xlink:href="#DejaVuSans-52" x="254.736328"/>
       <use xlink:href="#DejaVuSans-41" x="320.21875"/>
       <use xlink:href="#DejaVuSans-42" x="388.626953"/>
       <use xlink:href="#DejaVuSans-33" x="457.230469"/>
       <use xlink:href="#DejaVuSans-30" x="520.853516"/>
      </g>
     </g>
    </g>
    <g id="xtick_5">
     <g id="text_5">
      <!-- E01_NAT14 -->
      <g style="fill: #262626" transform="translate(158.573449 294.895781) rotate(-90) scale(0.11 -0.11)">
       <defs>
        <path id="DejaVuSans-45" d="M 628 4666 
L 3578 4666 
L 3578 4134 
L 1259 4134 
L 1259 2753 
L 3481 2753 
L 3481 2222 
L 1259 2222 
L 1259 531 
L 3634 531 
L 3634 0 
L 628 0 
L 628 4666 
z
" transform="scale(0.015625)"/>
        <path id="DejaVuSans-54" d="M -19 4666 
L 3928 4666 
L 3928 4134 
L 2272 4134 
L 2272 0 
L 1638 0 
L 1638 4134 
L -19 4134 
L -19 4666 
z
" transform="scale(0.015625)"/>
        <path id="DejaVuSans-34" d="M 2419 4116 
L 825 1625 
L 2419 1625 
L 2419 4116 
z
M 2253 4666 
L 3047 4666 
L 3047 1625 
L 3713 1625 
L 3713 1100 
L 3047 1100 
L 3047 0 
L 2419 0 
L 2419 1100 
L 313 1100 
L 313 1709 
L 2253 4666 
z
" transform="scale(0.015625)"/>
       </defs>
       <use xlink:href="#DejaVuSans-45"/>
       <use xlink:href="#DejaVuSans-30" x="63.183594"/>
       <use xlink:href="#DejaVuSans-31" x="126.806641"/>
       <use xlink:href="#DejaVuSans-5f" x="190.429688"/>
       <use xlink:href="#DejaVuSans-4e" x="240.429688"/>
       <use xlink:href="#DejaVuSans-41" x="315.234375"/>
       <use xlink:href="#DejaVuSans-54" x="375.892578"/>
       <use xlink:href="#DejaVuSans-31" x="436.976562"/>
       <use xlink:href="#DejaVuSans-34" x="500.599609"/>
      </g>
     </g>
    </g>
    <g id="xtick_6">
     <g id="text_6">
      <!-- O01_SRI -->
      <g style="fill: #262626" transform="translate(185.590163 278.858125) rotate(-90) scale(0.11 -0.11)">
       <use xlink:href="#DejaVuSans-4f"/>
       <use xlink:href="#DejaVuSans-30" x="78.710938"/>
       <use xlink:href="#DejaVuSans-31" x="142.333984"/>
       <use xlink:href="#DejaVuSans-5f" x="205.957031"/>
       <use xlink:href="#DejaVuSans-53" x="255.957031"/>
       <use xlink:href="#DejaVuSans-52" x="319.433594"/>
       <use xlink:href="#DejaVuSans-49" x="388.916016"/>
      </g>
     </g>
    </g>
    <g id="xtick_7">
     <g id="text_7">
      <!-- C01_ALMS1P1 -->
      <g style="fill: #262626" transform="translate(212.606877 310.766719) rotate(-90) scale(0.11 -0.11)">
       <use xlink:href="#DejaVuSans-43"/>
       <use xlink:href="#DejaVuSans-30" x="69.824219"/>
       <use xlink:href="#DejaVuSans-31" x="133.447266"/>
       <use xlink:href="#DejaVuSans-5f" x="197.070312"/>
       <use xlink:href="#DejaVuSans-41" x="247.070312"/>
       <use xlink:href="#DejaVuSans-4c" x="315.478516"/>
       <use xlink:href="#DejaVuSans-4d" x="371.191406"/>
       <use xlink:href="#DejaVuSans-53" x="457.470703"/>
       <use xlink:href="#DejaVuSans-31" x="520.947266"/>
       <use xlink:href="#DejaVuSans-50" x="584.570312"/>
       <use xlink:href="#DejaVuSans-31" x="644.873047"/>
      </g>
     </g>
    </g>
   </g>
   <g id="matplotlib.axis_2">
    <g id="ytick_1">
     <g id="line2d_1">
      <defs>
       <path id="m04a4753dda" d="M 0 0 
L 6 0 
" style="stroke: #262626; stroke-width: 1.25"/>
      </defs>
      <g>
       <use xlink:href="#m04a4753dda" x="223.33" y="47.721357" style="fill: #262626; stroke: #262626; stroke-width: 1.25"/>
      </g>
     </g>
     <g id="text_8">
      <!-- A01_PPCDC -->
      <g style="fill: #262626" transform="translate(232.83 51.803388) scale(0.11 -0.11)">
       <use xlink:href="#DejaVuSans-41"/>
       <use xlink:href="#DejaVuSans-30" x="68.408203"/>
       <use xlink:href="#DejaVuSans-31" x="132.03125"/>
       <use xlink:href="#DejaVuSans-5f" x="195.654297"/>
       <use xlink:href="#DejaVuSans-50" x="245.654297"/>
       <use xlink:href="#DejaVuSans-50" x="305.957031"/>
       <use xlink:href="#DejaVuSans-43" x="366.259766"/>
       <use xlink:href="#DejaVuSans-44" x="436.083984"/>
       <use xlink:href="#DejaVuSans-43" x="513.085938"/>
      </g>
     </g>
    </g>
    <g id="ytick_2">
     <g id="line2d_2">
      <g>
       <use xlink:href="#m04a4753dda" x="223.33" y="74.738071" style="fill: #262626; stroke: #262626; stroke-width: 1.25"/>
      </g>
     </g>
     <g id="text_9">
      <!-- M01_SOCS2 -->
      <g style="fill: #262626" transform="translate(232.83 78.820103) scale(0.11 -0.11)">
       <use xlink:href="#DejaVuSans-4d"/>
       <use xlink:href="#DejaVuSans-30" x="86.279297"/>
       <use xlink:href="#DejaVuSans-31" x="149.902344"/>
       <use xlink:href="#DejaVuSans-5f" x="213.525391"/>
       <use xlink:href="#DejaVuSans-53" x="263.525391"/>
       <use xlink:href="#DejaVuSans-4f" x="327.001953"/>
       <use xlink:href="#DejaVuSans-43" x="405.712891"/>
       <use xlink:href="#DejaVuSans-53" x="475.537109"/>
       <use xlink:href="#DejaVuSans-32" x="539.013672"/>
      </g>
     </g>
    </g>
    <g id="ytick_3">
     <g id="line2d_3">
      <g>
       <use xlink:href="#m04a4753dda" x="223.33" y="101.754786" style="fill: #262626; stroke: #262626; stroke-width: 1.25"/>
      </g>
     </g>
     <g id="text_10">
      <!-- I01_CLDN3 -->
      <g style="fill: #262626" transform="translate(232.83 105.836817) scale(0.11 -0.11)">
       <use xlink:href="#DejaVuSans-49"/>
       <use xlink:href="#DejaVuSans-30" x="29.492188"/>
       <use xlink:href="#DejaVuSans-31" x="93.115234"/>
       <use xlink:href="#DejaVuSans-5f" x="156.738281"/>
       <use xlink:href="#DejaVuSans-43" x="206.738281"/>
       <use xlink:href="#DejaVuSans-4c" x="276.5625"/>
       <use xlink:href="#DejaVuSans-44" x="332.275391"/>
       <use xlink:href="#DejaVuSans-4e" x="409.277344"/>
       <use xlink:href="#DejaVuSans-33" x="484.082031"/>
      </g>
     </g>
    </g>
    <g id="ytick_4">
     <g id="line2d_4">
      <g>
       <use xlink:href="#m04a4753dda" x="223.33" y="128.7715" style="fill: #262626; stroke: #262626; stroke-width: 1.25"/>
      </g>
     </g>
     <g id="text_11">
      <!-- G01_RAB30 -->
      <g style="fill: #262626" transform="translate(232.83 132.853531) scale(0.11 -0.11)">
       <use xlink:href="#DejaVuSans-47"/>
       <use xlink:href="#DejaVuSans-30" x="77.490234"/>
       <use xlink:href="#DejaVuSans-31" x="141.113281"/>
       <use xlink:href="#DejaVuSans-5f" x="204.736328"/>
       <use xlink:href="#DejaVuSans-52" x="254.736328"/>
       <use xlink:href="#DejaVuSans-41" x="320.21875"/>
       <use xlink:href="#DejaVuSans-42" x="388.626953"/>
       <use xlink:href="#DejaVuSans-33" x="457.230469"/>
       <use xlink:href="#DejaVuSans-30" x="520.853516"/>
      </g>
     </g>
    </g>
    <g id="ytick_5">
     <g id="line2d_5">
      <g>
       <use xlink:href="#m04a4753dda" x="223.33" y="155.788214" style="fill: #262626; stroke: #262626; stroke-width: 1.25"/>
      </g>
     </g>
     <g id="text_12">
      <!-- E01_NAT14 -->
      <g style="fill: #262626" transform="translate(232.83 159.870246) scale(0.11 -0.11)">
       <use xlink:href="#DejaVuSans-45"/>
       <use xlink:href="#DejaVuSans-30" x="63.183594"/>
       <use xlink:href="#DejaVuSans-31" x="126.806641"/>
       <use xlink:href="#DejaVuSans-5f" x="190.429688"/>
       <use xlink:href="#DejaVuSans-4e" x="240.429688"/>
       <use xlink:href="#DejaVuSans-41" x="315.234375"/>
       <use xlink:href="#DejaVuSans-54" x="375.892578"/>
       <use xlink:href="#DejaVuSans-31" x="436.976562"/>
       <use xlink:href="#DejaVuSans-34" x="500.599609"/>
      </g>
     </g>
    </g>
    <g id="ytick_6">
     <g id="line2d_6">
      <g>
       <use xlink:href="#m04a4753dda" x="223.33" y="182.804929" style="fill: #262626; stroke: #262626; stroke-width: 1.25"/>
      </g>
     </g>
     <g id="text_13">
      <!-- O01_SRI -->
      <g style="fill: #262626" transform="translate(232.83 186.88696) scale(0.11 -0.11)">
       <use xlink:href="#DejaVuSans-4f"/>
       <use xlink:href="#DejaVuSans-30" x="78.710938"/>
       <use xlink:href="#DejaVuSans-31" x="142.333984"/>
       <use xlink:href="#DejaVuSans-5f" x="205.957031"/>
       <use xlink:href="#DejaVuSans-53" x="255.957031"/>
       <use xlink:href="#DejaVuSans-52" x="319.433594"/>
       <use xlink:href="#DejaVuSans-49" x="388.916016"/>
      </g>
     </g>
    </g>
    <g id="ytick_7">
     <g id="line2d_7">
      <g>
       <use xlink:href="#m04a4753dda" x="223.33" y="209.821643" style="fill: #262626; stroke: #262626; stroke-width: 1.25"/>
      </g>
     </g>
     <g id="text_14">
      <!-- C01_ALMS1P1 -->
      <g style="fill: #262626" transform="translate(232.83 213.903674) scale(0.11 -0.11)">
       <use xlink:href="#DejaVuSans-43"/>
       <use xlink:href="#DejaVuSans-30" x="69.824219"/>
       <use xlink:href="#DejaVuSans-31" x="133.447266"/>
       <use xlink:href="#DejaVuSans-5f" x="197.070312"/>
       <use xlink:href="#DejaVuSans-41" x="247.070312"/>
       <use xlink:href="#DejaVuSans-4c" x="315.478516"/>
       <use xlink:href="#DejaVuSans-4d" x="371.191406"/>
       <use xlink:href="#DejaVuSans-53" x="457.470703"/>
       <use xlink:href="#DejaVuSans-31" x="520.947266"/>
       <use xlink:href="#DejaVuSans-50" x="584.570312"/>
       <use xlink:href="#DejaVuSans-31" x="644.873047"/>
      </g>
     </g>
    </g>
   </g>
   <g id="QuadMesh_1">
    <path d="M 34.213 34.213 
L 61.229714 34.213 
L 61.229714 61.229714 
L 34.213 61.229714 
L 34.213 34.213 
" clip-path="url(#pfec90fecca)" style="fill: #053061"/>
    <path d="M 61.229714 34.213 
L 88.246429 34.213 
L 88.246429 61.229714 
L 61.229714 61.229714 
L 61.229714 34.213 
" clip-path="url(#pfec90fecca)" style="fill: #053061"/>
    <path d="M 88.246429 34.213 
L 115.263143 34.213 
L 115.263143 61.229714 
L 88.246429 61.229714 
L 88.246429 34.213 
" clip-path="url(#pfec90fecca)" style="fill: #053061"/>
    <path d="M 115.263143 34.213 
L 142.279857 34.213 
L 142.279857 61.229714 
L 115.263143 61.229714 
L 115.263143 34.213 
" clip-path="url(#pfec90fecca)" style="fill: #053061"/>
    <path d="M 142.279857 34.213 
L 169.296571 34.213 
L 169.296571 61.229714 
L 142.279857 61.229714 
L 142.279857 34.213 
" clip-path="url(#pfec90fecca)" style="fill: #053061"/>
    <path d="M 169.296571 34.213 
L 196.313286 34.213 
L 196.313286 61.229714 
L 169.296571 61.229714 
L 169.296571 34.213 
" clip-path="url(#pfec90fecca)" style="fill: #053061"/>
    <path d="M 196.313286 34.213 
L 223.33 34.213 
L 223.33 61.229714 
L 196.313286 61.229714 
L 196.313286 34.213 
" clip-path="url(#pfec90fecca)" style="fill: #053061"/>
    <path d="M 34.213 61.229714 
L 61.229714 61.229714 
L 61.229714 88.246429 
L 34.213 88.246429 
L 34.213 61.229714 
" clip-path="url(#pfec90fecca)" style="fill: #053061"/>
    <path d="M 61.229714 61.229714 
L 88.246429 61.229714 
L 88.246429 88.246429 
L 61.229714 88.246429 
L 61.229714 61.229714 
" clip-path="url(#pfec90fecca)" style="fill: #053061"/>
    <path d="M 88.246429 61.229714 
L 115.263143 61.229714 
L 115.263143 88.246429 
L 88.246429 88.246429 
L 88.246429 61.229714 
" clip-path="url(#pfec90fecca)" style="fill: #053061"/>
    <path d="M 115.263143 61.229714 
L 142.279857 61.229714 
L 142.279857 88.246429 
L 115.263143 88.246429 
L 115.263143 61.229714 
" clip-path="url(#pfec90fecca)" style="fill: #053061"/>
    <path d="M 142.279857 61.229714 
L 169.296571 61.229714 
L 169.296571 88.246429 
L 142.279857 88.246429 
L 142.279857 61.229714 
" clip-path="url(#pfec90fecca)" style="fill: #053061"/>
    <path d="M 169.296571 61.229714 
L 196.313286 61.229714 
L 196.313286 88.246429 
L 169.296571 88.246429 
L 169.296571 61.229714 
" clip-path="url(#pfec90fecca)" style="fill: #053061"/>
    <path d="M 196.313286 61.229714 
L 223.33 61.229714 
L 223.33 88.246429 
L 196.313286 88.246429 
L 196.313286 61.229714 
" clip-path="url(#pfec90fecca)" style="fill: #053061"/>
    <path d="M 34.213 88.246429 
L 61.229714 88.246429 
L 61.229714 115.263143 
L 34.213 115.263143 
L 34.213 88.246429 
" clip-path="url(#pfec90fecca)" style="fill: #053061"/>
    <path d="M 61.229714 88.246429 
L 88.246429 88.246429 
L 88.246429 115.263143 
L 61.229714 115.263143 
L 61.229714 88.246429 
" clip-path="url(#pfec90fecca)" style="fill: #053061"/>
    <path d="M 88.246429 88.246429 
L 115.263143 88.246429 
L 115.263143 115.263143 
L 88.246429 115.263143 
L 88.246429 88.246429 
" clip-path="url(#pfec90fecca)" style="fill: #053061"/>
    <path d="M 115.263143 88.246429 
L 142.279857 88.246429 
L 142.279857 115.263143 
L 115.263143 115.263143 
L 115.263143 88.246429 
" clip-path="url(#pfec90fecca)" style="fill: #053061"/>
    <path d="M 142.279857 88.246429 
L 169.296571 88.246429 
L 169.296571 115.263143 
L 142.279857 115.263143 
L 142.279857 88.246429 
" clip-path="url(#pfec90fecca)" style="fill: #053061"/>
    <path d="M 169.296571 88.246429 
L 196.313286 88.246429 
L 196.313286 115.263143 
L 169.296571 115.263143 
L 169.296571 88.246429 
" clip-path="url(#pfec90fecca)" style="fill: #053061"/>
    <path d="M 196.313286 88.246429 
L 223.33 88.246429 
L 223.33 115.263143 
L 196.313286 115.263143 
L 196.313286 88.246429 
" clip-path="url(#pfec90fecca)" style="fill: #053061"/>
    <path d="M 34.213 115.263143 
L 61.229714 115.263143 
L 61.229714 142.279857 
L 34.213 142.279857 
L 34.213 115.263143 
" clip-path="url(#pfec90fecca)" style="fill: #053061"/>
    <path d="M 61.229714 115.263143 
L 88.246429 115.263143 
L 88.246429 142.279857 
L 61.229714 142.279857 
L 61.229714 115.263143 
" clip-path="url(#pfec90fecca)" style="fill: #053061"/>
    <path d="M 88.246429 115.263143 
L 115.263143 115.263143 
L 115.263143 142.279857 
L 88.246429 142.279857 
L 88.246429 115.263143 
" clip-path="url(#pfec90fecca)" style="fill: #053061"/>
    <path d="M 115.263143 115.263143 
L 142.279857 115.263143 
L 142.279857 142.279857 
L 115.263143 142.279857 
L 115.263143 115.263143 
" clip-path="url(#pfec90fecca)" style="fill: #053061"/>
    <path d="M 142.279857 115.263143 
L 169.296571 115.263143 
L 169.296571 142.279857 
L 142.279857 142.279857 
L 142.279857 115.263143 
" clip-path="url(#pfec90fecca)" style="fill: #053061"/>
    <path d="M 169.296571 115.263143 
L 196.313286 115.263143 
L 196.313286 142.279857 
L 169.296571 142.279857 
L 169.296571 115.263143 
" clip-path="url(#pfec90fecca)" style="fill: #053061"/>
    <path d="M 196.313286 115.263143 
L 223.33 115.263143 
L 223.33 142.279857 
L 196.313286 142.279857 
L 196.313286 115.263143 
" clip-path="url(#pfec90fecca)" style="fill: #053061"/>
    <path d="M 34.213 142.279857 
L 61.229714 142.279857 
L 61.229714 169.296571 
L 34.213 169.296571 
L 34.213 142.279857 
" clip-path="url(#pfec90fecca)" style="fill: #053061"/>
    <path d="M 61.229714 142.279857 
L 88.246429 142.279857 
L 88.246429 169.296571 
L 61.229714 169.296571 
L 61.229714 142.279857 
" clip-path="url(#pfec90fecca)" style="fill: #053061"/>
    <path d="M 88.246429 142.279857 
L 115.263143 142.279857 
L 115.263143 169.296571 
L 88.246429 169.296571 
L 88.246429 142.279857 
" clip-path="url(#pfec90fecca)" style="fill: #053061"/>
    <path d="M 115.263143 142.279857 
L 142.279857 142.279857 
L 142.279857 169.296571 
L 115.263143 169.296571 
L 115.263143 142.279857 
" clip-path="url(#pfec90fecca)" style="fill: #053061"/>
    <path d="M 142.279857 142.279857 
L 169.296571 142.279857 
L 169.296571 169.296571 
L 142.279857 169.296571 
L 142.279857 142.279857 
" clip-path="url(#pfec90fecca)" style="fill: #053061"/>
    <path d="M 169.296571 142.279857 
L 196.313286 142.279857 
L 196.313286 169.296571 
L 169.296571 169.296571 
L 169.296571 142.279857 
" clip-path="url(#pfec90fecca)" style="fill: #053061"/>
    <path d="M 196.313286 142.279857 
L 223.33 142.279857 
L 223.33 169.296571 
L 196.313286 169.296571 
L 196.313286 142.279857 
" clip-path="url(#pfec90fecca)" style="fill: #053061"/>
    <path d="M 34.213 169.296571 
L 61.229714 169.296571 
L 61.229714 196.313286 
L 34.213 196.313286 
L 34.213 169.296571 
" clip-path="url(#pfec90fecca)" style="fill: #053061"/>
    <path d="M 61.229714 169.296571 
L 88.246429 169.296571 
L 88.246429 196.313286 
L 61.229714 196.313286 
L 61.229714 169.296571 
" clip-path="url(#pfec90fecca)" style="fill: #053061"/>
    <path d="M 88.246429 169.296571 
L 115.263143 169.296571 
L 115.263143 196.313286 
L 88.246429 196.313286 
L 88.246429 169.296571 
" clip-path="url(#pfec90fecca)" style="fill: #053061"/>
    <path d="M 115.263143 169.296571 
L 142.279857 169.296571 
L 142.279857 196.313286 
L 115.263143 196.313286 
L 115.263143 169.296571 
" clip-path="url(#pfec90fecca)" style="fill: #053061"/>
    <path d="M 142.279857 169.296571 
L 169.296571 169.296571 
L 169.296571 196.313286 
L 142.279857 196.313286 
L 142.279857 169.296571 
" clip-path="url(#pfec90fecca)" style="fill: #053061"/>
    <path d="M 169.296571 169.296571 
L 196.313286 169.296571 
L 196.313286 196.313286 
L 169.296571 196.313286 
L 169.296571 169.296571 
" clip-path="url(#pfec90fecca)" style="fill: #053061"/>
    <path d="M 196.313286 169.296571 
L 223.33 169.296571 
L 223.33 196.313286 
L 196.313286 196.313286 
L 196.313286 169.296571 
" clip-path="url(#pfec90fecca)" style="fill: #053061"/>
    <path d="M 34.213 196.313286 
L 61.229714 196.313286 
L 61.229714 223.33 
L 34.213 223.33 
L 34.213 196.313286 
" clip-path="url(#pfec90fecca)" style="fill: #053061"/>
    <path d="M 61.229714 196.313286 
L 88.246429 196.313286 
L 88.246429 223.33 
L 61.229714 223.33 
L 61.229714 196.313286 
" clip-path="url(#pfec90fecca)" style="fill: #053061"/>
    <path d="M 88.246429 196.313286 
L 115.263143 196.313286 
L 115.263143 223.33 
L 88.246429 223.33 
L 88.246429 196.313286 
" clip-path="url(#pfec90fecca)" style="fill: #053061"/>
    <path d="M 115.263143 196.313286 
L 142.279857 196.313286 
L 142.279857 223.33 
L 115.263143 223.33 
L 115.263143 196.313286 
" clip-path="url(#pfec90fecca)" style="fill: #053061"/>
    <path d="M 142.279857 196.313286 
L 169.296571 196.313286 
L 169.296571 223.33 
L 142.279857 223.33 
L 142.279857 196.313286 
" clip-path="url(#pfec90fecca)" style="fill: #053061"/>
    <path d="M 169.296571 196.313286 
L 196.313286 196.313286 
L 196.313286 223.33 
L 169.296571 223.33 
L 169.296571 196.313286 
" clip-path="url(#pfec90fecca)" style="fill: #053061"/>
    <path d="M 196.313286 196.313286 
L 223.33 196.313286 
L 223.33 223.33 
L 196.313286 223.33 
L 196.313286 196.313286 
" clip-path="url(#pfec90fecca)" style="fill: #053061"/>
   </g>
  </g>
 </g>
 <defs>
  <clipPath id="p781eddfddf">
   <rect x="12.96" y="34.213" width="21.013" height="189.117"/>
  </clipPath>
  <clipPath id="p1194f110e0">
   <rect x="34.213" y="12.96" width="189.117" height="21.013"/>
  </clipPath>
  <clipPath id="pfec90fecca">
   <rect x="34.213" y="34.213" width="189.117" height="189.117"/>
  </clipPath>
 </defs>
</svg>
