<?xml version="1.0" encoding="utf-8" standalone="no"?>
<!DOCTYPE svg PUBLIC "-//W3C//DTD SVG 1.1//EN"
  "http://www.w3.org/Graphics/SVG/1.1/DTD/svg11.dtd">
<svg xmlns:xlink="http://www.w3.org/1999/xlink" width="460.8pt" height="345.6pt" viewBox="0 0 460.8 345.6" xmlns="http://www.w3.org/2000/svg" version="1.1">
 <metadata>
  <rdf:RDF xmlns:dc="http://purl.org/dc/elements/1.1/" xmlns:cc="http://creativecommons.org/ns#" xmlns:rdf="http://www.w3.org/1999/02/22-rdf-syntax-ns#">
   <cc:Work>
    <dc:type rdf:resource="http://purl.org/dc/dcmitype/StillImage"/>
    <dc:date>2024-05-03T14:55:40.604610</dc:date>
    <dc:format>image/svg+xml</dc:format>
    <dc:creator>
     <cc:Agent>
      <dc:title>Matplotlib v3.6.2, https://matplotlib.org/</dc:title>
     </cc:Agent>
    </dc:creator>
   </cc:Work>
  </rdf:RDF>
 </metadata>
 <defs>
  <style type="text/css">*{stroke-linejoin: round; stroke-linecap: butt}</style>
 </defs>
 <g id="figure_1">
  <g id="patch_1">
   <path d="M 0 345.6 
L 460.8 345.6 
L 460.8 0 
L 0 0 
z
" style="fill: #ffffff"/>
  </g>
  <g id="axes_1">
   <g id="patch_2">
    <path d="M 57.6 307.584 
L 414.72 307.584 
L 414.72 41.472 
L 57.6 41.472 
z
" style="fill: #ffffff"/>
   </g>
   <g id="patch_3">
    <path d="M 73.832727 307.584 
L 79.958272 307.584 
L 79.958272 54.144 
L 73.832727 54.144 
z
" clip-path="url(#pade4b1fe97)" style="fill: #ff7f0e; fill-opacity: 0.5; stroke: #000000; stroke-width: 0.612554; stroke-linejoin: miter"/>
   </g>
   <g id="patch_4">
    <path d="M 79.95831 307.584 
L 86.083893 307.584 
L 86.083893 102.112263 
L 79.95831 102.112263 
z
" clip-path="url(#pade4b1fe97)" style="fill: #ff7f0e; fill-opacity: 0.5; stroke: #000000; stroke-width: 0.612554; stroke-linejoin: miter"/>
   </g>
   <g id="patch_5">
    <path d="M 86.083893 307.584 
L 92.209438 307.584 
L 92.209438 127.228212 
L 86.083893 127.228212 
z
" clip-path="url(#pade4b1fe97)" style="fill: #ff7f0e; fill-opacity: 0.5; stroke: #000000; stroke-width: 0.612554; stroke-linejoin: miter"/>
   </g>
   <g id="patch_6">
    <path d="M 92.209399 307.584 
L 98.334943 307.584 
L 98.334943 164.031956 
L 92.209399 164.031956 
z
" clip-path="url(#pade4b1fe97)" style="fill: #ff7f0e; fill-opacity: 0.5; stroke: #000000; stroke-width: 0.612554; stroke-linejoin: miter"/>
   </g>
   <g id="patch_7">
    <path d="M 98.334982 307.584 
L 104.460565 307.584 
L 104.460565 185.487043 
L 98.334982 185.487043 
z
" clip-path="url(#pade4b1fe97)" style="fill: #ff7f0e; fill-opacity: 0.5; stroke: #000000; stroke-width: 0.612554; stroke-linejoin: miter"/>
   </g>
   <g id="patch_8">
    <path d="M 104.460565 307.584 
L 110.586109 307.584 
L 110.586109 210.777944 
L 104.460565 210.777944 
z
" clip-path="url(#pade4b1fe97)" style="fill: #ff7f0e; fill-opacity: 0.5; stroke: #000000; stroke-width: 0.612554; stroke-linejoin: miter"/>
   </g>
   <g id="patch_9">
    <path d="M 110.586071 307.584 
L 116.711615 307.584 
L 116.711615 224.557544 
L 110.586071 224.557544 
z
" clip-path="url(#pade4b1fe97)" style="fill: #ff7f0e; fill-opacity: 0.5; stroke: #000000; stroke-width: 0.612554; stroke-linejoin: miter"/>
   </g>
   <g id="patch_10">
    <path d="M 116.711654 307.584 
L 122.837237 307.584 
L 122.837237 246.535521 
L 116.711654 246.535521 
z
" clip-path="url(#pade4b1fe97)" style="fill: #ff7f0e; fill-opacity: 0.5; stroke: #000000; stroke-width: 0.612554; stroke-linejoin: miter"/>
   </g>
   <g id="patch_11">
    <path d="M 122.837237 307.584 
L 128.962781 307.584 
L 128.962781 251.59347 
L 122.837237 251.59347 
z
" clip-path="url(#pade4b1fe97)" style="fill: #ff7f0e; fill-opacity: 0.5; stroke: #000000; stroke-width: 0.612554; stroke-linejoin: miter"/>
   </g>
   <g id="patch_12">
    <path d="M 128.962742 307.584 
L 135.088287 307.584 
L 135.088287 267.815025 
L 128.962742 267.815025 
z
" clip-path="url(#pade4b1fe97)" style="fill: #ff7f0e; fill-opacity: 0.5; stroke: #000000; stroke-width: 0.612554; stroke-linejoin: miter"/>
   </g>
   <g id="patch_13">
    <path d="M 135.088325 307.584 
L 141.213908 307.584 
L 141.213908 275.315518 
L 135.088325 275.315518 
z
" clip-path="url(#pade4b1fe97)" style="fill: #ff7f0e; fill-opacity: 0.5; stroke: #000000; stroke-width: 0.612554; stroke-linejoin: miter"/>
   </g>
   <g id="patch_14">
    <path d="M 141.213908 307.584 
L 147.339453 307.584 
L 147.339453 274.443188 
L 141.213908 274.443188 
z
" clip-path="url(#pade4b1fe97)" style="fill: #ff7f0e; fill-opacity: 0.5; stroke: #000000; stroke-width: 0.612554; stroke-linejoin: miter"/>
   </g>
   <g id="patch_15">
    <path d="M 147.339414 307.584 
L 153.464958 307.584 
L 153.464958 280.896925 
L 147.339414 280.896925 
z
" clip-path="url(#pade4b1fe97)" style="fill: #ff7f0e; fill-opacity: 0.5; stroke: #000000; stroke-width: 0.612554; stroke-linejoin: miter"/>
   </g>
   <g id="patch_16">
    <path d="M 153.464997 307.584 
L 159.59058 307.584 
L 159.59058 285.780972 
L 153.464997 285.780972 
z
" clip-path="url(#pade4b1fe97)" style="fill: #ff7f0e; fill-opacity: 0.5; stroke: #000000; stroke-width: 0.612554; stroke-linejoin: miter"/>
   </g>
   <g id="patch_17">
    <path d="M 159.59058 307.584 
L 165.716124 307.584 
L 165.716124 288.746065 
L 159.59058 288.746065 
z
" clip-path="url(#pade4b1fe97)" style="fill: #ff7f0e; fill-opacity: 0.5; stroke: #000000; stroke-width: 0.612554; stroke-linejoin: miter"/>
   </g>
   <g id="patch_18">
    <path d="M 165.716086 307.584 
L 171.84163 307.584 
L 171.84163 291.362445 
L 165.716086 291.362445 
z
" clip-path="url(#pade4b1fe97)" style="fill: #ff7f0e; fill-opacity: 0.5; stroke: #000000; stroke-width: 0.612554; stroke-linejoin: miter"/>
   </g>
   <g id="patch_19">
    <path d="M 171.841669 307.584 
L 177.967252 307.584 
L 177.967252 296.072001 
L 171.841669 296.072001 
z
" clip-path="url(#pade4b1fe97)" style="fill: #ff7f0e; fill-opacity: 0.5; stroke: #000000; stroke-width: 0.612554; stroke-linejoin: miter"/>
   </g>
   <g id="patch_20">
    <path d="M 177.967252 307.584 
L 184.092796 307.584 
L 184.092796 297.467331 
L 177.967252 297.467331 
z
" clip-path="url(#pade4b1fe97)" style="fill: #ff7f0e; fill-opacity: 0.5; stroke: #000000; stroke-width: 0.612554; stroke-linejoin: miter"/>
   </g>
   <g id="patch_21">
    <path d="M 184.092757 307.584 
L 190.218302 307.584 
L 190.218302 299.211584 
L 184.092757 299.211584 
z
" clip-path="url(#pade4b1fe97)" style="fill: #ff7f0e; fill-opacity: 0.5; stroke: #000000; stroke-width: 0.612554; stroke-linejoin: miter"/>
   </g>
   <g id="patch_22">
    <path d="M 190.21834 307.584 
L 196.343923 307.584 
L 196.343923 300.432607 
L 190.21834 300.432607 
z
" clip-path="url(#pade4b1fe97)" style="fill: #ff7f0e; fill-opacity: 0.5; stroke: #000000; stroke-width: 0.612554; stroke-linejoin: miter"/>
   </g>
   <g id="patch_23">
    <path d="M 196.343923 307.584 
L 202.469468 307.584 
L 202.469468 302.525666 
L 196.343923 302.525666 
z
" clip-path="url(#pade4b1fe97)" style="fill: #ff7f0e; fill-opacity: 0.5; stroke: #000000; stroke-width: 0.612554; stroke-linejoin: miter"/>
   </g>
   <g id="patch_24">
    <path d="M 202.469429 307.584 
L 208.594973 307.584 
L 208.594973 302.874516 
L 202.469429 302.874516 
z
" clip-path="url(#pade4b1fe97)" style="fill: #ff7f0e; fill-opacity: 0.5; stroke: #000000; stroke-width: 0.612554; stroke-linejoin: miter"/>
   </g>
   <g id="patch_25">
    <path d="M 208.595012 307.584 
L 214.720595 307.584 
L 214.720595 302.002425 
L 208.595012 302.002425 
z
" clip-path="url(#pade4b1fe97)" style="fill: #ff7f0e; fill-opacity: 0.5; stroke: #000000; stroke-width: 0.612554; stroke-linejoin: miter"/>
   </g>
   <g id="patch_26">
    <path d="M 214.720595 307.584 
L 220.846139 307.584 
L 220.846139 302.700091 
L 214.720595 302.700091 
z
" clip-path="url(#pade4b1fe97)" style="fill: #ff7f0e; fill-opacity: 0.5; stroke: #000000; stroke-width: 0.612554; stroke-linejoin: miter"/>
   </g>
   <g id="patch_27">
    <path d="M 220.846101 307.584 
L 226.971645 307.584 
L 226.971645 304.793195 
L 220.846101 304.793195 
z
" clip-path="url(#pade4b1fe97)" style="fill: #ff7f0e; fill-opacity: 0.5; stroke: #000000; stroke-width: 0.612554; stroke-linejoin: miter"/>
   </g>
   <g id="patch_28">
    <path d="M 226.971684 307.584 
L 233.097267 307.584 
L 233.097267 304.444364 
L 226.971684 304.444364 
z
" clip-path="url(#pade4b1fe97)" style="fill: #ff7f0e; fill-opacity: 0.5; stroke: #000000; stroke-width: 0.612554; stroke-linejoin: miter"/>
   </g>
   <g id="patch_29">
    <path d="M 233.097267 307.584 
L 239.222811 307.584 
L 239.222811 305.316471 
L 233.097267 305.316471 
z
" clip-path="url(#pade4b1fe97)" style="fill: #ff7f0e; fill-opacity: 0.5; stroke: #000000; stroke-width: 0.612554; stroke-linejoin: miter"/>
   </g>
   <g id="patch_30">
    <path d="M 239.222811 307.584 
L 245.348394 307.584 
L 245.348394 305.490909 
L 239.222811 305.490909 
z
" clip-path="url(#pade4b1fe97)" style="fill: #ff7f0e; fill-opacity: 0.5; stroke: #000000; stroke-width: 0.612554; stroke-linejoin: miter"/>
   </g>
   <g id="patch_31">
    <path d="M 245.348355 307.584 
L 251.473899 307.584 
L 251.473899 305.665321 
L 245.348355 305.665321 
z
" clip-path="url(#pade4b1fe97)" style="fill: #ff7f0e; fill-opacity: 0.5; stroke: #000000; stroke-width: 0.612554; stroke-linejoin: miter"/>
   </g>
   <g id="patch_32">
    <path d="M 251.473938 307.584 
L 257.599483 307.584 
L 257.599483 306.711873 
L 251.473938 306.711873 
z
" clip-path="url(#pade4b1fe97)" style="fill: #ff7f0e; fill-opacity: 0.5; stroke: #000000; stroke-width: 0.612554; stroke-linejoin: miter"/>
   </g>
   <g id="patch_33">
    <path d="M 257.599483 307.584 
L 263.725066 307.584 
L 263.725066 306.36303 
L 257.599483 306.36303 
z
" clip-path="url(#pade4b1fe97)" style="fill: #ff7f0e; fill-opacity: 0.5; stroke: #000000; stroke-width: 0.612554; stroke-linejoin: miter"/>
   </g>
   <g id="patch_34">
    <path d="M 263.725027 307.584 
L 269.850571 307.584 
L 269.850571 306.363023 
L 263.725027 306.363023 
z
" clip-path="url(#pade4b1fe97)" style="fill: #ff7f0e; fill-opacity: 0.5; stroke: #000000; stroke-width: 0.612554; stroke-linejoin: miter"/>
   </g>
   <g id="patch_35">
    <path d="M 269.85061 307.584 
L 275.976154 307.584 
L 275.976154 306.886299 
L 269.85061 306.886299 
z
" clip-path="url(#pade4b1fe97)" style="fill: #ff7f0e; fill-opacity: 0.5; stroke: #000000; stroke-width: 0.612554; stroke-linejoin: miter"/>
   </g>
   <g id="patch_36">
    <path d="M 275.976154 307.584 
L 282.101737 307.584 
L 282.101737 307.060727 
L 275.976154 307.060727 
z
" clip-path="url(#pade4b1fe97)" style="fill: #ff7f0e; fill-opacity: 0.5; stroke: #000000; stroke-width: 0.612554; stroke-linejoin: miter"/>
   </g>
   <g id="patch_37">
    <path d="M 282.101698 307.584 
L 288.227243 307.584 
L 288.227243 306.711873 
L 282.101698 306.711873 
z
" clip-path="url(#pade4b1fe97)" style="fill: #ff7f0e; fill-opacity: 0.5; stroke: #000000; stroke-width: 0.612554; stroke-linejoin: miter"/>
   </g>
   <g id="patch_38">
    <path d="M 288.227282 307.584 
L 294.352826 307.584 
L 294.352826 306.886299 
L 288.227282 306.886299 
z
" clip-path="url(#pade4b1fe97)" style="fill: #ff7f0e; fill-opacity: 0.5; stroke: #000000; stroke-width: 0.612554; stroke-linejoin: miter"/>
   </g>
   <g id="patch_39">
    <path d="M 294.352826 307.584 
L 300.478409 307.584 
L 300.478409 306.886303 
L 294.352826 306.886303 
z
" clip-path="url(#pade4b1fe97)" style="fill: #ff7f0e; fill-opacity: 0.5; stroke: #000000; stroke-width: 0.612554; stroke-linejoin: miter"/>
   </g>
   <g id="patch_40">
    <path d="M 300.47837 307.584 
L 306.603914 307.584 
L 306.603914 306.886299 
L 300.47837 306.886299 
z
" clip-path="url(#pade4b1fe97)" style="fill: #ff7f0e; fill-opacity: 0.5; stroke: #000000; stroke-width: 0.612554; stroke-linejoin: miter"/>
   </g>
   <g id="patch_41">
    <path d="M 306.603953 307.584 
L 312.729497 307.584 
L 312.729497 307.235149 
L 306.603953 307.235149 
z
" clip-path="url(#pade4b1fe97)" style="fill: #ff7f0e; fill-opacity: 0.5; stroke: #000000; stroke-width: 0.612554; stroke-linejoin: miter"/>
   </g>
   <g id="patch_42">
    <path d="M 312.729497 307.584 
L 318.85508 307.584 
L 318.85508 307.060727 
L 312.729497 307.060727 
z
" clip-path="url(#pade4b1fe97)" style="fill: #ff7f0e; fill-opacity: 0.5; stroke: #000000; stroke-width: 0.612554; stroke-linejoin: miter"/>
   </g>
   <g id="patch_43">
    <path d="M 318.855042 307.584 
L 324.980586 307.584 
L 324.980586 307.060724 
L 318.855042 307.060724 
z
" clip-path="url(#pade4b1fe97)" style="fill: #ff7f0e; fill-opacity: 0.5; stroke: #000000; stroke-width: 0.612554; stroke-linejoin: miter"/>
   </g>
   <g id="patch_44">
    <path d="M 324.980625 307.584 
L 331.106169 307.584 
L 331.106169 307.584 
L 324.980625 307.584 
z
" clip-path="url(#pade4b1fe97)" style="fill: #ff7f0e; fill-opacity: 0.5; stroke: #000000; stroke-width: 0.612554; stroke-linejoin: miter"/>
   </g>
   <g id="patch_45">
    <path d="M 331.106169 307.584 
L 337.231752 307.584 
L 337.231752 307.060727 
L 331.106169 307.060727 
z
" clip-path="url(#pade4b1fe97)" style="fill: #ff7f0e; fill-opacity: 0.5; stroke: #000000; stroke-width: 0.612554; stroke-linejoin: miter"/>
   </g>
   <g id="patch_46">
    <path d="M 337.231713 307.584 
L 343.357258 307.584 
L 343.357258 307.584 
L 337.231713 307.584 
z
" clip-path="url(#pade4b1fe97)" style="fill: #ff7f0e; fill-opacity: 0.5; stroke: #000000; stroke-width: 0.612554; stroke-linejoin: miter"/>
   </g>
   <g id="patch_47">
    <path d="M 343.357296 307.584 
L 349.482841 307.584 
L 349.482841 307.584 
L 343.357296 307.584 
z
" clip-path="url(#pade4b1fe97)" style="fill: #ff7f0e; fill-opacity: 0.5; stroke: #000000; stroke-width: 0.612554; stroke-linejoin: miter"/>
   </g>
   <g id="patch_48">
    <path d="M 349.482841 307.584 
L 355.608424 307.584 
L 355.608424 307.584 
L 349.482841 307.584 
z
" clip-path="url(#pade4b1fe97)" style="fill: #ff7f0e; fill-opacity: 0.5; stroke: #000000; stroke-width: 0.612554; stroke-linejoin: miter"/>
   </g>
   <g id="patch_49">
    <path d="M 355.608385 307.584 
L 361.733929 307.584 
L 361.733929 307.584 
L 355.608385 307.584 
z
" clip-path="url(#pade4b1fe97)" style="fill: #ff7f0e; fill-opacity: 0.5; stroke: #000000; stroke-width: 0.612554; stroke-linejoin: miter"/>
   </g>
   <g id="patch_50">
    <path d="M 361.733968 307.584 
L 367.859512 307.584 
L 367.859512 307.584 
L 361.733968 307.584 
z
" clip-path="url(#pade4b1fe97)" style="fill: #ff7f0e; fill-opacity: 0.5; stroke: #000000; stroke-width: 0.612554; stroke-linejoin: miter"/>
   </g>
   <g id="patch_51">
    <path d="M 367.859512 307.584 
L 373.985095 307.584 
L 373.985095 307.584 
L 367.859512 307.584 
z
" clip-path="url(#pade4b1fe97)" style="fill: #ff7f0e; fill-opacity: 0.5; stroke: #000000; stroke-width: 0.612554; stroke-linejoin: miter"/>
   </g>
   <g id="patch_52">
    <path d="M 373.985057 307.584 
L 380.110601 307.584 
L 380.110601 307.584 
L 373.985057 307.584 
z
" clip-path="url(#pade4b1fe97)" style="fill: #ff7f0e; fill-opacity: 0.5; stroke: #000000; stroke-width: 0.612554; stroke-linejoin: miter"/>
   </g>
   <g id="patch_53">
    <path d="M 380.11064 307.584 
L 386.236184 307.584 
L 386.236184 307.584 
L 380.11064 307.584 
z
" clip-path="url(#pade4b1fe97)" style="fill: #ff7f0e; fill-opacity: 0.5; stroke: #000000; stroke-width: 0.612554; stroke-linejoin: miter"/>
   </g>
   <g id="patch_54">
    <path d="M 386.236184 307.584 
L 392.361767 307.584 
L 392.361767 307.584 
L 386.236184 307.584 
z
" clip-path="url(#pade4b1fe97)" style="fill: #ff7f0e; fill-opacity: 0.5; stroke: #000000; stroke-width: 0.612554; stroke-linejoin: miter"/>
   </g>
   <g id="patch_55">
    <path d="M 392.361728 307.584 
L 398.487273 307.584 
L 398.487273 307.584 
L 392.361728 307.584 
z
" clip-path="url(#pade4b1fe97)" style="fill: #ff7f0e; fill-opacity: 0.5; stroke: #000000; stroke-width: 0.612554; stroke-linejoin: miter"/>
   </g>
   <g id="patch_56">
    <path d="M 73.832727 307.584 
L 79.958272 307.584 
L 79.958272 274.166527 
L 73.832727 274.166527 
z
" clip-path="url(#pade4b1fe97)" style="fill: #1f77b4; fill-opacity: 0.5; stroke: #000000; stroke-width: 0.612554; stroke-linejoin: miter"/>
   </g>
   <g id="patch_57">
    <path d="M 79.95831 307.584 
L 86.083893 307.584 
L 86.083893 253.280949 
L 79.95831 253.280949 
z
" clip-path="url(#pade4b1fe97)" style="fill: #1f77b4; fill-opacity: 0.5; stroke: #000000; stroke-width: 0.612554; stroke-linejoin: miter"/>
   </g>
   <g id="patch_58">
    <path d="M 86.083893 307.584 
L 92.209438 307.584 
L 92.209438 267.483032 
L 86.083893 267.483032 
z
" clip-path="url(#pade4b1fe97)" style="fill: #1f77b4; fill-opacity: 0.5; stroke: #000000; stroke-width: 0.612554; stroke-linejoin: miter"/>
   </g>
   <g id="patch_59">
    <path d="M 92.209399 307.584 
L 98.334943 307.584 
L 98.334943 262.88813 
L 92.209399 262.88813 
z
" clip-path="url(#pade4b1fe97)" style="fill: #1f77b4; fill-opacity: 0.5; stroke: #000000; stroke-width: 0.612554; stroke-linejoin: miter"/>
   </g>
   <g id="patch_60">
    <path d="M 98.334982 307.584 
L 104.460565 307.584 
L 104.460565 248.686076 
L 98.334982 248.686076 
z
" clip-path="url(#pade4b1fe97)" style="fill: #1f77b4; fill-opacity: 0.5; stroke: #000000; stroke-width: 0.612554; stroke-linejoin: miter"/>
   </g>
   <g id="patch_61">
    <path d="M 104.460565 307.584 
L 110.586109 307.584 
L 110.586109 253.280606 
L 104.460565 253.280606 
z
" clip-path="url(#pade4b1fe97)" style="fill: #1f77b4; fill-opacity: 0.5; stroke: #000000; stroke-width: 0.612554; stroke-linejoin: miter"/>
   </g>
   <g id="patch_62">
    <path d="M 110.586071 307.584 
L 116.711615 307.584 
L 116.711615 281.26774 
L 110.586071 281.26774 
z
" clip-path="url(#pade4b1fe97)" style="fill: #1f77b4; fill-opacity: 0.5; stroke: #000000; stroke-width: 0.612554; stroke-linejoin: miter"/>
   </g>
   <g id="patch_63">
    <path d="M 116.711654 307.584 
L 122.837237 307.584 
L 122.837237 281.267906 
L 116.711654 281.267906 
z
" clip-path="url(#pade4b1fe97)" style="fill: #1f77b4; fill-opacity: 0.5; stroke: #000000; stroke-width: 0.612554; stroke-linejoin: miter"/>
   </g>
   <g id="patch_64">
    <path d="M 122.837237 307.584 
L 128.962781 307.584 
L 128.962781 291.292982 
L 122.837237 291.292982 
z
" clip-path="url(#pade4b1fe97)" style="fill: #1f77b4; fill-opacity: 0.5; stroke: #000000; stroke-width: 0.612554; stroke-linejoin: miter"/>
   </g>
   <g id="patch_65">
    <path d="M 128.962742 307.584 
L 135.088287 307.584 
L 135.088287 297.558758 
L 128.962742 297.558758 
z
" clip-path="url(#pade4b1fe97)" style="fill: #1f77b4; fill-opacity: 0.5; stroke: #000000; stroke-width: 0.612554; stroke-linejoin: miter"/>
   </g>
   <g id="patch_66">
    <path d="M 135.088325 307.584 
L 141.213908 307.584 
L 141.213908 287.115927 
L 135.088325 287.115927 
z
" clip-path="url(#pade4b1fe97)" style="fill: #1f77b4; fill-opacity: 0.5; stroke: #000000; stroke-width: 0.612554; stroke-linejoin: miter"/>
   </g>
   <g id="patch_67">
    <path d="M 141.213908 307.584 
L 147.339453 307.584 
L 147.339453 266.647595 
L 141.213908 266.647595 
z
" clip-path="url(#pade4b1fe97)" style="fill: #1f77b4; fill-opacity: 0.5; stroke: #000000; stroke-width: 0.612554; stroke-linejoin: miter"/>
   </g>
   <g id="patch_68">
    <path d="M 147.339414 307.584 
L 153.464958 307.584 
L 153.464958 264.141285 
L 147.339414 264.141285 
z
" clip-path="url(#pade4b1fe97)" style="fill: #1f77b4; fill-opacity: 0.5; stroke: #000000; stroke-width: 0.612554; stroke-linejoin: miter"/>
   </g>
   <g id="patch_69">
    <path d="M 153.464997 307.584 
L 159.59058 307.584 
L 159.59058 252.027802 
L 153.464997 252.027802 
z
" clip-path="url(#pade4b1fe97)" style="fill: #1f77b4; fill-opacity: 0.5; stroke: #000000; stroke-width: 0.612554; stroke-linejoin: miter"/>
   </g>
   <g id="patch_70">
    <path d="M 159.59058 307.584 
L 165.716124 307.584 
L 165.716124 253.698325 
L 159.59058 253.698325 
z
" clip-path="url(#pade4b1fe97)" style="fill: #1f77b4; fill-opacity: 0.5; stroke: #000000; stroke-width: 0.612554; stroke-linejoin: miter"/>
   </g>
   <g id="patch_71">
    <path d="M 165.716086 307.584 
L 171.84163 307.584 
L 171.84163 266.647595 
L 165.716086 266.647595 
z
" clip-path="url(#pade4b1fe97)" style="fill: #1f77b4; fill-opacity: 0.5; stroke: #000000; stroke-width: 0.612554; stroke-linejoin: miter"/>
   </g>
   <g id="patch_72">
    <path d="M 171.841669 307.584 
L 177.967252 307.584 
L 177.967252 264.976991 
L 171.841669 264.976991 
z
" clip-path="url(#pade4b1fe97)" style="fill: #1f77b4; fill-opacity: 0.5; stroke: #000000; stroke-width: 0.612554; stroke-linejoin: miter"/>
   </g>
   <g id="patch_73">
    <path d="M 177.967252 307.584 
L 184.092796 307.584 
L 184.092796 264.559003 
L 177.967252 264.559003 
z
" clip-path="url(#pade4b1fe97)" style="fill: #1f77b4; fill-opacity: 0.5; stroke: #000000; stroke-width: 0.612554; stroke-linejoin: miter"/>
   </g>
   <g id="patch_74">
    <path d="M 184.092757 307.584 
L 190.218302 307.584 
L 190.218302 299.229632 
L 184.092757 299.229632 
z
" clip-path="url(#pade4b1fe97)" style="fill: #1f77b4; fill-opacity: 0.5; stroke: #000000; stroke-width: 0.612554; stroke-linejoin: miter"/>
   </g>
   <g id="patch_75">
    <path d="M 190.21834 307.584 
L 196.343923 307.584 
L 196.343923 270.407296 
L 190.21834 270.407296 
z
" clip-path="url(#pade4b1fe97)" style="fill: #1f77b4; fill-opacity: 0.5; stroke: #000000; stroke-width: 0.612554; stroke-linejoin: miter"/>
   </g>
   <g id="patch_76">
    <path d="M 196.343923 307.584 
L 202.469468 307.584 
L 202.469468 270.82478 
L 196.343923 270.82478 
z
" clip-path="url(#pade4b1fe97)" style="fill: #1f77b4; fill-opacity: 0.5; stroke: #000000; stroke-width: 0.612554; stroke-linejoin: miter"/>
   </g>
   <g id="patch_77">
    <path d="M 202.469429 307.584 
L 208.594973 307.584 
L 208.594973 266.647595 
L 202.469429 266.647595 
z
" clip-path="url(#pade4b1fe97)" style="fill: #1f77b4; fill-opacity: 0.5; stroke: #000000; stroke-width: 0.612554; stroke-linejoin: miter"/>
   </g>
   <g id="patch_78">
    <path d="M 208.595012 307.584 
L 214.720595 307.584 
L 214.720595 277.508464 
L 208.595012 277.508464 
z
" clip-path="url(#pade4b1fe97)" style="fill: #1f77b4; fill-opacity: 0.5; stroke: #000000; stroke-width: 0.612554; stroke-linejoin: miter"/>
   </g>
   <g id="patch_79">
    <path d="M 214.720595 307.584 
L 220.846139 307.584 
L 220.846139 263.305848 
L 214.720595 263.305848 
z
" clip-path="url(#pade4b1fe97)" style="fill: #1f77b4; fill-opacity: 0.5; stroke: #000000; stroke-width: 0.612554; stroke-linejoin: miter"/>
   </g>
   <g id="patch_80">
    <path d="M 220.846101 307.584 
L 226.971645 307.584 
L 226.971645 249.521141 
L 220.846101 249.521141 
z
" clip-path="url(#pade4b1fe97)" style="fill: #1f77b4; fill-opacity: 0.5; stroke: #000000; stroke-width: 0.612554; stroke-linejoin: miter"/>
   </g>
   <g id="patch_81">
    <path d="M 226.971684 307.584 
L 233.097267 307.584 
L 233.097267 288.369074 
L 226.971684 288.369074 
z
" clip-path="url(#pade4b1fe97)" style="fill: #1f77b4; fill-opacity: 0.5; stroke: #000000; stroke-width: 0.612554; stroke-linejoin: miter"/>
   </g>
   <g id="patch_82">
    <path d="M 233.097267 307.584 
L 239.222811 307.584 
L 239.222811 276.255119 
L 233.097267 276.255119 
z
" clip-path="url(#pade4b1fe97)" style="fill: #1f77b4; fill-opacity: 0.5; stroke: #000000; stroke-width: 0.612554; stroke-linejoin: miter"/>
   </g>
   <g id="patch_83">
    <path d="M 239.222811 307.584 
L 245.348394 307.584 
L 245.348394 281.267906 
L 239.222811 281.267906 
z
" clip-path="url(#pade4b1fe97)" style="fill: #1f77b4; fill-opacity: 0.5; stroke: #000000; stroke-width: 0.612554; stroke-linejoin: miter"/>
   </g>
   <g id="patch_84">
    <path d="M 245.348355 307.584 
L 251.473899 307.584 
L 251.473899 278.343711 
L 245.348355 278.343711 
z
" clip-path="url(#pade4b1fe97)" style="fill: #1f77b4; fill-opacity: 0.5; stroke: #000000; stroke-width: 0.612554; stroke-linejoin: miter"/>
   </g>
   <g id="patch_85">
    <path d="M 251.473938 307.584 
L 257.599483 307.584 
L 257.599483 289.20439 
L 251.473938 289.20439 
z
" clip-path="url(#pade4b1fe97)" style="fill: #1f77b4; fill-opacity: 0.5; stroke: #000000; stroke-width: 0.612554; stroke-linejoin: miter"/>
   </g>
   <g id="patch_86">
    <path d="M 257.599483 307.584 
L 263.725066 307.584 
L 263.725066 276.673033 
L 257.599483 276.673033 
z
" clip-path="url(#pade4b1fe97)" style="fill: #1f77b4; fill-opacity: 0.5; stroke: #000000; stroke-width: 0.612554; stroke-linejoin: miter"/>
   </g>
   <g id="patch_87">
    <path d="M 263.725027 307.584 
L 269.850571 307.584 
L 269.850571 293.381574 
L 263.725027 293.381574 
z
" clip-path="url(#pade4b1fe97)" style="fill: #1f77b4; fill-opacity: 0.5; stroke: #000000; stroke-width: 0.612554; stroke-linejoin: miter"/>
   </g>
   <g id="patch_88">
    <path d="M 269.85061 307.584 
L 275.976154 307.584 
L 275.976154 296.723321 
L 269.85061 296.723321 
z
" clip-path="url(#pade4b1fe97)" style="fill: #1f77b4; fill-opacity: 0.5; stroke: #000000; stroke-width: 0.612554; stroke-linejoin: miter"/>
   </g>
   <g id="patch_89">
    <path d="M 275.976154 307.584 
L 282.101737 307.584 
L 282.101737 299.229685 
L 275.976154 299.229685 
z
" clip-path="url(#pade4b1fe97)" style="fill: #1f77b4; fill-opacity: 0.5; stroke: #000000; stroke-width: 0.612554; stroke-linejoin: miter"/>
   </g>
   <g id="patch_90">
    <path d="M 282.101698 307.584 
L 288.227243 307.584 
L 288.227243 299.229632 
L 282.101698 299.229632 
z
" clip-path="url(#pade4b1fe97)" style="fill: #1f77b4; fill-opacity: 0.5; stroke: #000000; stroke-width: 0.612554; stroke-linejoin: miter"/>
   </g>
   <g id="patch_91">
    <path d="M 288.227282 307.584 
L 294.352826 307.584 
L 294.352826 290.457545 
L 288.227282 290.457545 
z
" clip-path="url(#pade4b1fe97)" style="fill: #1f77b4; fill-opacity: 0.5; stroke: #000000; stroke-width: 0.612554; stroke-linejoin: miter"/>
   </g>
   <g id="patch_92">
    <path d="M 294.352826 307.584 
L 300.478409 307.584 
L 300.478409 300.900548 
L 294.352826 300.900548 
z
" clip-path="url(#pade4b1fe97)" style="fill: #1f77b4; fill-opacity: 0.5; stroke: #000000; stroke-width: 0.612554; stroke-linejoin: miter"/>
   </g>
   <g id="patch_93">
    <path d="M 300.47837 307.584 
L 306.603914 307.584 
L 306.603914 297.14104 
L 300.47837 297.14104 
z
" clip-path="url(#pade4b1fe97)" style="fill: #1f77b4; fill-opacity: 0.5; stroke: #000000; stroke-width: 0.612554; stroke-linejoin: miter"/>
   </g>
   <g id="patch_94">
    <path d="M 306.603953 307.584 
L 312.729497 307.584 
L 312.729497 293.799292 
L 306.603953 293.799292 
z
" clip-path="url(#pade4b1fe97)" style="fill: #1f77b4; fill-opacity: 0.5; stroke: #000000; stroke-width: 0.612554; stroke-linejoin: miter"/>
   </g>
   <g id="patch_95">
    <path d="M 312.729497 307.584 
L 318.85508 307.584 
L 318.85508 294.217095 
L 312.729497 294.217095 
z
" clip-path="url(#pade4b1fe97)" style="fill: #1f77b4; fill-opacity: 0.5; stroke: #000000; stroke-width: 0.612554; stroke-linejoin: miter"/>
   </g>
   <g id="patch_96">
    <path d="M 318.855042 307.584 
L 324.980586 307.584 
L 324.980586 293.799292 
L 318.855042 293.799292 
z
" clip-path="url(#pade4b1fe97)" style="fill: #1f77b4; fill-opacity: 0.5; stroke: #000000; stroke-width: 0.612554; stroke-linejoin: miter"/>
   </g>
   <g id="patch_97">
    <path d="M 324.980625 307.584 
L 331.106169 307.584 
L 331.106169 296.305603 
L 324.980625 296.305603 
z
" clip-path="url(#pade4b1fe97)" style="fill: #1f77b4; fill-opacity: 0.5; stroke: #000000; stroke-width: 0.612554; stroke-linejoin: miter"/>
   </g>
   <g id="patch_98">
    <path d="M 331.106169 307.584 
L 337.231752 307.584 
L 337.231752 295.470243 
L 331.106169 295.470243 
z
" clip-path="url(#pade4b1fe97)" style="fill: #1f77b4; fill-opacity: 0.5; stroke: #000000; stroke-width: 0.612554; stroke-linejoin: miter"/>
   </g>
   <g id="patch_99">
    <path d="M 337.231713 307.584 
L 343.357258 307.584 
L 343.357258 304.242253 
L 337.231713 304.242253 
z
" clip-path="url(#pade4b1fe97)" style="fill: #1f77b4; fill-opacity: 0.5; stroke: #000000; stroke-width: 0.612554; stroke-linejoin: miter"/>
   </g>
   <g id="patch_100">
    <path d="M 343.357296 307.584 
L 349.482841 307.584 
L 349.482841 302.989097 
L 343.357296 302.989097 
z
" clip-path="url(#pade4b1fe97)" style="fill: #1f77b4; fill-opacity: 0.5; stroke: #000000; stroke-width: 0.612554; stroke-linejoin: miter"/>
   </g>
   <g id="patch_101">
    <path d="M 349.482841 307.584 
L 355.608424 307.584 
L 355.608424 307.166284 
L 349.482841 307.166284 
z
" clip-path="url(#pade4b1fe97)" style="fill: #1f77b4; fill-opacity: 0.5; stroke: #000000; stroke-width: 0.612554; stroke-linejoin: miter"/>
   </g>
   <g id="patch_102">
    <path d="M 355.608385 307.584 
L 361.733929 307.584 
L 361.733929 307.166282 
L 355.608385 307.166282 
z
" clip-path="url(#pade4b1fe97)" style="fill: #1f77b4; fill-opacity: 0.5; stroke: #000000; stroke-width: 0.612554; stroke-linejoin: miter"/>
   </g>
   <g id="patch_103">
    <path d="M 361.733968 307.584 
L 367.859512 307.584 
L 367.859512 307.584 
L 361.733968 307.584 
z
" clip-path="url(#pade4b1fe97)" style="fill: #1f77b4; fill-opacity: 0.5; stroke: #000000; stroke-width: 0.612554; stroke-linejoin: miter"/>
   </g>
   <g id="patch_104">
    <path d="M 367.859512 307.584 
L 373.985095 307.584 
L 373.985095 307.584 
L 367.859512 307.584 
z
" clip-path="url(#pade4b1fe97)" style="fill: #1f77b4; fill-opacity: 0.5; stroke: #000000; stroke-width: 0.612554; stroke-linejoin: miter"/>
   </g>
   <g id="patch_105">
    <path d="M 373.985057 307.584 
L 380.110601 307.584 
L 380.110601 307.584 
L 373.985057 307.584 
z
" clip-path="url(#pade4b1fe97)" style="fill: #1f77b4; fill-opacity: 0.5; stroke: #000000; stroke-width: 0.612554; stroke-linejoin: miter"/>
   </g>
   <g id="patch_106">
    <path d="M 380.11064 307.584 
L 386.236184 307.584 
L 386.236184 307.584 
L 380.11064 307.584 
z
" clip-path="url(#pade4b1fe97)" style="fill: #1f77b4; fill-opacity: 0.5; stroke: #000000; stroke-width: 0.612554; stroke-linejoin: miter"/>
   </g>
   <g id="patch_107">
    <path d="M 386.236184 307.584 
L 392.361767 307.584 
L 392.361767 307.584 
L 386.236184 307.584 
z
" clip-path="url(#pade4b1fe97)" style="fill: #1f77b4; fill-opacity: 0.5; stroke: #000000; stroke-width: 0.612554; stroke-linejoin: miter"/>
   </g>
   <g id="patch_108">
    <path d="M 392.361728 307.584 
L 398.487273 307.584 
L 398.487273 103.737414 
L 392.361728 103.737414 
z
" clip-path="url(#pade4b1fe97)" style="fill: #1f77b4; fill-opacity: 0.5; stroke: #000000; stroke-width: 0.612554; stroke-linejoin: miter"/>
   </g>
   <g id="matplotlib.axis_1">
    <g id="xtick_1">
     <g id="line2d_1">
      <defs>
       <path id="m6eb9ce3b9d" d="M 0 0 
L 0 3.5 
" style="stroke: #000000; stroke-width: 0.8"/>
      </defs>
      <g>
       <use xlink:href="#m6eb9ce3b9d" x="73.832185" y="307.584" style="stroke: #000000; stroke-width: 0.8"/>
      </g>
     </g>
     <g id="text_1">
      <!-- 0.5 -->
      <g transform="translate(65.880623 322.182437) scale(0.1 -0.1)">
       <defs>
        <path id="DejaVuSans-30" d="M 2034 4250 
Q 1547 4250 1301 3770 
Q 1056 3291 1056 2328 
Q 1056 1369 1301 889 
Q 1547 409 2034 409 
Q 2525 409 2770 889 
Q 3016 1369 3016 2328 
Q 3016 3291 2770 3770 
Q 2525 4250 2034 4250 
z
M 2034 4750 
Q 2819 4750 3233 4129 
Q 3647 3509 3647 2328 
Q 3647 1150 3233 529 
Q 2819 -91 2034 -91 
Q 1250 -91 836 529 
Q 422 1150 422 2328 
Q 422 3509 836 4129 
Q 1250 4750 2034 4750 
z
" transform="scale(0.015625)"/>
        <path id="DejaVuSans-2e" d="M 684 794 
L 1344 794 
L 1344 0 
L 684 0 
L 684 794 
z
" transform="scale(0.015625)"/>
        <path id="DejaVuSans-35" d="M 691 4666 
L 3169 4666 
L 3169 4134 
L 1269 4134 
L 1269 2991 
Q 1406 3038 1543 3061 
Q 1681 3084 1819 3084 
Q 2600 3084 3056 2656 
Q 3513 2228 3513 1497 
Q 3513 744 3044 326 
Q 2575 -91 1722 -91 
Q 1428 -91 1123 -41 
Q 819 9 494 109 
L 494 744 
Q 775 591 1075 516 
Q 1375 441 1709 441 
Q 2250 441 2565 725 
Q 2881 1009 2881 1497 
Q 2881 1984 2565 2268 
Q 2250 2553 1709 2553 
Q 1456 2553 1204 2497 
Q 953 2441 691 2322 
L 691 4666 
z
" transform="scale(0.015625)"/>
       </defs>
       <use xlink:href="#DejaVuSans-30"/>
       <use xlink:href="#DejaVuSans-2e" x="63.623047"/>
       <use xlink:href="#DejaVuSans-35" x="95.410156"/>
      </g>
     </g>
    </g>
    <g id="xtick_2">
     <g id="line2d_2">
      <g>
       <use xlink:href="#m6eb9ce3b9d" x="138.763211" y="307.584" style="stroke: #000000; stroke-width: 0.8"/>
      </g>
     </g>
     <g id="text_2">
      <!-- 0.6 -->
      <g transform="translate(130.811648 322.182437) scale(0.1 -0.1)">
       <defs>
        <path id="DejaVuSans-36" d="M 2113 2584 
Q 1688 2584 1439 2293 
Q 1191 2003 1191 1497 
Q 1191 994 1439 701 
Q 1688 409 2113 409 
Q 2538 409 2786 701 
Q 3034 994 3034 1497 
Q 3034 2003 2786 2293 
Q 2538 2584 2113 2584 
z
M 3366 4563 
L 3366 3988 
Q 3128 4100 2886 4159 
Q 2644 4219 2406 4219 
Q 1781 4219 1451 3797 
Q 1122 3375 1075 2522 
Q 1259 2794 1537 2939 
Q 1816 3084 2150 3084 
Q 2853 3084 3261 2657 
Q 3669 2231 3669 1497 
Q 3669 778 3244 343 
Q 2819 -91 2113 -91 
Q 1303 -91 875 529 
Q 447 1150 447 2328 
Q 447 3434 972 4092 
Q 1497 4750 2381 4750 
Q 2619 4750 2861 4703 
Q 3103 4656 3366 4563 
z
" transform="scale(0.015625)"/>
       </defs>
       <use xlink:href="#DejaVuSans-30"/>
       <use xlink:href="#DejaVuSans-2e" x="63.623047"/>
       <use xlink:href="#DejaVuSans-36" x="95.410156"/>
      </g>
     </g>
    </g>
    <g id="xtick_3">
     <g id="line2d_3">
      <g>
       <use xlink:href="#m6eb9ce3b9d" x="203.694236" y="307.584" style="stroke: #000000; stroke-width: 0.8"/>
      </g>
     </g>
     <g id="text_3">
      <!-- 0.7 -->
      <g transform="translate(195.742673 322.182437) scale(0.1 -0.1)">
       <defs>
        <path id="DejaVuSans-37" d="M 525 4666 
L 3525 4666 
L 3525 4397 
L 1831 0 
L 1172 0 
L 2766 4134 
L 525 4134 
L 525 4666 
z
" transform="scale(0.015625)"/>
       </defs>
       <use xlink:href="#DejaVuSans-30"/>
       <use xlink:href="#DejaVuSans-2e" x="63.623047"/>
       <use xlink:href="#DejaVuSans-37" x="95.410156"/>
      </g>
     </g>
    </g>
    <g id="xtick_4">
     <g id="line2d_4">
      <g>
       <use xlink:href="#m6eb9ce3b9d" x="268.625261" y="307.584" style="stroke: #000000; stroke-width: 0.8"/>
      </g>
     </g>
     <g id="text_4">
      <!-- 0.8 -->
      <g transform="translate(260.673699 322.182437) scale(0.1 -0.1)">
       <defs>
        <path id="DejaVuSans-38" d="M 2034 2216 
Q 1584 2216 1326 1975 
Q 1069 1734 1069 1313 
Q 1069 891 1326 650 
Q 1584 409 2034 409 
Q 2484 409 2743 651 
Q 3003 894 3003 1313 
Q 3003 1734 2745 1975 
Q 2488 2216 2034 2216 
z
M 1403 2484 
Q 997 2584 770 2862 
Q 544 3141 544 3541 
Q 544 4100 942 4425 
Q 1341 4750 2034 4750 
Q 2731 4750 3128 4425 
Q 3525 4100 3525 3541 
Q 3525 3141 3298 2862 
Q 3072 2584 2669 2484 
Q 3125 2378 3379 2068 
Q 3634 1759 3634 1313 
Q 3634 634 3220 271 
Q 2806 -91 2034 -91 
Q 1263 -91 848 271 
Q 434 634 434 1313 
Q 434 1759 690 2068 
Q 947 2378 1403 2484 
z
M 1172 3481 
Q 1172 3119 1398 2916 
Q 1625 2713 2034 2713 
Q 2441 2713 2670 2916 
Q 2900 3119 2900 3481 
Q 2900 3844 2670 4047 
Q 2441 4250 2034 4250 
Q 1625 4250 1398 4047 
Q 1172 3844 1172 3481 
z
" transform="scale(0.015625)"/>
       </defs>
       <use xlink:href="#DejaVuSans-30"/>
       <use xlink:href="#DejaVuSans-2e" x="63.623047"/>
       <use xlink:href="#DejaVuSans-38" x="95.410156"/>
      </g>
     </g>
    </g>
    <g id="xtick_5">
     <g id="line2d_5">
      <g>
       <use xlink:href="#m6eb9ce3b9d" x="333.556286" y="307.584" style="stroke: #000000; stroke-width: 0.8"/>
      </g>
     </g>
     <g id="text_5">
      <!-- 0.9 -->
      <g transform="translate(325.604724 322.182437) scale(0.1 -0.1)">
       <defs>
        <path id="DejaVuSans-39" d="M 703 97 
L 703 672 
Q 941 559 1184 500 
Q 1428 441 1663 441 
Q 2288 441 2617 861 
Q 2947 1281 2994 2138 
Q 2813 1869 2534 1725 
Q 2256 1581 1919 1581 
Q 1219 1581 811 2004 
Q 403 2428 403 3163 
Q 403 3881 828 4315 
Q 1253 4750 1959 4750 
Q 2769 4750 3195 4129 
Q 3622 3509 3622 2328 
Q 3622 1225 3098 567 
Q 2575 -91 1691 -91 
Q 1453 -91 1209 -44 
Q 966 3 703 97 
z
M 1959 2075 
Q 2384 2075 2632 2365 
Q 2881 2656 2881 3163 
Q 2881 3666 2632 3958 
Q 2384 4250 1959 4250 
Q 1534 4250 1286 3958 
Q 1038 3666 1038 3163 
Q 1038 2656 1286 2365 
Q 1534 2075 1959 2075 
z
" transform="scale(0.015625)"/>
       </defs>
       <use xlink:href="#DejaVuSans-30"/>
       <use xlink:href="#DejaVuSans-2e" x="63.623047"/>
       <use xlink:href="#DejaVuSans-39" x="95.410156"/>
      </g>
     </g>
    </g>
    <g id="xtick_6">
     <g id="line2d_6">
      <g>
       <use xlink:href="#m6eb9ce3b9d" x="398.487311" y="307.584" style="stroke: #000000; stroke-width: 0.8"/>
      </g>
     </g>
     <g id="text_6">
      <!-- 1.0 -->
      <g transform="translate(390.535749 322.182437) scale(0.1 -0.1)">
       <defs>
        <path id="DejaVuSans-31" d="M 794 531 
L 1825 531 
L 1825 4091 
L 703 3866 
L 703 4441 
L 1819 4666 
L 2450 4666 
L 2450 531 
L 3481 531 
L 3481 0 
L 794 0 
L 794 531 
z
" transform="scale(0.015625)"/>
       </defs>
       <use xlink:href="#DejaVuSans-31"/>
       <use xlink:href="#DejaVuSans-2e" x="63.623047"/>
       <use xlink:href="#DejaVuSans-30" x="95.410156"/>
      </g>
     </g>
    </g>
    <g id="text_7">
     <!-- Cosine_similarity -->
     <g transform="translate(193.799844 335.860562) scale(0.1 -0.1)">
      <defs>
       <path id="DejaVuSans-43" d="M 4122 4306 
L 4122 3641 
Q 3803 3938 3442 4084 
Q 3081 4231 2675 4231 
Q 1875 4231 1450 3742 
Q 1025 3253 1025 2328 
Q 1025 1406 1450 917 
Q 1875 428 2675 428 
Q 3081 428 3442 575 
Q 3803 722 4122 1019 
L 4122 359 
Q 3791 134 3420 21 
Q 3050 -91 2638 -91 
Q 1578 -91 968 557 
Q 359 1206 359 2328 
Q 359 3453 968 4101 
Q 1578 4750 2638 4750 
Q 3056 4750 3426 4639 
Q 3797 4528 4122 4306 
z
" transform="scale(0.015625)"/>
       <path id="DejaVuSans-6f" d="M 1959 3097 
Q 1497 3097 1228 2736 
Q 959 2375 959 1747 
Q 959 1119 1226 758 
Q 1494 397 1959 397 
Q 2419 397 2687 759 
Q 2956 1122 2956 1747 
Q 2956 2369 2687 2733 
Q 2419 3097 1959 3097 
z
M 1959 3584 
Q 2709 3584 3137 3096 
Q 3566 2609 3566 1747 
Q 3566 888 3137 398 
Q 2709 -91 1959 -91 
Q 1206 -91 779 398 
Q 353 888 353 1747 
Q 353 2609 779 3096 
Q 1206 3584 1959 3584 
z
" transform="scale(0.015625)"/>
       <path id="DejaVuSans-73" d="M 2834 3397 
L 2834 2853 
Q 2591 2978 2328 3040 
Q 2066 3103 1784 3103 
Q 1356 3103 1142 2972 
Q 928 2841 928 2578 
Q 928 2378 1081 2264 
Q 1234 2150 1697 2047 
L 1894 2003 
Q 2506 1872 2764 1633 
Q 3022 1394 3022 966 
Q 3022 478 2636 193 
Q 2250 -91 1575 -91 
Q 1294 -91 989 -36 
Q 684 19 347 128 
L 347 722 
Q 666 556 975 473 
Q 1284 391 1588 391 
Q 1994 391 2212 530 
Q 2431 669 2431 922 
Q 2431 1156 2273 1281 
Q 2116 1406 1581 1522 
L 1381 1569 
Q 847 1681 609 1914 
Q 372 2147 372 2553 
Q 372 3047 722 3315 
Q 1072 3584 1716 3584 
Q 2034 3584 2315 3537 
Q 2597 3491 2834 3397 
z
" transform="scale(0.015625)"/>
       <path id="DejaVuSans-69" d="M 603 3500 
L 1178 3500 
L 1178 0 
L 603 0 
L 603 3500 
z
M 603 4863 
L 1178 4863 
L 1178 4134 
L 603 4134 
L 603 4863 
z
" transform="scale(0.015625)"/>
       <path id="DejaVuSans-6e" d="M 3513 2113 
L 3513 0 
L 2938 0 
L 2938 2094 
Q 2938 2591 2744 2837 
Q 2550 3084 2163 3084 
Q 1697 3084 1428 2787 
Q 1159 2491 1159 1978 
L 1159 0 
L 581 0 
L 581 3500 
L 1159 3500 
L 1159 2956 
Q 1366 3272 1645 3428 
Q 1925 3584 2291 3584 
Q 2894 3584 3203 3211 
Q 3513 2838 3513 2113 
z
" transform="scale(0.015625)"/>
       <path id="DejaVuSans-65" d="M 3597 1894 
L 3597 1613 
L 953 1613 
Q 991 1019 1311 708 
Q 1631 397 2203 397 
Q 2534 397 2845 478 
Q 3156 559 3463 722 
L 3463 178 
Q 3153 47 2828 -22 
Q 2503 -91 2169 -91 
Q 1331 -91 842 396 
Q 353 884 353 1716 
Q 353 2575 817 3079 
Q 1281 3584 2069 3584 
Q 2775 3584 3186 3129 
Q 3597 2675 3597 1894 
z
M 3022 2063 
Q 3016 2534 2758 2815 
Q 2500 3097 2075 3097 
Q 1594 3097 1305 2825 
Q 1016 2553 972 2059 
L 3022 2063 
z
" transform="scale(0.015625)"/>
       <path id="DejaVuSans-5f" d="M 3263 -1063 
L 3263 -1509 
L -63 -1509 
L -63 -1063 
L 3263 -1063 
z
" transform="scale(0.015625)"/>
       <path id="DejaVuSans-6d" d="M 3328 2828 
Q 3544 3216 3844 3400 
Q 4144 3584 4550 3584 
Q 5097 3584 5394 3201 
Q 5691 2819 5691 2113 
L 5691 0 
L 5113 0 
L 5113 2094 
Q 5113 2597 4934 2840 
Q 4756 3084 4391 3084 
Q 3944 3084 3684 2787 
Q 3425 2491 3425 1978 
L 3425 0 
L 2847 0 
L 2847 2094 
Q 2847 2600 2669 2842 
Q 2491 3084 2119 3084 
Q 1678 3084 1418 2786 
Q 1159 2488 1159 1978 
L 1159 0 
L 581 0 
L 581 3500 
L 1159 3500 
L 1159 2956 
Q 1356 3278 1631 3431 
Q 1906 3584 2284 3584 
Q 2666 3584 2933 3390 
Q 3200 3197 3328 2828 
z
" transform="scale(0.015625)"/>
       <path id="DejaVuSans-6c" d="M 603 4863 
L 1178 4863 
L 1178 0 
L 603 0 
L 603 4863 
z
" transform="scale(0.015625)"/>
       <path id="DejaVuSans-61" d="M 2194 1759 
Q 1497 1759 1228 1600 
Q 959 1441 959 1056 
Q 959 750 1161 570 
Q 1363 391 1709 391 
Q 2188 391 2477 730 
Q 2766 1069 2766 1631 
L 2766 1759 
L 2194 1759 
z
M 3341 1997 
L 3341 0 
L 2766 0 
L 2766 531 
Q 2569 213 2275 61 
Q 1981 -91 1556 -91 
Q 1019 -91 701 211 
Q 384 513 384 1019 
Q 384 1609 779 1909 
Q 1175 2209 1959 2209 
L 2766 2209 
L 2766 2266 
Q 2766 2663 2505 2880 
Q 2244 3097 1772 3097 
Q 1472 3097 1187 3025 
Q 903 2953 641 2809 
L 641 3341 
Q 956 3463 1253 3523 
Q 1550 3584 1831 3584 
Q 2591 3584 2966 3190 
Q 3341 2797 3341 1997 
z
" transform="scale(0.015625)"/>
       <path id="DejaVuSans-72" d="M 2631 2963 
Q 2534 3019 2420 3045 
Q 2306 3072 2169 3072 
Q 1681 3072 1420 2755 
Q 1159 2438 1159 1844 
L 1159 0 
L 581 0 
L 581 3500 
L 1159 3500 
L 1159 2956 
Q 1341 3275 1631 3429 
Q 1922 3584 2338 3584 
Q 2397 3584 2469 3576 
Q 2541 3569 2628 3553 
L 2631 2963 
z
" transform="scale(0.015625)"/>
       <path id="DejaVuSans-74" d="M 1172 4494 
L 1172 3500 
L 2356 3500 
L 2356 3053 
L 1172 3053 
L 1172 1153 
Q 1172 725 1289 603 
Q 1406 481 1766 481 
L 2356 481 
L 2356 0 
L 1766 0 
Q 1100 0 847 248 
Q 594 497 594 1153 
L 594 3053 
L 172 3053 
L 172 3500 
L 594 3500 
L 594 4494 
L 1172 4494 
z
" transform="scale(0.015625)"/>
       <path id="DejaVuSans-79" d="M 2059 -325 
Q 1816 -950 1584 -1140 
Q 1353 -1331 966 -1331 
L 506 -1331 
L 506 -850 
L 844 -850 
Q 1081 -850 1212 -737 
Q 1344 -625 1503 -206 
L 1606 56 
L 191 3500 
L 800 3500 
L 1894 763 
L 2988 3500 
L 3597 3500 
L 2059 -325 
z
" transform="scale(0.015625)"/>
      </defs>
      <use xlink:href="#DejaVuSans-43"/>
      <use xlink:href="#DejaVuSans-6f" x="69.824219"/>
      <use xlink:href="#DejaVuSans-73" x="131.005859"/>
      <use xlink:href="#DejaVuSans-69" x="183.105469"/>
      <use xlink:href="#DejaVuSans-6e" x="210.888672"/>
      <use xlink:href="#DejaVuSans-65" x="274.267578"/>
      <use xlink:href="#DejaVuSans-5f" x="335.791016"/>
      <use xlink:href="#DejaVuSans-73" x="385.791016"/>
      <use xlink:href="#DejaVuSans-69" x="437.890625"/>
      <use xlink:href="#DejaVuSans-6d" x="465.673828"/>
      <use xlink:href="#DejaVuSans-69" x="563.085938"/>
      <use xlink:href="#DejaVuSans-6c" x="590.869141"/>
      <use xlink:href="#DejaVuSans-61" x="618.652344"/>
      <use xlink:href="#DejaVuSans-72" x="679.931641"/>
      <use xlink:href="#DejaVuSans-69" x="721.044922"/>
      <use xlink:href="#DejaVuSans-74" x="748.828125"/>
      <use xlink:href="#DejaVuSans-79" x="788.037109"/>
     </g>
    </g>
   </g>
   <g id="matplotlib.axis_2">
    <g id="ytick_1">
     <g id="line2d_7">
      <defs>
       <path id="mc56beb4324" d="M 0 0 
L -3.5 0 
" style="stroke: #000000; stroke-width: 0.8"/>
      </defs>
      <g>
       <use xlink:href="#mc56beb4324" x="57.6" y="307.584" style="stroke: #000000; stroke-width: 0.8"/>
      </g>
     </g>
     <g id="text_8">
      <!-- 0.0 -->
      <g transform="translate(34.696875 311.383219) scale(0.1 -0.1)">
       <use xlink:href="#DejaVuSans-30"/>
       <use xlink:href="#DejaVuSans-2e" x="63.623047"/>
       <use xlink:href="#DejaVuSans-30" x="95.410156"/>
      </g>
     </g>
    </g>
    <g id="ytick_2">
     <g id="line2d_8">
      <g>
       <use xlink:href="#mc56beb4324" x="57.6" y="272.92533" style="stroke: #000000; stroke-width: 0.8"/>
      </g>
     </g>
     <g id="text_9">
      <!-- 2.5 -->
      <g transform="translate(34.696875 276.724549) scale(0.1 -0.1)">
       <defs>
        <path id="DejaVuSans-32" d="M 1228 531 
L 3431 531 
L 3431 0 
L 469 0 
L 469 531 
Q 828 903 1448 1529 
Q 2069 2156 2228 2338 
Q 2531 2678 2651 2914 
Q 2772 3150 2772 3378 
Q 2772 3750 2511 3984 
Q 2250 4219 1831 4219 
Q 1534 4219 1204 4116 
Q 875 4013 500 3803 
L 500 4441 
Q 881 4594 1212 4672 
Q 1544 4750 1819 4750 
Q 2544 4750 2975 4387 
Q 3406 4025 3406 3419 
Q 3406 3131 3298 2873 
Q 3191 2616 2906 2266 
Q 2828 2175 2409 1742 
Q 1991 1309 1228 531 
z
" transform="scale(0.015625)"/>
       </defs>
       <use xlink:href="#DejaVuSans-32"/>
       <use xlink:href="#DejaVuSans-2e" x="63.623047"/>
       <use xlink:href="#DejaVuSans-35" x="95.410156"/>
      </g>
     </g>
    </g>
    <g id="ytick_3">
     <g id="line2d_9">
      <g>
       <use xlink:href="#mc56beb4324" x="57.6" y="238.26666" style="stroke: #000000; stroke-width: 0.8"/>
      </g>
     </g>
     <g id="text_10">
      <!-- 5.0 -->
      <g transform="translate(34.696875 242.065879) scale(0.1 -0.1)">
       <use xlink:href="#DejaVuSans-35"/>
       <use xlink:href="#DejaVuSans-2e" x="63.623047"/>
       <use xlink:href="#DejaVuSans-30" x="95.410156"/>
      </g>
     </g>
    </g>
    <g id="ytick_4">
     <g id="line2d_10">
      <g>
       <use xlink:href="#mc56beb4324" x="57.6" y="203.607991" style="stroke: #000000; stroke-width: 0.8"/>
      </g>
     </g>
     <g id="text_11">
      <!-- 7.5 -->
      <g transform="translate(34.696875 207.407209) scale(0.1 -0.1)">
       <use xlink:href="#DejaVuSans-37"/>
       <use xlink:href="#DejaVuSans-2e" x="63.623047"/>
       <use xlink:href="#DejaVuSans-35" x="95.410156"/>
      </g>
     </g>
    </g>
    <g id="ytick_5">
     <g id="line2d_11">
      <g>
       <use xlink:href="#mc56beb4324" x="57.6" y="168.949321" style="stroke: #000000; stroke-width: 0.8"/>
      </g>
     </g>
     <g id="text_12">
      <!-- 10.0 -->
      <g transform="translate(28.334375 172.74854) scale(0.1 -0.1)">
       <use xlink:href="#DejaVuSans-31"/>
       <use xlink:href="#DejaVuSans-30" x="63.623047"/>
       <use xlink:href="#DejaVuSans-2e" x="127.246094"/>
       <use xlink:href="#DejaVuSans-30" x="159.033203"/>
      </g>
     </g>
    </g>
    <g id="ytick_6">
     <g id="line2d_12">
      <g>
       <use xlink:href="#mc56beb4324" x="57.6" y="134.290651" style="stroke: #000000; stroke-width: 0.8"/>
      </g>
     </g>
     <g id="text_13">
      <!-- 12.5 -->
      <g transform="translate(28.334375 138.08987) scale(0.1 -0.1)">
       <use xlink:href="#DejaVuSans-31"/>
       <use xlink:href="#DejaVuSans-32" x="63.623047"/>
       <use xlink:href="#DejaVuSans-2e" x="127.246094"/>
       <use xlink:href="#DejaVuSans-35" x="159.033203"/>
      </g>
     </g>
    </g>
    <g id="ytick_7">
     <g id="line2d_13">
      <g>
       <use xlink:href="#mc56beb4324" x="57.6" y="99.631981" style="stroke: #000000; stroke-width: 0.8"/>
      </g>
     </g>
     <g id="text_14">
      <!-- 15.0 -->
      <g transform="translate(28.334375 103.4312) scale(0.1 -0.1)">
       <use xlink:href="#DejaVuSans-31"/>
       <use xlink:href="#DejaVuSans-35" x="63.623047"/>
       <use xlink:href="#DejaVuSans-2e" x="127.246094"/>
       <use xlink:href="#DejaVuSans-30" x="159.033203"/>
      </g>
     </g>
    </g>
    <g id="ytick_8">
     <g id="line2d_14">
      <g>
       <use xlink:href="#mc56beb4324" x="57.6" y="64.973312" style="stroke: #000000; stroke-width: 0.8"/>
      </g>
     </g>
     <g id="text_15">
      <!-- 17.5 -->
      <g transform="translate(28.334375 68.77253) scale(0.1 -0.1)">
       <use xlink:href="#DejaVuSans-31"/>
       <use xlink:href="#DejaVuSans-37" x="63.623047"/>
       <use xlink:href="#DejaVuSans-2e" x="127.246094"/>
       <use xlink:href="#DejaVuSans-35" x="159.033203"/>
      </g>
     </g>
    </g>
    <g id="text_16">
     <!-- Density -->
     <g transform="translate(22.254687 193.536594) rotate(-90) scale(0.1 -0.1)">
      <defs>
       <path id="DejaVuSans-44" d="M 1259 4147 
L 1259 519 
L 2022 519 
Q 2988 519 3436 956 
Q 3884 1394 3884 2338 
Q 3884 3275 3436 3711 
Q 2988 4147 2022 4147 
L 1259 4147 
z
M 628 4666 
L 1925 4666 
Q 3281 4666 3915 4102 
Q 4550 3538 4550 2338 
Q 4550 1131 3912 565 
Q 3275 0 1925 0 
L 628 0 
L 628 4666 
z
" transform="scale(0.015625)"/>
      </defs>
      <use xlink:href="#DejaVuSans-44"/>
      <use xlink:href="#DejaVuSans-65" x="77.001953"/>
      <use xlink:href="#DejaVuSans-6e" x="138.525391"/>
      <use xlink:href="#DejaVuSans-73" x="201.904297"/>
      <use xlink:href="#DejaVuSans-69" x="254.003906"/>
      <use xlink:href="#DejaVuSans-74" x="281.787109"/>
      <use xlink:href="#DejaVuSans-79" x="320.996094"/>
     </g>
    </g>
   </g>
   <g id="patch_109">
    <path d="M 57.6 307.584 
L 57.6 41.472 
" style="fill: none; stroke: #000000; stroke-width: 0.8; stroke-linejoin: miter; stroke-linecap: square"/>
   </g>
   <g id="patch_110">
    <path d="M 414.72 307.584 
L 414.72 41.472 
" style="fill: none; stroke: #000000; stroke-width: 0.8; stroke-linejoin: miter; stroke-linecap: square"/>
   </g>
   <g id="patch_111">
    <path d="M 57.6 307.584 
L 414.72 307.584 
" style="fill: none; stroke: #000000; stroke-width: 0.8; stroke-linejoin: miter; stroke-linecap: square"/>
   </g>
   <g id="patch_112">
    <path d="M 57.6 41.472 
L 414.72 41.472 
" style="fill: none; stroke: #000000; stroke-width: 0.8; stroke-linejoin: miter; stroke-linecap: square"/>
   </g>
   <g id="legend_1">
    <g id="patch_113">
     <path d="M 309.187187 93.506375 
L 407.72 93.506375 
Q 409.72 93.506375 409.72 91.506375 
L 409.72 48.472 
Q 409.72 46.472 407.72 46.472 
L 309.187187 46.472 
Q 307.187187 46.472 307.187187 48.472 
L 307.187187 91.506375 
Q 307.187187 93.506375 309.187187 93.506375 
z
" style="fill: #ffffff; opacity: 0.8; stroke: #cccccc; stroke-linejoin: miter"/>
    </g>
    <g id="text_17">
     <!-- Pairs -->
     <g transform="translate(346.550469 58.070438) scale(0.1 -0.1)">
      <defs>
       <path id="DejaVuSans-50" d="M 1259 4147 
L 1259 2394 
L 2053 2394 
Q 2494 2394 2734 2622 
Q 2975 2850 2975 3272 
Q 2975 3691 2734 3919 
Q 2494 4147 2053 4147 
L 1259 4147 
z
M 628 4666 
L 2053 4666 
Q 2838 4666 3239 4311 
Q 3641 3956 3641 3272 
Q 3641 2581 3239 2228 
Q 2838 1875 2053 1875 
L 1259 1875 
L 1259 0 
L 628 0 
L 628 4666 
z
" transform="scale(0.015625)"/>
      </defs>
      <use xlink:href="#DejaVuSans-50"/>
      <use xlink:href="#DejaVuSans-61" x="55.802734"/>
      <use xlink:href="#DejaVuSans-69" x="117.082031"/>
      <use xlink:href="#DejaVuSans-72" x="144.865234"/>
      <use xlink:href="#DejaVuSans-73" x="185.978516"/>
     </g>
    </g>
    <g id="patch_114">
     <path d="M 311.187187 72.748563 
L 331.187187 72.748563 
L 331.187187 65.748563 
L 311.187187 65.748563 
z
" style="fill: #1f77b4; fill-opacity: 0.5; stroke: #000000; stroke-linejoin: miter"/>
    </g>
    <g id="text_18">
     <!-- Matches -->
     <g transform="translate(339.187187 72.748563) scale(0.1 -0.1)">
      <defs>
       <path id="DejaVuSans-4d" d="M 628 4666 
L 1569 4666 
L 2759 1491 
L 3956 4666 
L 4897 4666 
L 4897 0 
L 4281 0 
L 4281 4097 
L 3078 897 
L 2444 897 
L 1241 4097 
L 1241 0 
L 628 0 
L 628 4666 
z
" transform="scale(0.015625)"/>
       <path id="DejaVuSans-63" d="M 3122 3366 
L 3122 2828 
Q 2878 2963 2633 3030 
Q 2388 3097 2138 3097 
Q 1578 3097 1268 2742 
Q 959 2388 959 1747 
Q 959 1106 1268 751 
Q 1578 397 2138 397 
Q 2388 397 2633 464 
Q 2878 531 3122 666 
L 3122 134 
Q 2881 22 2623 -34 
Q 2366 -91 2075 -91 
Q 1284 -91 818 406 
Q 353 903 353 1747 
Q 353 2603 823 3093 
Q 1294 3584 2113 3584 
Q 2378 3584 2631 3529 
Q 2884 3475 3122 3366 
z
" transform="scale(0.015625)"/>
       <path id="DejaVuSans-68" d="M 3513 2113 
L 3513 0 
L 2938 0 
L 2938 2094 
Q 2938 2591 2744 2837 
Q 2550 3084 2163 3084 
Q 1697 3084 1428 2787 
Q 1159 2491 1159 1978 
L 1159 0 
L 581 0 
L 581 4863 
L 1159 4863 
L 1159 2956 
Q 1366 3272 1645 3428 
Q 1925 3584 2291 3584 
Q 2894 3584 3203 3211 
Q 3513 2838 3513 2113 
z
" transform="scale(0.015625)"/>
      </defs>
      <use xlink:href="#DejaVuSans-4d"/>
      <use xlink:href="#DejaVuSans-61" x="86.279297"/>
      <use xlink:href="#DejaVuSans-74" x="147.558594"/>
      <use xlink:href="#DejaVuSans-63" x="186.767578"/>
      <use xlink:href="#DejaVuSans-68" x="241.748047"/>
      <use xlink:href="#DejaVuSans-65" x="305.126953"/>
      <use xlink:href="#DejaVuSans-73" x="366.650391"/>
     </g>
    </g>
    <g id="patch_115">
     <path d="M 311.187187 87.426688 
L 331.187187 87.426688 
L 331.187187 80.426688 
L 311.187187 80.426688 
z
" style="fill: #ff7f0e; fill-opacity: 0.5; stroke: #000000; stroke-linejoin: miter"/>
    </g>
    <g id="text_19">
     <!-- Non-matches -->
     <g transform="translate(339.187187 87.426688) scale(0.1 -0.1)">
      <defs>
       <path id="DejaVuSans-4e" d="M 628 4666 
L 1478 4666 
L 3547 763 
L 3547 4666 
L 4159 4666 
L 4159 0 
L 3309 0 
L 1241 3903 
L 1241 0 
L 628 0 
L 628 4666 
z
" transform="scale(0.015625)"/>
       <path id="DejaVuSans-2d" d="M 313 2009 
L 1997 2009 
L 1997 1497 
L 313 1497 
L 313 2009 
z
" transform="scale(0.015625)"/>
      </defs>
      <use xlink:href="#DejaVuSans-4e"/>
      <use xlink:href="#DejaVuSans-6f" x="74.804688"/>
      <use xlink:href="#DejaVuSans-6e" x="135.986328"/>
      <use xlink:href="#DejaVuSans-2d" x="199.365234"/>
      <use xlink:href="#DejaVuSans-6d" x="235.449219"/>
      <use xlink:href="#DejaVuSans-61" x="332.861328"/>
      <use xlink:href="#DejaVuSans-74" x="394.140625"/>
      <use xlink:href="#DejaVuSans-63" x="433.349609"/>
      <use xlink:href="#DejaVuSans-68" x="488.330078"/>
      <use xlink:href="#DejaVuSans-65" x="551.708984"/>
      <use xlink:href="#DejaVuSans-73" x="613.232422"/>
     </g>
    </g>
   </g>
  </g>
 </g>
 <defs>
  <clipPath id="pade4b1fe97">
   <rect x="57.6" y="41.472" width="357.12" height="266.112"/>
  </clipPath>
 </defs>
</svg>
