<?xml version="1.0" encoding="utf-8" standalone="no"?>
<!DOCTYPE svg PUBLIC "-//W3C//DTD SVG 1.1//EN"
  "http://www.w3.org/Graphics/SVG/1.1/DTD/svg11.dtd">
<svg xmlns:xlink="http://www.w3.org/1999/xlink" width="460.8pt" height="345.6pt" viewBox="0 0 460.8 345.6" xmlns="http://www.w3.org/2000/svg" version="1.1">
 <metadata>
  <rdf:RDF xmlns:dc="http://purl.org/dc/elements/1.1/" xmlns:cc="http://creativecommons.org/ns#" xmlns:rdf="http://www.w3.org/1999/02/22-rdf-syntax-ns#">
   <cc:Work>
    <dc:type rdf:resource="http://purl.org/dc/dcmitype/StillImage"/>
    <dc:date>2024-05-03T14:55:37.395599</dc:date>
    <dc:format>image/svg+xml</dc:format>
    <dc:creator>
     <cc:Agent>
      <dc:title>Matplotlib v3.6.2, https://matplotlib.org/</dc:title>
     </cc:Agent>
    </dc:creator>
   </cc:Work>
  </rdf:RDF>
 </metadata>
 <defs>
  <style type="text/css">*{stroke-linejoin: round; stroke-linecap: butt}</style>
 </defs>
 <g id="figure_1">
  <g id="patch_1">
   <path d="M 0 345.6 
L 460.8 345.6 
L 460.8 0 
L 0 0 
z
" style="fill: #ffffff"/>
  </g>
  <g id="axes_1">
   <g id="patch_2">
    <path d="M 57.6 307.584 
L 414.72 307.584 
L 414.72 41.472 
L 57.6 41.472 
z
" style="fill: #ffffff"/>
   </g>
   <g id="patch_3">
    <path d="M 73.832727 307.584 
L 77.564387 307.584 
L 77.564387 221.695677 
L 73.832727 221.695677 
z
" clip-path="url(#p5fdd4f6913)" style="fill: #ff7f0e; fill-opacity: 0.5; stroke: #000000; stroke-width: 0.373166; stroke-linejoin: miter"/>
   </g>
   <g id="patch_4">
    <path d="M 77.564387 307.584 
L 81.296046 307.584 
L 81.296046 230.810021 
L 77.564387 230.810021 
z
" clip-path="url(#p5fdd4f6913)" style="fill: #ff7f0e; fill-opacity: 0.5; stroke: #000000; stroke-width: 0.373166; stroke-linejoin: miter"/>
   </g>
   <g id="patch_5">
    <path d="M 81.296046 307.584 
L 85.027706 307.584 
L 85.027706 247.642819 
L 81.296046 247.642819 
z
" clip-path="url(#p5fdd4f6913)" style="fill: #ff7f0e; fill-opacity: 0.5; stroke: #000000; stroke-width: 0.373166; stroke-linejoin: miter"/>
   </g>
   <g id="patch_6">
    <path d="M 85.027706 307.584 
L 88.759379 307.584 
L 88.759379 249.449481 
L 85.027706 249.449481 
z
" clip-path="url(#p5fdd4f6913)" style="fill: #ff7f0e; fill-opacity: 0.5; stroke: #000000; stroke-width: 0.373166; stroke-linejoin: miter"/>
   </g>
   <g id="patch_7">
    <path d="M 88.759379 307.584 
L 92.491039 307.584 
L 92.491039 257.824608 
L 88.759379 257.824608 
z
" clip-path="url(#p5fdd4f6913)" style="fill: #ff7f0e; fill-opacity: 0.5; stroke: #000000; stroke-width: 0.373166; stroke-linejoin: miter"/>
   </g>
   <g id="patch_8">
    <path d="M 92.491039 307.584 
L 96.222698 307.584 
L 96.222698 265.953618 
L 92.491039 265.953618 
z
" clip-path="url(#p5fdd4f6913)" style="fill: #ff7f0e; fill-opacity: 0.5; stroke: #000000; stroke-width: 0.373166; stroke-linejoin: miter"/>
   </g>
   <g id="patch_9">
    <path d="M 96.222698 307.584 
L 99.954358 307.584 
L 99.954358 269.648622 
L 96.222698 269.648622 
z
" clip-path="url(#p5fdd4f6913)" style="fill: #ff7f0e; fill-opacity: 0.5; stroke: #000000; stroke-width: 0.373166; stroke-linejoin: miter"/>
   </g>
   <g id="patch_10">
    <path d="M 99.954358 307.584 
L 103.686017 307.584 
L 103.686017 275.067962 
L 99.954358 275.067962 
z
" clip-path="url(#p5fdd4f6913)" style="fill: #ff7f0e; fill-opacity: 0.5; stroke: #000000; stroke-width: 0.373166; stroke-linejoin: miter"/>
   </g>
   <g id="patch_11">
    <path d="M 103.686017 307.584 
L 107.417677 307.584 
L 107.417677 280.158857 
L 103.686017 280.158857 
z
" clip-path="url(#p5fdd4f6913)" style="fill: #ff7f0e; fill-opacity: 0.5; stroke: #000000; stroke-width: 0.373166; stroke-linejoin: miter"/>
   </g>
   <g id="patch_12">
    <path d="M 107.417677 307.584 
L 111.149336 307.584 
L 111.149336 280.733635 
L 107.417677 280.733635 
z
" clip-path="url(#p5fdd4f6913)" style="fill: #ff7f0e; fill-opacity: 0.5; stroke: #000000; stroke-width: 0.373166; stroke-linejoin: miter"/>
   </g>
   <g id="patch_13">
    <path d="M 111.14935 307.584 
L 114.881024 307.584 
L 114.881024 286.399387 
L 111.14935 286.399387 
z
" clip-path="url(#p5fdd4f6913)" style="fill: #ff7f0e; fill-opacity: 0.5; stroke: #000000; stroke-width: 0.373166; stroke-linejoin: miter"/>
   </g>
   <g id="patch_14">
    <path d="M 114.88101 307.584 
L 118.612669 307.584 
L 118.612669 288.041533 
L 114.88101 288.041533 
z
" clip-path="url(#p5fdd4f6913)" style="fill: #ff7f0e; fill-opacity: 0.5; stroke: #000000; stroke-width: 0.373166; stroke-linejoin: miter"/>
   </g>
   <g id="patch_15">
    <path d="M 118.612669 307.584 
L 122.344329 307.584 
L 122.344329 289.601646 
L 118.612669 289.601646 
z
" clip-path="url(#p5fdd4f6913)" style="fill: #ff7f0e; fill-opacity: 0.5; stroke: #000000; stroke-width: 0.373166; stroke-linejoin: miter"/>
   </g>
   <g id="patch_16">
    <path d="M 122.344329 307.584 
L 126.075988 307.584 
L 126.075988 292.721871 
L 122.344329 292.721871 
z
" clip-path="url(#p5fdd4f6913)" style="fill: #ff7f0e; fill-opacity: 0.5; stroke: #000000; stroke-width: 0.373166; stroke-linejoin: miter"/>
   </g>
   <g id="patch_17">
    <path d="M 126.075988 307.584 
L 129.807648 307.584 
L 129.807648 295.34943 
L 126.075988 295.34943 
z
" clip-path="url(#p5fdd4f6913)" style="fill: #ff7f0e; fill-opacity: 0.5; stroke: #000000; stroke-width: 0.373166; stroke-linejoin: miter"/>
   </g>
   <g id="patch_18">
    <path d="M 129.807648 307.584 
L 133.539307 307.584 
L 133.539307 296.00632 
L 129.807648 296.00632 
z
" clip-path="url(#p5fdd4f6913)" style="fill: #ff7f0e; fill-opacity: 0.5; stroke: #000000; stroke-width: 0.373166; stroke-linejoin: miter"/>
   </g>
   <g id="patch_19">
    <path d="M 133.539307 307.584 
L 137.270967 307.584 
L 137.270967 296.909543 
L 133.539307 296.909543 
z
" clip-path="url(#p5fdd4f6913)" style="fill: #ff7f0e; fill-opacity: 0.5; stroke: #000000; stroke-width: 0.373166; stroke-linejoin: miter"/>
   </g>
   <g id="patch_20">
    <path d="M 137.270967 307.584 
L 141.002627 307.584 
L 141.002627 298.633878 
L 137.270967 298.633878 
z
" clip-path="url(#p5fdd4f6913)" style="fill: #ff7f0e; fill-opacity: 0.5; stroke: #000000; stroke-width: 0.373166; stroke-linejoin: miter"/>
   </g>
   <g id="patch_21">
    <path d="M 141.002627 307.584 
L 144.7343 307.584 
L 144.7343 297.977024 
L 141.002627 297.977024 
z
" clip-path="url(#p5fdd4f6913)" style="fill: #ff7f0e; fill-opacity: 0.5; stroke: #000000; stroke-width: 0.373166; stroke-linejoin: miter"/>
   </g>
   <g id="patch_22">
    <path d="M 144.7343 307.584 
L 148.465959 307.584 
L 148.465959 298.387545 
L 144.7343 298.387545 
z
" clip-path="url(#p5fdd4f6913)" style="fill: #ff7f0e; fill-opacity: 0.5; stroke: #000000; stroke-width: 0.373166; stroke-linejoin: miter"/>
   </g>
   <g id="patch_23">
    <path d="M 148.465959 307.584 
L 152.197619 307.584 
L 152.197619 299.701324 
L 148.465959 299.701324 
z
" clip-path="url(#p5fdd4f6913)" style="fill: #ff7f0e; fill-opacity: 0.5; stroke: #000000; stroke-width: 0.373166; stroke-linejoin: miter"/>
   </g>
   <g id="patch_24">
    <path d="M 152.197619 307.584 
L 155.929279 307.584 
L 155.929279 302.082549 
L 152.197619 302.082549 
z
" clip-path="url(#p5fdd4f6913)" style="fill: #ff7f0e; fill-opacity: 0.5; stroke: #000000; stroke-width: 0.373166; stroke-linejoin: miter"/>
   </g>
   <g id="patch_25">
    <path d="M 155.929279 307.584 
L 159.660938 307.584 
L 159.660938 301.097215 
L 155.929279 301.097215 
z
" clip-path="url(#p5fdd4f6913)" style="fill: #ff7f0e; fill-opacity: 0.5; stroke: #000000; stroke-width: 0.373166; stroke-linejoin: miter"/>
   </g>
   <g id="patch_26">
    <path d="M 159.660938 307.584 
L 163.392598 307.584 
L 163.392598 302.657328 
L 159.660938 302.657328 
z
" clip-path="url(#p5fdd4f6913)" style="fill: #ff7f0e; fill-opacity: 0.5; stroke: #000000; stroke-width: 0.373166; stroke-linejoin: miter"/>
   </g>
   <g id="patch_27">
    <path d="M 163.392611 307.584 
L 167.124285 307.584 
L 167.124285 301.672015 
L 163.392611 301.672015 
z
" clip-path="url(#p5fdd4f6913)" style="fill: #ff7f0e; fill-opacity: 0.5; stroke: #000000; stroke-width: 0.373166; stroke-linejoin: miter"/>
   </g>
   <g id="patch_28">
    <path d="M 167.124271 307.584 
L 170.85593 307.584 
L 170.85593 302.657328 
L 167.124271 302.657328 
z
" clip-path="url(#p5fdd4f6913)" style="fill: #ff7f0e; fill-opacity: 0.5; stroke: #000000; stroke-width: 0.373166; stroke-linejoin: miter"/>
   </g>
   <g id="patch_29">
    <path d="M 170.85593 307.584 
L 174.58759 307.584 
L 174.58759 303.806884 
L 170.85593 303.806884 
z
" clip-path="url(#p5fdd4f6913)" style="fill: #ff7f0e; fill-opacity: 0.5; stroke: #000000; stroke-width: 0.373166; stroke-linejoin: miter"/>
   </g>
   <g id="patch_30">
    <path d="M 174.58759 307.584 
L 178.31925 307.584 
L 178.31925 304.053218 
L 174.58759 304.053218 
z
" clip-path="url(#p5fdd4f6913)" style="fill: #ff7f0e; fill-opacity: 0.5; stroke: #000000; stroke-width: 0.373166; stroke-linejoin: miter"/>
   </g>
   <g id="patch_31">
    <path d="M 178.31925 307.584 
L 182.050909 307.584 
L 182.050909 303.560551 
L 178.31925 303.560551 
z
" clip-path="url(#p5fdd4f6913)" style="fill: #ff7f0e; fill-opacity: 0.5; stroke: #000000; stroke-width: 0.373166; stroke-linejoin: miter"/>
   </g>
   <g id="patch_32">
    <path d="M 182.050909 307.584 
L 185.782569 307.584 
L 185.782569 304.545885 
L 182.050909 304.545885 
z
" clip-path="url(#p5fdd4f6913)" style="fill: #ff7f0e; fill-opacity: 0.5; stroke: #000000; stroke-width: 0.373166; stroke-linejoin: miter"/>
   </g>
   <g id="patch_33">
    <path d="M 185.782569 307.584 
L 189.514228 307.584 
L 189.514228 304.956441 
L 185.782569 304.956441 
z
" clip-path="url(#p5fdd4f6913)" style="fill: #ff7f0e; fill-opacity: 0.5; stroke: #000000; stroke-width: 0.373166; stroke-linejoin: miter"/>
   </g>
   <g id="patch_34">
    <path d="M 189.514228 307.584 
L 193.245888 307.584 
L 193.245888 305.449109 
L 189.514228 305.449109 
z
" clip-path="url(#p5fdd4f6913)" style="fill: #ff7f0e; fill-opacity: 0.5; stroke: #000000; stroke-width: 0.373166; stroke-linejoin: miter"/>
   </g>
   <g id="patch_35">
    <path d="M 193.245888 307.584 
L 196.977547 307.584 
L 196.977547 304.87433 
L 193.245888 304.87433 
z
" clip-path="url(#p5fdd4f6913)" style="fill: #ff7f0e; fill-opacity: 0.5; stroke: #000000; stroke-width: 0.373166; stroke-linejoin: miter"/>
   </g>
   <g id="patch_36">
    <path d="M 196.977547 307.584 
L 200.709207 307.584 
L 200.709207 306.105998 
L 196.977547 306.105998 
z
" clip-path="url(#p5fdd4f6913)" style="fill: #ff7f0e; fill-opacity: 0.5; stroke: #000000; stroke-width: 0.373166; stroke-linejoin: miter"/>
   </g>
   <g id="patch_37">
    <path d="M 200.709207 307.584 
L 204.440866 307.584 
L 204.440866 305.038553 
L 200.709207 305.038553 
z
" clip-path="url(#p5fdd4f6913)" style="fill: #ff7f0e; fill-opacity: 0.5; stroke: #000000; stroke-width: 0.373166; stroke-linejoin: miter"/>
   </g>
   <g id="patch_38">
    <path d="M 204.440866 307.584 
L 208.172526 307.584 
L 208.172526 305.613331 
L 204.440866 305.613331 
z
" clip-path="url(#p5fdd4f6913)" style="fill: #ff7f0e; fill-opacity: 0.5; stroke: #000000; stroke-width: 0.373166; stroke-linejoin: miter"/>
   </g>
   <g id="patch_39">
    <path d="M 208.172526 307.584 
L 211.904213 307.584 
L 211.904213 305.613346 
L 208.172526 305.613346 
z
" clip-path="url(#p5fdd4f6913)" style="fill: #ff7f0e; fill-opacity: 0.5; stroke: #000000; stroke-width: 0.373166; stroke-linejoin: miter"/>
   </g>
   <g id="patch_40">
    <path d="M 211.904213 307.584 
L 215.635873 307.584 
L 215.635873 305.695442 
L 211.904213 305.695442 
z
" clip-path="url(#p5fdd4f6913)" style="fill: #ff7f0e; fill-opacity: 0.5; stroke: #000000; stroke-width: 0.373166; stroke-linejoin: miter"/>
   </g>
   <g id="patch_41">
    <path d="M 215.635873 307.584 
L 219.367532 307.584 
L 219.367532 306.516554 
L 215.635873 306.516554 
z
" clip-path="url(#p5fdd4f6913)" style="fill: #ff7f0e; fill-opacity: 0.5; stroke: #000000; stroke-width: 0.373166; stroke-linejoin: miter"/>
   </g>
   <g id="patch_42">
    <path d="M 219.367532 307.584 
L 223.099192 307.584 
L 223.099192 306.023887 
L 219.367532 306.023887 
z
" clip-path="url(#p5fdd4f6913)" style="fill: #ff7f0e; fill-opacity: 0.5; stroke: #000000; stroke-width: 0.373166; stroke-linejoin: miter"/>
   </g>
   <g id="patch_43">
    <path d="M 223.099192 307.584 
L 226.830851 307.584 
L 226.830851 306.434443 
L 223.099192 306.434443 
z
" clip-path="url(#p5fdd4f6913)" style="fill: #ff7f0e; fill-opacity: 0.5; stroke: #000000; stroke-width: 0.373166; stroke-linejoin: miter"/>
   </g>
   <g id="patch_44">
    <path d="M 226.830851 307.584 
L 230.562511 307.584 
L 230.562511 306.598666 
L 226.830851 306.598666 
z
" clip-path="url(#p5fdd4f6913)" style="fill: #ff7f0e; fill-opacity: 0.5; stroke: #000000; stroke-width: 0.373166; stroke-linejoin: miter"/>
   </g>
   <g id="patch_45">
    <path d="M 230.562511 307.584 
L 234.29417 307.584 
L 234.29417 306.92711 
L 230.562511 306.92711 
z
" clip-path="url(#p5fdd4f6913)" style="fill: #ff7f0e; fill-opacity: 0.5; stroke: #000000; stroke-width: 0.373166; stroke-linejoin: miter"/>
   </g>
   <g id="patch_46">
    <path d="M 234.29417 307.584 
L 238.02583 307.584 
L 238.02583 306.598666 
L 234.29417 306.598666 
z
" clip-path="url(#p5fdd4f6913)" style="fill: #ff7f0e; fill-opacity: 0.5; stroke: #000000; stroke-width: 0.373166; stroke-linejoin: miter"/>
   </g>
   <g id="patch_47">
    <path d="M 238.02583 307.584 
L 241.757489 307.584 
L 241.757489 307.009222 
L 238.02583 307.009222 
z
" clip-path="url(#p5fdd4f6913)" style="fill: #ff7f0e; fill-opacity: 0.5; stroke: #000000; stroke-width: 0.373166; stroke-linejoin: miter"/>
   </g>
   <g id="patch_48">
    <path d="M 241.757489 307.584 
L 245.489149 307.584 
L 245.489149 306.844999 
L 241.757489 306.844999 
z
" clip-path="url(#p5fdd4f6913)" style="fill: #ff7f0e; fill-opacity: 0.5; stroke: #000000; stroke-width: 0.373166; stroke-linejoin: miter"/>
   </g>
   <g id="patch_49">
    <path d="M 245.489149 307.584 
L 249.220808 307.584 
L 249.220808 307.091333 
L 245.489149 307.091333 
z
" clip-path="url(#p5fdd4f6913)" style="fill: #ff7f0e; fill-opacity: 0.5; stroke: #000000; stroke-width: 0.373166; stroke-linejoin: miter"/>
   </g>
   <g id="patch_50">
    <path d="M 249.220808 307.584 
L 252.952468 307.584 
L 252.952468 306.92711 
L 249.220808 306.92711 
z
" clip-path="url(#p5fdd4f6913)" style="fill: #ff7f0e; fill-opacity: 0.5; stroke: #000000; stroke-width: 0.373166; stroke-linejoin: miter"/>
   </g>
   <g id="patch_51">
    <path d="M 252.952468 307.584 
L 256.684127 307.584 
L 256.684127 307.091333 
L 252.952468 307.091333 
z
" clip-path="url(#p5fdd4f6913)" style="fill: #ff7f0e; fill-opacity: 0.5; stroke: #000000; stroke-width: 0.373166; stroke-linejoin: miter"/>
   </g>
   <g id="patch_52">
    <path d="M 256.684127 307.584 
L 260.415787 307.584 
L 260.415787 307.091333 
L 256.684127 307.091333 
z
" clip-path="url(#p5fdd4f6913)" style="fill: #ff7f0e; fill-opacity: 0.5; stroke: #000000; stroke-width: 0.373166; stroke-linejoin: miter"/>
   </g>
   <g id="patch_53">
    <path d="M 260.415815 307.584 
L 264.147502 307.584 
L 264.147502 307.173447 
L 260.415815 307.173447 
z
" clip-path="url(#p5fdd4f6913)" style="fill: #ff7f0e; fill-opacity: 0.5; stroke: #000000; stroke-width: 0.373166; stroke-linejoin: miter"/>
   </g>
   <g id="patch_54">
    <path d="M 264.147474 307.584 
L 267.879134 307.584 
L 267.879134 307.173444 
L 264.147474 307.173444 
z
" clip-path="url(#p5fdd4f6913)" style="fill: #ff7f0e; fill-opacity: 0.5; stroke: #000000; stroke-width: 0.373166; stroke-linejoin: miter"/>
   </g>
   <g id="patch_55">
    <path d="M 267.879134 307.584 
L 271.610793 307.584 
L 271.610793 307.337666 
L 267.879134 307.337666 
z
" clip-path="url(#p5fdd4f6913)" style="fill: #ff7f0e; fill-opacity: 0.5; stroke: #000000; stroke-width: 0.373166; stroke-linejoin: miter"/>
   </g>
   <g id="patch_56">
    <path d="M 271.610793 307.584 
L 275.342453 307.584 
L 275.342453 307.255555 
L 271.610793 307.255555 
z
" clip-path="url(#p5fdd4f6913)" style="fill: #ff7f0e; fill-opacity: 0.5; stroke: #000000; stroke-width: 0.373166; stroke-linejoin: miter"/>
   </g>
   <g id="patch_57">
    <path d="M 275.342453 307.584 
L 279.074112 307.584 
L 279.074112 307.501889 
L 275.342453 307.501889 
z
" clip-path="url(#p5fdd4f6913)" style="fill: #ff7f0e; fill-opacity: 0.5; stroke: #000000; stroke-width: 0.373166; stroke-linejoin: miter"/>
   </g>
   <g id="patch_58">
    <path d="M 279.074112 307.584 
L 282.805772 307.584 
L 282.805772 307.337666 
L 279.074112 307.337666 
z
" clip-path="url(#p5fdd4f6913)" style="fill: #ff7f0e; fill-opacity: 0.5; stroke: #000000; stroke-width: 0.373166; stroke-linejoin: miter"/>
   </g>
   <g id="patch_59">
    <path d="M 282.805772 307.584 
L 286.537431 307.584 
L 286.537431 307.419778 
L 282.805772 307.419778 
z
" clip-path="url(#p5fdd4f6913)" style="fill: #ff7f0e; fill-opacity: 0.5; stroke: #000000; stroke-width: 0.373166; stroke-linejoin: miter"/>
   </g>
   <g id="patch_60">
    <path d="M 286.537431 307.584 
L 290.269091 307.584 
L 290.269091 307.419778 
L 286.537431 307.419778 
z
" clip-path="url(#p5fdd4f6913)" style="fill: #ff7f0e; fill-opacity: 0.5; stroke: #000000; stroke-width: 0.373166; stroke-linejoin: miter"/>
   </g>
   <g id="patch_61">
    <path d="M 290.269091 307.584 
L 294.00075 307.584 
L 294.00075 307.419778 
L 290.269091 307.419778 
z
" clip-path="url(#p5fdd4f6913)" style="fill: #ff7f0e; fill-opacity: 0.5; stroke: #000000; stroke-width: 0.373166; stroke-linejoin: miter"/>
   </g>
   <g id="patch_62">
    <path d="M 294.00075 307.584 
L 297.73241 307.584 
L 297.73241 307.419778 
L 294.00075 307.419778 
z
" clip-path="url(#p5fdd4f6913)" style="fill: #ff7f0e; fill-opacity: 0.5; stroke: #000000; stroke-width: 0.373166; stroke-linejoin: miter"/>
   </g>
   <g id="patch_63">
    <path d="M 297.73241 307.584 
L 301.46407 307.584 
L 301.46407 307.584 
L 297.73241 307.584 
z
" clip-path="url(#p5fdd4f6913)" style="fill: #ff7f0e; fill-opacity: 0.5; stroke: #000000; stroke-width: 0.373166; stroke-linejoin: miter"/>
   </g>
   <g id="patch_64">
    <path d="M 301.46407 307.584 
L 305.195729 307.584 
L 305.195729 307.419778 
L 301.46407 307.419778 
z
" clip-path="url(#p5fdd4f6913)" style="fill: #ff7f0e; fill-opacity: 0.5; stroke: #000000; stroke-width: 0.373166; stroke-linejoin: miter"/>
   </g>
   <g id="patch_65">
    <path d="M 305.195729 307.584 
L 308.927389 307.584 
L 308.927389 307.584 
L 305.195729 307.584 
z
" clip-path="url(#p5fdd4f6913)" style="fill: #ff7f0e; fill-opacity: 0.5; stroke: #000000; stroke-width: 0.373166; stroke-linejoin: miter"/>
   </g>
   <g id="patch_66">
    <path d="M 308.927389 307.584 
L 312.659048 307.584 
L 312.659048 307.584 
L 308.927389 307.584 
z
" clip-path="url(#p5fdd4f6913)" style="fill: #ff7f0e; fill-opacity: 0.5; stroke: #000000; stroke-width: 0.373166; stroke-linejoin: miter"/>
   </g>
   <g id="patch_67">
    <path d="M 312.659048 307.584 
L 316.390708 307.584 
L 316.390708 307.501889 
L 312.659048 307.501889 
z
" clip-path="url(#p5fdd4f6913)" style="fill: #ff7f0e; fill-opacity: 0.5; stroke: #000000; stroke-width: 0.373166; stroke-linejoin: miter"/>
   </g>
   <g id="patch_68">
    <path d="M 316.390708 307.584 
L 320.122395 307.584 
L 320.122395 307.584 
L 316.390708 307.584 
z
" clip-path="url(#p5fdd4f6913)" style="fill: #ff7f0e; fill-opacity: 0.5; stroke: #000000; stroke-width: 0.373166; stroke-linejoin: miter"/>
   </g>
   <g id="patch_69">
    <path d="M 320.122395 307.584 
L 323.854054 307.584 
L 323.854054 307.584 
L 320.122395 307.584 
z
" clip-path="url(#p5fdd4f6913)" style="fill: #ff7f0e; fill-opacity: 0.5; stroke: #000000; stroke-width: 0.373166; stroke-linejoin: miter"/>
   </g>
   <g id="patch_70">
    <path d="M 323.854054 307.584 
L 327.585714 307.584 
L 327.585714 307.584 
L 323.854054 307.584 
z
" clip-path="url(#p5fdd4f6913)" style="fill: #ff7f0e; fill-opacity: 0.5; stroke: #000000; stroke-width: 0.373166; stroke-linejoin: miter"/>
   </g>
   <g id="patch_71">
    <path d="M 327.585714 307.584 
L 331.317373 307.584 
L 331.317373 307.584 
L 327.585714 307.584 
z
" clip-path="url(#p5fdd4f6913)" style="fill: #ff7f0e; fill-opacity: 0.5; stroke: #000000; stroke-width: 0.373166; stroke-linejoin: miter"/>
   </g>
   <g id="patch_72">
    <path d="M 331.317373 307.584 
L 335.049033 307.584 
L 335.049033 307.584 
L 331.317373 307.584 
z
" clip-path="url(#p5fdd4f6913)" style="fill: #ff7f0e; fill-opacity: 0.5; stroke: #000000; stroke-width: 0.373166; stroke-linejoin: miter"/>
   </g>
   <g id="patch_73">
    <path d="M 335.049033 307.584 
L 338.780693 307.584 
L 338.780693 307.501889 
L 335.049033 307.501889 
z
" clip-path="url(#p5fdd4f6913)" style="fill: #ff7f0e; fill-opacity: 0.5; stroke: #000000; stroke-width: 0.373166; stroke-linejoin: miter"/>
   </g>
   <g id="patch_74">
    <path d="M 338.780693 307.584 
L 342.512352 307.584 
L 342.512352 307.501889 
L 338.780693 307.501889 
z
" clip-path="url(#p5fdd4f6913)" style="fill: #ff7f0e; fill-opacity: 0.5; stroke: #000000; stroke-width: 0.373166; stroke-linejoin: miter"/>
   </g>
   <g id="patch_75">
    <path d="M 342.512352 307.584 
L 346.244012 307.584 
L 346.244012 307.584 
L 342.512352 307.584 
z
" clip-path="url(#p5fdd4f6913)" style="fill: #ff7f0e; fill-opacity: 0.5; stroke: #000000; stroke-width: 0.373166; stroke-linejoin: miter"/>
   </g>
   <g id="patch_76">
    <path d="M 346.244012 307.584 
L 349.975671 307.584 
L 349.975671 307.584 
L 346.244012 307.584 
z
" clip-path="url(#p5fdd4f6913)" style="fill: #ff7f0e; fill-opacity: 0.5; stroke: #000000; stroke-width: 0.373166; stroke-linejoin: miter"/>
   </g>
   <g id="patch_77">
    <path d="M 349.975671 307.584 
L 353.707331 307.584 
L 353.707331 307.584 
L 349.975671 307.584 
z
" clip-path="url(#p5fdd4f6913)" style="fill: #ff7f0e; fill-opacity: 0.5; stroke: #000000; stroke-width: 0.373166; stroke-linejoin: miter"/>
   </g>
   <g id="patch_78">
    <path d="M 353.707331 307.584 
L 357.43899 307.584 
L 357.43899 307.584 
L 353.707331 307.584 
z
" clip-path="url(#p5fdd4f6913)" style="fill: #ff7f0e; fill-opacity: 0.5; stroke: #000000; stroke-width: 0.373166; stroke-linejoin: miter"/>
   </g>
   <g id="patch_79">
    <path d="M 357.43899 307.584 
L 361.17065 307.584 
L 361.17065 307.584 
L 357.43899 307.584 
z
" clip-path="url(#p5fdd4f6913)" style="fill: #ff7f0e; fill-opacity: 0.5; stroke: #000000; stroke-width: 0.373166; stroke-linejoin: miter"/>
   </g>
   <g id="patch_80">
    <path d="M 361.17065 307.584 
L 364.902309 307.584 
L 364.902309 307.584 
L 361.17065 307.584 
z
" clip-path="url(#p5fdd4f6913)" style="fill: #ff7f0e; fill-opacity: 0.5; stroke: #000000; stroke-width: 0.373166; stroke-linejoin: miter"/>
   </g>
   <g id="patch_81">
    <path d="M 364.902309 307.584 
L 368.633969 307.584 
L 368.633969 307.584 
L 364.902309 307.584 
z
" clip-path="url(#p5fdd4f6913)" style="fill: #ff7f0e; fill-opacity: 0.5; stroke: #000000; stroke-width: 0.373166; stroke-linejoin: miter"/>
   </g>
   <g id="patch_82">
    <path d="M 368.633996 307.584 
L 372.365684 307.584 
L 372.365684 307.584 
L 368.633996 307.584 
z
" clip-path="url(#p5fdd4f6913)" style="fill: #ff7f0e; fill-opacity: 0.5; stroke: #000000; stroke-width: 0.373166; stroke-linejoin: miter"/>
   </g>
   <g id="patch_83">
    <path d="M 372.365656 307.584 
L 376.097316 307.584 
L 376.097316 307.584 
L 372.365656 307.584 
z
" clip-path="url(#p5fdd4f6913)" style="fill: #ff7f0e; fill-opacity: 0.5; stroke: #000000; stroke-width: 0.373166; stroke-linejoin: miter"/>
   </g>
   <g id="patch_84">
    <path d="M 376.097316 307.584 
L 379.828975 307.584 
L 379.828975 307.584 
L 376.097316 307.584 
z
" clip-path="url(#p5fdd4f6913)" style="fill: #ff7f0e; fill-opacity: 0.5; stroke: #000000; stroke-width: 0.373166; stroke-linejoin: miter"/>
   </g>
   <g id="patch_85">
    <path d="M 379.828975 307.584 
L 383.560635 307.584 
L 383.560635 307.584 
L 379.828975 307.584 
z
" clip-path="url(#p5fdd4f6913)" style="fill: #ff7f0e; fill-opacity: 0.5; stroke: #000000; stroke-width: 0.373166; stroke-linejoin: miter"/>
   </g>
   <g id="patch_86">
    <path d="M 383.560635 307.584 
L 387.292294 307.584 
L 387.292294 307.584 
L 383.560635 307.584 
z
" clip-path="url(#p5fdd4f6913)" style="fill: #ff7f0e; fill-opacity: 0.5; stroke: #000000; stroke-width: 0.373166; stroke-linejoin: miter"/>
   </g>
   <g id="patch_87">
    <path d="M 387.292294 307.584 
L 391.023954 307.584 
L 391.023954 307.584 
L 387.292294 307.584 
z
" clip-path="url(#p5fdd4f6913)" style="fill: #ff7f0e; fill-opacity: 0.5; stroke: #000000; stroke-width: 0.373166; stroke-linejoin: miter"/>
   </g>
   <g id="patch_88">
    <path d="M 391.023954 307.584 
L 394.755613 307.584 
L 394.755613 307.584 
L 391.023954 307.584 
z
" clip-path="url(#p5fdd4f6913)" style="fill: #ff7f0e; fill-opacity: 0.5; stroke: #000000; stroke-width: 0.373166; stroke-linejoin: miter"/>
   </g>
   <g id="patch_89">
    <path d="M 394.755613 307.584 
L 398.487273 307.584 
L 398.487273 307.584 
L 394.755613 307.584 
z
" clip-path="url(#p5fdd4f6913)" style="fill: #ff7f0e; fill-opacity: 0.5; stroke: #000000; stroke-width: 0.373166; stroke-linejoin: miter"/>
   </g>
   <g id="patch_90">
    <path d="M 73.832727 307.584 
L 77.564387 307.584 
L 77.564387 295.037465 
L 73.832727 295.037465 
z
" clip-path="url(#p5fdd4f6913)" style="fill: #1f77b4; fill-opacity: 0.5; stroke: #000000; stroke-width: 0.373166; stroke-linejoin: miter"/>
   </g>
   <g id="patch_91">
    <path d="M 77.564387 307.584 
L 81.296046 307.584 
L 81.296046 269.944396 
L 77.564387 269.944396 
z
" clip-path="url(#p5fdd4f6913)" style="fill: #1f77b4; fill-opacity: 0.5; stroke: #000000; stroke-width: 0.373166; stroke-linejoin: miter"/>
   </g>
   <g id="patch_92">
    <path d="M 81.296046 307.584 
L 85.027706 307.584 
L 85.027706 277.472317 
L 81.296046 277.472317 
z
" clip-path="url(#p5fdd4f6913)" style="fill: #1f77b4; fill-opacity: 0.5; stroke: #000000; stroke-width: 0.373166; stroke-linejoin: miter"/>
   </g>
   <g id="patch_93">
    <path d="M 85.027706 307.584 
L 88.759379 307.584 
L 88.759379 296.292161 
L 85.027706 296.292161 
z
" clip-path="url(#p5fdd4f6913)" style="fill: #1f77b4; fill-opacity: 0.5; stroke: #000000; stroke-width: 0.373166; stroke-linejoin: miter"/>
   </g>
   <g id="patch_94">
    <path d="M 88.759379 307.584 
L 92.491039 307.584 
L 92.491039 290.018851 
L 88.759379 290.018851 
z
" clip-path="url(#p5fdd4f6913)" style="fill: #1f77b4; fill-opacity: 0.5; stroke: #000000; stroke-width: 0.373166; stroke-linejoin: miter"/>
   </g>
   <g id="patch_95">
    <path d="M 92.491039 307.584 
L 96.222698 307.584 
L 96.222698 293.782812 
L 92.491039 293.782812 
z
" clip-path="url(#p5fdd4f6913)" style="fill: #1f77b4; fill-opacity: 0.5; stroke: #000000; stroke-width: 0.373166; stroke-linejoin: miter"/>
   </g>
   <g id="patch_96">
    <path d="M 96.222698 307.584 
L 99.954358 307.584 
L 99.954358 298.801426 
L 96.222698 298.801426 
z
" clip-path="url(#p5fdd4f6913)" style="fill: #1f77b4; fill-opacity: 0.5; stroke: #000000; stroke-width: 0.373166; stroke-linejoin: miter"/>
   </g>
   <g id="patch_97">
    <path d="M 99.954358 307.584 
L 103.686017 307.584 
L 103.686017 287.509545 
L 99.954358 287.509545 
z
" clip-path="url(#p5fdd4f6913)" style="fill: #1f77b4; fill-opacity: 0.5; stroke: #000000; stroke-width: 0.373166; stroke-linejoin: miter"/>
   </g>
   <g id="patch_98">
    <path d="M 103.686017 307.584 
L 107.417677 307.584 
L 107.417677 286.254891 
L 103.686017 286.254891 
z
" clip-path="url(#p5fdd4f6913)" style="fill: #1f77b4; fill-opacity: 0.5; stroke: #000000; stroke-width: 0.373166; stroke-linejoin: miter"/>
   </g>
   <g id="patch_99">
    <path d="M 107.417677 307.584 
L 111.149336 307.584 
L 111.149336 283.745584 
L 107.417677 283.745584 
z
" clip-path="url(#p5fdd4f6913)" style="fill: #1f77b4; fill-opacity: 0.5; stroke: #000000; stroke-width: 0.373166; stroke-linejoin: miter"/>
   </g>
   <g id="patch_100">
    <path d="M 111.14935 307.584 
L 114.881024 307.584 
L 114.881024 302.565405 
L 111.14935 302.565405 
z
" clip-path="url(#p5fdd4f6913)" style="fill: #1f77b4; fill-opacity: 0.5; stroke: #000000; stroke-width: 0.373166; stroke-linejoin: miter"/>
   </g>
   <g id="patch_101">
    <path d="M 114.88101 307.584 
L 118.612669 307.584 
L 118.612669 300.056079 
L 114.88101 300.056079 
z
" clip-path="url(#p5fdd4f6913)" style="fill: #1f77b4; fill-opacity: 0.5; stroke: #000000; stroke-width: 0.373166; stroke-linejoin: miter"/>
   </g>
   <g id="patch_102">
    <path d="M 118.612669 307.584 
L 122.344329 307.584 
L 122.344329 295.037465 
L 118.612669 295.037465 
z
" clip-path="url(#p5fdd4f6913)" style="fill: #1f77b4; fill-opacity: 0.5; stroke: #000000; stroke-width: 0.373166; stroke-linejoin: miter"/>
   </g>
   <g id="patch_103">
    <path d="M 122.344329 307.584 
L 126.075988 307.584 
L 126.075988 292.528158 
L 122.344329 292.528158 
z
" clip-path="url(#p5fdd4f6913)" style="fill: #1f77b4; fill-opacity: 0.5; stroke: #000000; stroke-width: 0.373166; stroke-linejoin: miter"/>
   </g>
   <g id="patch_104">
    <path d="M 126.075988 307.584 
L 129.807648 307.584 
L 129.807648 296.292119 
L 126.075988 296.292119 
z
" clip-path="url(#p5fdd4f6913)" style="fill: #1f77b4; fill-opacity: 0.5; stroke: #000000; stroke-width: 0.373166; stroke-linejoin: miter"/>
   </g>
   <g id="patch_105">
    <path d="M 129.807648 307.584 
L 133.539307 307.584 
L 133.539307 300.056079 
L 129.807648 300.056079 
z
" clip-path="url(#p5fdd4f6913)" style="fill: #1f77b4; fill-opacity: 0.5; stroke: #000000; stroke-width: 0.373166; stroke-linejoin: miter"/>
   </g>
   <g id="patch_106">
    <path d="M 133.539307 307.584 
L 137.270967 307.584 
L 137.270967 296.292119 
L 133.539307 296.292119 
z
" clip-path="url(#p5fdd4f6913)" style="fill: #1f77b4; fill-opacity: 0.5; stroke: #000000; stroke-width: 0.373166; stroke-linejoin: miter"/>
   </g>
   <g id="patch_107">
    <path d="M 137.270967 307.584 
L 141.002627 307.584 
L 141.002627 300.056079 
L 137.270967 300.056079 
z
" clip-path="url(#p5fdd4f6913)" style="fill: #1f77b4; fill-opacity: 0.5; stroke: #000000; stroke-width: 0.373166; stroke-linejoin: miter"/>
   </g>
   <g id="patch_108">
    <path d="M 141.002627 307.584 
L 144.7343 307.584 
L 144.7343 300.056107 
L 141.002627 300.056107 
z
" clip-path="url(#p5fdd4f6913)" style="fill: #1f77b4; fill-opacity: 0.5; stroke: #000000; stroke-width: 0.373166; stroke-linejoin: miter"/>
   </g>
   <g id="patch_109">
    <path d="M 144.7343 307.584 
L 148.465959 307.584 
L 148.465959 301.310733 
L 144.7343 301.310733 
z
" clip-path="url(#p5fdd4f6913)" style="fill: #1f77b4; fill-opacity: 0.5; stroke: #000000; stroke-width: 0.373166; stroke-linejoin: miter"/>
   </g>
   <g id="patch_110">
    <path d="M 148.465959 307.584 
L 152.197619 307.584 
L 152.197619 300.056079 
L 148.465959 300.056079 
z
" clip-path="url(#p5fdd4f6913)" style="fill: #1f77b4; fill-opacity: 0.5; stroke: #000000; stroke-width: 0.373166; stroke-linejoin: miter"/>
   </g>
   <g id="patch_111">
    <path d="M 152.197619 307.584 
L 155.929279 307.584 
L 155.929279 301.310733 
L 152.197619 301.310733 
z
" clip-path="url(#p5fdd4f6913)" style="fill: #1f77b4; fill-opacity: 0.5; stroke: #000000; stroke-width: 0.373166; stroke-linejoin: miter"/>
   </g>
   <g id="patch_112">
    <path d="M 155.929279 307.584 
L 159.660938 307.584 
L 159.660938 301.310733 
L 155.929279 301.310733 
z
" clip-path="url(#p5fdd4f6913)" style="fill: #1f77b4; fill-opacity: 0.5; stroke: #000000; stroke-width: 0.373166; stroke-linejoin: miter"/>
   </g>
   <g id="patch_113">
    <path d="M 159.660938 307.584 
L 163.392598 307.584 
L 163.392598 301.310733 
L 159.660938 301.310733 
z
" clip-path="url(#p5fdd4f6913)" style="fill: #1f77b4; fill-opacity: 0.5; stroke: #000000; stroke-width: 0.373166; stroke-linejoin: miter"/>
   </g>
   <g id="patch_114">
    <path d="M 163.392611 307.584 
L 167.124285 307.584 
L 167.124285 305.074702 
L 163.392611 305.074702 
z
" clip-path="url(#p5fdd4f6913)" style="fill: #1f77b4; fill-opacity: 0.5; stroke: #000000; stroke-width: 0.373166; stroke-linejoin: miter"/>
   </g>
   <g id="patch_115">
    <path d="M 167.124271 307.584 
L 170.85593 307.584 
L 170.85593 300.056079 
L 167.124271 300.056079 
z
" clip-path="url(#p5fdd4f6913)" style="fill: #1f77b4; fill-opacity: 0.5; stroke: #000000; stroke-width: 0.373166; stroke-linejoin: miter"/>
   </g>
   <g id="patch_116">
    <path d="M 170.85593 307.584 
L 174.58759 307.584 
L 174.58759 302.565386 
L 170.85593 302.565386 
z
" clip-path="url(#p5fdd4f6913)" style="fill: #1f77b4; fill-opacity: 0.5; stroke: #000000; stroke-width: 0.373166; stroke-linejoin: miter"/>
   </g>
   <g id="patch_117">
    <path d="M 174.58759 307.584 
L 178.31925 307.584 
L 178.31925 300.056079 
L 174.58759 300.056079 
z
" clip-path="url(#p5fdd4f6913)" style="fill: #1f77b4; fill-opacity: 0.5; stroke: #000000; stroke-width: 0.373166; stroke-linejoin: miter"/>
   </g>
   <g id="patch_118">
    <path d="M 178.31925 307.584 
L 182.050909 307.584 
L 182.050909 305.074693 
L 178.31925 305.074693 
z
" clip-path="url(#p5fdd4f6913)" style="fill: #1f77b4; fill-opacity: 0.5; stroke: #000000; stroke-width: 0.373166; stroke-linejoin: miter"/>
   </g>
   <g id="patch_119">
    <path d="M 182.050909 307.584 
L 185.782569 307.584 
L 185.782569 303.82004 
L 182.050909 303.82004 
z
" clip-path="url(#p5fdd4f6913)" style="fill: #1f77b4; fill-opacity: 0.5; stroke: #000000; stroke-width: 0.373166; stroke-linejoin: miter"/>
   </g>
   <g id="patch_120">
    <path d="M 185.782569 307.584 
L 189.514228 307.584 
L 189.514228 298.801426 
L 185.782569 298.801426 
z
" clip-path="url(#p5fdd4f6913)" style="fill: #1f77b4; fill-opacity: 0.5; stroke: #000000; stroke-width: 0.373166; stroke-linejoin: miter"/>
   </g>
   <g id="patch_121">
    <path d="M 189.514228 307.584 
L 193.245888 307.584 
L 193.245888 303.82004 
L 189.514228 303.82004 
z
" clip-path="url(#p5fdd4f6913)" style="fill: #1f77b4; fill-opacity: 0.5; stroke: #000000; stroke-width: 0.373166; stroke-linejoin: miter"/>
   </g>
   <g id="patch_122">
    <path d="M 193.245888 307.584 
L 196.977547 307.584 
L 196.977547 296.292119 
L 193.245888 296.292119 
z
" clip-path="url(#p5fdd4f6913)" style="fill: #1f77b4; fill-opacity: 0.5; stroke: #000000; stroke-width: 0.373166; stroke-linejoin: miter"/>
   </g>
   <g id="patch_123">
    <path d="M 196.977547 307.584 
L 200.709207 307.584 
L 200.709207 297.546772 
L 196.977547 297.546772 
z
" clip-path="url(#p5fdd4f6913)" style="fill: #1f77b4; fill-opacity: 0.5; stroke: #000000; stroke-width: 0.373166; stroke-linejoin: miter"/>
   </g>
   <g id="patch_124">
    <path d="M 200.709207 307.584 
L 204.440866 307.584 
L 204.440866 302.565386 
L 200.709207 302.565386 
z
" clip-path="url(#p5fdd4f6913)" style="fill: #1f77b4; fill-opacity: 0.5; stroke: #000000; stroke-width: 0.373166; stroke-linejoin: miter"/>
   </g>
   <g id="patch_125">
    <path d="M 204.440866 307.584 
L 208.172526 307.584 
L 208.172526 302.565386 
L 204.440866 302.565386 
z
" clip-path="url(#p5fdd4f6913)" style="fill: #1f77b4; fill-opacity: 0.5; stroke: #000000; stroke-width: 0.373166; stroke-linejoin: miter"/>
   </g>
   <g id="patch_126">
    <path d="M 208.172526 307.584 
L 211.904213 307.584 
L 211.904213 302.565423 
L 208.172526 302.565423 
z
" clip-path="url(#p5fdd4f6913)" style="fill: #1f77b4; fill-opacity: 0.5; stroke: #000000; stroke-width: 0.373166; stroke-linejoin: miter"/>
   </g>
   <g id="patch_127">
    <path d="M 211.904213 307.584 
L 215.635873 307.584 
L 215.635873 306.329347 
L 211.904213 306.329347 
z
" clip-path="url(#p5fdd4f6913)" style="fill: #1f77b4; fill-opacity: 0.5; stroke: #000000; stroke-width: 0.373166; stroke-linejoin: miter"/>
   </g>
   <g id="patch_128">
    <path d="M 215.635873 307.584 
L 219.367532 307.584 
L 219.367532 305.074693 
L 215.635873 305.074693 
z
" clip-path="url(#p5fdd4f6913)" style="fill: #1f77b4; fill-opacity: 0.5; stroke: #000000; stroke-width: 0.373166; stroke-linejoin: miter"/>
   </g>
   <g id="patch_129">
    <path d="M 219.367532 307.584 
L 223.099192 307.584 
L 223.099192 303.82004 
L 219.367532 303.82004 
z
" clip-path="url(#p5fdd4f6913)" style="fill: #1f77b4; fill-opacity: 0.5; stroke: #000000; stroke-width: 0.373166; stroke-linejoin: miter"/>
   </g>
   <g id="patch_130">
    <path d="M 223.099192 307.584 
L 226.830851 307.584 
L 226.830851 306.329347 
L 223.099192 306.329347 
z
" clip-path="url(#p5fdd4f6913)" style="fill: #1f77b4; fill-opacity: 0.5; stroke: #000000; stroke-width: 0.373166; stroke-linejoin: miter"/>
   </g>
   <g id="patch_131">
    <path d="M 226.830851 307.584 
L 230.562511 307.584 
L 230.562511 306.329347 
L 226.830851 306.329347 
z
" clip-path="url(#p5fdd4f6913)" style="fill: #1f77b4; fill-opacity: 0.5; stroke: #000000; stroke-width: 0.373166; stroke-linejoin: miter"/>
   </g>
   <g id="patch_132">
    <path d="M 230.562511 307.584 
L 234.29417 307.584 
L 234.29417 303.82004 
L 230.562511 303.82004 
z
" clip-path="url(#p5fdd4f6913)" style="fill: #1f77b4; fill-opacity: 0.5; stroke: #000000; stroke-width: 0.373166; stroke-linejoin: miter"/>
   </g>
   <g id="patch_133">
    <path d="M 234.29417 307.584 
L 238.02583 307.584 
L 238.02583 307.584 
L 234.29417 307.584 
z
" clip-path="url(#p5fdd4f6913)" style="fill: #1f77b4; fill-opacity: 0.5; stroke: #000000; stroke-width: 0.373166; stroke-linejoin: miter"/>
   </g>
   <g id="patch_134">
    <path d="M 238.02583 307.584 
L 241.757489 307.584 
L 241.757489 305.074693 
L 238.02583 305.074693 
z
" clip-path="url(#p5fdd4f6913)" style="fill: #1f77b4; fill-opacity: 0.5; stroke: #000000; stroke-width: 0.373166; stroke-linejoin: miter"/>
   </g>
   <g id="patch_135">
    <path d="M 241.757489 307.584 
L 245.489149 307.584 
L 245.489149 307.584 
L 241.757489 307.584 
z
" clip-path="url(#p5fdd4f6913)" style="fill: #1f77b4; fill-opacity: 0.5; stroke: #000000; stroke-width: 0.373166; stroke-linejoin: miter"/>
   </g>
   <g id="patch_136">
    <path d="M 245.489149 307.584 
L 249.220808 307.584 
L 249.220808 305.074693 
L 245.489149 305.074693 
z
" clip-path="url(#p5fdd4f6913)" style="fill: #1f77b4; fill-opacity: 0.5; stroke: #000000; stroke-width: 0.373166; stroke-linejoin: miter"/>
   </g>
   <g id="patch_137">
    <path d="M 249.220808 307.584 
L 252.952468 307.584 
L 252.952468 305.074693 
L 249.220808 305.074693 
z
" clip-path="url(#p5fdd4f6913)" style="fill: #1f77b4; fill-opacity: 0.5; stroke: #000000; stroke-width: 0.373166; stroke-linejoin: miter"/>
   </g>
   <g id="patch_138">
    <path d="M 252.952468 307.584 
L 256.684127 307.584 
L 256.684127 274.96301 
L 252.952468 274.96301 
z
" clip-path="url(#p5fdd4f6913)" style="fill: #1f77b4; fill-opacity: 0.5; stroke: #000000; stroke-width: 0.373166; stroke-linejoin: miter"/>
   </g>
   <g id="patch_139">
    <path d="M 256.684127 307.584 
L 260.415787 307.584 
L 260.415787 302.565386 
L 256.684127 302.565386 
z
" clip-path="url(#p5fdd4f6913)" style="fill: #1f77b4; fill-opacity: 0.5; stroke: #000000; stroke-width: 0.373166; stroke-linejoin: miter"/>
   </g>
   <g id="patch_140">
    <path d="M 260.415815 307.584 
L 264.147502 307.584 
L 264.147502 307.584 
L 260.415815 307.584 
z
" clip-path="url(#p5fdd4f6913)" style="fill: #1f77b4; fill-opacity: 0.5; stroke: #000000; stroke-width: 0.373166; stroke-linejoin: miter"/>
   </g>
   <g id="patch_141">
    <path d="M 264.147474 307.584 
L 267.879134 307.584 
L 267.879134 306.329347 
L 264.147474 306.329347 
z
" clip-path="url(#p5fdd4f6913)" style="fill: #1f77b4; fill-opacity: 0.5; stroke: #000000; stroke-width: 0.373166; stroke-linejoin: miter"/>
   </g>
   <g id="patch_142">
    <path d="M 267.879134 307.584 
L 271.610793 307.584 
L 271.610793 305.074693 
L 267.879134 305.074693 
z
" clip-path="url(#p5fdd4f6913)" style="fill: #1f77b4; fill-opacity: 0.5; stroke: #000000; stroke-width: 0.373166; stroke-linejoin: miter"/>
   </g>
   <g id="patch_143">
    <path d="M 271.610793 307.584 
L 275.342453 307.584 
L 275.342453 306.329347 
L 271.610793 306.329347 
z
" clip-path="url(#p5fdd4f6913)" style="fill: #1f77b4; fill-opacity: 0.5; stroke: #000000; stroke-width: 0.373166; stroke-linejoin: miter"/>
   </g>
   <g id="patch_144">
    <path d="M 275.342453 307.584 
L 279.074112 307.584 
L 279.074112 307.584 
L 275.342453 307.584 
z
" clip-path="url(#p5fdd4f6913)" style="fill: #1f77b4; fill-opacity: 0.5; stroke: #000000; stroke-width: 0.373166; stroke-linejoin: miter"/>
   </g>
   <g id="patch_145">
    <path d="M 279.074112 307.584 
L 282.805772 307.584 
L 282.805772 307.584 
L 279.074112 307.584 
z
" clip-path="url(#p5fdd4f6913)" style="fill: #1f77b4; fill-opacity: 0.5; stroke: #000000; stroke-width: 0.373166; stroke-linejoin: miter"/>
   </g>
   <g id="patch_146">
    <path d="M 282.805772 307.584 
L 286.537431 307.584 
L 286.537431 307.584 
L 282.805772 307.584 
z
" clip-path="url(#p5fdd4f6913)" style="fill: #1f77b4; fill-opacity: 0.5; stroke: #000000; stroke-width: 0.373166; stroke-linejoin: miter"/>
   </g>
   <g id="patch_147">
    <path d="M 286.537431 307.584 
L 290.269091 307.584 
L 290.269091 307.584 
L 286.537431 307.584 
z
" clip-path="url(#p5fdd4f6913)" style="fill: #1f77b4; fill-opacity: 0.5; stroke: #000000; stroke-width: 0.373166; stroke-linejoin: miter"/>
   </g>
   <g id="patch_148">
    <path d="M 290.269091 307.584 
L 294.00075 307.584 
L 294.00075 307.584 
L 290.269091 307.584 
z
" clip-path="url(#p5fdd4f6913)" style="fill: #1f77b4; fill-opacity: 0.5; stroke: #000000; stroke-width: 0.373166; stroke-linejoin: miter"/>
   </g>
   <g id="patch_149">
    <path d="M 294.00075 307.584 
L 297.73241 307.584 
L 297.73241 307.584 
L 294.00075 307.584 
z
" clip-path="url(#p5fdd4f6913)" style="fill: #1f77b4; fill-opacity: 0.5; stroke: #000000; stroke-width: 0.373166; stroke-linejoin: miter"/>
   </g>
   <g id="patch_150">
    <path d="M 297.73241 307.584 
L 301.46407 307.584 
L 301.46407 305.074693 
L 297.73241 305.074693 
z
" clip-path="url(#p5fdd4f6913)" style="fill: #1f77b4; fill-opacity: 0.5; stroke: #000000; stroke-width: 0.373166; stroke-linejoin: miter"/>
   </g>
   <g id="patch_151">
    <path d="M 301.46407 307.584 
L 305.195729 307.584 
L 305.195729 307.584 
L 301.46407 307.584 
z
" clip-path="url(#p5fdd4f6913)" style="fill: #1f77b4; fill-opacity: 0.5; stroke: #000000; stroke-width: 0.373166; stroke-linejoin: miter"/>
   </g>
   <g id="patch_152">
    <path d="M 305.195729 307.584 
L 308.927389 307.584 
L 308.927389 307.584 
L 305.195729 307.584 
z
" clip-path="url(#p5fdd4f6913)" style="fill: #1f77b4; fill-opacity: 0.5; stroke: #000000; stroke-width: 0.373166; stroke-linejoin: miter"/>
   </g>
   <g id="patch_153">
    <path d="M 308.927389 307.584 
L 312.659048 307.584 
L 312.659048 307.584 
L 308.927389 307.584 
z
" clip-path="url(#p5fdd4f6913)" style="fill: #1f77b4; fill-opacity: 0.5; stroke: #000000; stroke-width: 0.373166; stroke-linejoin: miter"/>
   </g>
   <g id="patch_154">
    <path d="M 312.659048 307.584 
L 316.390708 307.584 
L 316.390708 307.584 
L 312.659048 307.584 
z
" clip-path="url(#p5fdd4f6913)" style="fill: #1f77b4; fill-opacity: 0.5; stroke: #000000; stroke-width: 0.373166; stroke-linejoin: miter"/>
   </g>
   <g id="patch_155">
    <path d="M 316.390708 307.584 
L 320.122395 307.584 
L 320.122395 307.584 
L 316.390708 307.584 
z
" clip-path="url(#p5fdd4f6913)" style="fill: #1f77b4; fill-opacity: 0.5; stroke: #000000; stroke-width: 0.373166; stroke-linejoin: miter"/>
   </g>
   <g id="patch_156">
    <path d="M 320.122395 307.584 
L 323.854054 307.584 
L 323.854054 307.584 
L 320.122395 307.584 
z
" clip-path="url(#p5fdd4f6913)" style="fill: #1f77b4; fill-opacity: 0.5; stroke: #000000; stroke-width: 0.373166; stroke-linejoin: miter"/>
   </g>
   <g id="patch_157">
    <path d="M 323.854054 307.584 
L 327.585714 307.584 
L 327.585714 307.584 
L 323.854054 307.584 
z
" clip-path="url(#p5fdd4f6913)" style="fill: #1f77b4; fill-opacity: 0.5; stroke: #000000; stroke-width: 0.373166; stroke-linejoin: miter"/>
   </g>
   <g id="patch_158">
    <path d="M 327.585714 307.584 
L 331.317373 307.584 
L 331.317373 307.584 
L 327.585714 307.584 
z
" clip-path="url(#p5fdd4f6913)" style="fill: #1f77b4; fill-opacity: 0.5; stroke: #000000; stroke-width: 0.373166; stroke-linejoin: miter"/>
   </g>
   <g id="patch_159">
    <path d="M 331.317373 307.584 
L 335.049033 307.584 
L 335.049033 307.584 
L 331.317373 307.584 
z
" clip-path="url(#p5fdd4f6913)" style="fill: #1f77b4; fill-opacity: 0.5; stroke: #000000; stroke-width: 0.373166; stroke-linejoin: miter"/>
   </g>
   <g id="patch_160">
    <path d="M 335.049033 307.584 
L 338.780693 307.584 
L 338.780693 307.584 
L 335.049033 307.584 
z
" clip-path="url(#p5fdd4f6913)" style="fill: #1f77b4; fill-opacity: 0.5; stroke: #000000; stroke-width: 0.373166; stroke-linejoin: miter"/>
   </g>
   <g id="patch_161">
    <path d="M 338.780693 307.584 
L 342.512352 307.584 
L 342.512352 307.584 
L 338.780693 307.584 
z
" clip-path="url(#p5fdd4f6913)" style="fill: #1f77b4; fill-opacity: 0.5; stroke: #000000; stroke-width: 0.373166; stroke-linejoin: miter"/>
   </g>
   <g id="patch_162">
    <path d="M 342.512352 307.584 
L 346.244012 307.584 
L 346.244012 307.584 
L 342.512352 307.584 
z
" clip-path="url(#p5fdd4f6913)" style="fill: #1f77b4; fill-opacity: 0.5; stroke: #000000; stroke-width: 0.373166; stroke-linejoin: miter"/>
   </g>
   <g id="patch_163">
    <path d="M 346.244012 307.584 
L 349.975671 307.584 
L 349.975671 307.584 
L 346.244012 307.584 
z
" clip-path="url(#p5fdd4f6913)" style="fill: #1f77b4; fill-opacity: 0.5; stroke: #000000; stroke-width: 0.373166; stroke-linejoin: miter"/>
   </g>
   <g id="patch_164">
    <path d="M 349.975671 307.584 
L 353.707331 307.584 
L 353.707331 307.584 
L 349.975671 307.584 
z
" clip-path="url(#p5fdd4f6913)" style="fill: #1f77b4; fill-opacity: 0.5; stroke: #000000; stroke-width: 0.373166; stroke-linejoin: miter"/>
   </g>
   <g id="patch_165">
    <path d="M 353.707331 307.584 
L 357.43899 307.584 
L 357.43899 307.584 
L 353.707331 307.584 
z
" clip-path="url(#p5fdd4f6913)" style="fill: #1f77b4; fill-opacity: 0.5; stroke: #000000; stroke-width: 0.373166; stroke-linejoin: miter"/>
   </g>
   <g id="patch_166">
    <path d="M 357.43899 307.584 
L 361.17065 307.584 
L 361.17065 307.584 
L 357.43899 307.584 
z
" clip-path="url(#p5fdd4f6913)" style="fill: #1f77b4; fill-opacity: 0.5; stroke: #000000; stroke-width: 0.373166; stroke-linejoin: miter"/>
   </g>
   <g id="patch_167">
    <path d="M 361.17065 307.584 
L 364.902309 307.584 
L 364.902309 307.584 
L 361.17065 307.584 
z
" clip-path="url(#p5fdd4f6913)" style="fill: #1f77b4; fill-opacity: 0.5; stroke: #000000; stroke-width: 0.373166; stroke-linejoin: miter"/>
   </g>
   <g id="patch_168">
    <path d="M 364.902309 307.584 
L 368.633969 307.584 
L 368.633969 307.584 
L 364.902309 307.584 
z
" clip-path="url(#p5fdd4f6913)" style="fill: #1f77b4; fill-opacity: 0.5; stroke: #000000; stroke-width: 0.373166; stroke-linejoin: miter"/>
   </g>
   <g id="patch_169">
    <path d="M 368.633996 307.584 
L 372.365684 307.584 
L 372.365684 307.584 
L 368.633996 307.584 
z
" clip-path="url(#p5fdd4f6913)" style="fill: #1f77b4; fill-opacity: 0.5; stroke: #000000; stroke-width: 0.373166; stroke-linejoin: miter"/>
   </g>
   <g id="patch_170">
    <path d="M 372.365656 307.584 
L 376.097316 307.584 
L 376.097316 307.584 
L 372.365656 307.584 
z
" clip-path="url(#p5fdd4f6913)" style="fill: #1f77b4; fill-opacity: 0.5; stroke: #000000; stroke-width: 0.373166; stroke-linejoin: miter"/>
   </g>
   <g id="patch_171">
    <path d="M 376.097316 307.584 
L 379.828975 307.584 
L 379.828975 307.584 
L 376.097316 307.584 
z
" clip-path="url(#p5fdd4f6913)" style="fill: #1f77b4; fill-opacity: 0.5; stroke: #000000; stroke-width: 0.373166; stroke-linejoin: miter"/>
   </g>
   <g id="patch_172">
    <path d="M 379.828975 307.584 
L 383.560635 307.584 
L 383.560635 307.584 
L 379.828975 307.584 
z
" clip-path="url(#p5fdd4f6913)" style="fill: #1f77b4; fill-opacity: 0.5; stroke: #000000; stroke-width: 0.373166; stroke-linejoin: miter"/>
   </g>
   <g id="patch_173">
    <path d="M 383.560635 307.584 
L 387.292294 307.584 
L 387.292294 307.584 
L 383.560635 307.584 
z
" clip-path="url(#p5fdd4f6913)" style="fill: #1f77b4; fill-opacity: 0.5; stroke: #000000; stroke-width: 0.373166; stroke-linejoin: miter"/>
   </g>
   <g id="patch_174">
    <path d="M 387.292294 307.584 
L 391.023954 307.584 
L 391.023954 307.584 
L 387.292294 307.584 
z
" clip-path="url(#p5fdd4f6913)" style="fill: #1f77b4; fill-opacity: 0.5; stroke: #000000; stroke-width: 0.373166; stroke-linejoin: miter"/>
   </g>
   <g id="patch_175">
    <path d="M 391.023954 307.584 
L 394.755613 307.584 
L 394.755613 307.584 
L 391.023954 307.584 
z
" clip-path="url(#p5fdd4f6913)" style="fill: #1f77b4; fill-opacity: 0.5; stroke: #000000; stroke-width: 0.373166; stroke-linejoin: miter"/>
   </g>
   <g id="patch_176">
    <path d="M 394.755613 307.584 
L 398.487273 307.584 
L 398.487273 54.144 
L 394.755613 54.144 
z
" clip-path="url(#p5fdd4f6913)" style="fill: #1f77b4; fill-opacity: 0.5; stroke: #000000; stroke-width: 0.373166; stroke-linejoin: miter"/>
   </g>
   <g id="matplotlib.axis_1">
    <g id="xtick_1">
     <g id="line2d_1">
      <defs>
       <path id="mf21b363133" d="M 0 0 
L 0 3.5 
" style="stroke: #000000; stroke-width: 0.8"/>
      </defs>
      <g>
       <use xlink:href="#mf21b363133" x="73.830261" y="307.584" style="stroke: #000000; stroke-width: 0.8"/>
      </g>
     </g>
     <g id="text_1">
      <!-- 0.3 -->
      <g transform="translate(65.878699 322.182437) scale(0.1 -0.1)">
       <defs>
        <path id="DejaVuSans-30" d="M 2034 4250 
Q 1547 4250 1301 3770 
Q 1056 3291 1056 2328 
Q 1056 1369 1301 889 
Q 1547 409 2034 409 
Q 2525 409 2770 889 
Q 3016 1369 3016 2328 
Q 3016 3291 2770 3770 
Q 2525 4250 2034 4250 
z
M 2034 4750 
Q 2819 4750 3233 4129 
Q 3647 3509 3647 2328 
Q 3647 1150 3233 529 
Q 2819 -91 2034 -91 
Q 1250 -91 836 529 
Q 422 1150 422 2328 
Q 422 3509 836 4129 
Q 1250 4750 2034 4750 
z
" transform="scale(0.015625)"/>
        <path id="DejaVuSans-2e" d="M 684 794 
L 1344 794 
L 1344 0 
L 684 0 
L 684 794 
z
" transform="scale(0.015625)"/>
        <path id="DejaVuSans-33" d="M 2597 2516 
Q 3050 2419 3304 2112 
Q 3559 1806 3559 1356 
Q 3559 666 3084 287 
Q 2609 -91 1734 -91 
Q 1441 -91 1130 -33 
Q 819 25 488 141 
L 488 750 
Q 750 597 1062 519 
Q 1375 441 1716 441 
Q 2309 441 2620 675 
Q 2931 909 2931 1356 
Q 2931 1769 2642 2001 
Q 2353 2234 1838 2234 
L 1294 2234 
L 1294 2753 
L 1863 2753 
Q 2328 2753 2575 2939 
Q 2822 3125 2822 3475 
Q 2822 3834 2567 4026 
Q 2313 4219 1838 4219 
Q 1578 4219 1281 4162 
Q 984 4106 628 3988 
L 628 4550 
Q 988 4650 1302 4700 
Q 1616 4750 1894 4750 
Q 2613 4750 3031 4423 
Q 3450 4097 3450 3541 
Q 3450 3153 3228 2886 
Q 3006 2619 2597 2516 
z
" transform="scale(0.015625)"/>
       </defs>
       <use xlink:href="#DejaVuSans-30"/>
       <use xlink:href="#DejaVuSans-2e" x="63.623047"/>
       <use xlink:href="#DejaVuSans-33" x="95.410156"/>
      </g>
     </g>
    </g>
    <g id="xtick_2">
     <g id="line2d_2">
      <g>
       <use xlink:href="#mf21b363133" x="120.209834" y="307.584" style="stroke: #000000; stroke-width: 0.8"/>
      </g>
     </g>
     <g id="text_2">
      <!-- 0.4 -->
      <g transform="translate(112.258272 322.182437) scale(0.1 -0.1)">
       <defs>
        <path id="DejaVuSans-34" d="M 2419 4116 
L 825 1625 
L 2419 1625 
L 2419 4116 
z
M 2253 4666 
L 3047 4666 
L 3047 1625 
L 3713 1625 
L 3713 1100 
L 3047 1100 
L 3047 0 
L 2419 0 
L 2419 1100 
L 313 1100 
L 313 1709 
L 2253 4666 
z
" transform="scale(0.015625)"/>
       </defs>
       <use xlink:href="#DejaVuSans-30"/>
       <use xlink:href="#DejaVuSans-2e" x="63.623047"/>
       <use xlink:href="#DejaVuSans-34" x="95.410156"/>
      </g>
     </g>
    </g>
    <g id="xtick_3">
     <g id="line2d_3">
      <g>
       <use xlink:href="#mf21b363133" x="166.589407" y="307.584" style="stroke: #000000; stroke-width: 0.8"/>
      </g>
     </g>
     <g id="text_3">
      <!-- 0.5 -->
      <g transform="translate(158.637845 322.182437) scale(0.1 -0.1)">
       <defs>
        <path id="DejaVuSans-35" d="M 691 4666 
L 3169 4666 
L 3169 4134 
L 1269 4134 
L 1269 2991 
Q 1406 3038 1543 3061 
Q 1681 3084 1819 3084 
Q 2600 3084 3056 2656 
Q 3513 2228 3513 1497 
Q 3513 744 3044 326 
Q 2575 -91 1722 -91 
Q 1428 -91 1123 -41 
Q 819 9 494 109 
L 494 744 
Q 775 591 1075 516 
Q 1375 441 1709 441 
Q 2250 441 2565 725 
Q 2881 1009 2881 1497 
Q 2881 1984 2565 2268 
Q 2250 2553 1709 2553 
Q 1456 2553 1204 2497 
Q 953 2441 691 2322 
L 691 4666 
z
" transform="scale(0.015625)"/>
       </defs>
       <use xlink:href="#DejaVuSans-30"/>
       <use xlink:href="#DejaVuSans-2e" x="63.623047"/>
       <use xlink:href="#DejaVuSans-35" x="95.410156"/>
      </g>
     </g>
    </g>
    <g id="xtick_4">
     <g id="line2d_4">
      <g>
       <use xlink:href="#mf21b363133" x="212.968981" y="307.584" style="stroke: #000000; stroke-width: 0.8"/>
      </g>
     </g>
     <g id="text_4">
      <!-- 0.6 -->
      <g transform="translate(205.017418 322.182437) scale(0.1 -0.1)">
       <defs>
        <path id="DejaVuSans-36" d="M 2113 2584 
Q 1688 2584 1439 2293 
Q 1191 2003 1191 1497 
Q 1191 994 1439 701 
Q 1688 409 2113 409 
Q 2538 409 2786 701 
Q 3034 994 3034 1497 
Q 3034 2003 2786 2293 
Q 2538 2584 2113 2584 
z
M 3366 4563 
L 3366 3988 
Q 3128 4100 2886 4159 
Q 2644 4219 2406 4219 
Q 1781 4219 1451 3797 
Q 1122 3375 1075 2522 
Q 1259 2794 1537 2939 
Q 1816 3084 2150 3084 
Q 2853 3084 3261 2657 
Q 3669 2231 3669 1497 
Q 3669 778 3244 343 
Q 2819 -91 2113 -91 
Q 1303 -91 875 529 
Q 447 1150 447 2328 
Q 447 3434 972 4092 
Q 1497 4750 2381 4750 
Q 2619 4750 2861 4703 
Q 3103 4656 3366 4563 
z
" transform="scale(0.015625)"/>
       </defs>
       <use xlink:href="#DejaVuSans-30"/>
       <use xlink:href="#DejaVuSans-2e" x="63.623047"/>
       <use xlink:href="#DejaVuSans-36" x="95.410156"/>
      </g>
     </g>
    </g>
    <g id="xtick_5">
     <g id="line2d_5">
      <g>
       <use xlink:href="#mf21b363133" x="259.348554" y="307.584" style="stroke: #000000; stroke-width: 0.8"/>
      </g>
     </g>
     <g id="text_5">
      <!-- 0.7 -->
      <g transform="translate(251.396991 322.182437) scale(0.1 -0.1)">
       <defs>
        <path id="DejaVuSans-37" d="M 525 4666 
L 3525 4666 
L 3525 4397 
L 1831 0 
L 1172 0 
L 2766 4134 
L 525 4134 
L 525 4666 
z
" transform="scale(0.015625)"/>
       </defs>
       <use xlink:href="#DejaVuSans-30"/>
       <use xlink:href="#DejaVuSans-2e" x="63.623047"/>
       <use xlink:href="#DejaVuSans-37" x="95.410156"/>
      </g>
     </g>
    </g>
    <g id="xtick_6">
     <g id="line2d_6">
      <g>
       <use xlink:href="#mf21b363133" x="305.728127" y="307.584" style="stroke: #000000; stroke-width: 0.8"/>
      </g>
     </g>
     <g id="text_6">
      <!-- 0.8 -->
      <g transform="translate(297.776564 322.182437) scale(0.1 -0.1)">
       <defs>
        <path id="DejaVuSans-38" d="M 2034 2216 
Q 1584 2216 1326 1975 
Q 1069 1734 1069 1313 
Q 1069 891 1326 650 
Q 1584 409 2034 409 
Q 2484 409 2743 651 
Q 3003 894 3003 1313 
Q 3003 1734 2745 1975 
Q 2488 2216 2034 2216 
z
M 1403 2484 
Q 997 2584 770 2862 
Q 544 3141 544 3541 
Q 544 4100 942 4425 
Q 1341 4750 2034 4750 
Q 2731 4750 3128 4425 
Q 3525 4100 3525 3541 
Q 3525 3141 3298 2862 
Q 3072 2584 2669 2484 
Q 3125 2378 3379 2068 
Q 3634 1759 3634 1313 
Q 3634 634 3220 271 
Q 2806 -91 2034 -91 
Q 1263 -91 848 271 
Q 434 634 434 1313 
Q 434 1759 690 2068 
Q 947 2378 1403 2484 
z
M 1172 3481 
Q 1172 3119 1398 2916 
Q 1625 2713 2034 2713 
Q 2441 2713 2670 2916 
Q 2900 3119 2900 3481 
Q 2900 3844 2670 4047 
Q 2441 4250 2034 4250 
Q 1625 4250 1398 4047 
Q 1172 3844 1172 3481 
z
" transform="scale(0.015625)"/>
       </defs>
       <use xlink:href="#DejaVuSans-30"/>
       <use xlink:href="#DejaVuSans-2e" x="63.623047"/>
       <use xlink:href="#DejaVuSans-38" x="95.410156"/>
      </g>
     </g>
    </g>
    <g id="xtick_7">
     <g id="line2d_7">
      <g>
       <use xlink:href="#mf21b363133" x="352.1077" y="307.584" style="stroke: #000000; stroke-width: 0.8"/>
      </g>
     </g>
     <g id="text_7">
      <!-- 0.9 -->
      <g transform="translate(344.156137 322.182437) scale(0.1 -0.1)">
       <defs>
        <path id="DejaVuSans-39" d="M 703 97 
L 703 672 
Q 941 559 1184 500 
Q 1428 441 1663 441 
Q 2288 441 2617 861 
Q 2947 1281 2994 2138 
Q 2813 1869 2534 1725 
Q 2256 1581 1919 1581 
Q 1219 1581 811 2004 
Q 403 2428 403 3163 
Q 403 3881 828 4315 
Q 1253 4750 1959 4750 
Q 2769 4750 3195 4129 
Q 3622 3509 3622 2328 
Q 3622 1225 3098 567 
Q 2575 -91 1691 -91 
Q 1453 -91 1209 -44 
Q 966 3 703 97 
z
M 1959 2075 
Q 2384 2075 2632 2365 
Q 2881 2656 2881 3163 
Q 2881 3666 2632 3958 
Q 2384 4250 1959 4250 
Q 1534 4250 1286 3958 
Q 1038 3666 1038 3163 
Q 1038 2656 1286 2365 
Q 1534 2075 1959 2075 
z
" transform="scale(0.015625)"/>
       </defs>
       <use xlink:href="#DejaVuSans-30"/>
       <use xlink:href="#DejaVuSans-2e" x="63.623047"/>
       <use xlink:href="#DejaVuSans-39" x="95.410156"/>
      </g>
     </g>
    </g>
    <g id="xtick_8">
     <g id="line2d_8">
      <g>
       <use xlink:href="#mf21b363133" x="398.487273" y="307.584" style="stroke: #000000; stroke-width: 0.8"/>
      </g>
     </g>
     <g id="text_8">
      <!-- 1.0 -->
      <g transform="translate(390.53571 322.182437) scale(0.1 -0.1)">
       <defs>
        <path id="DejaVuSans-31" d="M 794 531 
L 1825 531 
L 1825 4091 
L 703 3866 
L 703 4441 
L 1819 4666 
L 2450 4666 
L 2450 531 
L 3481 531 
L 3481 0 
L 794 0 
L 794 531 
z
" transform="scale(0.015625)"/>
       </defs>
       <use xlink:href="#DejaVuSans-31"/>
       <use xlink:href="#DejaVuSans-2e" x="63.623047"/>
       <use xlink:href="#DejaVuSans-30" x="95.410156"/>
      </g>
     </g>
    </g>
    <g id="text_9">
     <!-- Cosine_similarity -->
     <g transform="translate(193.799844 335.860562) scale(0.1 -0.1)">
      <defs>
       <path id="DejaVuSans-43" d="M 4122 4306 
L 4122 3641 
Q 3803 3938 3442 4084 
Q 3081 4231 2675 4231 
Q 1875 4231 1450 3742 
Q 1025 3253 1025 2328 
Q 1025 1406 1450 917 
Q 1875 428 2675 428 
Q 3081 428 3442 575 
Q 3803 722 4122 1019 
L 4122 359 
Q 3791 134 3420 21 
Q 3050 -91 2638 -91 
Q 1578 -91 968 557 
Q 359 1206 359 2328 
Q 359 3453 968 4101 
Q 1578 4750 2638 4750 
Q 3056 4750 3426 4639 
Q 3797 4528 4122 4306 
z
" transform="scale(0.015625)"/>
       <path id="DejaVuSans-6f" d="M 1959 3097 
Q 1497 3097 1228 2736 
Q 959 2375 959 1747 
Q 959 1119 1226 758 
Q 1494 397 1959 397 
Q 2419 397 2687 759 
Q 2956 1122 2956 1747 
Q 2956 2369 2687 2733 
Q 2419 3097 1959 3097 
z
M 1959 3584 
Q 2709 3584 3137 3096 
Q 3566 2609 3566 1747 
Q 3566 888 3137 398 
Q 2709 -91 1959 -91 
Q 1206 -91 779 398 
Q 353 888 353 1747 
Q 353 2609 779 3096 
Q 1206 3584 1959 3584 
z
" transform="scale(0.015625)"/>
       <path id="DejaVuSans-73" d="M 2834 3397 
L 2834 2853 
Q 2591 2978 2328 3040 
Q 2066 3103 1784 3103 
Q 1356 3103 1142 2972 
Q 928 2841 928 2578 
Q 928 2378 1081 2264 
Q 1234 2150 1697 2047 
L 1894 2003 
Q 2506 1872 2764 1633 
Q 3022 1394 3022 966 
Q 3022 478 2636 193 
Q 2250 -91 1575 -91 
Q 1294 -91 989 -36 
Q 684 19 347 128 
L 347 722 
Q 666 556 975 473 
Q 1284 391 1588 391 
Q 1994 391 2212 530 
Q 2431 669 2431 922 
Q 2431 1156 2273 1281 
Q 2116 1406 1581 1522 
L 1381 1569 
Q 847 1681 609 1914 
Q 372 2147 372 2553 
Q 372 3047 722 3315 
Q 1072 3584 1716 3584 
Q 2034 3584 2315 3537 
Q 2597 3491 2834 3397 
z
" transform="scale(0.015625)"/>
       <path id="DejaVuSans-69" d="M 603 3500 
L 1178 3500 
L 1178 0 
L 603 0 
L 603 3500 
z
M 603 4863 
L 1178 4863 
L 1178 4134 
L 603 4134 
L 603 4863 
z
" transform="scale(0.015625)"/>
       <path id="DejaVuSans-6e" d="M 3513 2113 
L 3513 0 
L 2938 0 
L 2938 2094 
Q 2938 2591 2744 2837 
Q 2550 3084 2163 3084 
Q 1697 3084 1428 2787 
Q 1159 2491 1159 1978 
L 1159 0 
L 581 0 
L 581 3500 
L 1159 3500 
L 1159 2956 
Q 1366 3272 1645 3428 
Q 1925 3584 2291 3584 
Q 2894 3584 3203 3211 
Q 3513 2838 3513 2113 
z
" transform="scale(0.015625)"/>
       <path id="DejaVuSans-65" d="M 3597 1894 
L 3597 1613 
L 953 1613 
Q 991 1019 1311 708 
Q 1631 397 2203 397 
Q 2534 397 2845 478 
Q 3156 559 3463 722 
L 3463 178 
Q 3153 47 2828 -22 
Q 2503 -91 2169 -91 
Q 1331 -91 842 396 
Q 353 884 353 1716 
Q 353 2575 817 3079 
Q 1281 3584 2069 3584 
Q 2775 3584 3186 3129 
Q 3597 2675 3597 1894 
z
M 3022 2063 
Q 3016 2534 2758 2815 
Q 2500 3097 2075 3097 
Q 1594 3097 1305 2825 
Q 1016 2553 972 2059 
L 3022 2063 
z
" transform="scale(0.015625)"/>
       <path id="DejaVuSans-5f" d="M 3263 -1063 
L 3263 -1509 
L -63 -1509 
L -63 -1063 
L 3263 -1063 
z
" transform="scale(0.015625)"/>
       <path id="DejaVuSans-6d" d="M 3328 2828 
Q 3544 3216 3844 3400 
Q 4144 3584 4550 3584 
Q 5097 3584 5394 3201 
Q 5691 2819 5691 2113 
L 5691 0 
L 5113 0 
L 5113 2094 
Q 5113 2597 4934 2840 
Q 4756 3084 4391 3084 
Q 3944 3084 3684 2787 
Q 3425 2491 3425 1978 
L 3425 0 
L 2847 0 
L 2847 2094 
Q 2847 2600 2669 2842 
Q 2491 3084 2119 3084 
Q 1678 3084 1418 2786 
Q 1159 2488 1159 1978 
L 1159 0 
L 581 0 
L 581 3500 
L 1159 3500 
L 1159 2956 
Q 1356 3278 1631 3431 
Q 1906 3584 2284 3584 
Q 2666 3584 2933 3390 
Q 3200 3197 3328 2828 
z
" transform="scale(0.015625)"/>
       <path id="DejaVuSans-6c" d="M 603 4863 
L 1178 4863 
L 1178 0 
L 603 0 
L 603 4863 
z
" transform="scale(0.015625)"/>
       <path id="DejaVuSans-61" d="M 2194 1759 
Q 1497 1759 1228 1600 
Q 959 1441 959 1056 
Q 959 750 1161 570 
Q 1363 391 1709 391 
Q 2188 391 2477 730 
Q 2766 1069 2766 1631 
L 2766 1759 
L 2194 1759 
z
M 3341 1997 
L 3341 0 
L 2766 0 
L 2766 531 
Q 2569 213 2275 61 
Q 1981 -91 1556 -91 
Q 1019 -91 701 211 
Q 384 513 384 1019 
Q 384 1609 779 1909 
Q 1175 2209 1959 2209 
L 2766 2209 
L 2766 2266 
Q 2766 2663 2505 2880 
Q 2244 3097 1772 3097 
Q 1472 3097 1187 3025 
Q 903 2953 641 2809 
L 641 3341 
Q 956 3463 1253 3523 
Q 1550 3584 1831 3584 
Q 2591 3584 2966 3190 
Q 3341 2797 3341 1997 
z
" transform="scale(0.015625)"/>
       <path id="DejaVuSans-72" d="M 2631 2963 
Q 2534 3019 2420 3045 
Q 2306 3072 2169 3072 
Q 1681 3072 1420 2755 
Q 1159 2438 1159 1844 
L 1159 0 
L 581 0 
L 581 3500 
L 1159 3500 
L 1159 2956 
Q 1341 3275 1631 3429 
Q 1922 3584 2338 3584 
Q 2397 3584 2469 3576 
Q 2541 3569 2628 3553 
L 2631 2963 
z
" transform="scale(0.015625)"/>
       <path id="DejaVuSans-74" d="M 1172 4494 
L 1172 3500 
L 2356 3500 
L 2356 3053 
L 1172 3053 
L 1172 1153 
Q 1172 725 1289 603 
Q 1406 481 1766 481 
L 2356 481 
L 2356 0 
L 1766 0 
Q 1100 0 847 248 
Q 594 497 594 1153 
L 594 3053 
L 172 3053 
L 172 3500 
L 594 3500 
L 594 4494 
L 1172 4494 
z
" transform="scale(0.015625)"/>
       <path id="DejaVuSans-79" d="M 2059 -325 
Q 1816 -950 1584 -1140 
Q 1353 -1331 966 -1331 
L 506 -1331 
L 506 -850 
L 844 -850 
Q 1081 -850 1212 -737 
Q 1344 -625 1503 -206 
L 1606 56 
L 191 3500 
L 800 3500 
L 1894 763 
L 2988 3500 
L 3597 3500 
L 2059 -325 
z
" transform="scale(0.015625)"/>
      </defs>
      <use xlink:href="#DejaVuSans-43"/>
      <use xlink:href="#DejaVuSans-6f" x="69.824219"/>
      <use xlink:href="#DejaVuSans-73" x="131.005859"/>
      <use xlink:href="#DejaVuSans-69" x="183.105469"/>
      <use xlink:href="#DejaVuSans-6e" x="210.888672"/>
      <use xlink:href="#DejaVuSans-65" x="274.267578"/>
      <use xlink:href="#DejaVuSans-5f" x="335.791016"/>
      <use xlink:href="#DejaVuSans-73" x="385.791016"/>
      <use xlink:href="#DejaVuSans-69" x="437.890625"/>
      <use xlink:href="#DejaVuSans-6d" x="465.673828"/>
      <use xlink:href="#DejaVuSans-69" x="563.085938"/>
      <use xlink:href="#DejaVuSans-6c" x="590.869141"/>
      <use xlink:href="#DejaVuSans-61" x="618.652344"/>
      <use xlink:href="#DejaVuSans-72" x="679.931641"/>
      <use xlink:href="#DejaVuSans-69" x="721.044922"/>
      <use xlink:href="#DejaVuSans-74" x="748.828125"/>
      <use xlink:href="#DejaVuSans-79" x="788.037109"/>
     </g>
    </g>
   </g>
   <g id="matplotlib.axis_2">
    <g id="ytick_1">
     <g id="line2d_9">
      <defs>
       <path id="mf6ba9771ad" d="M 0 0 
L -3.5 0 
" style="stroke: #000000; stroke-width: 0.8"/>
      </defs>
      <g>
       <use xlink:href="#mf6ba9771ad" x="57.6" y="307.584" style="stroke: #000000; stroke-width: 0.8"/>
      </g>
     </g>
     <g id="text_10">
      <!-- 0 -->
      <g transform="translate(44.2375 311.383219) scale(0.1 -0.1)">
       <use xlink:href="#DejaVuSans-30"/>
      </g>
     </g>
    </g>
    <g id="ytick_2">
     <g id="line2d_10">
      <g>
       <use xlink:href="#mf6ba9771ad" x="57.6" y="250.245359" style="stroke: #000000; stroke-width: 0.8"/>
      </g>
     </g>
     <g id="text_11">
      <!-- 10 -->
      <g transform="translate(37.875 254.044578) scale(0.1 -0.1)">
       <use xlink:href="#DejaVuSans-31"/>
       <use xlink:href="#DejaVuSans-30" x="63.623047"/>
      </g>
     </g>
    </g>
    <g id="ytick_3">
     <g id="line2d_11">
      <g>
       <use xlink:href="#mf6ba9771ad" x="57.6" y="192.906719" style="stroke: #000000; stroke-width: 0.8"/>
      </g>
     </g>
     <g id="text_12">
      <!-- 20 -->
      <g transform="translate(37.875 196.705937) scale(0.1 -0.1)">
       <defs>
        <path id="DejaVuSans-32" d="M 1228 531 
L 3431 531 
L 3431 0 
L 469 0 
L 469 531 
Q 828 903 1448 1529 
Q 2069 2156 2228 2338 
Q 2531 2678 2651 2914 
Q 2772 3150 2772 3378 
Q 2772 3750 2511 3984 
Q 2250 4219 1831 4219 
Q 1534 4219 1204 4116 
Q 875 4013 500 3803 
L 500 4441 
Q 881 4594 1212 4672 
Q 1544 4750 1819 4750 
Q 2544 4750 2975 4387 
Q 3406 4025 3406 3419 
Q 3406 3131 3298 2873 
Q 3191 2616 2906 2266 
Q 2828 2175 2409 1742 
Q 1991 1309 1228 531 
z
" transform="scale(0.015625)"/>
       </defs>
       <use xlink:href="#DejaVuSans-32"/>
       <use xlink:href="#DejaVuSans-30" x="63.623047"/>
      </g>
     </g>
    </g>
    <g id="ytick_4">
     <g id="line2d_12">
      <g>
       <use xlink:href="#mf6ba9771ad" x="57.6" y="135.568078" style="stroke: #000000; stroke-width: 0.8"/>
      </g>
     </g>
     <g id="text_13">
      <!-- 30 -->
      <g transform="translate(37.875 139.367297) scale(0.1 -0.1)">
       <use xlink:href="#DejaVuSans-33"/>
       <use xlink:href="#DejaVuSans-30" x="63.623047"/>
      </g>
     </g>
    </g>
    <g id="ytick_5">
     <g id="line2d_13">
      <g>
       <use xlink:href="#mf6ba9771ad" x="57.6" y="78.229437" style="stroke: #000000; stroke-width: 0.8"/>
      </g>
     </g>
     <g id="text_14">
      <!-- 40 -->
      <g transform="translate(37.875 82.028656) scale(0.1 -0.1)">
       <use xlink:href="#DejaVuSans-34"/>
       <use xlink:href="#DejaVuSans-30" x="63.623047"/>
      </g>
     </g>
    </g>
    <g id="text_15">
     <!-- Density -->
     <g transform="translate(31.795312 193.536594) rotate(-90) scale(0.1 -0.1)">
      <defs>
       <path id="DejaVuSans-44" d="M 1259 4147 
L 1259 519 
L 2022 519 
Q 2988 519 3436 956 
Q 3884 1394 3884 2338 
Q 3884 3275 3436 3711 
Q 2988 4147 2022 4147 
L 1259 4147 
z
M 628 4666 
L 1925 4666 
Q 3281 4666 3915 4102 
Q 4550 3538 4550 2338 
Q 4550 1131 3912 565 
Q 3275 0 1925 0 
L 628 0 
L 628 4666 
z
" transform="scale(0.015625)"/>
      </defs>
      <use xlink:href="#DejaVuSans-44"/>
      <use xlink:href="#DejaVuSans-65" x="77.001953"/>
      <use xlink:href="#DejaVuSans-6e" x="138.525391"/>
      <use xlink:href="#DejaVuSans-73" x="201.904297"/>
      <use xlink:href="#DejaVuSans-69" x="254.003906"/>
      <use xlink:href="#DejaVuSans-74" x="281.787109"/>
      <use xlink:href="#DejaVuSans-79" x="320.996094"/>
     </g>
    </g>
   </g>
   <g id="patch_177">
    <path d="M 57.6 307.584 
L 57.6 41.472 
" style="fill: none; stroke: #000000; stroke-width: 0.8; stroke-linejoin: miter; stroke-linecap: square"/>
   </g>
   <g id="patch_178">
    <path d="M 414.72 307.584 
L 414.72 41.472 
" style="fill: none; stroke: #000000; stroke-width: 0.8; stroke-linejoin: miter; stroke-linecap: square"/>
   </g>
   <g id="patch_179">
    <path d="M 57.6 307.584 
L 414.72 307.584 
" style="fill: none; stroke: #000000; stroke-width: 0.8; stroke-linejoin: miter; stroke-linecap: square"/>
   </g>
   <g id="patch_180">
    <path d="M 57.6 41.472 
L 414.72 41.472 
" style="fill: none; stroke: #000000; stroke-width: 0.8; stroke-linejoin: miter; stroke-linecap: square"/>
   </g>
   <g id="legend_1">
    <g id="patch_181">
     <path d="M 64.6 93.506375 
L 163.132812 93.506375 
Q 165.132812 93.506375 165.132812 91.506375 
L 165.132812 48.472 
Q 165.132812 46.472 163.132812 46.472 
L 64.6 46.472 
Q 62.6 46.472 62.6 48.472 
L 62.6 91.506375 
Q 62.6 93.506375 64.6 93.506375 
z
" style="fill: #ffffff; opacity: 0.8; stroke: #cccccc; stroke-linejoin: miter"/>
    </g>
    <g id="text_16">
     <!-- Pairs -->
     <g transform="translate(101.963281 58.070438) scale(0.1 -0.1)">
      <defs>
       <path id="DejaVuSans-50" d="M 1259 4147 
L 1259 2394 
L 2053 2394 
Q 2494 2394 2734 2622 
Q 2975 2850 2975 3272 
Q 2975 3691 2734 3919 
Q 2494 4147 2053 4147 
L 1259 4147 
z
M 628 4666 
L 2053 4666 
Q 2838 4666 3239 4311 
Q 3641 3956 3641 3272 
Q 3641 2581 3239 2228 
Q 2838 1875 2053 1875 
L 1259 1875 
L 1259 0 
L 628 0 
L 628 4666 
z
" transform="scale(0.015625)"/>
      </defs>
      <use xlink:href="#DejaVuSans-50"/>
      <use xlink:href="#DejaVuSans-61" x="55.802734"/>
      <use xlink:href="#DejaVuSans-69" x="117.082031"/>
      <use xlink:href="#DejaVuSans-72" x="144.865234"/>
      <use xlink:href="#DejaVuSans-73" x="185.978516"/>
     </g>
    </g>
    <g id="patch_182">
     <path d="M 66.6 72.748563 
L 86.6 72.748563 
L 86.6 65.748563 
L 66.6 65.748563 
z
" style="fill: #1f77b4; fill-opacity: 0.5; stroke: #000000; stroke-linejoin: miter"/>
    </g>
    <g id="text_17">
     <!-- Matches -->
     <g transform="translate(94.6 72.748563) scale(0.1 -0.1)">
      <defs>
       <path id="DejaVuSans-4d" d="M 628 4666 
L 1569 4666 
L 2759 1491 
L 3956 4666 
L 4897 4666 
L 4897 0 
L 4281 0 
L 4281 4097 
L 3078 897 
L 2444 897 
L 1241 4097 
L 1241 0 
L 628 0 
L 628 4666 
z
" transform="scale(0.015625)"/>
       <path id="DejaVuSans-63" d="M 3122 3366 
L 3122 2828 
Q 2878 2963 2633 3030 
Q 2388 3097 2138 3097 
Q 1578 3097 1268 2742 
Q 959 2388 959 1747 
Q 959 1106 1268 751 
Q 1578 397 2138 397 
Q 2388 397 2633 464 
Q 2878 531 3122 666 
L 3122 134 
Q 2881 22 2623 -34 
Q 2366 -91 2075 -91 
Q 1284 -91 818 406 
Q 353 903 353 1747 
Q 353 2603 823 3093 
Q 1294 3584 2113 3584 
Q 2378 3584 2631 3529 
Q 2884 3475 3122 3366 
z
" transform="scale(0.015625)"/>
       <path id="DejaVuSans-68" d="M 3513 2113 
L 3513 0 
L 2938 0 
L 2938 2094 
Q 2938 2591 2744 2837 
Q 2550 3084 2163 3084 
Q 1697 3084 1428 2787 
Q 1159 2491 1159 1978 
L 1159 0 
L 581 0 
L 581 4863 
L 1159 4863 
L 1159 2956 
Q 1366 3272 1645 3428 
Q 1925 3584 2291 3584 
Q 2894 3584 3203 3211 
Q 3513 2838 3513 2113 
z
" transform="scale(0.015625)"/>
      </defs>
      <use xlink:href="#DejaVuSans-4d"/>
      <use xlink:href="#DejaVuSans-61" x="86.279297"/>
      <use xlink:href="#DejaVuSans-74" x="147.558594"/>
      <use xlink:href="#DejaVuSans-63" x="186.767578"/>
      <use xlink:href="#DejaVuSans-68" x="241.748047"/>
      <use xlink:href="#DejaVuSans-65" x="305.126953"/>
      <use xlink:href="#DejaVuSans-73" x="366.650391"/>
     </g>
    </g>
    <g id="patch_183">
     <path d="M 66.6 87.426688 
L 86.6 87.426688 
L 86.6 80.426688 
L 66.6 80.426688 
z
" style="fill: #ff7f0e; fill-opacity: 0.5; stroke: #000000; stroke-linejoin: miter"/>
    </g>
    <g id="text_18">
     <!-- Non-matches -->
     <g transform="translate(94.6 87.426688) scale(0.1 -0.1)">
      <defs>
       <path id="DejaVuSans-4e" d="M 628 4666 
L 1478 4666 
L 3547 763 
L 3547 4666 
L 4159 4666 
L 4159 0 
L 3309 0 
L 1241 3903 
L 1241 0 
L 628 0 
L 628 4666 
z
" transform="scale(0.015625)"/>
       <path id="DejaVuSans-2d" d="M 313 2009 
L 1997 2009 
L 1997 1497 
L 313 1497 
L 313 2009 
z
" transform="scale(0.015625)"/>
      </defs>
      <use xlink:href="#DejaVuSans-4e"/>
      <use xlink:href="#DejaVuSans-6f" x="74.804688"/>
      <use xlink:href="#DejaVuSans-6e" x="135.986328"/>
      <use xlink:href="#DejaVuSans-2d" x="199.365234"/>
      <use xlink:href="#DejaVuSans-6d" x="235.449219"/>
      <use xlink:href="#DejaVuSans-61" x="332.861328"/>
      <use xlink:href="#DejaVuSans-74" x="394.140625"/>
      <use xlink:href="#DejaVuSans-63" x="433.349609"/>
      <use xlink:href="#DejaVuSans-68" x="488.330078"/>
      <use xlink:href="#DejaVuSans-65" x="551.708984"/>
      <use xlink:href="#DejaVuSans-73" x="613.232422"/>
     </g>
    </g>
   </g>
  </g>
 </g>
 <defs>
  <clipPath id="p5fdd4f6913">
   <rect x="57.6" y="41.472" width="357.12" height="266.112"/>
  </clipPath>
 </defs>
</svg>
