<?xml version="1.0" encoding="utf-8" standalone="no"?>
<!DOCTYPE svg PUBLIC "-//W3C//DTD SVG 1.1//EN"
  "http://www.w3.org/Graphics/SVG/1.1/DTD/svg11.dtd">
<svg xmlns:xlink="http://www.w3.org/1999/xlink" width="460.8pt" height="345.6pt" viewBox="0 0 460.8 345.6" xmlns="http://www.w3.org/2000/svg" version="1.1">
 <metadata>
  <rdf:RDF xmlns:dc="http://purl.org/dc/elements/1.1/" xmlns:cc="http://creativecommons.org/ns#" xmlns:rdf="http://www.w3.org/1999/02/22-rdf-syntax-ns#">
   <cc:Work>
    <dc:type rdf:resource="http://purl.org/dc/dcmitype/StillImage"/>
    <dc:date>2024-05-03T14:52:55.351012</dc:date>
    <dc:format>image/svg+xml</dc:format>
    <dc:creator>
     <cc:Agent>
      <dc:title>Matplotlib v3.6.2, https://matplotlib.org/</dc:title>
     </cc:Agent>
    </dc:creator>
   </cc:Work>
  </rdf:RDF>
 </metadata>
 <defs>
  <style type="text/css">*{stroke-linejoin: round; stroke-linecap: butt}</style>
 </defs>
 <g id="figure_1">
  <g id="patch_1">
   <path d="M 0 345.6 
L 460.8 345.6 
L 460.8 0 
L 0 0 
z
" style="fill: #ffffff"/>
  </g>
  <g id="axes_1">
   <g id="patch_2">
    <path d="M 57.6 307.584 
L 414.72 307.584 
L 414.72 41.472 
L 57.6 41.472 
z
" style="fill: #ffffff"/>
   </g>
   <g id="patch_3">
    <path d="M 73.832727 307.584 
L 80.076083 307.584 
L 80.076083 54.144 
L 73.832727 54.144 
z
" clip-path="url(#pad27c9a62d)" style="fill: #ff7f0e; fill-opacity: 0.5; stroke: #000000; stroke-width: 0.624334; stroke-linejoin: miter"/>
   </g>
   <g id="patch_4">
    <path d="M 80.076099 307.584 
L 86.319455 307.584 
L 86.319455 113.426376 
L 80.076099 113.426376 
z
" clip-path="url(#pad27c9a62d)" style="fill: #ff7f0e; fill-opacity: 0.5; stroke: #000000; stroke-width: 0.624334; stroke-linejoin: miter"/>
   </g>
   <g id="patch_5">
    <path d="M 86.319439 307.584 
L 92.562795 307.584 
L 92.562795 132.246178 
L 86.319439 132.246178 
z
" clip-path="url(#pad27c9a62d)" style="fill: #ff7f0e; fill-opacity: 0.5; stroke: #000000; stroke-width: 0.624334; stroke-linejoin: miter"/>
   </g>
   <g id="patch_6">
    <path d="M 92.562811 307.584 
L 98.806167 307.584 
L 98.806167 173.336079 
L 92.562811 173.336079 
z
" clip-path="url(#pad27c9a62d)" style="fill: #ff7f0e; fill-opacity: 0.5; stroke: #000000; stroke-width: 0.624334; stroke-linejoin: miter"/>
   </g>
   <g id="patch_7">
    <path d="M 98.806151 307.584 
L 105.049508 307.584 
L 105.049508 186.823604 
L 98.806151 186.823604 
z
" clip-path="url(#pad27c9a62d)" style="fill: #ff7f0e; fill-opacity: 0.5; stroke: #000000; stroke-width: 0.624334; stroke-linejoin: miter"/>
   </g>
   <g id="patch_8">
    <path d="M 105.049523 307.584 
L 111.292879 307.584 
L 111.292879 211.916673 
L 105.049523 211.916673 
z
" clip-path="url(#pad27c9a62d)" style="fill: #ff7f0e; fill-opacity: 0.5; stroke: #000000; stroke-width: 0.624334; stroke-linejoin: miter"/>
   </g>
   <g id="patch_9">
    <path d="M 111.292864 307.584 
L 117.53622 307.584 
L 117.53622 219.444594 
L 111.292864 219.444594 
z
" clip-path="url(#pad27c9a62d)" style="fill: #ff7f0e; fill-opacity: 0.5; stroke: #000000; stroke-width: 0.624334; stroke-linejoin: miter"/>
   </g>
   <g id="patch_10">
    <path d="M 117.536235 307.584 
L 123.779591 307.584 
L 123.779591 242.028356 
L 117.536235 242.028356 
z
" clip-path="url(#pad27c9a62d)" style="fill: #ff7f0e; fill-opacity: 0.5; stroke: #000000; stroke-width: 0.624334; stroke-linejoin: miter"/>
   </g>
   <g id="patch_11">
    <path d="M 123.779576 307.584 
L 130.022932 307.584 
L 130.022932 257.397861 
L 123.779576 257.397861 
z
" clip-path="url(#pad27c9a62d)" style="fill: #ff7f0e; fill-opacity: 0.5; stroke: #000000; stroke-width: 0.624334; stroke-linejoin: miter"/>
   </g>
   <g id="patch_12">
    <path d="M 130.022947 307.584 
L 136.266303 307.584 
L 136.266303 255.829545 
L 130.022947 255.829545 
z
" clip-path="url(#pad27c9a62d)" style="fill: #ff7f0e; fill-opacity: 0.5; stroke: #000000; stroke-width: 0.624334; stroke-linejoin: miter"/>
   </g>
   <g id="patch_13">
    <path d="M 136.266288 307.584 
L 142.509644 307.584 
L 142.509644 265.866772 
L 136.266288 265.866772 
z
" clip-path="url(#pad27c9a62d)" style="fill: #ff7f0e; fill-opacity: 0.5; stroke: #000000; stroke-width: 0.624334; stroke-linejoin: miter"/>
   </g>
   <g id="patch_14">
    <path d="M 142.509659 307.584 
L 148.753015 307.584 
L 148.753015 264.298455 
L 142.509659 264.298455 
z
" clip-path="url(#pad27c9a62d)" style="fill: #ff7f0e; fill-opacity: 0.5; stroke: #000000; stroke-width: 0.624334; stroke-linejoin: miter"/>
   </g>
   <g id="patch_15">
    <path d="M 148.753 307.584 
L 154.996356 307.584 
L 154.996356 272.453703 
L 148.753 272.453703 
z
" clip-path="url(#pad27c9a62d)" style="fill: #ff7f0e; fill-opacity: 0.5; stroke: #000000; stroke-width: 0.624334; stroke-linejoin: miter"/>
   </g>
   <g id="patch_16">
    <path d="M 154.996371 307.584 
L 161.239727 307.584 
L 161.239727 274.335683 
L 154.996371 274.335683 
z
" clip-path="url(#pad27c9a62d)" style="fill: #ff7f0e; fill-opacity: 0.5; stroke: #000000; stroke-width: 0.624334; stroke-linejoin: miter"/>
   </g>
   <g id="patch_17">
    <path d="M 161.239712 307.584 
L 167.483068 307.584 
L 167.483068 281.863604 
L 161.239712 281.863604 
z
" clip-path="url(#pad27c9a62d)" style="fill: #ff7f0e; fill-opacity: 0.5; stroke: #000000; stroke-width: 0.624334; stroke-linejoin: miter"/>
   </g>
   <g id="patch_18">
    <path d="M 167.483083 307.584 
L 173.72644 307.584 
L 173.72644 283.118257 
L 167.483083 283.118257 
z
" clip-path="url(#pad27c9a62d)" style="fill: #ff7f0e; fill-opacity: 0.5; stroke: #000000; stroke-width: 0.624334; stroke-linejoin: miter"/>
   </g>
   <g id="patch_19">
    <path d="M 173.726424 307.584 
L 179.96978 307.584 
L 179.96978 284.372911 
L 173.726424 284.372911 
z
" clip-path="url(#pad27c9a62d)" style="fill: #ff7f0e; fill-opacity: 0.5; stroke: #000000; stroke-width: 0.624334; stroke-linejoin: miter"/>
   </g>
   <g id="patch_20">
    <path d="M 179.969796 307.584 
L 186.213136 307.584 
L 186.213136 288.136823 
L 179.969796 288.136823 
z
" clip-path="url(#pad27c9a62d)" style="fill: #ff7f0e; fill-opacity: 0.5; stroke: #000000; stroke-width: 0.624334; stroke-linejoin: miter"/>
   </g>
   <g id="patch_21">
    <path d="M 186.213136 307.584 
L 192.456508 307.584 
L 192.456508 289.705233 
L 186.213136 289.705233 
z
" clip-path="url(#pad27c9a62d)" style="fill: #ff7f0e; fill-opacity: 0.5; stroke: #000000; stroke-width: 0.624334; stroke-linejoin: miter"/>
   </g>
   <g id="patch_22">
    <path d="M 192.456539 307.584 
L 198.699879 307.584 
L 198.699879 293.782778 
L 192.456539 293.782778 
z
" clip-path="url(#pad27c9a62d)" style="fill: #ff7f0e; fill-opacity: 0.5; stroke: #000000; stroke-width: 0.624334; stroke-linejoin: miter"/>
   </g>
   <g id="patch_23">
    <path d="M 198.699848 307.584 
L 204.94322 307.584 
L 204.94322 290.64622 
L 198.699848 290.64622 
z
" clip-path="url(#pad27c9a62d)" style="fill: #ff7f0e; fill-opacity: 0.5; stroke: #000000; stroke-width: 0.624334; stroke-linejoin: miter"/>
   </g>
   <g id="patch_24">
    <path d="M 204.94322 307.584 
L 211.18656 307.584 
L 211.18656 294.096442 
L 204.94322 294.096442 
z
" clip-path="url(#pad27c9a62d)" style="fill: #ff7f0e; fill-opacity: 0.5; stroke: #000000; stroke-width: 0.624334; stroke-linejoin: miter"/>
   </g>
   <g id="patch_25">
    <path d="M 211.18656 307.584 
L 217.429932 307.584 
L 217.429932 296.605809 
L 211.18656 296.605809 
z
" clip-path="url(#pad27c9a62d)" style="fill: #ff7f0e; fill-opacity: 0.5; stroke: #000000; stroke-width: 0.624334; stroke-linejoin: miter"/>
   </g>
   <g id="patch_26">
    <path d="M 217.429963 307.584 
L 223.673303 307.584 
L 223.673303 293.469113 
L 217.429963 293.469113 
z
" clip-path="url(#pad27c9a62d)" style="fill: #ff7f0e; fill-opacity: 0.5; stroke: #000000; stroke-width: 0.624334; stroke-linejoin: miter"/>
   </g>
   <g id="patch_27">
    <path d="M 223.673272 307.584 
L 229.916644 307.584 
L 229.916644 296.292147 
L 223.673272 296.292147 
z
" clip-path="url(#pad27c9a62d)" style="fill: #ff7f0e; fill-opacity: 0.5; stroke: #000000; stroke-width: 0.624334; stroke-linejoin: miter"/>
   </g>
   <g id="patch_28">
    <path d="M 229.916644 307.584 
L 236.159984 307.584 
L 236.159984 299.742396 
L 229.916644 299.742396 
z
" clip-path="url(#pad27c9a62d)" style="fill: #ff7f0e; fill-opacity: 0.5; stroke: #000000; stroke-width: 0.624334; stroke-linejoin: miter"/>
   </g>
   <g id="patch_29">
    <path d="M 236.159984 307.584 
L 242.403356 307.584 
L 242.403356 302.251736 
L 236.159984 302.251736 
z
" clip-path="url(#pad27c9a62d)" style="fill: #ff7f0e; fill-opacity: 0.5; stroke: #000000; stroke-width: 0.624334; stroke-linejoin: miter"/>
   </g>
   <g id="patch_30">
    <path d="M 242.403387 307.584 
L 248.646728 307.584 
L 248.646728 302.25171 
L 242.403387 302.25171 
z
" clip-path="url(#pad27c9a62d)" style="fill: #ff7f0e; fill-opacity: 0.5; stroke: #000000; stroke-width: 0.624334; stroke-linejoin: miter"/>
   </g>
   <g id="patch_31">
    <path d="M 248.646697 307.584 
L 254.890068 307.584 
L 254.890068 295.978484 
L 248.646697 295.978484 
z
" clip-path="url(#pad27c9a62d)" style="fill: #ff7f0e; fill-opacity: 0.5; stroke: #000000; stroke-width: 0.624334; stroke-linejoin: miter"/>
   </g>
   <g id="patch_32">
    <path d="M 254.890068 307.584 
L 261.133409 307.584 
L 261.133409 302.25171 
L 254.890068 302.25171 
z
" clip-path="url(#pad27c9a62d)" style="fill: #ff7f0e; fill-opacity: 0.5; stroke: #000000; stroke-width: 0.624334; stroke-linejoin: miter"/>
   </g>
   <g id="patch_33">
    <path d="M 261.133409 307.584 
L 267.37678 307.584 
L 267.37678 302.565399 
L 261.133409 302.565399 
z
" clip-path="url(#pad27c9a62d)" style="fill: #ff7f0e; fill-opacity: 0.5; stroke: #000000; stroke-width: 0.624334; stroke-linejoin: miter"/>
   </g>
   <g id="patch_34">
    <path d="M 267.376811 307.584 
L 273.620152 307.584 
L 273.620152 301.310717 
L 267.376811 301.310717 
z
" clip-path="url(#pad27c9a62d)" style="fill: #ff7f0e; fill-opacity: 0.5; stroke: #000000; stroke-width: 0.624334; stroke-linejoin: miter"/>
   </g>
   <g id="patch_35">
    <path d="M 273.620121 307.584 
L 279.863492 307.584 
L 279.863492 303.192724 
L 273.620121 303.192724 
z
" clip-path="url(#pad27c9a62d)" style="fill: #ff7f0e; fill-opacity: 0.5; stroke: #000000; stroke-width: 0.624334; stroke-linejoin: miter"/>
   </g>
   <g id="patch_36">
    <path d="M 279.863492 307.584 
L 286.106833 307.584 
L 286.106833 302.565374 
L 279.863492 302.565374 
z
" clip-path="url(#pad27c9a62d)" style="fill: #ff7f0e; fill-opacity: 0.5; stroke: #000000; stroke-width: 0.624334; stroke-linejoin: miter"/>
   </g>
   <g id="patch_37">
    <path d="M 286.106833 307.584 
L 292.350204 307.584 
L 292.350204 304.133712 
L 286.106833 304.133712 
z
" clip-path="url(#pad27c9a62d)" style="fill: #ff7f0e; fill-opacity: 0.5; stroke: #000000; stroke-width: 0.624334; stroke-linejoin: miter"/>
   </g>
   <g id="patch_38">
    <path d="M 292.350235 307.584 
L 298.593576 307.584 
L 298.593576 304.761023 
L 292.350235 304.761023 
z
" clip-path="url(#pad27c9a62d)" style="fill: #ff7f0e; fill-opacity: 0.5; stroke: #000000; stroke-width: 0.624334; stroke-linejoin: miter"/>
   </g>
   <g id="patch_39">
    <path d="M 298.593545 307.584 
L 304.836917 307.584 
L 304.836917 301.624411 
L 298.593545 301.624411 
z
" clip-path="url(#pad27c9a62d)" style="fill: #ff7f0e; fill-opacity: 0.5; stroke: #000000; stroke-width: 0.624334; stroke-linejoin: miter"/>
   </g>
   <g id="patch_40">
    <path d="M 304.836917 307.584 
L 311.080257 307.584 
L 311.080257 304.447359 
L 304.836917 304.447359 
z
" clip-path="url(#pad27c9a62d)" style="fill: #ff7f0e; fill-opacity: 0.5; stroke: #000000; stroke-width: 0.624334; stroke-linejoin: miter"/>
   </g>
   <g id="patch_41">
    <path d="M 311.080257 307.584 
L 317.323629 307.584 
L 317.323629 304.133712 
L 311.080257 304.133712 
z
" clip-path="url(#pad27c9a62d)" style="fill: #ff7f0e; fill-opacity: 0.5; stroke: #000000; stroke-width: 0.624334; stroke-linejoin: miter"/>
   </g>
   <g id="patch_42">
    <path d="M 317.32366 307.584 
L 323.567 307.584 
L 323.567 304.761023 
L 317.32366 304.761023 
z
" clip-path="url(#pad27c9a62d)" style="fill: #ff7f0e; fill-opacity: 0.5; stroke: #000000; stroke-width: 0.624334; stroke-linejoin: miter"/>
   </g>
   <g id="patch_43">
    <path d="M 323.566969 307.584 
L 329.810341 307.584 
L 329.810341 305.388362 
L 323.566969 305.388362 
z
" clip-path="url(#pad27c9a62d)" style="fill: #ff7f0e; fill-opacity: 0.5; stroke: #000000; stroke-width: 0.624334; stroke-linejoin: miter"/>
   </g>
   <g id="patch_44">
    <path d="M 329.810341 307.584 
L 336.053681 307.584 
L 336.053681 305.702015 
L 329.810341 305.702015 
z
" clip-path="url(#pad27c9a62d)" style="fill: #ff7f0e; fill-opacity: 0.5; stroke: #000000; stroke-width: 0.624334; stroke-linejoin: miter"/>
   </g>
   <g id="patch_45">
    <path d="M 336.053681 307.584 
L 342.297053 307.584 
L 342.297053 306.015687 
L 336.053681 306.015687 
z
" clip-path="url(#pad27c9a62d)" style="fill: #ff7f0e; fill-opacity: 0.5; stroke: #000000; stroke-width: 0.624334; stroke-linejoin: miter"/>
   </g>
   <g id="patch_46">
    <path d="M 342.297084 307.584 
L 348.540424 307.584 
L 348.540424 307.270336 
L 342.297084 307.270336 
z
" clip-path="url(#pad27c9a62d)" style="fill: #ff7f0e; fill-opacity: 0.5; stroke: #000000; stroke-width: 0.624334; stroke-linejoin: miter"/>
   </g>
   <g id="patch_47">
    <path d="M 348.540393 307.584 
L 354.783765 307.584 
L 354.783765 307.584 
L 348.540393 307.584 
z
" clip-path="url(#pad27c9a62d)" style="fill: #ff7f0e; fill-opacity: 0.5; stroke: #000000; stroke-width: 0.624334; stroke-linejoin: miter"/>
   </g>
   <g id="patch_48">
    <path d="M 354.783765 307.584 
L 361.027105 307.584 
L 361.027105 306.643008 
L 354.783765 306.643008 
z
" clip-path="url(#pad27c9a62d)" style="fill: #ff7f0e; fill-opacity: 0.5; stroke: #000000; stroke-width: 0.624334; stroke-linejoin: miter"/>
   </g>
   <g id="patch_49">
    <path d="M 361.027105 307.584 
L 367.270477 307.584 
L 367.270477 306.956675 
L 361.027105 306.956675 
z
" clip-path="url(#pad27c9a62d)" style="fill: #ff7f0e; fill-opacity: 0.5; stroke: #000000; stroke-width: 0.624334; stroke-linejoin: miter"/>
   </g>
   <g id="patch_50">
    <path d="M 367.270508 307.584 
L 373.513849 307.584 
L 373.513849 306.956672 
L 367.270508 306.956672 
z
" clip-path="url(#pad27c9a62d)" style="fill: #ff7f0e; fill-opacity: 0.5; stroke: #000000; stroke-width: 0.624334; stroke-linejoin: miter"/>
   </g>
   <g id="patch_51">
    <path d="M 373.513818 307.584 
L 379.757189 307.584 
L 379.757189 307.270337 
L 373.513818 307.270337 
z
" clip-path="url(#pad27c9a62d)" style="fill: #ff7f0e; fill-opacity: 0.5; stroke: #000000; stroke-width: 0.624334; stroke-linejoin: miter"/>
   </g>
   <g id="patch_52">
    <path d="M 379.757189 307.584 
L 386.00053 307.584 
L 386.00053 306.643008 
L 379.757189 306.643008 
z
" clip-path="url(#pad27c9a62d)" style="fill: #ff7f0e; fill-opacity: 0.5; stroke: #000000; stroke-width: 0.624334; stroke-linejoin: miter"/>
   </g>
   <g id="patch_53">
    <path d="M 386.00053 307.584 
L 392.243901 307.584 
L 392.243901 307.584 
L 386.00053 307.584 
z
" clip-path="url(#pad27c9a62d)" style="fill: #ff7f0e; fill-opacity: 0.5; stroke: #000000; stroke-width: 0.624334; stroke-linejoin: miter"/>
   </g>
   <g id="patch_54">
    <path d="M 392.243932 307.584 
L 398.487273 307.584 
L 398.487273 307.584 
L 392.243932 307.584 
z
" clip-path="url(#pad27c9a62d)" style="fill: #ff7f0e; fill-opacity: 0.5; stroke: #000000; stroke-width: 0.624334; stroke-linejoin: miter"/>
   </g>
   <g id="patch_55">
    <path d="M 73.832727 307.584 
L 80.076083 307.584 
L 80.076083 146.884711 
L 73.832727 146.884711 
z
" clip-path="url(#pad27c9a62d)" style="fill: #1f77b4; fill-opacity: 0.5; stroke: #000000; stroke-width: 0.624334; stroke-linejoin: miter"/>
   </g>
   <g id="patch_56">
    <path d="M 80.076099 307.584 
L 86.319455 307.584 
L 86.319455 177.580081 
L 80.076099 177.580081 
z
" clip-path="url(#pad27c9a62d)" style="fill: #1f77b4; fill-opacity: 0.5; stroke: #000000; stroke-width: 0.624334; stroke-linejoin: miter"/>
   </g>
   <g id="patch_57">
    <path d="M 86.319439 307.584 
L 92.562795 307.584 
L 92.562795 175.774471 
L 86.319439 175.774471 
z
" clip-path="url(#pad27c9a62d)" style="fill: #1f77b4; fill-opacity: 0.5; stroke: #000000; stroke-width: 0.624334; stroke-linejoin: miter"/>
   </g>
   <g id="patch_58">
    <path d="M 92.562811 307.584 
L 98.806167 307.584 
L 98.806167 186.608131 
L 92.562811 186.608131 
z
" clip-path="url(#pad27c9a62d)" style="fill: #1f77b4; fill-opacity: 0.5; stroke: #000000; stroke-width: 0.624334; stroke-linejoin: miter"/>
   </g>
   <g id="patch_59">
    <path d="M 98.806151 307.584 
L 105.049508 307.584 
L 105.049508 224.525941 
L 98.806151 224.525941 
z
" clip-path="url(#pad27c9a62d)" style="fill: #1f77b4; fill-opacity: 0.5; stroke: #000000; stroke-width: 0.624334; stroke-linejoin: miter"/>
   </g>
   <g id="patch_60">
    <path d="M 105.049523 307.584 
L 111.292879 307.584 
L 111.292879 226.331551 
L 105.049523 226.331551 
z
" clip-path="url(#pad27c9a62d)" style="fill: #1f77b4; fill-opacity: 0.5; stroke: #000000; stroke-width: 0.624334; stroke-linejoin: miter"/>
   </g>
   <g id="patch_61">
    <path d="M 111.292864 307.584 
L 117.53622 307.584 
L 117.53622 238.97082 
L 111.292864 238.97082 
z
" clip-path="url(#pad27c9a62d)" style="fill: #1f77b4; fill-opacity: 0.5; stroke: #000000; stroke-width: 0.624334; stroke-linejoin: miter"/>
   </g>
   <g id="patch_62">
    <path d="M 117.536235 307.584 
L 123.779591 307.584 
L 123.779591 208.275451 
L 117.536235 208.275451 
z
" clip-path="url(#pad27c9a62d)" style="fill: #1f77b4; fill-opacity: 0.5; stroke: #000000; stroke-width: 0.624334; stroke-linejoin: miter"/>
   </g>
   <g id="patch_63">
    <path d="M 123.779576 307.584 
L 130.022932 307.584 
L 130.022932 244.38765 
L 123.779576 244.38765 
z
" clip-path="url(#pad27c9a62d)" style="fill: #1f77b4; fill-opacity: 0.5; stroke: #000000; stroke-width: 0.624334; stroke-linejoin: miter"/>
   </g>
   <g id="patch_64">
    <path d="M 130.022947 307.584 
L 136.266303 307.584 
L 136.266303 255.22131 
L 130.022947 255.22131 
z
" clip-path="url(#pad27c9a62d)" style="fill: #1f77b4; fill-opacity: 0.5; stroke: #000000; stroke-width: 0.624334; stroke-linejoin: miter"/>
   </g>
   <g id="patch_65">
    <path d="M 136.266288 307.584 
L 142.509644 307.584 
L 142.509644 262.44375 
L 136.266288 262.44375 
z
" clip-path="url(#pad27c9a62d)" style="fill: #1f77b4; fill-opacity: 0.5; stroke: #000000; stroke-width: 0.624334; stroke-linejoin: miter"/>
   </g>
   <g id="patch_66">
    <path d="M 142.509659 307.584 
L 148.753015 307.584 
L 148.753015 267.86058 
L 142.509659 267.86058 
z
" clip-path="url(#pad27c9a62d)" style="fill: #1f77b4; fill-opacity: 0.5; stroke: #000000; stroke-width: 0.624334; stroke-linejoin: miter"/>
   </g>
   <g id="patch_67">
    <path d="M 148.753 307.584 
L 154.996356 307.584 
L 154.996356 244.38765 
L 148.753 244.38765 
z
" clip-path="url(#pad27c9a62d)" style="fill: #1f77b4; fill-opacity: 0.5; stroke: #000000; stroke-width: 0.624334; stroke-linejoin: miter"/>
   </g>
   <g id="patch_68">
    <path d="M 154.996371 307.584 
L 161.239727 307.584 
L 161.239727 269.66619 
L 154.996371 269.66619 
z
" clip-path="url(#pad27c9a62d)" style="fill: #1f77b4; fill-opacity: 0.5; stroke: #000000; stroke-width: 0.624334; stroke-linejoin: miter"/>
   </g>
   <g id="patch_69">
    <path d="M 161.239712 307.584 
L 167.483068 307.584 
L 167.483068 278.69424 
L 161.239712 278.69424 
z
" clip-path="url(#pad27c9a62d)" style="fill: #1f77b4; fill-opacity: 0.5; stroke: #000000; stroke-width: 0.624334; stroke-linejoin: miter"/>
   </g>
   <g id="patch_70">
    <path d="M 167.483083 307.584 
L 173.72644 307.584 
L 173.72644 273.27741 
L 167.483083 273.27741 
z
" clip-path="url(#pad27c9a62d)" style="fill: #1f77b4; fill-opacity: 0.5; stroke: #000000; stroke-width: 0.624334; stroke-linejoin: miter"/>
   </g>
   <g id="patch_71">
    <path d="M 173.726424 307.584 
L 179.96978 307.584 
L 179.96978 285.91668 
L 173.726424 285.91668 
z
" clip-path="url(#pad27c9a62d)" style="fill: #1f77b4; fill-opacity: 0.5; stroke: #000000; stroke-width: 0.624334; stroke-linejoin: miter"/>
   </g>
   <g id="patch_72">
    <path d="M 179.969796 307.584 
L 186.213136 307.584 
L 186.213136 280.499783 
L 179.969796 280.499783 
z
" clip-path="url(#pad27c9a62d)" style="fill: #1f77b4; fill-opacity: 0.5; stroke: #000000; stroke-width: 0.624334; stroke-linejoin: miter"/>
   </g>
   <g id="patch_73">
    <path d="M 186.213136 307.584 
L 192.456508 307.584 
L 192.456508 276.888706 
L 186.213136 276.888706 
z
" clip-path="url(#pad27c9a62d)" style="fill: #1f77b4; fill-opacity: 0.5; stroke: #000000; stroke-width: 0.624334; stroke-linejoin: miter"/>
   </g>
   <g id="patch_74">
    <path d="M 192.456539 307.584 
L 198.699879 307.584 
L 198.699879 293.139084 
L 192.456539 293.139084 
z
" clip-path="url(#pad27c9a62d)" style="fill: #1f77b4; fill-opacity: 0.5; stroke: #000000; stroke-width: 0.624334; stroke-linejoin: miter"/>
   </g>
   <g id="patch_75">
    <path d="M 198.699848 307.584 
L 204.94322 307.584 
L 204.94322 278.694312 
L 198.699848 278.694312 
z
" clip-path="url(#pad27c9a62d)" style="fill: #1f77b4; fill-opacity: 0.5; stroke: #000000; stroke-width: 0.624334; stroke-linejoin: miter"/>
   </g>
   <g id="patch_76">
    <path d="M 204.94322 307.584 
L 211.18656 307.584 
L 211.18656 284.111012 
L 204.94322 284.111012 
z
" clip-path="url(#pad27c9a62d)" style="fill: #1f77b4; fill-opacity: 0.5; stroke: #000000; stroke-width: 0.624334; stroke-linejoin: miter"/>
   </g>
   <g id="patch_77">
    <path d="M 211.18656 307.584 
L 217.429932 307.584 
L 217.429932 284.111128 
L 211.18656 284.111128 
z
" clip-path="url(#pad27c9a62d)" style="fill: #1f77b4; fill-opacity: 0.5; stroke: #000000; stroke-width: 0.624334; stroke-linejoin: miter"/>
   </g>
   <g id="patch_78">
    <path d="M 217.429963 307.584 
L 223.673303 307.584 
L 223.673303 294.944699 
L 217.429963 294.944699 
z
" clip-path="url(#pad27c9a62d)" style="fill: #1f77b4; fill-opacity: 0.5; stroke: #000000; stroke-width: 0.624334; stroke-linejoin: miter"/>
   </g>
   <g id="patch_79">
    <path d="M 223.673272 307.584 
L 229.916644 307.584 
L 229.916644 291.33355 
L 223.673272 291.33355 
z
" clip-path="url(#pad27c9a62d)" style="fill: #1f77b4; fill-opacity: 0.5; stroke: #000000; stroke-width: 0.624334; stroke-linejoin: miter"/>
   </g>
   <g id="patch_80">
    <path d="M 229.916644 307.584 
L 236.159984 307.584 
L 236.159984 278.694168 
L 229.916644 278.694168 
z
" clip-path="url(#pad27c9a62d)" style="fill: #1f77b4; fill-opacity: 0.5; stroke: #000000; stroke-width: 0.624334; stroke-linejoin: miter"/>
   </g>
   <g id="patch_81">
    <path d="M 236.159984 307.584 
L 242.403356 307.584 
L 242.403356 291.33355 
L 236.159984 291.33355 
z
" clip-path="url(#pad27c9a62d)" style="fill: #1f77b4; fill-opacity: 0.5; stroke: #000000; stroke-width: 0.624334; stroke-linejoin: miter"/>
   </g>
   <g id="patch_82">
    <path d="M 242.403387 307.584 
L 248.646728 307.584 
L 248.646728 293.139084 
L 242.403387 293.139084 
z
" clip-path="url(#pad27c9a62d)" style="fill: #1f77b4; fill-opacity: 0.5; stroke: #000000; stroke-width: 0.624334; stroke-linejoin: miter"/>
   </g>
   <g id="patch_83">
    <path d="M 248.646697 307.584 
L 254.890068 307.584 
L 254.890068 294.944761 
L 248.646697 294.944761 
z
" clip-path="url(#pad27c9a62d)" style="fill: #1f77b4; fill-opacity: 0.5; stroke: #000000; stroke-width: 0.624334; stroke-linejoin: miter"/>
   </g>
   <g id="patch_84">
    <path d="M 254.890068 307.584 
L 261.133409 307.584 
L 261.133409 294.944699 
L 254.890068 294.944699 
z
" clip-path="url(#pad27c9a62d)" style="fill: #1f77b4; fill-opacity: 0.5; stroke: #000000; stroke-width: 0.624334; stroke-linejoin: miter"/>
   </g>
   <g id="patch_85">
    <path d="M 261.133409 307.584 
L 267.37678 307.584 
L 267.37678 298.555972 
L 261.133409 298.555972 
z
" clip-path="url(#pad27c9a62d)" style="fill: #1f77b4; fill-opacity: 0.5; stroke: #000000; stroke-width: 0.624334; stroke-linejoin: miter"/>
   </g>
   <g id="patch_86">
    <path d="M 267.376811 307.584 
L 273.620152 307.584 
L 273.620152 293.139084 
L 267.376811 293.139084 
z
" clip-path="url(#pad27c9a62d)" style="fill: #1f77b4; fill-opacity: 0.5; stroke: #000000; stroke-width: 0.624334; stroke-linejoin: miter"/>
   </g>
   <g id="patch_87">
    <path d="M 273.620121 307.584 
L 279.863492 307.584 
L 279.863492 294.944761 
L 273.620121 294.944761 
z
" clip-path="url(#pad27c9a62d)" style="fill: #1f77b4; fill-opacity: 0.5; stroke: #000000; stroke-width: 0.624334; stroke-linejoin: miter"/>
   </g>
   <g id="patch_88">
    <path d="M 279.863492 307.584 
L 286.106833 307.584 
L 286.106833 298.555928 
L 279.863492 298.555928 
z
" clip-path="url(#pad27c9a62d)" style="fill: #1f77b4; fill-opacity: 0.5; stroke: #000000; stroke-width: 0.624334; stroke-linejoin: miter"/>
   </g>
   <g id="patch_89">
    <path d="M 286.106833 307.584 
L 292.350204 307.584 
L 292.350204 302.167183 
L 286.106833 302.167183 
z
" clip-path="url(#pad27c9a62d)" style="fill: #1f77b4; fill-opacity: 0.5; stroke: #000000; stroke-width: 0.624334; stroke-linejoin: miter"/>
   </g>
   <g id="patch_90">
    <path d="M 292.350235 307.584 
L 298.593576 307.584 
L 298.593576 291.33347 
L 292.350235 291.33347 
z
" clip-path="url(#pad27c9a62d)" style="fill: #1f77b4; fill-opacity: 0.5; stroke: #000000; stroke-width: 0.624334; stroke-linejoin: miter"/>
   </g>
   <g id="patch_91">
    <path d="M 298.593545 307.584 
L 304.836917 307.584 
L 304.836917 302.167183 
L 298.593545 302.167183 
z
" clip-path="url(#pad27c9a62d)" style="fill: #1f77b4; fill-opacity: 0.5; stroke: #000000; stroke-width: 0.624334; stroke-linejoin: miter"/>
   </g>
   <g id="patch_92">
    <path d="M 304.836917 307.584 
L 311.080257 307.584 
L 311.080257 293.139084 
L 304.836917 293.139084 
z
" clip-path="url(#pad27c9a62d)" style="fill: #1f77b4; fill-opacity: 0.5; stroke: #000000; stroke-width: 0.624334; stroke-linejoin: miter"/>
   </g>
   <g id="patch_93">
    <path d="M 311.080257 307.584 
L 317.323629 307.584 
L 317.323629 289.527945 
L 311.080257 289.527945 
z
" clip-path="url(#pad27c9a62d)" style="fill: #1f77b4; fill-opacity: 0.5; stroke: #000000; stroke-width: 0.624334; stroke-linejoin: miter"/>
   </g>
   <g id="patch_94">
    <path d="M 317.32366 307.584 
L 323.567 307.584 
L 323.567 300.361542 
L 317.32366 300.361542 
z
" clip-path="url(#pad27c9a62d)" style="fill: #1f77b4; fill-opacity: 0.5; stroke: #000000; stroke-width: 0.624334; stroke-linejoin: miter"/>
   </g>
   <g id="patch_95">
    <path d="M 323.566969 307.584 
L 329.810341 307.584 
L 329.810341 302.167183 
L 323.566969 302.167183 
z
" clip-path="url(#pad27c9a62d)" style="fill: #1f77b4; fill-opacity: 0.5; stroke: #000000; stroke-width: 0.624334; stroke-linejoin: miter"/>
   </g>
   <g id="patch_96">
    <path d="M 329.810341 307.584 
L 336.053681 307.584 
L 336.053681 302.167157 
L 329.810341 302.167157 
z
" clip-path="url(#pad27c9a62d)" style="fill: #1f77b4; fill-opacity: 0.5; stroke: #000000; stroke-width: 0.624334; stroke-linejoin: miter"/>
   </g>
   <g id="patch_97">
    <path d="M 336.053681 307.584 
L 342.297053 307.584 
L 342.297053 302.167183 
L 336.053681 302.167183 
z
" clip-path="url(#pad27c9a62d)" style="fill: #1f77b4; fill-opacity: 0.5; stroke: #000000; stroke-width: 0.624334; stroke-linejoin: miter"/>
   </g>
   <g id="patch_98">
    <path d="M 342.297084 307.584 
L 348.540424 307.584 
L 348.540424 305.778386 
L 342.297084 305.778386 
z
" clip-path="url(#pad27c9a62d)" style="fill: #1f77b4; fill-opacity: 0.5; stroke: #000000; stroke-width: 0.624334; stroke-linejoin: miter"/>
   </g>
   <g id="patch_99">
    <path d="M 348.540393 307.584 
L 354.783765 307.584 
L 354.783765 305.778394 
L 348.540393 305.778394 
z
" clip-path="url(#pad27c9a62d)" style="fill: #1f77b4; fill-opacity: 0.5; stroke: #000000; stroke-width: 0.624334; stroke-linejoin: miter"/>
   </g>
   <g id="patch_100">
    <path d="M 354.783765 307.584 
L 361.027105 307.584 
L 361.027105 307.584 
L 354.783765 307.584 
z
" clip-path="url(#pad27c9a62d)" style="fill: #1f77b4; fill-opacity: 0.5; stroke: #000000; stroke-width: 0.624334; stroke-linejoin: miter"/>
   </g>
   <g id="patch_101">
    <path d="M 361.027105 307.584 
L 367.270477 307.584 
L 367.270477 305.778394 
L 361.027105 305.778394 
z
" clip-path="url(#pad27c9a62d)" style="fill: #1f77b4; fill-opacity: 0.5; stroke: #000000; stroke-width: 0.624334; stroke-linejoin: miter"/>
   </g>
   <g id="patch_102">
    <path d="M 367.270508 307.584 
L 373.513849 307.584 
L 373.513849 307.584 
L 367.270508 307.584 
z
" clip-path="url(#pad27c9a62d)" style="fill: #1f77b4; fill-opacity: 0.5; stroke: #000000; stroke-width: 0.624334; stroke-linejoin: miter"/>
   </g>
   <g id="patch_103">
    <path d="M 373.513818 307.584 
L 379.757189 307.584 
L 379.757189 305.778394 
L 373.513818 305.778394 
z
" clip-path="url(#pad27c9a62d)" style="fill: #1f77b4; fill-opacity: 0.5; stroke: #000000; stroke-width: 0.624334; stroke-linejoin: miter"/>
   </g>
   <g id="patch_104">
    <path d="M 379.757189 307.584 
L 386.00053 307.584 
L 386.00053 307.584 
L 379.757189 307.584 
z
" clip-path="url(#pad27c9a62d)" style="fill: #1f77b4; fill-opacity: 0.5; stroke: #000000; stroke-width: 0.624334; stroke-linejoin: miter"/>
   </g>
   <g id="patch_105">
    <path d="M 386.00053 307.584 
L 392.243901 307.584 
L 392.243901 307.584 
L 386.00053 307.584 
z
" clip-path="url(#pad27c9a62d)" style="fill: #1f77b4; fill-opacity: 0.5; stroke: #000000; stroke-width: 0.624334; stroke-linejoin: miter"/>
   </g>
   <g id="patch_106">
    <path d="M 392.243932 307.584 
L 398.487273 307.584 
L 398.487273 305.778386 
L 392.243932 305.778386 
z
" clip-path="url(#pad27c9a62d)" style="fill: #1f77b4; fill-opacity: 0.5; stroke: #000000; stroke-width: 0.624334; stroke-linejoin: miter"/>
   </g>
   <g id="matplotlib.axis_1">
    <g id="xtick_1">
     <g id="line2d_1">
      <defs>
       <path id="m7c9fd9d87c" d="M 0 0 
L 0 3.5 
" style="stroke: #000000; stroke-width: 0.8"/>
      </defs>
      <g>
       <use xlink:href="#m7c9fd9d87c" x="73.817983" y="307.584" style="stroke: #000000; stroke-width: 0.8"/>
      </g>
     </g>
     <g id="text_1">
      <!-- 0.3 -->
      <g transform="translate(65.86642 322.182437) scale(0.1 -0.1)">
       <defs>
        <path id="DejaVuSans-30" d="M 2034 4250 
Q 1547 4250 1301 3770 
Q 1056 3291 1056 2328 
Q 1056 1369 1301 889 
Q 1547 409 2034 409 
Q 2525 409 2770 889 
Q 3016 1369 3016 2328 
Q 3016 3291 2770 3770 
Q 2525 4250 2034 4250 
z
M 2034 4750 
Q 2819 4750 3233 4129 
Q 3647 3509 3647 2328 
Q 3647 1150 3233 529 
Q 2819 -91 2034 -91 
Q 1250 -91 836 529 
Q 422 1150 422 2328 
Q 422 3509 836 4129 
Q 1250 4750 2034 4750 
z
" transform="scale(0.015625)"/>
        <path id="DejaVuSans-2e" d="M 684 794 
L 1344 794 
L 1344 0 
L 684 0 
L 684 794 
z
" transform="scale(0.015625)"/>
        <path id="DejaVuSans-33" d="M 2597 2516 
Q 3050 2419 3304 2112 
Q 3559 1806 3559 1356 
Q 3559 666 3084 287 
Q 2609 -91 1734 -91 
Q 1441 -91 1130 -33 
Q 819 25 488 141 
L 488 750 
Q 750 597 1062 519 
Q 1375 441 1716 441 
Q 2309 441 2620 675 
Q 2931 909 2931 1356 
Q 2931 1769 2642 2001 
Q 2353 2234 1838 2234 
L 1294 2234 
L 1294 2753 
L 1863 2753 
Q 2328 2753 2575 2939 
Q 2822 3125 2822 3475 
Q 2822 3834 2567 4026 
Q 2313 4219 1838 4219 
Q 1578 4219 1281 4162 
Q 984 4106 628 3988 
L 628 4550 
Q 988 4650 1302 4700 
Q 1616 4750 1894 4750 
Q 2613 4750 3031 4423 
Q 3450 4097 3450 3541 
Q 3450 3153 3228 2886 
Q 3006 2619 2597 2516 
z
" transform="scale(0.015625)"/>
       </defs>
       <use xlink:href="#DejaVuSans-30"/>
       <use xlink:href="#DejaVuSans-2e" x="63.623047"/>
       <use xlink:href="#DejaVuSans-33" x="95.410156"/>
      </g>
     </g>
    </g>
    <g id="xtick_2">
     <g id="line2d_2">
      <g>
       <use xlink:href="#m7c9fd9d87c" x="125.874157" y="307.584" style="stroke: #000000; stroke-width: 0.8"/>
      </g>
     </g>
     <g id="text_2">
      <!-- 0.4 -->
      <g transform="translate(117.922595 322.182437) scale(0.1 -0.1)">
       <defs>
        <path id="DejaVuSans-34" d="M 2419 4116 
L 825 1625 
L 2419 1625 
L 2419 4116 
z
M 2253 4666 
L 3047 4666 
L 3047 1625 
L 3713 1625 
L 3713 1100 
L 3047 1100 
L 3047 0 
L 2419 0 
L 2419 1100 
L 313 1100 
L 313 1709 
L 2253 4666 
z
" transform="scale(0.015625)"/>
       </defs>
       <use xlink:href="#DejaVuSans-30"/>
       <use xlink:href="#DejaVuSans-2e" x="63.623047"/>
       <use xlink:href="#DejaVuSans-34" x="95.410156"/>
      </g>
     </g>
    </g>
    <g id="xtick_3">
     <g id="line2d_3">
      <g>
       <use xlink:href="#m7c9fd9d87c" x="177.930332" y="307.584" style="stroke: #000000; stroke-width: 0.8"/>
      </g>
     </g>
     <g id="text_3">
      <!-- 0.5 -->
      <g transform="translate(169.978769 322.182437) scale(0.1 -0.1)">
       <defs>
        <path id="DejaVuSans-35" d="M 691 4666 
L 3169 4666 
L 3169 4134 
L 1269 4134 
L 1269 2991 
Q 1406 3038 1543 3061 
Q 1681 3084 1819 3084 
Q 2600 3084 3056 2656 
Q 3513 2228 3513 1497 
Q 3513 744 3044 326 
Q 2575 -91 1722 -91 
Q 1428 -91 1123 -41 
Q 819 9 494 109 
L 494 744 
Q 775 591 1075 516 
Q 1375 441 1709 441 
Q 2250 441 2565 725 
Q 2881 1009 2881 1497 
Q 2881 1984 2565 2268 
Q 2250 2553 1709 2553 
Q 1456 2553 1204 2497 
Q 953 2441 691 2322 
L 691 4666 
z
" transform="scale(0.015625)"/>
       </defs>
       <use xlink:href="#DejaVuSans-30"/>
       <use xlink:href="#DejaVuSans-2e" x="63.623047"/>
       <use xlink:href="#DejaVuSans-35" x="95.410156"/>
      </g>
     </g>
    </g>
    <g id="xtick_4">
     <g id="line2d_4">
      <g>
       <use xlink:href="#m7c9fd9d87c" x="229.986506" y="307.584" style="stroke: #000000; stroke-width: 0.8"/>
      </g>
     </g>
     <g id="text_4">
      <!-- 0.6 -->
      <g transform="translate(222.034944 322.182437) scale(0.1 -0.1)">
       <defs>
        <path id="DejaVuSans-36" d="M 2113 2584 
Q 1688 2584 1439 2293 
Q 1191 2003 1191 1497 
Q 1191 994 1439 701 
Q 1688 409 2113 409 
Q 2538 409 2786 701 
Q 3034 994 3034 1497 
Q 3034 2003 2786 2293 
Q 2538 2584 2113 2584 
z
M 3366 4563 
L 3366 3988 
Q 3128 4100 2886 4159 
Q 2644 4219 2406 4219 
Q 1781 4219 1451 3797 
Q 1122 3375 1075 2522 
Q 1259 2794 1537 2939 
Q 1816 3084 2150 3084 
Q 2853 3084 3261 2657 
Q 3669 2231 3669 1497 
Q 3669 778 3244 343 
Q 2819 -91 2113 -91 
Q 1303 -91 875 529 
Q 447 1150 447 2328 
Q 447 3434 972 4092 
Q 1497 4750 2381 4750 
Q 2619 4750 2861 4703 
Q 3103 4656 3366 4563 
z
" transform="scale(0.015625)"/>
       </defs>
       <use xlink:href="#DejaVuSans-30"/>
       <use xlink:href="#DejaVuSans-2e" x="63.623047"/>
       <use xlink:href="#DejaVuSans-36" x="95.410156"/>
      </g>
     </g>
    </g>
    <g id="xtick_5">
     <g id="line2d_5">
      <g>
       <use xlink:href="#m7c9fd9d87c" x="282.042681" y="307.584" style="stroke: #000000; stroke-width: 0.8"/>
      </g>
     </g>
     <g id="text_5">
      <!-- 0.7 -->
      <g transform="translate(274.091118 322.182437) scale(0.1 -0.1)">
       <defs>
        <path id="DejaVuSans-37" d="M 525 4666 
L 3525 4666 
L 3525 4397 
L 1831 0 
L 1172 0 
L 2766 4134 
L 525 4134 
L 525 4666 
z
" transform="scale(0.015625)"/>
       </defs>
       <use xlink:href="#DejaVuSans-30"/>
       <use xlink:href="#DejaVuSans-2e" x="63.623047"/>
       <use xlink:href="#DejaVuSans-37" x="95.410156"/>
      </g>
     </g>
    </g>
    <g id="xtick_6">
     <g id="line2d_6">
      <g>
       <use xlink:href="#m7c9fd9d87c" x="334.098855" y="307.584" style="stroke: #000000; stroke-width: 0.8"/>
      </g>
     </g>
     <g id="text_6">
      <!-- 0.8 -->
      <g transform="translate(326.147293 322.182437) scale(0.1 -0.1)">
       <defs>
        <path id="DejaVuSans-38" d="M 2034 2216 
Q 1584 2216 1326 1975 
Q 1069 1734 1069 1313 
Q 1069 891 1326 650 
Q 1584 409 2034 409 
Q 2484 409 2743 651 
Q 3003 894 3003 1313 
Q 3003 1734 2745 1975 
Q 2488 2216 2034 2216 
z
M 1403 2484 
Q 997 2584 770 2862 
Q 544 3141 544 3541 
Q 544 4100 942 4425 
Q 1341 4750 2034 4750 
Q 2731 4750 3128 4425 
Q 3525 4100 3525 3541 
Q 3525 3141 3298 2862 
Q 3072 2584 2669 2484 
Q 3125 2378 3379 2068 
Q 3634 1759 3634 1313 
Q 3634 634 3220 271 
Q 2806 -91 2034 -91 
Q 1263 -91 848 271 
Q 434 634 434 1313 
Q 434 1759 690 2068 
Q 947 2378 1403 2484 
z
M 1172 3481 
Q 1172 3119 1398 2916 
Q 1625 2713 2034 2713 
Q 2441 2713 2670 2916 
Q 2900 3119 2900 3481 
Q 2900 3844 2670 4047 
Q 2441 4250 2034 4250 
Q 1625 4250 1398 4047 
Q 1172 3844 1172 3481 
z
" transform="scale(0.015625)"/>
       </defs>
       <use xlink:href="#DejaVuSans-30"/>
       <use xlink:href="#DejaVuSans-2e" x="63.623047"/>
       <use xlink:href="#DejaVuSans-38" x="95.410156"/>
      </g>
     </g>
    </g>
    <g id="xtick_7">
     <g id="line2d_7">
      <g>
       <use xlink:href="#m7c9fd9d87c" x="386.15503" y="307.584" style="stroke: #000000; stroke-width: 0.8"/>
      </g>
     </g>
     <g id="text_7">
      <!-- 0.9 -->
      <g transform="translate(378.203467 322.182437) scale(0.1 -0.1)">
       <defs>
        <path id="DejaVuSans-39" d="M 703 97 
L 703 672 
Q 941 559 1184 500 
Q 1428 441 1663 441 
Q 2288 441 2617 861 
Q 2947 1281 2994 2138 
Q 2813 1869 2534 1725 
Q 2256 1581 1919 1581 
Q 1219 1581 811 2004 
Q 403 2428 403 3163 
Q 403 3881 828 4315 
Q 1253 4750 1959 4750 
Q 2769 4750 3195 4129 
Q 3622 3509 3622 2328 
Q 3622 1225 3098 567 
Q 2575 -91 1691 -91 
Q 1453 -91 1209 -44 
Q 966 3 703 97 
z
M 1959 2075 
Q 2384 2075 2632 2365 
Q 2881 2656 2881 3163 
Q 2881 3666 2632 3958 
Q 2384 4250 1959 4250 
Q 1534 4250 1286 3958 
Q 1038 3666 1038 3163 
Q 1038 2656 1286 2365 
Q 1534 2075 1959 2075 
z
" transform="scale(0.015625)"/>
       </defs>
       <use xlink:href="#DejaVuSans-30"/>
       <use xlink:href="#DejaVuSans-2e" x="63.623047"/>
       <use xlink:href="#DejaVuSans-39" x="95.410156"/>
      </g>
     </g>
    </g>
    <g id="text_8">
     <!-- Cosine_similarity -->
     <g transform="translate(193.799844 335.860562) scale(0.1 -0.1)">
      <defs>
       <path id="DejaVuSans-43" d="M 4122 4306 
L 4122 3641 
Q 3803 3938 3442 4084 
Q 3081 4231 2675 4231 
Q 1875 4231 1450 3742 
Q 1025 3253 1025 2328 
Q 1025 1406 1450 917 
Q 1875 428 2675 428 
Q 3081 428 3442 575 
Q 3803 722 4122 1019 
L 4122 359 
Q 3791 134 3420 21 
Q 3050 -91 2638 -91 
Q 1578 -91 968 557 
Q 359 1206 359 2328 
Q 359 3453 968 4101 
Q 1578 4750 2638 4750 
Q 3056 4750 3426 4639 
Q 3797 4528 4122 4306 
z
" transform="scale(0.015625)"/>
       <path id="DejaVuSans-6f" d="M 1959 3097 
Q 1497 3097 1228 2736 
Q 959 2375 959 1747 
Q 959 1119 1226 758 
Q 1494 397 1959 397 
Q 2419 397 2687 759 
Q 2956 1122 2956 1747 
Q 2956 2369 2687 2733 
Q 2419 3097 1959 3097 
z
M 1959 3584 
Q 2709 3584 3137 3096 
Q 3566 2609 3566 1747 
Q 3566 888 3137 398 
Q 2709 -91 1959 -91 
Q 1206 -91 779 398 
Q 353 888 353 1747 
Q 353 2609 779 3096 
Q 1206 3584 1959 3584 
z
" transform="scale(0.015625)"/>
       <path id="DejaVuSans-73" d="M 2834 3397 
L 2834 2853 
Q 2591 2978 2328 3040 
Q 2066 3103 1784 3103 
Q 1356 3103 1142 2972 
Q 928 2841 928 2578 
Q 928 2378 1081 2264 
Q 1234 2150 1697 2047 
L 1894 2003 
Q 2506 1872 2764 1633 
Q 3022 1394 3022 966 
Q 3022 478 2636 193 
Q 2250 -91 1575 -91 
Q 1294 -91 989 -36 
Q 684 19 347 128 
L 347 722 
Q 666 556 975 473 
Q 1284 391 1588 391 
Q 1994 391 2212 530 
Q 2431 669 2431 922 
Q 2431 1156 2273 1281 
Q 2116 1406 1581 1522 
L 1381 1569 
Q 847 1681 609 1914 
Q 372 2147 372 2553 
Q 372 3047 722 3315 
Q 1072 3584 1716 3584 
Q 2034 3584 2315 3537 
Q 2597 3491 2834 3397 
z
" transform="scale(0.015625)"/>
       <path id="DejaVuSans-69" d="M 603 3500 
L 1178 3500 
L 1178 0 
L 603 0 
L 603 3500 
z
M 603 4863 
L 1178 4863 
L 1178 4134 
L 603 4134 
L 603 4863 
z
" transform="scale(0.015625)"/>
       <path id="DejaVuSans-6e" d="M 3513 2113 
L 3513 0 
L 2938 0 
L 2938 2094 
Q 2938 2591 2744 2837 
Q 2550 3084 2163 3084 
Q 1697 3084 1428 2787 
Q 1159 2491 1159 1978 
L 1159 0 
L 581 0 
L 581 3500 
L 1159 3500 
L 1159 2956 
Q 1366 3272 1645 3428 
Q 1925 3584 2291 3584 
Q 2894 3584 3203 3211 
Q 3513 2838 3513 2113 
z
" transform="scale(0.015625)"/>
       <path id="DejaVuSans-65" d="M 3597 1894 
L 3597 1613 
L 953 1613 
Q 991 1019 1311 708 
Q 1631 397 2203 397 
Q 2534 397 2845 478 
Q 3156 559 3463 722 
L 3463 178 
Q 3153 47 2828 -22 
Q 2503 -91 2169 -91 
Q 1331 -91 842 396 
Q 353 884 353 1716 
Q 353 2575 817 3079 
Q 1281 3584 2069 3584 
Q 2775 3584 3186 3129 
Q 3597 2675 3597 1894 
z
M 3022 2063 
Q 3016 2534 2758 2815 
Q 2500 3097 2075 3097 
Q 1594 3097 1305 2825 
Q 1016 2553 972 2059 
L 3022 2063 
z
" transform="scale(0.015625)"/>
       <path id="DejaVuSans-5f" d="M 3263 -1063 
L 3263 -1509 
L -63 -1509 
L -63 -1063 
L 3263 -1063 
z
" transform="scale(0.015625)"/>
       <path id="DejaVuSans-6d" d="M 3328 2828 
Q 3544 3216 3844 3400 
Q 4144 3584 4550 3584 
Q 5097 3584 5394 3201 
Q 5691 2819 5691 2113 
L 5691 0 
L 5113 0 
L 5113 2094 
Q 5113 2597 4934 2840 
Q 4756 3084 4391 3084 
Q 3944 3084 3684 2787 
Q 3425 2491 3425 1978 
L 3425 0 
L 2847 0 
L 2847 2094 
Q 2847 2600 2669 2842 
Q 2491 3084 2119 3084 
Q 1678 3084 1418 2786 
Q 1159 2488 1159 1978 
L 1159 0 
L 581 0 
L 581 3500 
L 1159 3500 
L 1159 2956 
Q 1356 3278 1631 3431 
Q 1906 3584 2284 3584 
Q 2666 3584 2933 3390 
Q 3200 3197 3328 2828 
z
" transform="scale(0.015625)"/>
       <path id="DejaVuSans-6c" d="M 603 4863 
L 1178 4863 
L 1178 0 
L 603 0 
L 603 4863 
z
" transform="scale(0.015625)"/>
       <path id="DejaVuSans-61" d="M 2194 1759 
Q 1497 1759 1228 1600 
Q 959 1441 959 1056 
Q 959 750 1161 570 
Q 1363 391 1709 391 
Q 2188 391 2477 730 
Q 2766 1069 2766 1631 
L 2766 1759 
L 2194 1759 
z
M 3341 1997 
L 3341 0 
L 2766 0 
L 2766 531 
Q 2569 213 2275 61 
Q 1981 -91 1556 -91 
Q 1019 -91 701 211 
Q 384 513 384 1019 
Q 384 1609 779 1909 
Q 1175 2209 1959 2209 
L 2766 2209 
L 2766 2266 
Q 2766 2663 2505 2880 
Q 2244 3097 1772 3097 
Q 1472 3097 1187 3025 
Q 903 2953 641 2809 
L 641 3341 
Q 956 3463 1253 3523 
Q 1550 3584 1831 3584 
Q 2591 3584 2966 3190 
Q 3341 2797 3341 1997 
z
" transform="scale(0.015625)"/>
       <path id="DejaVuSans-72" d="M 2631 2963 
Q 2534 3019 2420 3045 
Q 2306 3072 2169 3072 
Q 1681 3072 1420 2755 
Q 1159 2438 1159 1844 
L 1159 0 
L 581 0 
L 581 3500 
L 1159 3500 
L 1159 2956 
Q 1341 3275 1631 3429 
Q 1922 3584 2338 3584 
Q 2397 3584 2469 3576 
Q 2541 3569 2628 3553 
L 2631 2963 
z
" transform="scale(0.015625)"/>
       <path id="DejaVuSans-74" d="M 1172 4494 
L 1172 3500 
L 2356 3500 
L 2356 3053 
L 1172 3053 
L 1172 1153 
Q 1172 725 1289 603 
Q 1406 481 1766 481 
L 2356 481 
L 2356 0 
L 1766 0 
Q 1100 0 847 248 
Q 594 497 594 1153 
L 594 3053 
L 172 3053 
L 172 3500 
L 594 3500 
L 594 4494 
L 1172 4494 
z
" transform="scale(0.015625)"/>
       <path id="DejaVuSans-79" d="M 2059 -325 
Q 1816 -950 1584 -1140 
Q 1353 -1331 966 -1331 
L 506 -1331 
L 506 -850 
L 844 -850 
Q 1081 -850 1212 -737 
Q 1344 -625 1503 -206 
L 1606 56 
L 191 3500 
L 800 3500 
L 1894 763 
L 2988 3500 
L 3597 3500 
L 2059 -325 
z
" transform="scale(0.015625)"/>
      </defs>
      <use xlink:href="#DejaVuSans-43"/>
      <use xlink:href="#DejaVuSans-6f" x="69.824219"/>
      <use xlink:href="#DejaVuSans-73" x="131.005859"/>
      <use xlink:href="#DejaVuSans-69" x="183.105469"/>
      <use xlink:href="#DejaVuSans-6e" x="210.888672"/>
      <use xlink:href="#DejaVuSans-65" x="274.267578"/>
      <use xlink:href="#DejaVuSans-5f" x="335.791016"/>
      <use xlink:href="#DejaVuSans-73" x="385.791016"/>
      <use xlink:href="#DejaVuSans-69" x="437.890625"/>
      <use xlink:href="#DejaVuSans-6d" x="465.673828"/>
      <use xlink:href="#DejaVuSans-69" x="563.085938"/>
      <use xlink:href="#DejaVuSans-6c" x="590.869141"/>
      <use xlink:href="#DejaVuSans-61" x="618.652344"/>
      <use xlink:href="#DejaVuSans-72" x="679.931641"/>
      <use xlink:href="#DejaVuSans-69" x="721.044922"/>
      <use xlink:href="#DejaVuSans-74" x="748.828125"/>
      <use xlink:href="#DejaVuSans-79" x="788.037109"/>
     </g>
    </g>
   </g>
   <g id="matplotlib.axis_2">
    <g id="ytick_1">
     <g id="line2d_8">
      <defs>
       <path id="m11bf978524" d="M 0 0 
L -3.5 0 
" style="stroke: #000000; stroke-width: 0.8"/>
      </defs>
      <g>
       <use xlink:href="#m11bf978524" x="57.6" y="307.584" style="stroke: #000000; stroke-width: 0.8"/>
      </g>
     </g>
     <g id="text_9">
      <!-- 0 -->
      <g transform="translate(44.2375 311.383219) scale(0.1 -0.1)">
       <use xlink:href="#DejaVuSans-30"/>
      </g>
     </g>
    </g>
    <g id="ytick_2">
     <g id="line2d_9">
      <g>
       <use xlink:href="#m11bf978524" x="57.6" y="267.737735" style="stroke: #000000; stroke-width: 0.8"/>
      </g>
     </g>
     <g id="text_10">
      <!-- 2 -->
      <g transform="translate(44.2375 271.536953) scale(0.1 -0.1)">
       <defs>
        <path id="DejaVuSans-32" d="M 1228 531 
L 3431 531 
L 3431 0 
L 469 0 
L 469 531 
Q 828 903 1448 1529 
Q 2069 2156 2228 2338 
Q 2531 2678 2651 2914 
Q 2772 3150 2772 3378 
Q 2772 3750 2511 3984 
Q 2250 4219 1831 4219 
Q 1534 4219 1204 4116 
Q 875 4013 500 3803 
L 500 4441 
Q 881 4594 1212 4672 
Q 1544 4750 1819 4750 
Q 2544 4750 2975 4387 
Q 3406 4025 3406 3419 
Q 3406 3131 3298 2873 
Q 3191 2616 2906 2266 
Q 2828 2175 2409 1742 
Q 1991 1309 1228 531 
z
" transform="scale(0.015625)"/>
       </defs>
       <use xlink:href="#DejaVuSans-32"/>
      </g>
     </g>
    </g>
    <g id="ytick_3">
     <g id="line2d_10">
      <g>
       <use xlink:href="#m11bf978524" x="57.6" y="227.891469" style="stroke: #000000; stroke-width: 0.8"/>
      </g>
     </g>
     <g id="text_11">
      <!-- 4 -->
      <g transform="translate(44.2375 231.690688) scale(0.1 -0.1)">
       <use xlink:href="#DejaVuSans-34"/>
      </g>
     </g>
    </g>
    <g id="ytick_4">
     <g id="line2d_11">
      <g>
       <use xlink:href="#m11bf978524" x="57.6" y="188.045204" style="stroke: #000000; stroke-width: 0.8"/>
      </g>
     </g>
     <g id="text_12">
      <!-- 6 -->
      <g transform="translate(44.2375 191.844422) scale(0.1 -0.1)">
       <use xlink:href="#DejaVuSans-36"/>
      </g>
     </g>
    </g>
    <g id="ytick_5">
     <g id="line2d_12">
      <g>
       <use xlink:href="#m11bf978524" x="57.6" y="148.198938" style="stroke: #000000; stroke-width: 0.8"/>
      </g>
     </g>
     <g id="text_13">
      <!-- 8 -->
      <g transform="translate(44.2375 151.998157) scale(0.1 -0.1)">
       <use xlink:href="#DejaVuSans-38"/>
      </g>
     </g>
    </g>
    <g id="ytick_6">
     <g id="line2d_13">
      <g>
       <use xlink:href="#m11bf978524" x="57.6" y="108.352673" style="stroke: #000000; stroke-width: 0.8"/>
      </g>
     </g>
     <g id="text_14">
      <!-- 10 -->
      <g transform="translate(37.875 112.151891) scale(0.1 -0.1)">
       <defs>
        <path id="DejaVuSans-31" d="M 794 531 
L 1825 531 
L 1825 4091 
L 703 3866 
L 703 4441 
L 1819 4666 
L 2450 4666 
L 2450 531 
L 3481 531 
L 3481 0 
L 794 0 
L 794 531 
z
" transform="scale(0.015625)"/>
       </defs>
       <use xlink:href="#DejaVuSans-31"/>
       <use xlink:href="#DejaVuSans-30" x="63.623047"/>
      </g>
     </g>
    </g>
    <g id="ytick_7">
     <g id="line2d_14">
      <g>
       <use xlink:href="#m11bf978524" x="57.6" y="68.506407" style="stroke: #000000; stroke-width: 0.8"/>
      </g>
     </g>
     <g id="text_15">
      <!-- 12 -->
      <g transform="translate(37.875 72.305626) scale(0.1 -0.1)">
       <use xlink:href="#DejaVuSans-31"/>
       <use xlink:href="#DejaVuSans-32" x="63.623047"/>
      </g>
     </g>
    </g>
    <g id="text_16">
     <!-- Density -->
     <g transform="translate(31.795312 193.536594) rotate(-90) scale(0.1 -0.1)">
      <defs>
       <path id="DejaVuSans-44" d="M 1259 4147 
L 1259 519 
L 2022 519 
Q 2988 519 3436 956 
Q 3884 1394 3884 2338 
Q 3884 3275 3436 3711 
Q 2988 4147 2022 4147 
L 1259 4147 
z
M 628 4666 
L 1925 4666 
Q 3281 4666 3915 4102 
Q 4550 3538 4550 2338 
Q 4550 1131 3912 565 
Q 3275 0 1925 0 
L 628 0 
L 628 4666 
z
" transform="scale(0.015625)"/>
      </defs>
      <use xlink:href="#DejaVuSans-44"/>
      <use xlink:href="#DejaVuSans-65" x="77.001953"/>
      <use xlink:href="#DejaVuSans-6e" x="138.525391"/>
      <use xlink:href="#DejaVuSans-73" x="201.904297"/>
      <use xlink:href="#DejaVuSans-69" x="254.003906"/>
      <use xlink:href="#DejaVuSans-74" x="281.787109"/>
      <use xlink:href="#DejaVuSans-79" x="320.996094"/>
     </g>
    </g>
   </g>
   <g id="patch_107">
    <path d="M 57.6 307.584 
L 57.6 41.472 
" style="fill: none; stroke: #000000; stroke-width: 0.8; stroke-linejoin: miter; stroke-linecap: square"/>
   </g>
   <g id="patch_108">
    <path d="M 414.72 307.584 
L 414.72 41.472 
" style="fill: none; stroke: #000000; stroke-width: 0.8; stroke-linejoin: miter; stroke-linecap: square"/>
   </g>
   <g id="patch_109">
    <path d="M 57.6 307.584 
L 414.72 307.584 
" style="fill: none; stroke: #000000; stroke-width: 0.8; stroke-linejoin: miter; stroke-linecap: square"/>
   </g>
   <g id="patch_110">
    <path d="M 57.6 41.472 
L 414.72 41.472 
" style="fill: none; stroke: #000000; stroke-width: 0.8; stroke-linejoin: miter; stroke-linecap: square"/>
   </g>
   <g id="legend_1">
    <g id="patch_111">
     <path d="M 309.187187 93.506375 
L 407.72 93.506375 
Q 409.72 93.506375 409.72 91.506375 
L 409.72 48.472 
Q 409.72 46.472 407.72 46.472 
L 309.187187 46.472 
Q 307.187187 46.472 307.187187 48.472 
L 307.187187 91.506375 
Q 307.187187 93.506375 309.187187 93.506375 
z
" style="fill: #ffffff; opacity: 0.8; stroke: #cccccc; stroke-linejoin: miter"/>
    </g>
    <g id="text_17">
     <!-- Pairs -->
     <g transform="translate(346.550469 58.070438) scale(0.1 -0.1)">
      <defs>
       <path id="DejaVuSans-50" d="M 1259 4147 
L 1259 2394 
L 2053 2394 
Q 2494 2394 2734 2622 
Q 2975 2850 2975 3272 
Q 2975 3691 2734 3919 
Q 2494 4147 2053 4147 
L 1259 4147 
z
M 628 4666 
L 2053 4666 
Q 2838 4666 3239 4311 
Q 3641 3956 3641 3272 
Q 3641 2581 3239 2228 
Q 2838 1875 2053 1875 
L 1259 1875 
L 1259 0 
L 628 0 
L 628 4666 
z
" transform="scale(0.015625)"/>
      </defs>
      <use xlink:href="#DejaVuSans-50"/>
      <use xlink:href="#DejaVuSans-61" x="55.802734"/>
      <use xlink:href="#DejaVuSans-69" x="117.082031"/>
      <use xlink:href="#DejaVuSans-72" x="144.865234"/>
      <use xlink:href="#DejaVuSans-73" x="185.978516"/>
     </g>
    </g>
    <g id="patch_112">
     <path d="M 311.187187 72.748563 
L 331.187187 72.748563 
L 331.187187 65.748563 
L 311.187187 65.748563 
z
" style="fill: #1f77b4; fill-opacity: 0.5; stroke: #000000; stroke-linejoin: miter"/>
    </g>
    <g id="text_18">
     <!-- Matches -->
     <g transform="translate(339.187187 72.748563) scale(0.1 -0.1)">
      <defs>
       <path id="DejaVuSans-4d" d="M 628 4666 
L 1569 4666 
L 2759 1491 
L 3956 4666 
L 4897 4666 
L 4897 0 
L 4281 0 
L 4281 4097 
L 3078 897 
L 2444 897 
L 1241 4097 
L 1241 0 
L 628 0 
L 628 4666 
z
" transform="scale(0.015625)"/>
       <path id="DejaVuSans-63" d="M 3122 3366 
L 3122 2828 
Q 2878 2963 2633 3030 
Q 2388 3097 2138 3097 
Q 1578 3097 1268 2742 
Q 959 2388 959 1747 
Q 959 1106 1268 751 
Q 1578 397 2138 397 
Q 2388 397 2633 464 
Q 2878 531 3122 666 
L 3122 134 
Q 2881 22 2623 -34 
Q 2366 -91 2075 -91 
Q 1284 -91 818 406 
Q 353 903 353 1747 
Q 353 2603 823 3093 
Q 1294 3584 2113 3584 
Q 2378 3584 2631 3529 
Q 2884 3475 3122 3366 
z
" transform="scale(0.015625)"/>
       <path id="DejaVuSans-68" d="M 3513 2113 
L 3513 0 
L 2938 0 
L 2938 2094 
Q 2938 2591 2744 2837 
Q 2550 3084 2163 3084 
Q 1697 3084 1428 2787 
Q 1159 2491 1159 1978 
L 1159 0 
L 581 0 
L 581 4863 
L 1159 4863 
L 1159 2956 
Q 1366 3272 1645 3428 
Q 1925 3584 2291 3584 
Q 2894 3584 3203 3211 
Q 3513 2838 3513 2113 
z
" transform="scale(0.015625)"/>
      </defs>
      <use xlink:href="#DejaVuSans-4d"/>
      <use xlink:href="#DejaVuSans-61" x="86.279297"/>
      <use xlink:href="#DejaVuSans-74" x="147.558594"/>
      <use xlink:href="#DejaVuSans-63" x="186.767578"/>
      <use xlink:href="#DejaVuSans-68" x="241.748047"/>
      <use xlink:href="#DejaVuSans-65" x="305.126953"/>
      <use xlink:href="#DejaVuSans-73" x="366.650391"/>
     </g>
    </g>
    <g id="patch_113">
     <path d="M 311.187187 87.426688 
L 331.187187 87.426688 
L 331.187187 80.426688 
L 311.187187 80.426688 
z
" style="fill: #ff7f0e; fill-opacity: 0.5; stroke: #000000; stroke-linejoin: miter"/>
    </g>
    <g id="text_19">
     <!-- Non-matches -->
     <g transform="translate(339.187187 87.426688) scale(0.1 -0.1)">
      <defs>
       <path id="DejaVuSans-4e" d="M 628 4666 
L 1478 4666 
L 3547 763 
L 3547 4666 
L 4159 4666 
L 4159 0 
L 3309 0 
L 1241 3903 
L 1241 0 
L 628 0 
L 628 4666 
z
" transform="scale(0.015625)"/>
       <path id="DejaVuSans-2d" d="M 313 2009 
L 1997 2009 
L 1997 1497 
L 313 1497 
L 313 2009 
z
" transform="scale(0.015625)"/>
      </defs>
      <use xlink:href="#DejaVuSans-4e"/>
      <use xlink:href="#DejaVuSans-6f" x="74.804688"/>
      <use xlink:href="#DejaVuSans-6e" x="135.986328"/>
      <use xlink:href="#DejaVuSans-2d" x="199.365234"/>
      <use xlink:href="#DejaVuSans-6d" x="235.449219"/>
      <use xlink:href="#DejaVuSans-61" x="332.861328"/>
      <use xlink:href="#DejaVuSans-74" x="394.140625"/>
      <use xlink:href="#DejaVuSans-63" x="433.349609"/>
      <use xlink:href="#DejaVuSans-68" x="488.330078"/>
      <use xlink:href="#DejaVuSans-65" x="551.708984"/>
      <use xlink:href="#DejaVuSans-73" x="613.232422"/>
     </g>
    </g>
   </g>
  </g>
 </g>
 <defs>
  <clipPath id="pad27c9a62d">
   <rect x="57.6" y="41.472" width="357.12" height="266.112"/>
  </clipPath>
 </defs>
</svg>
